G04 #@! TF.GenerationSoftware,KiCad,Pcbnew,(5.1.2)-1*
G04 #@! TF.CreationDate,2020-11-19T11:24:46+01:00*
G04 #@! TF.ProjectId,HB-ES-PMSwX-Pl_GosoundSP111,48422d45-532d-4504-9d53-77582d506c5f,rev?*
G04 #@! TF.SameCoordinates,Original*
G04 #@! TF.FileFunction,Copper,L3,Inr*
G04 #@! TF.FilePolarity,Positive*
%FSLAX46Y46*%
G04 Gerber Fmt 4.6, Leading zero omitted, Abs format (unit mm)*
G04 Created by KiCad (PCBNEW (5.1.2)-1) date 2020-11-19 11:24:46*
%MOMM*%
%LPD*%
G04 APERTURE LIST*
%ADD10R,1.700000X1.700000*%
%ADD11C,0.800000*%
%ADD12C,0.500000*%
%ADD13C,0.250000*%
G04 APERTURE END LIST*
D10*
X126669800Y-66776600D03*
D11*
X115951000Y-70332600D03*
X121335800Y-65608200D03*
X123342400Y-67513200D03*
X121488200Y-57861200D03*
X118592600Y-69062600D03*
X114223800Y-63398400D03*
X122000000Y-71000000D03*
X120472200Y-57886600D03*
X117678200Y-57886600D03*
X114858800Y-57861200D03*
X114223800Y-70332600D03*
X125298200Y-61671200D03*
X120091200Y-67818000D03*
X125298200Y-65557400D03*
X115214400Y-63398400D03*
X125984000Y-71000000D03*
X120472200Y-58877200D03*
X117678200Y-58826400D03*
X114833400Y-58826400D03*
X121488200Y-58877200D03*
X116078000Y-67310000D03*
X113563400Y-64160400D03*
X123000000Y-71000000D03*
X124409200Y-66852800D03*
X115062000Y-67411600D03*
X124409200Y-65862200D03*
X114173000Y-67386200D03*
X112826800Y-69342000D03*
X112826800Y-67945000D03*
X112801400Y-66548000D03*
X112801400Y-65176400D03*
X112801400Y-63728600D03*
X112826800Y-62331600D03*
X115443000Y-60147200D03*
X123571000Y-69392800D03*
X127000000Y-71000000D03*
X114604800Y-60147200D03*
X122072400Y-69189600D03*
X124993400Y-71000000D03*
X116281200Y-60147200D03*
X124409200Y-67716400D03*
X124000000Y-71000000D03*
D12*
X114223800Y-70332600D02*
X116803001Y-67753399D01*
X122053885Y-57861200D02*
X121488200Y-57861200D01*
X122213201Y-58020516D02*
X122053885Y-57861200D01*
X122213201Y-64730799D02*
X122213201Y-58020516D01*
X121335800Y-65608200D02*
X122213201Y-64730799D01*
X114223800Y-63818400D02*
X114223800Y-63398400D01*
X116803001Y-66397601D02*
X114223800Y-63818400D01*
X116803001Y-67753399D02*
X116803001Y-66397601D01*
D13*
X125134201Y-68902601D02*
X123919001Y-70117801D01*
X125134201Y-66504799D02*
X125134201Y-68902601D01*
X124757201Y-66127799D02*
X125134201Y-66504799D01*
X124522399Y-66127799D02*
X124757201Y-66127799D01*
X124409200Y-66014600D02*
X124522399Y-66127799D01*
X124409200Y-65862200D02*
X124409200Y-66014600D01*
X116516685Y-70332600D02*
X115951000Y-70332600D01*
X116731484Y-70117801D02*
X116516685Y-70332600D01*
X123919001Y-70117801D02*
X116731484Y-70117801D01*
X123171001Y-68992801D02*
X123571000Y-69392800D01*
X122948603Y-68992801D02*
X123171001Y-68992801D01*
X115443000Y-61487198D02*
X122948603Y-68992801D01*
X115443000Y-60147200D02*
X115443000Y-61487198D01*
X119366199Y-68166001D02*
X120389798Y-69189600D01*
X119366199Y-66502597D02*
X119366199Y-68166001D01*
X114604800Y-61741198D02*
X119366199Y-66502597D01*
X114604800Y-60147200D02*
X114604800Y-61741198D01*
X120389798Y-69189600D02*
X121506715Y-69189600D01*
X121506715Y-69189600D02*
X122072400Y-69189600D01*
X124009201Y-68116399D02*
X124409200Y-67716400D01*
X122892799Y-68238201D02*
X123887399Y-68238201D01*
X116281200Y-61626602D02*
X122892799Y-68238201D01*
X116281200Y-60147200D02*
X116281200Y-61626602D01*
X123887399Y-68238201D02*
X124009201Y-68116399D01*
M02*
