G04 #@! TF.GenerationSoftware,KiCad,Pcbnew,(5.1.2)-1*
G04 #@! TF.CreationDate,2020-11-21T10:17:18+01:00*
G04 #@! TF.ProjectId,HB-ES-PMSwX-Pl_Gosund,48422d45-532d-4504-9d53-77582d506c5f,rev?*
G04 #@! TF.SameCoordinates,Original*
G04 #@! TF.FileFunction,Copper,L2,Inr*
G04 #@! TF.FilePolarity,Positive*
%FSLAX46Y46*%
G04 Gerber Fmt 4.6, Leading zero omitted, Abs format (unit mm)*
G04 Created by KiCad (PCBNEW (5.1.2)-1) date 2020-11-21 10:17:18*
%MOMM*%
%LPD*%
G04 APERTURE LIST*
%ADD10R,1.700000X1.700000*%
%ADD11C,0.800000*%
%ADD12C,0.250000*%
%ADD13C,0.500000*%
%ADD14C,0.254000*%
G04 APERTURE END LIST*
D10*
X126695200Y-66040000D03*
D11*
X121335800Y-65608200D03*
X123342400Y-67513200D03*
X121488200Y-57861200D03*
X118592600Y-69062600D03*
X114223800Y-63398400D03*
X122000000Y-71000000D03*
X120472200Y-57886600D03*
X117678200Y-57886600D03*
X114858800Y-57861200D03*
X114223800Y-70332600D03*
X123380500Y-59702700D03*
X126365000Y-60718700D03*
X125298200Y-63690500D03*
X125298200Y-61671200D03*
X120091200Y-67818000D03*
X125298200Y-65557400D03*
X115214400Y-63398400D03*
X125984000Y-71000000D03*
X120472200Y-58877200D03*
X117678200Y-58826400D03*
X114833400Y-58826400D03*
X121488200Y-58877200D03*
X116078000Y-67310000D03*
X113563400Y-64160400D03*
X123000000Y-71000000D03*
X124409200Y-66852800D03*
X115062000Y-67411600D03*
X115951000Y-70332600D03*
X124409200Y-65862200D03*
X114173000Y-67386200D03*
X112826800Y-69342000D03*
X112826800Y-67945000D03*
X112801400Y-66548000D03*
X112801400Y-65176400D03*
X112801400Y-63728600D03*
X112826800Y-62331600D03*
X127000000Y-71000000D03*
X115443000Y-60147200D03*
X123571000Y-69392800D03*
X125000000Y-71000000D03*
X114604800Y-60147200D03*
X122072400Y-69189600D03*
X124000000Y-71000000D03*
X116281200Y-60147200D03*
X124409200Y-67716400D03*
D12*
X117652800Y-57861200D02*
X117678200Y-57886600D01*
X121462800Y-57886600D02*
X121488200Y-57861200D01*
D13*
X123240800Y-67513200D02*
X123342400Y-67513200D01*
X120530000Y-71000000D02*
X118592600Y-69062600D01*
X122000000Y-71000000D02*
X120530000Y-71000000D01*
X115493800Y-69062600D02*
X118592600Y-69062600D01*
X114223800Y-70332600D02*
X115493800Y-69062600D01*
X114833400Y-58826400D02*
X117678200Y-58826400D01*
D12*
X120421400Y-58826400D02*
X120472200Y-58877200D01*
D13*
X117678200Y-58826400D02*
X120421400Y-58826400D01*
X124282200Y-61671200D02*
X125298200Y-61671200D01*
X121488200Y-58877200D02*
X124282200Y-61671200D01*
X125298200Y-61671200D02*
X125298200Y-65557400D01*
X120472200Y-58877200D02*
X121488200Y-58877200D01*
X116078000Y-66649600D02*
X116078000Y-67310000D01*
X113919000Y-64490600D02*
X113588800Y-64160400D01*
X113919000Y-64490600D02*
X116078000Y-66649600D01*
X113715800Y-64287400D02*
X113919000Y-64490600D01*
X114129085Y-64160400D02*
X113563400Y-64160400D01*
X115018085Y-64160400D02*
X114129085Y-64160400D01*
X115214400Y-63964085D02*
X115018085Y-64160400D01*
X115214400Y-63398400D02*
X115214400Y-63964085D01*
X119583200Y-67310000D02*
X116078000Y-67310000D01*
X120091200Y-67818000D02*
X119583200Y-67310000D01*
D12*
X124898201Y-64090499D02*
X125298200Y-63690500D01*
D13*
X122200501Y-66788199D02*
X124898201Y-64090499D01*
X121121001Y-66788199D02*
X122200501Y-66788199D01*
X120091200Y-67818000D02*
X121121001Y-66788199D01*
D12*
X124618602Y-66852800D02*
X124409200Y-66852800D01*
X125134201Y-67368399D02*
X124618602Y-66852800D01*
X125134201Y-68064401D02*
X125134201Y-67368399D01*
X119315013Y-68337599D02*
X119520415Y-68543001D01*
X119520415Y-68543001D02*
X121645997Y-68543001D01*
X124757201Y-68441401D02*
X125134201Y-68064401D01*
X121645997Y-68543001D02*
X121747597Y-68441401D01*
X121747597Y-68441401D02*
X124757201Y-68441401D01*
X115987999Y-68337599D02*
X115062000Y-67411600D01*
X119315013Y-68337599D02*
X115987999Y-68337599D01*
X127000000Y-70434315D02*
X127000000Y-71000000D01*
X125958485Y-69392800D02*
X127000000Y-70434315D01*
X123571000Y-69392800D02*
X125958485Y-69392800D01*
X122472399Y-69589599D02*
X122072400Y-69189600D01*
X123000601Y-70117801D02*
X122472399Y-69589599D01*
X124683486Y-70117801D02*
X123000601Y-70117801D01*
X125000000Y-70434315D02*
X124683486Y-70117801D01*
X125000000Y-71000000D02*
X125000000Y-70434315D01*
D14*
G36*
X113863574Y-57559302D02*
G01*
X113823800Y-57759261D01*
X113823800Y-57963139D01*
X113863574Y-58163098D01*
X113941595Y-58351456D01*
X114054863Y-58520974D01*
X114199026Y-58665137D01*
X114368544Y-58778405D01*
X114556902Y-58856426D01*
X114756861Y-58896200D01*
X114960739Y-58896200D01*
X115160698Y-58856426D01*
X115349056Y-58778405D01*
X115518574Y-58665137D01*
X115662737Y-58520974D01*
X115776005Y-58351456D01*
X115854026Y-58163098D01*
X115893800Y-57963139D01*
X115893800Y-57759261D01*
X115854026Y-57559302D01*
X115789532Y-57403600D01*
X116757989Y-57403600D01*
X116682974Y-57584702D01*
X116643200Y-57784661D01*
X116643200Y-57988539D01*
X116682974Y-58188498D01*
X116760995Y-58376856D01*
X116874263Y-58546374D01*
X117018426Y-58690537D01*
X117187944Y-58803805D01*
X117376302Y-58881826D01*
X117576261Y-58921600D01*
X117780139Y-58921600D01*
X117980098Y-58881826D01*
X118168456Y-58803805D01*
X118337974Y-58690537D01*
X118482137Y-58546374D01*
X118595405Y-58376856D01*
X118673426Y-58188498D01*
X118713200Y-57988539D01*
X118713200Y-57784661D01*
X118673426Y-57584702D01*
X118598411Y-57403600D01*
X119551989Y-57403600D01*
X119476974Y-57584702D01*
X119437200Y-57784661D01*
X119437200Y-57988539D01*
X119476974Y-58188498D01*
X119554995Y-58376856D01*
X119668263Y-58546374D01*
X119812426Y-58690537D01*
X119981944Y-58803805D01*
X120170302Y-58881826D01*
X120370261Y-58921600D01*
X120574139Y-58921600D01*
X120774098Y-58881826D01*
X120962456Y-58803805D01*
X120999503Y-58779051D01*
X121186302Y-58856426D01*
X121386261Y-58896200D01*
X121590139Y-58896200D01*
X121790098Y-58856426D01*
X121978456Y-58778405D01*
X122147974Y-58665137D01*
X122292137Y-58520974D01*
X122405405Y-58351456D01*
X122483426Y-58163098D01*
X122523200Y-57963139D01*
X122523200Y-57759261D01*
X122483426Y-57559302D01*
X122418932Y-57403600D01*
X127025800Y-57403600D01*
X127025800Y-59915789D01*
X127024774Y-59914763D01*
X126855256Y-59801495D01*
X126666898Y-59723474D01*
X126466939Y-59683700D01*
X126263061Y-59683700D01*
X126063102Y-59723474D01*
X125874744Y-59801495D01*
X125705226Y-59914763D01*
X125561063Y-60058926D01*
X125447795Y-60228444D01*
X125369774Y-60416802D01*
X125330000Y-60616761D01*
X125330000Y-60820639D01*
X125369774Y-61020598D01*
X125447795Y-61208956D01*
X125561063Y-61378474D01*
X125705226Y-61522637D01*
X125874744Y-61635905D01*
X126063102Y-61713926D01*
X126263061Y-61753700D01*
X126466939Y-61753700D01*
X126666898Y-61713926D01*
X126855256Y-61635905D01*
X127024774Y-61522637D01*
X127025800Y-61521611D01*
X127025801Y-64551928D01*
X125845200Y-64551928D01*
X125720718Y-64564188D01*
X125601020Y-64600498D01*
X125490706Y-64659463D01*
X125394015Y-64738815D01*
X125314663Y-64835506D01*
X125255698Y-64945820D01*
X125219388Y-65065518D01*
X125207128Y-65190000D01*
X125207128Y-65196417D01*
X125068974Y-65058263D01*
X124899456Y-64944995D01*
X124711098Y-64866974D01*
X124511139Y-64827200D01*
X124307261Y-64827200D01*
X124107302Y-64866974D01*
X123918944Y-64944995D01*
X123749426Y-65058263D01*
X123605263Y-65202426D01*
X123491995Y-65371944D01*
X123413974Y-65560302D01*
X123374200Y-65760261D01*
X123374200Y-65964139D01*
X123413974Y-66164098D01*
X123491995Y-66352456D01*
X123495365Y-66357500D01*
X123491995Y-66362544D01*
X123444088Y-66478200D01*
X123240461Y-66478200D01*
X123040502Y-66517974D01*
X122852144Y-66595995D01*
X122682626Y-66709263D01*
X122538463Y-66853426D01*
X122425195Y-67022944D01*
X122347174Y-67211302D01*
X122307400Y-67411261D01*
X122307400Y-67615139D01*
X122320580Y-67681401D01*
X121784919Y-67681401D01*
X121747596Y-67677725D01*
X121710274Y-67681401D01*
X121710264Y-67681401D01*
X121598611Y-67692398D01*
X121455350Y-67735855D01*
X121367147Y-67783001D01*
X119837227Y-67783001D01*
X119739289Y-67702625D01*
X119607260Y-67632053D01*
X119463999Y-67588596D01*
X119352346Y-67577599D01*
X119352335Y-67577599D01*
X119315013Y-67573923D01*
X119277691Y-67577599D01*
X116302801Y-67577599D01*
X116097000Y-67371798D01*
X116097000Y-67309661D01*
X116057226Y-67109702D01*
X115979205Y-66921344D01*
X115865937Y-66751826D01*
X115721774Y-66607663D01*
X115552256Y-66494395D01*
X115363898Y-66416374D01*
X115163939Y-66376600D01*
X114960061Y-66376600D01*
X114760102Y-66416374D01*
X114648160Y-66462742D01*
X114474898Y-66390974D01*
X114274939Y-66351200D01*
X114071061Y-66351200D01*
X113871102Y-66390974D01*
X113828918Y-66408447D01*
X113796626Y-66246102D01*
X113718605Y-66057744D01*
X113605337Y-65888226D01*
X113579311Y-65862200D01*
X113605337Y-65836174D01*
X113718605Y-65666656D01*
X113785043Y-65506261D01*
X120300800Y-65506261D01*
X120300800Y-65710139D01*
X120340574Y-65910098D01*
X120418595Y-66098456D01*
X120531863Y-66267974D01*
X120676026Y-66412137D01*
X120845544Y-66525405D01*
X121033902Y-66603426D01*
X121233861Y-66643200D01*
X121437739Y-66643200D01*
X121637698Y-66603426D01*
X121826056Y-66525405D01*
X121995574Y-66412137D01*
X122139737Y-66267974D01*
X122253005Y-66098456D01*
X122331026Y-65910098D01*
X122370800Y-65710139D01*
X122370800Y-65506261D01*
X122331026Y-65306302D01*
X122253005Y-65117944D01*
X122139737Y-64948426D01*
X121995574Y-64804263D01*
X121826056Y-64690995D01*
X121637698Y-64612974D01*
X121437739Y-64573200D01*
X121233861Y-64573200D01*
X121033902Y-64612974D01*
X120845544Y-64690995D01*
X120676026Y-64804263D01*
X120531863Y-64948426D01*
X120418595Y-65117944D01*
X120340574Y-65306302D01*
X120300800Y-65506261D01*
X113785043Y-65506261D01*
X113796626Y-65478298D01*
X113836400Y-65278339D01*
X113836400Y-65074461D01*
X113796626Y-64874502D01*
X113718605Y-64686144D01*
X113605337Y-64516626D01*
X113541211Y-64452500D01*
X113605337Y-64388374D01*
X113678524Y-64278842D01*
X113733544Y-64315605D01*
X113921902Y-64393626D01*
X114121861Y-64433400D01*
X114325739Y-64433400D01*
X114525698Y-64393626D01*
X114714056Y-64315605D01*
X114883574Y-64202337D01*
X115027737Y-64058174D01*
X115141005Y-63888656D01*
X115219026Y-63700298D01*
X115258800Y-63500339D01*
X115258800Y-63296461D01*
X115219026Y-63096502D01*
X115141005Y-62908144D01*
X115027737Y-62738626D01*
X114883574Y-62594463D01*
X114714056Y-62481195D01*
X114525698Y-62403174D01*
X114325739Y-62363400D01*
X114121861Y-62363400D01*
X113921902Y-62403174D01*
X113861800Y-62428069D01*
X113861800Y-62229661D01*
X113822026Y-62029702D01*
X113744005Y-61841344D01*
X113630737Y-61671826D01*
X113486574Y-61527663D01*
X113317056Y-61414395D01*
X113128698Y-61336374D01*
X112928739Y-61296600D01*
X112844578Y-61296600D01*
X112845188Y-60937490D01*
X112928193Y-60912310D01*
X113042850Y-60851025D01*
X113143348Y-60768548D01*
X113225825Y-60668050D01*
X113287110Y-60553393D01*
X113324850Y-60428983D01*
X113337593Y-60299600D01*
X113334400Y-60267181D01*
X113334400Y-60045261D01*
X113569800Y-60045261D01*
X113569800Y-60249139D01*
X113609574Y-60449098D01*
X113687595Y-60637456D01*
X113800863Y-60806974D01*
X113945026Y-60951137D01*
X114114544Y-61064405D01*
X114302902Y-61142426D01*
X114502861Y-61182200D01*
X114706739Y-61182200D01*
X114906698Y-61142426D01*
X115023900Y-61093879D01*
X115141102Y-61142426D01*
X115341061Y-61182200D01*
X115544939Y-61182200D01*
X115744898Y-61142426D01*
X115862100Y-61093879D01*
X115979302Y-61142426D01*
X116179261Y-61182200D01*
X116383139Y-61182200D01*
X116583098Y-61142426D01*
X116771456Y-61064405D01*
X116940974Y-60951137D01*
X117085137Y-60806974D01*
X117198405Y-60637456D01*
X117276426Y-60449098D01*
X117316200Y-60249139D01*
X117316200Y-60045261D01*
X117276426Y-59845302D01*
X117198405Y-59656944D01*
X117160865Y-59600761D01*
X122345500Y-59600761D01*
X122345500Y-59804639D01*
X122385274Y-60004598D01*
X122463295Y-60192956D01*
X122576563Y-60362474D01*
X122720726Y-60506637D01*
X122890244Y-60619905D01*
X123078602Y-60697926D01*
X123278561Y-60737700D01*
X123482439Y-60737700D01*
X123682398Y-60697926D01*
X123870756Y-60619905D01*
X124040274Y-60506637D01*
X124184437Y-60362474D01*
X124297705Y-60192956D01*
X124375726Y-60004598D01*
X124415500Y-59804639D01*
X124415500Y-59600761D01*
X124375726Y-59400802D01*
X124297705Y-59212444D01*
X124184437Y-59042926D01*
X124040274Y-58898763D01*
X123870756Y-58785495D01*
X123682398Y-58707474D01*
X123482439Y-58667700D01*
X123278561Y-58667700D01*
X123078602Y-58707474D01*
X122890244Y-58785495D01*
X122720726Y-58898763D01*
X122576563Y-59042926D01*
X122463295Y-59212444D01*
X122385274Y-59400802D01*
X122345500Y-59600761D01*
X117160865Y-59600761D01*
X117085137Y-59487426D01*
X116940974Y-59343263D01*
X116771456Y-59229995D01*
X116583098Y-59151974D01*
X116383139Y-59112200D01*
X116179261Y-59112200D01*
X115979302Y-59151974D01*
X115862100Y-59200521D01*
X115744898Y-59151974D01*
X115544939Y-59112200D01*
X115341061Y-59112200D01*
X115141102Y-59151974D01*
X115023900Y-59200521D01*
X114906698Y-59151974D01*
X114706739Y-59112200D01*
X114502861Y-59112200D01*
X114302902Y-59151974D01*
X114114544Y-59229995D01*
X113945026Y-59343263D01*
X113800863Y-59487426D01*
X113687595Y-59656944D01*
X113609574Y-59845302D01*
X113569800Y-60045261D01*
X113334400Y-60045261D01*
X113334400Y-57403600D01*
X113928068Y-57403600D01*
X113863574Y-57559302D01*
X113863574Y-57559302D01*
G37*
X113863574Y-57559302D02*
X113823800Y-57759261D01*
X113823800Y-57963139D01*
X113863574Y-58163098D01*
X113941595Y-58351456D01*
X114054863Y-58520974D01*
X114199026Y-58665137D01*
X114368544Y-58778405D01*
X114556902Y-58856426D01*
X114756861Y-58896200D01*
X114960739Y-58896200D01*
X115160698Y-58856426D01*
X115349056Y-58778405D01*
X115518574Y-58665137D01*
X115662737Y-58520974D01*
X115776005Y-58351456D01*
X115854026Y-58163098D01*
X115893800Y-57963139D01*
X115893800Y-57759261D01*
X115854026Y-57559302D01*
X115789532Y-57403600D01*
X116757989Y-57403600D01*
X116682974Y-57584702D01*
X116643200Y-57784661D01*
X116643200Y-57988539D01*
X116682974Y-58188498D01*
X116760995Y-58376856D01*
X116874263Y-58546374D01*
X117018426Y-58690537D01*
X117187944Y-58803805D01*
X117376302Y-58881826D01*
X117576261Y-58921600D01*
X117780139Y-58921600D01*
X117980098Y-58881826D01*
X118168456Y-58803805D01*
X118337974Y-58690537D01*
X118482137Y-58546374D01*
X118595405Y-58376856D01*
X118673426Y-58188498D01*
X118713200Y-57988539D01*
X118713200Y-57784661D01*
X118673426Y-57584702D01*
X118598411Y-57403600D01*
X119551989Y-57403600D01*
X119476974Y-57584702D01*
X119437200Y-57784661D01*
X119437200Y-57988539D01*
X119476974Y-58188498D01*
X119554995Y-58376856D01*
X119668263Y-58546374D01*
X119812426Y-58690537D01*
X119981944Y-58803805D01*
X120170302Y-58881826D01*
X120370261Y-58921600D01*
X120574139Y-58921600D01*
X120774098Y-58881826D01*
X120962456Y-58803805D01*
X120999503Y-58779051D01*
X121186302Y-58856426D01*
X121386261Y-58896200D01*
X121590139Y-58896200D01*
X121790098Y-58856426D01*
X121978456Y-58778405D01*
X122147974Y-58665137D01*
X122292137Y-58520974D01*
X122405405Y-58351456D01*
X122483426Y-58163098D01*
X122523200Y-57963139D01*
X122523200Y-57759261D01*
X122483426Y-57559302D01*
X122418932Y-57403600D01*
X127025800Y-57403600D01*
X127025800Y-59915789D01*
X127024774Y-59914763D01*
X126855256Y-59801495D01*
X126666898Y-59723474D01*
X126466939Y-59683700D01*
X126263061Y-59683700D01*
X126063102Y-59723474D01*
X125874744Y-59801495D01*
X125705226Y-59914763D01*
X125561063Y-60058926D01*
X125447795Y-60228444D01*
X125369774Y-60416802D01*
X125330000Y-60616761D01*
X125330000Y-60820639D01*
X125369774Y-61020598D01*
X125447795Y-61208956D01*
X125561063Y-61378474D01*
X125705226Y-61522637D01*
X125874744Y-61635905D01*
X126063102Y-61713926D01*
X126263061Y-61753700D01*
X126466939Y-61753700D01*
X126666898Y-61713926D01*
X126855256Y-61635905D01*
X127024774Y-61522637D01*
X127025800Y-61521611D01*
X127025801Y-64551928D01*
X125845200Y-64551928D01*
X125720718Y-64564188D01*
X125601020Y-64600498D01*
X125490706Y-64659463D01*
X125394015Y-64738815D01*
X125314663Y-64835506D01*
X125255698Y-64945820D01*
X125219388Y-65065518D01*
X125207128Y-65190000D01*
X125207128Y-65196417D01*
X125068974Y-65058263D01*
X124899456Y-64944995D01*
X124711098Y-64866974D01*
X124511139Y-64827200D01*
X124307261Y-64827200D01*
X124107302Y-64866974D01*
X123918944Y-64944995D01*
X123749426Y-65058263D01*
X123605263Y-65202426D01*
X123491995Y-65371944D01*
X123413974Y-65560302D01*
X123374200Y-65760261D01*
X123374200Y-65964139D01*
X123413974Y-66164098D01*
X123491995Y-66352456D01*
X123495365Y-66357500D01*
X123491995Y-66362544D01*
X123444088Y-66478200D01*
X123240461Y-66478200D01*
X123040502Y-66517974D01*
X122852144Y-66595995D01*
X122682626Y-66709263D01*
X122538463Y-66853426D01*
X122425195Y-67022944D01*
X122347174Y-67211302D01*
X122307400Y-67411261D01*
X122307400Y-67615139D01*
X122320580Y-67681401D01*
X121784919Y-67681401D01*
X121747596Y-67677725D01*
X121710274Y-67681401D01*
X121710264Y-67681401D01*
X121598611Y-67692398D01*
X121455350Y-67735855D01*
X121367147Y-67783001D01*
X119837227Y-67783001D01*
X119739289Y-67702625D01*
X119607260Y-67632053D01*
X119463999Y-67588596D01*
X119352346Y-67577599D01*
X119352335Y-67577599D01*
X119315013Y-67573923D01*
X119277691Y-67577599D01*
X116302801Y-67577599D01*
X116097000Y-67371798D01*
X116097000Y-67309661D01*
X116057226Y-67109702D01*
X115979205Y-66921344D01*
X115865937Y-66751826D01*
X115721774Y-66607663D01*
X115552256Y-66494395D01*
X115363898Y-66416374D01*
X115163939Y-66376600D01*
X114960061Y-66376600D01*
X114760102Y-66416374D01*
X114648160Y-66462742D01*
X114474898Y-66390974D01*
X114274939Y-66351200D01*
X114071061Y-66351200D01*
X113871102Y-66390974D01*
X113828918Y-66408447D01*
X113796626Y-66246102D01*
X113718605Y-66057744D01*
X113605337Y-65888226D01*
X113579311Y-65862200D01*
X113605337Y-65836174D01*
X113718605Y-65666656D01*
X113785043Y-65506261D01*
X120300800Y-65506261D01*
X120300800Y-65710139D01*
X120340574Y-65910098D01*
X120418595Y-66098456D01*
X120531863Y-66267974D01*
X120676026Y-66412137D01*
X120845544Y-66525405D01*
X121033902Y-66603426D01*
X121233861Y-66643200D01*
X121437739Y-66643200D01*
X121637698Y-66603426D01*
X121826056Y-66525405D01*
X121995574Y-66412137D01*
X122139737Y-66267974D01*
X122253005Y-66098456D01*
X122331026Y-65910098D01*
X122370800Y-65710139D01*
X122370800Y-65506261D01*
X122331026Y-65306302D01*
X122253005Y-65117944D01*
X122139737Y-64948426D01*
X121995574Y-64804263D01*
X121826056Y-64690995D01*
X121637698Y-64612974D01*
X121437739Y-64573200D01*
X121233861Y-64573200D01*
X121033902Y-64612974D01*
X120845544Y-64690995D01*
X120676026Y-64804263D01*
X120531863Y-64948426D01*
X120418595Y-65117944D01*
X120340574Y-65306302D01*
X120300800Y-65506261D01*
X113785043Y-65506261D01*
X113796626Y-65478298D01*
X113836400Y-65278339D01*
X113836400Y-65074461D01*
X113796626Y-64874502D01*
X113718605Y-64686144D01*
X113605337Y-64516626D01*
X113541211Y-64452500D01*
X113605337Y-64388374D01*
X113678524Y-64278842D01*
X113733544Y-64315605D01*
X113921902Y-64393626D01*
X114121861Y-64433400D01*
X114325739Y-64433400D01*
X114525698Y-64393626D01*
X114714056Y-64315605D01*
X114883574Y-64202337D01*
X115027737Y-64058174D01*
X115141005Y-63888656D01*
X115219026Y-63700298D01*
X115258800Y-63500339D01*
X115258800Y-63296461D01*
X115219026Y-63096502D01*
X115141005Y-62908144D01*
X115027737Y-62738626D01*
X114883574Y-62594463D01*
X114714056Y-62481195D01*
X114525698Y-62403174D01*
X114325739Y-62363400D01*
X114121861Y-62363400D01*
X113921902Y-62403174D01*
X113861800Y-62428069D01*
X113861800Y-62229661D01*
X113822026Y-62029702D01*
X113744005Y-61841344D01*
X113630737Y-61671826D01*
X113486574Y-61527663D01*
X113317056Y-61414395D01*
X113128698Y-61336374D01*
X112928739Y-61296600D01*
X112844578Y-61296600D01*
X112845188Y-60937490D01*
X112928193Y-60912310D01*
X113042850Y-60851025D01*
X113143348Y-60768548D01*
X113225825Y-60668050D01*
X113287110Y-60553393D01*
X113324850Y-60428983D01*
X113337593Y-60299600D01*
X113334400Y-60267181D01*
X113334400Y-60045261D01*
X113569800Y-60045261D01*
X113569800Y-60249139D01*
X113609574Y-60449098D01*
X113687595Y-60637456D01*
X113800863Y-60806974D01*
X113945026Y-60951137D01*
X114114544Y-61064405D01*
X114302902Y-61142426D01*
X114502861Y-61182200D01*
X114706739Y-61182200D01*
X114906698Y-61142426D01*
X115023900Y-61093879D01*
X115141102Y-61142426D01*
X115341061Y-61182200D01*
X115544939Y-61182200D01*
X115744898Y-61142426D01*
X115862100Y-61093879D01*
X115979302Y-61142426D01*
X116179261Y-61182200D01*
X116383139Y-61182200D01*
X116583098Y-61142426D01*
X116771456Y-61064405D01*
X116940974Y-60951137D01*
X117085137Y-60806974D01*
X117198405Y-60637456D01*
X117276426Y-60449098D01*
X117316200Y-60249139D01*
X117316200Y-60045261D01*
X117276426Y-59845302D01*
X117198405Y-59656944D01*
X117160865Y-59600761D01*
X122345500Y-59600761D01*
X122345500Y-59804639D01*
X122385274Y-60004598D01*
X122463295Y-60192956D01*
X122576563Y-60362474D01*
X122720726Y-60506637D01*
X122890244Y-60619905D01*
X123078602Y-60697926D01*
X123278561Y-60737700D01*
X123482439Y-60737700D01*
X123682398Y-60697926D01*
X123870756Y-60619905D01*
X124040274Y-60506637D01*
X124184437Y-60362474D01*
X124297705Y-60192956D01*
X124375726Y-60004598D01*
X124415500Y-59804639D01*
X124415500Y-59600761D01*
X124375726Y-59400802D01*
X124297705Y-59212444D01*
X124184437Y-59042926D01*
X124040274Y-58898763D01*
X123870756Y-58785495D01*
X123682398Y-58707474D01*
X123482439Y-58667700D01*
X123278561Y-58667700D01*
X123078602Y-58707474D01*
X122890244Y-58785495D01*
X122720726Y-58898763D01*
X122576563Y-59042926D01*
X122463295Y-59212444D01*
X122385274Y-59400802D01*
X122345500Y-59600761D01*
X117160865Y-59600761D01*
X117085137Y-59487426D01*
X116940974Y-59343263D01*
X116771456Y-59229995D01*
X116583098Y-59151974D01*
X116383139Y-59112200D01*
X116179261Y-59112200D01*
X115979302Y-59151974D01*
X115862100Y-59200521D01*
X115744898Y-59151974D01*
X115544939Y-59112200D01*
X115341061Y-59112200D01*
X115141102Y-59151974D01*
X115023900Y-59200521D01*
X114906698Y-59151974D01*
X114706739Y-59112200D01*
X114502861Y-59112200D01*
X114302902Y-59151974D01*
X114114544Y-59229995D01*
X113945026Y-59343263D01*
X113800863Y-59487426D01*
X113687595Y-59656944D01*
X113609574Y-59845302D01*
X113569800Y-60045261D01*
X113334400Y-60045261D01*
X113334400Y-57403600D01*
X113928068Y-57403600D01*
X113863574Y-57559302D01*
M02*
