G04 #@! TF.GenerationSoftware,KiCad,Pcbnew,(5.1.5)-3*
G04 #@! TF.CreationDate,2022-01-20T18:21:31+01:00*
G04 #@! TF.ProjectId,HB-ES-PMSwX-Pl_Gosund,48422d45-532d-4504-9d53-77582d506c5f,rev?*
G04 #@! TF.SameCoordinates,Original*
G04 #@! TF.FileFunction,Paste,Bot*
G04 #@! TF.FilePolarity,Positive*
%FSLAX46Y46*%
G04 Gerber Fmt 4.6, Leading zero omitted, Abs format (unit mm)*
G04 Created by KiCad (PCBNEW (5.1.5)-3) date 2022-01-20 18:21:31*
%MOMM*%
%LPD*%
G04 APERTURE LIST*
%ADD10C,0.100000*%
%ADD11R,3.000000X0.700000*%
G04 APERTURE END LIST*
D10*
G36*
X122019505Y-64826204D02*
G01*
X122043773Y-64829804D01*
X122067572Y-64835765D01*
X122090671Y-64844030D01*
X122112850Y-64854520D01*
X122133893Y-64867132D01*
X122153599Y-64881747D01*
X122171777Y-64898223D01*
X122188253Y-64916401D01*
X122202868Y-64936107D01*
X122215480Y-64957150D01*
X122225970Y-64979329D01*
X122234235Y-65002428D01*
X122240196Y-65026227D01*
X122243796Y-65050495D01*
X122245000Y-65074999D01*
X122245000Y-65625001D01*
X122243796Y-65649505D01*
X122240196Y-65673773D01*
X122234235Y-65697572D01*
X122225970Y-65720671D01*
X122215480Y-65742850D01*
X122202868Y-65763893D01*
X122188253Y-65783599D01*
X122171777Y-65801777D01*
X122153599Y-65818253D01*
X122133893Y-65832868D01*
X122112850Y-65845480D01*
X122090671Y-65855970D01*
X122067572Y-65864235D01*
X122043773Y-65870196D01*
X122019505Y-65873796D01*
X121995001Y-65875000D01*
X121444999Y-65875000D01*
X121420495Y-65873796D01*
X121396227Y-65870196D01*
X121372428Y-65864235D01*
X121349329Y-65855970D01*
X121327150Y-65845480D01*
X121306107Y-65832868D01*
X121286401Y-65818253D01*
X121268223Y-65801777D01*
X121251747Y-65783599D01*
X121237132Y-65763893D01*
X121224520Y-65742850D01*
X121214030Y-65720671D01*
X121205765Y-65697572D01*
X121199804Y-65673773D01*
X121196204Y-65649505D01*
X121195000Y-65625001D01*
X121195000Y-65074999D01*
X121196204Y-65050495D01*
X121199804Y-65026227D01*
X121205765Y-65002428D01*
X121214030Y-64979329D01*
X121224520Y-64957150D01*
X121237132Y-64936107D01*
X121251747Y-64916401D01*
X121268223Y-64898223D01*
X121286401Y-64881747D01*
X121306107Y-64867132D01*
X121327150Y-64854520D01*
X121349329Y-64844030D01*
X121372428Y-64835765D01*
X121396227Y-64829804D01*
X121420495Y-64826204D01*
X121444999Y-64825000D01*
X121995001Y-64825000D01*
X122019505Y-64826204D01*
G37*
G36*
X120719505Y-64826204D02*
G01*
X120743773Y-64829804D01*
X120767572Y-64835765D01*
X120790671Y-64844030D01*
X120812850Y-64854520D01*
X120833893Y-64867132D01*
X120853599Y-64881747D01*
X120871777Y-64898223D01*
X120888253Y-64916401D01*
X120902868Y-64936107D01*
X120915480Y-64957150D01*
X120925970Y-64979329D01*
X120934235Y-65002428D01*
X120940196Y-65026227D01*
X120943796Y-65050495D01*
X120945000Y-65074999D01*
X120945000Y-65625001D01*
X120943796Y-65649505D01*
X120940196Y-65673773D01*
X120934235Y-65697572D01*
X120925970Y-65720671D01*
X120915480Y-65742850D01*
X120902868Y-65763893D01*
X120888253Y-65783599D01*
X120871777Y-65801777D01*
X120853599Y-65818253D01*
X120833893Y-65832868D01*
X120812850Y-65845480D01*
X120790671Y-65855970D01*
X120767572Y-65864235D01*
X120743773Y-65870196D01*
X120719505Y-65873796D01*
X120695001Y-65875000D01*
X120144999Y-65875000D01*
X120120495Y-65873796D01*
X120096227Y-65870196D01*
X120072428Y-65864235D01*
X120049329Y-65855970D01*
X120027150Y-65845480D01*
X120006107Y-65832868D01*
X119986401Y-65818253D01*
X119968223Y-65801777D01*
X119951747Y-65783599D01*
X119937132Y-65763893D01*
X119924520Y-65742850D01*
X119914030Y-65720671D01*
X119905765Y-65697572D01*
X119899804Y-65673773D01*
X119896204Y-65649505D01*
X119895000Y-65625001D01*
X119895000Y-65074999D01*
X119896204Y-65050495D01*
X119899804Y-65026227D01*
X119905765Y-65002428D01*
X119914030Y-64979329D01*
X119924520Y-64957150D01*
X119937132Y-64936107D01*
X119951747Y-64916401D01*
X119968223Y-64898223D01*
X119986401Y-64881747D01*
X120006107Y-64867132D01*
X120027150Y-64854520D01*
X120049329Y-64844030D01*
X120072428Y-64835765D01*
X120096227Y-64829804D01*
X120120495Y-64826204D01*
X120144999Y-64825000D01*
X120695001Y-64825000D01*
X120719505Y-64826204D01*
G37*
G36*
X119419505Y-64826204D02*
G01*
X119443773Y-64829804D01*
X119467572Y-64835765D01*
X119490671Y-64844030D01*
X119512850Y-64854520D01*
X119533893Y-64867132D01*
X119553599Y-64881747D01*
X119571777Y-64898223D01*
X119588253Y-64916401D01*
X119602868Y-64936107D01*
X119615480Y-64957150D01*
X119625970Y-64979329D01*
X119634235Y-65002428D01*
X119640196Y-65026227D01*
X119643796Y-65050495D01*
X119645000Y-65074999D01*
X119645000Y-65625001D01*
X119643796Y-65649505D01*
X119640196Y-65673773D01*
X119634235Y-65697572D01*
X119625970Y-65720671D01*
X119615480Y-65742850D01*
X119602868Y-65763893D01*
X119588253Y-65783599D01*
X119571777Y-65801777D01*
X119553599Y-65818253D01*
X119533893Y-65832868D01*
X119512850Y-65845480D01*
X119490671Y-65855970D01*
X119467572Y-65864235D01*
X119443773Y-65870196D01*
X119419505Y-65873796D01*
X119395001Y-65875000D01*
X118844999Y-65875000D01*
X118820495Y-65873796D01*
X118796227Y-65870196D01*
X118772428Y-65864235D01*
X118749329Y-65855970D01*
X118727150Y-65845480D01*
X118706107Y-65832868D01*
X118686401Y-65818253D01*
X118668223Y-65801777D01*
X118651747Y-65783599D01*
X118637132Y-65763893D01*
X118624520Y-65742850D01*
X118614030Y-65720671D01*
X118605765Y-65697572D01*
X118599804Y-65673773D01*
X118596204Y-65649505D01*
X118595000Y-65625001D01*
X118595000Y-65074999D01*
X118596204Y-65050495D01*
X118599804Y-65026227D01*
X118605765Y-65002428D01*
X118614030Y-64979329D01*
X118624520Y-64957150D01*
X118637132Y-64936107D01*
X118651747Y-64916401D01*
X118668223Y-64898223D01*
X118686401Y-64881747D01*
X118706107Y-64867132D01*
X118727150Y-64854520D01*
X118749329Y-64844030D01*
X118772428Y-64835765D01*
X118796227Y-64829804D01*
X118820495Y-64826204D01*
X118844999Y-64825000D01*
X119395001Y-64825000D01*
X119419505Y-64826204D01*
G37*
G36*
X118119505Y-64826204D02*
G01*
X118143773Y-64829804D01*
X118167572Y-64835765D01*
X118190671Y-64844030D01*
X118212850Y-64854520D01*
X118233893Y-64867132D01*
X118253599Y-64881747D01*
X118271777Y-64898223D01*
X118288253Y-64916401D01*
X118302868Y-64936107D01*
X118315480Y-64957150D01*
X118325970Y-64979329D01*
X118334235Y-65002428D01*
X118340196Y-65026227D01*
X118343796Y-65050495D01*
X118345000Y-65074999D01*
X118345000Y-65625001D01*
X118343796Y-65649505D01*
X118340196Y-65673773D01*
X118334235Y-65697572D01*
X118325970Y-65720671D01*
X118315480Y-65742850D01*
X118302868Y-65763893D01*
X118288253Y-65783599D01*
X118271777Y-65801777D01*
X118253599Y-65818253D01*
X118233893Y-65832868D01*
X118212850Y-65845480D01*
X118190671Y-65855970D01*
X118167572Y-65864235D01*
X118143773Y-65870196D01*
X118119505Y-65873796D01*
X118095001Y-65875000D01*
X117544999Y-65875000D01*
X117520495Y-65873796D01*
X117496227Y-65870196D01*
X117472428Y-65864235D01*
X117449329Y-65855970D01*
X117427150Y-65845480D01*
X117406107Y-65832868D01*
X117386401Y-65818253D01*
X117368223Y-65801777D01*
X117351747Y-65783599D01*
X117337132Y-65763893D01*
X117324520Y-65742850D01*
X117314030Y-65720671D01*
X117305765Y-65697572D01*
X117299804Y-65673773D01*
X117296204Y-65649505D01*
X117295000Y-65625001D01*
X117295000Y-65074999D01*
X117296204Y-65050495D01*
X117299804Y-65026227D01*
X117305765Y-65002428D01*
X117314030Y-64979329D01*
X117324520Y-64957150D01*
X117337132Y-64936107D01*
X117351747Y-64916401D01*
X117368223Y-64898223D01*
X117386401Y-64881747D01*
X117406107Y-64867132D01*
X117427150Y-64854520D01*
X117449329Y-64844030D01*
X117472428Y-64835765D01*
X117496227Y-64829804D01*
X117520495Y-64826204D01*
X117544999Y-64825000D01*
X118095001Y-64825000D01*
X118119505Y-64826204D01*
G37*
G36*
X122019505Y-63526204D02*
G01*
X122043773Y-63529804D01*
X122067572Y-63535765D01*
X122090671Y-63544030D01*
X122112850Y-63554520D01*
X122133893Y-63567132D01*
X122153599Y-63581747D01*
X122171777Y-63598223D01*
X122188253Y-63616401D01*
X122202868Y-63636107D01*
X122215480Y-63657150D01*
X122225970Y-63679329D01*
X122234235Y-63702428D01*
X122240196Y-63726227D01*
X122243796Y-63750495D01*
X122245000Y-63774999D01*
X122245000Y-64325001D01*
X122243796Y-64349505D01*
X122240196Y-64373773D01*
X122234235Y-64397572D01*
X122225970Y-64420671D01*
X122215480Y-64442850D01*
X122202868Y-64463893D01*
X122188253Y-64483599D01*
X122171777Y-64501777D01*
X122153599Y-64518253D01*
X122133893Y-64532868D01*
X122112850Y-64545480D01*
X122090671Y-64555970D01*
X122067572Y-64564235D01*
X122043773Y-64570196D01*
X122019505Y-64573796D01*
X121995001Y-64575000D01*
X121444999Y-64575000D01*
X121420495Y-64573796D01*
X121396227Y-64570196D01*
X121372428Y-64564235D01*
X121349329Y-64555970D01*
X121327150Y-64545480D01*
X121306107Y-64532868D01*
X121286401Y-64518253D01*
X121268223Y-64501777D01*
X121251747Y-64483599D01*
X121237132Y-64463893D01*
X121224520Y-64442850D01*
X121214030Y-64420671D01*
X121205765Y-64397572D01*
X121199804Y-64373773D01*
X121196204Y-64349505D01*
X121195000Y-64325001D01*
X121195000Y-63774999D01*
X121196204Y-63750495D01*
X121199804Y-63726227D01*
X121205765Y-63702428D01*
X121214030Y-63679329D01*
X121224520Y-63657150D01*
X121237132Y-63636107D01*
X121251747Y-63616401D01*
X121268223Y-63598223D01*
X121286401Y-63581747D01*
X121306107Y-63567132D01*
X121327150Y-63554520D01*
X121349329Y-63544030D01*
X121372428Y-63535765D01*
X121396227Y-63529804D01*
X121420495Y-63526204D01*
X121444999Y-63525000D01*
X121995001Y-63525000D01*
X122019505Y-63526204D01*
G37*
G36*
X120719505Y-63526204D02*
G01*
X120743773Y-63529804D01*
X120767572Y-63535765D01*
X120790671Y-63544030D01*
X120812850Y-63554520D01*
X120833893Y-63567132D01*
X120853599Y-63581747D01*
X120871777Y-63598223D01*
X120888253Y-63616401D01*
X120902868Y-63636107D01*
X120915480Y-63657150D01*
X120925970Y-63679329D01*
X120934235Y-63702428D01*
X120940196Y-63726227D01*
X120943796Y-63750495D01*
X120945000Y-63774999D01*
X120945000Y-64325001D01*
X120943796Y-64349505D01*
X120940196Y-64373773D01*
X120934235Y-64397572D01*
X120925970Y-64420671D01*
X120915480Y-64442850D01*
X120902868Y-64463893D01*
X120888253Y-64483599D01*
X120871777Y-64501777D01*
X120853599Y-64518253D01*
X120833893Y-64532868D01*
X120812850Y-64545480D01*
X120790671Y-64555970D01*
X120767572Y-64564235D01*
X120743773Y-64570196D01*
X120719505Y-64573796D01*
X120695001Y-64575000D01*
X120144999Y-64575000D01*
X120120495Y-64573796D01*
X120096227Y-64570196D01*
X120072428Y-64564235D01*
X120049329Y-64555970D01*
X120027150Y-64545480D01*
X120006107Y-64532868D01*
X119986401Y-64518253D01*
X119968223Y-64501777D01*
X119951747Y-64483599D01*
X119937132Y-64463893D01*
X119924520Y-64442850D01*
X119914030Y-64420671D01*
X119905765Y-64397572D01*
X119899804Y-64373773D01*
X119896204Y-64349505D01*
X119895000Y-64325001D01*
X119895000Y-63774999D01*
X119896204Y-63750495D01*
X119899804Y-63726227D01*
X119905765Y-63702428D01*
X119914030Y-63679329D01*
X119924520Y-63657150D01*
X119937132Y-63636107D01*
X119951747Y-63616401D01*
X119968223Y-63598223D01*
X119986401Y-63581747D01*
X120006107Y-63567132D01*
X120027150Y-63554520D01*
X120049329Y-63544030D01*
X120072428Y-63535765D01*
X120096227Y-63529804D01*
X120120495Y-63526204D01*
X120144999Y-63525000D01*
X120695001Y-63525000D01*
X120719505Y-63526204D01*
G37*
G36*
X119419505Y-63526204D02*
G01*
X119443773Y-63529804D01*
X119467572Y-63535765D01*
X119490671Y-63544030D01*
X119512850Y-63554520D01*
X119533893Y-63567132D01*
X119553599Y-63581747D01*
X119571777Y-63598223D01*
X119588253Y-63616401D01*
X119602868Y-63636107D01*
X119615480Y-63657150D01*
X119625970Y-63679329D01*
X119634235Y-63702428D01*
X119640196Y-63726227D01*
X119643796Y-63750495D01*
X119645000Y-63774999D01*
X119645000Y-64325001D01*
X119643796Y-64349505D01*
X119640196Y-64373773D01*
X119634235Y-64397572D01*
X119625970Y-64420671D01*
X119615480Y-64442850D01*
X119602868Y-64463893D01*
X119588253Y-64483599D01*
X119571777Y-64501777D01*
X119553599Y-64518253D01*
X119533893Y-64532868D01*
X119512850Y-64545480D01*
X119490671Y-64555970D01*
X119467572Y-64564235D01*
X119443773Y-64570196D01*
X119419505Y-64573796D01*
X119395001Y-64575000D01*
X118844999Y-64575000D01*
X118820495Y-64573796D01*
X118796227Y-64570196D01*
X118772428Y-64564235D01*
X118749329Y-64555970D01*
X118727150Y-64545480D01*
X118706107Y-64532868D01*
X118686401Y-64518253D01*
X118668223Y-64501777D01*
X118651747Y-64483599D01*
X118637132Y-64463893D01*
X118624520Y-64442850D01*
X118614030Y-64420671D01*
X118605765Y-64397572D01*
X118599804Y-64373773D01*
X118596204Y-64349505D01*
X118595000Y-64325001D01*
X118595000Y-63774999D01*
X118596204Y-63750495D01*
X118599804Y-63726227D01*
X118605765Y-63702428D01*
X118614030Y-63679329D01*
X118624520Y-63657150D01*
X118637132Y-63636107D01*
X118651747Y-63616401D01*
X118668223Y-63598223D01*
X118686401Y-63581747D01*
X118706107Y-63567132D01*
X118727150Y-63554520D01*
X118749329Y-63544030D01*
X118772428Y-63535765D01*
X118796227Y-63529804D01*
X118820495Y-63526204D01*
X118844999Y-63525000D01*
X119395001Y-63525000D01*
X119419505Y-63526204D01*
G37*
G36*
X118119505Y-63526204D02*
G01*
X118143773Y-63529804D01*
X118167572Y-63535765D01*
X118190671Y-63544030D01*
X118212850Y-63554520D01*
X118233893Y-63567132D01*
X118253599Y-63581747D01*
X118271777Y-63598223D01*
X118288253Y-63616401D01*
X118302868Y-63636107D01*
X118315480Y-63657150D01*
X118325970Y-63679329D01*
X118334235Y-63702428D01*
X118340196Y-63726227D01*
X118343796Y-63750495D01*
X118345000Y-63774999D01*
X118345000Y-64325001D01*
X118343796Y-64349505D01*
X118340196Y-64373773D01*
X118334235Y-64397572D01*
X118325970Y-64420671D01*
X118315480Y-64442850D01*
X118302868Y-64463893D01*
X118288253Y-64483599D01*
X118271777Y-64501777D01*
X118253599Y-64518253D01*
X118233893Y-64532868D01*
X118212850Y-64545480D01*
X118190671Y-64555970D01*
X118167572Y-64564235D01*
X118143773Y-64570196D01*
X118119505Y-64573796D01*
X118095001Y-64575000D01*
X117544999Y-64575000D01*
X117520495Y-64573796D01*
X117496227Y-64570196D01*
X117472428Y-64564235D01*
X117449329Y-64555970D01*
X117427150Y-64545480D01*
X117406107Y-64532868D01*
X117386401Y-64518253D01*
X117368223Y-64501777D01*
X117351747Y-64483599D01*
X117337132Y-64463893D01*
X117324520Y-64442850D01*
X117314030Y-64420671D01*
X117305765Y-64397572D01*
X117299804Y-64373773D01*
X117296204Y-64349505D01*
X117295000Y-64325001D01*
X117295000Y-63774999D01*
X117296204Y-63750495D01*
X117299804Y-63726227D01*
X117305765Y-63702428D01*
X117314030Y-63679329D01*
X117324520Y-63657150D01*
X117337132Y-63636107D01*
X117351747Y-63616401D01*
X117368223Y-63598223D01*
X117386401Y-63581747D01*
X117406107Y-63567132D01*
X117427150Y-63554520D01*
X117449329Y-63544030D01*
X117472428Y-63535765D01*
X117496227Y-63529804D01*
X117520495Y-63526204D01*
X117544999Y-63525000D01*
X118095001Y-63525000D01*
X118119505Y-63526204D01*
G37*
G36*
X122019505Y-62226204D02*
G01*
X122043773Y-62229804D01*
X122067572Y-62235765D01*
X122090671Y-62244030D01*
X122112850Y-62254520D01*
X122133893Y-62267132D01*
X122153599Y-62281747D01*
X122171777Y-62298223D01*
X122188253Y-62316401D01*
X122202868Y-62336107D01*
X122215480Y-62357150D01*
X122225970Y-62379329D01*
X122234235Y-62402428D01*
X122240196Y-62426227D01*
X122243796Y-62450495D01*
X122245000Y-62474999D01*
X122245000Y-63025001D01*
X122243796Y-63049505D01*
X122240196Y-63073773D01*
X122234235Y-63097572D01*
X122225970Y-63120671D01*
X122215480Y-63142850D01*
X122202868Y-63163893D01*
X122188253Y-63183599D01*
X122171777Y-63201777D01*
X122153599Y-63218253D01*
X122133893Y-63232868D01*
X122112850Y-63245480D01*
X122090671Y-63255970D01*
X122067572Y-63264235D01*
X122043773Y-63270196D01*
X122019505Y-63273796D01*
X121995001Y-63275000D01*
X121444999Y-63275000D01*
X121420495Y-63273796D01*
X121396227Y-63270196D01*
X121372428Y-63264235D01*
X121349329Y-63255970D01*
X121327150Y-63245480D01*
X121306107Y-63232868D01*
X121286401Y-63218253D01*
X121268223Y-63201777D01*
X121251747Y-63183599D01*
X121237132Y-63163893D01*
X121224520Y-63142850D01*
X121214030Y-63120671D01*
X121205765Y-63097572D01*
X121199804Y-63073773D01*
X121196204Y-63049505D01*
X121195000Y-63025001D01*
X121195000Y-62474999D01*
X121196204Y-62450495D01*
X121199804Y-62426227D01*
X121205765Y-62402428D01*
X121214030Y-62379329D01*
X121224520Y-62357150D01*
X121237132Y-62336107D01*
X121251747Y-62316401D01*
X121268223Y-62298223D01*
X121286401Y-62281747D01*
X121306107Y-62267132D01*
X121327150Y-62254520D01*
X121349329Y-62244030D01*
X121372428Y-62235765D01*
X121396227Y-62229804D01*
X121420495Y-62226204D01*
X121444999Y-62225000D01*
X121995001Y-62225000D01*
X122019505Y-62226204D01*
G37*
G36*
X120719505Y-62226204D02*
G01*
X120743773Y-62229804D01*
X120767572Y-62235765D01*
X120790671Y-62244030D01*
X120812850Y-62254520D01*
X120833893Y-62267132D01*
X120853599Y-62281747D01*
X120871777Y-62298223D01*
X120888253Y-62316401D01*
X120902868Y-62336107D01*
X120915480Y-62357150D01*
X120925970Y-62379329D01*
X120934235Y-62402428D01*
X120940196Y-62426227D01*
X120943796Y-62450495D01*
X120945000Y-62474999D01*
X120945000Y-63025001D01*
X120943796Y-63049505D01*
X120940196Y-63073773D01*
X120934235Y-63097572D01*
X120925970Y-63120671D01*
X120915480Y-63142850D01*
X120902868Y-63163893D01*
X120888253Y-63183599D01*
X120871777Y-63201777D01*
X120853599Y-63218253D01*
X120833893Y-63232868D01*
X120812850Y-63245480D01*
X120790671Y-63255970D01*
X120767572Y-63264235D01*
X120743773Y-63270196D01*
X120719505Y-63273796D01*
X120695001Y-63275000D01*
X120144999Y-63275000D01*
X120120495Y-63273796D01*
X120096227Y-63270196D01*
X120072428Y-63264235D01*
X120049329Y-63255970D01*
X120027150Y-63245480D01*
X120006107Y-63232868D01*
X119986401Y-63218253D01*
X119968223Y-63201777D01*
X119951747Y-63183599D01*
X119937132Y-63163893D01*
X119924520Y-63142850D01*
X119914030Y-63120671D01*
X119905765Y-63097572D01*
X119899804Y-63073773D01*
X119896204Y-63049505D01*
X119895000Y-63025001D01*
X119895000Y-62474999D01*
X119896204Y-62450495D01*
X119899804Y-62426227D01*
X119905765Y-62402428D01*
X119914030Y-62379329D01*
X119924520Y-62357150D01*
X119937132Y-62336107D01*
X119951747Y-62316401D01*
X119968223Y-62298223D01*
X119986401Y-62281747D01*
X120006107Y-62267132D01*
X120027150Y-62254520D01*
X120049329Y-62244030D01*
X120072428Y-62235765D01*
X120096227Y-62229804D01*
X120120495Y-62226204D01*
X120144999Y-62225000D01*
X120695001Y-62225000D01*
X120719505Y-62226204D01*
G37*
G36*
X119419505Y-62226204D02*
G01*
X119443773Y-62229804D01*
X119467572Y-62235765D01*
X119490671Y-62244030D01*
X119512850Y-62254520D01*
X119533893Y-62267132D01*
X119553599Y-62281747D01*
X119571777Y-62298223D01*
X119588253Y-62316401D01*
X119602868Y-62336107D01*
X119615480Y-62357150D01*
X119625970Y-62379329D01*
X119634235Y-62402428D01*
X119640196Y-62426227D01*
X119643796Y-62450495D01*
X119645000Y-62474999D01*
X119645000Y-63025001D01*
X119643796Y-63049505D01*
X119640196Y-63073773D01*
X119634235Y-63097572D01*
X119625970Y-63120671D01*
X119615480Y-63142850D01*
X119602868Y-63163893D01*
X119588253Y-63183599D01*
X119571777Y-63201777D01*
X119553599Y-63218253D01*
X119533893Y-63232868D01*
X119512850Y-63245480D01*
X119490671Y-63255970D01*
X119467572Y-63264235D01*
X119443773Y-63270196D01*
X119419505Y-63273796D01*
X119395001Y-63275000D01*
X118844999Y-63275000D01*
X118820495Y-63273796D01*
X118796227Y-63270196D01*
X118772428Y-63264235D01*
X118749329Y-63255970D01*
X118727150Y-63245480D01*
X118706107Y-63232868D01*
X118686401Y-63218253D01*
X118668223Y-63201777D01*
X118651747Y-63183599D01*
X118637132Y-63163893D01*
X118624520Y-63142850D01*
X118614030Y-63120671D01*
X118605765Y-63097572D01*
X118599804Y-63073773D01*
X118596204Y-63049505D01*
X118595000Y-63025001D01*
X118595000Y-62474999D01*
X118596204Y-62450495D01*
X118599804Y-62426227D01*
X118605765Y-62402428D01*
X118614030Y-62379329D01*
X118624520Y-62357150D01*
X118637132Y-62336107D01*
X118651747Y-62316401D01*
X118668223Y-62298223D01*
X118686401Y-62281747D01*
X118706107Y-62267132D01*
X118727150Y-62254520D01*
X118749329Y-62244030D01*
X118772428Y-62235765D01*
X118796227Y-62229804D01*
X118820495Y-62226204D01*
X118844999Y-62225000D01*
X119395001Y-62225000D01*
X119419505Y-62226204D01*
G37*
G36*
X118119505Y-62226204D02*
G01*
X118143773Y-62229804D01*
X118167572Y-62235765D01*
X118190671Y-62244030D01*
X118212850Y-62254520D01*
X118233893Y-62267132D01*
X118253599Y-62281747D01*
X118271777Y-62298223D01*
X118288253Y-62316401D01*
X118302868Y-62336107D01*
X118315480Y-62357150D01*
X118325970Y-62379329D01*
X118334235Y-62402428D01*
X118340196Y-62426227D01*
X118343796Y-62450495D01*
X118345000Y-62474999D01*
X118345000Y-63025001D01*
X118343796Y-63049505D01*
X118340196Y-63073773D01*
X118334235Y-63097572D01*
X118325970Y-63120671D01*
X118315480Y-63142850D01*
X118302868Y-63163893D01*
X118288253Y-63183599D01*
X118271777Y-63201777D01*
X118253599Y-63218253D01*
X118233893Y-63232868D01*
X118212850Y-63245480D01*
X118190671Y-63255970D01*
X118167572Y-63264235D01*
X118143773Y-63270196D01*
X118119505Y-63273796D01*
X118095001Y-63275000D01*
X117544999Y-63275000D01*
X117520495Y-63273796D01*
X117496227Y-63270196D01*
X117472428Y-63264235D01*
X117449329Y-63255970D01*
X117427150Y-63245480D01*
X117406107Y-63232868D01*
X117386401Y-63218253D01*
X117368223Y-63201777D01*
X117351747Y-63183599D01*
X117337132Y-63163893D01*
X117324520Y-63142850D01*
X117314030Y-63120671D01*
X117305765Y-63097572D01*
X117299804Y-63073773D01*
X117296204Y-63049505D01*
X117295000Y-63025001D01*
X117295000Y-62474999D01*
X117296204Y-62450495D01*
X117299804Y-62426227D01*
X117305765Y-62402428D01*
X117314030Y-62379329D01*
X117324520Y-62357150D01*
X117337132Y-62336107D01*
X117351747Y-62316401D01*
X117368223Y-62298223D01*
X117386401Y-62281747D01*
X117406107Y-62267132D01*
X117427150Y-62254520D01*
X117449329Y-62244030D01*
X117472428Y-62235765D01*
X117496227Y-62229804D01*
X117520495Y-62226204D01*
X117544999Y-62225000D01*
X118095001Y-62225000D01*
X118119505Y-62226204D01*
G37*
G36*
X122019505Y-60926204D02*
G01*
X122043773Y-60929804D01*
X122067572Y-60935765D01*
X122090671Y-60944030D01*
X122112850Y-60954520D01*
X122133893Y-60967132D01*
X122153599Y-60981747D01*
X122171777Y-60998223D01*
X122188253Y-61016401D01*
X122202868Y-61036107D01*
X122215480Y-61057150D01*
X122225970Y-61079329D01*
X122234235Y-61102428D01*
X122240196Y-61126227D01*
X122243796Y-61150495D01*
X122245000Y-61174999D01*
X122245000Y-61725001D01*
X122243796Y-61749505D01*
X122240196Y-61773773D01*
X122234235Y-61797572D01*
X122225970Y-61820671D01*
X122215480Y-61842850D01*
X122202868Y-61863893D01*
X122188253Y-61883599D01*
X122171777Y-61901777D01*
X122153599Y-61918253D01*
X122133893Y-61932868D01*
X122112850Y-61945480D01*
X122090671Y-61955970D01*
X122067572Y-61964235D01*
X122043773Y-61970196D01*
X122019505Y-61973796D01*
X121995001Y-61975000D01*
X121444999Y-61975000D01*
X121420495Y-61973796D01*
X121396227Y-61970196D01*
X121372428Y-61964235D01*
X121349329Y-61955970D01*
X121327150Y-61945480D01*
X121306107Y-61932868D01*
X121286401Y-61918253D01*
X121268223Y-61901777D01*
X121251747Y-61883599D01*
X121237132Y-61863893D01*
X121224520Y-61842850D01*
X121214030Y-61820671D01*
X121205765Y-61797572D01*
X121199804Y-61773773D01*
X121196204Y-61749505D01*
X121195000Y-61725001D01*
X121195000Y-61174999D01*
X121196204Y-61150495D01*
X121199804Y-61126227D01*
X121205765Y-61102428D01*
X121214030Y-61079329D01*
X121224520Y-61057150D01*
X121237132Y-61036107D01*
X121251747Y-61016401D01*
X121268223Y-60998223D01*
X121286401Y-60981747D01*
X121306107Y-60967132D01*
X121327150Y-60954520D01*
X121349329Y-60944030D01*
X121372428Y-60935765D01*
X121396227Y-60929804D01*
X121420495Y-60926204D01*
X121444999Y-60925000D01*
X121995001Y-60925000D01*
X122019505Y-60926204D01*
G37*
G36*
X120719505Y-60926204D02*
G01*
X120743773Y-60929804D01*
X120767572Y-60935765D01*
X120790671Y-60944030D01*
X120812850Y-60954520D01*
X120833893Y-60967132D01*
X120853599Y-60981747D01*
X120871777Y-60998223D01*
X120888253Y-61016401D01*
X120902868Y-61036107D01*
X120915480Y-61057150D01*
X120925970Y-61079329D01*
X120934235Y-61102428D01*
X120940196Y-61126227D01*
X120943796Y-61150495D01*
X120945000Y-61174999D01*
X120945000Y-61725001D01*
X120943796Y-61749505D01*
X120940196Y-61773773D01*
X120934235Y-61797572D01*
X120925970Y-61820671D01*
X120915480Y-61842850D01*
X120902868Y-61863893D01*
X120888253Y-61883599D01*
X120871777Y-61901777D01*
X120853599Y-61918253D01*
X120833893Y-61932868D01*
X120812850Y-61945480D01*
X120790671Y-61955970D01*
X120767572Y-61964235D01*
X120743773Y-61970196D01*
X120719505Y-61973796D01*
X120695001Y-61975000D01*
X120144999Y-61975000D01*
X120120495Y-61973796D01*
X120096227Y-61970196D01*
X120072428Y-61964235D01*
X120049329Y-61955970D01*
X120027150Y-61945480D01*
X120006107Y-61932868D01*
X119986401Y-61918253D01*
X119968223Y-61901777D01*
X119951747Y-61883599D01*
X119937132Y-61863893D01*
X119924520Y-61842850D01*
X119914030Y-61820671D01*
X119905765Y-61797572D01*
X119899804Y-61773773D01*
X119896204Y-61749505D01*
X119895000Y-61725001D01*
X119895000Y-61174999D01*
X119896204Y-61150495D01*
X119899804Y-61126227D01*
X119905765Y-61102428D01*
X119914030Y-61079329D01*
X119924520Y-61057150D01*
X119937132Y-61036107D01*
X119951747Y-61016401D01*
X119968223Y-60998223D01*
X119986401Y-60981747D01*
X120006107Y-60967132D01*
X120027150Y-60954520D01*
X120049329Y-60944030D01*
X120072428Y-60935765D01*
X120096227Y-60929804D01*
X120120495Y-60926204D01*
X120144999Y-60925000D01*
X120695001Y-60925000D01*
X120719505Y-60926204D01*
G37*
G36*
X119419505Y-60926204D02*
G01*
X119443773Y-60929804D01*
X119467572Y-60935765D01*
X119490671Y-60944030D01*
X119512850Y-60954520D01*
X119533893Y-60967132D01*
X119553599Y-60981747D01*
X119571777Y-60998223D01*
X119588253Y-61016401D01*
X119602868Y-61036107D01*
X119615480Y-61057150D01*
X119625970Y-61079329D01*
X119634235Y-61102428D01*
X119640196Y-61126227D01*
X119643796Y-61150495D01*
X119645000Y-61174999D01*
X119645000Y-61725001D01*
X119643796Y-61749505D01*
X119640196Y-61773773D01*
X119634235Y-61797572D01*
X119625970Y-61820671D01*
X119615480Y-61842850D01*
X119602868Y-61863893D01*
X119588253Y-61883599D01*
X119571777Y-61901777D01*
X119553599Y-61918253D01*
X119533893Y-61932868D01*
X119512850Y-61945480D01*
X119490671Y-61955970D01*
X119467572Y-61964235D01*
X119443773Y-61970196D01*
X119419505Y-61973796D01*
X119395001Y-61975000D01*
X118844999Y-61975000D01*
X118820495Y-61973796D01*
X118796227Y-61970196D01*
X118772428Y-61964235D01*
X118749329Y-61955970D01*
X118727150Y-61945480D01*
X118706107Y-61932868D01*
X118686401Y-61918253D01*
X118668223Y-61901777D01*
X118651747Y-61883599D01*
X118637132Y-61863893D01*
X118624520Y-61842850D01*
X118614030Y-61820671D01*
X118605765Y-61797572D01*
X118599804Y-61773773D01*
X118596204Y-61749505D01*
X118595000Y-61725001D01*
X118595000Y-61174999D01*
X118596204Y-61150495D01*
X118599804Y-61126227D01*
X118605765Y-61102428D01*
X118614030Y-61079329D01*
X118624520Y-61057150D01*
X118637132Y-61036107D01*
X118651747Y-61016401D01*
X118668223Y-60998223D01*
X118686401Y-60981747D01*
X118706107Y-60967132D01*
X118727150Y-60954520D01*
X118749329Y-60944030D01*
X118772428Y-60935765D01*
X118796227Y-60929804D01*
X118820495Y-60926204D01*
X118844999Y-60925000D01*
X119395001Y-60925000D01*
X119419505Y-60926204D01*
G37*
G36*
X118119505Y-60926204D02*
G01*
X118143773Y-60929804D01*
X118167572Y-60935765D01*
X118190671Y-60944030D01*
X118212850Y-60954520D01*
X118233893Y-60967132D01*
X118253599Y-60981747D01*
X118271777Y-60998223D01*
X118288253Y-61016401D01*
X118302868Y-61036107D01*
X118315480Y-61057150D01*
X118325970Y-61079329D01*
X118334235Y-61102428D01*
X118340196Y-61126227D01*
X118343796Y-61150495D01*
X118345000Y-61174999D01*
X118345000Y-61725001D01*
X118343796Y-61749505D01*
X118340196Y-61773773D01*
X118334235Y-61797572D01*
X118325970Y-61820671D01*
X118315480Y-61842850D01*
X118302868Y-61863893D01*
X118288253Y-61883599D01*
X118271777Y-61901777D01*
X118253599Y-61918253D01*
X118233893Y-61932868D01*
X118212850Y-61945480D01*
X118190671Y-61955970D01*
X118167572Y-61964235D01*
X118143773Y-61970196D01*
X118119505Y-61973796D01*
X118095001Y-61975000D01*
X117544999Y-61975000D01*
X117520495Y-61973796D01*
X117496227Y-61970196D01*
X117472428Y-61964235D01*
X117449329Y-61955970D01*
X117427150Y-61945480D01*
X117406107Y-61932868D01*
X117386401Y-61918253D01*
X117368223Y-61901777D01*
X117351747Y-61883599D01*
X117337132Y-61863893D01*
X117324520Y-61842850D01*
X117314030Y-61820671D01*
X117305765Y-61797572D01*
X117299804Y-61773773D01*
X117296204Y-61749505D01*
X117295000Y-61725001D01*
X117295000Y-61174999D01*
X117296204Y-61150495D01*
X117299804Y-61126227D01*
X117305765Y-61102428D01*
X117314030Y-61079329D01*
X117324520Y-61057150D01*
X117337132Y-61036107D01*
X117351747Y-61016401D01*
X117368223Y-60998223D01*
X117386401Y-60981747D01*
X117406107Y-60967132D01*
X117427150Y-60954520D01*
X117449329Y-60944030D01*
X117472428Y-60935765D01*
X117496227Y-60929804D01*
X117520495Y-60926204D01*
X117544999Y-60925000D01*
X118095001Y-60925000D01*
X118119505Y-60926204D01*
G37*
G36*
X122338626Y-66200301D02*
G01*
X122344693Y-66201201D01*
X122350643Y-66202691D01*
X122356418Y-66204758D01*
X122361962Y-66207380D01*
X122367223Y-66210533D01*
X122372150Y-66214187D01*
X122376694Y-66218306D01*
X122380813Y-66222850D01*
X122384467Y-66227777D01*
X122387620Y-66233038D01*
X122390242Y-66238582D01*
X122392309Y-66244357D01*
X122393799Y-66250307D01*
X122394699Y-66256374D01*
X122395000Y-66262500D01*
X122395000Y-67212500D01*
X122394699Y-67218626D01*
X122393799Y-67224693D01*
X122392309Y-67230643D01*
X122390242Y-67236418D01*
X122387620Y-67241962D01*
X122384467Y-67247223D01*
X122380813Y-67252150D01*
X122376694Y-67256694D01*
X122372150Y-67260813D01*
X122367223Y-67264467D01*
X122361962Y-67267620D01*
X122356418Y-67270242D01*
X122350643Y-67272309D01*
X122344693Y-67273799D01*
X122338626Y-67274699D01*
X122332500Y-67275000D01*
X122207500Y-67275000D01*
X122201374Y-67274699D01*
X122195307Y-67273799D01*
X122189357Y-67272309D01*
X122183582Y-67270242D01*
X122178038Y-67267620D01*
X122172777Y-67264467D01*
X122167850Y-67260813D01*
X122163306Y-67256694D01*
X122159187Y-67252150D01*
X122155533Y-67247223D01*
X122152380Y-67241962D01*
X122149758Y-67236418D01*
X122147691Y-67230643D01*
X122146201Y-67224693D01*
X122145301Y-67218626D01*
X122145000Y-67212500D01*
X122145000Y-66262500D01*
X122145301Y-66256374D01*
X122146201Y-66250307D01*
X122147691Y-66244357D01*
X122149758Y-66238582D01*
X122152380Y-66233038D01*
X122155533Y-66227777D01*
X122159187Y-66222850D01*
X122163306Y-66218306D01*
X122167850Y-66214187D01*
X122172777Y-66210533D01*
X122178038Y-66207380D01*
X122183582Y-66204758D01*
X122189357Y-66202691D01*
X122195307Y-66201201D01*
X122201374Y-66200301D01*
X122207500Y-66200000D01*
X122332500Y-66200000D01*
X122338626Y-66200301D01*
G37*
G36*
X121838626Y-66200301D02*
G01*
X121844693Y-66201201D01*
X121850643Y-66202691D01*
X121856418Y-66204758D01*
X121861962Y-66207380D01*
X121867223Y-66210533D01*
X121872150Y-66214187D01*
X121876694Y-66218306D01*
X121880813Y-66222850D01*
X121884467Y-66227777D01*
X121887620Y-66233038D01*
X121890242Y-66238582D01*
X121892309Y-66244357D01*
X121893799Y-66250307D01*
X121894699Y-66256374D01*
X121895000Y-66262500D01*
X121895000Y-67212500D01*
X121894699Y-67218626D01*
X121893799Y-67224693D01*
X121892309Y-67230643D01*
X121890242Y-67236418D01*
X121887620Y-67241962D01*
X121884467Y-67247223D01*
X121880813Y-67252150D01*
X121876694Y-67256694D01*
X121872150Y-67260813D01*
X121867223Y-67264467D01*
X121861962Y-67267620D01*
X121856418Y-67270242D01*
X121850643Y-67272309D01*
X121844693Y-67273799D01*
X121838626Y-67274699D01*
X121832500Y-67275000D01*
X121707500Y-67275000D01*
X121701374Y-67274699D01*
X121695307Y-67273799D01*
X121689357Y-67272309D01*
X121683582Y-67270242D01*
X121678038Y-67267620D01*
X121672777Y-67264467D01*
X121667850Y-67260813D01*
X121663306Y-67256694D01*
X121659187Y-67252150D01*
X121655533Y-67247223D01*
X121652380Y-67241962D01*
X121649758Y-67236418D01*
X121647691Y-67230643D01*
X121646201Y-67224693D01*
X121645301Y-67218626D01*
X121645000Y-67212500D01*
X121645000Y-66262500D01*
X121645301Y-66256374D01*
X121646201Y-66250307D01*
X121647691Y-66244357D01*
X121649758Y-66238582D01*
X121652380Y-66233038D01*
X121655533Y-66227777D01*
X121659187Y-66222850D01*
X121663306Y-66218306D01*
X121667850Y-66214187D01*
X121672777Y-66210533D01*
X121678038Y-66207380D01*
X121683582Y-66204758D01*
X121689357Y-66202691D01*
X121695307Y-66201201D01*
X121701374Y-66200301D01*
X121707500Y-66200000D01*
X121832500Y-66200000D01*
X121838626Y-66200301D01*
G37*
G36*
X121338626Y-66200301D02*
G01*
X121344693Y-66201201D01*
X121350643Y-66202691D01*
X121356418Y-66204758D01*
X121361962Y-66207380D01*
X121367223Y-66210533D01*
X121372150Y-66214187D01*
X121376694Y-66218306D01*
X121380813Y-66222850D01*
X121384467Y-66227777D01*
X121387620Y-66233038D01*
X121390242Y-66238582D01*
X121392309Y-66244357D01*
X121393799Y-66250307D01*
X121394699Y-66256374D01*
X121395000Y-66262500D01*
X121395000Y-67212500D01*
X121394699Y-67218626D01*
X121393799Y-67224693D01*
X121392309Y-67230643D01*
X121390242Y-67236418D01*
X121387620Y-67241962D01*
X121384467Y-67247223D01*
X121380813Y-67252150D01*
X121376694Y-67256694D01*
X121372150Y-67260813D01*
X121367223Y-67264467D01*
X121361962Y-67267620D01*
X121356418Y-67270242D01*
X121350643Y-67272309D01*
X121344693Y-67273799D01*
X121338626Y-67274699D01*
X121332500Y-67275000D01*
X121207500Y-67275000D01*
X121201374Y-67274699D01*
X121195307Y-67273799D01*
X121189357Y-67272309D01*
X121183582Y-67270242D01*
X121178038Y-67267620D01*
X121172777Y-67264467D01*
X121167850Y-67260813D01*
X121163306Y-67256694D01*
X121159187Y-67252150D01*
X121155533Y-67247223D01*
X121152380Y-67241962D01*
X121149758Y-67236418D01*
X121147691Y-67230643D01*
X121146201Y-67224693D01*
X121145301Y-67218626D01*
X121145000Y-67212500D01*
X121145000Y-66262500D01*
X121145301Y-66256374D01*
X121146201Y-66250307D01*
X121147691Y-66244357D01*
X121149758Y-66238582D01*
X121152380Y-66233038D01*
X121155533Y-66227777D01*
X121159187Y-66222850D01*
X121163306Y-66218306D01*
X121167850Y-66214187D01*
X121172777Y-66210533D01*
X121178038Y-66207380D01*
X121183582Y-66204758D01*
X121189357Y-66202691D01*
X121195307Y-66201201D01*
X121201374Y-66200301D01*
X121207500Y-66200000D01*
X121332500Y-66200000D01*
X121338626Y-66200301D01*
G37*
G36*
X120838626Y-66200301D02*
G01*
X120844693Y-66201201D01*
X120850643Y-66202691D01*
X120856418Y-66204758D01*
X120861962Y-66207380D01*
X120867223Y-66210533D01*
X120872150Y-66214187D01*
X120876694Y-66218306D01*
X120880813Y-66222850D01*
X120884467Y-66227777D01*
X120887620Y-66233038D01*
X120890242Y-66238582D01*
X120892309Y-66244357D01*
X120893799Y-66250307D01*
X120894699Y-66256374D01*
X120895000Y-66262500D01*
X120895000Y-67212500D01*
X120894699Y-67218626D01*
X120893799Y-67224693D01*
X120892309Y-67230643D01*
X120890242Y-67236418D01*
X120887620Y-67241962D01*
X120884467Y-67247223D01*
X120880813Y-67252150D01*
X120876694Y-67256694D01*
X120872150Y-67260813D01*
X120867223Y-67264467D01*
X120861962Y-67267620D01*
X120856418Y-67270242D01*
X120850643Y-67272309D01*
X120844693Y-67273799D01*
X120838626Y-67274699D01*
X120832500Y-67275000D01*
X120707500Y-67275000D01*
X120701374Y-67274699D01*
X120695307Y-67273799D01*
X120689357Y-67272309D01*
X120683582Y-67270242D01*
X120678038Y-67267620D01*
X120672777Y-67264467D01*
X120667850Y-67260813D01*
X120663306Y-67256694D01*
X120659187Y-67252150D01*
X120655533Y-67247223D01*
X120652380Y-67241962D01*
X120649758Y-67236418D01*
X120647691Y-67230643D01*
X120646201Y-67224693D01*
X120645301Y-67218626D01*
X120645000Y-67212500D01*
X120645000Y-66262500D01*
X120645301Y-66256374D01*
X120646201Y-66250307D01*
X120647691Y-66244357D01*
X120649758Y-66238582D01*
X120652380Y-66233038D01*
X120655533Y-66227777D01*
X120659187Y-66222850D01*
X120663306Y-66218306D01*
X120667850Y-66214187D01*
X120672777Y-66210533D01*
X120678038Y-66207380D01*
X120683582Y-66204758D01*
X120689357Y-66202691D01*
X120695307Y-66201201D01*
X120701374Y-66200301D01*
X120707500Y-66200000D01*
X120832500Y-66200000D01*
X120838626Y-66200301D01*
G37*
G36*
X120338626Y-66200301D02*
G01*
X120344693Y-66201201D01*
X120350643Y-66202691D01*
X120356418Y-66204758D01*
X120361962Y-66207380D01*
X120367223Y-66210533D01*
X120372150Y-66214187D01*
X120376694Y-66218306D01*
X120380813Y-66222850D01*
X120384467Y-66227777D01*
X120387620Y-66233038D01*
X120390242Y-66238582D01*
X120392309Y-66244357D01*
X120393799Y-66250307D01*
X120394699Y-66256374D01*
X120395000Y-66262500D01*
X120395000Y-67212500D01*
X120394699Y-67218626D01*
X120393799Y-67224693D01*
X120392309Y-67230643D01*
X120390242Y-67236418D01*
X120387620Y-67241962D01*
X120384467Y-67247223D01*
X120380813Y-67252150D01*
X120376694Y-67256694D01*
X120372150Y-67260813D01*
X120367223Y-67264467D01*
X120361962Y-67267620D01*
X120356418Y-67270242D01*
X120350643Y-67272309D01*
X120344693Y-67273799D01*
X120338626Y-67274699D01*
X120332500Y-67275000D01*
X120207500Y-67275000D01*
X120201374Y-67274699D01*
X120195307Y-67273799D01*
X120189357Y-67272309D01*
X120183582Y-67270242D01*
X120178038Y-67267620D01*
X120172777Y-67264467D01*
X120167850Y-67260813D01*
X120163306Y-67256694D01*
X120159187Y-67252150D01*
X120155533Y-67247223D01*
X120152380Y-67241962D01*
X120149758Y-67236418D01*
X120147691Y-67230643D01*
X120146201Y-67224693D01*
X120145301Y-67218626D01*
X120145000Y-67212500D01*
X120145000Y-66262500D01*
X120145301Y-66256374D01*
X120146201Y-66250307D01*
X120147691Y-66244357D01*
X120149758Y-66238582D01*
X120152380Y-66233038D01*
X120155533Y-66227777D01*
X120159187Y-66222850D01*
X120163306Y-66218306D01*
X120167850Y-66214187D01*
X120172777Y-66210533D01*
X120178038Y-66207380D01*
X120183582Y-66204758D01*
X120189357Y-66202691D01*
X120195307Y-66201201D01*
X120201374Y-66200301D01*
X120207500Y-66200000D01*
X120332500Y-66200000D01*
X120338626Y-66200301D01*
G37*
G36*
X119838626Y-66200301D02*
G01*
X119844693Y-66201201D01*
X119850643Y-66202691D01*
X119856418Y-66204758D01*
X119861962Y-66207380D01*
X119867223Y-66210533D01*
X119872150Y-66214187D01*
X119876694Y-66218306D01*
X119880813Y-66222850D01*
X119884467Y-66227777D01*
X119887620Y-66233038D01*
X119890242Y-66238582D01*
X119892309Y-66244357D01*
X119893799Y-66250307D01*
X119894699Y-66256374D01*
X119895000Y-66262500D01*
X119895000Y-67212500D01*
X119894699Y-67218626D01*
X119893799Y-67224693D01*
X119892309Y-67230643D01*
X119890242Y-67236418D01*
X119887620Y-67241962D01*
X119884467Y-67247223D01*
X119880813Y-67252150D01*
X119876694Y-67256694D01*
X119872150Y-67260813D01*
X119867223Y-67264467D01*
X119861962Y-67267620D01*
X119856418Y-67270242D01*
X119850643Y-67272309D01*
X119844693Y-67273799D01*
X119838626Y-67274699D01*
X119832500Y-67275000D01*
X119707500Y-67275000D01*
X119701374Y-67274699D01*
X119695307Y-67273799D01*
X119689357Y-67272309D01*
X119683582Y-67270242D01*
X119678038Y-67267620D01*
X119672777Y-67264467D01*
X119667850Y-67260813D01*
X119663306Y-67256694D01*
X119659187Y-67252150D01*
X119655533Y-67247223D01*
X119652380Y-67241962D01*
X119649758Y-67236418D01*
X119647691Y-67230643D01*
X119646201Y-67224693D01*
X119645301Y-67218626D01*
X119645000Y-67212500D01*
X119645000Y-66262500D01*
X119645301Y-66256374D01*
X119646201Y-66250307D01*
X119647691Y-66244357D01*
X119649758Y-66238582D01*
X119652380Y-66233038D01*
X119655533Y-66227777D01*
X119659187Y-66222850D01*
X119663306Y-66218306D01*
X119667850Y-66214187D01*
X119672777Y-66210533D01*
X119678038Y-66207380D01*
X119683582Y-66204758D01*
X119689357Y-66202691D01*
X119695307Y-66201201D01*
X119701374Y-66200301D01*
X119707500Y-66200000D01*
X119832500Y-66200000D01*
X119838626Y-66200301D01*
G37*
G36*
X119338626Y-66200301D02*
G01*
X119344693Y-66201201D01*
X119350643Y-66202691D01*
X119356418Y-66204758D01*
X119361962Y-66207380D01*
X119367223Y-66210533D01*
X119372150Y-66214187D01*
X119376694Y-66218306D01*
X119380813Y-66222850D01*
X119384467Y-66227777D01*
X119387620Y-66233038D01*
X119390242Y-66238582D01*
X119392309Y-66244357D01*
X119393799Y-66250307D01*
X119394699Y-66256374D01*
X119395000Y-66262500D01*
X119395000Y-67212500D01*
X119394699Y-67218626D01*
X119393799Y-67224693D01*
X119392309Y-67230643D01*
X119390242Y-67236418D01*
X119387620Y-67241962D01*
X119384467Y-67247223D01*
X119380813Y-67252150D01*
X119376694Y-67256694D01*
X119372150Y-67260813D01*
X119367223Y-67264467D01*
X119361962Y-67267620D01*
X119356418Y-67270242D01*
X119350643Y-67272309D01*
X119344693Y-67273799D01*
X119338626Y-67274699D01*
X119332500Y-67275000D01*
X119207500Y-67275000D01*
X119201374Y-67274699D01*
X119195307Y-67273799D01*
X119189357Y-67272309D01*
X119183582Y-67270242D01*
X119178038Y-67267620D01*
X119172777Y-67264467D01*
X119167850Y-67260813D01*
X119163306Y-67256694D01*
X119159187Y-67252150D01*
X119155533Y-67247223D01*
X119152380Y-67241962D01*
X119149758Y-67236418D01*
X119147691Y-67230643D01*
X119146201Y-67224693D01*
X119145301Y-67218626D01*
X119145000Y-67212500D01*
X119145000Y-66262500D01*
X119145301Y-66256374D01*
X119146201Y-66250307D01*
X119147691Y-66244357D01*
X119149758Y-66238582D01*
X119152380Y-66233038D01*
X119155533Y-66227777D01*
X119159187Y-66222850D01*
X119163306Y-66218306D01*
X119167850Y-66214187D01*
X119172777Y-66210533D01*
X119178038Y-66207380D01*
X119183582Y-66204758D01*
X119189357Y-66202691D01*
X119195307Y-66201201D01*
X119201374Y-66200301D01*
X119207500Y-66200000D01*
X119332500Y-66200000D01*
X119338626Y-66200301D01*
G37*
G36*
X118838626Y-66200301D02*
G01*
X118844693Y-66201201D01*
X118850643Y-66202691D01*
X118856418Y-66204758D01*
X118861962Y-66207380D01*
X118867223Y-66210533D01*
X118872150Y-66214187D01*
X118876694Y-66218306D01*
X118880813Y-66222850D01*
X118884467Y-66227777D01*
X118887620Y-66233038D01*
X118890242Y-66238582D01*
X118892309Y-66244357D01*
X118893799Y-66250307D01*
X118894699Y-66256374D01*
X118895000Y-66262500D01*
X118895000Y-67212500D01*
X118894699Y-67218626D01*
X118893799Y-67224693D01*
X118892309Y-67230643D01*
X118890242Y-67236418D01*
X118887620Y-67241962D01*
X118884467Y-67247223D01*
X118880813Y-67252150D01*
X118876694Y-67256694D01*
X118872150Y-67260813D01*
X118867223Y-67264467D01*
X118861962Y-67267620D01*
X118856418Y-67270242D01*
X118850643Y-67272309D01*
X118844693Y-67273799D01*
X118838626Y-67274699D01*
X118832500Y-67275000D01*
X118707500Y-67275000D01*
X118701374Y-67274699D01*
X118695307Y-67273799D01*
X118689357Y-67272309D01*
X118683582Y-67270242D01*
X118678038Y-67267620D01*
X118672777Y-67264467D01*
X118667850Y-67260813D01*
X118663306Y-67256694D01*
X118659187Y-67252150D01*
X118655533Y-67247223D01*
X118652380Y-67241962D01*
X118649758Y-67236418D01*
X118647691Y-67230643D01*
X118646201Y-67224693D01*
X118645301Y-67218626D01*
X118645000Y-67212500D01*
X118645000Y-66262500D01*
X118645301Y-66256374D01*
X118646201Y-66250307D01*
X118647691Y-66244357D01*
X118649758Y-66238582D01*
X118652380Y-66233038D01*
X118655533Y-66227777D01*
X118659187Y-66222850D01*
X118663306Y-66218306D01*
X118667850Y-66214187D01*
X118672777Y-66210533D01*
X118678038Y-66207380D01*
X118683582Y-66204758D01*
X118689357Y-66202691D01*
X118695307Y-66201201D01*
X118701374Y-66200301D01*
X118707500Y-66200000D01*
X118832500Y-66200000D01*
X118838626Y-66200301D01*
G37*
G36*
X118338626Y-66200301D02*
G01*
X118344693Y-66201201D01*
X118350643Y-66202691D01*
X118356418Y-66204758D01*
X118361962Y-66207380D01*
X118367223Y-66210533D01*
X118372150Y-66214187D01*
X118376694Y-66218306D01*
X118380813Y-66222850D01*
X118384467Y-66227777D01*
X118387620Y-66233038D01*
X118390242Y-66238582D01*
X118392309Y-66244357D01*
X118393799Y-66250307D01*
X118394699Y-66256374D01*
X118395000Y-66262500D01*
X118395000Y-67212500D01*
X118394699Y-67218626D01*
X118393799Y-67224693D01*
X118392309Y-67230643D01*
X118390242Y-67236418D01*
X118387620Y-67241962D01*
X118384467Y-67247223D01*
X118380813Y-67252150D01*
X118376694Y-67256694D01*
X118372150Y-67260813D01*
X118367223Y-67264467D01*
X118361962Y-67267620D01*
X118356418Y-67270242D01*
X118350643Y-67272309D01*
X118344693Y-67273799D01*
X118338626Y-67274699D01*
X118332500Y-67275000D01*
X118207500Y-67275000D01*
X118201374Y-67274699D01*
X118195307Y-67273799D01*
X118189357Y-67272309D01*
X118183582Y-67270242D01*
X118178038Y-67267620D01*
X118172777Y-67264467D01*
X118167850Y-67260813D01*
X118163306Y-67256694D01*
X118159187Y-67252150D01*
X118155533Y-67247223D01*
X118152380Y-67241962D01*
X118149758Y-67236418D01*
X118147691Y-67230643D01*
X118146201Y-67224693D01*
X118145301Y-67218626D01*
X118145000Y-67212500D01*
X118145000Y-66262500D01*
X118145301Y-66256374D01*
X118146201Y-66250307D01*
X118147691Y-66244357D01*
X118149758Y-66238582D01*
X118152380Y-66233038D01*
X118155533Y-66227777D01*
X118159187Y-66222850D01*
X118163306Y-66218306D01*
X118167850Y-66214187D01*
X118172777Y-66210533D01*
X118178038Y-66207380D01*
X118183582Y-66204758D01*
X118189357Y-66202691D01*
X118195307Y-66201201D01*
X118201374Y-66200301D01*
X118207500Y-66200000D01*
X118332500Y-66200000D01*
X118338626Y-66200301D01*
G37*
G36*
X117838626Y-66200301D02*
G01*
X117844693Y-66201201D01*
X117850643Y-66202691D01*
X117856418Y-66204758D01*
X117861962Y-66207380D01*
X117867223Y-66210533D01*
X117872150Y-66214187D01*
X117876694Y-66218306D01*
X117880813Y-66222850D01*
X117884467Y-66227777D01*
X117887620Y-66233038D01*
X117890242Y-66238582D01*
X117892309Y-66244357D01*
X117893799Y-66250307D01*
X117894699Y-66256374D01*
X117895000Y-66262500D01*
X117895000Y-67212500D01*
X117894699Y-67218626D01*
X117893799Y-67224693D01*
X117892309Y-67230643D01*
X117890242Y-67236418D01*
X117887620Y-67241962D01*
X117884467Y-67247223D01*
X117880813Y-67252150D01*
X117876694Y-67256694D01*
X117872150Y-67260813D01*
X117867223Y-67264467D01*
X117861962Y-67267620D01*
X117856418Y-67270242D01*
X117850643Y-67272309D01*
X117844693Y-67273799D01*
X117838626Y-67274699D01*
X117832500Y-67275000D01*
X117707500Y-67275000D01*
X117701374Y-67274699D01*
X117695307Y-67273799D01*
X117689357Y-67272309D01*
X117683582Y-67270242D01*
X117678038Y-67267620D01*
X117672777Y-67264467D01*
X117667850Y-67260813D01*
X117663306Y-67256694D01*
X117659187Y-67252150D01*
X117655533Y-67247223D01*
X117652380Y-67241962D01*
X117649758Y-67236418D01*
X117647691Y-67230643D01*
X117646201Y-67224693D01*
X117645301Y-67218626D01*
X117645000Y-67212500D01*
X117645000Y-66262500D01*
X117645301Y-66256374D01*
X117646201Y-66250307D01*
X117647691Y-66244357D01*
X117649758Y-66238582D01*
X117652380Y-66233038D01*
X117655533Y-66227777D01*
X117659187Y-66222850D01*
X117663306Y-66218306D01*
X117667850Y-66214187D01*
X117672777Y-66210533D01*
X117678038Y-66207380D01*
X117683582Y-66204758D01*
X117689357Y-66202691D01*
X117695307Y-66201201D01*
X117701374Y-66200301D01*
X117707500Y-66200000D01*
X117832500Y-66200000D01*
X117838626Y-66200301D01*
G37*
G36*
X117338626Y-66200301D02*
G01*
X117344693Y-66201201D01*
X117350643Y-66202691D01*
X117356418Y-66204758D01*
X117361962Y-66207380D01*
X117367223Y-66210533D01*
X117372150Y-66214187D01*
X117376694Y-66218306D01*
X117380813Y-66222850D01*
X117384467Y-66227777D01*
X117387620Y-66233038D01*
X117390242Y-66238582D01*
X117392309Y-66244357D01*
X117393799Y-66250307D01*
X117394699Y-66256374D01*
X117395000Y-66262500D01*
X117395000Y-67212500D01*
X117394699Y-67218626D01*
X117393799Y-67224693D01*
X117392309Y-67230643D01*
X117390242Y-67236418D01*
X117387620Y-67241962D01*
X117384467Y-67247223D01*
X117380813Y-67252150D01*
X117376694Y-67256694D01*
X117372150Y-67260813D01*
X117367223Y-67264467D01*
X117361962Y-67267620D01*
X117356418Y-67270242D01*
X117350643Y-67272309D01*
X117344693Y-67273799D01*
X117338626Y-67274699D01*
X117332500Y-67275000D01*
X117207500Y-67275000D01*
X117201374Y-67274699D01*
X117195307Y-67273799D01*
X117189357Y-67272309D01*
X117183582Y-67270242D01*
X117178038Y-67267620D01*
X117172777Y-67264467D01*
X117167850Y-67260813D01*
X117163306Y-67256694D01*
X117159187Y-67252150D01*
X117155533Y-67247223D01*
X117152380Y-67241962D01*
X117149758Y-67236418D01*
X117147691Y-67230643D01*
X117146201Y-67224693D01*
X117145301Y-67218626D01*
X117145000Y-67212500D01*
X117145000Y-66262500D01*
X117145301Y-66256374D01*
X117146201Y-66250307D01*
X117147691Y-66244357D01*
X117149758Y-66238582D01*
X117152380Y-66233038D01*
X117155533Y-66227777D01*
X117159187Y-66222850D01*
X117163306Y-66218306D01*
X117167850Y-66214187D01*
X117172777Y-66210533D01*
X117178038Y-66207380D01*
X117183582Y-66204758D01*
X117189357Y-66202691D01*
X117195307Y-66201201D01*
X117201374Y-66200301D01*
X117207500Y-66200000D01*
X117332500Y-66200000D01*
X117338626Y-66200301D01*
G37*
G36*
X116913626Y-65775301D02*
G01*
X116919693Y-65776201D01*
X116925643Y-65777691D01*
X116931418Y-65779758D01*
X116936962Y-65782380D01*
X116942223Y-65785533D01*
X116947150Y-65789187D01*
X116951694Y-65793306D01*
X116955813Y-65797850D01*
X116959467Y-65802777D01*
X116962620Y-65808038D01*
X116965242Y-65813582D01*
X116967309Y-65819357D01*
X116968799Y-65825307D01*
X116969699Y-65831374D01*
X116970000Y-65837500D01*
X116970000Y-65962500D01*
X116969699Y-65968626D01*
X116968799Y-65974693D01*
X116967309Y-65980643D01*
X116965242Y-65986418D01*
X116962620Y-65991962D01*
X116959467Y-65997223D01*
X116955813Y-66002150D01*
X116951694Y-66006694D01*
X116947150Y-66010813D01*
X116942223Y-66014467D01*
X116936962Y-66017620D01*
X116931418Y-66020242D01*
X116925643Y-66022309D01*
X116919693Y-66023799D01*
X116913626Y-66024699D01*
X116907500Y-66025000D01*
X115957500Y-66025000D01*
X115951374Y-66024699D01*
X115945307Y-66023799D01*
X115939357Y-66022309D01*
X115933582Y-66020242D01*
X115928038Y-66017620D01*
X115922777Y-66014467D01*
X115917850Y-66010813D01*
X115913306Y-66006694D01*
X115909187Y-66002150D01*
X115905533Y-65997223D01*
X115902380Y-65991962D01*
X115899758Y-65986418D01*
X115897691Y-65980643D01*
X115896201Y-65974693D01*
X115895301Y-65968626D01*
X115895000Y-65962500D01*
X115895000Y-65837500D01*
X115895301Y-65831374D01*
X115896201Y-65825307D01*
X115897691Y-65819357D01*
X115899758Y-65813582D01*
X115902380Y-65808038D01*
X115905533Y-65802777D01*
X115909187Y-65797850D01*
X115913306Y-65793306D01*
X115917850Y-65789187D01*
X115922777Y-65785533D01*
X115928038Y-65782380D01*
X115933582Y-65779758D01*
X115939357Y-65777691D01*
X115945307Y-65776201D01*
X115951374Y-65775301D01*
X115957500Y-65775000D01*
X116907500Y-65775000D01*
X116913626Y-65775301D01*
G37*
G36*
X116913626Y-65275301D02*
G01*
X116919693Y-65276201D01*
X116925643Y-65277691D01*
X116931418Y-65279758D01*
X116936962Y-65282380D01*
X116942223Y-65285533D01*
X116947150Y-65289187D01*
X116951694Y-65293306D01*
X116955813Y-65297850D01*
X116959467Y-65302777D01*
X116962620Y-65308038D01*
X116965242Y-65313582D01*
X116967309Y-65319357D01*
X116968799Y-65325307D01*
X116969699Y-65331374D01*
X116970000Y-65337500D01*
X116970000Y-65462500D01*
X116969699Y-65468626D01*
X116968799Y-65474693D01*
X116967309Y-65480643D01*
X116965242Y-65486418D01*
X116962620Y-65491962D01*
X116959467Y-65497223D01*
X116955813Y-65502150D01*
X116951694Y-65506694D01*
X116947150Y-65510813D01*
X116942223Y-65514467D01*
X116936962Y-65517620D01*
X116931418Y-65520242D01*
X116925643Y-65522309D01*
X116919693Y-65523799D01*
X116913626Y-65524699D01*
X116907500Y-65525000D01*
X115957500Y-65525000D01*
X115951374Y-65524699D01*
X115945307Y-65523799D01*
X115939357Y-65522309D01*
X115933582Y-65520242D01*
X115928038Y-65517620D01*
X115922777Y-65514467D01*
X115917850Y-65510813D01*
X115913306Y-65506694D01*
X115909187Y-65502150D01*
X115905533Y-65497223D01*
X115902380Y-65491962D01*
X115899758Y-65486418D01*
X115897691Y-65480643D01*
X115896201Y-65474693D01*
X115895301Y-65468626D01*
X115895000Y-65462500D01*
X115895000Y-65337500D01*
X115895301Y-65331374D01*
X115896201Y-65325307D01*
X115897691Y-65319357D01*
X115899758Y-65313582D01*
X115902380Y-65308038D01*
X115905533Y-65302777D01*
X115909187Y-65297850D01*
X115913306Y-65293306D01*
X115917850Y-65289187D01*
X115922777Y-65285533D01*
X115928038Y-65282380D01*
X115933582Y-65279758D01*
X115939357Y-65277691D01*
X115945307Y-65276201D01*
X115951374Y-65275301D01*
X115957500Y-65275000D01*
X116907500Y-65275000D01*
X116913626Y-65275301D01*
G37*
G36*
X116913626Y-64775301D02*
G01*
X116919693Y-64776201D01*
X116925643Y-64777691D01*
X116931418Y-64779758D01*
X116936962Y-64782380D01*
X116942223Y-64785533D01*
X116947150Y-64789187D01*
X116951694Y-64793306D01*
X116955813Y-64797850D01*
X116959467Y-64802777D01*
X116962620Y-64808038D01*
X116965242Y-64813582D01*
X116967309Y-64819357D01*
X116968799Y-64825307D01*
X116969699Y-64831374D01*
X116970000Y-64837500D01*
X116970000Y-64962500D01*
X116969699Y-64968626D01*
X116968799Y-64974693D01*
X116967309Y-64980643D01*
X116965242Y-64986418D01*
X116962620Y-64991962D01*
X116959467Y-64997223D01*
X116955813Y-65002150D01*
X116951694Y-65006694D01*
X116947150Y-65010813D01*
X116942223Y-65014467D01*
X116936962Y-65017620D01*
X116931418Y-65020242D01*
X116925643Y-65022309D01*
X116919693Y-65023799D01*
X116913626Y-65024699D01*
X116907500Y-65025000D01*
X115957500Y-65025000D01*
X115951374Y-65024699D01*
X115945307Y-65023799D01*
X115939357Y-65022309D01*
X115933582Y-65020242D01*
X115928038Y-65017620D01*
X115922777Y-65014467D01*
X115917850Y-65010813D01*
X115913306Y-65006694D01*
X115909187Y-65002150D01*
X115905533Y-64997223D01*
X115902380Y-64991962D01*
X115899758Y-64986418D01*
X115897691Y-64980643D01*
X115896201Y-64974693D01*
X115895301Y-64968626D01*
X115895000Y-64962500D01*
X115895000Y-64837500D01*
X115895301Y-64831374D01*
X115896201Y-64825307D01*
X115897691Y-64819357D01*
X115899758Y-64813582D01*
X115902380Y-64808038D01*
X115905533Y-64802777D01*
X115909187Y-64797850D01*
X115913306Y-64793306D01*
X115917850Y-64789187D01*
X115922777Y-64785533D01*
X115928038Y-64782380D01*
X115933582Y-64779758D01*
X115939357Y-64777691D01*
X115945307Y-64776201D01*
X115951374Y-64775301D01*
X115957500Y-64775000D01*
X116907500Y-64775000D01*
X116913626Y-64775301D01*
G37*
G36*
X116913626Y-64275301D02*
G01*
X116919693Y-64276201D01*
X116925643Y-64277691D01*
X116931418Y-64279758D01*
X116936962Y-64282380D01*
X116942223Y-64285533D01*
X116947150Y-64289187D01*
X116951694Y-64293306D01*
X116955813Y-64297850D01*
X116959467Y-64302777D01*
X116962620Y-64308038D01*
X116965242Y-64313582D01*
X116967309Y-64319357D01*
X116968799Y-64325307D01*
X116969699Y-64331374D01*
X116970000Y-64337500D01*
X116970000Y-64462500D01*
X116969699Y-64468626D01*
X116968799Y-64474693D01*
X116967309Y-64480643D01*
X116965242Y-64486418D01*
X116962620Y-64491962D01*
X116959467Y-64497223D01*
X116955813Y-64502150D01*
X116951694Y-64506694D01*
X116947150Y-64510813D01*
X116942223Y-64514467D01*
X116936962Y-64517620D01*
X116931418Y-64520242D01*
X116925643Y-64522309D01*
X116919693Y-64523799D01*
X116913626Y-64524699D01*
X116907500Y-64525000D01*
X115957500Y-64525000D01*
X115951374Y-64524699D01*
X115945307Y-64523799D01*
X115939357Y-64522309D01*
X115933582Y-64520242D01*
X115928038Y-64517620D01*
X115922777Y-64514467D01*
X115917850Y-64510813D01*
X115913306Y-64506694D01*
X115909187Y-64502150D01*
X115905533Y-64497223D01*
X115902380Y-64491962D01*
X115899758Y-64486418D01*
X115897691Y-64480643D01*
X115896201Y-64474693D01*
X115895301Y-64468626D01*
X115895000Y-64462500D01*
X115895000Y-64337500D01*
X115895301Y-64331374D01*
X115896201Y-64325307D01*
X115897691Y-64319357D01*
X115899758Y-64313582D01*
X115902380Y-64308038D01*
X115905533Y-64302777D01*
X115909187Y-64297850D01*
X115913306Y-64293306D01*
X115917850Y-64289187D01*
X115922777Y-64285533D01*
X115928038Y-64282380D01*
X115933582Y-64279758D01*
X115939357Y-64277691D01*
X115945307Y-64276201D01*
X115951374Y-64275301D01*
X115957500Y-64275000D01*
X116907500Y-64275000D01*
X116913626Y-64275301D01*
G37*
G36*
X116913626Y-63775301D02*
G01*
X116919693Y-63776201D01*
X116925643Y-63777691D01*
X116931418Y-63779758D01*
X116936962Y-63782380D01*
X116942223Y-63785533D01*
X116947150Y-63789187D01*
X116951694Y-63793306D01*
X116955813Y-63797850D01*
X116959467Y-63802777D01*
X116962620Y-63808038D01*
X116965242Y-63813582D01*
X116967309Y-63819357D01*
X116968799Y-63825307D01*
X116969699Y-63831374D01*
X116970000Y-63837500D01*
X116970000Y-63962500D01*
X116969699Y-63968626D01*
X116968799Y-63974693D01*
X116967309Y-63980643D01*
X116965242Y-63986418D01*
X116962620Y-63991962D01*
X116959467Y-63997223D01*
X116955813Y-64002150D01*
X116951694Y-64006694D01*
X116947150Y-64010813D01*
X116942223Y-64014467D01*
X116936962Y-64017620D01*
X116931418Y-64020242D01*
X116925643Y-64022309D01*
X116919693Y-64023799D01*
X116913626Y-64024699D01*
X116907500Y-64025000D01*
X115957500Y-64025000D01*
X115951374Y-64024699D01*
X115945307Y-64023799D01*
X115939357Y-64022309D01*
X115933582Y-64020242D01*
X115928038Y-64017620D01*
X115922777Y-64014467D01*
X115917850Y-64010813D01*
X115913306Y-64006694D01*
X115909187Y-64002150D01*
X115905533Y-63997223D01*
X115902380Y-63991962D01*
X115899758Y-63986418D01*
X115897691Y-63980643D01*
X115896201Y-63974693D01*
X115895301Y-63968626D01*
X115895000Y-63962500D01*
X115895000Y-63837500D01*
X115895301Y-63831374D01*
X115896201Y-63825307D01*
X115897691Y-63819357D01*
X115899758Y-63813582D01*
X115902380Y-63808038D01*
X115905533Y-63802777D01*
X115909187Y-63797850D01*
X115913306Y-63793306D01*
X115917850Y-63789187D01*
X115922777Y-63785533D01*
X115928038Y-63782380D01*
X115933582Y-63779758D01*
X115939357Y-63777691D01*
X115945307Y-63776201D01*
X115951374Y-63775301D01*
X115957500Y-63775000D01*
X116907500Y-63775000D01*
X116913626Y-63775301D01*
G37*
G36*
X116913626Y-63275301D02*
G01*
X116919693Y-63276201D01*
X116925643Y-63277691D01*
X116931418Y-63279758D01*
X116936962Y-63282380D01*
X116942223Y-63285533D01*
X116947150Y-63289187D01*
X116951694Y-63293306D01*
X116955813Y-63297850D01*
X116959467Y-63302777D01*
X116962620Y-63308038D01*
X116965242Y-63313582D01*
X116967309Y-63319357D01*
X116968799Y-63325307D01*
X116969699Y-63331374D01*
X116970000Y-63337500D01*
X116970000Y-63462500D01*
X116969699Y-63468626D01*
X116968799Y-63474693D01*
X116967309Y-63480643D01*
X116965242Y-63486418D01*
X116962620Y-63491962D01*
X116959467Y-63497223D01*
X116955813Y-63502150D01*
X116951694Y-63506694D01*
X116947150Y-63510813D01*
X116942223Y-63514467D01*
X116936962Y-63517620D01*
X116931418Y-63520242D01*
X116925643Y-63522309D01*
X116919693Y-63523799D01*
X116913626Y-63524699D01*
X116907500Y-63525000D01*
X115957500Y-63525000D01*
X115951374Y-63524699D01*
X115945307Y-63523799D01*
X115939357Y-63522309D01*
X115933582Y-63520242D01*
X115928038Y-63517620D01*
X115922777Y-63514467D01*
X115917850Y-63510813D01*
X115913306Y-63506694D01*
X115909187Y-63502150D01*
X115905533Y-63497223D01*
X115902380Y-63491962D01*
X115899758Y-63486418D01*
X115897691Y-63480643D01*
X115896201Y-63474693D01*
X115895301Y-63468626D01*
X115895000Y-63462500D01*
X115895000Y-63337500D01*
X115895301Y-63331374D01*
X115896201Y-63325307D01*
X115897691Y-63319357D01*
X115899758Y-63313582D01*
X115902380Y-63308038D01*
X115905533Y-63302777D01*
X115909187Y-63297850D01*
X115913306Y-63293306D01*
X115917850Y-63289187D01*
X115922777Y-63285533D01*
X115928038Y-63282380D01*
X115933582Y-63279758D01*
X115939357Y-63277691D01*
X115945307Y-63276201D01*
X115951374Y-63275301D01*
X115957500Y-63275000D01*
X116907500Y-63275000D01*
X116913626Y-63275301D01*
G37*
G36*
X116913626Y-62775301D02*
G01*
X116919693Y-62776201D01*
X116925643Y-62777691D01*
X116931418Y-62779758D01*
X116936962Y-62782380D01*
X116942223Y-62785533D01*
X116947150Y-62789187D01*
X116951694Y-62793306D01*
X116955813Y-62797850D01*
X116959467Y-62802777D01*
X116962620Y-62808038D01*
X116965242Y-62813582D01*
X116967309Y-62819357D01*
X116968799Y-62825307D01*
X116969699Y-62831374D01*
X116970000Y-62837500D01*
X116970000Y-62962500D01*
X116969699Y-62968626D01*
X116968799Y-62974693D01*
X116967309Y-62980643D01*
X116965242Y-62986418D01*
X116962620Y-62991962D01*
X116959467Y-62997223D01*
X116955813Y-63002150D01*
X116951694Y-63006694D01*
X116947150Y-63010813D01*
X116942223Y-63014467D01*
X116936962Y-63017620D01*
X116931418Y-63020242D01*
X116925643Y-63022309D01*
X116919693Y-63023799D01*
X116913626Y-63024699D01*
X116907500Y-63025000D01*
X115957500Y-63025000D01*
X115951374Y-63024699D01*
X115945307Y-63023799D01*
X115939357Y-63022309D01*
X115933582Y-63020242D01*
X115928038Y-63017620D01*
X115922777Y-63014467D01*
X115917850Y-63010813D01*
X115913306Y-63006694D01*
X115909187Y-63002150D01*
X115905533Y-62997223D01*
X115902380Y-62991962D01*
X115899758Y-62986418D01*
X115897691Y-62980643D01*
X115896201Y-62974693D01*
X115895301Y-62968626D01*
X115895000Y-62962500D01*
X115895000Y-62837500D01*
X115895301Y-62831374D01*
X115896201Y-62825307D01*
X115897691Y-62819357D01*
X115899758Y-62813582D01*
X115902380Y-62808038D01*
X115905533Y-62802777D01*
X115909187Y-62797850D01*
X115913306Y-62793306D01*
X115917850Y-62789187D01*
X115922777Y-62785533D01*
X115928038Y-62782380D01*
X115933582Y-62779758D01*
X115939357Y-62777691D01*
X115945307Y-62776201D01*
X115951374Y-62775301D01*
X115957500Y-62775000D01*
X116907500Y-62775000D01*
X116913626Y-62775301D01*
G37*
G36*
X116913626Y-62275301D02*
G01*
X116919693Y-62276201D01*
X116925643Y-62277691D01*
X116931418Y-62279758D01*
X116936962Y-62282380D01*
X116942223Y-62285533D01*
X116947150Y-62289187D01*
X116951694Y-62293306D01*
X116955813Y-62297850D01*
X116959467Y-62302777D01*
X116962620Y-62308038D01*
X116965242Y-62313582D01*
X116967309Y-62319357D01*
X116968799Y-62325307D01*
X116969699Y-62331374D01*
X116970000Y-62337500D01*
X116970000Y-62462500D01*
X116969699Y-62468626D01*
X116968799Y-62474693D01*
X116967309Y-62480643D01*
X116965242Y-62486418D01*
X116962620Y-62491962D01*
X116959467Y-62497223D01*
X116955813Y-62502150D01*
X116951694Y-62506694D01*
X116947150Y-62510813D01*
X116942223Y-62514467D01*
X116936962Y-62517620D01*
X116931418Y-62520242D01*
X116925643Y-62522309D01*
X116919693Y-62523799D01*
X116913626Y-62524699D01*
X116907500Y-62525000D01*
X115957500Y-62525000D01*
X115951374Y-62524699D01*
X115945307Y-62523799D01*
X115939357Y-62522309D01*
X115933582Y-62520242D01*
X115928038Y-62517620D01*
X115922777Y-62514467D01*
X115917850Y-62510813D01*
X115913306Y-62506694D01*
X115909187Y-62502150D01*
X115905533Y-62497223D01*
X115902380Y-62491962D01*
X115899758Y-62486418D01*
X115897691Y-62480643D01*
X115896201Y-62474693D01*
X115895301Y-62468626D01*
X115895000Y-62462500D01*
X115895000Y-62337500D01*
X115895301Y-62331374D01*
X115896201Y-62325307D01*
X115897691Y-62319357D01*
X115899758Y-62313582D01*
X115902380Y-62308038D01*
X115905533Y-62302777D01*
X115909187Y-62297850D01*
X115913306Y-62293306D01*
X115917850Y-62289187D01*
X115922777Y-62285533D01*
X115928038Y-62282380D01*
X115933582Y-62279758D01*
X115939357Y-62277691D01*
X115945307Y-62276201D01*
X115951374Y-62275301D01*
X115957500Y-62275000D01*
X116907500Y-62275000D01*
X116913626Y-62275301D01*
G37*
G36*
X116913626Y-61775301D02*
G01*
X116919693Y-61776201D01*
X116925643Y-61777691D01*
X116931418Y-61779758D01*
X116936962Y-61782380D01*
X116942223Y-61785533D01*
X116947150Y-61789187D01*
X116951694Y-61793306D01*
X116955813Y-61797850D01*
X116959467Y-61802777D01*
X116962620Y-61808038D01*
X116965242Y-61813582D01*
X116967309Y-61819357D01*
X116968799Y-61825307D01*
X116969699Y-61831374D01*
X116970000Y-61837500D01*
X116970000Y-61962500D01*
X116969699Y-61968626D01*
X116968799Y-61974693D01*
X116967309Y-61980643D01*
X116965242Y-61986418D01*
X116962620Y-61991962D01*
X116959467Y-61997223D01*
X116955813Y-62002150D01*
X116951694Y-62006694D01*
X116947150Y-62010813D01*
X116942223Y-62014467D01*
X116936962Y-62017620D01*
X116931418Y-62020242D01*
X116925643Y-62022309D01*
X116919693Y-62023799D01*
X116913626Y-62024699D01*
X116907500Y-62025000D01*
X115957500Y-62025000D01*
X115951374Y-62024699D01*
X115945307Y-62023799D01*
X115939357Y-62022309D01*
X115933582Y-62020242D01*
X115928038Y-62017620D01*
X115922777Y-62014467D01*
X115917850Y-62010813D01*
X115913306Y-62006694D01*
X115909187Y-62002150D01*
X115905533Y-61997223D01*
X115902380Y-61991962D01*
X115899758Y-61986418D01*
X115897691Y-61980643D01*
X115896201Y-61974693D01*
X115895301Y-61968626D01*
X115895000Y-61962500D01*
X115895000Y-61837500D01*
X115895301Y-61831374D01*
X115896201Y-61825307D01*
X115897691Y-61819357D01*
X115899758Y-61813582D01*
X115902380Y-61808038D01*
X115905533Y-61802777D01*
X115909187Y-61797850D01*
X115913306Y-61793306D01*
X115917850Y-61789187D01*
X115922777Y-61785533D01*
X115928038Y-61782380D01*
X115933582Y-61779758D01*
X115939357Y-61777691D01*
X115945307Y-61776201D01*
X115951374Y-61775301D01*
X115957500Y-61775000D01*
X116907500Y-61775000D01*
X116913626Y-61775301D01*
G37*
G36*
X116913626Y-61275301D02*
G01*
X116919693Y-61276201D01*
X116925643Y-61277691D01*
X116931418Y-61279758D01*
X116936962Y-61282380D01*
X116942223Y-61285533D01*
X116947150Y-61289187D01*
X116951694Y-61293306D01*
X116955813Y-61297850D01*
X116959467Y-61302777D01*
X116962620Y-61308038D01*
X116965242Y-61313582D01*
X116967309Y-61319357D01*
X116968799Y-61325307D01*
X116969699Y-61331374D01*
X116970000Y-61337500D01*
X116970000Y-61462500D01*
X116969699Y-61468626D01*
X116968799Y-61474693D01*
X116967309Y-61480643D01*
X116965242Y-61486418D01*
X116962620Y-61491962D01*
X116959467Y-61497223D01*
X116955813Y-61502150D01*
X116951694Y-61506694D01*
X116947150Y-61510813D01*
X116942223Y-61514467D01*
X116936962Y-61517620D01*
X116931418Y-61520242D01*
X116925643Y-61522309D01*
X116919693Y-61523799D01*
X116913626Y-61524699D01*
X116907500Y-61525000D01*
X115957500Y-61525000D01*
X115951374Y-61524699D01*
X115945307Y-61523799D01*
X115939357Y-61522309D01*
X115933582Y-61520242D01*
X115928038Y-61517620D01*
X115922777Y-61514467D01*
X115917850Y-61510813D01*
X115913306Y-61506694D01*
X115909187Y-61502150D01*
X115905533Y-61497223D01*
X115902380Y-61491962D01*
X115899758Y-61486418D01*
X115897691Y-61480643D01*
X115896201Y-61474693D01*
X115895301Y-61468626D01*
X115895000Y-61462500D01*
X115895000Y-61337500D01*
X115895301Y-61331374D01*
X115896201Y-61325307D01*
X115897691Y-61319357D01*
X115899758Y-61313582D01*
X115902380Y-61308038D01*
X115905533Y-61302777D01*
X115909187Y-61297850D01*
X115913306Y-61293306D01*
X115917850Y-61289187D01*
X115922777Y-61285533D01*
X115928038Y-61282380D01*
X115933582Y-61279758D01*
X115939357Y-61277691D01*
X115945307Y-61276201D01*
X115951374Y-61275301D01*
X115957500Y-61275000D01*
X116907500Y-61275000D01*
X116913626Y-61275301D01*
G37*
G36*
X116913626Y-60775301D02*
G01*
X116919693Y-60776201D01*
X116925643Y-60777691D01*
X116931418Y-60779758D01*
X116936962Y-60782380D01*
X116942223Y-60785533D01*
X116947150Y-60789187D01*
X116951694Y-60793306D01*
X116955813Y-60797850D01*
X116959467Y-60802777D01*
X116962620Y-60808038D01*
X116965242Y-60813582D01*
X116967309Y-60819357D01*
X116968799Y-60825307D01*
X116969699Y-60831374D01*
X116970000Y-60837500D01*
X116970000Y-60962500D01*
X116969699Y-60968626D01*
X116968799Y-60974693D01*
X116967309Y-60980643D01*
X116965242Y-60986418D01*
X116962620Y-60991962D01*
X116959467Y-60997223D01*
X116955813Y-61002150D01*
X116951694Y-61006694D01*
X116947150Y-61010813D01*
X116942223Y-61014467D01*
X116936962Y-61017620D01*
X116931418Y-61020242D01*
X116925643Y-61022309D01*
X116919693Y-61023799D01*
X116913626Y-61024699D01*
X116907500Y-61025000D01*
X115957500Y-61025000D01*
X115951374Y-61024699D01*
X115945307Y-61023799D01*
X115939357Y-61022309D01*
X115933582Y-61020242D01*
X115928038Y-61017620D01*
X115922777Y-61014467D01*
X115917850Y-61010813D01*
X115913306Y-61006694D01*
X115909187Y-61002150D01*
X115905533Y-60997223D01*
X115902380Y-60991962D01*
X115899758Y-60986418D01*
X115897691Y-60980643D01*
X115896201Y-60974693D01*
X115895301Y-60968626D01*
X115895000Y-60962500D01*
X115895000Y-60837500D01*
X115895301Y-60831374D01*
X115896201Y-60825307D01*
X115897691Y-60819357D01*
X115899758Y-60813582D01*
X115902380Y-60808038D01*
X115905533Y-60802777D01*
X115909187Y-60797850D01*
X115913306Y-60793306D01*
X115917850Y-60789187D01*
X115922777Y-60785533D01*
X115928038Y-60782380D01*
X115933582Y-60779758D01*
X115939357Y-60777691D01*
X115945307Y-60776201D01*
X115951374Y-60775301D01*
X115957500Y-60775000D01*
X116907500Y-60775000D01*
X116913626Y-60775301D01*
G37*
G36*
X117338626Y-59525301D02*
G01*
X117344693Y-59526201D01*
X117350643Y-59527691D01*
X117356418Y-59529758D01*
X117361962Y-59532380D01*
X117367223Y-59535533D01*
X117372150Y-59539187D01*
X117376694Y-59543306D01*
X117380813Y-59547850D01*
X117384467Y-59552777D01*
X117387620Y-59558038D01*
X117390242Y-59563582D01*
X117392309Y-59569357D01*
X117393799Y-59575307D01*
X117394699Y-59581374D01*
X117395000Y-59587500D01*
X117395000Y-60537500D01*
X117394699Y-60543626D01*
X117393799Y-60549693D01*
X117392309Y-60555643D01*
X117390242Y-60561418D01*
X117387620Y-60566962D01*
X117384467Y-60572223D01*
X117380813Y-60577150D01*
X117376694Y-60581694D01*
X117372150Y-60585813D01*
X117367223Y-60589467D01*
X117361962Y-60592620D01*
X117356418Y-60595242D01*
X117350643Y-60597309D01*
X117344693Y-60598799D01*
X117338626Y-60599699D01*
X117332500Y-60600000D01*
X117207500Y-60600000D01*
X117201374Y-60599699D01*
X117195307Y-60598799D01*
X117189357Y-60597309D01*
X117183582Y-60595242D01*
X117178038Y-60592620D01*
X117172777Y-60589467D01*
X117167850Y-60585813D01*
X117163306Y-60581694D01*
X117159187Y-60577150D01*
X117155533Y-60572223D01*
X117152380Y-60566962D01*
X117149758Y-60561418D01*
X117147691Y-60555643D01*
X117146201Y-60549693D01*
X117145301Y-60543626D01*
X117145000Y-60537500D01*
X117145000Y-59587500D01*
X117145301Y-59581374D01*
X117146201Y-59575307D01*
X117147691Y-59569357D01*
X117149758Y-59563582D01*
X117152380Y-59558038D01*
X117155533Y-59552777D01*
X117159187Y-59547850D01*
X117163306Y-59543306D01*
X117167850Y-59539187D01*
X117172777Y-59535533D01*
X117178038Y-59532380D01*
X117183582Y-59529758D01*
X117189357Y-59527691D01*
X117195307Y-59526201D01*
X117201374Y-59525301D01*
X117207500Y-59525000D01*
X117332500Y-59525000D01*
X117338626Y-59525301D01*
G37*
G36*
X117838626Y-59525301D02*
G01*
X117844693Y-59526201D01*
X117850643Y-59527691D01*
X117856418Y-59529758D01*
X117861962Y-59532380D01*
X117867223Y-59535533D01*
X117872150Y-59539187D01*
X117876694Y-59543306D01*
X117880813Y-59547850D01*
X117884467Y-59552777D01*
X117887620Y-59558038D01*
X117890242Y-59563582D01*
X117892309Y-59569357D01*
X117893799Y-59575307D01*
X117894699Y-59581374D01*
X117895000Y-59587500D01*
X117895000Y-60537500D01*
X117894699Y-60543626D01*
X117893799Y-60549693D01*
X117892309Y-60555643D01*
X117890242Y-60561418D01*
X117887620Y-60566962D01*
X117884467Y-60572223D01*
X117880813Y-60577150D01*
X117876694Y-60581694D01*
X117872150Y-60585813D01*
X117867223Y-60589467D01*
X117861962Y-60592620D01*
X117856418Y-60595242D01*
X117850643Y-60597309D01*
X117844693Y-60598799D01*
X117838626Y-60599699D01*
X117832500Y-60600000D01*
X117707500Y-60600000D01*
X117701374Y-60599699D01*
X117695307Y-60598799D01*
X117689357Y-60597309D01*
X117683582Y-60595242D01*
X117678038Y-60592620D01*
X117672777Y-60589467D01*
X117667850Y-60585813D01*
X117663306Y-60581694D01*
X117659187Y-60577150D01*
X117655533Y-60572223D01*
X117652380Y-60566962D01*
X117649758Y-60561418D01*
X117647691Y-60555643D01*
X117646201Y-60549693D01*
X117645301Y-60543626D01*
X117645000Y-60537500D01*
X117645000Y-59587500D01*
X117645301Y-59581374D01*
X117646201Y-59575307D01*
X117647691Y-59569357D01*
X117649758Y-59563582D01*
X117652380Y-59558038D01*
X117655533Y-59552777D01*
X117659187Y-59547850D01*
X117663306Y-59543306D01*
X117667850Y-59539187D01*
X117672777Y-59535533D01*
X117678038Y-59532380D01*
X117683582Y-59529758D01*
X117689357Y-59527691D01*
X117695307Y-59526201D01*
X117701374Y-59525301D01*
X117707500Y-59525000D01*
X117832500Y-59525000D01*
X117838626Y-59525301D01*
G37*
G36*
X118338626Y-59525301D02*
G01*
X118344693Y-59526201D01*
X118350643Y-59527691D01*
X118356418Y-59529758D01*
X118361962Y-59532380D01*
X118367223Y-59535533D01*
X118372150Y-59539187D01*
X118376694Y-59543306D01*
X118380813Y-59547850D01*
X118384467Y-59552777D01*
X118387620Y-59558038D01*
X118390242Y-59563582D01*
X118392309Y-59569357D01*
X118393799Y-59575307D01*
X118394699Y-59581374D01*
X118395000Y-59587500D01*
X118395000Y-60537500D01*
X118394699Y-60543626D01*
X118393799Y-60549693D01*
X118392309Y-60555643D01*
X118390242Y-60561418D01*
X118387620Y-60566962D01*
X118384467Y-60572223D01*
X118380813Y-60577150D01*
X118376694Y-60581694D01*
X118372150Y-60585813D01*
X118367223Y-60589467D01*
X118361962Y-60592620D01*
X118356418Y-60595242D01*
X118350643Y-60597309D01*
X118344693Y-60598799D01*
X118338626Y-60599699D01*
X118332500Y-60600000D01*
X118207500Y-60600000D01*
X118201374Y-60599699D01*
X118195307Y-60598799D01*
X118189357Y-60597309D01*
X118183582Y-60595242D01*
X118178038Y-60592620D01*
X118172777Y-60589467D01*
X118167850Y-60585813D01*
X118163306Y-60581694D01*
X118159187Y-60577150D01*
X118155533Y-60572223D01*
X118152380Y-60566962D01*
X118149758Y-60561418D01*
X118147691Y-60555643D01*
X118146201Y-60549693D01*
X118145301Y-60543626D01*
X118145000Y-60537500D01*
X118145000Y-59587500D01*
X118145301Y-59581374D01*
X118146201Y-59575307D01*
X118147691Y-59569357D01*
X118149758Y-59563582D01*
X118152380Y-59558038D01*
X118155533Y-59552777D01*
X118159187Y-59547850D01*
X118163306Y-59543306D01*
X118167850Y-59539187D01*
X118172777Y-59535533D01*
X118178038Y-59532380D01*
X118183582Y-59529758D01*
X118189357Y-59527691D01*
X118195307Y-59526201D01*
X118201374Y-59525301D01*
X118207500Y-59525000D01*
X118332500Y-59525000D01*
X118338626Y-59525301D01*
G37*
G36*
X118838626Y-59525301D02*
G01*
X118844693Y-59526201D01*
X118850643Y-59527691D01*
X118856418Y-59529758D01*
X118861962Y-59532380D01*
X118867223Y-59535533D01*
X118872150Y-59539187D01*
X118876694Y-59543306D01*
X118880813Y-59547850D01*
X118884467Y-59552777D01*
X118887620Y-59558038D01*
X118890242Y-59563582D01*
X118892309Y-59569357D01*
X118893799Y-59575307D01*
X118894699Y-59581374D01*
X118895000Y-59587500D01*
X118895000Y-60537500D01*
X118894699Y-60543626D01*
X118893799Y-60549693D01*
X118892309Y-60555643D01*
X118890242Y-60561418D01*
X118887620Y-60566962D01*
X118884467Y-60572223D01*
X118880813Y-60577150D01*
X118876694Y-60581694D01*
X118872150Y-60585813D01*
X118867223Y-60589467D01*
X118861962Y-60592620D01*
X118856418Y-60595242D01*
X118850643Y-60597309D01*
X118844693Y-60598799D01*
X118838626Y-60599699D01*
X118832500Y-60600000D01*
X118707500Y-60600000D01*
X118701374Y-60599699D01*
X118695307Y-60598799D01*
X118689357Y-60597309D01*
X118683582Y-60595242D01*
X118678038Y-60592620D01*
X118672777Y-60589467D01*
X118667850Y-60585813D01*
X118663306Y-60581694D01*
X118659187Y-60577150D01*
X118655533Y-60572223D01*
X118652380Y-60566962D01*
X118649758Y-60561418D01*
X118647691Y-60555643D01*
X118646201Y-60549693D01*
X118645301Y-60543626D01*
X118645000Y-60537500D01*
X118645000Y-59587500D01*
X118645301Y-59581374D01*
X118646201Y-59575307D01*
X118647691Y-59569357D01*
X118649758Y-59563582D01*
X118652380Y-59558038D01*
X118655533Y-59552777D01*
X118659187Y-59547850D01*
X118663306Y-59543306D01*
X118667850Y-59539187D01*
X118672777Y-59535533D01*
X118678038Y-59532380D01*
X118683582Y-59529758D01*
X118689357Y-59527691D01*
X118695307Y-59526201D01*
X118701374Y-59525301D01*
X118707500Y-59525000D01*
X118832500Y-59525000D01*
X118838626Y-59525301D01*
G37*
G36*
X119338626Y-59525301D02*
G01*
X119344693Y-59526201D01*
X119350643Y-59527691D01*
X119356418Y-59529758D01*
X119361962Y-59532380D01*
X119367223Y-59535533D01*
X119372150Y-59539187D01*
X119376694Y-59543306D01*
X119380813Y-59547850D01*
X119384467Y-59552777D01*
X119387620Y-59558038D01*
X119390242Y-59563582D01*
X119392309Y-59569357D01*
X119393799Y-59575307D01*
X119394699Y-59581374D01*
X119395000Y-59587500D01*
X119395000Y-60537500D01*
X119394699Y-60543626D01*
X119393799Y-60549693D01*
X119392309Y-60555643D01*
X119390242Y-60561418D01*
X119387620Y-60566962D01*
X119384467Y-60572223D01*
X119380813Y-60577150D01*
X119376694Y-60581694D01*
X119372150Y-60585813D01*
X119367223Y-60589467D01*
X119361962Y-60592620D01*
X119356418Y-60595242D01*
X119350643Y-60597309D01*
X119344693Y-60598799D01*
X119338626Y-60599699D01*
X119332500Y-60600000D01*
X119207500Y-60600000D01*
X119201374Y-60599699D01*
X119195307Y-60598799D01*
X119189357Y-60597309D01*
X119183582Y-60595242D01*
X119178038Y-60592620D01*
X119172777Y-60589467D01*
X119167850Y-60585813D01*
X119163306Y-60581694D01*
X119159187Y-60577150D01*
X119155533Y-60572223D01*
X119152380Y-60566962D01*
X119149758Y-60561418D01*
X119147691Y-60555643D01*
X119146201Y-60549693D01*
X119145301Y-60543626D01*
X119145000Y-60537500D01*
X119145000Y-59587500D01*
X119145301Y-59581374D01*
X119146201Y-59575307D01*
X119147691Y-59569357D01*
X119149758Y-59563582D01*
X119152380Y-59558038D01*
X119155533Y-59552777D01*
X119159187Y-59547850D01*
X119163306Y-59543306D01*
X119167850Y-59539187D01*
X119172777Y-59535533D01*
X119178038Y-59532380D01*
X119183582Y-59529758D01*
X119189357Y-59527691D01*
X119195307Y-59526201D01*
X119201374Y-59525301D01*
X119207500Y-59525000D01*
X119332500Y-59525000D01*
X119338626Y-59525301D01*
G37*
G36*
X119838626Y-59525301D02*
G01*
X119844693Y-59526201D01*
X119850643Y-59527691D01*
X119856418Y-59529758D01*
X119861962Y-59532380D01*
X119867223Y-59535533D01*
X119872150Y-59539187D01*
X119876694Y-59543306D01*
X119880813Y-59547850D01*
X119884467Y-59552777D01*
X119887620Y-59558038D01*
X119890242Y-59563582D01*
X119892309Y-59569357D01*
X119893799Y-59575307D01*
X119894699Y-59581374D01*
X119895000Y-59587500D01*
X119895000Y-60537500D01*
X119894699Y-60543626D01*
X119893799Y-60549693D01*
X119892309Y-60555643D01*
X119890242Y-60561418D01*
X119887620Y-60566962D01*
X119884467Y-60572223D01*
X119880813Y-60577150D01*
X119876694Y-60581694D01*
X119872150Y-60585813D01*
X119867223Y-60589467D01*
X119861962Y-60592620D01*
X119856418Y-60595242D01*
X119850643Y-60597309D01*
X119844693Y-60598799D01*
X119838626Y-60599699D01*
X119832500Y-60600000D01*
X119707500Y-60600000D01*
X119701374Y-60599699D01*
X119695307Y-60598799D01*
X119689357Y-60597309D01*
X119683582Y-60595242D01*
X119678038Y-60592620D01*
X119672777Y-60589467D01*
X119667850Y-60585813D01*
X119663306Y-60581694D01*
X119659187Y-60577150D01*
X119655533Y-60572223D01*
X119652380Y-60566962D01*
X119649758Y-60561418D01*
X119647691Y-60555643D01*
X119646201Y-60549693D01*
X119645301Y-60543626D01*
X119645000Y-60537500D01*
X119645000Y-59587500D01*
X119645301Y-59581374D01*
X119646201Y-59575307D01*
X119647691Y-59569357D01*
X119649758Y-59563582D01*
X119652380Y-59558038D01*
X119655533Y-59552777D01*
X119659187Y-59547850D01*
X119663306Y-59543306D01*
X119667850Y-59539187D01*
X119672777Y-59535533D01*
X119678038Y-59532380D01*
X119683582Y-59529758D01*
X119689357Y-59527691D01*
X119695307Y-59526201D01*
X119701374Y-59525301D01*
X119707500Y-59525000D01*
X119832500Y-59525000D01*
X119838626Y-59525301D01*
G37*
G36*
X120338626Y-59525301D02*
G01*
X120344693Y-59526201D01*
X120350643Y-59527691D01*
X120356418Y-59529758D01*
X120361962Y-59532380D01*
X120367223Y-59535533D01*
X120372150Y-59539187D01*
X120376694Y-59543306D01*
X120380813Y-59547850D01*
X120384467Y-59552777D01*
X120387620Y-59558038D01*
X120390242Y-59563582D01*
X120392309Y-59569357D01*
X120393799Y-59575307D01*
X120394699Y-59581374D01*
X120395000Y-59587500D01*
X120395000Y-60537500D01*
X120394699Y-60543626D01*
X120393799Y-60549693D01*
X120392309Y-60555643D01*
X120390242Y-60561418D01*
X120387620Y-60566962D01*
X120384467Y-60572223D01*
X120380813Y-60577150D01*
X120376694Y-60581694D01*
X120372150Y-60585813D01*
X120367223Y-60589467D01*
X120361962Y-60592620D01*
X120356418Y-60595242D01*
X120350643Y-60597309D01*
X120344693Y-60598799D01*
X120338626Y-60599699D01*
X120332500Y-60600000D01*
X120207500Y-60600000D01*
X120201374Y-60599699D01*
X120195307Y-60598799D01*
X120189357Y-60597309D01*
X120183582Y-60595242D01*
X120178038Y-60592620D01*
X120172777Y-60589467D01*
X120167850Y-60585813D01*
X120163306Y-60581694D01*
X120159187Y-60577150D01*
X120155533Y-60572223D01*
X120152380Y-60566962D01*
X120149758Y-60561418D01*
X120147691Y-60555643D01*
X120146201Y-60549693D01*
X120145301Y-60543626D01*
X120145000Y-60537500D01*
X120145000Y-59587500D01*
X120145301Y-59581374D01*
X120146201Y-59575307D01*
X120147691Y-59569357D01*
X120149758Y-59563582D01*
X120152380Y-59558038D01*
X120155533Y-59552777D01*
X120159187Y-59547850D01*
X120163306Y-59543306D01*
X120167850Y-59539187D01*
X120172777Y-59535533D01*
X120178038Y-59532380D01*
X120183582Y-59529758D01*
X120189357Y-59527691D01*
X120195307Y-59526201D01*
X120201374Y-59525301D01*
X120207500Y-59525000D01*
X120332500Y-59525000D01*
X120338626Y-59525301D01*
G37*
G36*
X120838626Y-59525301D02*
G01*
X120844693Y-59526201D01*
X120850643Y-59527691D01*
X120856418Y-59529758D01*
X120861962Y-59532380D01*
X120867223Y-59535533D01*
X120872150Y-59539187D01*
X120876694Y-59543306D01*
X120880813Y-59547850D01*
X120884467Y-59552777D01*
X120887620Y-59558038D01*
X120890242Y-59563582D01*
X120892309Y-59569357D01*
X120893799Y-59575307D01*
X120894699Y-59581374D01*
X120895000Y-59587500D01*
X120895000Y-60537500D01*
X120894699Y-60543626D01*
X120893799Y-60549693D01*
X120892309Y-60555643D01*
X120890242Y-60561418D01*
X120887620Y-60566962D01*
X120884467Y-60572223D01*
X120880813Y-60577150D01*
X120876694Y-60581694D01*
X120872150Y-60585813D01*
X120867223Y-60589467D01*
X120861962Y-60592620D01*
X120856418Y-60595242D01*
X120850643Y-60597309D01*
X120844693Y-60598799D01*
X120838626Y-60599699D01*
X120832500Y-60600000D01*
X120707500Y-60600000D01*
X120701374Y-60599699D01*
X120695307Y-60598799D01*
X120689357Y-60597309D01*
X120683582Y-60595242D01*
X120678038Y-60592620D01*
X120672777Y-60589467D01*
X120667850Y-60585813D01*
X120663306Y-60581694D01*
X120659187Y-60577150D01*
X120655533Y-60572223D01*
X120652380Y-60566962D01*
X120649758Y-60561418D01*
X120647691Y-60555643D01*
X120646201Y-60549693D01*
X120645301Y-60543626D01*
X120645000Y-60537500D01*
X120645000Y-59587500D01*
X120645301Y-59581374D01*
X120646201Y-59575307D01*
X120647691Y-59569357D01*
X120649758Y-59563582D01*
X120652380Y-59558038D01*
X120655533Y-59552777D01*
X120659187Y-59547850D01*
X120663306Y-59543306D01*
X120667850Y-59539187D01*
X120672777Y-59535533D01*
X120678038Y-59532380D01*
X120683582Y-59529758D01*
X120689357Y-59527691D01*
X120695307Y-59526201D01*
X120701374Y-59525301D01*
X120707500Y-59525000D01*
X120832500Y-59525000D01*
X120838626Y-59525301D01*
G37*
G36*
X121338626Y-59525301D02*
G01*
X121344693Y-59526201D01*
X121350643Y-59527691D01*
X121356418Y-59529758D01*
X121361962Y-59532380D01*
X121367223Y-59535533D01*
X121372150Y-59539187D01*
X121376694Y-59543306D01*
X121380813Y-59547850D01*
X121384467Y-59552777D01*
X121387620Y-59558038D01*
X121390242Y-59563582D01*
X121392309Y-59569357D01*
X121393799Y-59575307D01*
X121394699Y-59581374D01*
X121395000Y-59587500D01*
X121395000Y-60537500D01*
X121394699Y-60543626D01*
X121393799Y-60549693D01*
X121392309Y-60555643D01*
X121390242Y-60561418D01*
X121387620Y-60566962D01*
X121384467Y-60572223D01*
X121380813Y-60577150D01*
X121376694Y-60581694D01*
X121372150Y-60585813D01*
X121367223Y-60589467D01*
X121361962Y-60592620D01*
X121356418Y-60595242D01*
X121350643Y-60597309D01*
X121344693Y-60598799D01*
X121338626Y-60599699D01*
X121332500Y-60600000D01*
X121207500Y-60600000D01*
X121201374Y-60599699D01*
X121195307Y-60598799D01*
X121189357Y-60597309D01*
X121183582Y-60595242D01*
X121178038Y-60592620D01*
X121172777Y-60589467D01*
X121167850Y-60585813D01*
X121163306Y-60581694D01*
X121159187Y-60577150D01*
X121155533Y-60572223D01*
X121152380Y-60566962D01*
X121149758Y-60561418D01*
X121147691Y-60555643D01*
X121146201Y-60549693D01*
X121145301Y-60543626D01*
X121145000Y-60537500D01*
X121145000Y-59587500D01*
X121145301Y-59581374D01*
X121146201Y-59575307D01*
X121147691Y-59569357D01*
X121149758Y-59563582D01*
X121152380Y-59558038D01*
X121155533Y-59552777D01*
X121159187Y-59547850D01*
X121163306Y-59543306D01*
X121167850Y-59539187D01*
X121172777Y-59535533D01*
X121178038Y-59532380D01*
X121183582Y-59529758D01*
X121189357Y-59527691D01*
X121195307Y-59526201D01*
X121201374Y-59525301D01*
X121207500Y-59525000D01*
X121332500Y-59525000D01*
X121338626Y-59525301D01*
G37*
G36*
X121838626Y-59525301D02*
G01*
X121844693Y-59526201D01*
X121850643Y-59527691D01*
X121856418Y-59529758D01*
X121861962Y-59532380D01*
X121867223Y-59535533D01*
X121872150Y-59539187D01*
X121876694Y-59543306D01*
X121880813Y-59547850D01*
X121884467Y-59552777D01*
X121887620Y-59558038D01*
X121890242Y-59563582D01*
X121892309Y-59569357D01*
X121893799Y-59575307D01*
X121894699Y-59581374D01*
X121895000Y-59587500D01*
X121895000Y-60537500D01*
X121894699Y-60543626D01*
X121893799Y-60549693D01*
X121892309Y-60555643D01*
X121890242Y-60561418D01*
X121887620Y-60566962D01*
X121884467Y-60572223D01*
X121880813Y-60577150D01*
X121876694Y-60581694D01*
X121872150Y-60585813D01*
X121867223Y-60589467D01*
X121861962Y-60592620D01*
X121856418Y-60595242D01*
X121850643Y-60597309D01*
X121844693Y-60598799D01*
X121838626Y-60599699D01*
X121832500Y-60600000D01*
X121707500Y-60600000D01*
X121701374Y-60599699D01*
X121695307Y-60598799D01*
X121689357Y-60597309D01*
X121683582Y-60595242D01*
X121678038Y-60592620D01*
X121672777Y-60589467D01*
X121667850Y-60585813D01*
X121663306Y-60581694D01*
X121659187Y-60577150D01*
X121655533Y-60572223D01*
X121652380Y-60566962D01*
X121649758Y-60561418D01*
X121647691Y-60555643D01*
X121646201Y-60549693D01*
X121645301Y-60543626D01*
X121645000Y-60537500D01*
X121645000Y-59587500D01*
X121645301Y-59581374D01*
X121646201Y-59575307D01*
X121647691Y-59569357D01*
X121649758Y-59563582D01*
X121652380Y-59558038D01*
X121655533Y-59552777D01*
X121659187Y-59547850D01*
X121663306Y-59543306D01*
X121667850Y-59539187D01*
X121672777Y-59535533D01*
X121678038Y-59532380D01*
X121683582Y-59529758D01*
X121689357Y-59527691D01*
X121695307Y-59526201D01*
X121701374Y-59525301D01*
X121707500Y-59525000D01*
X121832500Y-59525000D01*
X121838626Y-59525301D01*
G37*
G36*
X122338626Y-59525301D02*
G01*
X122344693Y-59526201D01*
X122350643Y-59527691D01*
X122356418Y-59529758D01*
X122361962Y-59532380D01*
X122367223Y-59535533D01*
X122372150Y-59539187D01*
X122376694Y-59543306D01*
X122380813Y-59547850D01*
X122384467Y-59552777D01*
X122387620Y-59558038D01*
X122390242Y-59563582D01*
X122392309Y-59569357D01*
X122393799Y-59575307D01*
X122394699Y-59581374D01*
X122395000Y-59587500D01*
X122395000Y-60537500D01*
X122394699Y-60543626D01*
X122393799Y-60549693D01*
X122392309Y-60555643D01*
X122390242Y-60561418D01*
X122387620Y-60566962D01*
X122384467Y-60572223D01*
X122380813Y-60577150D01*
X122376694Y-60581694D01*
X122372150Y-60585813D01*
X122367223Y-60589467D01*
X122361962Y-60592620D01*
X122356418Y-60595242D01*
X122350643Y-60597309D01*
X122344693Y-60598799D01*
X122338626Y-60599699D01*
X122332500Y-60600000D01*
X122207500Y-60600000D01*
X122201374Y-60599699D01*
X122195307Y-60598799D01*
X122189357Y-60597309D01*
X122183582Y-60595242D01*
X122178038Y-60592620D01*
X122172777Y-60589467D01*
X122167850Y-60585813D01*
X122163306Y-60581694D01*
X122159187Y-60577150D01*
X122155533Y-60572223D01*
X122152380Y-60566962D01*
X122149758Y-60561418D01*
X122147691Y-60555643D01*
X122146201Y-60549693D01*
X122145301Y-60543626D01*
X122145000Y-60537500D01*
X122145000Y-59587500D01*
X122145301Y-59581374D01*
X122146201Y-59575307D01*
X122147691Y-59569357D01*
X122149758Y-59563582D01*
X122152380Y-59558038D01*
X122155533Y-59552777D01*
X122159187Y-59547850D01*
X122163306Y-59543306D01*
X122167850Y-59539187D01*
X122172777Y-59535533D01*
X122178038Y-59532380D01*
X122183582Y-59529758D01*
X122189357Y-59527691D01*
X122195307Y-59526201D01*
X122201374Y-59525301D01*
X122207500Y-59525000D01*
X122332500Y-59525000D01*
X122338626Y-59525301D01*
G37*
G36*
X123588626Y-60775301D02*
G01*
X123594693Y-60776201D01*
X123600643Y-60777691D01*
X123606418Y-60779758D01*
X123611962Y-60782380D01*
X123617223Y-60785533D01*
X123622150Y-60789187D01*
X123626694Y-60793306D01*
X123630813Y-60797850D01*
X123634467Y-60802777D01*
X123637620Y-60808038D01*
X123640242Y-60813582D01*
X123642309Y-60819357D01*
X123643799Y-60825307D01*
X123644699Y-60831374D01*
X123645000Y-60837500D01*
X123645000Y-60962500D01*
X123644699Y-60968626D01*
X123643799Y-60974693D01*
X123642309Y-60980643D01*
X123640242Y-60986418D01*
X123637620Y-60991962D01*
X123634467Y-60997223D01*
X123630813Y-61002150D01*
X123626694Y-61006694D01*
X123622150Y-61010813D01*
X123617223Y-61014467D01*
X123611962Y-61017620D01*
X123606418Y-61020242D01*
X123600643Y-61022309D01*
X123594693Y-61023799D01*
X123588626Y-61024699D01*
X123582500Y-61025000D01*
X122632500Y-61025000D01*
X122626374Y-61024699D01*
X122620307Y-61023799D01*
X122614357Y-61022309D01*
X122608582Y-61020242D01*
X122603038Y-61017620D01*
X122597777Y-61014467D01*
X122592850Y-61010813D01*
X122588306Y-61006694D01*
X122584187Y-61002150D01*
X122580533Y-60997223D01*
X122577380Y-60991962D01*
X122574758Y-60986418D01*
X122572691Y-60980643D01*
X122571201Y-60974693D01*
X122570301Y-60968626D01*
X122570000Y-60962500D01*
X122570000Y-60837500D01*
X122570301Y-60831374D01*
X122571201Y-60825307D01*
X122572691Y-60819357D01*
X122574758Y-60813582D01*
X122577380Y-60808038D01*
X122580533Y-60802777D01*
X122584187Y-60797850D01*
X122588306Y-60793306D01*
X122592850Y-60789187D01*
X122597777Y-60785533D01*
X122603038Y-60782380D01*
X122608582Y-60779758D01*
X122614357Y-60777691D01*
X122620307Y-60776201D01*
X122626374Y-60775301D01*
X122632500Y-60775000D01*
X123582500Y-60775000D01*
X123588626Y-60775301D01*
G37*
G36*
X123588626Y-61275301D02*
G01*
X123594693Y-61276201D01*
X123600643Y-61277691D01*
X123606418Y-61279758D01*
X123611962Y-61282380D01*
X123617223Y-61285533D01*
X123622150Y-61289187D01*
X123626694Y-61293306D01*
X123630813Y-61297850D01*
X123634467Y-61302777D01*
X123637620Y-61308038D01*
X123640242Y-61313582D01*
X123642309Y-61319357D01*
X123643799Y-61325307D01*
X123644699Y-61331374D01*
X123645000Y-61337500D01*
X123645000Y-61462500D01*
X123644699Y-61468626D01*
X123643799Y-61474693D01*
X123642309Y-61480643D01*
X123640242Y-61486418D01*
X123637620Y-61491962D01*
X123634467Y-61497223D01*
X123630813Y-61502150D01*
X123626694Y-61506694D01*
X123622150Y-61510813D01*
X123617223Y-61514467D01*
X123611962Y-61517620D01*
X123606418Y-61520242D01*
X123600643Y-61522309D01*
X123594693Y-61523799D01*
X123588626Y-61524699D01*
X123582500Y-61525000D01*
X122632500Y-61525000D01*
X122626374Y-61524699D01*
X122620307Y-61523799D01*
X122614357Y-61522309D01*
X122608582Y-61520242D01*
X122603038Y-61517620D01*
X122597777Y-61514467D01*
X122592850Y-61510813D01*
X122588306Y-61506694D01*
X122584187Y-61502150D01*
X122580533Y-61497223D01*
X122577380Y-61491962D01*
X122574758Y-61486418D01*
X122572691Y-61480643D01*
X122571201Y-61474693D01*
X122570301Y-61468626D01*
X122570000Y-61462500D01*
X122570000Y-61337500D01*
X122570301Y-61331374D01*
X122571201Y-61325307D01*
X122572691Y-61319357D01*
X122574758Y-61313582D01*
X122577380Y-61308038D01*
X122580533Y-61302777D01*
X122584187Y-61297850D01*
X122588306Y-61293306D01*
X122592850Y-61289187D01*
X122597777Y-61285533D01*
X122603038Y-61282380D01*
X122608582Y-61279758D01*
X122614357Y-61277691D01*
X122620307Y-61276201D01*
X122626374Y-61275301D01*
X122632500Y-61275000D01*
X123582500Y-61275000D01*
X123588626Y-61275301D01*
G37*
G36*
X123588626Y-61775301D02*
G01*
X123594693Y-61776201D01*
X123600643Y-61777691D01*
X123606418Y-61779758D01*
X123611962Y-61782380D01*
X123617223Y-61785533D01*
X123622150Y-61789187D01*
X123626694Y-61793306D01*
X123630813Y-61797850D01*
X123634467Y-61802777D01*
X123637620Y-61808038D01*
X123640242Y-61813582D01*
X123642309Y-61819357D01*
X123643799Y-61825307D01*
X123644699Y-61831374D01*
X123645000Y-61837500D01*
X123645000Y-61962500D01*
X123644699Y-61968626D01*
X123643799Y-61974693D01*
X123642309Y-61980643D01*
X123640242Y-61986418D01*
X123637620Y-61991962D01*
X123634467Y-61997223D01*
X123630813Y-62002150D01*
X123626694Y-62006694D01*
X123622150Y-62010813D01*
X123617223Y-62014467D01*
X123611962Y-62017620D01*
X123606418Y-62020242D01*
X123600643Y-62022309D01*
X123594693Y-62023799D01*
X123588626Y-62024699D01*
X123582500Y-62025000D01*
X122632500Y-62025000D01*
X122626374Y-62024699D01*
X122620307Y-62023799D01*
X122614357Y-62022309D01*
X122608582Y-62020242D01*
X122603038Y-62017620D01*
X122597777Y-62014467D01*
X122592850Y-62010813D01*
X122588306Y-62006694D01*
X122584187Y-62002150D01*
X122580533Y-61997223D01*
X122577380Y-61991962D01*
X122574758Y-61986418D01*
X122572691Y-61980643D01*
X122571201Y-61974693D01*
X122570301Y-61968626D01*
X122570000Y-61962500D01*
X122570000Y-61837500D01*
X122570301Y-61831374D01*
X122571201Y-61825307D01*
X122572691Y-61819357D01*
X122574758Y-61813582D01*
X122577380Y-61808038D01*
X122580533Y-61802777D01*
X122584187Y-61797850D01*
X122588306Y-61793306D01*
X122592850Y-61789187D01*
X122597777Y-61785533D01*
X122603038Y-61782380D01*
X122608582Y-61779758D01*
X122614357Y-61777691D01*
X122620307Y-61776201D01*
X122626374Y-61775301D01*
X122632500Y-61775000D01*
X123582500Y-61775000D01*
X123588626Y-61775301D01*
G37*
G36*
X123588626Y-62275301D02*
G01*
X123594693Y-62276201D01*
X123600643Y-62277691D01*
X123606418Y-62279758D01*
X123611962Y-62282380D01*
X123617223Y-62285533D01*
X123622150Y-62289187D01*
X123626694Y-62293306D01*
X123630813Y-62297850D01*
X123634467Y-62302777D01*
X123637620Y-62308038D01*
X123640242Y-62313582D01*
X123642309Y-62319357D01*
X123643799Y-62325307D01*
X123644699Y-62331374D01*
X123645000Y-62337500D01*
X123645000Y-62462500D01*
X123644699Y-62468626D01*
X123643799Y-62474693D01*
X123642309Y-62480643D01*
X123640242Y-62486418D01*
X123637620Y-62491962D01*
X123634467Y-62497223D01*
X123630813Y-62502150D01*
X123626694Y-62506694D01*
X123622150Y-62510813D01*
X123617223Y-62514467D01*
X123611962Y-62517620D01*
X123606418Y-62520242D01*
X123600643Y-62522309D01*
X123594693Y-62523799D01*
X123588626Y-62524699D01*
X123582500Y-62525000D01*
X122632500Y-62525000D01*
X122626374Y-62524699D01*
X122620307Y-62523799D01*
X122614357Y-62522309D01*
X122608582Y-62520242D01*
X122603038Y-62517620D01*
X122597777Y-62514467D01*
X122592850Y-62510813D01*
X122588306Y-62506694D01*
X122584187Y-62502150D01*
X122580533Y-62497223D01*
X122577380Y-62491962D01*
X122574758Y-62486418D01*
X122572691Y-62480643D01*
X122571201Y-62474693D01*
X122570301Y-62468626D01*
X122570000Y-62462500D01*
X122570000Y-62337500D01*
X122570301Y-62331374D01*
X122571201Y-62325307D01*
X122572691Y-62319357D01*
X122574758Y-62313582D01*
X122577380Y-62308038D01*
X122580533Y-62302777D01*
X122584187Y-62297850D01*
X122588306Y-62293306D01*
X122592850Y-62289187D01*
X122597777Y-62285533D01*
X122603038Y-62282380D01*
X122608582Y-62279758D01*
X122614357Y-62277691D01*
X122620307Y-62276201D01*
X122626374Y-62275301D01*
X122632500Y-62275000D01*
X123582500Y-62275000D01*
X123588626Y-62275301D01*
G37*
G36*
X123588626Y-62775301D02*
G01*
X123594693Y-62776201D01*
X123600643Y-62777691D01*
X123606418Y-62779758D01*
X123611962Y-62782380D01*
X123617223Y-62785533D01*
X123622150Y-62789187D01*
X123626694Y-62793306D01*
X123630813Y-62797850D01*
X123634467Y-62802777D01*
X123637620Y-62808038D01*
X123640242Y-62813582D01*
X123642309Y-62819357D01*
X123643799Y-62825307D01*
X123644699Y-62831374D01*
X123645000Y-62837500D01*
X123645000Y-62962500D01*
X123644699Y-62968626D01*
X123643799Y-62974693D01*
X123642309Y-62980643D01*
X123640242Y-62986418D01*
X123637620Y-62991962D01*
X123634467Y-62997223D01*
X123630813Y-63002150D01*
X123626694Y-63006694D01*
X123622150Y-63010813D01*
X123617223Y-63014467D01*
X123611962Y-63017620D01*
X123606418Y-63020242D01*
X123600643Y-63022309D01*
X123594693Y-63023799D01*
X123588626Y-63024699D01*
X123582500Y-63025000D01*
X122632500Y-63025000D01*
X122626374Y-63024699D01*
X122620307Y-63023799D01*
X122614357Y-63022309D01*
X122608582Y-63020242D01*
X122603038Y-63017620D01*
X122597777Y-63014467D01*
X122592850Y-63010813D01*
X122588306Y-63006694D01*
X122584187Y-63002150D01*
X122580533Y-62997223D01*
X122577380Y-62991962D01*
X122574758Y-62986418D01*
X122572691Y-62980643D01*
X122571201Y-62974693D01*
X122570301Y-62968626D01*
X122570000Y-62962500D01*
X122570000Y-62837500D01*
X122570301Y-62831374D01*
X122571201Y-62825307D01*
X122572691Y-62819357D01*
X122574758Y-62813582D01*
X122577380Y-62808038D01*
X122580533Y-62802777D01*
X122584187Y-62797850D01*
X122588306Y-62793306D01*
X122592850Y-62789187D01*
X122597777Y-62785533D01*
X122603038Y-62782380D01*
X122608582Y-62779758D01*
X122614357Y-62777691D01*
X122620307Y-62776201D01*
X122626374Y-62775301D01*
X122632500Y-62775000D01*
X123582500Y-62775000D01*
X123588626Y-62775301D01*
G37*
G36*
X123588626Y-63275301D02*
G01*
X123594693Y-63276201D01*
X123600643Y-63277691D01*
X123606418Y-63279758D01*
X123611962Y-63282380D01*
X123617223Y-63285533D01*
X123622150Y-63289187D01*
X123626694Y-63293306D01*
X123630813Y-63297850D01*
X123634467Y-63302777D01*
X123637620Y-63308038D01*
X123640242Y-63313582D01*
X123642309Y-63319357D01*
X123643799Y-63325307D01*
X123644699Y-63331374D01*
X123645000Y-63337500D01*
X123645000Y-63462500D01*
X123644699Y-63468626D01*
X123643799Y-63474693D01*
X123642309Y-63480643D01*
X123640242Y-63486418D01*
X123637620Y-63491962D01*
X123634467Y-63497223D01*
X123630813Y-63502150D01*
X123626694Y-63506694D01*
X123622150Y-63510813D01*
X123617223Y-63514467D01*
X123611962Y-63517620D01*
X123606418Y-63520242D01*
X123600643Y-63522309D01*
X123594693Y-63523799D01*
X123588626Y-63524699D01*
X123582500Y-63525000D01*
X122632500Y-63525000D01*
X122626374Y-63524699D01*
X122620307Y-63523799D01*
X122614357Y-63522309D01*
X122608582Y-63520242D01*
X122603038Y-63517620D01*
X122597777Y-63514467D01*
X122592850Y-63510813D01*
X122588306Y-63506694D01*
X122584187Y-63502150D01*
X122580533Y-63497223D01*
X122577380Y-63491962D01*
X122574758Y-63486418D01*
X122572691Y-63480643D01*
X122571201Y-63474693D01*
X122570301Y-63468626D01*
X122570000Y-63462500D01*
X122570000Y-63337500D01*
X122570301Y-63331374D01*
X122571201Y-63325307D01*
X122572691Y-63319357D01*
X122574758Y-63313582D01*
X122577380Y-63308038D01*
X122580533Y-63302777D01*
X122584187Y-63297850D01*
X122588306Y-63293306D01*
X122592850Y-63289187D01*
X122597777Y-63285533D01*
X122603038Y-63282380D01*
X122608582Y-63279758D01*
X122614357Y-63277691D01*
X122620307Y-63276201D01*
X122626374Y-63275301D01*
X122632500Y-63275000D01*
X123582500Y-63275000D01*
X123588626Y-63275301D01*
G37*
G36*
X123588626Y-63775301D02*
G01*
X123594693Y-63776201D01*
X123600643Y-63777691D01*
X123606418Y-63779758D01*
X123611962Y-63782380D01*
X123617223Y-63785533D01*
X123622150Y-63789187D01*
X123626694Y-63793306D01*
X123630813Y-63797850D01*
X123634467Y-63802777D01*
X123637620Y-63808038D01*
X123640242Y-63813582D01*
X123642309Y-63819357D01*
X123643799Y-63825307D01*
X123644699Y-63831374D01*
X123645000Y-63837500D01*
X123645000Y-63962500D01*
X123644699Y-63968626D01*
X123643799Y-63974693D01*
X123642309Y-63980643D01*
X123640242Y-63986418D01*
X123637620Y-63991962D01*
X123634467Y-63997223D01*
X123630813Y-64002150D01*
X123626694Y-64006694D01*
X123622150Y-64010813D01*
X123617223Y-64014467D01*
X123611962Y-64017620D01*
X123606418Y-64020242D01*
X123600643Y-64022309D01*
X123594693Y-64023799D01*
X123588626Y-64024699D01*
X123582500Y-64025000D01*
X122632500Y-64025000D01*
X122626374Y-64024699D01*
X122620307Y-64023799D01*
X122614357Y-64022309D01*
X122608582Y-64020242D01*
X122603038Y-64017620D01*
X122597777Y-64014467D01*
X122592850Y-64010813D01*
X122588306Y-64006694D01*
X122584187Y-64002150D01*
X122580533Y-63997223D01*
X122577380Y-63991962D01*
X122574758Y-63986418D01*
X122572691Y-63980643D01*
X122571201Y-63974693D01*
X122570301Y-63968626D01*
X122570000Y-63962500D01*
X122570000Y-63837500D01*
X122570301Y-63831374D01*
X122571201Y-63825307D01*
X122572691Y-63819357D01*
X122574758Y-63813582D01*
X122577380Y-63808038D01*
X122580533Y-63802777D01*
X122584187Y-63797850D01*
X122588306Y-63793306D01*
X122592850Y-63789187D01*
X122597777Y-63785533D01*
X122603038Y-63782380D01*
X122608582Y-63779758D01*
X122614357Y-63777691D01*
X122620307Y-63776201D01*
X122626374Y-63775301D01*
X122632500Y-63775000D01*
X123582500Y-63775000D01*
X123588626Y-63775301D01*
G37*
G36*
X123588626Y-64275301D02*
G01*
X123594693Y-64276201D01*
X123600643Y-64277691D01*
X123606418Y-64279758D01*
X123611962Y-64282380D01*
X123617223Y-64285533D01*
X123622150Y-64289187D01*
X123626694Y-64293306D01*
X123630813Y-64297850D01*
X123634467Y-64302777D01*
X123637620Y-64308038D01*
X123640242Y-64313582D01*
X123642309Y-64319357D01*
X123643799Y-64325307D01*
X123644699Y-64331374D01*
X123645000Y-64337500D01*
X123645000Y-64462500D01*
X123644699Y-64468626D01*
X123643799Y-64474693D01*
X123642309Y-64480643D01*
X123640242Y-64486418D01*
X123637620Y-64491962D01*
X123634467Y-64497223D01*
X123630813Y-64502150D01*
X123626694Y-64506694D01*
X123622150Y-64510813D01*
X123617223Y-64514467D01*
X123611962Y-64517620D01*
X123606418Y-64520242D01*
X123600643Y-64522309D01*
X123594693Y-64523799D01*
X123588626Y-64524699D01*
X123582500Y-64525000D01*
X122632500Y-64525000D01*
X122626374Y-64524699D01*
X122620307Y-64523799D01*
X122614357Y-64522309D01*
X122608582Y-64520242D01*
X122603038Y-64517620D01*
X122597777Y-64514467D01*
X122592850Y-64510813D01*
X122588306Y-64506694D01*
X122584187Y-64502150D01*
X122580533Y-64497223D01*
X122577380Y-64491962D01*
X122574758Y-64486418D01*
X122572691Y-64480643D01*
X122571201Y-64474693D01*
X122570301Y-64468626D01*
X122570000Y-64462500D01*
X122570000Y-64337500D01*
X122570301Y-64331374D01*
X122571201Y-64325307D01*
X122572691Y-64319357D01*
X122574758Y-64313582D01*
X122577380Y-64308038D01*
X122580533Y-64302777D01*
X122584187Y-64297850D01*
X122588306Y-64293306D01*
X122592850Y-64289187D01*
X122597777Y-64285533D01*
X122603038Y-64282380D01*
X122608582Y-64279758D01*
X122614357Y-64277691D01*
X122620307Y-64276201D01*
X122626374Y-64275301D01*
X122632500Y-64275000D01*
X123582500Y-64275000D01*
X123588626Y-64275301D01*
G37*
G36*
X123588626Y-64775301D02*
G01*
X123594693Y-64776201D01*
X123600643Y-64777691D01*
X123606418Y-64779758D01*
X123611962Y-64782380D01*
X123617223Y-64785533D01*
X123622150Y-64789187D01*
X123626694Y-64793306D01*
X123630813Y-64797850D01*
X123634467Y-64802777D01*
X123637620Y-64808038D01*
X123640242Y-64813582D01*
X123642309Y-64819357D01*
X123643799Y-64825307D01*
X123644699Y-64831374D01*
X123645000Y-64837500D01*
X123645000Y-64962500D01*
X123644699Y-64968626D01*
X123643799Y-64974693D01*
X123642309Y-64980643D01*
X123640242Y-64986418D01*
X123637620Y-64991962D01*
X123634467Y-64997223D01*
X123630813Y-65002150D01*
X123626694Y-65006694D01*
X123622150Y-65010813D01*
X123617223Y-65014467D01*
X123611962Y-65017620D01*
X123606418Y-65020242D01*
X123600643Y-65022309D01*
X123594693Y-65023799D01*
X123588626Y-65024699D01*
X123582500Y-65025000D01*
X122632500Y-65025000D01*
X122626374Y-65024699D01*
X122620307Y-65023799D01*
X122614357Y-65022309D01*
X122608582Y-65020242D01*
X122603038Y-65017620D01*
X122597777Y-65014467D01*
X122592850Y-65010813D01*
X122588306Y-65006694D01*
X122584187Y-65002150D01*
X122580533Y-64997223D01*
X122577380Y-64991962D01*
X122574758Y-64986418D01*
X122572691Y-64980643D01*
X122571201Y-64974693D01*
X122570301Y-64968626D01*
X122570000Y-64962500D01*
X122570000Y-64837500D01*
X122570301Y-64831374D01*
X122571201Y-64825307D01*
X122572691Y-64819357D01*
X122574758Y-64813582D01*
X122577380Y-64808038D01*
X122580533Y-64802777D01*
X122584187Y-64797850D01*
X122588306Y-64793306D01*
X122592850Y-64789187D01*
X122597777Y-64785533D01*
X122603038Y-64782380D01*
X122608582Y-64779758D01*
X122614357Y-64777691D01*
X122620307Y-64776201D01*
X122626374Y-64775301D01*
X122632500Y-64775000D01*
X123582500Y-64775000D01*
X123588626Y-64775301D01*
G37*
G36*
X123588626Y-65275301D02*
G01*
X123594693Y-65276201D01*
X123600643Y-65277691D01*
X123606418Y-65279758D01*
X123611962Y-65282380D01*
X123617223Y-65285533D01*
X123622150Y-65289187D01*
X123626694Y-65293306D01*
X123630813Y-65297850D01*
X123634467Y-65302777D01*
X123637620Y-65308038D01*
X123640242Y-65313582D01*
X123642309Y-65319357D01*
X123643799Y-65325307D01*
X123644699Y-65331374D01*
X123645000Y-65337500D01*
X123645000Y-65462500D01*
X123644699Y-65468626D01*
X123643799Y-65474693D01*
X123642309Y-65480643D01*
X123640242Y-65486418D01*
X123637620Y-65491962D01*
X123634467Y-65497223D01*
X123630813Y-65502150D01*
X123626694Y-65506694D01*
X123622150Y-65510813D01*
X123617223Y-65514467D01*
X123611962Y-65517620D01*
X123606418Y-65520242D01*
X123600643Y-65522309D01*
X123594693Y-65523799D01*
X123588626Y-65524699D01*
X123582500Y-65525000D01*
X122632500Y-65525000D01*
X122626374Y-65524699D01*
X122620307Y-65523799D01*
X122614357Y-65522309D01*
X122608582Y-65520242D01*
X122603038Y-65517620D01*
X122597777Y-65514467D01*
X122592850Y-65510813D01*
X122588306Y-65506694D01*
X122584187Y-65502150D01*
X122580533Y-65497223D01*
X122577380Y-65491962D01*
X122574758Y-65486418D01*
X122572691Y-65480643D01*
X122571201Y-65474693D01*
X122570301Y-65468626D01*
X122570000Y-65462500D01*
X122570000Y-65337500D01*
X122570301Y-65331374D01*
X122571201Y-65325307D01*
X122572691Y-65319357D01*
X122574758Y-65313582D01*
X122577380Y-65308038D01*
X122580533Y-65302777D01*
X122584187Y-65297850D01*
X122588306Y-65293306D01*
X122592850Y-65289187D01*
X122597777Y-65285533D01*
X122603038Y-65282380D01*
X122608582Y-65279758D01*
X122614357Y-65277691D01*
X122620307Y-65276201D01*
X122626374Y-65275301D01*
X122632500Y-65275000D01*
X123582500Y-65275000D01*
X123588626Y-65275301D01*
G37*
G36*
X123588626Y-65775301D02*
G01*
X123594693Y-65776201D01*
X123600643Y-65777691D01*
X123606418Y-65779758D01*
X123611962Y-65782380D01*
X123617223Y-65785533D01*
X123622150Y-65789187D01*
X123626694Y-65793306D01*
X123630813Y-65797850D01*
X123634467Y-65802777D01*
X123637620Y-65808038D01*
X123640242Y-65813582D01*
X123642309Y-65819357D01*
X123643799Y-65825307D01*
X123644699Y-65831374D01*
X123645000Y-65837500D01*
X123645000Y-65962500D01*
X123644699Y-65968626D01*
X123643799Y-65974693D01*
X123642309Y-65980643D01*
X123640242Y-65986418D01*
X123637620Y-65991962D01*
X123634467Y-65997223D01*
X123630813Y-66002150D01*
X123626694Y-66006694D01*
X123622150Y-66010813D01*
X123617223Y-66014467D01*
X123611962Y-66017620D01*
X123606418Y-66020242D01*
X123600643Y-66022309D01*
X123594693Y-66023799D01*
X123588626Y-66024699D01*
X123582500Y-66025000D01*
X122632500Y-66025000D01*
X122626374Y-66024699D01*
X122620307Y-66023799D01*
X122614357Y-66022309D01*
X122608582Y-66020242D01*
X122603038Y-66017620D01*
X122597777Y-66014467D01*
X122592850Y-66010813D01*
X122588306Y-66006694D01*
X122584187Y-66002150D01*
X122580533Y-65997223D01*
X122577380Y-65991962D01*
X122574758Y-65986418D01*
X122572691Y-65980643D01*
X122571201Y-65974693D01*
X122570301Y-65968626D01*
X122570000Y-65962500D01*
X122570000Y-65837500D01*
X122570301Y-65831374D01*
X122571201Y-65825307D01*
X122572691Y-65819357D01*
X122574758Y-65813582D01*
X122577380Y-65808038D01*
X122580533Y-65802777D01*
X122584187Y-65797850D01*
X122588306Y-65793306D01*
X122592850Y-65789187D01*
X122597777Y-65785533D01*
X122603038Y-65782380D01*
X122608582Y-65779758D01*
X122614357Y-65777691D01*
X122620307Y-65776201D01*
X122626374Y-65775301D01*
X122632500Y-65775000D01*
X123582500Y-65775000D01*
X123588626Y-65775301D01*
G37*
D11*
X110909100Y-61660000D03*
X110909100Y-64460000D03*
X110909100Y-63060000D03*
X110909100Y-67260000D03*
X110909100Y-65860000D03*
X110909100Y-68660000D03*
D10*
G36*
X120201958Y-70012910D02*
G01*
X120216276Y-70015034D01*
X120230317Y-70018551D01*
X120243946Y-70023428D01*
X120257031Y-70029617D01*
X120269447Y-70037058D01*
X120281073Y-70045681D01*
X120291798Y-70055402D01*
X120301519Y-70066127D01*
X120310142Y-70077753D01*
X120317583Y-70090169D01*
X120323772Y-70103254D01*
X120328649Y-70116883D01*
X120332166Y-70130924D01*
X120334290Y-70145242D01*
X120335000Y-70159700D01*
X120335000Y-70454700D01*
X120334290Y-70469158D01*
X120332166Y-70483476D01*
X120328649Y-70497517D01*
X120323772Y-70511146D01*
X120317583Y-70524231D01*
X120310142Y-70536647D01*
X120301519Y-70548273D01*
X120291798Y-70558998D01*
X120281073Y-70568719D01*
X120269447Y-70577342D01*
X120257031Y-70584783D01*
X120243946Y-70590972D01*
X120230317Y-70595849D01*
X120216276Y-70599366D01*
X120201958Y-70601490D01*
X120187500Y-70602200D01*
X119842500Y-70602200D01*
X119828042Y-70601490D01*
X119813724Y-70599366D01*
X119799683Y-70595849D01*
X119786054Y-70590972D01*
X119772969Y-70584783D01*
X119760553Y-70577342D01*
X119748927Y-70568719D01*
X119738202Y-70558998D01*
X119728481Y-70548273D01*
X119719858Y-70536647D01*
X119712417Y-70524231D01*
X119706228Y-70511146D01*
X119701351Y-70497517D01*
X119697834Y-70483476D01*
X119695710Y-70469158D01*
X119695000Y-70454700D01*
X119695000Y-70159700D01*
X119695710Y-70145242D01*
X119697834Y-70130924D01*
X119701351Y-70116883D01*
X119706228Y-70103254D01*
X119712417Y-70090169D01*
X119719858Y-70077753D01*
X119728481Y-70066127D01*
X119738202Y-70055402D01*
X119748927Y-70045681D01*
X119760553Y-70037058D01*
X119772969Y-70029617D01*
X119786054Y-70023428D01*
X119799683Y-70018551D01*
X119813724Y-70015034D01*
X119828042Y-70012910D01*
X119842500Y-70012200D01*
X120187500Y-70012200D01*
X120201958Y-70012910D01*
G37*
G36*
X120201958Y-69042910D02*
G01*
X120216276Y-69045034D01*
X120230317Y-69048551D01*
X120243946Y-69053428D01*
X120257031Y-69059617D01*
X120269447Y-69067058D01*
X120281073Y-69075681D01*
X120291798Y-69085402D01*
X120301519Y-69096127D01*
X120310142Y-69107753D01*
X120317583Y-69120169D01*
X120323772Y-69133254D01*
X120328649Y-69146883D01*
X120332166Y-69160924D01*
X120334290Y-69175242D01*
X120335000Y-69189700D01*
X120335000Y-69484700D01*
X120334290Y-69499158D01*
X120332166Y-69513476D01*
X120328649Y-69527517D01*
X120323772Y-69541146D01*
X120317583Y-69554231D01*
X120310142Y-69566647D01*
X120301519Y-69578273D01*
X120291798Y-69588998D01*
X120281073Y-69598719D01*
X120269447Y-69607342D01*
X120257031Y-69614783D01*
X120243946Y-69620972D01*
X120230317Y-69625849D01*
X120216276Y-69629366D01*
X120201958Y-69631490D01*
X120187500Y-69632200D01*
X119842500Y-69632200D01*
X119828042Y-69631490D01*
X119813724Y-69629366D01*
X119799683Y-69625849D01*
X119786054Y-69620972D01*
X119772969Y-69614783D01*
X119760553Y-69607342D01*
X119748927Y-69598719D01*
X119738202Y-69588998D01*
X119728481Y-69578273D01*
X119719858Y-69566647D01*
X119712417Y-69554231D01*
X119706228Y-69541146D01*
X119701351Y-69527517D01*
X119697834Y-69513476D01*
X119695710Y-69499158D01*
X119695000Y-69484700D01*
X119695000Y-69189700D01*
X119695710Y-69175242D01*
X119697834Y-69160924D01*
X119701351Y-69146883D01*
X119706228Y-69133254D01*
X119712417Y-69120169D01*
X119719858Y-69107753D01*
X119728481Y-69096127D01*
X119738202Y-69085402D01*
X119748927Y-69075681D01*
X119760553Y-69067058D01*
X119772969Y-69059617D01*
X119786054Y-69053428D01*
X119799683Y-69048551D01*
X119813724Y-69045034D01*
X119828042Y-69042910D01*
X119842500Y-69042200D01*
X120187500Y-69042200D01*
X120201958Y-69042910D01*
G37*
G36*
X119262558Y-67498710D02*
G01*
X119276876Y-67500834D01*
X119290917Y-67504351D01*
X119304546Y-67509228D01*
X119317631Y-67515417D01*
X119330047Y-67522858D01*
X119341673Y-67531481D01*
X119352398Y-67541202D01*
X119362119Y-67551927D01*
X119370742Y-67563553D01*
X119378183Y-67575969D01*
X119384372Y-67589054D01*
X119389249Y-67602683D01*
X119392766Y-67616724D01*
X119394890Y-67631042D01*
X119395600Y-67645500D01*
X119395600Y-67990500D01*
X119394890Y-68004958D01*
X119392766Y-68019276D01*
X119389249Y-68033317D01*
X119384372Y-68046946D01*
X119378183Y-68060031D01*
X119370742Y-68072447D01*
X119362119Y-68084073D01*
X119352398Y-68094798D01*
X119341673Y-68104519D01*
X119330047Y-68113142D01*
X119317631Y-68120583D01*
X119304546Y-68126772D01*
X119290917Y-68131649D01*
X119276876Y-68135166D01*
X119262558Y-68137290D01*
X119248100Y-68138000D01*
X118953100Y-68138000D01*
X118938642Y-68137290D01*
X118924324Y-68135166D01*
X118910283Y-68131649D01*
X118896654Y-68126772D01*
X118883569Y-68120583D01*
X118871153Y-68113142D01*
X118859527Y-68104519D01*
X118848802Y-68094798D01*
X118839081Y-68084073D01*
X118830458Y-68072447D01*
X118823017Y-68060031D01*
X118816828Y-68046946D01*
X118811951Y-68033317D01*
X118808434Y-68019276D01*
X118806310Y-68004958D01*
X118805600Y-67990500D01*
X118805600Y-67645500D01*
X118806310Y-67631042D01*
X118808434Y-67616724D01*
X118811951Y-67602683D01*
X118816828Y-67589054D01*
X118823017Y-67575969D01*
X118830458Y-67563553D01*
X118839081Y-67551927D01*
X118848802Y-67541202D01*
X118859527Y-67531481D01*
X118871153Y-67522858D01*
X118883569Y-67515417D01*
X118896654Y-67509228D01*
X118910283Y-67504351D01*
X118924324Y-67500834D01*
X118938642Y-67498710D01*
X118953100Y-67498000D01*
X119248100Y-67498000D01*
X119262558Y-67498710D01*
G37*
G36*
X120232558Y-67498710D02*
G01*
X120246876Y-67500834D01*
X120260917Y-67504351D01*
X120274546Y-67509228D01*
X120287631Y-67515417D01*
X120300047Y-67522858D01*
X120311673Y-67531481D01*
X120322398Y-67541202D01*
X120332119Y-67551927D01*
X120340742Y-67563553D01*
X120348183Y-67575969D01*
X120354372Y-67589054D01*
X120359249Y-67602683D01*
X120362766Y-67616724D01*
X120364890Y-67631042D01*
X120365600Y-67645500D01*
X120365600Y-67990500D01*
X120364890Y-68004958D01*
X120362766Y-68019276D01*
X120359249Y-68033317D01*
X120354372Y-68046946D01*
X120348183Y-68060031D01*
X120340742Y-68072447D01*
X120332119Y-68084073D01*
X120322398Y-68094798D01*
X120311673Y-68104519D01*
X120300047Y-68113142D01*
X120287631Y-68120583D01*
X120274546Y-68126772D01*
X120260917Y-68131649D01*
X120246876Y-68135166D01*
X120232558Y-68137290D01*
X120218100Y-68138000D01*
X119923100Y-68138000D01*
X119908642Y-68137290D01*
X119894324Y-68135166D01*
X119880283Y-68131649D01*
X119866654Y-68126772D01*
X119853569Y-68120583D01*
X119841153Y-68113142D01*
X119829527Y-68104519D01*
X119818802Y-68094798D01*
X119809081Y-68084073D01*
X119800458Y-68072447D01*
X119793017Y-68060031D01*
X119786828Y-68046946D01*
X119781951Y-68033317D01*
X119778434Y-68019276D01*
X119776310Y-68004958D01*
X119775600Y-67990500D01*
X119775600Y-67645500D01*
X119776310Y-67631042D01*
X119778434Y-67616724D01*
X119781951Y-67602683D01*
X119786828Y-67589054D01*
X119793017Y-67575969D01*
X119800458Y-67563553D01*
X119809081Y-67551927D01*
X119818802Y-67541202D01*
X119829527Y-67531481D01*
X119841153Y-67522858D01*
X119853569Y-67515417D01*
X119866654Y-67509228D01*
X119880283Y-67504351D01*
X119894324Y-67500834D01*
X119908642Y-67498710D01*
X119923100Y-67498000D01*
X120218100Y-67498000D01*
X120232558Y-67498710D01*
G37*
G36*
X120659158Y-57587510D02*
G01*
X120673476Y-57589634D01*
X120687517Y-57593151D01*
X120701146Y-57598028D01*
X120714231Y-57604217D01*
X120726647Y-57611658D01*
X120738273Y-57620281D01*
X120748998Y-57630002D01*
X120758719Y-57640727D01*
X120767342Y-57652353D01*
X120774783Y-57664769D01*
X120780972Y-57677854D01*
X120785849Y-57691483D01*
X120789366Y-57705524D01*
X120791490Y-57719842D01*
X120792200Y-57734300D01*
X120792200Y-58029300D01*
X120791490Y-58043758D01*
X120789366Y-58058076D01*
X120785849Y-58072117D01*
X120780972Y-58085746D01*
X120774783Y-58098831D01*
X120767342Y-58111247D01*
X120758719Y-58122873D01*
X120748998Y-58133598D01*
X120738273Y-58143319D01*
X120726647Y-58151942D01*
X120714231Y-58159383D01*
X120701146Y-58165572D01*
X120687517Y-58170449D01*
X120673476Y-58173966D01*
X120659158Y-58176090D01*
X120644700Y-58176800D01*
X120299700Y-58176800D01*
X120285242Y-58176090D01*
X120270924Y-58173966D01*
X120256883Y-58170449D01*
X120243254Y-58165572D01*
X120230169Y-58159383D01*
X120217753Y-58151942D01*
X120206127Y-58143319D01*
X120195402Y-58133598D01*
X120185681Y-58122873D01*
X120177058Y-58111247D01*
X120169617Y-58098831D01*
X120163428Y-58085746D01*
X120158551Y-58072117D01*
X120155034Y-58058076D01*
X120152910Y-58043758D01*
X120152200Y-58029300D01*
X120152200Y-57734300D01*
X120152910Y-57719842D01*
X120155034Y-57705524D01*
X120158551Y-57691483D01*
X120163428Y-57677854D01*
X120169617Y-57664769D01*
X120177058Y-57652353D01*
X120185681Y-57640727D01*
X120195402Y-57630002D01*
X120206127Y-57620281D01*
X120217753Y-57611658D01*
X120230169Y-57604217D01*
X120243254Y-57598028D01*
X120256883Y-57593151D01*
X120270924Y-57589634D01*
X120285242Y-57587510D01*
X120299700Y-57586800D01*
X120644700Y-57586800D01*
X120659158Y-57587510D01*
G37*
G36*
X120659158Y-58557510D02*
G01*
X120673476Y-58559634D01*
X120687517Y-58563151D01*
X120701146Y-58568028D01*
X120714231Y-58574217D01*
X120726647Y-58581658D01*
X120738273Y-58590281D01*
X120748998Y-58600002D01*
X120758719Y-58610727D01*
X120767342Y-58622353D01*
X120774783Y-58634769D01*
X120780972Y-58647854D01*
X120785849Y-58661483D01*
X120789366Y-58675524D01*
X120791490Y-58689842D01*
X120792200Y-58704300D01*
X120792200Y-58999300D01*
X120791490Y-59013758D01*
X120789366Y-59028076D01*
X120785849Y-59042117D01*
X120780972Y-59055746D01*
X120774783Y-59068831D01*
X120767342Y-59081247D01*
X120758719Y-59092873D01*
X120748998Y-59103598D01*
X120738273Y-59113319D01*
X120726647Y-59121942D01*
X120714231Y-59129383D01*
X120701146Y-59135572D01*
X120687517Y-59140449D01*
X120673476Y-59143966D01*
X120659158Y-59146090D01*
X120644700Y-59146800D01*
X120299700Y-59146800D01*
X120285242Y-59146090D01*
X120270924Y-59143966D01*
X120256883Y-59140449D01*
X120243254Y-59135572D01*
X120230169Y-59129383D01*
X120217753Y-59121942D01*
X120206127Y-59113319D01*
X120195402Y-59103598D01*
X120185681Y-59092873D01*
X120177058Y-59081247D01*
X120169617Y-59068831D01*
X120163428Y-59055746D01*
X120158551Y-59042117D01*
X120155034Y-59028076D01*
X120152910Y-59013758D01*
X120152200Y-58999300D01*
X120152200Y-58704300D01*
X120152910Y-58689842D01*
X120155034Y-58675524D01*
X120158551Y-58661483D01*
X120163428Y-58647854D01*
X120169617Y-58634769D01*
X120177058Y-58622353D01*
X120185681Y-58610727D01*
X120195402Y-58600002D01*
X120206127Y-58590281D01*
X120217753Y-58581658D01*
X120230169Y-58574217D01*
X120243254Y-58568028D01*
X120256883Y-58563151D01*
X120270924Y-58559634D01*
X120285242Y-58557510D01*
X120299700Y-58556800D01*
X120644700Y-58556800D01*
X120659158Y-58557510D01*
G37*
G36*
X124492558Y-63371210D02*
G01*
X124506876Y-63373334D01*
X124520917Y-63376851D01*
X124534546Y-63381728D01*
X124547631Y-63387917D01*
X124560047Y-63395358D01*
X124571673Y-63403981D01*
X124582398Y-63413702D01*
X124592119Y-63424427D01*
X124600742Y-63436053D01*
X124608183Y-63448469D01*
X124614372Y-63461554D01*
X124619249Y-63475183D01*
X124622766Y-63489224D01*
X124624890Y-63503542D01*
X124625600Y-63518000D01*
X124625600Y-63863000D01*
X124624890Y-63877458D01*
X124622766Y-63891776D01*
X124619249Y-63905817D01*
X124614372Y-63919446D01*
X124608183Y-63932531D01*
X124600742Y-63944947D01*
X124592119Y-63956573D01*
X124582398Y-63967298D01*
X124571673Y-63977019D01*
X124560047Y-63985642D01*
X124547631Y-63993083D01*
X124534546Y-63999272D01*
X124520917Y-64004149D01*
X124506876Y-64007666D01*
X124492558Y-64009790D01*
X124478100Y-64010500D01*
X124183100Y-64010500D01*
X124168642Y-64009790D01*
X124154324Y-64007666D01*
X124140283Y-64004149D01*
X124126654Y-63999272D01*
X124113569Y-63993083D01*
X124101153Y-63985642D01*
X124089527Y-63977019D01*
X124078802Y-63967298D01*
X124069081Y-63956573D01*
X124060458Y-63944947D01*
X124053017Y-63932531D01*
X124046828Y-63919446D01*
X124041951Y-63905817D01*
X124038434Y-63891776D01*
X124036310Y-63877458D01*
X124035600Y-63863000D01*
X124035600Y-63518000D01*
X124036310Y-63503542D01*
X124038434Y-63489224D01*
X124041951Y-63475183D01*
X124046828Y-63461554D01*
X124053017Y-63448469D01*
X124060458Y-63436053D01*
X124069081Y-63424427D01*
X124078802Y-63413702D01*
X124089527Y-63403981D01*
X124101153Y-63395358D01*
X124113569Y-63387917D01*
X124126654Y-63381728D01*
X124140283Y-63376851D01*
X124154324Y-63373334D01*
X124168642Y-63371210D01*
X124183100Y-63370500D01*
X124478100Y-63370500D01*
X124492558Y-63371210D01*
G37*
G36*
X125462558Y-63371210D02*
G01*
X125476876Y-63373334D01*
X125490917Y-63376851D01*
X125504546Y-63381728D01*
X125517631Y-63387917D01*
X125530047Y-63395358D01*
X125541673Y-63403981D01*
X125552398Y-63413702D01*
X125562119Y-63424427D01*
X125570742Y-63436053D01*
X125578183Y-63448469D01*
X125584372Y-63461554D01*
X125589249Y-63475183D01*
X125592766Y-63489224D01*
X125594890Y-63503542D01*
X125595600Y-63518000D01*
X125595600Y-63863000D01*
X125594890Y-63877458D01*
X125592766Y-63891776D01*
X125589249Y-63905817D01*
X125584372Y-63919446D01*
X125578183Y-63932531D01*
X125570742Y-63944947D01*
X125562119Y-63956573D01*
X125552398Y-63967298D01*
X125541673Y-63977019D01*
X125530047Y-63985642D01*
X125517631Y-63993083D01*
X125504546Y-63999272D01*
X125490917Y-64004149D01*
X125476876Y-64007666D01*
X125462558Y-64009790D01*
X125448100Y-64010500D01*
X125153100Y-64010500D01*
X125138642Y-64009790D01*
X125124324Y-64007666D01*
X125110283Y-64004149D01*
X125096654Y-63999272D01*
X125083569Y-63993083D01*
X125071153Y-63985642D01*
X125059527Y-63977019D01*
X125048802Y-63967298D01*
X125039081Y-63956573D01*
X125030458Y-63944947D01*
X125023017Y-63932531D01*
X125016828Y-63919446D01*
X125011951Y-63905817D01*
X125008434Y-63891776D01*
X125006310Y-63877458D01*
X125005600Y-63863000D01*
X125005600Y-63518000D01*
X125006310Y-63503542D01*
X125008434Y-63489224D01*
X125011951Y-63475183D01*
X125016828Y-63461554D01*
X125023017Y-63448469D01*
X125030458Y-63436053D01*
X125039081Y-63424427D01*
X125048802Y-63413702D01*
X125059527Y-63403981D01*
X125071153Y-63395358D01*
X125083569Y-63387917D01*
X125096654Y-63381728D01*
X125110283Y-63376851D01*
X125124324Y-63373334D01*
X125138642Y-63371210D01*
X125153100Y-63370500D01*
X125448100Y-63370500D01*
X125462558Y-63371210D01*
G37*
G36*
X114385758Y-63079110D02*
G01*
X114400076Y-63081234D01*
X114414117Y-63084751D01*
X114427746Y-63089628D01*
X114440831Y-63095817D01*
X114453247Y-63103258D01*
X114464873Y-63111881D01*
X114475598Y-63121602D01*
X114485319Y-63132327D01*
X114493942Y-63143953D01*
X114501383Y-63156369D01*
X114507572Y-63169454D01*
X114512449Y-63183083D01*
X114515966Y-63197124D01*
X114518090Y-63211442D01*
X114518800Y-63225900D01*
X114518800Y-63570900D01*
X114518090Y-63585358D01*
X114515966Y-63599676D01*
X114512449Y-63613717D01*
X114507572Y-63627346D01*
X114501383Y-63640431D01*
X114493942Y-63652847D01*
X114485319Y-63664473D01*
X114475598Y-63675198D01*
X114464873Y-63684919D01*
X114453247Y-63693542D01*
X114440831Y-63700983D01*
X114427746Y-63707172D01*
X114414117Y-63712049D01*
X114400076Y-63715566D01*
X114385758Y-63717690D01*
X114371300Y-63718400D01*
X114076300Y-63718400D01*
X114061842Y-63717690D01*
X114047524Y-63715566D01*
X114033483Y-63712049D01*
X114019854Y-63707172D01*
X114006769Y-63700983D01*
X113994353Y-63693542D01*
X113982727Y-63684919D01*
X113972002Y-63675198D01*
X113962281Y-63664473D01*
X113953658Y-63652847D01*
X113946217Y-63640431D01*
X113940028Y-63627346D01*
X113935151Y-63613717D01*
X113931634Y-63599676D01*
X113929510Y-63585358D01*
X113928800Y-63570900D01*
X113928800Y-63225900D01*
X113929510Y-63211442D01*
X113931634Y-63197124D01*
X113935151Y-63183083D01*
X113940028Y-63169454D01*
X113946217Y-63156369D01*
X113953658Y-63143953D01*
X113962281Y-63132327D01*
X113972002Y-63121602D01*
X113982727Y-63111881D01*
X113994353Y-63103258D01*
X114006769Y-63095817D01*
X114019854Y-63089628D01*
X114033483Y-63084751D01*
X114047524Y-63081234D01*
X114061842Y-63079110D01*
X114076300Y-63078400D01*
X114371300Y-63078400D01*
X114385758Y-63079110D01*
G37*
G36*
X115355758Y-63079110D02*
G01*
X115370076Y-63081234D01*
X115384117Y-63084751D01*
X115397746Y-63089628D01*
X115410831Y-63095817D01*
X115423247Y-63103258D01*
X115434873Y-63111881D01*
X115445598Y-63121602D01*
X115455319Y-63132327D01*
X115463942Y-63143953D01*
X115471383Y-63156369D01*
X115477572Y-63169454D01*
X115482449Y-63183083D01*
X115485966Y-63197124D01*
X115488090Y-63211442D01*
X115488800Y-63225900D01*
X115488800Y-63570900D01*
X115488090Y-63585358D01*
X115485966Y-63599676D01*
X115482449Y-63613717D01*
X115477572Y-63627346D01*
X115471383Y-63640431D01*
X115463942Y-63652847D01*
X115455319Y-63664473D01*
X115445598Y-63675198D01*
X115434873Y-63684919D01*
X115423247Y-63693542D01*
X115410831Y-63700983D01*
X115397746Y-63707172D01*
X115384117Y-63712049D01*
X115370076Y-63715566D01*
X115355758Y-63717690D01*
X115341300Y-63718400D01*
X115046300Y-63718400D01*
X115031842Y-63717690D01*
X115017524Y-63715566D01*
X115003483Y-63712049D01*
X114989854Y-63707172D01*
X114976769Y-63700983D01*
X114964353Y-63693542D01*
X114952727Y-63684919D01*
X114942002Y-63675198D01*
X114932281Y-63664473D01*
X114923658Y-63652847D01*
X114916217Y-63640431D01*
X114910028Y-63627346D01*
X114905151Y-63613717D01*
X114901634Y-63599676D01*
X114899510Y-63585358D01*
X114898800Y-63570900D01*
X114898800Y-63225900D01*
X114899510Y-63211442D01*
X114901634Y-63197124D01*
X114905151Y-63183083D01*
X114910028Y-63169454D01*
X114916217Y-63156369D01*
X114923658Y-63143953D01*
X114932281Y-63132327D01*
X114942002Y-63121602D01*
X114952727Y-63111881D01*
X114964353Y-63103258D01*
X114976769Y-63095817D01*
X114989854Y-63089628D01*
X115003483Y-63084751D01*
X115017524Y-63081234D01*
X115031842Y-63079110D01*
X115046300Y-63078400D01*
X115341300Y-63078400D01*
X115355758Y-63079110D01*
G37*
G36*
X117852458Y-57574810D02*
G01*
X117866776Y-57576934D01*
X117880817Y-57580451D01*
X117894446Y-57585328D01*
X117907531Y-57591517D01*
X117919947Y-57598958D01*
X117931573Y-57607581D01*
X117942298Y-57617302D01*
X117952019Y-57628027D01*
X117960642Y-57639653D01*
X117968083Y-57652069D01*
X117974272Y-57665154D01*
X117979149Y-57678783D01*
X117982666Y-57692824D01*
X117984790Y-57707142D01*
X117985500Y-57721600D01*
X117985500Y-58016600D01*
X117984790Y-58031058D01*
X117982666Y-58045376D01*
X117979149Y-58059417D01*
X117974272Y-58073046D01*
X117968083Y-58086131D01*
X117960642Y-58098547D01*
X117952019Y-58110173D01*
X117942298Y-58120898D01*
X117931573Y-58130619D01*
X117919947Y-58139242D01*
X117907531Y-58146683D01*
X117894446Y-58152872D01*
X117880817Y-58157749D01*
X117866776Y-58161266D01*
X117852458Y-58163390D01*
X117838000Y-58164100D01*
X117493000Y-58164100D01*
X117478542Y-58163390D01*
X117464224Y-58161266D01*
X117450183Y-58157749D01*
X117436554Y-58152872D01*
X117423469Y-58146683D01*
X117411053Y-58139242D01*
X117399427Y-58130619D01*
X117388702Y-58120898D01*
X117378981Y-58110173D01*
X117370358Y-58098547D01*
X117362917Y-58086131D01*
X117356728Y-58073046D01*
X117351851Y-58059417D01*
X117348334Y-58045376D01*
X117346210Y-58031058D01*
X117345500Y-58016600D01*
X117345500Y-57721600D01*
X117346210Y-57707142D01*
X117348334Y-57692824D01*
X117351851Y-57678783D01*
X117356728Y-57665154D01*
X117362917Y-57652069D01*
X117370358Y-57639653D01*
X117378981Y-57628027D01*
X117388702Y-57617302D01*
X117399427Y-57607581D01*
X117411053Y-57598958D01*
X117423469Y-57591517D01*
X117436554Y-57585328D01*
X117450183Y-57580451D01*
X117464224Y-57576934D01*
X117478542Y-57574810D01*
X117493000Y-57574100D01*
X117838000Y-57574100D01*
X117852458Y-57574810D01*
G37*
G36*
X117852458Y-58544810D02*
G01*
X117866776Y-58546934D01*
X117880817Y-58550451D01*
X117894446Y-58555328D01*
X117907531Y-58561517D01*
X117919947Y-58568958D01*
X117931573Y-58577581D01*
X117942298Y-58587302D01*
X117952019Y-58598027D01*
X117960642Y-58609653D01*
X117968083Y-58622069D01*
X117974272Y-58635154D01*
X117979149Y-58648783D01*
X117982666Y-58662824D01*
X117984790Y-58677142D01*
X117985500Y-58691600D01*
X117985500Y-58986600D01*
X117984790Y-59001058D01*
X117982666Y-59015376D01*
X117979149Y-59029417D01*
X117974272Y-59043046D01*
X117968083Y-59056131D01*
X117960642Y-59068547D01*
X117952019Y-59080173D01*
X117942298Y-59090898D01*
X117931573Y-59100619D01*
X117919947Y-59109242D01*
X117907531Y-59116683D01*
X117894446Y-59122872D01*
X117880817Y-59127749D01*
X117866776Y-59131266D01*
X117852458Y-59133390D01*
X117838000Y-59134100D01*
X117493000Y-59134100D01*
X117478542Y-59133390D01*
X117464224Y-59131266D01*
X117450183Y-59127749D01*
X117436554Y-59122872D01*
X117423469Y-59116683D01*
X117411053Y-59109242D01*
X117399427Y-59100619D01*
X117388702Y-59090898D01*
X117378981Y-59080173D01*
X117370358Y-59068547D01*
X117362917Y-59056131D01*
X117356728Y-59043046D01*
X117351851Y-59029417D01*
X117348334Y-59015376D01*
X117346210Y-59001058D01*
X117345500Y-58986600D01*
X117345500Y-58691600D01*
X117346210Y-58677142D01*
X117348334Y-58662824D01*
X117351851Y-58648783D01*
X117356728Y-58635154D01*
X117362917Y-58622069D01*
X117370358Y-58609653D01*
X117378981Y-58598027D01*
X117388702Y-58587302D01*
X117399427Y-58577581D01*
X117411053Y-58568958D01*
X117423469Y-58561517D01*
X117436554Y-58555328D01*
X117450183Y-58550451D01*
X117464224Y-58546934D01*
X117478542Y-58544810D01*
X117493000Y-58544100D01*
X117838000Y-58544100D01*
X117852458Y-58544810D01*
G37*
M02*
