G04 #@! TF.GenerationSoftware,KiCad,Pcbnew,(5.1.5)-3*
G04 #@! TF.CreationDate,2022-01-20T18:21:30+01:00*
G04 #@! TF.ProjectId,HB-ES-PMSwX-Pl_Gosund,48422d45-532d-4504-9d53-77582d506c5f,rev?*
G04 #@! TF.SameCoordinates,Original*
G04 #@! TF.FileFunction,Copper,L3,Inr*
G04 #@! TF.FilePolarity,Positive*
%FSLAX46Y46*%
G04 Gerber Fmt 4.6, Leading zero omitted, Abs format (unit mm)*
G04 Created by KiCad (PCBNEW (5.1.5)-3) date 2022-01-20 18:21:30*
%MOMM*%
%LPD*%
G04 APERTURE LIST*
%ADD10R,1.700000X1.700000*%
%ADD11C,0.600000*%
%ADD12C,0.500000*%
%ADD13C,0.250000*%
%ADD14C,0.254000*%
G04 APERTURE END LIST*
D10*
X126695200Y-66040000D03*
D11*
X121335800Y-65608200D03*
X123342400Y-67513200D03*
X121488200Y-57861200D03*
X118592600Y-69062600D03*
X114223800Y-63398400D03*
X122000000Y-71000000D03*
X120472200Y-57886600D03*
X117678200Y-57886600D03*
X114858800Y-57861200D03*
X114223800Y-70332600D03*
X123380500Y-59702700D03*
X126365000Y-60718700D03*
X125298200Y-63690500D03*
X120091200Y-67818000D03*
X115214400Y-63398400D03*
X120472200Y-58877200D03*
X117678200Y-58826400D03*
X114833400Y-58826400D03*
X121488200Y-58877200D03*
X125298200Y-65557400D03*
X125298200Y-61671200D03*
X124409200Y-66852800D03*
X114740000Y-67840000D03*
X115951000Y-70332600D03*
X124409200Y-65862200D03*
X114020000Y-67390000D03*
X112115600Y-69367400D03*
X112115600Y-67945000D03*
X112115600Y-66548000D03*
X112115600Y-63754000D03*
X112115600Y-65151000D03*
X112115600Y-62357000D03*
X115443000Y-60147200D03*
X123571000Y-69392800D03*
X114604800Y-60147200D03*
X122072400Y-69189600D03*
X116281200Y-60147200D03*
X124409200Y-67716400D03*
X113625000Y-64225000D03*
X115340000Y-67320000D03*
D12*
X114858800Y-57861200D02*
X117652800Y-57861200D01*
X117678200Y-57886600D02*
X120472200Y-57886600D01*
X120472200Y-57886600D02*
X121462800Y-57886600D01*
X121335800Y-65608200D02*
X123240800Y-67513200D01*
X113889632Y-63064232D02*
X114223800Y-63398400D01*
X113879799Y-58420201D02*
X113879799Y-63054399D01*
X114438800Y-57861200D02*
X113879799Y-58420201D01*
X114858800Y-57861200D02*
X114438800Y-57861200D01*
X114223800Y-70332600D02*
X116803001Y-67753399D01*
X122053885Y-57861200D02*
X121488200Y-57861200D01*
X122213201Y-58020516D02*
X122053885Y-57861200D01*
X122213201Y-64730799D02*
X122213201Y-58020516D01*
X121335800Y-65608200D02*
X122213201Y-64730799D01*
X114223800Y-63818400D02*
X114223800Y-63398400D01*
X116803001Y-66397601D02*
X114223800Y-63818400D01*
X116803001Y-67753399D02*
X116803001Y-66397601D01*
D13*
X125134201Y-68902601D02*
X123919001Y-70117801D01*
X125134201Y-66504799D02*
X125134201Y-68902601D01*
X124757201Y-66127799D02*
X125134201Y-66504799D01*
X124522399Y-66127799D02*
X124757201Y-66127799D01*
X124409200Y-66014600D02*
X124522399Y-66127799D01*
X124409200Y-65862200D02*
X124409200Y-66014600D01*
X116516685Y-70332600D02*
X115951000Y-70332600D01*
X116731484Y-70117801D02*
X116516685Y-70332600D01*
X123919001Y-70117801D02*
X116731484Y-70117801D01*
X123171001Y-68992801D02*
X123571000Y-69392800D01*
X122948603Y-68992801D02*
X123171001Y-68992801D01*
X115443000Y-61487198D02*
X122948603Y-68992801D01*
X115443000Y-60147200D02*
X115443000Y-61487198D01*
X119366199Y-68166001D02*
X120389798Y-69189600D01*
X119366199Y-66502597D02*
X119366199Y-68166001D01*
X114604800Y-61741198D02*
X119366199Y-66502597D01*
X114604800Y-60147200D02*
X114604800Y-61741198D01*
X120389798Y-69189600D02*
X122072400Y-69189600D01*
X123887399Y-68238201D02*
X124409200Y-67716400D01*
X122892799Y-68238201D02*
X123887399Y-68238201D01*
X116281200Y-61626602D02*
X122892799Y-68238201D01*
X116281200Y-60147200D02*
X116281200Y-61626602D01*
D14*
G36*
X114618372Y-64124662D02*
G01*
X114771511Y-64226986D01*
X114941671Y-64297468D01*
X115122311Y-64333400D01*
X115306489Y-64333400D01*
X115487129Y-64297468D01*
X115657289Y-64226986D01*
X115810428Y-64124662D01*
X115861945Y-64073145D01*
X118606199Y-66817399D01*
X118606200Y-68128669D01*
X118602523Y-68166001D01*
X118606200Y-68203334D01*
X118617197Y-68314987D01*
X118624421Y-68338802D01*
X118660653Y-68458247D01*
X118731225Y-68590277D01*
X118802400Y-68677003D01*
X118826199Y-68706002D01*
X118855197Y-68729800D01*
X119483197Y-69357801D01*
X116768809Y-69357801D01*
X116731484Y-69354125D01*
X116694159Y-69357801D01*
X116694151Y-69357801D01*
X116582498Y-69368798D01*
X116439237Y-69412255D01*
X116322720Y-69474535D01*
X116223729Y-69433532D01*
X116043089Y-69397600D01*
X115858911Y-69397600D01*
X115678271Y-69433532D01*
X115508111Y-69504014D01*
X115354972Y-69606338D01*
X115224738Y-69736572D01*
X115122414Y-69889711D01*
X115051932Y-70059871D01*
X115016000Y-70240511D01*
X115016000Y-70424689D01*
X115051932Y-70605329D01*
X115122414Y-70775489D01*
X115224738Y-70928628D01*
X115354972Y-71058862D01*
X115508111Y-71161186D01*
X115532287Y-71171200D01*
X113334400Y-71171200D01*
X113334400Y-70009419D01*
X113337593Y-69977000D01*
X113324850Y-69847617D01*
X113287110Y-69723207D01*
X113225825Y-69608550D01*
X113143348Y-69508052D01*
X113050600Y-69431935D01*
X113050600Y-69275311D01*
X113014668Y-69094671D01*
X112944186Y-68924511D01*
X112841862Y-68771372D01*
X112839462Y-68768972D01*
X112838508Y-68544382D01*
X112841862Y-68541028D01*
X112944186Y-68387889D01*
X113014668Y-68217729D01*
X113050600Y-68037089D01*
X113050600Y-67852911D01*
X113014668Y-67672271D01*
X112944186Y-67502111D01*
X112841862Y-67348972D01*
X112833394Y-67340504D01*
X112833214Y-67297911D01*
X113085000Y-67297911D01*
X113085000Y-67482089D01*
X113120932Y-67662729D01*
X113191414Y-67832889D01*
X113293738Y-67986028D01*
X113423972Y-68116262D01*
X113577111Y-68218586D01*
X113747271Y-68289068D01*
X113927911Y-68325000D01*
X113939552Y-68325000D01*
X114013738Y-68436028D01*
X114143972Y-68566262D01*
X114297111Y-68668586D01*
X114467271Y-68739068D01*
X114647911Y-68775000D01*
X114832089Y-68775000D01*
X115012729Y-68739068D01*
X115182889Y-68668586D01*
X115336028Y-68566262D01*
X115466262Y-68436028D01*
X115568586Y-68282889D01*
X115593431Y-68222907D01*
X115612729Y-68219068D01*
X115782889Y-68148586D01*
X115936028Y-68046262D01*
X116066262Y-67916028D01*
X116168586Y-67762889D01*
X116239068Y-67592729D01*
X116275000Y-67412089D01*
X116275000Y-67227911D01*
X116239068Y-67047271D01*
X116168586Y-66877111D01*
X116066262Y-66723972D01*
X115936028Y-66593738D01*
X115782889Y-66491414D01*
X115612729Y-66420932D01*
X115432089Y-66385000D01*
X115247911Y-66385000D01*
X115067271Y-66420932D01*
X114897111Y-66491414D01*
X114743972Y-66593738D01*
X114645000Y-66692710D01*
X114616028Y-66663738D01*
X114462889Y-66561414D01*
X114292729Y-66490932D01*
X114112089Y-66455000D01*
X113927911Y-66455000D01*
X113747271Y-66490932D01*
X113577111Y-66561414D01*
X113423972Y-66663738D01*
X113293738Y-66793972D01*
X113191414Y-66947111D01*
X113120932Y-67117271D01*
X113085000Y-67297911D01*
X112833214Y-67297911D01*
X112832599Y-67153291D01*
X112841862Y-67144028D01*
X112944186Y-66990889D01*
X113014668Y-66820729D01*
X113050600Y-66640089D01*
X113050600Y-66455911D01*
X113014668Y-66275271D01*
X112944186Y-66105111D01*
X112841862Y-65951972D01*
X112827434Y-65937544D01*
X112826689Y-65762201D01*
X112841862Y-65747028D01*
X112944186Y-65593889D01*
X113014668Y-65423729D01*
X113050600Y-65243089D01*
X113050600Y-65058911D01*
X113029220Y-64951428D01*
X113182111Y-65053586D01*
X113352271Y-65124068D01*
X113532911Y-65160000D01*
X113717089Y-65160000D01*
X113897729Y-65124068D01*
X114067889Y-65053586D01*
X114221028Y-64951262D01*
X114351262Y-64821028D01*
X114453586Y-64667889D01*
X114524068Y-64497729D01*
X114560000Y-64317089D01*
X114560000Y-64132911D01*
X114543458Y-64049748D01*
X114618372Y-64124662D01*
G37*
X114618372Y-64124662D02*
X114771511Y-64226986D01*
X114941671Y-64297468D01*
X115122311Y-64333400D01*
X115306489Y-64333400D01*
X115487129Y-64297468D01*
X115657289Y-64226986D01*
X115810428Y-64124662D01*
X115861945Y-64073145D01*
X118606199Y-66817399D01*
X118606200Y-68128669D01*
X118602523Y-68166001D01*
X118606200Y-68203334D01*
X118617197Y-68314987D01*
X118624421Y-68338802D01*
X118660653Y-68458247D01*
X118731225Y-68590277D01*
X118802400Y-68677003D01*
X118826199Y-68706002D01*
X118855197Y-68729800D01*
X119483197Y-69357801D01*
X116768809Y-69357801D01*
X116731484Y-69354125D01*
X116694159Y-69357801D01*
X116694151Y-69357801D01*
X116582498Y-69368798D01*
X116439237Y-69412255D01*
X116322720Y-69474535D01*
X116223729Y-69433532D01*
X116043089Y-69397600D01*
X115858911Y-69397600D01*
X115678271Y-69433532D01*
X115508111Y-69504014D01*
X115354972Y-69606338D01*
X115224738Y-69736572D01*
X115122414Y-69889711D01*
X115051932Y-70059871D01*
X115016000Y-70240511D01*
X115016000Y-70424689D01*
X115051932Y-70605329D01*
X115122414Y-70775489D01*
X115224738Y-70928628D01*
X115354972Y-71058862D01*
X115508111Y-71161186D01*
X115532287Y-71171200D01*
X113334400Y-71171200D01*
X113334400Y-70009419D01*
X113337593Y-69977000D01*
X113324850Y-69847617D01*
X113287110Y-69723207D01*
X113225825Y-69608550D01*
X113143348Y-69508052D01*
X113050600Y-69431935D01*
X113050600Y-69275311D01*
X113014668Y-69094671D01*
X112944186Y-68924511D01*
X112841862Y-68771372D01*
X112839462Y-68768972D01*
X112838508Y-68544382D01*
X112841862Y-68541028D01*
X112944186Y-68387889D01*
X113014668Y-68217729D01*
X113050600Y-68037089D01*
X113050600Y-67852911D01*
X113014668Y-67672271D01*
X112944186Y-67502111D01*
X112841862Y-67348972D01*
X112833394Y-67340504D01*
X112833214Y-67297911D01*
X113085000Y-67297911D01*
X113085000Y-67482089D01*
X113120932Y-67662729D01*
X113191414Y-67832889D01*
X113293738Y-67986028D01*
X113423972Y-68116262D01*
X113577111Y-68218586D01*
X113747271Y-68289068D01*
X113927911Y-68325000D01*
X113939552Y-68325000D01*
X114013738Y-68436028D01*
X114143972Y-68566262D01*
X114297111Y-68668586D01*
X114467271Y-68739068D01*
X114647911Y-68775000D01*
X114832089Y-68775000D01*
X115012729Y-68739068D01*
X115182889Y-68668586D01*
X115336028Y-68566262D01*
X115466262Y-68436028D01*
X115568586Y-68282889D01*
X115593431Y-68222907D01*
X115612729Y-68219068D01*
X115782889Y-68148586D01*
X115936028Y-68046262D01*
X116066262Y-67916028D01*
X116168586Y-67762889D01*
X116239068Y-67592729D01*
X116275000Y-67412089D01*
X116275000Y-67227911D01*
X116239068Y-67047271D01*
X116168586Y-66877111D01*
X116066262Y-66723972D01*
X115936028Y-66593738D01*
X115782889Y-66491414D01*
X115612729Y-66420932D01*
X115432089Y-66385000D01*
X115247911Y-66385000D01*
X115067271Y-66420932D01*
X114897111Y-66491414D01*
X114743972Y-66593738D01*
X114645000Y-66692710D01*
X114616028Y-66663738D01*
X114462889Y-66561414D01*
X114292729Y-66490932D01*
X114112089Y-66455000D01*
X113927911Y-66455000D01*
X113747271Y-66490932D01*
X113577111Y-66561414D01*
X113423972Y-66663738D01*
X113293738Y-66793972D01*
X113191414Y-66947111D01*
X113120932Y-67117271D01*
X113085000Y-67297911D01*
X112833214Y-67297911D01*
X112832599Y-67153291D01*
X112841862Y-67144028D01*
X112944186Y-66990889D01*
X113014668Y-66820729D01*
X113050600Y-66640089D01*
X113050600Y-66455911D01*
X113014668Y-66275271D01*
X112944186Y-66105111D01*
X112841862Y-65951972D01*
X112827434Y-65937544D01*
X112826689Y-65762201D01*
X112841862Y-65747028D01*
X112944186Y-65593889D01*
X113014668Y-65423729D01*
X113050600Y-65243089D01*
X113050600Y-65058911D01*
X113029220Y-64951428D01*
X113182111Y-65053586D01*
X113352271Y-65124068D01*
X113532911Y-65160000D01*
X113717089Y-65160000D01*
X113897729Y-65124068D01*
X114067889Y-65053586D01*
X114221028Y-64951262D01*
X114351262Y-64821028D01*
X114453586Y-64667889D01*
X114524068Y-64497729D01*
X114560000Y-64317089D01*
X114560000Y-64132911D01*
X114543458Y-64049748D01*
X114618372Y-64124662D01*
G36*
X127025801Y-71171200D02*
G01*
X116369713Y-71171200D01*
X116393889Y-71161186D01*
X116494329Y-71094074D01*
X116516685Y-71096276D01*
X116554007Y-71092600D01*
X116554018Y-71092600D01*
X116665671Y-71081603D01*
X116808932Y-71038146D01*
X116940961Y-70967574D01*
X117050350Y-70877801D01*
X123881679Y-70877801D01*
X123919001Y-70881477D01*
X123956323Y-70877801D01*
X123956334Y-70877801D01*
X124067987Y-70866804D01*
X124211248Y-70823347D01*
X124343277Y-70752775D01*
X124459002Y-70657802D01*
X124482805Y-70628798D01*
X125645204Y-69466400D01*
X125674202Y-69442602D01*
X125769175Y-69326877D01*
X125839747Y-69194848D01*
X125883204Y-69051587D01*
X125894201Y-68939934D01*
X125894201Y-68939925D01*
X125897877Y-68902602D01*
X125894201Y-68865279D01*
X125894201Y-67528072D01*
X127025801Y-67528072D01*
X127025801Y-71171200D01*
G37*
X127025801Y-71171200D02*
X116369713Y-71171200D01*
X116393889Y-71161186D01*
X116494329Y-71094074D01*
X116516685Y-71096276D01*
X116554007Y-71092600D01*
X116554018Y-71092600D01*
X116665671Y-71081603D01*
X116808932Y-71038146D01*
X116940961Y-70967574D01*
X117050350Y-70877801D01*
X123881679Y-70877801D01*
X123919001Y-70881477D01*
X123956323Y-70877801D01*
X123956334Y-70877801D01*
X124067987Y-70866804D01*
X124211248Y-70823347D01*
X124343277Y-70752775D01*
X124459002Y-70657802D01*
X124482805Y-70628798D01*
X125645204Y-69466400D01*
X125674202Y-69442602D01*
X125769175Y-69326877D01*
X125839747Y-69194848D01*
X125883204Y-69051587D01*
X125894201Y-68939934D01*
X125894201Y-68939925D01*
X125897877Y-68902602D01*
X125894201Y-68865279D01*
X125894201Y-67528072D01*
X127025801Y-67528072D01*
X127025801Y-71171200D01*
G36*
X127025801Y-64551928D02*
G01*
X125845200Y-64551928D01*
X125720718Y-64564188D01*
X125601020Y-64600498D01*
X125514005Y-64647009D01*
X125398081Y-64623950D01*
X125570929Y-64589568D01*
X125741089Y-64519086D01*
X125894228Y-64416762D01*
X126024462Y-64286528D01*
X126126786Y-64133389D01*
X126197268Y-63963229D01*
X126233200Y-63782589D01*
X126233200Y-63598411D01*
X126197268Y-63417771D01*
X126126786Y-63247611D01*
X126024462Y-63094472D01*
X125894228Y-62964238D01*
X125741089Y-62861914D01*
X125570929Y-62791432D01*
X125390289Y-62755500D01*
X125206111Y-62755500D01*
X125025471Y-62791432D01*
X124855311Y-62861914D01*
X124702172Y-62964238D01*
X124571938Y-63094472D01*
X124469614Y-63247611D01*
X124399132Y-63417771D01*
X124363200Y-63598411D01*
X124363200Y-63782589D01*
X124399132Y-63963229D01*
X124469614Y-64133389D01*
X124571938Y-64286528D01*
X124702172Y-64416762D01*
X124855311Y-64519086D01*
X125025471Y-64589568D01*
X125198319Y-64623950D01*
X125025471Y-64658332D01*
X124855311Y-64728814D01*
X124702172Y-64831138D01*
X124588719Y-64944591D01*
X124501289Y-64927200D01*
X124317111Y-64927200D01*
X124136471Y-64963132D01*
X123966311Y-65033614D01*
X123813172Y-65135938D01*
X123682938Y-65266172D01*
X123580614Y-65419311D01*
X123510132Y-65589471D01*
X123474200Y-65770111D01*
X123474200Y-65954289D01*
X123510132Y-66134929D01*
X123580614Y-66305089D01*
X123615634Y-66357500D01*
X123580614Y-66409911D01*
X123510132Y-66580071D01*
X123474200Y-66760711D01*
X123474200Y-66944889D01*
X123510132Y-67125529D01*
X123576021Y-67284600D01*
X123510132Y-67443671D01*
X123503263Y-67478201D01*
X123207601Y-67478201D01*
X117308511Y-61579111D01*
X124363200Y-61579111D01*
X124363200Y-61763289D01*
X124399132Y-61943929D01*
X124469614Y-62114089D01*
X124571938Y-62267228D01*
X124702172Y-62397462D01*
X124855311Y-62499786D01*
X125025471Y-62570268D01*
X125206111Y-62606200D01*
X125390289Y-62606200D01*
X125570929Y-62570268D01*
X125741089Y-62499786D01*
X125894228Y-62397462D01*
X126024462Y-62267228D01*
X126126786Y-62114089D01*
X126197268Y-61943929D01*
X126233200Y-61763289D01*
X126233200Y-61579111D01*
X126197268Y-61398471D01*
X126126786Y-61228311D01*
X126024462Y-61075172D01*
X125894228Y-60944938D01*
X125741089Y-60842614D01*
X125570929Y-60772132D01*
X125390289Y-60736200D01*
X125206111Y-60736200D01*
X125025471Y-60772132D01*
X124855311Y-60842614D01*
X124702172Y-60944938D01*
X124571938Y-61075172D01*
X124469614Y-61228311D01*
X124399132Y-61398471D01*
X124363200Y-61579111D01*
X117308511Y-61579111D01*
X117041200Y-61311801D01*
X117041200Y-60692735D01*
X117109786Y-60590089D01*
X117180268Y-60419929D01*
X117216200Y-60239289D01*
X117216200Y-60055111D01*
X117180268Y-59874471D01*
X117109786Y-59704311D01*
X117007462Y-59551172D01*
X116877228Y-59420938D01*
X116724089Y-59318614D01*
X116553929Y-59248132D01*
X116373289Y-59212200D01*
X116189111Y-59212200D01*
X116008471Y-59248132D01*
X115862100Y-59308760D01*
X115715729Y-59248132D01*
X115674173Y-59239866D01*
X115732468Y-59099129D01*
X115768400Y-58918489D01*
X115768400Y-58734311D01*
X116743200Y-58734311D01*
X116743200Y-58918489D01*
X116779132Y-59099129D01*
X116849614Y-59269289D01*
X116951938Y-59422428D01*
X117082172Y-59552662D01*
X117235311Y-59654986D01*
X117405471Y-59725468D01*
X117586111Y-59761400D01*
X117770289Y-59761400D01*
X117950929Y-59725468D01*
X118121089Y-59654986D01*
X118274228Y-59552662D01*
X118404462Y-59422428D01*
X118506786Y-59269289D01*
X118577268Y-59099129D01*
X118613200Y-58918489D01*
X118613200Y-58785111D01*
X119537200Y-58785111D01*
X119537200Y-58969289D01*
X119573132Y-59149929D01*
X119643614Y-59320089D01*
X119745938Y-59473228D01*
X119876172Y-59603462D01*
X120029311Y-59705786D01*
X120199471Y-59776268D01*
X120380111Y-59812200D01*
X120564289Y-59812200D01*
X120744929Y-59776268D01*
X120915089Y-59705786D01*
X120980200Y-59662280D01*
X121045311Y-59705786D01*
X121215471Y-59776268D01*
X121396111Y-59812200D01*
X121580289Y-59812200D01*
X121760929Y-59776268D01*
X121931089Y-59705786D01*
X122084228Y-59603462D01*
X122214462Y-59473228D01*
X122316786Y-59320089D01*
X122387268Y-59149929D01*
X122423200Y-58969289D01*
X122423200Y-58785111D01*
X122387268Y-58604471D01*
X122316786Y-58434311D01*
X122214462Y-58281172D01*
X122084228Y-58150938D01*
X121931089Y-58048614D01*
X121760929Y-57978132D01*
X121580289Y-57942200D01*
X121396111Y-57942200D01*
X121215471Y-57978132D01*
X121045311Y-58048614D01*
X120980200Y-58092120D01*
X120915089Y-58048614D01*
X120744929Y-57978132D01*
X120564289Y-57942200D01*
X120380111Y-57942200D01*
X120199471Y-57978132D01*
X120029311Y-58048614D01*
X119876172Y-58150938D01*
X119745938Y-58281172D01*
X119643614Y-58434311D01*
X119573132Y-58604471D01*
X119537200Y-58785111D01*
X118613200Y-58785111D01*
X118613200Y-58734311D01*
X118577268Y-58553671D01*
X118506786Y-58383511D01*
X118404462Y-58230372D01*
X118274228Y-58100138D01*
X118121089Y-57997814D01*
X117950929Y-57927332D01*
X117770289Y-57891400D01*
X117586111Y-57891400D01*
X117405471Y-57927332D01*
X117235311Y-57997814D01*
X117082172Y-58100138D01*
X116951938Y-58230372D01*
X116849614Y-58383511D01*
X116779132Y-58553671D01*
X116743200Y-58734311D01*
X115768400Y-58734311D01*
X115732468Y-58553671D01*
X115661986Y-58383511D01*
X115559662Y-58230372D01*
X115429428Y-58100138D01*
X115276289Y-57997814D01*
X115106129Y-57927332D01*
X114925489Y-57891400D01*
X114741311Y-57891400D01*
X114560671Y-57927332D01*
X114390511Y-57997814D01*
X114237372Y-58100138D01*
X114107138Y-58230372D01*
X114004814Y-58383511D01*
X113934332Y-58553671D01*
X113898400Y-58734311D01*
X113898400Y-58918489D01*
X113934332Y-59099129D01*
X114004814Y-59269289D01*
X114076088Y-59375959D01*
X114008772Y-59420938D01*
X113878538Y-59551172D01*
X113776214Y-59704311D01*
X113705732Y-59874471D01*
X113669800Y-60055111D01*
X113669800Y-60239289D01*
X113705732Y-60419929D01*
X113776214Y-60590089D01*
X113844800Y-60692736D01*
X113844801Y-61703866D01*
X113841124Y-61741198D01*
X113855798Y-61890183D01*
X113899254Y-62033444D01*
X113969826Y-62165474D01*
X114027871Y-62236201D01*
X114064800Y-62281199D01*
X114093798Y-62304997D01*
X114539655Y-62750855D01*
X114488138Y-62802372D01*
X114385814Y-62955511D01*
X114315332Y-63125671D01*
X114279400Y-63306311D01*
X114279400Y-63490489D01*
X114295942Y-63573652D01*
X114221028Y-63498738D01*
X114067889Y-63396414D01*
X113897729Y-63325932D01*
X113717089Y-63290000D01*
X113532911Y-63290000D01*
X113352271Y-63325932D01*
X113182111Y-63396414D01*
X113028972Y-63498738D01*
X113019939Y-63507771D01*
X113014668Y-63481271D01*
X112944186Y-63311111D01*
X112841862Y-63157972D01*
X112815514Y-63131624D01*
X112814870Y-62980020D01*
X112841862Y-62953028D01*
X112944186Y-62799889D01*
X113014668Y-62629729D01*
X113050600Y-62449089D01*
X113050600Y-62264911D01*
X113014668Y-62084271D01*
X112944186Y-61914111D01*
X112841862Y-61760972D01*
X112809554Y-61728664D01*
X112806244Y-60949304D01*
X112928193Y-60912310D01*
X113042850Y-60851025D01*
X113143348Y-60768548D01*
X113225825Y-60668050D01*
X113287110Y-60553393D01*
X113324850Y-60428983D01*
X113337593Y-60299600D01*
X113334400Y-60267181D01*
X113334400Y-57403600D01*
X127025800Y-57403600D01*
X127025801Y-64551928D01*
G37*
X127025801Y-64551928D02*
X125845200Y-64551928D01*
X125720718Y-64564188D01*
X125601020Y-64600498D01*
X125514005Y-64647009D01*
X125398081Y-64623950D01*
X125570929Y-64589568D01*
X125741089Y-64519086D01*
X125894228Y-64416762D01*
X126024462Y-64286528D01*
X126126786Y-64133389D01*
X126197268Y-63963229D01*
X126233200Y-63782589D01*
X126233200Y-63598411D01*
X126197268Y-63417771D01*
X126126786Y-63247611D01*
X126024462Y-63094472D01*
X125894228Y-62964238D01*
X125741089Y-62861914D01*
X125570929Y-62791432D01*
X125390289Y-62755500D01*
X125206111Y-62755500D01*
X125025471Y-62791432D01*
X124855311Y-62861914D01*
X124702172Y-62964238D01*
X124571938Y-63094472D01*
X124469614Y-63247611D01*
X124399132Y-63417771D01*
X124363200Y-63598411D01*
X124363200Y-63782589D01*
X124399132Y-63963229D01*
X124469614Y-64133389D01*
X124571938Y-64286528D01*
X124702172Y-64416762D01*
X124855311Y-64519086D01*
X125025471Y-64589568D01*
X125198319Y-64623950D01*
X125025471Y-64658332D01*
X124855311Y-64728814D01*
X124702172Y-64831138D01*
X124588719Y-64944591D01*
X124501289Y-64927200D01*
X124317111Y-64927200D01*
X124136471Y-64963132D01*
X123966311Y-65033614D01*
X123813172Y-65135938D01*
X123682938Y-65266172D01*
X123580614Y-65419311D01*
X123510132Y-65589471D01*
X123474200Y-65770111D01*
X123474200Y-65954289D01*
X123510132Y-66134929D01*
X123580614Y-66305089D01*
X123615634Y-66357500D01*
X123580614Y-66409911D01*
X123510132Y-66580071D01*
X123474200Y-66760711D01*
X123474200Y-66944889D01*
X123510132Y-67125529D01*
X123576021Y-67284600D01*
X123510132Y-67443671D01*
X123503263Y-67478201D01*
X123207601Y-67478201D01*
X117308511Y-61579111D01*
X124363200Y-61579111D01*
X124363200Y-61763289D01*
X124399132Y-61943929D01*
X124469614Y-62114089D01*
X124571938Y-62267228D01*
X124702172Y-62397462D01*
X124855311Y-62499786D01*
X125025471Y-62570268D01*
X125206111Y-62606200D01*
X125390289Y-62606200D01*
X125570929Y-62570268D01*
X125741089Y-62499786D01*
X125894228Y-62397462D01*
X126024462Y-62267228D01*
X126126786Y-62114089D01*
X126197268Y-61943929D01*
X126233200Y-61763289D01*
X126233200Y-61579111D01*
X126197268Y-61398471D01*
X126126786Y-61228311D01*
X126024462Y-61075172D01*
X125894228Y-60944938D01*
X125741089Y-60842614D01*
X125570929Y-60772132D01*
X125390289Y-60736200D01*
X125206111Y-60736200D01*
X125025471Y-60772132D01*
X124855311Y-60842614D01*
X124702172Y-60944938D01*
X124571938Y-61075172D01*
X124469614Y-61228311D01*
X124399132Y-61398471D01*
X124363200Y-61579111D01*
X117308511Y-61579111D01*
X117041200Y-61311801D01*
X117041200Y-60692735D01*
X117109786Y-60590089D01*
X117180268Y-60419929D01*
X117216200Y-60239289D01*
X117216200Y-60055111D01*
X117180268Y-59874471D01*
X117109786Y-59704311D01*
X117007462Y-59551172D01*
X116877228Y-59420938D01*
X116724089Y-59318614D01*
X116553929Y-59248132D01*
X116373289Y-59212200D01*
X116189111Y-59212200D01*
X116008471Y-59248132D01*
X115862100Y-59308760D01*
X115715729Y-59248132D01*
X115674173Y-59239866D01*
X115732468Y-59099129D01*
X115768400Y-58918489D01*
X115768400Y-58734311D01*
X116743200Y-58734311D01*
X116743200Y-58918489D01*
X116779132Y-59099129D01*
X116849614Y-59269289D01*
X116951938Y-59422428D01*
X117082172Y-59552662D01*
X117235311Y-59654986D01*
X117405471Y-59725468D01*
X117586111Y-59761400D01*
X117770289Y-59761400D01*
X117950929Y-59725468D01*
X118121089Y-59654986D01*
X118274228Y-59552662D01*
X118404462Y-59422428D01*
X118506786Y-59269289D01*
X118577268Y-59099129D01*
X118613200Y-58918489D01*
X118613200Y-58785111D01*
X119537200Y-58785111D01*
X119537200Y-58969289D01*
X119573132Y-59149929D01*
X119643614Y-59320089D01*
X119745938Y-59473228D01*
X119876172Y-59603462D01*
X120029311Y-59705786D01*
X120199471Y-59776268D01*
X120380111Y-59812200D01*
X120564289Y-59812200D01*
X120744929Y-59776268D01*
X120915089Y-59705786D01*
X120980200Y-59662280D01*
X121045311Y-59705786D01*
X121215471Y-59776268D01*
X121396111Y-59812200D01*
X121580289Y-59812200D01*
X121760929Y-59776268D01*
X121931089Y-59705786D01*
X122084228Y-59603462D01*
X122214462Y-59473228D01*
X122316786Y-59320089D01*
X122387268Y-59149929D01*
X122423200Y-58969289D01*
X122423200Y-58785111D01*
X122387268Y-58604471D01*
X122316786Y-58434311D01*
X122214462Y-58281172D01*
X122084228Y-58150938D01*
X121931089Y-58048614D01*
X121760929Y-57978132D01*
X121580289Y-57942200D01*
X121396111Y-57942200D01*
X121215471Y-57978132D01*
X121045311Y-58048614D01*
X120980200Y-58092120D01*
X120915089Y-58048614D01*
X120744929Y-57978132D01*
X120564289Y-57942200D01*
X120380111Y-57942200D01*
X120199471Y-57978132D01*
X120029311Y-58048614D01*
X119876172Y-58150938D01*
X119745938Y-58281172D01*
X119643614Y-58434311D01*
X119573132Y-58604471D01*
X119537200Y-58785111D01*
X118613200Y-58785111D01*
X118613200Y-58734311D01*
X118577268Y-58553671D01*
X118506786Y-58383511D01*
X118404462Y-58230372D01*
X118274228Y-58100138D01*
X118121089Y-57997814D01*
X117950929Y-57927332D01*
X117770289Y-57891400D01*
X117586111Y-57891400D01*
X117405471Y-57927332D01*
X117235311Y-57997814D01*
X117082172Y-58100138D01*
X116951938Y-58230372D01*
X116849614Y-58383511D01*
X116779132Y-58553671D01*
X116743200Y-58734311D01*
X115768400Y-58734311D01*
X115732468Y-58553671D01*
X115661986Y-58383511D01*
X115559662Y-58230372D01*
X115429428Y-58100138D01*
X115276289Y-57997814D01*
X115106129Y-57927332D01*
X114925489Y-57891400D01*
X114741311Y-57891400D01*
X114560671Y-57927332D01*
X114390511Y-57997814D01*
X114237372Y-58100138D01*
X114107138Y-58230372D01*
X114004814Y-58383511D01*
X113934332Y-58553671D01*
X113898400Y-58734311D01*
X113898400Y-58918489D01*
X113934332Y-59099129D01*
X114004814Y-59269289D01*
X114076088Y-59375959D01*
X114008772Y-59420938D01*
X113878538Y-59551172D01*
X113776214Y-59704311D01*
X113705732Y-59874471D01*
X113669800Y-60055111D01*
X113669800Y-60239289D01*
X113705732Y-60419929D01*
X113776214Y-60590089D01*
X113844800Y-60692736D01*
X113844801Y-61703866D01*
X113841124Y-61741198D01*
X113855798Y-61890183D01*
X113899254Y-62033444D01*
X113969826Y-62165474D01*
X114027871Y-62236201D01*
X114064800Y-62281199D01*
X114093798Y-62304997D01*
X114539655Y-62750855D01*
X114488138Y-62802372D01*
X114385814Y-62955511D01*
X114315332Y-63125671D01*
X114279400Y-63306311D01*
X114279400Y-63490489D01*
X114295942Y-63573652D01*
X114221028Y-63498738D01*
X114067889Y-63396414D01*
X113897729Y-63325932D01*
X113717089Y-63290000D01*
X113532911Y-63290000D01*
X113352271Y-63325932D01*
X113182111Y-63396414D01*
X113028972Y-63498738D01*
X113019939Y-63507771D01*
X113014668Y-63481271D01*
X112944186Y-63311111D01*
X112841862Y-63157972D01*
X112815514Y-63131624D01*
X112814870Y-62980020D01*
X112841862Y-62953028D01*
X112944186Y-62799889D01*
X113014668Y-62629729D01*
X113050600Y-62449089D01*
X113050600Y-62264911D01*
X113014668Y-62084271D01*
X112944186Y-61914111D01*
X112841862Y-61760972D01*
X112809554Y-61728664D01*
X112806244Y-60949304D01*
X112928193Y-60912310D01*
X113042850Y-60851025D01*
X113143348Y-60768548D01*
X113225825Y-60668050D01*
X113287110Y-60553393D01*
X113324850Y-60428983D01*
X113337593Y-60299600D01*
X113334400Y-60267181D01*
X113334400Y-57403600D01*
X127025800Y-57403600D01*
X127025801Y-64551928D01*
M02*
