G04 #@! TF.GenerationSoftware,KiCad,Pcbnew,(5.1.2)-1*
G04 #@! TF.CreationDate,2020-11-19T17:47:33+01:00*
G04 #@! TF.ProjectId,HB-ES-PMSwX-Pl_Gosund,48422d45-532d-4504-9d53-77582d506c5f,rev?*
G04 #@! TF.SameCoordinates,Original*
G04 #@! TF.FileFunction,Soldermask,Bot*
G04 #@! TF.FilePolarity,Negative*
%FSLAX46Y46*%
G04 Gerber Fmt 4.6, Leading zero omitted, Abs format (unit mm)*
G04 Created by KiCad (PCBNEW (5.1.2)-1) date 2020-11-19 17:47:33*
%MOMM*%
%LPD*%
G04 APERTURE LIST*
%ADD10C,0.100000*%
G04 APERTURE END LIST*
D10*
G36*
X120296938Y-69963916D02*
G01*
X120317557Y-69970171D01*
X120336553Y-69980324D01*
X120353208Y-69993992D01*
X120366876Y-70010647D01*
X120377029Y-70029643D01*
X120383284Y-70050262D01*
X120386000Y-70077840D01*
X120386000Y-70536560D01*
X120383284Y-70564138D01*
X120377029Y-70584757D01*
X120366876Y-70603753D01*
X120353208Y-70620408D01*
X120336553Y-70634076D01*
X120317557Y-70644229D01*
X120296938Y-70650484D01*
X120269360Y-70653200D01*
X119760640Y-70653200D01*
X119733062Y-70650484D01*
X119712443Y-70644229D01*
X119693447Y-70634076D01*
X119676792Y-70620408D01*
X119663124Y-70603753D01*
X119652971Y-70584757D01*
X119646716Y-70564138D01*
X119644000Y-70536560D01*
X119644000Y-70077840D01*
X119646716Y-70050262D01*
X119652971Y-70029643D01*
X119663124Y-70010647D01*
X119676792Y-69993992D01*
X119693447Y-69980324D01*
X119712443Y-69970171D01*
X119733062Y-69963916D01*
X119760640Y-69961200D01*
X120269360Y-69961200D01*
X120296938Y-69963916D01*
X120296938Y-69963916D01*
G37*
G36*
X120296938Y-68993916D02*
G01*
X120317557Y-69000171D01*
X120336553Y-69010324D01*
X120353208Y-69023992D01*
X120366876Y-69040647D01*
X120377029Y-69059643D01*
X120383284Y-69080262D01*
X120386000Y-69107840D01*
X120386000Y-69566560D01*
X120383284Y-69594138D01*
X120377029Y-69614757D01*
X120366876Y-69633753D01*
X120353208Y-69650408D01*
X120336553Y-69664076D01*
X120317557Y-69674229D01*
X120296938Y-69680484D01*
X120269360Y-69683200D01*
X119760640Y-69683200D01*
X119733062Y-69680484D01*
X119712443Y-69674229D01*
X119693447Y-69664076D01*
X119676792Y-69650408D01*
X119663124Y-69633753D01*
X119652971Y-69614757D01*
X119646716Y-69594138D01*
X119644000Y-69566560D01*
X119644000Y-69107840D01*
X119646716Y-69080262D01*
X119652971Y-69059643D01*
X119663124Y-69040647D01*
X119676792Y-69023992D01*
X119693447Y-69010324D01*
X119712443Y-69000171D01*
X119733062Y-68993916D01*
X119760640Y-68991200D01*
X120269360Y-68991200D01*
X120296938Y-68993916D01*
X120296938Y-68993916D01*
G37*
G36*
X112460100Y-69061000D02*
G01*
X109358100Y-69061000D01*
X109358100Y-68259000D01*
X112460100Y-68259000D01*
X112460100Y-69061000D01*
X112460100Y-69061000D01*
G37*
G36*
X112460100Y-67661000D02*
G01*
X109358100Y-67661000D01*
X109358100Y-66859000D01*
X112460100Y-66859000D01*
X112460100Y-67661000D01*
X112460100Y-67661000D01*
G37*
G36*
X117416355Y-59473483D02*
G01*
X117421029Y-59474901D01*
X117425330Y-59477200D01*
X117431702Y-59482429D01*
X117452076Y-59496043D01*
X117474715Y-59505420D01*
X117498749Y-59510200D01*
X117523253Y-59510200D01*
X117547286Y-59505419D01*
X117569925Y-59496042D01*
X117590298Y-59482429D01*
X117596670Y-59477200D01*
X117600971Y-59474901D01*
X117605645Y-59473483D01*
X117616641Y-59472400D01*
X117905359Y-59472400D01*
X117916355Y-59473483D01*
X117921029Y-59474901D01*
X117925330Y-59477200D01*
X117931702Y-59482429D01*
X117952076Y-59496043D01*
X117974715Y-59505420D01*
X117998749Y-59510200D01*
X118023253Y-59510200D01*
X118047286Y-59505419D01*
X118069925Y-59496042D01*
X118090298Y-59482429D01*
X118096670Y-59477200D01*
X118100971Y-59474901D01*
X118105645Y-59473483D01*
X118116641Y-59472400D01*
X118405359Y-59472400D01*
X118416355Y-59473483D01*
X118421029Y-59474901D01*
X118425330Y-59477200D01*
X118431702Y-59482429D01*
X118452076Y-59496043D01*
X118474715Y-59505420D01*
X118498749Y-59510200D01*
X118523253Y-59510200D01*
X118547286Y-59505419D01*
X118569925Y-59496042D01*
X118590298Y-59482429D01*
X118596670Y-59477200D01*
X118600971Y-59474901D01*
X118605645Y-59473483D01*
X118616641Y-59472400D01*
X118905359Y-59472400D01*
X118916355Y-59473483D01*
X118921029Y-59474901D01*
X118925330Y-59477200D01*
X118931702Y-59482429D01*
X118952076Y-59496043D01*
X118974715Y-59505420D01*
X118998749Y-59510200D01*
X119023253Y-59510200D01*
X119047286Y-59505419D01*
X119069925Y-59496042D01*
X119090298Y-59482429D01*
X119096670Y-59477200D01*
X119100971Y-59474901D01*
X119105645Y-59473483D01*
X119116641Y-59472400D01*
X119405359Y-59472400D01*
X119416355Y-59473483D01*
X119421029Y-59474901D01*
X119425330Y-59477200D01*
X119431702Y-59482429D01*
X119452076Y-59496043D01*
X119474715Y-59505420D01*
X119498749Y-59510200D01*
X119523253Y-59510200D01*
X119547286Y-59505419D01*
X119569925Y-59496042D01*
X119590298Y-59482429D01*
X119596670Y-59477200D01*
X119600971Y-59474901D01*
X119605645Y-59473483D01*
X119616641Y-59472400D01*
X119905359Y-59472400D01*
X119916355Y-59473483D01*
X119921029Y-59474901D01*
X119925330Y-59477200D01*
X119931702Y-59482429D01*
X119952076Y-59496043D01*
X119974715Y-59505420D01*
X119998749Y-59510200D01*
X120023253Y-59510200D01*
X120047286Y-59505419D01*
X120069925Y-59496042D01*
X120090298Y-59482429D01*
X120096670Y-59477200D01*
X120100971Y-59474901D01*
X120105645Y-59473483D01*
X120116641Y-59472400D01*
X120405359Y-59472400D01*
X120416355Y-59473483D01*
X120421029Y-59474901D01*
X120425330Y-59477200D01*
X120431702Y-59482429D01*
X120452076Y-59496043D01*
X120474715Y-59505420D01*
X120498749Y-59510200D01*
X120523253Y-59510200D01*
X120547286Y-59505419D01*
X120569925Y-59496042D01*
X120590298Y-59482429D01*
X120596670Y-59477200D01*
X120600971Y-59474901D01*
X120605645Y-59473483D01*
X120616641Y-59472400D01*
X120905359Y-59472400D01*
X120916355Y-59473483D01*
X120921029Y-59474901D01*
X120925330Y-59477200D01*
X120931702Y-59482429D01*
X120952076Y-59496043D01*
X120974715Y-59505420D01*
X120998749Y-59510200D01*
X121023253Y-59510200D01*
X121047286Y-59505419D01*
X121069925Y-59496042D01*
X121090298Y-59482429D01*
X121096670Y-59477200D01*
X121100971Y-59474901D01*
X121105645Y-59473483D01*
X121116641Y-59472400D01*
X121405359Y-59472400D01*
X121416355Y-59473483D01*
X121421029Y-59474901D01*
X121425330Y-59477200D01*
X121431702Y-59482429D01*
X121452076Y-59496043D01*
X121474715Y-59505420D01*
X121498749Y-59510200D01*
X121523253Y-59510200D01*
X121547286Y-59505419D01*
X121569925Y-59496042D01*
X121590298Y-59482429D01*
X121596670Y-59477200D01*
X121600971Y-59474901D01*
X121605645Y-59473483D01*
X121616641Y-59472400D01*
X121905359Y-59472400D01*
X121916355Y-59473483D01*
X121921029Y-59474901D01*
X121925330Y-59477200D01*
X121931702Y-59482429D01*
X121952076Y-59496043D01*
X121974715Y-59505420D01*
X121998749Y-59510200D01*
X122023253Y-59510200D01*
X122047286Y-59505419D01*
X122069925Y-59496042D01*
X122090298Y-59482429D01*
X122096670Y-59477200D01*
X122100971Y-59474901D01*
X122105645Y-59473483D01*
X122116641Y-59472400D01*
X122405359Y-59472400D01*
X122416355Y-59473483D01*
X122421029Y-59474901D01*
X122425331Y-59477200D01*
X122429104Y-59480296D01*
X122432200Y-59484069D01*
X122434499Y-59488371D01*
X122435917Y-59493045D01*
X122437000Y-59504041D01*
X122437000Y-60597401D01*
X122439402Y-60621787D01*
X122446515Y-60645236D01*
X122458066Y-60666847D01*
X122473611Y-60685789D01*
X122492553Y-60701334D01*
X122514164Y-60712885D01*
X122537613Y-60719998D01*
X122561999Y-60722400D01*
X123655359Y-60722400D01*
X123666355Y-60723483D01*
X123671029Y-60724901D01*
X123675331Y-60727200D01*
X123679104Y-60730296D01*
X123682200Y-60734069D01*
X123684499Y-60738371D01*
X123685917Y-60743045D01*
X123687000Y-60754041D01*
X123687000Y-61042759D01*
X123685917Y-61053755D01*
X123684499Y-61058429D01*
X123682200Y-61062730D01*
X123676971Y-61069102D01*
X123663357Y-61089476D01*
X123653980Y-61112115D01*
X123649200Y-61136149D01*
X123649200Y-61160653D01*
X123653981Y-61184686D01*
X123663358Y-61207325D01*
X123676971Y-61227698D01*
X123682200Y-61234070D01*
X123684499Y-61238371D01*
X123685917Y-61243045D01*
X123687000Y-61254041D01*
X123687000Y-61542759D01*
X123685917Y-61553755D01*
X123684499Y-61558429D01*
X123682200Y-61562730D01*
X123676971Y-61569102D01*
X123663357Y-61589476D01*
X123653980Y-61612115D01*
X123649200Y-61636149D01*
X123649200Y-61660653D01*
X123653981Y-61684686D01*
X123663358Y-61707325D01*
X123676971Y-61727698D01*
X123682200Y-61734070D01*
X123684499Y-61738371D01*
X123685917Y-61743045D01*
X123687000Y-61754041D01*
X123687000Y-62042759D01*
X123685917Y-62053755D01*
X123684499Y-62058429D01*
X123682200Y-62062730D01*
X123676971Y-62069102D01*
X123663357Y-62089476D01*
X123653980Y-62112115D01*
X123649200Y-62136149D01*
X123649200Y-62160653D01*
X123653981Y-62184686D01*
X123663358Y-62207325D01*
X123676971Y-62227698D01*
X123682200Y-62234070D01*
X123684499Y-62238371D01*
X123685917Y-62243045D01*
X123687000Y-62254041D01*
X123687000Y-62542759D01*
X123685917Y-62553755D01*
X123684499Y-62558429D01*
X123682200Y-62562730D01*
X123676971Y-62569102D01*
X123663357Y-62589476D01*
X123653980Y-62612115D01*
X123649200Y-62636149D01*
X123649200Y-62660653D01*
X123653981Y-62684686D01*
X123663358Y-62707325D01*
X123676971Y-62727698D01*
X123682200Y-62734070D01*
X123684499Y-62738371D01*
X123685917Y-62743045D01*
X123687000Y-62754041D01*
X123687000Y-63042759D01*
X123685917Y-63053755D01*
X123684499Y-63058429D01*
X123682200Y-63062730D01*
X123676971Y-63069102D01*
X123663357Y-63089476D01*
X123653980Y-63112115D01*
X123649200Y-63136149D01*
X123649200Y-63160653D01*
X123653981Y-63184686D01*
X123663358Y-63207325D01*
X123676971Y-63227698D01*
X123682200Y-63234070D01*
X123684499Y-63238371D01*
X123685917Y-63243045D01*
X123687000Y-63254041D01*
X123687000Y-63542759D01*
X123685917Y-63553755D01*
X123684499Y-63558429D01*
X123682200Y-63562730D01*
X123676971Y-63569102D01*
X123663357Y-63589476D01*
X123653980Y-63612115D01*
X123649200Y-63636149D01*
X123649200Y-63660653D01*
X123653981Y-63684686D01*
X123663358Y-63707325D01*
X123676971Y-63727698D01*
X123682200Y-63734070D01*
X123684499Y-63738371D01*
X123685917Y-63743045D01*
X123687000Y-63754041D01*
X123687000Y-64042759D01*
X123685917Y-64053755D01*
X123684499Y-64058429D01*
X123682200Y-64062730D01*
X123676971Y-64069102D01*
X123663357Y-64089476D01*
X123653980Y-64112115D01*
X123649200Y-64136149D01*
X123649200Y-64160653D01*
X123653981Y-64184686D01*
X123663358Y-64207325D01*
X123676971Y-64227698D01*
X123682200Y-64234070D01*
X123684499Y-64238371D01*
X123685917Y-64243045D01*
X123687000Y-64254041D01*
X123687000Y-64542759D01*
X123685917Y-64553755D01*
X123684499Y-64558429D01*
X123682200Y-64562730D01*
X123676971Y-64569102D01*
X123663357Y-64589476D01*
X123653980Y-64612115D01*
X123649200Y-64636149D01*
X123649200Y-64660653D01*
X123653981Y-64684686D01*
X123663358Y-64707325D01*
X123676971Y-64727698D01*
X123682200Y-64734070D01*
X123684499Y-64738371D01*
X123685917Y-64743045D01*
X123687000Y-64754041D01*
X123687000Y-65042759D01*
X123685917Y-65053755D01*
X123684499Y-65058429D01*
X123682200Y-65062730D01*
X123676971Y-65069102D01*
X123663357Y-65089476D01*
X123653980Y-65112115D01*
X123649200Y-65136149D01*
X123649200Y-65160653D01*
X123653981Y-65184686D01*
X123663358Y-65207325D01*
X123676971Y-65227698D01*
X123682200Y-65234070D01*
X123684499Y-65238371D01*
X123685917Y-65243045D01*
X123687000Y-65254041D01*
X123687000Y-65542759D01*
X123685917Y-65553755D01*
X123684499Y-65558429D01*
X123682200Y-65562730D01*
X123676971Y-65569102D01*
X123663357Y-65589476D01*
X123653980Y-65612115D01*
X123649200Y-65636149D01*
X123649200Y-65660653D01*
X123653981Y-65684686D01*
X123663358Y-65707325D01*
X123676971Y-65727698D01*
X123682200Y-65734070D01*
X123684499Y-65738371D01*
X123685917Y-65743045D01*
X123687000Y-65754041D01*
X123687000Y-66042759D01*
X123685917Y-66053755D01*
X123684499Y-66058429D01*
X123682200Y-66062731D01*
X123679104Y-66066504D01*
X123675331Y-66069600D01*
X123671029Y-66071899D01*
X123666355Y-66073317D01*
X123655359Y-66074400D01*
X122561999Y-66074400D01*
X122537613Y-66076802D01*
X122514164Y-66083915D01*
X122492553Y-66095466D01*
X122473611Y-66111011D01*
X122458066Y-66129953D01*
X122446515Y-66151564D01*
X122439402Y-66175013D01*
X122437000Y-66199399D01*
X122437000Y-67292759D01*
X122435917Y-67303755D01*
X122434499Y-67308429D01*
X122432200Y-67312731D01*
X122429104Y-67316504D01*
X122425331Y-67319600D01*
X122421029Y-67321899D01*
X122416355Y-67323317D01*
X122405359Y-67324400D01*
X122116641Y-67324400D01*
X122105645Y-67323317D01*
X122100971Y-67321899D01*
X122096670Y-67319600D01*
X122090298Y-67314371D01*
X122069924Y-67300757D01*
X122047285Y-67291380D01*
X122023251Y-67286600D01*
X121998747Y-67286600D01*
X121974714Y-67291381D01*
X121952075Y-67300758D01*
X121931702Y-67314371D01*
X121925330Y-67319600D01*
X121921029Y-67321899D01*
X121916355Y-67323317D01*
X121905359Y-67324400D01*
X121616641Y-67324400D01*
X121605645Y-67323317D01*
X121600971Y-67321899D01*
X121596670Y-67319600D01*
X121590298Y-67314371D01*
X121569924Y-67300757D01*
X121547285Y-67291380D01*
X121523251Y-67286600D01*
X121498747Y-67286600D01*
X121474714Y-67291381D01*
X121452075Y-67300758D01*
X121431702Y-67314371D01*
X121425330Y-67319600D01*
X121421029Y-67321899D01*
X121416355Y-67323317D01*
X121405359Y-67324400D01*
X121116641Y-67324400D01*
X121105645Y-67323317D01*
X121100971Y-67321899D01*
X121096670Y-67319600D01*
X121090298Y-67314371D01*
X121069924Y-67300757D01*
X121047285Y-67291380D01*
X121023251Y-67286600D01*
X120998747Y-67286600D01*
X120974714Y-67291381D01*
X120952075Y-67300758D01*
X120931702Y-67314371D01*
X120925330Y-67319600D01*
X120921029Y-67321899D01*
X120916355Y-67323317D01*
X120905359Y-67324400D01*
X120616641Y-67324400D01*
X120605645Y-67323317D01*
X120600971Y-67321899D01*
X120596670Y-67319600D01*
X120590298Y-67314371D01*
X120569924Y-67300757D01*
X120547285Y-67291380D01*
X120523251Y-67286600D01*
X120498747Y-67286600D01*
X120474714Y-67291381D01*
X120452075Y-67300758D01*
X120431702Y-67314371D01*
X120425330Y-67319600D01*
X120421029Y-67321899D01*
X120416355Y-67323317D01*
X120405359Y-67324400D01*
X120116641Y-67324400D01*
X120105645Y-67323317D01*
X120100971Y-67321899D01*
X120096670Y-67319600D01*
X120090298Y-67314371D01*
X120069924Y-67300757D01*
X120047285Y-67291380D01*
X120023251Y-67286600D01*
X119998747Y-67286600D01*
X119974714Y-67291381D01*
X119952075Y-67300758D01*
X119931702Y-67314371D01*
X119925330Y-67319600D01*
X119921029Y-67321899D01*
X119916355Y-67323317D01*
X119905359Y-67324400D01*
X119616641Y-67324400D01*
X119605645Y-67323317D01*
X119600971Y-67321899D01*
X119596670Y-67319600D01*
X119590298Y-67314371D01*
X119569924Y-67300757D01*
X119547285Y-67291380D01*
X119523251Y-67286600D01*
X119498747Y-67286600D01*
X119474714Y-67291381D01*
X119452075Y-67300758D01*
X119431702Y-67314371D01*
X119425330Y-67319600D01*
X119421029Y-67321899D01*
X119416355Y-67323317D01*
X119405359Y-67324400D01*
X119116641Y-67324400D01*
X119105645Y-67323317D01*
X119100971Y-67321899D01*
X119096670Y-67319600D01*
X119090298Y-67314371D01*
X119069924Y-67300757D01*
X119047285Y-67291380D01*
X119023251Y-67286600D01*
X118998747Y-67286600D01*
X118974714Y-67291381D01*
X118952075Y-67300758D01*
X118931702Y-67314371D01*
X118925330Y-67319600D01*
X118921029Y-67321899D01*
X118916355Y-67323317D01*
X118905359Y-67324400D01*
X118616641Y-67324400D01*
X118605645Y-67323317D01*
X118600971Y-67321899D01*
X118596670Y-67319600D01*
X118590298Y-67314371D01*
X118569924Y-67300757D01*
X118547285Y-67291380D01*
X118523251Y-67286600D01*
X118498747Y-67286600D01*
X118474714Y-67291381D01*
X118452075Y-67300758D01*
X118431702Y-67314371D01*
X118425330Y-67319600D01*
X118421029Y-67321899D01*
X118416355Y-67323317D01*
X118405359Y-67324400D01*
X118116641Y-67324400D01*
X118105645Y-67323317D01*
X118100971Y-67321899D01*
X118096670Y-67319600D01*
X118090298Y-67314371D01*
X118069924Y-67300757D01*
X118047285Y-67291380D01*
X118023251Y-67286600D01*
X117998747Y-67286600D01*
X117974714Y-67291381D01*
X117952075Y-67300758D01*
X117931702Y-67314371D01*
X117925330Y-67319600D01*
X117921029Y-67321899D01*
X117916355Y-67323317D01*
X117905359Y-67324400D01*
X117616641Y-67324400D01*
X117605645Y-67323317D01*
X117600971Y-67321899D01*
X117596670Y-67319600D01*
X117590298Y-67314371D01*
X117569924Y-67300757D01*
X117547285Y-67291380D01*
X117523251Y-67286600D01*
X117498747Y-67286600D01*
X117474714Y-67291381D01*
X117452075Y-67300758D01*
X117431702Y-67314371D01*
X117425330Y-67319600D01*
X117421029Y-67321899D01*
X117416355Y-67323317D01*
X117405359Y-67324400D01*
X117116641Y-67324400D01*
X117105645Y-67323317D01*
X117100971Y-67321899D01*
X117096669Y-67319600D01*
X117092896Y-67316504D01*
X117089800Y-67312731D01*
X117087501Y-67308429D01*
X117086083Y-67303755D01*
X117085000Y-67292759D01*
X117085000Y-66199399D01*
X117082598Y-66175013D01*
X117075485Y-66151564D01*
X117063934Y-66129953D01*
X117048389Y-66111011D01*
X117029447Y-66095466D01*
X117007836Y-66083915D01*
X116984387Y-66076802D01*
X116960001Y-66074400D01*
X115866641Y-66074400D01*
X115855645Y-66073317D01*
X115850971Y-66071899D01*
X115846669Y-66069600D01*
X115842896Y-66066504D01*
X115839800Y-66062731D01*
X115837501Y-66058429D01*
X115836083Y-66053755D01*
X115835000Y-66042759D01*
X115835000Y-65754041D01*
X115836083Y-65743045D01*
X115837501Y-65738371D01*
X115839800Y-65734070D01*
X115845029Y-65727698D01*
X115858643Y-65707324D01*
X115868020Y-65684685D01*
X115872800Y-65660651D01*
X115872800Y-65636147D01*
X115868019Y-65612114D01*
X115858642Y-65589475D01*
X115845029Y-65569102D01*
X115839800Y-65562730D01*
X115837501Y-65558429D01*
X115836083Y-65553755D01*
X115835000Y-65542759D01*
X115835000Y-65254041D01*
X115836083Y-65243045D01*
X115837501Y-65238371D01*
X115839800Y-65234070D01*
X115845029Y-65227698D01*
X115858643Y-65207324D01*
X115868020Y-65184685D01*
X115872800Y-65160651D01*
X115872800Y-65136147D01*
X115868019Y-65112114D01*
X115858642Y-65089475D01*
X115845029Y-65069102D01*
X115839800Y-65062730D01*
X115837501Y-65058429D01*
X115836083Y-65053755D01*
X115835000Y-65042759D01*
X115835000Y-64754041D01*
X115836083Y-64743045D01*
X115837501Y-64738371D01*
X115839800Y-64734070D01*
X115845029Y-64727698D01*
X115858643Y-64707324D01*
X115868020Y-64684685D01*
X115872800Y-64660651D01*
X115872800Y-64636147D01*
X115868019Y-64612114D01*
X115858642Y-64589475D01*
X115845029Y-64569102D01*
X115839800Y-64562730D01*
X115837501Y-64558429D01*
X115836083Y-64553755D01*
X115835000Y-64542759D01*
X115835000Y-64254041D01*
X115836083Y-64243045D01*
X115837501Y-64238371D01*
X115839800Y-64234070D01*
X115845029Y-64227698D01*
X115858643Y-64207324D01*
X115868020Y-64184685D01*
X115872800Y-64160651D01*
X115872800Y-64136147D01*
X115868019Y-64112114D01*
X115858642Y-64089475D01*
X115845029Y-64069102D01*
X115839800Y-64062730D01*
X115837501Y-64058429D01*
X115836083Y-64053755D01*
X115835000Y-64042759D01*
X115835000Y-63754041D01*
X115836083Y-63743045D01*
X115837501Y-63738371D01*
X115839800Y-63734070D01*
X115845029Y-63727698D01*
X115858643Y-63707324D01*
X115868020Y-63684685D01*
X115872800Y-63660651D01*
X115872800Y-63636147D01*
X115868019Y-63612114D01*
X115858642Y-63589475D01*
X115845029Y-63569102D01*
X115839800Y-63562730D01*
X115837501Y-63558429D01*
X115836083Y-63553755D01*
X115835000Y-63542759D01*
X115835000Y-63254041D01*
X115836083Y-63243045D01*
X115837501Y-63238371D01*
X115839800Y-63234070D01*
X115845029Y-63227698D01*
X115858643Y-63207324D01*
X115868020Y-63184685D01*
X115872800Y-63160651D01*
X115872800Y-63136147D01*
X115868019Y-63112114D01*
X115858642Y-63089475D01*
X115845029Y-63069102D01*
X115839800Y-63062730D01*
X115837501Y-63058429D01*
X115836083Y-63053755D01*
X115835000Y-63042759D01*
X115835000Y-62754041D01*
X115836083Y-62743045D01*
X115837501Y-62738371D01*
X115839800Y-62734070D01*
X115845029Y-62727698D01*
X115858643Y-62707324D01*
X115868020Y-62684685D01*
X115872800Y-62660651D01*
X115872800Y-62636147D01*
X115868019Y-62612114D01*
X115858642Y-62589475D01*
X115845029Y-62569102D01*
X115839800Y-62562730D01*
X115837501Y-62558429D01*
X115836083Y-62553755D01*
X115835000Y-62542759D01*
X115835000Y-62254041D01*
X115836083Y-62243045D01*
X115837501Y-62238371D01*
X115839800Y-62234070D01*
X115845029Y-62227698D01*
X115858643Y-62207324D01*
X115868020Y-62184685D01*
X115872800Y-62160651D01*
X115872800Y-62136147D01*
X115868019Y-62112114D01*
X115858642Y-62089475D01*
X115845029Y-62069102D01*
X115839800Y-62062730D01*
X115837501Y-62058429D01*
X115836083Y-62053755D01*
X115835000Y-62042759D01*
X115835000Y-61754041D01*
X115836083Y-61743045D01*
X115837501Y-61738371D01*
X115839800Y-61734070D01*
X115845029Y-61727698D01*
X115858643Y-61707324D01*
X115868020Y-61684685D01*
X115872800Y-61660651D01*
X115872800Y-61636147D01*
X115868019Y-61612114D01*
X115858642Y-61589475D01*
X115845029Y-61569102D01*
X115839800Y-61562730D01*
X115837501Y-61558429D01*
X115836083Y-61553755D01*
X115835000Y-61542759D01*
X115835000Y-61254041D01*
X115836083Y-61243045D01*
X115837501Y-61238371D01*
X115839800Y-61234070D01*
X115845029Y-61227698D01*
X115858643Y-61207324D01*
X115868020Y-61184685D01*
X115872800Y-61160651D01*
X115872800Y-61136147D01*
X115868019Y-61112114D01*
X115858642Y-61089475D01*
X115845029Y-61069102D01*
X115839800Y-61062730D01*
X115837501Y-61058429D01*
X115836083Y-61053755D01*
X115835000Y-61042759D01*
X115835000Y-60754041D01*
X115836083Y-60743045D01*
X115837501Y-60738371D01*
X115839800Y-60734069D01*
X115842896Y-60730296D01*
X115846669Y-60727200D01*
X115850971Y-60724901D01*
X115855645Y-60723483D01*
X115866641Y-60722400D01*
X116960001Y-60722400D01*
X116984387Y-60719998D01*
X117007836Y-60712885D01*
X117029447Y-60701334D01*
X117048389Y-60685789D01*
X117063934Y-60666847D01*
X117075485Y-60645236D01*
X117082598Y-60621787D01*
X117085000Y-60597401D01*
X117085000Y-59504041D01*
X117086083Y-59493045D01*
X117087501Y-59488371D01*
X117089800Y-59484069D01*
X117092896Y-59480296D01*
X117096669Y-59477200D01*
X117100971Y-59474901D01*
X117105645Y-59473483D01*
X117116641Y-59472400D01*
X117405359Y-59472400D01*
X117416355Y-59473483D01*
X117416355Y-59473483D01*
G37*
G36*
X127596200Y-66941000D02*
G01*
X125794200Y-66941000D01*
X125794200Y-65139000D01*
X127596200Y-65139000D01*
X127596200Y-66941000D01*
X127596200Y-66941000D01*
G37*
G36*
X112460100Y-66261000D02*
G01*
X109358100Y-66261000D01*
X109358100Y-65459000D01*
X112460100Y-65459000D01*
X112460100Y-66261000D01*
X112460100Y-66261000D01*
G37*
G36*
X112460100Y-64861000D02*
G01*
X109358100Y-64861000D01*
X109358100Y-64059000D01*
X112460100Y-64059000D01*
X112460100Y-64861000D01*
X112460100Y-64861000D01*
G37*
G36*
X114480738Y-63030116D02*
G01*
X114501357Y-63036371D01*
X114520353Y-63046524D01*
X114537008Y-63060192D01*
X114550676Y-63076847D01*
X114560829Y-63095843D01*
X114567084Y-63116462D01*
X114569800Y-63144040D01*
X114569800Y-63652760D01*
X114567084Y-63680338D01*
X114560829Y-63700957D01*
X114550676Y-63719953D01*
X114537008Y-63736608D01*
X114520353Y-63750276D01*
X114501357Y-63760429D01*
X114480738Y-63766684D01*
X114453160Y-63769400D01*
X113994440Y-63769400D01*
X113966862Y-63766684D01*
X113946243Y-63760429D01*
X113927247Y-63750276D01*
X113910592Y-63736608D01*
X113896924Y-63719953D01*
X113886771Y-63700957D01*
X113880516Y-63680338D01*
X113877800Y-63652760D01*
X113877800Y-63144040D01*
X113880516Y-63116462D01*
X113886771Y-63095843D01*
X113896924Y-63076847D01*
X113910592Y-63060192D01*
X113927247Y-63046524D01*
X113946243Y-63036371D01*
X113966862Y-63030116D01*
X113994440Y-63027400D01*
X114453160Y-63027400D01*
X114480738Y-63030116D01*
X114480738Y-63030116D01*
G37*
G36*
X115450738Y-63030116D02*
G01*
X115471357Y-63036371D01*
X115490353Y-63046524D01*
X115507008Y-63060192D01*
X115520676Y-63076847D01*
X115530829Y-63095843D01*
X115537084Y-63116462D01*
X115539800Y-63144040D01*
X115539800Y-63652760D01*
X115537084Y-63680338D01*
X115530829Y-63700957D01*
X115520676Y-63719953D01*
X115507008Y-63736608D01*
X115490353Y-63750276D01*
X115471357Y-63760429D01*
X115450738Y-63766684D01*
X115423160Y-63769400D01*
X114964440Y-63769400D01*
X114936862Y-63766684D01*
X114916243Y-63760429D01*
X114897247Y-63750276D01*
X114880592Y-63736608D01*
X114866924Y-63719953D01*
X114856771Y-63700957D01*
X114850516Y-63680338D01*
X114847800Y-63652760D01*
X114847800Y-63144040D01*
X114850516Y-63116462D01*
X114856771Y-63095843D01*
X114866924Y-63076847D01*
X114880592Y-63060192D01*
X114897247Y-63046524D01*
X114916243Y-63036371D01*
X114936862Y-63030116D01*
X114964440Y-63027400D01*
X115423160Y-63027400D01*
X115450738Y-63030116D01*
X115450738Y-63030116D01*
G37*
G36*
X112460100Y-63461000D02*
G01*
X109358100Y-63461000D01*
X109358100Y-62659000D01*
X112460100Y-62659000D01*
X112460100Y-63461000D01*
X112460100Y-63461000D01*
G37*
G36*
X112460100Y-62061000D02*
G01*
X109358100Y-62061000D01*
X109358100Y-61259000D01*
X112460100Y-61259000D01*
X112460100Y-62061000D01*
X112460100Y-62061000D01*
G37*
G36*
X120754138Y-58508516D02*
G01*
X120774757Y-58514771D01*
X120793753Y-58524924D01*
X120810408Y-58538592D01*
X120824076Y-58555247D01*
X120834229Y-58574243D01*
X120840484Y-58594862D01*
X120843200Y-58622440D01*
X120843200Y-59081160D01*
X120840484Y-59108738D01*
X120834229Y-59129357D01*
X120824076Y-59148353D01*
X120810408Y-59165008D01*
X120793753Y-59178676D01*
X120774757Y-59188829D01*
X120754138Y-59195084D01*
X120726560Y-59197800D01*
X120217840Y-59197800D01*
X120190262Y-59195084D01*
X120169643Y-59188829D01*
X120150647Y-59178676D01*
X120133992Y-59165008D01*
X120120324Y-59148353D01*
X120110171Y-59129357D01*
X120103916Y-59108738D01*
X120101200Y-59081160D01*
X120101200Y-58622440D01*
X120103916Y-58594862D01*
X120110171Y-58574243D01*
X120120324Y-58555247D01*
X120133992Y-58538592D01*
X120150647Y-58524924D01*
X120169643Y-58514771D01*
X120190262Y-58508516D01*
X120217840Y-58505800D01*
X120726560Y-58505800D01*
X120754138Y-58508516D01*
X120754138Y-58508516D01*
G37*
G36*
X115140738Y-58487916D02*
G01*
X115161357Y-58494171D01*
X115180353Y-58504324D01*
X115197008Y-58517992D01*
X115210676Y-58534647D01*
X115220829Y-58553643D01*
X115227084Y-58574262D01*
X115229800Y-58601840D01*
X115229800Y-59060560D01*
X115227084Y-59088138D01*
X115220829Y-59108757D01*
X115210676Y-59127753D01*
X115197008Y-59144408D01*
X115180353Y-59158076D01*
X115161357Y-59168229D01*
X115140738Y-59174484D01*
X115113160Y-59177200D01*
X114604440Y-59177200D01*
X114576862Y-59174484D01*
X114556243Y-59168229D01*
X114537247Y-59158076D01*
X114520592Y-59144408D01*
X114506924Y-59127753D01*
X114496771Y-59108757D01*
X114490516Y-59088138D01*
X114487800Y-59060560D01*
X114487800Y-58601840D01*
X114490516Y-58574262D01*
X114496771Y-58553643D01*
X114506924Y-58534647D01*
X114520592Y-58517992D01*
X114537247Y-58504324D01*
X114556243Y-58494171D01*
X114576862Y-58487916D01*
X114604440Y-58485200D01*
X115113160Y-58485200D01*
X115140738Y-58487916D01*
X115140738Y-58487916D01*
G37*
G36*
X116156738Y-58487916D02*
G01*
X116177357Y-58494171D01*
X116196353Y-58504324D01*
X116213008Y-58517992D01*
X116226676Y-58534647D01*
X116236829Y-58553643D01*
X116243084Y-58574262D01*
X116245800Y-58601840D01*
X116245800Y-59060560D01*
X116243084Y-59088138D01*
X116236829Y-59108757D01*
X116226676Y-59127753D01*
X116213008Y-59144408D01*
X116196353Y-59158076D01*
X116177357Y-59168229D01*
X116156738Y-59174484D01*
X116129160Y-59177200D01*
X115620440Y-59177200D01*
X115592862Y-59174484D01*
X115572243Y-59168229D01*
X115553247Y-59158076D01*
X115536592Y-59144408D01*
X115522924Y-59127753D01*
X115512771Y-59108757D01*
X115506516Y-59088138D01*
X115503800Y-59060560D01*
X115503800Y-58601840D01*
X115506516Y-58574262D01*
X115512771Y-58553643D01*
X115522924Y-58534647D01*
X115536592Y-58517992D01*
X115553247Y-58504324D01*
X115572243Y-58494171D01*
X115592862Y-58487916D01*
X115620440Y-58485200D01*
X116129160Y-58485200D01*
X116156738Y-58487916D01*
X116156738Y-58487916D01*
G37*
G36*
X117960138Y-58485516D02*
G01*
X117980757Y-58491771D01*
X117999753Y-58501924D01*
X118016408Y-58515592D01*
X118030076Y-58532247D01*
X118040229Y-58551243D01*
X118046484Y-58571862D01*
X118049200Y-58599440D01*
X118049200Y-59058160D01*
X118046484Y-59085738D01*
X118040229Y-59106357D01*
X118030076Y-59125353D01*
X118016408Y-59142008D01*
X117999753Y-59155676D01*
X117980757Y-59165829D01*
X117960138Y-59172084D01*
X117932560Y-59174800D01*
X117423840Y-59174800D01*
X117396262Y-59172084D01*
X117375643Y-59165829D01*
X117356647Y-59155676D01*
X117339992Y-59142008D01*
X117326324Y-59125353D01*
X117316171Y-59106357D01*
X117309916Y-59085738D01*
X117307200Y-59058160D01*
X117307200Y-58599440D01*
X117309916Y-58571862D01*
X117316171Y-58551243D01*
X117326324Y-58532247D01*
X117339992Y-58515592D01*
X117356647Y-58501924D01*
X117375643Y-58491771D01*
X117396262Y-58485516D01*
X117423840Y-58482800D01*
X117932560Y-58482800D01*
X117960138Y-58485516D01*
X117960138Y-58485516D01*
G37*
G36*
X120754138Y-57538516D02*
G01*
X120774757Y-57544771D01*
X120793753Y-57554924D01*
X120810408Y-57568592D01*
X120824076Y-57585247D01*
X120834229Y-57604243D01*
X120840484Y-57624862D01*
X120843200Y-57652440D01*
X120843200Y-58111160D01*
X120840484Y-58138738D01*
X120834229Y-58159357D01*
X120824076Y-58178353D01*
X120810408Y-58195008D01*
X120793753Y-58208676D01*
X120774757Y-58218829D01*
X120754138Y-58225084D01*
X120726560Y-58227800D01*
X120217840Y-58227800D01*
X120190262Y-58225084D01*
X120169643Y-58218829D01*
X120150647Y-58208676D01*
X120133992Y-58195008D01*
X120120324Y-58178353D01*
X120110171Y-58159357D01*
X120103916Y-58138738D01*
X120101200Y-58111160D01*
X120101200Y-57652440D01*
X120103916Y-57624862D01*
X120110171Y-57604243D01*
X120120324Y-57585247D01*
X120133992Y-57568592D01*
X120150647Y-57554924D01*
X120169643Y-57544771D01*
X120190262Y-57538516D01*
X120217840Y-57535800D01*
X120726560Y-57535800D01*
X120754138Y-57538516D01*
X120754138Y-57538516D01*
G37*
G36*
X115140738Y-57517916D02*
G01*
X115161357Y-57524171D01*
X115180353Y-57534324D01*
X115197008Y-57547992D01*
X115210676Y-57564647D01*
X115220829Y-57583643D01*
X115227084Y-57604262D01*
X115229800Y-57631840D01*
X115229800Y-58090560D01*
X115227084Y-58118138D01*
X115220829Y-58138757D01*
X115210676Y-58157753D01*
X115197008Y-58174408D01*
X115180353Y-58188076D01*
X115161357Y-58198229D01*
X115140738Y-58204484D01*
X115113160Y-58207200D01*
X114604440Y-58207200D01*
X114576862Y-58204484D01*
X114556243Y-58198229D01*
X114537247Y-58188076D01*
X114520592Y-58174408D01*
X114506924Y-58157753D01*
X114496771Y-58138757D01*
X114490516Y-58118138D01*
X114487800Y-58090560D01*
X114487800Y-57631840D01*
X114490516Y-57604262D01*
X114496771Y-57583643D01*
X114506924Y-57564647D01*
X114520592Y-57547992D01*
X114537247Y-57534324D01*
X114556243Y-57524171D01*
X114576862Y-57517916D01*
X114604440Y-57515200D01*
X115113160Y-57515200D01*
X115140738Y-57517916D01*
X115140738Y-57517916D01*
G37*
G36*
X116156738Y-57517916D02*
G01*
X116177357Y-57524171D01*
X116196353Y-57534324D01*
X116213008Y-57547992D01*
X116226676Y-57564647D01*
X116236829Y-57583643D01*
X116243084Y-57604262D01*
X116245800Y-57631840D01*
X116245800Y-58090560D01*
X116243084Y-58118138D01*
X116236829Y-58138757D01*
X116226676Y-58157753D01*
X116213008Y-58174408D01*
X116196353Y-58188076D01*
X116177357Y-58198229D01*
X116156738Y-58204484D01*
X116129160Y-58207200D01*
X115620440Y-58207200D01*
X115592862Y-58204484D01*
X115572243Y-58198229D01*
X115553247Y-58188076D01*
X115536592Y-58174408D01*
X115522924Y-58157753D01*
X115512771Y-58138757D01*
X115506516Y-58118138D01*
X115503800Y-58090560D01*
X115503800Y-57631840D01*
X115506516Y-57604262D01*
X115512771Y-57583643D01*
X115522924Y-57564647D01*
X115536592Y-57547992D01*
X115553247Y-57534324D01*
X115572243Y-57524171D01*
X115592862Y-57517916D01*
X115620440Y-57515200D01*
X116129160Y-57515200D01*
X116156738Y-57517916D01*
X116156738Y-57517916D01*
G37*
G36*
X117960138Y-57515516D02*
G01*
X117980757Y-57521771D01*
X117999753Y-57531924D01*
X118016408Y-57545592D01*
X118030076Y-57562247D01*
X118040229Y-57581243D01*
X118046484Y-57601862D01*
X118049200Y-57629440D01*
X118049200Y-58088160D01*
X118046484Y-58115738D01*
X118040229Y-58136357D01*
X118030076Y-58155353D01*
X118016408Y-58172008D01*
X117999753Y-58185676D01*
X117980757Y-58195829D01*
X117960138Y-58202084D01*
X117932560Y-58204800D01*
X117423840Y-58204800D01*
X117396262Y-58202084D01*
X117375643Y-58195829D01*
X117356647Y-58185676D01*
X117339992Y-58172008D01*
X117326324Y-58155353D01*
X117316171Y-58136357D01*
X117309916Y-58115738D01*
X117307200Y-58088160D01*
X117307200Y-57629440D01*
X117309916Y-57601862D01*
X117316171Y-57581243D01*
X117326324Y-57562247D01*
X117339992Y-57545592D01*
X117356647Y-57531924D01*
X117375643Y-57521771D01*
X117396262Y-57515516D01*
X117423840Y-57512800D01*
X117932560Y-57512800D01*
X117960138Y-57515516D01*
X117960138Y-57515516D01*
G37*
M02*
