G04 #@! TF.GenerationSoftware,KiCad,Pcbnew,(5.1.2)-1*
G04 #@! TF.CreationDate,2020-11-21T10:17:18+01:00*
G04 #@! TF.ProjectId,HB-ES-PMSwX-Pl_Gosund,48422d45-532d-4504-9d53-77582d506c5f,rev?*
G04 #@! TF.SameCoordinates,Original*
G04 #@! TF.FileFunction,Paste,Bot*
G04 #@! TF.FilePolarity,Positive*
%FSLAX46Y46*%
G04 Gerber Fmt 4.6, Leading zero omitted, Abs format (unit mm)*
G04 Created by KiCad (PCBNEW (5.1.2)-1) date 2020-11-21 10:17:18*
%MOMM*%
%LPD*%
G04 APERTURE LIST*
%ADD10R,3.000000X0.700000*%
%ADD11C,0.100000*%
%ADD12C,0.250000*%
%ADD13C,1.050000*%
%ADD14C,0.590000*%
G04 APERTURE END LIST*
D10*
X110909100Y-61660000D03*
X110909100Y-64460000D03*
X110909100Y-63060000D03*
X110909100Y-67260000D03*
X110909100Y-65860000D03*
X110909100Y-68660000D03*
D11*
G36*
X123579626Y-65773701D02*
G01*
X123585693Y-65774601D01*
X123591643Y-65776091D01*
X123597418Y-65778158D01*
X123602962Y-65780780D01*
X123608223Y-65783933D01*
X123613150Y-65787587D01*
X123617694Y-65791706D01*
X123621813Y-65796250D01*
X123625467Y-65801177D01*
X123628620Y-65806438D01*
X123631242Y-65811982D01*
X123633309Y-65817757D01*
X123634799Y-65823707D01*
X123635699Y-65829774D01*
X123636000Y-65835900D01*
X123636000Y-65960900D01*
X123635699Y-65967026D01*
X123634799Y-65973093D01*
X123633309Y-65979043D01*
X123631242Y-65984818D01*
X123628620Y-65990362D01*
X123625467Y-65995623D01*
X123621813Y-66000550D01*
X123617694Y-66005094D01*
X123613150Y-66009213D01*
X123608223Y-66012867D01*
X123602962Y-66016020D01*
X123597418Y-66018642D01*
X123591643Y-66020709D01*
X123585693Y-66022199D01*
X123579626Y-66023099D01*
X123573500Y-66023400D01*
X122623500Y-66023400D01*
X122617374Y-66023099D01*
X122611307Y-66022199D01*
X122605357Y-66020709D01*
X122599582Y-66018642D01*
X122594038Y-66016020D01*
X122588777Y-66012867D01*
X122583850Y-66009213D01*
X122579306Y-66005094D01*
X122575187Y-66000550D01*
X122571533Y-65995623D01*
X122568380Y-65990362D01*
X122565758Y-65984818D01*
X122563691Y-65979043D01*
X122562201Y-65973093D01*
X122561301Y-65967026D01*
X122561000Y-65960900D01*
X122561000Y-65835900D01*
X122561301Y-65829774D01*
X122562201Y-65823707D01*
X122563691Y-65817757D01*
X122565758Y-65811982D01*
X122568380Y-65806438D01*
X122571533Y-65801177D01*
X122575187Y-65796250D01*
X122579306Y-65791706D01*
X122583850Y-65787587D01*
X122588777Y-65783933D01*
X122594038Y-65780780D01*
X122599582Y-65778158D01*
X122605357Y-65776091D01*
X122611307Y-65774601D01*
X122617374Y-65773701D01*
X122623500Y-65773400D01*
X123573500Y-65773400D01*
X123579626Y-65773701D01*
X123579626Y-65773701D01*
G37*
D12*
X123098500Y-65898400D03*
D11*
G36*
X123579626Y-65273701D02*
G01*
X123585693Y-65274601D01*
X123591643Y-65276091D01*
X123597418Y-65278158D01*
X123602962Y-65280780D01*
X123608223Y-65283933D01*
X123613150Y-65287587D01*
X123617694Y-65291706D01*
X123621813Y-65296250D01*
X123625467Y-65301177D01*
X123628620Y-65306438D01*
X123631242Y-65311982D01*
X123633309Y-65317757D01*
X123634799Y-65323707D01*
X123635699Y-65329774D01*
X123636000Y-65335900D01*
X123636000Y-65460900D01*
X123635699Y-65467026D01*
X123634799Y-65473093D01*
X123633309Y-65479043D01*
X123631242Y-65484818D01*
X123628620Y-65490362D01*
X123625467Y-65495623D01*
X123621813Y-65500550D01*
X123617694Y-65505094D01*
X123613150Y-65509213D01*
X123608223Y-65512867D01*
X123602962Y-65516020D01*
X123597418Y-65518642D01*
X123591643Y-65520709D01*
X123585693Y-65522199D01*
X123579626Y-65523099D01*
X123573500Y-65523400D01*
X122623500Y-65523400D01*
X122617374Y-65523099D01*
X122611307Y-65522199D01*
X122605357Y-65520709D01*
X122599582Y-65518642D01*
X122594038Y-65516020D01*
X122588777Y-65512867D01*
X122583850Y-65509213D01*
X122579306Y-65505094D01*
X122575187Y-65500550D01*
X122571533Y-65495623D01*
X122568380Y-65490362D01*
X122565758Y-65484818D01*
X122563691Y-65479043D01*
X122562201Y-65473093D01*
X122561301Y-65467026D01*
X122561000Y-65460900D01*
X122561000Y-65335900D01*
X122561301Y-65329774D01*
X122562201Y-65323707D01*
X122563691Y-65317757D01*
X122565758Y-65311982D01*
X122568380Y-65306438D01*
X122571533Y-65301177D01*
X122575187Y-65296250D01*
X122579306Y-65291706D01*
X122583850Y-65287587D01*
X122588777Y-65283933D01*
X122594038Y-65280780D01*
X122599582Y-65278158D01*
X122605357Y-65276091D01*
X122611307Y-65274601D01*
X122617374Y-65273701D01*
X122623500Y-65273400D01*
X123573500Y-65273400D01*
X123579626Y-65273701D01*
X123579626Y-65273701D01*
G37*
D12*
X123098500Y-65398400D03*
D11*
G36*
X123579626Y-64773701D02*
G01*
X123585693Y-64774601D01*
X123591643Y-64776091D01*
X123597418Y-64778158D01*
X123602962Y-64780780D01*
X123608223Y-64783933D01*
X123613150Y-64787587D01*
X123617694Y-64791706D01*
X123621813Y-64796250D01*
X123625467Y-64801177D01*
X123628620Y-64806438D01*
X123631242Y-64811982D01*
X123633309Y-64817757D01*
X123634799Y-64823707D01*
X123635699Y-64829774D01*
X123636000Y-64835900D01*
X123636000Y-64960900D01*
X123635699Y-64967026D01*
X123634799Y-64973093D01*
X123633309Y-64979043D01*
X123631242Y-64984818D01*
X123628620Y-64990362D01*
X123625467Y-64995623D01*
X123621813Y-65000550D01*
X123617694Y-65005094D01*
X123613150Y-65009213D01*
X123608223Y-65012867D01*
X123602962Y-65016020D01*
X123597418Y-65018642D01*
X123591643Y-65020709D01*
X123585693Y-65022199D01*
X123579626Y-65023099D01*
X123573500Y-65023400D01*
X122623500Y-65023400D01*
X122617374Y-65023099D01*
X122611307Y-65022199D01*
X122605357Y-65020709D01*
X122599582Y-65018642D01*
X122594038Y-65016020D01*
X122588777Y-65012867D01*
X122583850Y-65009213D01*
X122579306Y-65005094D01*
X122575187Y-65000550D01*
X122571533Y-64995623D01*
X122568380Y-64990362D01*
X122565758Y-64984818D01*
X122563691Y-64979043D01*
X122562201Y-64973093D01*
X122561301Y-64967026D01*
X122561000Y-64960900D01*
X122561000Y-64835900D01*
X122561301Y-64829774D01*
X122562201Y-64823707D01*
X122563691Y-64817757D01*
X122565758Y-64811982D01*
X122568380Y-64806438D01*
X122571533Y-64801177D01*
X122575187Y-64796250D01*
X122579306Y-64791706D01*
X122583850Y-64787587D01*
X122588777Y-64783933D01*
X122594038Y-64780780D01*
X122599582Y-64778158D01*
X122605357Y-64776091D01*
X122611307Y-64774601D01*
X122617374Y-64773701D01*
X122623500Y-64773400D01*
X123573500Y-64773400D01*
X123579626Y-64773701D01*
X123579626Y-64773701D01*
G37*
D12*
X123098500Y-64898400D03*
D11*
G36*
X123579626Y-64273701D02*
G01*
X123585693Y-64274601D01*
X123591643Y-64276091D01*
X123597418Y-64278158D01*
X123602962Y-64280780D01*
X123608223Y-64283933D01*
X123613150Y-64287587D01*
X123617694Y-64291706D01*
X123621813Y-64296250D01*
X123625467Y-64301177D01*
X123628620Y-64306438D01*
X123631242Y-64311982D01*
X123633309Y-64317757D01*
X123634799Y-64323707D01*
X123635699Y-64329774D01*
X123636000Y-64335900D01*
X123636000Y-64460900D01*
X123635699Y-64467026D01*
X123634799Y-64473093D01*
X123633309Y-64479043D01*
X123631242Y-64484818D01*
X123628620Y-64490362D01*
X123625467Y-64495623D01*
X123621813Y-64500550D01*
X123617694Y-64505094D01*
X123613150Y-64509213D01*
X123608223Y-64512867D01*
X123602962Y-64516020D01*
X123597418Y-64518642D01*
X123591643Y-64520709D01*
X123585693Y-64522199D01*
X123579626Y-64523099D01*
X123573500Y-64523400D01*
X122623500Y-64523400D01*
X122617374Y-64523099D01*
X122611307Y-64522199D01*
X122605357Y-64520709D01*
X122599582Y-64518642D01*
X122594038Y-64516020D01*
X122588777Y-64512867D01*
X122583850Y-64509213D01*
X122579306Y-64505094D01*
X122575187Y-64500550D01*
X122571533Y-64495623D01*
X122568380Y-64490362D01*
X122565758Y-64484818D01*
X122563691Y-64479043D01*
X122562201Y-64473093D01*
X122561301Y-64467026D01*
X122561000Y-64460900D01*
X122561000Y-64335900D01*
X122561301Y-64329774D01*
X122562201Y-64323707D01*
X122563691Y-64317757D01*
X122565758Y-64311982D01*
X122568380Y-64306438D01*
X122571533Y-64301177D01*
X122575187Y-64296250D01*
X122579306Y-64291706D01*
X122583850Y-64287587D01*
X122588777Y-64283933D01*
X122594038Y-64280780D01*
X122599582Y-64278158D01*
X122605357Y-64276091D01*
X122611307Y-64274601D01*
X122617374Y-64273701D01*
X122623500Y-64273400D01*
X123573500Y-64273400D01*
X123579626Y-64273701D01*
X123579626Y-64273701D01*
G37*
D12*
X123098500Y-64398400D03*
D11*
G36*
X123579626Y-63773701D02*
G01*
X123585693Y-63774601D01*
X123591643Y-63776091D01*
X123597418Y-63778158D01*
X123602962Y-63780780D01*
X123608223Y-63783933D01*
X123613150Y-63787587D01*
X123617694Y-63791706D01*
X123621813Y-63796250D01*
X123625467Y-63801177D01*
X123628620Y-63806438D01*
X123631242Y-63811982D01*
X123633309Y-63817757D01*
X123634799Y-63823707D01*
X123635699Y-63829774D01*
X123636000Y-63835900D01*
X123636000Y-63960900D01*
X123635699Y-63967026D01*
X123634799Y-63973093D01*
X123633309Y-63979043D01*
X123631242Y-63984818D01*
X123628620Y-63990362D01*
X123625467Y-63995623D01*
X123621813Y-64000550D01*
X123617694Y-64005094D01*
X123613150Y-64009213D01*
X123608223Y-64012867D01*
X123602962Y-64016020D01*
X123597418Y-64018642D01*
X123591643Y-64020709D01*
X123585693Y-64022199D01*
X123579626Y-64023099D01*
X123573500Y-64023400D01*
X122623500Y-64023400D01*
X122617374Y-64023099D01*
X122611307Y-64022199D01*
X122605357Y-64020709D01*
X122599582Y-64018642D01*
X122594038Y-64016020D01*
X122588777Y-64012867D01*
X122583850Y-64009213D01*
X122579306Y-64005094D01*
X122575187Y-64000550D01*
X122571533Y-63995623D01*
X122568380Y-63990362D01*
X122565758Y-63984818D01*
X122563691Y-63979043D01*
X122562201Y-63973093D01*
X122561301Y-63967026D01*
X122561000Y-63960900D01*
X122561000Y-63835900D01*
X122561301Y-63829774D01*
X122562201Y-63823707D01*
X122563691Y-63817757D01*
X122565758Y-63811982D01*
X122568380Y-63806438D01*
X122571533Y-63801177D01*
X122575187Y-63796250D01*
X122579306Y-63791706D01*
X122583850Y-63787587D01*
X122588777Y-63783933D01*
X122594038Y-63780780D01*
X122599582Y-63778158D01*
X122605357Y-63776091D01*
X122611307Y-63774601D01*
X122617374Y-63773701D01*
X122623500Y-63773400D01*
X123573500Y-63773400D01*
X123579626Y-63773701D01*
X123579626Y-63773701D01*
G37*
D12*
X123098500Y-63898400D03*
D11*
G36*
X123579626Y-63273701D02*
G01*
X123585693Y-63274601D01*
X123591643Y-63276091D01*
X123597418Y-63278158D01*
X123602962Y-63280780D01*
X123608223Y-63283933D01*
X123613150Y-63287587D01*
X123617694Y-63291706D01*
X123621813Y-63296250D01*
X123625467Y-63301177D01*
X123628620Y-63306438D01*
X123631242Y-63311982D01*
X123633309Y-63317757D01*
X123634799Y-63323707D01*
X123635699Y-63329774D01*
X123636000Y-63335900D01*
X123636000Y-63460900D01*
X123635699Y-63467026D01*
X123634799Y-63473093D01*
X123633309Y-63479043D01*
X123631242Y-63484818D01*
X123628620Y-63490362D01*
X123625467Y-63495623D01*
X123621813Y-63500550D01*
X123617694Y-63505094D01*
X123613150Y-63509213D01*
X123608223Y-63512867D01*
X123602962Y-63516020D01*
X123597418Y-63518642D01*
X123591643Y-63520709D01*
X123585693Y-63522199D01*
X123579626Y-63523099D01*
X123573500Y-63523400D01*
X122623500Y-63523400D01*
X122617374Y-63523099D01*
X122611307Y-63522199D01*
X122605357Y-63520709D01*
X122599582Y-63518642D01*
X122594038Y-63516020D01*
X122588777Y-63512867D01*
X122583850Y-63509213D01*
X122579306Y-63505094D01*
X122575187Y-63500550D01*
X122571533Y-63495623D01*
X122568380Y-63490362D01*
X122565758Y-63484818D01*
X122563691Y-63479043D01*
X122562201Y-63473093D01*
X122561301Y-63467026D01*
X122561000Y-63460900D01*
X122561000Y-63335900D01*
X122561301Y-63329774D01*
X122562201Y-63323707D01*
X122563691Y-63317757D01*
X122565758Y-63311982D01*
X122568380Y-63306438D01*
X122571533Y-63301177D01*
X122575187Y-63296250D01*
X122579306Y-63291706D01*
X122583850Y-63287587D01*
X122588777Y-63283933D01*
X122594038Y-63280780D01*
X122599582Y-63278158D01*
X122605357Y-63276091D01*
X122611307Y-63274601D01*
X122617374Y-63273701D01*
X122623500Y-63273400D01*
X123573500Y-63273400D01*
X123579626Y-63273701D01*
X123579626Y-63273701D01*
G37*
D12*
X123098500Y-63398400D03*
D11*
G36*
X123579626Y-62773701D02*
G01*
X123585693Y-62774601D01*
X123591643Y-62776091D01*
X123597418Y-62778158D01*
X123602962Y-62780780D01*
X123608223Y-62783933D01*
X123613150Y-62787587D01*
X123617694Y-62791706D01*
X123621813Y-62796250D01*
X123625467Y-62801177D01*
X123628620Y-62806438D01*
X123631242Y-62811982D01*
X123633309Y-62817757D01*
X123634799Y-62823707D01*
X123635699Y-62829774D01*
X123636000Y-62835900D01*
X123636000Y-62960900D01*
X123635699Y-62967026D01*
X123634799Y-62973093D01*
X123633309Y-62979043D01*
X123631242Y-62984818D01*
X123628620Y-62990362D01*
X123625467Y-62995623D01*
X123621813Y-63000550D01*
X123617694Y-63005094D01*
X123613150Y-63009213D01*
X123608223Y-63012867D01*
X123602962Y-63016020D01*
X123597418Y-63018642D01*
X123591643Y-63020709D01*
X123585693Y-63022199D01*
X123579626Y-63023099D01*
X123573500Y-63023400D01*
X122623500Y-63023400D01*
X122617374Y-63023099D01*
X122611307Y-63022199D01*
X122605357Y-63020709D01*
X122599582Y-63018642D01*
X122594038Y-63016020D01*
X122588777Y-63012867D01*
X122583850Y-63009213D01*
X122579306Y-63005094D01*
X122575187Y-63000550D01*
X122571533Y-62995623D01*
X122568380Y-62990362D01*
X122565758Y-62984818D01*
X122563691Y-62979043D01*
X122562201Y-62973093D01*
X122561301Y-62967026D01*
X122561000Y-62960900D01*
X122561000Y-62835900D01*
X122561301Y-62829774D01*
X122562201Y-62823707D01*
X122563691Y-62817757D01*
X122565758Y-62811982D01*
X122568380Y-62806438D01*
X122571533Y-62801177D01*
X122575187Y-62796250D01*
X122579306Y-62791706D01*
X122583850Y-62787587D01*
X122588777Y-62783933D01*
X122594038Y-62780780D01*
X122599582Y-62778158D01*
X122605357Y-62776091D01*
X122611307Y-62774601D01*
X122617374Y-62773701D01*
X122623500Y-62773400D01*
X123573500Y-62773400D01*
X123579626Y-62773701D01*
X123579626Y-62773701D01*
G37*
D12*
X123098500Y-62898400D03*
D11*
G36*
X123579626Y-62273701D02*
G01*
X123585693Y-62274601D01*
X123591643Y-62276091D01*
X123597418Y-62278158D01*
X123602962Y-62280780D01*
X123608223Y-62283933D01*
X123613150Y-62287587D01*
X123617694Y-62291706D01*
X123621813Y-62296250D01*
X123625467Y-62301177D01*
X123628620Y-62306438D01*
X123631242Y-62311982D01*
X123633309Y-62317757D01*
X123634799Y-62323707D01*
X123635699Y-62329774D01*
X123636000Y-62335900D01*
X123636000Y-62460900D01*
X123635699Y-62467026D01*
X123634799Y-62473093D01*
X123633309Y-62479043D01*
X123631242Y-62484818D01*
X123628620Y-62490362D01*
X123625467Y-62495623D01*
X123621813Y-62500550D01*
X123617694Y-62505094D01*
X123613150Y-62509213D01*
X123608223Y-62512867D01*
X123602962Y-62516020D01*
X123597418Y-62518642D01*
X123591643Y-62520709D01*
X123585693Y-62522199D01*
X123579626Y-62523099D01*
X123573500Y-62523400D01*
X122623500Y-62523400D01*
X122617374Y-62523099D01*
X122611307Y-62522199D01*
X122605357Y-62520709D01*
X122599582Y-62518642D01*
X122594038Y-62516020D01*
X122588777Y-62512867D01*
X122583850Y-62509213D01*
X122579306Y-62505094D01*
X122575187Y-62500550D01*
X122571533Y-62495623D01*
X122568380Y-62490362D01*
X122565758Y-62484818D01*
X122563691Y-62479043D01*
X122562201Y-62473093D01*
X122561301Y-62467026D01*
X122561000Y-62460900D01*
X122561000Y-62335900D01*
X122561301Y-62329774D01*
X122562201Y-62323707D01*
X122563691Y-62317757D01*
X122565758Y-62311982D01*
X122568380Y-62306438D01*
X122571533Y-62301177D01*
X122575187Y-62296250D01*
X122579306Y-62291706D01*
X122583850Y-62287587D01*
X122588777Y-62283933D01*
X122594038Y-62280780D01*
X122599582Y-62278158D01*
X122605357Y-62276091D01*
X122611307Y-62274601D01*
X122617374Y-62273701D01*
X122623500Y-62273400D01*
X123573500Y-62273400D01*
X123579626Y-62273701D01*
X123579626Y-62273701D01*
G37*
D12*
X123098500Y-62398400D03*
D11*
G36*
X123579626Y-61773701D02*
G01*
X123585693Y-61774601D01*
X123591643Y-61776091D01*
X123597418Y-61778158D01*
X123602962Y-61780780D01*
X123608223Y-61783933D01*
X123613150Y-61787587D01*
X123617694Y-61791706D01*
X123621813Y-61796250D01*
X123625467Y-61801177D01*
X123628620Y-61806438D01*
X123631242Y-61811982D01*
X123633309Y-61817757D01*
X123634799Y-61823707D01*
X123635699Y-61829774D01*
X123636000Y-61835900D01*
X123636000Y-61960900D01*
X123635699Y-61967026D01*
X123634799Y-61973093D01*
X123633309Y-61979043D01*
X123631242Y-61984818D01*
X123628620Y-61990362D01*
X123625467Y-61995623D01*
X123621813Y-62000550D01*
X123617694Y-62005094D01*
X123613150Y-62009213D01*
X123608223Y-62012867D01*
X123602962Y-62016020D01*
X123597418Y-62018642D01*
X123591643Y-62020709D01*
X123585693Y-62022199D01*
X123579626Y-62023099D01*
X123573500Y-62023400D01*
X122623500Y-62023400D01*
X122617374Y-62023099D01*
X122611307Y-62022199D01*
X122605357Y-62020709D01*
X122599582Y-62018642D01*
X122594038Y-62016020D01*
X122588777Y-62012867D01*
X122583850Y-62009213D01*
X122579306Y-62005094D01*
X122575187Y-62000550D01*
X122571533Y-61995623D01*
X122568380Y-61990362D01*
X122565758Y-61984818D01*
X122563691Y-61979043D01*
X122562201Y-61973093D01*
X122561301Y-61967026D01*
X122561000Y-61960900D01*
X122561000Y-61835900D01*
X122561301Y-61829774D01*
X122562201Y-61823707D01*
X122563691Y-61817757D01*
X122565758Y-61811982D01*
X122568380Y-61806438D01*
X122571533Y-61801177D01*
X122575187Y-61796250D01*
X122579306Y-61791706D01*
X122583850Y-61787587D01*
X122588777Y-61783933D01*
X122594038Y-61780780D01*
X122599582Y-61778158D01*
X122605357Y-61776091D01*
X122611307Y-61774601D01*
X122617374Y-61773701D01*
X122623500Y-61773400D01*
X123573500Y-61773400D01*
X123579626Y-61773701D01*
X123579626Y-61773701D01*
G37*
D12*
X123098500Y-61898400D03*
D11*
G36*
X123579626Y-61273701D02*
G01*
X123585693Y-61274601D01*
X123591643Y-61276091D01*
X123597418Y-61278158D01*
X123602962Y-61280780D01*
X123608223Y-61283933D01*
X123613150Y-61287587D01*
X123617694Y-61291706D01*
X123621813Y-61296250D01*
X123625467Y-61301177D01*
X123628620Y-61306438D01*
X123631242Y-61311982D01*
X123633309Y-61317757D01*
X123634799Y-61323707D01*
X123635699Y-61329774D01*
X123636000Y-61335900D01*
X123636000Y-61460900D01*
X123635699Y-61467026D01*
X123634799Y-61473093D01*
X123633309Y-61479043D01*
X123631242Y-61484818D01*
X123628620Y-61490362D01*
X123625467Y-61495623D01*
X123621813Y-61500550D01*
X123617694Y-61505094D01*
X123613150Y-61509213D01*
X123608223Y-61512867D01*
X123602962Y-61516020D01*
X123597418Y-61518642D01*
X123591643Y-61520709D01*
X123585693Y-61522199D01*
X123579626Y-61523099D01*
X123573500Y-61523400D01*
X122623500Y-61523400D01*
X122617374Y-61523099D01*
X122611307Y-61522199D01*
X122605357Y-61520709D01*
X122599582Y-61518642D01*
X122594038Y-61516020D01*
X122588777Y-61512867D01*
X122583850Y-61509213D01*
X122579306Y-61505094D01*
X122575187Y-61500550D01*
X122571533Y-61495623D01*
X122568380Y-61490362D01*
X122565758Y-61484818D01*
X122563691Y-61479043D01*
X122562201Y-61473093D01*
X122561301Y-61467026D01*
X122561000Y-61460900D01*
X122561000Y-61335900D01*
X122561301Y-61329774D01*
X122562201Y-61323707D01*
X122563691Y-61317757D01*
X122565758Y-61311982D01*
X122568380Y-61306438D01*
X122571533Y-61301177D01*
X122575187Y-61296250D01*
X122579306Y-61291706D01*
X122583850Y-61287587D01*
X122588777Y-61283933D01*
X122594038Y-61280780D01*
X122599582Y-61278158D01*
X122605357Y-61276091D01*
X122611307Y-61274601D01*
X122617374Y-61273701D01*
X122623500Y-61273400D01*
X123573500Y-61273400D01*
X123579626Y-61273701D01*
X123579626Y-61273701D01*
G37*
D12*
X123098500Y-61398400D03*
D11*
G36*
X123579626Y-60773701D02*
G01*
X123585693Y-60774601D01*
X123591643Y-60776091D01*
X123597418Y-60778158D01*
X123602962Y-60780780D01*
X123608223Y-60783933D01*
X123613150Y-60787587D01*
X123617694Y-60791706D01*
X123621813Y-60796250D01*
X123625467Y-60801177D01*
X123628620Y-60806438D01*
X123631242Y-60811982D01*
X123633309Y-60817757D01*
X123634799Y-60823707D01*
X123635699Y-60829774D01*
X123636000Y-60835900D01*
X123636000Y-60960900D01*
X123635699Y-60967026D01*
X123634799Y-60973093D01*
X123633309Y-60979043D01*
X123631242Y-60984818D01*
X123628620Y-60990362D01*
X123625467Y-60995623D01*
X123621813Y-61000550D01*
X123617694Y-61005094D01*
X123613150Y-61009213D01*
X123608223Y-61012867D01*
X123602962Y-61016020D01*
X123597418Y-61018642D01*
X123591643Y-61020709D01*
X123585693Y-61022199D01*
X123579626Y-61023099D01*
X123573500Y-61023400D01*
X122623500Y-61023400D01*
X122617374Y-61023099D01*
X122611307Y-61022199D01*
X122605357Y-61020709D01*
X122599582Y-61018642D01*
X122594038Y-61016020D01*
X122588777Y-61012867D01*
X122583850Y-61009213D01*
X122579306Y-61005094D01*
X122575187Y-61000550D01*
X122571533Y-60995623D01*
X122568380Y-60990362D01*
X122565758Y-60984818D01*
X122563691Y-60979043D01*
X122562201Y-60973093D01*
X122561301Y-60967026D01*
X122561000Y-60960900D01*
X122561000Y-60835900D01*
X122561301Y-60829774D01*
X122562201Y-60823707D01*
X122563691Y-60817757D01*
X122565758Y-60811982D01*
X122568380Y-60806438D01*
X122571533Y-60801177D01*
X122575187Y-60796250D01*
X122579306Y-60791706D01*
X122583850Y-60787587D01*
X122588777Y-60783933D01*
X122594038Y-60780780D01*
X122599582Y-60778158D01*
X122605357Y-60776091D01*
X122611307Y-60774601D01*
X122617374Y-60773701D01*
X122623500Y-60773400D01*
X123573500Y-60773400D01*
X123579626Y-60773701D01*
X123579626Y-60773701D01*
G37*
D12*
X123098500Y-60898400D03*
D11*
G36*
X122329626Y-59523701D02*
G01*
X122335693Y-59524601D01*
X122341643Y-59526091D01*
X122347418Y-59528158D01*
X122352962Y-59530780D01*
X122358223Y-59533933D01*
X122363150Y-59537587D01*
X122367694Y-59541706D01*
X122371813Y-59546250D01*
X122375467Y-59551177D01*
X122378620Y-59556438D01*
X122381242Y-59561982D01*
X122383309Y-59567757D01*
X122384799Y-59573707D01*
X122385699Y-59579774D01*
X122386000Y-59585900D01*
X122386000Y-60535900D01*
X122385699Y-60542026D01*
X122384799Y-60548093D01*
X122383309Y-60554043D01*
X122381242Y-60559818D01*
X122378620Y-60565362D01*
X122375467Y-60570623D01*
X122371813Y-60575550D01*
X122367694Y-60580094D01*
X122363150Y-60584213D01*
X122358223Y-60587867D01*
X122352962Y-60591020D01*
X122347418Y-60593642D01*
X122341643Y-60595709D01*
X122335693Y-60597199D01*
X122329626Y-60598099D01*
X122323500Y-60598400D01*
X122198500Y-60598400D01*
X122192374Y-60598099D01*
X122186307Y-60597199D01*
X122180357Y-60595709D01*
X122174582Y-60593642D01*
X122169038Y-60591020D01*
X122163777Y-60587867D01*
X122158850Y-60584213D01*
X122154306Y-60580094D01*
X122150187Y-60575550D01*
X122146533Y-60570623D01*
X122143380Y-60565362D01*
X122140758Y-60559818D01*
X122138691Y-60554043D01*
X122137201Y-60548093D01*
X122136301Y-60542026D01*
X122136000Y-60535900D01*
X122136000Y-59585900D01*
X122136301Y-59579774D01*
X122137201Y-59573707D01*
X122138691Y-59567757D01*
X122140758Y-59561982D01*
X122143380Y-59556438D01*
X122146533Y-59551177D01*
X122150187Y-59546250D01*
X122154306Y-59541706D01*
X122158850Y-59537587D01*
X122163777Y-59533933D01*
X122169038Y-59530780D01*
X122174582Y-59528158D01*
X122180357Y-59526091D01*
X122186307Y-59524601D01*
X122192374Y-59523701D01*
X122198500Y-59523400D01*
X122323500Y-59523400D01*
X122329626Y-59523701D01*
X122329626Y-59523701D01*
G37*
D12*
X122261000Y-60060900D03*
D11*
G36*
X121829626Y-59523701D02*
G01*
X121835693Y-59524601D01*
X121841643Y-59526091D01*
X121847418Y-59528158D01*
X121852962Y-59530780D01*
X121858223Y-59533933D01*
X121863150Y-59537587D01*
X121867694Y-59541706D01*
X121871813Y-59546250D01*
X121875467Y-59551177D01*
X121878620Y-59556438D01*
X121881242Y-59561982D01*
X121883309Y-59567757D01*
X121884799Y-59573707D01*
X121885699Y-59579774D01*
X121886000Y-59585900D01*
X121886000Y-60535900D01*
X121885699Y-60542026D01*
X121884799Y-60548093D01*
X121883309Y-60554043D01*
X121881242Y-60559818D01*
X121878620Y-60565362D01*
X121875467Y-60570623D01*
X121871813Y-60575550D01*
X121867694Y-60580094D01*
X121863150Y-60584213D01*
X121858223Y-60587867D01*
X121852962Y-60591020D01*
X121847418Y-60593642D01*
X121841643Y-60595709D01*
X121835693Y-60597199D01*
X121829626Y-60598099D01*
X121823500Y-60598400D01*
X121698500Y-60598400D01*
X121692374Y-60598099D01*
X121686307Y-60597199D01*
X121680357Y-60595709D01*
X121674582Y-60593642D01*
X121669038Y-60591020D01*
X121663777Y-60587867D01*
X121658850Y-60584213D01*
X121654306Y-60580094D01*
X121650187Y-60575550D01*
X121646533Y-60570623D01*
X121643380Y-60565362D01*
X121640758Y-60559818D01*
X121638691Y-60554043D01*
X121637201Y-60548093D01*
X121636301Y-60542026D01*
X121636000Y-60535900D01*
X121636000Y-59585900D01*
X121636301Y-59579774D01*
X121637201Y-59573707D01*
X121638691Y-59567757D01*
X121640758Y-59561982D01*
X121643380Y-59556438D01*
X121646533Y-59551177D01*
X121650187Y-59546250D01*
X121654306Y-59541706D01*
X121658850Y-59537587D01*
X121663777Y-59533933D01*
X121669038Y-59530780D01*
X121674582Y-59528158D01*
X121680357Y-59526091D01*
X121686307Y-59524601D01*
X121692374Y-59523701D01*
X121698500Y-59523400D01*
X121823500Y-59523400D01*
X121829626Y-59523701D01*
X121829626Y-59523701D01*
G37*
D12*
X121761000Y-60060900D03*
D11*
G36*
X121329626Y-59523701D02*
G01*
X121335693Y-59524601D01*
X121341643Y-59526091D01*
X121347418Y-59528158D01*
X121352962Y-59530780D01*
X121358223Y-59533933D01*
X121363150Y-59537587D01*
X121367694Y-59541706D01*
X121371813Y-59546250D01*
X121375467Y-59551177D01*
X121378620Y-59556438D01*
X121381242Y-59561982D01*
X121383309Y-59567757D01*
X121384799Y-59573707D01*
X121385699Y-59579774D01*
X121386000Y-59585900D01*
X121386000Y-60535900D01*
X121385699Y-60542026D01*
X121384799Y-60548093D01*
X121383309Y-60554043D01*
X121381242Y-60559818D01*
X121378620Y-60565362D01*
X121375467Y-60570623D01*
X121371813Y-60575550D01*
X121367694Y-60580094D01*
X121363150Y-60584213D01*
X121358223Y-60587867D01*
X121352962Y-60591020D01*
X121347418Y-60593642D01*
X121341643Y-60595709D01*
X121335693Y-60597199D01*
X121329626Y-60598099D01*
X121323500Y-60598400D01*
X121198500Y-60598400D01*
X121192374Y-60598099D01*
X121186307Y-60597199D01*
X121180357Y-60595709D01*
X121174582Y-60593642D01*
X121169038Y-60591020D01*
X121163777Y-60587867D01*
X121158850Y-60584213D01*
X121154306Y-60580094D01*
X121150187Y-60575550D01*
X121146533Y-60570623D01*
X121143380Y-60565362D01*
X121140758Y-60559818D01*
X121138691Y-60554043D01*
X121137201Y-60548093D01*
X121136301Y-60542026D01*
X121136000Y-60535900D01*
X121136000Y-59585900D01*
X121136301Y-59579774D01*
X121137201Y-59573707D01*
X121138691Y-59567757D01*
X121140758Y-59561982D01*
X121143380Y-59556438D01*
X121146533Y-59551177D01*
X121150187Y-59546250D01*
X121154306Y-59541706D01*
X121158850Y-59537587D01*
X121163777Y-59533933D01*
X121169038Y-59530780D01*
X121174582Y-59528158D01*
X121180357Y-59526091D01*
X121186307Y-59524601D01*
X121192374Y-59523701D01*
X121198500Y-59523400D01*
X121323500Y-59523400D01*
X121329626Y-59523701D01*
X121329626Y-59523701D01*
G37*
D12*
X121261000Y-60060900D03*
D11*
G36*
X120829626Y-59523701D02*
G01*
X120835693Y-59524601D01*
X120841643Y-59526091D01*
X120847418Y-59528158D01*
X120852962Y-59530780D01*
X120858223Y-59533933D01*
X120863150Y-59537587D01*
X120867694Y-59541706D01*
X120871813Y-59546250D01*
X120875467Y-59551177D01*
X120878620Y-59556438D01*
X120881242Y-59561982D01*
X120883309Y-59567757D01*
X120884799Y-59573707D01*
X120885699Y-59579774D01*
X120886000Y-59585900D01*
X120886000Y-60535900D01*
X120885699Y-60542026D01*
X120884799Y-60548093D01*
X120883309Y-60554043D01*
X120881242Y-60559818D01*
X120878620Y-60565362D01*
X120875467Y-60570623D01*
X120871813Y-60575550D01*
X120867694Y-60580094D01*
X120863150Y-60584213D01*
X120858223Y-60587867D01*
X120852962Y-60591020D01*
X120847418Y-60593642D01*
X120841643Y-60595709D01*
X120835693Y-60597199D01*
X120829626Y-60598099D01*
X120823500Y-60598400D01*
X120698500Y-60598400D01*
X120692374Y-60598099D01*
X120686307Y-60597199D01*
X120680357Y-60595709D01*
X120674582Y-60593642D01*
X120669038Y-60591020D01*
X120663777Y-60587867D01*
X120658850Y-60584213D01*
X120654306Y-60580094D01*
X120650187Y-60575550D01*
X120646533Y-60570623D01*
X120643380Y-60565362D01*
X120640758Y-60559818D01*
X120638691Y-60554043D01*
X120637201Y-60548093D01*
X120636301Y-60542026D01*
X120636000Y-60535900D01*
X120636000Y-59585900D01*
X120636301Y-59579774D01*
X120637201Y-59573707D01*
X120638691Y-59567757D01*
X120640758Y-59561982D01*
X120643380Y-59556438D01*
X120646533Y-59551177D01*
X120650187Y-59546250D01*
X120654306Y-59541706D01*
X120658850Y-59537587D01*
X120663777Y-59533933D01*
X120669038Y-59530780D01*
X120674582Y-59528158D01*
X120680357Y-59526091D01*
X120686307Y-59524601D01*
X120692374Y-59523701D01*
X120698500Y-59523400D01*
X120823500Y-59523400D01*
X120829626Y-59523701D01*
X120829626Y-59523701D01*
G37*
D12*
X120761000Y-60060900D03*
D11*
G36*
X120329626Y-59523701D02*
G01*
X120335693Y-59524601D01*
X120341643Y-59526091D01*
X120347418Y-59528158D01*
X120352962Y-59530780D01*
X120358223Y-59533933D01*
X120363150Y-59537587D01*
X120367694Y-59541706D01*
X120371813Y-59546250D01*
X120375467Y-59551177D01*
X120378620Y-59556438D01*
X120381242Y-59561982D01*
X120383309Y-59567757D01*
X120384799Y-59573707D01*
X120385699Y-59579774D01*
X120386000Y-59585900D01*
X120386000Y-60535900D01*
X120385699Y-60542026D01*
X120384799Y-60548093D01*
X120383309Y-60554043D01*
X120381242Y-60559818D01*
X120378620Y-60565362D01*
X120375467Y-60570623D01*
X120371813Y-60575550D01*
X120367694Y-60580094D01*
X120363150Y-60584213D01*
X120358223Y-60587867D01*
X120352962Y-60591020D01*
X120347418Y-60593642D01*
X120341643Y-60595709D01*
X120335693Y-60597199D01*
X120329626Y-60598099D01*
X120323500Y-60598400D01*
X120198500Y-60598400D01*
X120192374Y-60598099D01*
X120186307Y-60597199D01*
X120180357Y-60595709D01*
X120174582Y-60593642D01*
X120169038Y-60591020D01*
X120163777Y-60587867D01*
X120158850Y-60584213D01*
X120154306Y-60580094D01*
X120150187Y-60575550D01*
X120146533Y-60570623D01*
X120143380Y-60565362D01*
X120140758Y-60559818D01*
X120138691Y-60554043D01*
X120137201Y-60548093D01*
X120136301Y-60542026D01*
X120136000Y-60535900D01*
X120136000Y-59585900D01*
X120136301Y-59579774D01*
X120137201Y-59573707D01*
X120138691Y-59567757D01*
X120140758Y-59561982D01*
X120143380Y-59556438D01*
X120146533Y-59551177D01*
X120150187Y-59546250D01*
X120154306Y-59541706D01*
X120158850Y-59537587D01*
X120163777Y-59533933D01*
X120169038Y-59530780D01*
X120174582Y-59528158D01*
X120180357Y-59526091D01*
X120186307Y-59524601D01*
X120192374Y-59523701D01*
X120198500Y-59523400D01*
X120323500Y-59523400D01*
X120329626Y-59523701D01*
X120329626Y-59523701D01*
G37*
D12*
X120261000Y-60060900D03*
D11*
G36*
X119829626Y-59523701D02*
G01*
X119835693Y-59524601D01*
X119841643Y-59526091D01*
X119847418Y-59528158D01*
X119852962Y-59530780D01*
X119858223Y-59533933D01*
X119863150Y-59537587D01*
X119867694Y-59541706D01*
X119871813Y-59546250D01*
X119875467Y-59551177D01*
X119878620Y-59556438D01*
X119881242Y-59561982D01*
X119883309Y-59567757D01*
X119884799Y-59573707D01*
X119885699Y-59579774D01*
X119886000Y-59585900D01*
X119886000Y-60535900D01*
X119885699Y-60542026D01*
X119884799Y-60548093D01*
X119883309Y-60554043D01*
X119881242Y-60559818D01*
X119878620Y-60565362D01*
X119875467Y-60570623D01*
X119871813Y-60575550D01*
X119867694Y-60580094D01*
X119863150Y-60584213D01*
X119858223Y-60587867D01*
X119852962Y-60591020D01*
X119847418Y-60593642D01*
X119841643Y-60595709D01*
X119835693Y-60597199D01*
X119829626Y-60598099D01*
X119823500Y-60598400D01*
X119698500Y-60598400D01*
X119692374Y-60598099D01*
X119686307Y-60597199D01*
X119680357Y-60595709D01*
X119674582Y-60593642D01*
X119669038Y-60591020D01*
X119663777Y-60587867D01*
X119658850Y-60584213D01*
X119654306Y-60580094D01*
X119650187Y-60575550D01*
X119646533Y-60570623D01*
X119643380Y-60565362D01*
X119640758Y-60559818D01*
X119638691Y-60554043D01*
X119637201Y-60548093D01*
X119636301Y-60542026D01*
X119636000Y-60535900D01*
X119636000Y-59585900D01*
X119636301Y-59579774D01*
X119637201Y-59573707D01*
X119638691Y-59567757D01*
X119640758Y-59561982D01*
X119643380Y-59556438D01*
X119646533Y-59551177D01*
X119650187Y-59546250D01*
X119654306Y-59541706D01*
X119658850Y-59537587D01*
X119663777Y-59533933D01*
X119669038Y-59530780D01*
X119674582Y-59528158D01*
X119680357Y-59526091D01*
X119686307Y-59524601D01*
X119692374Y-59523701D01*
X119698500Y-59523400D01*
X119823500Y-59523400D01*
X119829626Y-59523701D01*
X119829626Y-59523701D01*
G37*
D12*
X119761000Y-60060900D03*
D11*
G36*
X119329626Y-59523701D02*
G01*
X119335693Y-59524601D01*
X119341643Y-59526091D01*
X119347418Y-59528158D01*
X119352962Y-59530780D01*
X119358223Y-59533933D01*
X119363150Y-59537587D01*
X119367694Y-59541706D01*
X119371813Y-59546250D01*
X119375467Y-59551177D01*
X119378620Y-59556438D01*
X119381242Y-59561982D01*
X119383309Y-59567757D01*
X119384799Y-59573707D01*
X119385699Y-59579774D01*
X119386000Y-59585900D01*
X119386000Y-60535900D01*
X119385699Y-60542026D01*
X119384799Y-60548093D01*
X119383309Y-60554043D01*
X119381242Y-60559818D01*
X119378620Y-60565362D01*
X119375467Y-60570623D01*
X119371813Y-60575550D01*
X119367694Y-60580094D01*
X119363150Y-60584213D01*
X119358223Y-60587867D01*
X119352962Y-60591020D01*
X119347418Y-60593642D01*
X119341643Y-60595709D01*
X119335693Y-60597199D01*
X119329626Y-60598099D01*
X119323500Y-60598400D01*
X119198500Y-60598400D01*
X119192374Y-60598099D01*
X119186307Y-60597199D01*
X119180357Y-60595709D01*
X119174582Y-60593642D01*
X119169038Y-60591020D01*
X119163777Y-60587867D01*
X119158850Y-60584213D01*
X119154306Y-60580094D01*
X119150187Y-60575550D01*
X119146533Y-60570623D01*
X119143380Y-60565362D01*
X119140758Y-60559818D01*
X119138691Y-60554043D01*
X119137201Y-60548093D01*
X119136301Y-60542026D01*
X119136000Y-60535900D01*
X119136000Y-59585900D01*
X119136301Y-59579774D01*
X119137201Y-59573707D01*
X119138691Y-59567757D01*
X119140758Y-59561982D01*
X119143380Y-59556438D01*
X119146533Y-59551177D01*
X119150187Y-59546250D01*
X119154306Y-59541706D01*
X119158850Y-59537587D01*
X119163777Y-59533933D01*
X119169038Y-59530780D01*
X119174582Y-59528158D01*
X119180357Y-59526091D01*
X119186307Y-59524601D01*
X119192374Y-59523701D01*
X119198500Y-59523400D01*
X119323500Y-59523400D01*
X119329626Y-59523701D01*
X119329626Y-59523701D01*
G37*
D12*
X119261000Y-60060900D03*
D11*
G36*
X118829626Y-59523701D02*
G01*
X118835693Y-59524601D01*
X118841643Y-59526091D01*
X118847418Y-59528158D01*
X118852962Y-59530780D01*
X118858223Y-59533933D01*
X118863150Y-59537587D01*
X118867694Y-59541706D01*
X118871813Y-59546250D01*
X118875467Y-59551177D01*
X118878620Y-59556438D01*
X118881242Y-59561982D01*
X118883309Y-59567757D01*
X118884799Y-59573707D01*
X118885699Y-59579774D01*
X118886000Y-59585900D01*
X118886000Y-60535900D01*
X118885699Y-60542026D01*
X118884799Y-60548093D01*
X118883309Y-60554043D01*
X118881242Y-60559818D01*
X118878620Y-60565362D01*
X118875467Y-60570623D01*
X118871813Y-60575550D01*
X118867694Y-60580094D01*
X118863150Y-60584213D01*
X118858223Y-60587867D01*
X118852962Y-60591020D01*
X118847418Y-60593642D01*
X118841643Y-60595709D01*
X118835693Y-60597199D01*
X118829626Y-60598099D01*
X118823500Y-60598400D01*
X118698500Y-60598400D01*
X118692374Y-60598099D01*
X118686307Y-60597199D01*
X118680357Y-60595709D01*
X118674582Y-60593642D01*
X118669038Y-60591020D01*
X118663777Y-60587867D01*
X118658850Y-60584213D01*
X118654306Y-60580094D01*
X118650187Y-60575550D01*
X118646533Y-60570623D01*
X118643380Y-60565362D01*
X118640758Y-60559818D01*
X118638691Y-60554043D01*
X118637201Y-60548093D01*
X118636301Y-60542026D01*
X118636000Y-60535900D01*
X118636000Y-59585900D01*
X118636301Y-59579774D01*
X118637201Y-59573707D01*
X118638691Y-59567757D01*
X118640758Y-59561982D01*
X118643380Y-59556438D01*
X118646533Y-59551177D01*
X118650187Y-59546250D01*
X118654306Y-59541706D01*
X118658850Y-59537587D01*
X118663777Y-59533933D01*
X118669038Y-59530780D01*
X118674582Y-59528158D01*
X118680357Y-59526091D01*
X118686307Y-59524601D01*
X118692374Y-59523701D01*
X118698500Y-59523400D01*
X118823500Y-59523400D01*
X118829626Y-59523701D01*
X118829626Y-59523701D01*
G37*
D12*
X118761000Y-60060900D03*
D11*
G36*
X118329626Y-59523701D02*
G01*
X118335693Y-59524601D01*
X118341643Y-59526091D01*
X118347418Y-59528158D01*
X118352962Y-59530780D01*
X118358223Y-59533933D01*
X118363150Y-59537587D01*
X118367694Y-59541706D01*
X118371813Y-59546250D01*
X118375467Y-59551177D01*
X118378620Y-59556438D01*
X118381242Y-59561982D01*
X118383309Y-59567757D01*
X118384799Y-59573707D01*
X118385699Y-59579774D01*
X118386000Y-59585900D01*
X118386000Y-60535900D01*
X118385699Y-60542026D01*
X118384799Y-60548093D01*
X118383309Y-60554043D01*
X118381242Y-60559818D01*
X118378620Y-60565362D01*
X118375467Y-60570623D01*
X118371813Y-60575550D01*
X118367694Y-60580094D01*
X118363150Y-60584213D01*
X118358223Y-60587867D01*
X118352962Y-60591020D01*
X118347418Y-60593642D01*
X118341643Y-60595709D01*
X118335693Y-60597199D01*
X118329626Y-60598099D01*
X118323500Y-60598400D01*
X118198500Y-60598400D01*
X118192374Y-60598099D01*
X118186307Y-60597199D01*
X118180357Y-60595709D01*
X118174582Y-60593642D01*
X118169038Y-60591020D01*
X118163777Y-60587867D01*
X118158850Y-60584213D01*
X118154306Y-60580094D01*
X118150187Y-60575550D01*
X118146533Y-60570623D01*
X118143380Y-60565362D01*
X118140758Y-60559818D01*
X118138691Y-60554043D01*
X118137201Y-60548093D01*
X118136301Y-60542026D01*
X118136000Y-60535900D01*
X118136000Y-59585900D01*
X118136301Y-59579774D01*
X118137201Y-59573707D01*
X118138691Y-59567757D01*
X118140758Y-59561982D01*
X118143380Y-59556438D01*
X118146533Y-59551177D01*
X118150187Y-59546250D01*
X118154306Y-59541706D01*
X118158850Y-59537587D01*
X118163777Y-59533933D01*
X118169038Y-59530780D01*
X118174582Y-59528158D01*
X118180357Y-59526091D01*
X118186307Y-59524601D01*
X118192374Y-59523701D01*
X118198500Y-59523400D01*
X118323500Y-59523400D01*
X118329626Y-59523701D01*
X118329626Y-59523701D01*
G37*
D12*
X118261000Y-60060900D03*
D11*
G36*
X117829626Y-59523701D02*
G01*
X117835693Y-59524601D01*
X117841643Y-59526091D01*
X117847418Y-59528158D01*
X117852962Y-59530780D01*
X117858223Y-59533933D01*
X117863150Y-59537587D01*
X117867694Y-59541706D01*
X117871813Y-59546250D01*
X117875467Y-59551177D01*
X117878620Y-59556438D01*
X117881242Y-59561982D01*
X117883309Y-59567757D01*
X117884799Y-59573707D01*
X117885699Y-59579774D01*
X117886000Y-59585900D01*
X117886000Y-60535900D01*
X117885699Y-60542026D01*
X117884799Y-60548093D01*
X117883309Y-60554043D01*
X117881242Y-60559818D01*
X117878620Y-60565362D01*
X117875467Y-60570623D01*
X117871813Y-60575550D01*
X117867694Y-60580094D01*
X117863150Y-60584213D01*
X117858223Y-60587867D01*
X117852962Y-60591020D01*
X117847418Y-60593642D01*
X117841643Y-60595709D01*
X117835693Y-60597199D01*
X117829626Y-60598099D01*
X117823500Y-60598400D01*
X117698500Y-60598400D01*
X117692374Y-60598099D01*
X117686307Y-60597199D01*
X117680357Y-60595709D01*
X117674582Y-60593642D01*
X117669038Y-60591020D01*
X117663777Y-60587867D01*
X117658850Y-60584213D01*
X117654306Y-60580094D01*
X117650187Y-60575550D01*
X117646533Y-60570623D01*
X117643380Y-60565362D01*
X117640758Y-60559818D01*
X117638691Y-60554043D01*
X117637201Y-60548093D01*
X117636301Y-60542026D01*
X117636000Y-60535900D01*
X117636000Y-59585900D01*
X117636301Y-59579774D01*
X117637201Y-59573707D01*
X117638691Y-59567757D01*
X117640758Y-59561982D01*
X117643380Y-59556438D01*
X117646533Y-59551177D01*
X117650187Y-59546250D01*
X117654306Y-59541706D01*
X117658850Y-59537587D01*
X117663777Y-59533933D01*
X117669038Y-59530780D01*
X117674582Y-59528158D01*
X117680357Y-59526091D01*
X117686307Y-59524601D01*
X117692374Y-59523701D01*
X117698500Y-59523400D01*
X117823500Y-59523400D01*
X117829626Y-59523701D01*
X117829626Y-59523701D01*
G37*
D12*
X117761000Y-60060900D03*
D11*
G36*
X117329626Y-59523701D02*
G01*
X117335693Y-59524601D01*
X117341643Y-59526091D01*
X117347418Y-59528158D01*
X117352962Y-59530780D01*
X117358223Y-59533933D01*
X117363150Y-59537587D01*
X117367694Y-59541706D01*
X117371813Y-59546250D01*
X117375467Y-59551177D01*
X117378620Y-59556438D01*
X117381242Y-59561982D01*
X117383309Y-59567757D01*
X117384799Y-59573707D01*
X117385699Y-59579774D01*
X117386000Y-59585900D01*
X117386000Y-60535900D01*
X117385699Y-60542026D01*
X117384799Y-60548093D01*
X117383309Y-60554043D01*
X117381242Y-60559818D01*
X117378620Y-60565362D01*
X117375467Y-60570623D01*
X117371813Y-60575550D01*
X117367694Y-60580094D01*
X117363150Y-60584213D01*
X117358223Y-60587867D01*
X117352962Y-60591020D01*
X117347418Y-60593642D01*
X117341643Y-60595709D01*
X117335693Y-60597199D01*
X117329626Y-60598099D01*
X117323500Y-60598400D01*
X117198500Y-60598400D01*
X117192374Y-60598099D01*
X117186307Y-60597199D01*
X117180357Y-60595709D01*
X117174582Y-60593642D01*
X117169038Y-60591020D01*
X117163777Y-60587867D01*
X117158850Y-60584213D01*
X117154306Y-60580094D01*
X117150187Y-60575550D01*
X117146533Y-60570623D01*
X117143380Y-60565362D01*
X117140758Y-60559818D01*
X117138691Y-60554043D01*
X117137201Y-60548093D01*
X117136301Y-60542026D01*
X117136000Y-60535900D01*
X117136000Y-59585900D01*
X117136301Y-59579774D01*
X117137201Y-59573707D01*
X117138691Y-59567757D01*
X117140758Y-59561982D01*
X117143380Y-59556438D01*
X117146533Y-59551177D01*
X117150187Y-59546250D01*
X117154306Y-59541706D01*
X117158850Y-59537587D01*
X117163777Y-59533933D01*
X117169038Y-59530780D01*
X117174582Y-59528158D01*
X117180357Y-59526091D01*
X117186307Y-59524601D01*
X117192374Y-59523701D01*
X117198500Y-59523400D01*
X117323500Y-59523400D01*
X117329626Y-59523701D01*
X117329626Y-59523701D01*
G37*
D12*
X117261000Y-60060900D03*
D11*
G36*
X116904626Y-60773701D02*
G01*
X116910693Y-60774601D01*
X116916643Y-60776091D01*
X116922418Y-60778158D01*
X116927962Y-60780780D01*
X116933223Y-60783933D01*
X116938150Y-60787587D01*
X116942694Y-60791706D01*
X116946813Y-60796250D01*
X116950467Y-60801177D01*
X116953620Y-60806438D01*
X116956242Y-60811982D01*
X116958309Y-60817757D01*
X116959799Y-60823707D01*
X116960699Y-60829774D01*
X116961000Y-60835900D01*
X116961000Y-60960900D01*
X116960699Y-60967026D01*
X116959799Y-60973093D01*
X116958309Y-60979043D01*
X116956242Y-60984818D01*
X116953620Y-60990362D01*
X116950467Y-60995623D01*
X116946813Y-61000550D01*
X116942694Y-61005094D01*
X116938150Y-61009213D01*
X116933223Y-61012867D01*
X116927962Y-61016020D01*
X116922418Y-61018642D01*
X116916643Y-61020709D01*
X116910693Y-61022199D01*
X116904626Y-61023099D01*
X116898500Y-61023400D01*
X115948500Y-61023400D01*
X115942374Y-61023099D01*
X115936307Y-61022199D01*
X115930357Y-61020709D01*
X115924582Y-61018642D01*
X115919038Y-61016020D01*
X115913777Y-61012867D01*
X115908850Y-61009213D01*
X115904306Y-61005094D01*
X115900187Y-61000550D01*
X115896533Y-60995623D01*
X115893380Y-60990362D01*
X115890758Y-60984818D01*
X115888691Y-60979043D01*
X115887201Y-60973093D01*
X115886301Y-60967026D01*
X115886000Y-60960900D01*
X115886000Y-60835900D01*
X115886301Y-60829774D01*
X115887201Y-60823707D01*
X115888691Y-60817757D01*
X115890758Y-60811982D01*
X115893380Y-60806438D01*
X115896533Y-60801177D01*
X115900187Y-60796250D01*
X115904306Y-60791706D01*
X115908850Y-60787587D01*
X115913777Y-60783933D01*
X115919038Y-60780780D01*
X115924582Y-60778158D01*
X115930357Y-60776091D01*
X115936307Y-60774601D01*
X115942374Y-60773701D01*
X115948500Y-60773400D01*
X116898500Y-60773400D01*
X116904626Y-60773701D01*
X116904626Y-60773701D01*
G37*
D12*
X116423500Y-60898400D03*
D11*
G36*
X116904626Y-61273701D02*
G01*
X116910693Y-61274601D01*
X116916643Y-61276091D01*
X116922418Y-61278158D01*
X116927962Y-61280780D01*
X116933223Y-61283933D01*
X116938150Y-61287587D01*
X116942694Y-61291706D01*
X116946813Y-61296250D01*
X116950467Y-61301177D01*
X116953620Y-61306438D01*
X116956242Y-61311982D01*
X116958309Y-61317757D01*
X116959799Y-61323707D01*
X116960699Y-61329774D01*
X116961000Y-61335900D01*
X116961000Y-61460900D01*
X116960699Y-61467026D01*
X116959799Y-61473093D01*
X116958309Y-61479043D01*
X116956242Y-61484818D01*
X116953620Y-61490362D01*
X116950467Y-61495623D01*
X116946813Y-61500550D01*
X116942694Y-61505094D01*
X116938150Y-61509213D01*
X116933223Y-61512867D01*
X116927962Y-61516020D01*
X116922418Y-61518642D01*
X116916643Y-61520709D01*
X116910693Y-61522199D01*
X116904626Y-61523099D01*
X116898500Y-61523400D01*
X115948500Y-61523400D01*
X115942374Y-61523099D01*
X115936307Y-61522199D01*
X115930357Y-61520709D01*
X115924582Y-61518642D01*
X115919038Y-61516020D01*
X115913777Y-61512867D01*
X115908850Y-61509213D01*
X115904306Y-61505094D01*
X115900187Y-61500550D01*
X115896533Y-61495623D01*
X115893380Y-61490362D01*
X115890758Y-61484818D01*
X115888691Y-61479043D01*
X115887201Y-61473093D01*
X115886301Y-61467026D01*
X115886000Y-61460900D01*
X115886000Y-61335900D01*
X115886301Y-61329774D01*
X115887201Y-61323707D01*
X115888691Y-61317757D01*
X115890758Y-61311982D01*
X115893380Y-61306438D01*
X115896533Y-61301177D01*
X115900187Y-61296250D01*
X115904306Y-61291706D01*
X115908850Y-61287587D01*
X115913777Y-61283933D01*
X115919038Y-61280780D01*
X115924582Y-61278158D01*
X115930357Y-61276091D01*
X115936307Y-61274601D01*
X115942374Y-61273701D01*
X115948500Y-61273400D01*
X116898500Y-61273400D01*
X116904626Y-61273701D01*
X116904626Y-61273701D01*
G37*
D12*
X116423500Y-61398400D03*
D11*
G36*
X116904626Y-61773701D02*
G01*
X116910693Y-61774601D01*
X116916643Y-61776091D01*
X116922418Y-61778158D01*
X116927962Y-61780780D01*
X116933223Y-61783933D01*
X116938150Y-61787587D01*
X116942694Y-61791706D01*
X116946813Y-61796250D01*
X116950467Y-61801177D01*
X116953620Y-61806438D01*
X116956242Y-61811982D01*
X116958309Y-61817757D01*
X116959799Y-61823707D01*
X116960699Y-61829774D01*
X116961000Y-61835900D01*
X116961000Y-61960900D01*
X116960699Y-61967026D01*
X116959799Y-61973093D01*
X116958309Y-61979043D01*
X116956242Y-61984818D01*
X116953620Y-61990362D01*
X116950467Y-61995623D01*
X116946813Y-62000550D01*
X116942694Y-62005094D01*
X116938150Y-62009213D01*
X116933223Y-62012867D01*
X116927962Y-62016020D01*
X116922418Y-62018642D01*
X116916643Y-62020709D01*
X116910693Y-62022199D01*
X116904626Y-62023099D01*
X116898500Y-62023400D01*
X115948500Y-62023400D01*
X115942374Y-62023099D01*
X115936307Y-62022199D01*
X115930357Y-62020709D01*
X115924582Y-62018642D01*
X115919038Y-62016020D01*
X115913777Y-62012867D01*
X115908850Y-62009213D01*
X115904306Y-62005094D01*
X115900187Y-62000550D01*
X115896533Y-61995623D01*
X115893380Y-61990362D01*
X115890758Y-61984818D01*
X115888691Y-61979043D01*
X115887201Y-61973093D01*
X115886301Y-61967026D01*
X115886000Y-61960900D01*
X115886000Y-61835900D01*
X115886301Y-61829774D01*
X115887201Y-61823707D01*
X115888691Y-61817757D01*
X115890758Y-61811982D01*
X115893380Y-61806438D01*
X115896533Y-61801177D01*
X115900187Y-61796250D01*
X115904306Y-61791706D01*
X115908850Y-61787587D01*
X115913777Y-61783933D01*
X115919038Y-61780780D01*
X115924582Y-61778158D01*
X115930357Y-61776091D01*
X115936307Y-61774601D01*
X115942374Y-61773701D01*
X115948500Y-61773400D01*
X116898500Y-61773400D01*
X116904626Y-61773701D01*
X116904626Y-61773701D01*
G37*
D12*
X116423500Y-61898400D03*
D11*
G36*
X116904626Y-62273701D02*
G01*
X116910693Y-62274601D01*
X116916643Y-62276091D01*
X116922418Y-62278158D01*
X116927962Y-62280780D01*
X116933223Y-62283933D01*
X116938150Y-62287587D01*
X116942694Y-62291706D01*
X116946813Y-62296250D01*
X116950467Y-62301177D01*
X116953620Y-62306438D01*
X116956242Y-62311982D01*
X116958309Y-62317757D01*
X116959799Y-62323707D01*
X116960699Y-62329774D01*
X116961000Y-62335900D01*
X116961000Y-62460900D01*
X116960699Y-62467026D01*
X116959799Y-62473093D01*
X116958309Y-62479043D01*
X116956242Y-62484818D01*
X116953620Y-62490362D01*
X116950467Y-62495623D01*
X116946813Y-62500550D01*
X116942694Y-62505094D01*
X116938150Y-62509213D01*
X116933223Y-62512867D01*
X116927962Y-62516020D01*
X116922418Y-62518642D01*
X116916643Y-62520709D01*
X116910693Y-62522199D01*
X116904626Y-62523099D01*
X116898500Y-62523400D01*
X115948500Y-62523400D01*
X115942374Y-62523099D01*
X115936307Y-62522199D01*
X115930357Y-62520709D01*
X115924582Y-62518642D01*
X115919038Y-62516020D01*
X115913777Y-62512867D01*
X115908850Y-62509213D01*
X115904306Y-62505094D01*
X115900187Y-62500550D01*
X115896533Y-62495623D01*
X115893380Y-62490362D01*
X115890758Y-62484818D01*
X115888691Y-62479043D01*
X115887201Y-62473093D01*
X115886301Y-62467026D01*
X115886000Y-62460900D01*
X115886000Y-62335900D01*
X115886301Y-62329774D01*
X115887201Y-62323707D01*
X115888691Y-62317757D01*
X115890758Y-62311982D01*
X115893380Y-62306438D01*
X115896533Y-62301177D01*
X115900187Y-62296250D01*
X115904306Y-62291706D01*
X115908850Y-62287587D01*
X115913777Y-62283933D01*
X115919038Y-62280780D01*
X115924582Y-62278158D01*
X115930357Y-62276091D01*
X115936307Y-62274601D01*
X115942374Y-62273701D01*
X115948500Y-62273400D01*
X116898500Y-62273400D01*
X116904626Y-62273701D01*
X116904626Y-62273701D01*
G37*
D12*
X116423500Y-62398400D03*
D11*
G36*
X116904626Y-62773701D02*
G01*
X116910693Y-62774601D01*
X116916643Y-62776091D01*
X116922418Y-62778158D01*
X116927962Y-62780780D01*
X116933223Y-62783933D01*
X116938150Y-62787587D01*
X116942694Y-62791706D01*
X116946813Y-62796250D01*
X116950467Y-62801177D01*
X116953620Y-62806438D01*
X116956242Y-62811982D01*
X116958309Y-62817757D01*
X116959799Y-62823707D01*
X116960699Y-62829774D01*
X116961000Y-62835900D01*
X116961000Y-62960900D01*
X116960699Y-62967026D01*
X116959799Y-62973093D01*
X116958309Y-62979043D01*
X116956242Y-62984818D01*
X116953620Y-62990362D01*
X116950467Y-62995623D01*
X116946813Y-63000550D01*
X116942694Y-63005094D01*
X116938150Y-63009213D01*
X116933223Y-63012867D01*
X116927962Y-63016020D01*
X116922418Y-63018642D01*
X116916643Y-63020709D01*
X116910693Y-63022199D01*
X116904626Y-63023099D01*
X116898500Y-63023400D01*
X115948500Y-63023400D01*
X115942374Y-63023099D01*
X115936307Y-63022199D01*
X115930357Y-63020709D01*
X115924582Y-63018642D01*
X115919038Y-63016020D01*
X115913777Y-63012867D01*
X115908850Y-63009213D01*
X115904306Y-63005094D01*
X115900187Y-63000550D01*
X115896533Y-62995623D01*
X115893380Y-62990362D01*
X115890758Y-62984818D01*
X115888691Y-62979043D01*
X115887201Y-62973093D01*
X115886301Y-62967026D01*
X115886000Y-62960900D01*
X115886000Y-62835900D01*
X115886301Y-62829774D01*
X115887201Y-62823707D01*
X115888691Y-62817757D01*
X115890758Y-62811982D01*
X115893380Y-62806438D01*
X115896533Y-62801177D01*
X115900187Y-62796250D01*
X115904306Y-62791706D01*
X115908850Y-62787587D01*
X115913777Y-62783933D01*
X115919038Y-62780780D01*
X115924582Y-62778158D01*
X115930357Y-62776091D01*
X115936307Y-62774601D01*
X115942374Y-62773701D01*
X115948500Y-62773400D01*
X116898500Y-62773400D01*
X116904626Y-62773701D01*
X116904626Y-62773701D01*
G37*
D12*
X116423500Y-62898400D03*
D11*
G36*
X116904626Y-63273701D02*
G01*
X116910693Y-63274601D01*
X116916643Y-63276091D01*
X116922418Y-63278158D01*
X116927962Y-63280780D01*
X116933223Y-63283933D01*
X116938150Y-63287587D01*
X116942694Y-63291706D01*
X116946813Y-63296250D01*
X116950467Y-63301177D01*
X116953620Y-63306438D01*
X116956242Y-63311982D01*
X116958309Y-63317757D01*
X116959799Y-63323707D01*
X116960699Y-63329774D01*
X116961000Y-63335900D01*
X116961000Y-63460900D01*
X116960699Y-63467026D01*
X116959799Y-63473093D01*
X116958309Y-63479043D01*
X116956242Y-63484818D01*
X116953620Y-63490362D01*
X116950467Y-63495623D01*
X116946813Y-63500550D01*
X116942694Y-63505094D01*
X116938150Y-63509213D01*
X116933223Y-63512867D01*
X116927962Y-63516020D01*
X116922418Y-63518642D01*
X116916643Y-63520709D01*
X116910693Y-63522199D01*
X116904626Y-63523099D01*
X116898500Y-63523400D01*
X115948500Y-63523400D01*
X115942374Y-63523099D01*
X115936307Y-63522199D01*
X115930357Y-63520709D01*
X115924582Y-63518642D01*
X115919038Y-63516020D01*
X115913777Y-63512867D01*
X115908850Y-63509213D01*
X115904306Y-63505094D01*
X115900187Y-63500550D01*
X115896533Y-63495623D01*
X115893380Y-63490362D01*
X115890758Y-63484818D01*
X115888691Y-63479043D01*
X115887201Y-63473093D01*
X115886301Y-63467026D01*
X115886000Y-63460900D01*
X115886000Y-63335900D01*
X115886301Y-63329774D01*
X115887201Y-63323707D01*
X115888691Y-63317757D01*
X115890758Y-63311982D01*
X115893380Y-63306438D01*
X115896533Y-63301177D01*
X115900187Y-63296250D01*
X115904306Y-63291706D01*
X115908850Y-63287587D01*
X115913777Y-63283933D01*
X115919038Y-63280780D01*
X115924582Y-63278158D01*
X115930357Y-63276091D01*
X115936307Y-63274601D01*
X115942374Y-63273701D01*
X115948500Y-63273400D01*
X116898500Y-63273400D01*
X116904626Y-63273701D01*
X116904626Y-63273701D01*
G37*
D12*
X116423500Y-63398400D03*
D11*
G36*
X116904626Y-63773701D02*
G01*
X116910693Y-63774601D01*
X116916643Y-63776091D01*
X116922418Y-63778158D01*
X116927962Y-63780780D01*
X116933223Y-63783933D01*
X116938150Y-63787587D01*
X116942694Y-63791706D01*
X116946813Y-63796250D01*
X116950467Y-63801177D01*
X116953620Y-63806438D01*
X116956242Y-63811982D01*
X116958309Y-63817757D01*
X116959799Y-63823707D01*
X116960699Y-63829774D01*
X116961000Y-63835900D01*
X116961000Y-63960900D01*
X116960699Y-63967026D01*
X116959799Y-63973093D01*
X116958309Y-63979043D01*
X116956242Y-63984818D01*
X116953620Y-63990362D01*
X116950467Y-63995623D01*
X116946813Y-64000550D01*
X116942694Y-64005094D01*
X116938150Y-64009213D01*
X116933223Y-64012867D01*
X116927962Y-64016020D01*
X116922418Y-64018642D01*
X116916643Y-64020709D01*
X116910693Y-64022199D01*
X116904626Y-64023099D01*
X116898500Y-64023400D01*
X115948500Y-64023400D01*
X115942374Y-64023099D01*
X115936307Y-64022199D01*
X115930357Y-64020709D01*
X115924582Y-64018642D01*
X115919038Y-64016020D01*
X115913777Y-64012867D01*
X115908850Y-64009213D01*
X115904306Y-64005094D01*
X115900187Y-64000550D01*
X115896533Y-63995623D01*
X115893380Y-63990362D01*
X115890758Y-63984818D01*
X115888691Y-63979043D01*
X115887201Y-63973093D01*
X115886301Y-63967026D01*
X115886000Y-63960900D01*
X115886000Y-63835900D01*
X115886301Y-63829774D01*
X115887201Y-63823707D01*
X115888691Y-63817757D01*
X115890758Y-63811982D01*
X115893380Y-63806438D01*
X115896533Y-63801177D01*
X115900187Y-63796250D01*
X115904306Y-63791706D01*
X115908850Y-63787587D01*
X115913777Y-63783933D01*
X115919038Y-63780780D01*
X115924582Y-63778158D01*
X115930357Y-63776091D01*
X115936307Y-63774601D01*
X115942374Y-63773701D01*
X115948500Y-63773400D01*
X116898500Y-63773400D01*
X116904626Y-63773701D01*
X116904626Y-63773701D01*
G37*
D12*
X116423500Y-63898400D03*
D11*
G36*
X116904626Y-64273701D02*
G01*
X116910693Y-64274601D01*
X116916643Y-64276091D01*
X116922418Y-64278158D01*
X116927962Y-64280780D01*
X116933223Y-64283933D01*
X116938150Y-64287587D01*
X116942694Y-64291706D01*
X116946813Y-64296250D01*
X116950467Y-64301177D01*
X116953620Y-64306438D01*
X116956242Y-64311982D01*
X116958309Y-64317757D01*
X116959799Y-64323707D01*
X116960699Y-64329774D01*
X116961000Y-64335900D01*
X116961000Y-64460900D01*
X116960699Y-64467026D01*
X116959799Y-64473093D01*
X116958309Y-64479043D01*
X116956242Y-64484818D01*
X116953620Y-64490362D01*
X116950467Y-64495623D01*
X116946813Y-64500550D01*
X116942694Y-64505094D01*
X116938150Y-64509213D01*
X116933223Y-64512867D01*
X116927962Y-64516020D01*
X116922418Y-64518642D01*
X116916643Y-64520709D01*
X116910693Y-64522199D01*
X116904626Y-64523099D01*
X116898500Y-64523400D01*
X115948500Y-64523400D01*
X115942374Y-64523099D01*
X115936307Y-64522199D01*
X115930357Y-64520709D01*
X115924582Y-64518642D01*
X115919038Y-64516020D01*
X115913777Y-64512867D01*
X115908850Y-64509213D01*
X115904306Y-64505094D01*
X115900187Y-64500550D01*
X115896533Y-64495623D01*
X115893380Y-64490362D01*
X115890758Y-64484818D01*
X115888691Y-64479043D01*
X115887201Y-64473093D01*
X115886301Y-64467026D01*
X115886000Y-64460900D01*
X115886000Y-64335900D01*
X115886301Y-64329774D01*
X115887201Y-64323707D01*
X115888691Y-64317757D01*
X115890758Y-64311982D01*
X115893380Y-64306438D01*
X115896533Y-64301177D01*
X115900187Y-64296250D01*
X115904306Y-64291706D01*
X115908850Y-64287587D01*
X115913777Y-64283933D01*
X115919038Y-64280780D01*
X115924582Y-64278158D01*
X115930357Y-64276091D01*
X115936307Y-64274601D01*
X115942374Y-64273701D01*
X115948500Y-64273400D01*
X116898500Y-64273400D01*
X116904626Y-64273701D01*
X116904626Y-64273701D01*
G37*
D12*
X116423500Y-64398400D03*
D11*
G36*
X116904626Y-64773701D02*
G01*
X116910693Y-64774601D01*
X116916643Y-64776091D01*
X116922418Y-64778158D01*
X116927962Y-64780780D01*
X116933223Y-64783933D01*
X116938150Y-64787587D01*
X116942694Y-64791706D01*
X116946813Y-64796250D01*
X116950467Y-64801177D01*
X116953620Y-64806438D01*
X116956242Y-64811982D01*
X116958309Y-64817757D01*
X116959799Y-64823707D01*
X116960699Y-64829774D01*
X116961000Y-64835900D01*
X116961000Y-64960900D01*
X116960699Y-64967026D01*
X116959799Y-64973093D01*
X116958309Y-64979043D01*
X116956242Y-64984818D01*
X116953620Y-64990362D01*
X116950467Y-64995623D01*
X116946813Y-65000550D01*
X116942694Y-65005094D01*
X116938150Y-65009213D01*
X116933223Y-65012867D01*
X116927962Y-65016020D01*
X116922418Y-65018642D01*
X116916643Y-65020709D01*
X116910693Y-65022199D01*
X116904626Y-65023099D01*
X116898500Y-65023400D01*
X115948500Y-65023400D01*
X115942374Y-65023099D01*
X115936307Y-65022199D01*
X115930357Y-65020709D01*
X115924582Y-65018642D01*
X115919038Y-65016020D01*
X115913777Y-65012867D01*
X115908850Y-65009213D01*
X115904306Y-65005094D01*
X115900187Y-65000550D01*
X115896533Y-64995623D01*
X115893380Y-64990362D01*
X115890758Y-64984818D01*
X115888691Y-64979043D01*
X115887201Y-64973093D01*
X115886301Y-64967026D01*
X115886000Y-64960900D01*
X115886000Y-64835900D01*
X115886301Y-64829774D01*
X115887201Y-64823707D01*
X115888691Y-64817757D01*
X115890758Y-64811982D01*
X115893380Y-64806438D01*
X115896533Y-64801177D01*
X115900187Y-64796250D01*
X115904306Y-64791706D01*
X115908850Y-64787587D01*
X115913777Y-64783933D01*
X115919038Y-64780780D01*
X115924582Y-64778158D01*
X115930357Y-64776091D01*
X115936307Y-64774601D01*
X115942374Y-64773701D01*
X115948500Y-64773400D01*
X116898500Y-64773400D01*
X116904626Y-64773701D01*
X116904626Y-64773701D01*
G37*
D12*
X116423500Y-64898400D03*
D11*
G36*
X116904626Y-65273701D02*
G01*
X116910693Y-65274601D01*
X116916643Y-65276091D01*
X116922418Y-65278158D01*
X116927962Y-65280780D01*
X116933223Y-65283933D01*
X116938150Y-65287587D01*
X116942694Y-65291706D01*
X116946813Y-65296250D01*
X116950467Y-65301177D01*
X116953620Y-65306438D01*
X116956242Y-65311982D01*
X116958309Y-65317757D01*
X116959799Y-65323707D01*
X116960699Y-65329774D01*
X116961000Y-65335900D01*
X116961000Y-65460900D01*
X116960699Y-65467026D01*
X116959799Y-65473093D01*
X116958309Y-65479043D01*
X116956242Y-65484818D01*
X116953620Y-65490362D01*
X116950467Y-65495623D01*
X116946813Y-65500550D01*
X116942694Y-65505094D01*
X116938150Y-65509213D01*
X116933223Y-65512867D01*
X116927962Y-65516020D01*
X116922418Y-65518642D01*
X116916643Y-65520709D01*
X116910693Y-65522199D01*
X116904626Y-65523099D01*
X116898500Y-65523400D01*
X115948500Y-65523400D01*
X115942374Y-65523099D01*
X115936307Y-65522199D01*
X115930357Y-65520709D01*
X115924582Y-65518642D01*
X115919038Y-65516020D01*
X115913777Y-65512867D01*
X115908850Y-65509213D01*
X115904306Y-65505094D01*
X115900187Y-65500550D01*
X115896533Y-65495623D01*
X115893380Y-65490362D01*
X115890758Y-65484818D01*
X115888691Y-65479043D01*
X115887201Y-65473093D01*
X115886301Y-65467026D01*
X115886000Y-65460900D01*
X115886000Y-65335900D01*
X115886301Y-65329774D01*
X115887201Y-65323707D01*
X115888691Y-65317757D01*
X115890758Y-65311982D01*
X115893380Y-65306438D01*
X115896533Y-65301177D01*
X115900187Y-65296250D01*
X115904306Y-65291706D01*
X115908850Y-65287587D01*
X115913777Y-65283933D01*
X115919038Y-65280780D01*
X115924582Y-65278158D01*
X115930357Y-65276091D01*
X115936307Y-65274601D01*
X115942374Y-65273701D01*
X115948500Y-65273400D01*
X116898500Y-65273400D01*
X116904626Y-65273701D01*
X116904626Y-65273701D01*
G37*
D12*
X116423500Y-65398400D03*
D11*
G36*
X116904626Y-65773701D02*
G01*
X116910693Y-65774601D01*
X116916643Y-65776091D01*
X116922418Y-65778158D01*
X116927962Y-65780780D01*
X116933223Y-65783933D01*
X116938150Y-65787587D01*
X116942694Y-65791706D01*
X116946813Y-65796250D01*
X116950467Y-65801177D01*
X116953620Y-65806438D01*
X116956242Y-65811982D01*
X116958309Y-65817757D01*
X116959799Y-65823707D01*
X116960699Y-65829774D01*
X116961000Y-65835900D01*
X116961000Y-65960900D01*
X116960699Y-65967026D01*
X116959799Y-65973093D01*
X116958309Y-65979043D01*
X116956242Y-65984818D01*
X116953620Y-65990362D01*
X116950467Y-65995623D01*
X116946813Y-66000550D01*
X116942694Y-66005094D01*
X116938150Y-66009213D01*
X116933223Y-66012867D01*
X116927962Y-66016020D01*
X116922418Y-66018642D01*
X116916643Y-66020709D01*
X116910693Y-66022199D01*
X116904626Y-66023099D01*
X116898500Y-66023400D01*
X115948500Y-66023400D01*
X115942374Y-66023099D01*
X115936307Y-66022199D01*
X115930357Y-66020709D01*
X115924582Y-66018642D01*
X115919038Y-66016020D01*
X115913777Y-66012867D01*
X115908850Y-66009213D01*
X115904306Y-66005094D01*
X115900187Y-66000550D01*
X115896533Y-65995623D01*
X115893380Y-65990362D01*
X115890758Y-65984818D01*
X115888691Y-65979043D01*
X115887201Y-65973093D01*
X115886301Y-65967026D01*
X115886000Y-65960900D01*
X115886000Y-65835900D01*
X115886301Y-65829774D01*
X115887201Y-65823707D01*
X115888691Y-65817757D01*
X115890758Y-65811982D01*
X115893380Y-65806438D01*
X115896533Y-65801177D01*
X115900187Y-65796250D01*
X115904306Y-65791706D01*
X115908850Y-65787587D01*
X115913777Y-65783933D01*
X115919038Y-65780780D01*
X115924582Y-65778158D01*
X115930357Y-65776091D01*
X115936307Y-65774601D01*
X115942374Y-65773701D01*
X115948500Y-65773400D01*
X116898500Y-65773400D01*
X116904626Y-65773701D01*
X116904626Y-65773701D01*
G37*
D12*
X116423500Y-65898400D03*
D11*
G36*
X117329626Y-66198701D02*
G01*
X117335693Y-66199601D01*
X117341643Y-66201091D01*
X117347418Y-66203158D01*
X117352962Y-66205780D01*
X117358223Y-66208933D01*
X117363150Y-66212587D01*
X117367694Y-66216706D01*
X117371813Y-66221250D01*
X117375467Y-66226177D01*
X117378620Y-66231438D01*
X117381242Y-66236982D01*
X117383309Y-66242757D01*
X117384799Y-66248707D01*
X117385699Y-66254774D01*
X117386000Y-66260900D01*
X117386000Y-67210900D01*
X117385699Y-67217026D01*
X117384799Y-67223093D01*
X117383309Y-67229043D01*
X117381242Y-67234818D01*
X117378620Y-67240362D01*
X117375467Y-67245623D01*
X117371813Y-67250550D01*
X117367694Y-67255094D01*
X117363150Y-67259213D01*
X117358223Y-67262867D01*
X117352962Y-67266020D01*
X117347418Y-67268642D01*
X117341643Y-67270709D01*
X117335693Y-67272199D01*
X117329626Y-67273099D01*
X117323500Y-67273400D01*
X117198500Y-67273400D01*
X117192374Y-67273099D01*
X117186307Y-67272199D01*
X117180357Y-67270709D01*
X117174582Y-67268642D01*
X117169038Y-67266020D01*
X117163777Y-67262867D01*
X117158850Y-67259213D01*
X117154306Y-67255094D01*
X117150187Y-67250550D01*
X117146533Y-67245623D01*
X117143380Y-67240362D01*
X117140758Y-67234818D01*
X117138691Y-67229043D01*
X117137201Y-67223093D01*
X117136301Y-67217026D01*
X117136000Y-67210900D01*
X117136000Y-66260900D01*
X117136301Y-66254774D01*
X117137201Y-66248707D01*
X117138691Y-66242757D01*
X117140758Y-66236982D01*
X117143380Y-66231438D01*
X117146533Y-66226177D01*
X117150187Y-66221250D01*
X117154306Y-66216706D01*
X117158850Y-66212587D01*
X117163777Y-66208933D01*
X117169038Y-66205780D01*
X117174582Y-66203158D01*
X117180357Y-66201091D01*
X117186307Y-66199601D01*
X117192374Y-66198701D01*
X117198500Y-66198400D01*
X117323500Y-66198400D01*
X117329626Y-66198701D01*
X117329626Y-66198701D01*
G37*
D12*
X117261000Y-66735900D03*
D11*
G36*
X117829626Y-66198701D02*
G01*
X117835693Y-66199601D01*
X117841643Y-66201091D01*
X117847418Y-66203158D01*
X117852962Y-66205780D01*
X117858223Y-66208933D01*
X117863150Y-66212587D01*
X117867694Y-66216706D01*
X117871813Y-66221250D01*
X117875467Y-66226177D01*
X117878620Y-66231438D01*
X117881242Y-66236982D01*
X117883309Y-66242757D01*
X117884799Y-66248707D01*
X117885699Y-66254774D01*
X117886000Y-66260900D01*
X117886000Y-67210900D01*
X117885699Y-67217026D01*
X117884799Y-67223093D01*
X117883309Y-67229043D01*
X117881242Y-67234818D01*
X117878620Y-67240362D01*
X117875467Y-67245623D01*
X117871813Y-67250550D01*
X117867694Y-67255094D01*
X117863150Y-67259213D01*
X117858223Y-67262867D01*
X117852962Y-67266020D01*
X117847418Y-67268642D01*
X117841643Y-67270709D01*
X117835693Y-67272199D01*
X117829626Y-67273099D01*
X117823500Y-67273400D01*
X117698500Y-67273400D01*
X117692374Y-67273099D01*
X117686307Y-67272199D01*
X117680357Y-67270709D01*
X117674582Y-67268642D01*
X117669038Y-67266020D01*
X117663777Y-67262867D01*
X117658850Y-67259213D01*
X117654306Y-67255094D01*
X117650187Y-67250550D01*
X117646533Y-67245623D01*
X117643380Y-67240362D01*
X117640758Y-67234818D01*
X117638691Y-67229043D01*
X117637201Y-67223093D01*
X117636301Y-67217026D01*
X117636000Y-67210900D01*
X117636000Y-66260900D01*
X117636301Y-66254774D01*
X117637201Y-66248707D01*
X117638691Y-66242757D01*
X117640758Y-66236982D01*
X117643380Y-66231438D01*
X117646533Y-66226177D01*
X117650187Y-66221250D01*
X117654306Y-66216706D01*
X117658850Y-66212587D01*
X117663777Y-66208933D01*
X117669038Y-66205780D01*
X117674582Y-66203158D01*
X117680357Y-66201091D01*
X117686307Y-66199601D01*
X117692374Y-66198701D01*
X117698500Y-66198400D01*
X117823500Y-66198400D01*
X117829626Y-66198701D01*
X117829626Y-66198701D01*
G37*
D12*
X117761000Y-66735900D03*
D11*
G36*
X118329626Y-66198701D02*
G01*
X118335693Y-66199601D01*
X118341643Y-66201091D01*
X118347418Y-66203158D01*
X118352962Y-66205780D01*
X118358223Y-66208933D01*
X118363150Y-66212587D01*
X118367694Y-66216706D01*
X118371813Y-66221250D01*
X118375467Y-66226177D01*
X118378620Y-66231438D01*
X118381242Y-66236982D01*
X118383309Y-66242757D01*
X118384799Y-66248707D01*
X118385699Y-66254774D01*
X118386000Y-66260900D01*
X118386000Y-67210900D01*
X118385699Y-67217026D01*
X118384799Y-67223093D01*
X118383309Y-67229043D01*
X118381242Y-67234818D01*
X118378620Y-67240362D01*
X118375467Y-67245623D01*
X118371813Y-67250550D01*
X118367694Y-67255094D01*
X118363150Y-67259213D01*
X118358223Y-67262867D01*
X118352962Y-67266020D01*
X118347418Y-67268642D01*
X118341643Y-67270709D01*
X118335693Y-67272199D01*
X118329626Y-67273099D01*
X118323500Y-67273400D01*
X118198500Y-67273400D01*
X118192374Y-67273099D01*
X118186307Y-67272199D01*
X118180357Y-67270709D01*
X118174582Y-67268642D01*
X118169038Y-67266020D01*
X118163777Y-67262867D01*
X118158850Y-67259213D01*
X118154306Y-67255094D01*
X118150187Y-67250550D01*
X118146533Y-67245623D01*
X118143380Y-67240362D01*
X118140758Y-67234818D01*
X118138691Y-67229043D01*
X118137201Y-67223093D01*
X118136301Y-67217026D01*
X118136000Y-67210900D01*
X118136000Y-66260900D01*
X118136301Y-66254774D01*
X118137201Y-66248707D01*
X118138691Y-66242757D01*
X118140758Y-66236982D01*
X118143380Y-66231438D01*
X118146533Y-66226177D01*
X118150187Y-66221250D01*
X118154306Y-66216706D01*
X118158850Y-66212587D01*
X118163777Y-66208933D01*
X118169038Y-66205780D01*
X118174582Y-66203158D01*
X118180357Y-66201091D01*
X118186307Y-66199601D01*
X118192374Y-66198701D01*
X118198500Y-66198400D01*
X118323500Y-66198400D01*
X118329626Y-66198701D01*
X118329626Y-66198701D01*
G37*
D12*
X118261000Y-66735900D03*
D11*
G36*
X118829626Y-66198701D02*
G01*
X118835693Y-66199601D01*
X118841643Y-66201091D01*
X118847418Y-66203158D01*
X118852962Y-66205780D01*
X118858223Y-66208933D01*
X118863150Y-66212587D01*
X118867694Y-66216706D01*
X118871813Y-66221250D01*
X118875467Y-66226177D01*
X118878620Y-66231438D01*
X118881242Y-66236982D01*
X118883309Y-66242757D01*
X118884799Y-66248707D01*
X118885699Y-66254774D01*
X118886000Y-66260900D01*
X118886000Y-67210900D01*
X118885699Y-67217026D01*
X118884799Y-67223093D01*
X118883309Y-67229043D01*
X118881242Y-67234818D01*
X118878620Y-67240362D01*
X118875467Y-67245623D01*
X118871813Y-67250550D01*
X118867694Y-67255094D01*
X118863150Y-67259213D01*
X118858223Y-67262867D01*
X118852962Y-67266020D01*
X118847418Y-67268642D01*
X118841643Y-67270709D01*
X118835693Y-67272199D01*
X118829626Y-67273099D01*
X118823500Y-67273400D01*
X118698500Y-67273400D01*
X118692374Y-67273099D01*
X118686307Y-67272199D01*
X118680357Y-67270709D01*
X118674582Y-67268642D01*
X118669038Y-67266020D01*
X118663777Y-67262867D01*
X118658850Y-67259213D01*
X118654306Y-67255094D01*
X118650187Y-67250550D01*
X118646533Y-67245623D01*
X118643380Y-67240362D01*
X118640758Y-67234818D01*
X118638691Y-67229043D01*
X118637201Y-67223093D01*
X118636301Y-67217026D01*
X118636000Y-67210900D01*
X118636000Y-66260900D01*
X118636301Y-66254774D01*
X118637201Y-66248707D01*
X118638691Y-66242757D01*
X118640758Y-66236982D01*
X118643380Y-66231438D01*
X118646533Y-66226177D01*
X118650187Y-66221250D01*
X118654306Y-66216706D01*
X118658850Y-66212587D01*
X118663777Y-66208933D01*
X118669038Y-66205780D01*
X118674582Y-66203158D01*
X118680357Y-66201091D01*
X118686307Y-66199601D01*
X118692374Y-66198701D01*
X118698500Y-66198400D01*
X118823500Y-66198400D01*
X118829626Y-66198701D01*
X118829626Y-66198701D01*
G37*
D12*
X118761000Y-66735900D03*
D11*
G36*
X119329626Y-66198701D02*
G01*
X119335693Y-66199601D01*
X119341643Y-66201091D01*
X119347418Y-66203158D01*
X119352962Y-66205780D01*
X119358223Y-66208933D01*
X119363150Y-66212587D01*
X119367694Y-66216706D01*
X119371813Y-66221250D01*
X119375467Y-66226177D01*
X119378620Y-66231438D01*
X119381242Y-66236982D01*
X119383309Y-66242757D01*
X119384799Y-66248707D01*
X119385699Y-66254774D01*
X119386000Y-66260900D01*
X119386000Y-67210900D01*
X119385699Y-67217026D01*
X119384799Y-67223093D01*
X119383309Y-67229043D01*
X119381242Y-67234818D01*
X119378620Y-67240362D01*
X119375467Y-67245623D01*
X119371813Y-67250550D01*
X119367694Y-67255094D01*
X119363150Y-67259213D01*
X119358223Y-67262867D01*
X119352962Y-67266020D01*
X119347418Y-67268642D01*
X119341643Y-67270709D01*
X119335693Y-67272199D01*
X119329626Y-67273099D01*
X119323500Y-67273400D01*
X119198500Y-67273400D01*
X119192374Y-67273099D01*
X119186307Y-67272199D01*
X119180357Y-67270709D01*
X119174582Y-67268642D01*
X119169038Y-67266020D01*
X119163777Y-67262867D01*
X119158850Y-67259213D01*
X119154306Y-67255094D01*
X119150187Y-67250550D01*
X119146533Y-67245623D01*
X119143380Y-67240362D01*
X119140758Y-67234818D01*
X119138691Y-67229043D01*
X119137201Y-67223093D01*
X119136301Y-67217026D01*
X119136000Y-67210900D01*
X119136000Y-66260900D01*
X119136301Y-66254774D01*
X119137201Y-66248707D01*
X119138691Y-66242757D01*
X119140758Y-66236982D01*
X119143380Y-66231438D01*
X119146533Y-66226177D01*
X119150187Y-66221250D01*
X119154306Y-66216706D01*
X119158850Y-66212587D01*
X119163777Y-66208933D01*
X119169038Y-66205780D01*
X119174582Y-66203158D01*
X119180357Y-66201091D01*
X119186307Y-66199601D01*
X119192374Y-66198701D01*
X119198500Y-66198400D01*
X119323500Y-66198400D01*
X119329626Y-66198701D01*
X119329626Y-66198701D01*
G37*
D12*
X119261000Y-66735900D03*
D11*
G36*
X119829626Y-66198701D02*
G01*
X119835693Y-66199601D01*
X119841643Y-66201091D01*
X119847418Y-66203158D01*
X119852962Y-66205780D01*
X119858223Y-66208933D01*
X119863150Y-66212587D01*
X119867694Y-66216706D01*
X119871813Y-66221250D01*
X119875467Y-66226177D01*
X119878620Y-66231438D01*
X119881242Y-66236982D01*
X119883309Y-66242757D01*
X119884799Y-66248707D01*
X119885699Y-66254774D01*
X119886000Y-66260900D01*
X119886000Y-67210900D01*
X119885699Y-67217026D01*
X119884799Y-67223093D01*
X119883309Y-67229043D01*
X119881242Y-67234818D01*
X119878620Y-67240362D01*
X119875467Y-67245623D01*
X119871813Y-67250550D01*
X119867694Y-67255094D01*
X119863150Y-67259213D01*
X119858223Y-67262867D01*
X119852962Y-67266020D01*
X119847418Y-67268642D01*
X119841643Y-67270709D01*
X119835693Y-67272199D01*
X119829626Y-67273099D01*
X119823500Y-67273400D01*
X119698500Y-67273400D01*
X119692374Y-67273099D01*
X119686307Y-67272199D01*
X119680357Y-67270709D01*
X119674582Y-67268642D01*
X119669038Y-67266020D01*
X119663777Y-67262867D01*
X119658850Y-67259213D01*
X119654306Y-67255094D01*
X119650187Y-67250550D01*
X119646533Y-67245623D01*
X119643380Y-67240362D01*
X119640758Y-67234818D01*
X119638691Y-67229043D01*
X119637201Y-67223093D01*
X119636301Y-67217026D01*
X119636000Y-67210900D01*
X119636000Y-66260900D01*
X119636301Y-66254774D01*
X119637201Y-66248707D01*
X119638691Y-66242757D01*
X119640758Y-66236982D01*
X119643380Y-66231438D01*
X119646533Y-66226177D01*
X119650187Y-66221250D01*
X119654306Y-66216706D01*
X119658850Y-66212587D01*
X119663777Y-66208933D01*
X119669038Y-66205780D01*
X119674582Y-66203158D01*
X119680357Y-66201091D01*
X119686307Y-66199601D01*
X119692374Y-66198701D01*
X119698500Y-66198400D01*
X119823500Y-66198400D01*
X119829626Y-66198701D01*
X119829626Y-66198701D01*
G37*
D12*
X119761000Y-66735900D03*
D11*
G36*
X120329626Y-66198701D02*
G01*
X120335693Y-66199601D01*
X120341643Y-66201091D01*
X120347418Y-66203158D01*
X120352962Y-66205780D01*
X120358223Y-66208933D01*
X120363150Y-66212587D01*
X120367694Y-66216706D01*
X120371813Y-66221250D01*
X120375467Y-66226177D01*
X120378620Y-66231438D01*
X120381242Y-66236982D01*
X120383309Y-66242757D01*
X120384799Y-66248707D01*
X120385699Y-66254774D01*
X120386000Y-66260900D01*
X120386000Y-67210900D01*
X120385699Y-67217026D01*
X120384799Y-67223093D01*
X120383309Y-67229043D01*
X120381242Y-67234818D01*
X120378620Y-67240362D01*
X120375467Y-67245623D01*
X120371813Y-67250550D01*
X120367694Y-67255094D01*
X120363150Y-67259213D01*
X120358223Y-67262867D01*
X120352962Y-67266020D01*
X120347418Y-67268642D01*
X120341643Y-67270709D01*
X120335693Y-67272199D01*
X120329626Y-67273099D01*
X120323500Y-67273400D01*
X120198500Y-67273400D01*
X120192374Y-67273099D01*
X120186307Y-67272199D01*
X120180357Y-67270709D01*
X120174582Y-67268642D01*
X120169038Y-67266020D01*
X120163777Y-67262867D01*
X120158850Y-67259213D01*
X120154306Y-67255094D01*
X120150187Y-67250550D01*
X120146533Y-67245623D01*
X120143380Y-67240362D01*
X120140758Y-67234818D01*
X120138691Y-67229043D01*
X120137201Y-67223093D01*
X120136301Y-67217026D01*
X120136000Y-67210900D01*
X120136000Y-66260900D01*
X120136301Y-66254774D01*
X120137201Y-66248707D01*
X120138691Y-66242757D01*
X120140758Y-66236982D01*
X120143380Y-66231438D01*
X120146533Y-66226177D01*
X120150187Y-66221250D01*
X120154306Y-66216706D01*
X120158850Y-66212587D01*
X120163777Y-66208933D01*
X120169038Y-66205780D01*
X120174582Y-66203158D01*
X120180357Y-66201091D01*
X120186307Y-66199601D01*
X120192374Y-66198701D01*
X120198500Y-66198400D01*
X120323500Y-66198400D01*
X120329626Y-66198701D01*
X120329626Y-66198701D01*
G37*
D12*
X120261000Y-66735900D03*
D11*
G36*
X120829626Y-66198701D02*
G01*
X120835693Y-66199601D01*
X120841643Y-66201091D01*
X120847418Y-66203158D01*
X120852962Y-66205780D01*
X120858223Y-66208933D01*
X120863150Y-66212587D01*
X120867694Y-66216706D01*
X120871813Y-66221250D01*
X120875467Y-66226177D01*
X120878620Y-66231438D01*
X120881242Y-66236982D01*
X120883309Y-66242757D01*
X120884799Y-66248707D01*
X120885699Y-66254774D01*
X120886000Y-66260900D01*
X120886000Y-67210900D01*
X120885699Y-67217026D01*
X120884799Y-67223093D01*
X120883309Y-67229043D01*
X120881242Y-67234818D01*
X120878620Y-67240362D01*
X120875467Y-67245623D01*
X120871813Y-67250550D01*
X120867694Y-67255094D01*
X120863150Y-67259213D01*
X120858223Y-67262867D01*
X120852962Y-67266020D01*
X120847418Y-67268642D01*
X120841643Y-67270709D01*
X120835693Y-67272199D01*
X120829626Y-67273099D01*
X120823500Y-67273400D01*
X120698500Y-67273400D01*
X120692374Y-67273099D01*
X120686307Y-67272199D01*
X120680357Y-67270709D01*
X120674582Y-67268642D01*
X120669038Y-67266020D01*
X120663777Y-67262867D01*
X120658850Y-67259213D01*
X120654306Y-67255094D01*
X120650187Y-67250550D01*
X120646533Y-67245623D01*
X120643380Y-67240362D01*
X120640758Y-67234818D01*
X120638691Y-67229043D01*
X120637201Y-67223093D01*
X120636301Y-67217026D01*
X120636000Y-67210900D01*
X120636000Y-66260900D01*
X120636301Y-66254774D01*
X120637201Y-66248707D01*
X120638691Y-66242757D01*
X120640758Y-66236982D01*
X120643380Y-66231438D01*
X120646533Y-66226177D01*
X120650187Y-66221250D01*
X120654306Y-66216706D01*
X120658850Y-66212587D01*
X120663777Y-66208933D01*
X120669038Y-66205780D01*
X120674582Y-66203158D01*
X120680357Y-66201091D01*
X120686307Y-66199601D01*
X120692374Y-66198701D01*
X120698500Y-66198400D01*
X120823500Y-66198400D01*
X120829626Y-66198701D01*
X120829626Y-66198701D01*
G37*
D12*
X120761000Y-66735900D03*
D11*
G36*
X121329626Y-66198701D02*
G01*
X121335693Y-66199601D01*
X121341643Y-66201091D01*
X121347418Y-66203158D01*
X121352962Y-66205780D01*
X121358223Y-66208933D01*
X121363150Y-66212587D01*
X121367694Y-66216706D01*
X121371813Y-66221250D01*
X121375467Y-66226177D01*
X121378620Y-66231438D01*
X121381242Y-66236982D01*
X121383309Y-66242757D01*
X121384799Y-66248707D01*
X121385699Y-66254774D01*
X121386000Y-66260900D01*
X121386000Y-67210900D01*
X121385699Y-67217026D01*
X121384799Y-67223093D01*
X121383309Y-67229043D01*
X121381242Y-67234818D01*
X121378620Y-67240362D01*
X121375467Y-67245623D01*
X121371813Y-67250550D01*
X121367694Y-67255094D01*
X121363150Y-67259213D01*
X121358223Y-67262867D01*
X121352962Y-67266020D01*
X121347418Y-67268642D01*
X121341643Y-67270709D01*
X121335693Y-67272199D01*
X121329626Y-67273099D01*
X121323500Y-67273400D01*
X121198500Y-67273400D01*
X121192374Y-67273099D01*
X121186307Y-67272199D01*
X121180357Y-67270709D01*
X121174582Y-67268642D01*
X121169038Y-67266020D01*
X121163777Y-67262867D01*
X121158850Y-67259213D01*
X121154306Y-67255094D01*
X121150187Y-67250550D01*
X121146533Y-67245623D01*
X121143380Y-67240362D01*
X121140758Y-67234818D01*
X121138691Y-67229043D01*
X121137201Y-67223093D01*
X121136301Y-67217026D01*
X121136000Y-67210900D01*
X121136000Y-66260900D01*
X121136301Y-66254774D01*
X121137201Y-66248707D01*
X121138691Y-66242757D01*
X121140758Y-66236982D01*
X121143380Y-66231438D01*
X121146533Y-66226177D01*
X121150187Y-66221250D01*
X121154306Y-66216706D01*
X121158850Y-66212587D01*
X121163777Y-66208933D01*
X121169038Y-66205780D01*
X121174582Y-66203158D01*
X121180357Y-66201091D01*
X121186307Y-66199601D01*
X121192374Y-66198701D01*
X121198500Y-66198400D01*
X121323500Y-66198400D01*
X121329626Y-66198701D01*
X121329626Y-66198701D01*
G37*
D12*
X121261000Y-66735900D03*
D11*
G36*
X121829626Y-66198701D02*
G01*
X121835693Y-66199601D01*
X121841643Y-66201091D01*
X121847418Y-66203158D01*
X121852962Y-66205780D01*
X121858223Y-66208933D01*
X121863150Y-66212587D01*
X121867694Y-66216706D01*
X121871813Y-66221250D01*
X121875467Y-66226177D01*
X121878620Y-66231438D01*
X121881242Y-66236982D01*
X121883309Y-66242757D01*
X121884799Y-66248707D01*
X121885699Y-66254774D01*
X121886000Y-66260900D01*
X121886000Y-67210900D01*
X121885699Y-67217026D01*
X121884799Y-67223093D01*
X121883309Y-67229043D01*
X121881242Y-67234818D01*
X121878620Y-67240362D01*
X121875467Y-67245623D01*
X121871813Y-67250550D01*
X121867694Y-67255094D01*
X121863150Y-67259213D01*
X121858223Y-67262867D01*
X121852962Y-67266020D01*
X121847418Y-67268642D01*
X121841643Y-67270709D01*
X121835693Y-67272199D01*
X121829626Y-67273099D01*
X121823500Y-67273400D01*
X121698500Y-67273400D01*
X121692374Y-67273099D01*
X121686307Y-67272199D01*
X121680357Y-67270709D01*
X121674582Y-67268642D01*
X121669038Y-67266020D01*
X121663777Y-67262867D01*
X121658850Y-67259213D01*
X121654306Y-67255094D01*
X121650187Y-67250550D01*
X121646533Y-67245623D01*
X121643380Y-67240362D01*
X121640758Y-67234818D01*
X121638691Y-67229043D01*
X121637201Y-67223093D01*
X121636301Y-67217026D01*
X121636000Y-67210900D01*
X121636000Y-66260900D01*
X121636301Y-66254774D01*
X121637201Y-66248707D01*
X121638691Y-66242757D01*
X121640758Y-66236982D01*
X121643380Y-66231438D01*
X121646533Y-66226177D01*
X121650187Y-66221250D01*
X121654306Y-66216706D01*
X121658850Y-66212587D01*
X121663777Y-66208933D01*
X121669038Y-66205780D01*
X121674582Y-66203158D01*
X121680357Y-66201091D01*
X121686307Y-66199601D01*
X121692374Y-66198701D01*
X121698500Y-66198400D01*
X121823500Y-66198400D01*
X121829626Y-66198701D01*
X121829626Y-66198701D01*
G37*
D12*
X121761000Y-66735900D03*
D11*
G36*
X122329626Y-66198701D02*
G01*
X122335693Y-66199601D01*
X122341643Y-66201091D01*
X122347418Y-66203158D01*
X122352962Y-66205780D01*
X122358223Y-66208933D01*
X122363150Y-66212587D01*
X122367694Y-66216706D01*
X122371813Y-66221250D01*
X122375467Y-66226177D01*
X122378620Y-66231438D01*
X122381242Y-66236982D01*
X122383309Y-66242757D01*
X122384799Y-66248707D01*
X122385699Y-66254774D01*
X122386000Y-66260900D01*
X122386000Y-67210900D01*
X122385699Y-67217026D01*
X122384799Y-67223093D01*
X122383309Y-67229043D01*
X122381242Y-67234818D01*
X122378620Y-67240362D01*
X122375467Y-67245623D01*
X122371813Y-67250550D01*
X122367694Y-67255094D01*
X122363150Y-67259213D01*
X122358223Y-67262867D01*
X122352962Y-67266020D01*
X122347418Y-67268642D01*
X122341643Y-67270709D01*
X122335693Y-67272199D01*
X122329626Y-67273099D01*
X122323500Y-67273400D01*
X122198500Y-67273400D01*
X122192374Y-67273099D01*
X122186307Y-67272199D01*
X122180357Y-67270709D01*
X122174582Y-67268642D01*
X122169038Y-67266020D01*
X122163777Y-67262867D01*
X122158850Y-67259213D01*
X122154306Y-67255094D01*
X122150187Y-67250550D01*
X122146533Y-67245623D01*
X122143380Y-67240362D01*
X122140758Y-67234818D01*
X122138691Y-67229043D01*
X122137201Y-67223093D01*
X122136301Y-67217026D01*
X122136000Y-67210900D01*
X122136000Y-66260900D01*
X122136301Y-66254774D01*
X122137201Y-66248707D01*
X122138691Y-66242757D01*
X122140758Y-66236982D01*
X122143380Y-66231438D01*
X122146533Y-66226177D01*
X122150187Y-66221250D01*
X122154306Y-66216706D01*
X122158850Y-66212587D01*
X122163777Y-66208933D01*
X122169038Y-66205780D01*
X122174582Y-66203158D01*
X122180357Y-66201091D01*
X122186307Y-66199601D01*
X122192374Y-66198701D01*
X122198500Y-66198400D01*
X122323500Y-66198400D01*
X122329626Y-66198701D01*
X122329626Y-66198701D01*
G37*
D12*
X122261000Y-66735900D03*
D11*
G36*
X118110505Y-60924604D02*
G01*
X118134773Y-60928204D01*
X118158572Y-60934165D01*
X118181671Y-60942430D01*
X118203850Y-60952920D01*
X118224893Y-60965532D01*
X118244599Y-60980147D01*
X118262777Y-60996623D01*
X118279253Y-61014801D01*
X118293868Y-61034507D01*
X118306480Y-61055550D01*
X118316970Y-61077729D01*
X118325235Y-61100828D01*
X118331196Y-61124627D01*
X118334796Y-61148895D01*
X118336000Y-61173399D01*
X118336000Y-61723401D01*
X118334796Y-61747905D01*
X118331196Y-61772173D01*
X118325235Y-61795972D01*
X118316970Y-61819071D01*
X118306480Y-61841250D01*
X118293868Y-61862293D01*
X118279253Y-61881999D01*
X118262777Y-61900177D01*
X118244599Y-61916653D01*
X118224893Y-61931268D01*
X118203850Y-61943880D01*
X118181671Y-61954370D01*
X118158572Y-61962635D01*
X118134773Y-61968596D01*
X118110505Y-61972196D01*
X118086001Y-61973400D01*
X117535999Y-61973400D01*
X117511495Y-61972196D01*
X117487227Y-61968596D01*
X117463428Y-61962635D01*
X117440329Y-61954370D01*
X117418150Y-61943880D01*
X117397107Y-61931268D01*
X117377401Y-61916653D01*
X117359223Y-61900177D01*
X117342747Y-61881999D01*
X117328132Y-61862293D01*
X117315520Y-61841250D01*
X117305030Y-61819071D01*
X117296765Y-61795972D01*
X117290804Y-61772173D01*
X117287204Y-61747905D01*
X117286000Y-61723401D01*
X117286000Y-61173399D01*
X117287204Y-61148895D01*
X117290804Y-61124627D01*
X117296765Y-61100828D01*
X117305030Y-61077729D01*
X117315520Y-61055550D01*
X117328132Y-61034507D01*
X117342747Y-61014801D01*
X117359223Y-60996623D01*
X117377401Y-60980147D01*
X117397107Y-60965532D01*
X117418150Y-60952920D01*
X117440329Y-60942430D01*
X117463428Y-60934165D01*
X117487227Y-60928204D01*
X117511495Y-60924604D01*
X117535999Y-60923400D01*
X118086001Y-60923400D01*
X118110505Y-60924604D01*
X118110505Y-60924604D01*
G37*
D13*
X117811000Y-61448400D03*
D11*
G36*
X119410505Y-60924604D02*
G01*
X119434773Y-60928204D01*
X119458572Y-60934165D01*
X119481671Y-60942430D01*
X119503850Y-60952920D01*
X119524893Y-60965532D01*
X119544599Y-60980147D01*
X119562777Y-60996623D01*
X119579253Y-61014801D01*
X119593868Y-61034507D01*
X119606480Y-61055550D01*
X119616970Y-61077729D01*
X119625235Y-61100828D01*
X119631196Y-61124627D01*
X119634796Y-61148895D01*
X119636000Y-61173399D01*
X119636000Y-61723401D01*
X119634796Y-61747905D01*
X119631196Y-61772173D01*
X119625235Y-61795972D01*
X119616970Y-61819071D01*
X119606480Y-61841250D01*
X119593868Y-61862293D01*
X119579253Y-61881999D01*
X119562777Y-61900177D01*
X119544599Y-61916653D01*
X119524893Y-61931268D01*
X119503850Y-61943880D01*
X119481671Y-61954370D01*
X119458572Y-61962635D01*
X119434773Y-61968596D01*
X119410505Y-61972196D01*
X119386001Y-61973400D01*
X118835999Y-61973400D01*
X118811495Y-61972196D01*
X118787227Y-61968596D01*
X118763428Y-61962635D01*
X118740329Y-61954370D01*
X118718150Y-61943880D01*
X118697107Y-61931268D01*
X118677401Y-61916653D01*
X118659223Y-61900177D01*
X118642747Y-61881999D01*
X118628132Y-61862293D01*
X118615520Y-61841250D01*
X118605030Y-61819071D01*
X118596765Y-61795972D01*
X118590804Y-61772173D01*
X118587204Y-61747905D01*
X118586000Y-61723401D01*
X118586000Y-61173399D01*
X118587204Y-61148895D01*
X118590804Y-61124627D01*
X118596765Y-61100828D01*
X118605030Y-61077729D01*
X118615520Y-61055550D01*
X118628132Y-61034507D01*
X118642747Y-61014801D01*
X118659223Y-60996623D01*
X118677401Y-60980147D01*
X118697107Y-60965532D01*
X118718150Y-60952920D01*
X118740329Y-60942430D01*
X118763428Y-60934165D01*
X118787227Y-60928204D01*
X118811495Y-60924604D01*
X118835999Y-60923400D01*
X119386001Y-60923400D01*
X119410505Y-60924604D01*
X119410505Y-60924604D01*
G37*
D13*
X119111000Y-61448400D03*
D11*
G36*
X120710505Y-60924604D02*
G01*
X120734773Y-60928204D01*
X120758572Y-60934165D01*
X120781671Y-60942430D01*
X120803850Y-60952920D01*
X120824893Y-60965532D01*
X120844599Y-60980147D01*
X120862777Y-60996623D01*
X120879253Y-61014801D01*
X120893868Y-61034507D01*
X120906480Y-61055550D01*
X120916970Y-61077729D01*
X120925235Y-61100828D01*
X120931196Y-61124627D01*
X120934796Y-61148895D01*
X120936000Y-61173399D01*
X120936000Y-61723401D01*
X120934796Y-61747905D01*
X120931196Y-61772173D01*
X120925235Y-61795972D01*
X120916970Y-61819071D01*
X120906480Y-61841250D01*
X120893868Y-61862293D01*
X120879253Y-61881999D01*
X120862777Y-61900177D01*
X120844599Y-61916653D01*
X120824893Y-61931268D01*
X120803850Y-61943880D01*
X120781671Y-61954370D01*
X120758572Y-61962635D01*
X120734773Y-61968596D01*
X120710505Y-61972196D01*
X120686001Y-61973400D01*
X120135999Y-61973400D01*
X120111495Y-61972196D01*
X120087227Y-61968596D01*
X120063428Y-61962635D01*
X120040329Y-61954370D01*
X120018150Y-61943880D01*
X119997107Y-61931268D01*
X119977401Y-61916653D01*
X119959223Y-61900177D01*
X119942747Y-61881999D01*
X119928132Y-61862293D01*
X119915520Y-61841250D01*
X119905030Y-61819071D01*
X119896765Y-61795972D01*
X119890804Y-61772173D01*
X119887204Y-61747905D01*
X119886000Y-61723401D01*
X119886000Y-61173399D01*
X119887204Y-61148895D01*
X119890804Y-61124627D01*
X119896765Y-61100828D01*
X119905030Y-61077729D01*
X119915520Y-61055550D01*
X119928132Y-61034507D01*
X119942747Y-61014801D01*
X119959223Y-60996623D01*
X119977401Y-60980147D01*
X119997107Y-60965532D01*
X120018150Y-60952920D01*
X120040329Y-60942430D01*
X120063428Y-60934165D01*
X120087227Y-60928204D01*
X120111495Y-60924604D01*
X120135999Y-60923400D01*
X120686001Y-60923400D01*
X120710505Y-60924604D01*
X120710505Y-60924604D01*
G37*
D13*
X120411000Y-61448400D03*
D11*
G36*
X122010505Y-60924604D02*
G01*
X122034773Y-60928204D01*
X122058572Y-60934165D01*
X122081671Y-60942430D01*
X122103850Y-60952920D01*
X122124893Y-60965532D01*
X122144599Y-60980147D01*
X122162777Y-60996623D01*
X122179253Y-61014801D01*
X122193868Y-61034507D01*
X122206480Y-61055550D01*
X122216970Y-61077729D01*
X122225235Y-61100828D01*
X122231196Y-61124627D01*
X122234796Y-61148895D01*
X122236000Y-61173399D01*
X122236000Y-61723401D01*
X122234796Y-61747905D01*
X122231196Y-61772173D01*
X122225235Y-61795972D01*
X122216970Y-61819071D01*
X122206480Y-61841250D01*
X122193868Y-61862293D01*
X122179253Y-61881999D01*
X122162777Y-61900177D01*
X122144599Y-61916653D01*
X122124893Y-61931268D01*
X122103850Y-61943880D01*
X122081671Y-61954370D01*
X122058572Y-61962635D01*
X122034773Y-61968596D01*
X122010505Y-61972196D01*
X121986001Y-61973400D01*
X121435999Y-61973400D01*
X121411495Y-61972196D01*
X121387227Y-61968596D01*
X121363428Y-61962635D01*
X121340329Y-61954370D01*
X121318150Y-61943880D01*
X121297107Y-61931268D01*
X121277401Y-61916653D01*
X121259223Y-61900177D01*
X121242747Y-61881999D01*
X121228132Y-61862293D01*
X121215520Y-61841250D01*
X121205030Y-61819071D01*
X121196765Y-61795972D01*
X121190804Y-61772173D01*
X121187204Y-61747905D01*
X121186000Y-61723401D01*
X121186000Y-61173399D01*
X121187204Y-61148895D01*
X121190804Y-61124627D01*
X121196765Y-61100828D01*
X121205030Y-61077729D01*
X121215520Y-61055550D01*
X121228132Y-61034507D01*
X121242747Y-61014801D01*
X121259223Y-60996623D01*
X121277401Y-60980147D01*
X121297107Y-60965532D01*
X121318150Y-60952920D01*
X121340329Y-60942430D01*
X121363428Y-60934165D01*
X121387227Y-60928204D01*
X121411495Y-60924604D01*
X121435999Y-60923400D01*
X121986001Y-60923400D01*
X122010505Y-60924604D01*
X122010505Y-60924604D01*
G37*
D13*
X121711000Y-61448400D03*
D11*
G36*
X118110505Y-62224604D02*
G01*
X118134773Y-62228204D01*
X118158572Y-62234165D01*
X118181671Y-62242430D01*
X118203850Y-62252920D01*
X118224893Y-62265532D01*
X118244599Y-62280147D01*
X118262777Y-62296623D01*
X118279253Y-62314801D01*
X118293868Y-62334507D01*
X118306480Y-62355550D01*
X118316970Y-62377729D01*
X118325235Y-62400828D01*
X118331196Y-62424627D01*
X118334796Y-62448895D01*
X118336000Y-62473399D01*
X118336000Y-63023401D01*
X118334796Y-63047905D01*
X118331196Y-63072173D01*
X118325235Y-63095972D01*
X118316970Y-63119071D01*
X118306480Y-63141250D01*
X118293868Y-63162293D01*
X118279253Y-63181999D01*
X118262777Y-63200177D01*
X118244599Y-63216653D01*
X118224893Y-63231268D01*
X118203850Y-63243880D01*
X118181671Y-63254370D01*
X118158572Y-63262635D01*
X118134773Y-63268596D01*
X118110505Y-63272196D01*
X118086001Y-63273400D01*
X117535999Y-63273400D01*
X117511495Y-63272196D01*
X117487227Y-63268596D01*
X117463428Y-63262635D01*
X117440329Y-63254370D01*
X117418150Y-63243880D01*
X117397107Y-63231268D01*
X117377401Y-63216653D01*
X117359223Y-63200177D01*
X117342747Y-63181999D01*
X117328132Y-63162293D01*
X117315520Y-63141250D01*
X117305030Y-63119071D01*
X117296765Y-63095972D01*
X117290804Y-63072173D01*
X117287204Y-63047905D01*
X117286000Y-63023401D01*
X117286000Y-62473399D01*
X117287204Y-62448895D01*
X117290804Y-62424627D01*
X117296765Y-62400828D01*
X117305030Y-62377729D01*
X117315520Y-62355550D01*
X117328132Y-62334507D01*
X117342747Y-62314801D01*
X117359223Y-62296623D01*
X117377401Y-62280147D01*
X117397107Y-62265532D01*
X117418150Y-62252920D01*
X117440329Y-62242430D01*
X117463428Y-62234165D01*
X117487227Y-62228204D01*
X117511495Y-62224604D01*
X117535999Y-62223400D01*
X118086001Y-62223400D01*
X118110505Y-62224604D01*
X118110505Y-62224604D01*
G37*
D13*
X117811000Y-62748400D03*
D11*
G36*
X119410505Y-62224604D02*
G01*
X119434773Y-62228204D01*
X119458572Y-62234165D01*
X119481671Y-62242430D01*
X119503850Y-62252920D01*
X119524893Y-62265532D01*
X119544599Y-62280147D01*
X119562777Y-62296623D01*
X119579253Y-62314801D01*
X119593868Y-62334507D01*
X119606480Y-62355550D01*
X119616970Y-62377729D01*
X119625235Y-62400828D01*
X119631196Y-62424627D01*
X119634796Y-62448895D01*
X119636000Y-62473399D01*
X119636000Y-63023401D01*
X119634796Y-63047905D01*
X119631196Y-63072173D01*
X119625235Y-63095972D01*
X119616970Y-63119071D01*
X119606480Y-63141250D01*
X119593868Y-63162293D01*
X119579253Y-63181999D01*
X119562777Y-63200177D01*
X119544599Y-63216653D01*
X119524893Y-63231268D01*
X119503850Y-63243880D01*
X119481671Y-63254370D01*
X119458572Y-63262635D01*
X119434773Y-63268596D01*
X119410505Y-63272196D01*
X119386001Y-63273400D01*
X118835999Y-63273400D01*
X118811495Y-63272196D01*
X118787227Y-63268596D01*
X118763428Y-63262635D01*
X118740329Y-63254370D01*
X118718150Y-63243880D01*
X118697107Y-63231268D01*
X118677401Y-63216653D01*
X118659223Y-63200177D01*
X118642747Y-63181999D01*
X118628132Y-63162293D01*
X118615520Y-63141250D01*
X118605030Y-63119071D01*
X118596765Y-63095972D01*
X118590804Y-63072173D01*
X118587204Y-63047905D01*
X118586000Y-63023401D01*
X118586000Y-62473399D01*
X118587204Y-62448895D01*
X118590804Y-62424627D01*
X118596765Y-62400828D01*
X118605030Y-62377729D01*
X118615520Y-62355550D01*
X118628132Y-62334507D01*
X118642747Y-62314801D01*
X118659223Y-62296623D01*
X118677401Y-62280147D01*
X118697107Y-62265532D01*
X118718150Y-62252920D01*
X118740329Y-62242430D01*
X118763428Y-62234165D01*
X118787227Y-62228204D01*
X118811495Y-62224604D01*
X118835999Y-62223400D01*
X119386001Y-62223400D01*
X119410505Y-62224604D01*
X119410505Y-62224604D01*
G37*
D13*
X119111000Y-62748400D03*
D11*
G36*
X120710505Y-62224604D02*
G01*
X120734773Y-62228204D01*
X120758572Y-62234165D01*
X120781671Y-62242430D01*
X120803850Y-62252920D01*
X120824893Y-62265532D01*
X120844599Y-62280147D01*
X120862777Y-62296623D01*
X120879253Y-62314801D01*
X120893868Y-62334507D01*
X120906480Y-62355550D01*
X120916970Y-62377729D01*
X120925235Y-62400828D01*
X120931196Y-62424627D01*
X120934796Y-62448895D01*
X120936000Y-62473399D01*
X120936000Y-63023401D01*
X120934796Y-63047905D01*
X120931196Y-63072173D01*
X120925235Y-63095972D01*
X120916970Y-63119071D01*
X120906480Y-63141250D01*
X120893868Y-63162293D01*
X120879253Y-63181999D01*
X120862777Y-63200177D01*
X120844599Y-63216653D01*
X120824893Y-63231268D01*
X120803850Y-63243880D01*
X120781671Y-63254370D01*
X120758572Y-63262635D01*
X120734773Y-63268596D01*
X120710505Y-63272196D01*
X120686001Y-63273400D01*
X120135999Y-63273400D01*
X120111495Y-63272196D01*
X120087227Y-63268596D01*
X120063428Y-63262635D01*
X120040329Y-63254370D01*
X120018150Y-63243880D01*
X119997107Y-63231268D01*
X119977401Y-63216653D01*
X119959223Y-63200177D01*
X119942747Y-63181999D01*
X119928132Y-63162293D01*
X119915520Y-63141250D01*
X119905030Y-63119071D01*
X119896765Y-63095972D01*
X119890804Y-63072173D01*
X119887204Y-63047905D01*
X119886000Y-63023401D01*
X119886000Y-62473399D01*
X119887204Y-62448895D01*
X119890804Y-62424627D01*
X119896765Y-62400828D01*
X119905030Y-62377729D01*
X119915520Y-62355550D01*
X119928132Y-62334507D01*
X119942747Y-62314801D01*
X119959223Y-62296623D01*
X119977401Y-62280147D01*
X119997107Y-62265532D01*
X120018150Y-62252920D01*
X120040329Y-62242430D01*
X120063428Y-62234165D01*
X120087227Y-62228204D01*
X120111495Y-62224604D01*
X120135999Y-62223400D01*
X120686001Y-62223400D01*
X120710505Y-62224604D01*
X120710505Y-62224604D01*
G37*
D13*
X120411000Y-62748400D03*
D11*
G36*
X122010505Y-62224604D02*
G01*
X122034773Y-62228204D01*
X122058572Y-62234165D01*
X122081671Y-62242430D01*
X122103850Y-62252920D01*
X122124893Y-62265532D01*
X122144599Y-62280147D01*
X122162777Y-62296623D01*
X122179253Y-62314801D01*
X122193868Y-62334507D01*
X122206480Y-62355550D01*
X122216970Y-62377729D01*
X122225235Y-62400828D01*
X122231196Y-62424627D01*
X122234796Y-62448895D01*
X122236000Y-62473399D01*
X122236000Y-63023401D01*
X122234796Y-63047905D01*
X122231196Y-63072173D01*
X122225235Y-63095972D01*
X122216970Y-63119071D01*
X122206480Y-63141250D01*
X122193868Y-63162293D01*
X122179253Y-63181999D01*
X122162777Y-63200177D01*
X122144599Y-63216653D01*
X122124893Y-63231268D01*
X122103850Y-63243880D01*
X122081671Y-63254370D01*
X122058572Y-63262635D01*
X122034773Y-63268596D01*
X122010505Y-63272196D01*
X121986001Y-63273400D01*
X121435999Y-63273400D01*
X121411495Y-63272196D01*
X121387227Y-63268596D01*
X121363428Y-63262635D01*
X121340329Y-63254370D01*
X121318150Y-63243880D01*
X121297107Y-63231268D01*
X121277401Y-63216653D01*
X121259223Y-63200177D01*
X121242747Y-63181999D01*
X121228132Y-63162293D01*
X121215520Y-63141250D01*
X121205030Y-63119071D01*
X121196765Y-63095972D01*
X121190804Y-63072173D01*
X121187204Y-63047905D01*
X121186000Y-63023401D01*
X121186000Y-62473399D01*
X121187204Y-62448895D01*
X121190804Y-62424627D01*
X121196765Y-62400828D01*
X121205030Y-62377729D01*
X121215520Y-62355550D01*
X121228132Y-62334507D01*
X121242747Y-62314801D01*
X121259223Y-62296623D01*
X121277401Y-62280147D01*
X121297107Y-62265532D01*
X121318150Y-62252920D01*
X121340329Y-62242430D01*
X121363428Y-62234165D01*
X121387227Y-62228204D01*
X121411495Y-62224604D01*
X121435999Y-62223400D01*
X121986001Y-62223400D01*
X122010505Y-62224604D01*
X122010505Y-62224604D01*
G37*
D13*
X121711000Y-62748400D03*
D11*
G36*
X118110505Y-63524604D02*
G01*
X118134773Y-63528204D01*
X118158572Y-63534165D01*
X118181671Y-63542430D01*
X118203850Y-63552920D01*
X118224893Y-63565532D01*
X118244599Y-63580147D01*
X118262777Y-63596623D01*
X118279253Y-63614801D01*
X118293868Y-63634507D01*
X118306480Y-63655550D01*
X118316970Y-63677729D01*
X118325235Y-63700828D01*
X118331196Y-63724627D01*
X118334796Y-63748895D01*
X118336000Y-63773399D01*
X118336000Y-64323401D01*
X118334796Y-64347905D01*
X118331196Y-64372173D01*
X118325235Y-64395972D01*
X118316970Y-64419071D01*
X118306480Y-64441250D01*
X118293868Y-64462293D01*
X118279253Y-64481999D01*
X118262777Y-64500177D01*
X118244599Y-64516653D01*
X118224893Y-64531268D01*
X118203850Y-64543880D01*
X118181671Y-64554370D01*
X118158572Y-64562635D01*
X118134773Y-64568596D01*
X118110505Y-64572196D01*
X118086001Y-64573400D01*
X117535999Y-64573400D01*
X117511495Y-64572196D01*
X117487227Y-64568596D01*
X117463428Y-64562635D01*
X117440329Y-64554370D01*
X117418150Y-64543880D01*
X117397107Y-64531268D01*
X117377401Y-64516653D01*
X117359223Y-64500177D01*
X117342747Y-64481999D01*
X117328132Y-64462293D01*
X117315520Y-64441250D01*
X117305030Y-64419071D01*
X117296765Y-64395972D01*
X117290804Y-64372173D01*
X117287204Y-64347905D01*
X117286000Y-64323401D01*
X117286000Y-63773399D01*
X117287204Y-63748895D01*
X117290804Y-63724627D01*
X117296765Y-63700828D01*
X117305030Y-63677729D01*
X117315520Y-63655550D01*
X117328132Y-63634507D01*
X117342747Y-63614801D01*
X117359223Y-63596623D01*
X117377401Y-63580147D01*
X117397107Y-63565532D01*
X117418150Y-63552920D01*
X117440329Y-63542430D01*
X117463428Y-63534165D01*
X117487227Y-63528204D01*
X117511495Y-63524604D01*
X117535999Y-63523400D01*
X118086001Y-63523400D01*
X118110505Y-63524604D01*
X118110505Y-63524604D01*
G37*
D13*
X117811000Y-64048400D03*
D11*
G36*
X119410505Y-63524604D02*
G01*
X119434773Y-63528204D01*
X119458572Y-63534165D01*
X119481671Y-63542430D01*
X119503850Y-63552920D01*
X119524893Y-63565532D01*
X119544599Y-63580147D01*
X119562777Y-63596623D01*
X119579253Y-63614801D01*
X119593868Y-63634507D01*
X119606480Y-63655550D01*
X119616970Y-63677729D01*
X119625235Y-63700828D01*
X119631196Y-63724627D01*
X119634796Y-63748895D01*
X119636000Y-63773399D01*
X119636000Y-64323401D01*
X119634796Y-64347905D01*
X119631196Y-64372173D01*
X119625235Y-64395972D01*
X119616970Y-64419071D01*
X119606480Y-64441250D01*
X119593868Y-64462293D01*
X119579253Y-64481999D01*
X119562777Y-64500177D01*
X119544599Y-64516653D01*
X119524893Y-64531268D01*
X119503850Y-64543880D01*
X119481671Y-64554370D01*
X119458572Y-64562635D01*
X119434773Y-64568596D01*
X119410505Y-64572196D01*
X119386001Y-64573400D01*
X118835999Y-64573400D01*
X118811495Y-64572196D01*
X118787227Y-64568596D01*
X118763428Y-64562635D01*
X118740329Y-64554370D01*
X118718150Y-64543880D01*
X118697107Y-64531268D01*
X118677401Y-64516653D01*
X118659223Y-64500177D01*
X118642747Y-64481999D01*
X118628132Y-64462293D01*
X118615520Y-64441250D01*
X118605030Y-64419071D01*
X118596765Y-64395972D01*
X118590804Y-64372173D01*
X118587204Y-64347905D01*
X118586000Y-64323401D01*
X118586000Y-63773399D01*
X118587204Y-63748895D01*
X118590804Y-63724627D01*
X118596765Y-63700828D01*
X118605030Y-63677729D01*
X118615520Y-63655550D01*
X118628132Y-63634507D01*
X118642747Y-63614801D01*
X118659223Y-63596623D01*
X118677401Y-63580147D01*
X118697107Y-63565532D01*
X118718150Y-63552920D01*
X118740329Y-63542430D01*
X118763428Y-63534165D01*
X118787227Y-63528204D01*
X118811495Y-63524604D01*
X118835999Y-63523400D01*
X119386001Y-63523400D01*
X119410505Y-63524604D01*
X119410505Y-63524604D01*
G37*
D13*
X119111000Y-64048400D03*
D11*
G36*
X120710505Y-63524604D02*
G01*
X120734773Y-63528204D01*
X120758572Y-63534165D01*
X120781671Y-63542430D01*
X120803850Y-63552920D01*
X120824893Y-63565532D01*
X120844599Y-63580147D01*
X120862777Y-63596623D01*
X120879253Y-63614801D01*
X120893868Y-63634507D01*
X120906480Y-63655550D01*
X120916970Y-63677729D01*
X120925235Y-63700828D01*
X120931196Y-63724627D01*
X120934796Y-63748895D01*
X120936000Y-63773399D01*
X120936000Y-64323401D01*
X120934796Y-64347905D01*
X120931196Y-64372173D01*
X120925235Y-64395972D01*
X120916970Y-64419071D01*
X120906480Y-64441250D01*
X120893868Y-64462293D01*
X120879253Y-64481999D01*
X120862777Y-64500177D01*
X120844599Y-64516653D01*
X120824893Y-64531268D01*
X120803850Y-64543880D01*
X120781671Y-64554370D01*
X120758572Y-64562635D01*
X120734773Y-64568596D01*
X120710505Y-64572196D01*
X120686001Y-64573400D01*
X120135999Y-64573400D01*
X120111495Y-64572196D01*
X120087227Y-64568596D01*
X120063428Y-64562635D01*
X120040329Y-64554370D01*
X120018150Y-64543880D01*
X119997107Y-64531268D01*
X119977401Y-64516653D01*
X119959223Y-64500177D01*
X119942747Y-64481999D01*
X119928132Y-64462293D01*
X119915520Y-64441250D01*
X119905030Y-64419071D01*
X119896765Y-64395972D01*
X119890804Y-64372173D01*
X119887204Y-64347905D01*
X119886000Y-64323401D01*
X119886000Y-63773399D01*
X119887204Y-63748895D01*
X119890804Y-63724627D01*
X119896765Y-63700828D01*
X119905030Y-63677729D01*
X119915520Y-63655550D01*
X119928132Y-63634507D01*
X119942747Y-63614801D01*
X119959223Y-63596623D01*
X119977401Y-63580147D01*
X119997107Y-63565532D01*
X120018150Y-63552920D01*
X120040329Y-63542430D01*
X120063428Y-63534165D01*
X120087227Y-63528204D01*
X120111495Y-63524604D01*
X120135999Y-63523400D01*
X120686001Y-63523400D01*
X120710505Y-63524604D01*
X120710505Y-63524604D01*
G37*
D13*
X120411000Y-64048400D03*
D11*
G36*
X122010505Y-63524604D02*
G01*
X122034773Y-63528204D01*
X122058572Y-63534165D01*
X122081671Y-63542430D01*
X122103850Y-63552920D01*
X122124893Y-63565532D01*
X122144599Y-63580147D01*
X122162777Y-63596623D01*
X122179253Y-63614801D01*
X122193868Y-63634507D01*
X122206480Y-63655550D01*
X122216970Y-63677729D01*
X122225235Y-63700828D01*
X122231196Y-63724627D01*
X122234796Y-63748895D01*
X122236000Y-63773399D01*
X122236000Y-64323401D01*
X122234796Y-64347905D01*
X122231196Y-64372173D01*
X122225235Y-64395972D01*
X122216970Y-64419071D01*
X122206480Y-64441250D01*
X122193868Y-64462293D01*
X122179253Y-64481999D01*
X122162777Y-64500177D01*
X122144599Y-64516653D01*
X122124893Y-64531268D01*
X122103850Y-64543880D01*
X122081671Y-64554370D01*
X122058572Y-64562635D01*
X122034773Y-64568596D01*
X122010505Y-64572196D01*
X121986001Y-64573400D01*
X121435999Y-64573400D01*
X121411495Y-64572196D01*
X121387227Y-64568596D01*
X121363428Y-64562635D01*
X121340329Y-64554370D01*
X121318150Y-64543880D01*
X121297107Y-64531268D01*
X121277401Y-64516653D01*
X121259223Y-64500177D01*
X121242747Y-64481999D01*
X121228132Y-64462293D01*
X121215520Y-64441250D01*
X121205030Y-64419071D01*
X121196765Y-64395972D01*
X121190804Y-64372173D01*
X121187204Y-64347905D01*
X121186000Y-64323401D01*
X121186000Y-63773399D01*
X121187204Y-63748895D01*
X121190804Y-63724627D01*
X121196765Y-63700828D01*
X121205030Y-63677729D01*
X121215520Y-63655550D01*
X121228132Y-63634507D01*
X121242747Y-63614801D01*
X121259223Y-63596623D01*
X121277401Y-63580147D01*
X121297107Y-63565532D01*
X121318150Y-63552920D01*
X121340329Y-63542430D01*
X121363428Y-63534165D01*
X121387227Y-63528204D01*
X121411495Y-63524604D01*
X121435999Y-63523400D01*
X121986001Y-63523400D01*
X122010505Y-63524604D01*
X122010505Y-63524604D01*
G37*
D13*
X121711000Y-64048400D03*
D11*
G36*
X118110505Y-64824604D02*
G01*
X118134773Y-64828204D01*
X118158572Y-64834165D01*
X118181671Y-64842430D01*
X118203850Y-64852920D01*
X118224893Y-64865532D01*
X118244599Y-64880147D01*
X118262777Y-64896623D01*
X118279253Y-64914801D01*
X118293868Y-64934507D01*
X118306480Y-64955550D01*
X118316970Y-64977729D01*
X118325235Y-65000828D01*
X118331196Y-65024627D01*
X118334796Y-65048895D01*
X118336000Y-65073399D01*
X118336000Y-65623401D01*
X118334796Y-65647905D01*
X118331196Y-65672173D01*
X118325235Y-65695972D01*
X118316970Y-65719071D01*
X118306480Y-65741250D01*
X118293868Y-65762293D01*
X118279253Y-65781999D01*
X118262777Y-65800177D01*
X118244599Y-65816653D01*
X118224893Y-65831268D01*
X118203850Y-65843880D01*
X118181671Y-65854370D01*
X118158572Y-65862635D01*
X118134773Y-65868596D01*
X118110505Y-65872196D01*
X118086001Y-65873400D01*
X117535999Y-65873400D01*
X117511495Y-65872196D01*
X117487227Y-65868596D01*
X117463428Y-65862635D01*
X117440329Y-65854370D01*
X117418150Y-65843880D01*
X117397107Y-65831268D01*
X117377401Y-65816653D01*
X117359223Y-65800177D01*
X117342747Y-65781999D01*
X117328132Y-65762293D01*
X117315520Y-65741250D01*
X117305030Y-65719071D01*
X117296765Y-65695972D01*
X117290804Y-65672173D01*
X117287204Y-65647905D01*
X117286000Y-65623401D01*
X117286000Y-65073399D01*
X117287204Y-65048895D01*
X117290804Y-65024627D01*
X117296765Y-65000828D01*
X117305030Y-64977729D01*
X117315520Y-64955550D01*
X117328132Y-64934507D01*
X117342747Y-64914801D01*
X117359223Y-64896623D01*
X117377401Y-64880147D01*
X117397107Y-64865532D01*
X117418150Y-64852920D01*
X117440329Y-64842430D01*
X117463428Y-64834165D01*
X117487227Y-64828204D01*
X117511495Y-64824604D01*
X117535999Y-64823400D01*
X118086001Y-64823400D01*
X118110505Y-64824604D01*
X118110505Y-64824604D01*
G37*
D13*
X117811000Y-65348400D03*
D11*
G36*
X119410505Y-64824604D02*
G01*
X119434773Y-64828204D01*
X119458572Y-64834165D01*
X119481671Y-64842430D01*
X119503850Y-64852920D01*
X119524893Y-64865532D01*
X119544599Y-64880147D01*
X119562777Y-64896623D01*
X119579253Y-64914801D01*
X119593868Y-64934507D01*
X119606480Y-64955550D01*
X119616970Y-64977729D01*
X119625235Y-65000828D01*
X119631196Y-65024627D01*
X119634796Y-65048895D01*
X119636000Y-65073399D01*
X119636000Y-65623401D01*
X119634796Y-65647905D01*
X119631196Y-65672173D01*
X119625235Y-65695972D01*
X119616970Y-65719071D01*
X119606480Y-65741250D01*
X119593868Y-65762293D01*
X119579253Y-65781999D01*
X119562777Y-65800177D01*
X119544599Y-65816653D01*
X119524893Y-65831268D01*
X119503850Y-65843880D01*
X119481671Y-65854370D01*
X119458572Y-65862635D01*
X119434773Y-65868596D01*
X119410505Y-65872196D01*
X119386001Y-65873400D01*
X118835999Y-65873400D01*
X118811495Y-65872196D01*
X118787227Y-65868596D01*
X118763428Y-65862635D01*
X118740329Y-65854370D01*
X118718150Y-65843880D01*
X118697107Y-65831268D01*
X118677401Y-65816653D01*
X118659223Y-65800177D01*
X118642747Y-65781999D01*
X118628132Y-65762293D01*
X118615520Y-65741250D01*
X118605030Y-65719071D01*
X118596765Y-65695972D01*
X118590804Y-65672173D01*
X118587204Y-65647905D01*
X118586000Y-65623401D01*
X118586000Y-65073399D01*
X118587204Y-65048895D01*
X118590804Y-65024627D01*
X118596765Y-65000828D01*
X118605030Y-64977729D01*
X118615520Y-64955550D01*
X118628132Y-64934507D01*
X118642747Y-64914801D01*
X118659223Y-64896623D01*
X118677401Y-64880147D01*
X118697107Y-64865532D01*
X118718150Y-64852920D01*
X118740329Y-64842430D01*
X118763428Y-64834165D01*
X118787227Y-64828204D01*
X118811495Y-64824604D01*
X118835999Y-64823400D01*
X119386001Y-64823400D01*
X119410505Y-64824604D01*
X119410505Y-64824604D01*
G37*
D13*
X119111000Y-65348400D03*
D11*
G36*
X120710505Y-64824604D02*
G01*
X120734773Y-64828204D01*
X120758572Y-64834165D01*
X120781671Y-64842430D01*
X120803850Y-64852920D01*
X120824893Y-64865532D01*
X120844599Y-64880147D01*
X120862777Y-64896623D01*
X120879253Y-64914801D01*
X120893868Y-64934507D01*
X120906480Y-64955550D01*
X120916970Y-64977729D01*
X120925235Y-65000828D01*
X120931196Y-65024627D01*
X120934796Y-65048895D01*
X120936000Y-65073399D01*
X120936000Y-65623401D01*
X120934796Y-65647905D01*
X120931196Y-65672173D01*
X120925235Y-65695972D01*
X120916970Y-65719071D01*
X120906480Y-65741250D01*
X120893868Y-65762293D01*
X120879253Y-65781999D01*
X120862777Y-65800177D01*
X120844599Y-65816653D01*
X120824893Y-65831268D01*
X120803850Y-65843880D01*
X120781671Y-65854370D01*
X120758572Y-65862635D01*
X120734773Y-65868596D01*
X120710505Y-65872196D01*
X120686001Y-65873400D01*
X120135999Y-65873400D01*
X120111495Y-65872196D01*
X120087227Y-65868596D01*
X120063428Y-65862635D01*
X120040329Y-65854370D01*
X120018150Y-65843880D01*
X119997107Y-65831268D01*
X119977401Y-65816653D01*
X119959223Y-65800177D01*
X119942747Y-65781999D01*
X119928132Y-65762293D01*
X119915520Y-65741250D01*
X119905030Y-65719071D01*
X119896765Y-65695972D01*
X119890804Y-65672173D01*
X119887204Y-65647905D01*
X119886000Y-65623401D01*
X119886000Y-65073399D01*
X119887204Y-65048895D01*
X119890804Y-65024627D01*
X119896765Y-65000828D01*
X119905030Y-64977729D01*
X119915520Y-64955550D01*
X119928132Y-64934507D01*
X119942747Y-64914801D01*
X119959223Y-64896623D01*
X119977401Y-64880147D01*
X119997107Y-64865532D01*
X120018150Y-64852920D01*
X120040329Y-64842430D01*
X120063428Y-64834165D01*
X120087227Y-64828204D01*
X120111495Y-64824604D01*
X120135999Y-64823400D01*
X120686001Y-64823400D01*
X120710505Y-64824604D01*
X120710505Y-64824604D01*
G37*
D13*
X120411000Y-65348400D03*
D11*
G36*
X122010505Y-64824604D02*
G01*
X122034773Y-64828204D01*
X122058572Y-64834165D01*
X122081671Y-64842430D01*
X122103850Y-64852920D01*
X122124893Y-64865532D01*
X122144599Y-64880147D01*
X122162777Y-64896623D01*
X122179253Y-64914801D01*
X122193868Y-64934507D01*
X122206480Y-64955550D01*
X122216970Y-64977729D01*
X122225235Y-65000828D01*
X122231196Y-65024627D01*
X122234796Y-65048895D01*
X122236000Y-65073399D01*
X122236000Y-65623401D01*
X122234796Y-65647905D01*
X122231196Y-65672173D01*
X122225235Y-65695972D01*
X122216970Y-65719071D01*
X122206480Y-65741250D01*
X122193868Y-65762293D01*
X122179253Y-65781999D01*
X122162777Y-65800177D01*
X122144599Y-65816653D01*
X122124893Y-65831268D01*
X122103850Y-65843880D01*
X122081671Y-65854370D01*
X122058572Y-65862635D01*
X122034773Y-65868596D01*
X122010505Y-65872196D01*
X121986001Y-65873400D01*
X121435999Y-65873400D01*
X121411495Y-65872196D01*
X121387227Y-65868596D01*
X121363428Y-65862635D01*
X121340329Y-65854370D01*
X121318150Y-65843880D01*
X121297107Y-65831268D01*
X121277401Y-65816653D01*
X121259223Y-65800177D01*
X121242747Y-65781999D01*
X121228132Y-65762293D01*
X121215520Y-65741250D01*
X121205030Y-65719071D01*
X121196765Y-65695972D01*
X121190804Y-65672173D01*
X121187204Y-65647905D01*
X121186000Y-65623401D01*
X121186000Y-65073399D01*
X121187204Y-65048895D01*
X121190804Y-65024627D01*
X121196765Y-65000828D01*
X121205030Y-64977729D01*
X121215520Y-64955550D01*
X121228132Y-64934507D01*
X121242747Y-64914801D01*
X121259223Y-64896623D01*
X121277401Y-64880147D01*
X121297107Y-64865532D01*
X121318150Y-64852920D01*
X121340329Y-64842430D01*
X121363428Y-64834165D01*
X121387227Y-64828204D01*
X121411495Y-64824604D01*
X121435999Y-64823400D01*
X121986001Y-64823400D01*
X122010505Y-64824604D01*
X122010505Y-64824604D01*
G37*
D13*
X121711000Y-65348400D03*
D11*
G36*
X120201958Y-70012910D02*
G01*
X120216276Y-70015034D01*
X120230317Y-70018551D01*
X120243946Y-70023428D01*
X120257031Y-70029617D01*
X120269447Y-70037058D01*
X120281073Y-70045681D01*
X120291798Y-70055402D01*
X120301519Y-70066127D01*
X120310142Y-70077753D01*
X120317583Y-70090169D01*
X120323772Y-70103254D01*
X120328649Y-70116883D01*
X120332166Y-70130924D01*
X120334290Y-70145242D01*
X120335000Y-70159700D01*
X120335000Y-70454700D01*
X120334290Y-70469158D01*
X120332166Y-70483476D01*
X120328649Y-70497517D01*
X120323772Y-70511146D01*
X120317583Y-70524231D01*
X120310142Y-70536647D01*
X120301519Y-70548273D01*
X120291798Y-70558998D01*
X120281073Y-70568719D01*
X120269447Y-70577342D01*
X120257031Y-70584783D01*
X120243946Y-70590972D01*
X120230317Y-70595849D01*
X120216276Y-70599366D01*
X120201958Y-70601490D01*
X120187500Y-70602200D01*
X119842500Y-70602200D01*
X119828042Y-70601490D01*
X119813724Y-70599366D01*
X119799683Y-70595849D01*
X119786054Y-70590972D01*
X119772969Y-70584783D01*
X119760553Y-70577342D01*
X119748927Y-70568719D01*
X119738202Y-70558998D01*
X119728481Y-70548273D01*
X119719858Y-70536647D01*
X119712417Y-70524231D01*
X119706228Y-70511146D01*
X119701351Y-70497517D01*
X119697834Y-70483476D01*
X119695710Y-70469158D01*
X119695000Y-70454700D01*
X119695000Y-70159700D01*
X119695710Y-70145242D01*
X119697834Y-70130924D01*
X119701351Y-70116883D01*
X119706228Y-70103254D01*
X119712417Y-70090169D01*
X119719858Y-70077753D01*
X119728481Y-70066127D01*
X119738202Y-70055402D01*
X119748927Y-70045681D01*
X119760553Y-70037058D01*
X119772969Y-70029617D01*
X119786054Y-70023428D01*
X119799683Y-70018551D01*
X119813724Y-70015034D01*
X119828042Y-70012910D01*
X119842500Y-70012200D01*
X120187500Y-70012200D01*
X120201958Y-70012910D01*
X120201958Y-70012910D01*
G37*
D14*
X120015000Y-70307200D03*
D11*
G36*
X120201958Y-69042910D02*
G01*
X120216276Y-69045034D01*
X120230317Y-69048551D01*
X120243946Y-69053428D01*
X120257031Y-69059617D01*
X120269447Y-69067058D01*
X120281073Y-69075681D01*
X120291798Y-69085402D01*
X120301519Y-69096127D01*
X120310142Y-69107753D01*
X120317583Y-69120169D01*
X120323772Y-69133254D01*
X120328649Y-69146883D01*
X120332166Y-69160924D01*
X120334290Y-69175242D01*
X120335000Y-69189700D01*
X120335000Y-69484700D01*
X120334290Y-69499158D01*
X120332166Y-69513476D01*
X120328649Y-69527517D01*
X120323772Y-69541146D01*
X120317583Y-69554231D01*
X120310142Y-69566647D01*
X120301519Y-69578273D01*
X120291798Y-69588998D01*
X120281073Y-69598719D01*
X120269447Y-69607342D01*
X120257031Y-69614783D01*
X120243946Y-69620972D01*
X120230317Y-69625849D01*
X120216276Y-69629366D01*
X120201958Y-69631490D01*
X120187500Y-69632200D01*
X119842500Y-69632200D01*
X119828042Y-69631490D01*
X119813724Y-69629366D01*
X119799683Y-69625849D01*
X119786054Y-69620972D01*
X119772969Y-69614783D01*
X119760553Y-69607342D01*
X119748927Y-69598719D01*
X119738202Y-69588998D01*
X119728481Y-69578273D01*
X119719858Y-69566647D01*
X119712417Y-69554231D01*
X119706228Y-69541146D01*
X119701351Y-69527517D01*
X119697834Y-69513476D01*
X119695710Y-69499158D01*
X119695000Y-69484700D01*
X119695000Y-69189700D01*
X119695710Y-69175242D01*
X119697834Y-69160924D01*
X119701351Y-69146883D01*
X119706228Y-69133254D01*
X119712417Y-69120169D01*
X119719858Y-69107753D01*
X119728481Y-69096127D01*
X119738202Y-69085402D01*
X119748927Y-69075681D01*
X119760553Y-69067058D01*
X119772969Y-69059617D01*
X119786054Y-69053428D01*
X119799683Y-69048551D01*
X119813724Y-69045034D01*
X119828042Y-69042910D01*
X119842500Y-69042200D01*
X120187500Y-69042200D01*
X120201958Y-69042910D01*
X120201958Y-69042910D01*
G37*
D14*
X120015000Y-69337200D03*
D11*
G36*
X119249858Y-67676510D02*
G01*
X119264176Y-67678634D01*
X119278217Y-67682151D01*
X119291846Y-67687028D01*
X119304931Y-67693217D01*
X119317347Y-67700658D01*
X119328973Y-67709281D01*
X119339698Y-67719002D01*
X119349419Y-67729727D01*
X119358042Y-67741353D01*
X119365483Y-67753769D01*
X119371672Y-67766854D01*
X119376549Y-67780483D01*
X119380066Y-67794524D01*
X119382190Y-67808842D01*
X119382900Y-67823300D01*
X119382900Y-68168300D01*
X119382190Y-68182758D01*
X119380066Y-68197076D01*
X119376549Y-68211117D01*
X119371672Y-68224746D01*
X119365483Y-68237831D01*
X119358042Y-68250247D01*
X119349419Y-68261873D01*
X119339698Y-68272598D01*
X119328973Y-68282319D01*
X119317347Y-68290942D01*
X119304931Y-68298383D01*
X119291846Y-68304572D01*
X119278217Y-68309449D01*
X119264176Y-68312966D01*
X119249858Y-68315090D01*
X119235400Y-68315800D01*
X118940400Y-68315800D01*
X118925942Y-68315090D01*
X118911624Y-68312966D01*
X118897583Y-68309449D01*
X118883954Y-68304572D01*
X118870869Y-68298383D01*
X118858453Y-68290942D01*
X118846827Y-68282319D01*
X118836102Y-68272598D01*
X118826381Y-68261873D01*
X118817758Y-68250247D01*
X118810317Y-68237831D01*
X118804128Y-68224746D01*
X118799251Y-68211117D01*
X118795734Y-68197076D01*
X118793610Y-68182758D01*
X118792900Y-68168300D01*
X118792900Y-67823300D01*
X118793610Y-67808842D01*
X118795734Y-67794524D01*
X118799251Y-67780483D01*
X118804128Y-67766854D01*
X118810317Y-67753769D01*
X118817758Y-67741353D01*
X118826381Y-67729727D01*
X118836102Y-67719002D01*
X118846827Y-67709281D01*
X118858453Y-67700658D01*
X118870869Y-67693217D01*
X118883954Y-67687028D01*
X118897583Y-67682151D01*
X118911624Y-67678634D01*
X118925942Y-67676510D01*
X118940400Y-67675800D01*
X119235400Y-67675800D01*
X119249858Y-67676510D01*
X119249858Y-67676510D01*
G37*
D14*
X119087900Y-67995800D03*
D11*
G36*
X120219858Y-67676510D02*
G01*
X120234176Y-67678634D01*
X120248217Y-67682151D01*
X120261846Y-67687028D01*
X120274931Y-67693217D01*
X120287347Y-67700658D01*
X120298973Y-67709281D01*
X120309698Y-67719002D01*
X120319419Y-67729727D01*
X120328042Y-67741353D01*
X120335483Y-67753769D01*
X120341672Y-67766854D01*
X120346549Y-67780483D01*
X120350066Y-67794524D01*
X120352190Y-67808842D01*
X120352900Y-67823300D01*
X120352900Y-68168300D01*
X120352190Y-68182758D01*
X120350066Y-68197076D01*
X120346549Y-68211117D01*
X120341672Y-68224746D01*
X120335483Y-68237831D01*
X120328042Y-68250247D01*
X120319419Y-68261873D01*
X120309698Y-68272598D01*
X120298973Y-68282319D01*
X120287347Y-68290942D01*
X120274931Y-68298383D01*
X120261846Y-68304572D01*
X120248217Y-68309449D01*
X120234176Y-68312966D01*
X120219858Y-68315090D01*
X120205400Y-68315800D01*
X119910400Y-68315800D01*
X119895942Y-68315090D01*
X119881624Y-68312966D01*
X119867583Y-68309449D01*
X119853954Y-68304572D01*
X119840869Y-68298383D01*
X119828453Y-68290942D01*
X119816827Y-68282319D01*
X119806102Y-68272598D01*
X119796381Y-68261873D01*
X119787758Y-68250247D01*
X119780317Y-68237831D01*
X119774128Y-68224746D01*
X119769251Y-68211117D01*
X119765734Y-68197076D01*
X119763610Y-68182758D01*
X119762900Y-68168300D01*
X119762900Y-67823300D01*
X119763610Y-67808842D01*
X119765734Y-67794524D01*
X119769251Y-67780483D01*
X119774128Y-67766854D01*
X119780317Y-67753769D01*
X119787758Y-67741353D01*
X119796381Y-67729727D01*
X119806102Y-67719002D01*
X119816827Y-67709281D01*
X119828453Y-67700658D01*
X119840869Y-67693217D01*
X119853954Y-67687028D01*
X119867583Y-67682151D01*
X119881624Y-67678634D01*
X119895942Y-67676510D01*
X119910400Y-67675800D01*
X120205400Y-67675800D01*
X120219858Y-67676510D01*
X120219858Y-67676510D01*
G37*
D14*
X120057900Y-67995800D03*
D11*
G36*
X120659158Y-57587510D02*
G01*
X120673476Y-57589634D01*
X120687517Y-57593151D01*
X120701146Y-57598028D01*
X120714231Y-57604217D01*
X120726647Y-57611658D01*
X120738273Y-57620281D01*
X120748998Y-57630002D01*
X120758719Y-57640727D01*
X120767342Y-57652353D01*
X120774783Y-57664769D01*
X120780972Y-57677854D01*
X120785849Y-57691483D01*
X120789366Y-57705524D01*
X120791490Y-57719842D01*
X120792200Y-57734300D01*
X120792200Y-58029300D01*
X120791490Y-58043758D01*
X120789366Y-58058076D01*
X120785849Y-58072117D01*
X120780972Y-58085746D01*
X120774783Y-58098831D01*
X120767342Y-58111247D01*
X120758719Y-58122873D01*
X120748998Y-58133598D01*
X120738273Y-58143319D01*
X120726647Y-58151942D01*
X120714231Y-58159383D01*
X120701146Y-58165572D01*
X120687517Y-58170449D01*
X120673476Y-58173966D01*
X120659158Y-58176090D01*
X120644700Y-58176800D01*
X120299700Y-58176800D01*
X120285242Y-58176090D01*
X120270924Y-58173966D01*
X120256883Y-58170449D01*
X120243254Y-58165572D01*
X120230169Y-58159383D01*
X120217753Y-58151942D01*
X120206127Y-58143319D01*
X120195402Y-58133598D01*
X120185681Y-58122873D01*
X120177058Y-58111247D01*
X120169617Y-58098831D01*
X120163428Y-58085746D01*
X120158551Y-58072117D01*
X120155034Y-58058076D01*
X120152910Y-58043758D01*
X120152200Y-58029300D01*
X120152200Y-57734300D01*
X120152910Y-57719842D01*
X120155034Y-57705524D01*
X120158551Y-57691483D01*
X120163428Y-57677854D01*
X120169617Y-57664769D01*
X120177058Y-57652353D01*
X120185681Y-57640727D01*
X120195402Y-57630002D01*
X120206127Y-57620281D01*
X120217753Y-57611658D01*
X120230169Y-57604217D01*
X120243254Y-57598028D01*
X120256883Y-57593151D01*
X120270924Y-57589634D01*
X120285242Y-57587510D01*
X120299700Y-57586800D01*
X120644700Y-57586800D01*
X120659158Y-57587510D01*
X120659158Y-57587510D01*
G37*
D14*
X120472200Y-57881800D03*
D11*
G36*
X120659158Y-58557510D02*
G01*
X120673476Y-58559634D01*
X120687517Y-58563151D01*
X120701146Y-58568028D01*
X120714231Y-58574217D01*
X120726647Y-58581658D01*
X120738273Y-58590281D01*
X120748998Y-58600002D01*
X120758719Y-58610727D01*
X120767342Y-58622353D01*
X120774783Y-58634769D01*
X120780972Y-58647854D01*
X120785849Y-58661483D01*
X120789366Y-58675524D01*
X120791490Y-58689842D01*
X120792200Y-58704300D01*
X120792200Y-58999300D01*
X120791490Y-59013758D01*
X120789366Y-59028076D01*
X120785849Y-59042117D01*
X120780972Y-59055746D01*
X120774783Y-59068831D01*
X120767342Y-59081247D01*
X120758719Y-59092873D01*
X120748998Y-59103598D01*
X120738273Y-59113319D01*
X120726647Y-59121942D01*
X120714231Y-59129383D01*
X120701146Y-59135572D01*
X120687517Y-59140449D01*
X120673476Y-59143966D01*
X120659158Y-59146090D01*
X120644700Y-59146800D01*
X120299700Y-59146800D01*
X120285242Y-59146090D01*
X120270924Y-59143966D01*
X120256883Y-59140449D01*
X120243254Y-59135572D01*
X120230169Y-59129383D01*
X120217753Y-59121942D01*
X120206127Y-59113319D01*
X120195402Y-59103598D01*
X120185681Y-59092873D01*
X120177058Y-59081247D01*
X120169617Y-59068831D01*
X120163428Y-59055746D01*
X120158551Y-59042117D01*
X120155034Y-59028076D01*
X120152910Y-59013758D01*
X120152200Y-58999300D01*
X120152200Y-58704300D01*
X120152910Y-58689842D01*
X120155034Y-58675524D01*
X120158551Y-58661483D01*
X120163428Y-58647854D01*
X120169617Y-58634769D01*
X120177058Y-58622353D01*
X120185681Y-58610727D01*
X120195402Y-58600002D01*
X120206127Y-58590281D01*
X120217753Y-58581658D01*
X120230169Y-58574217D01*
X120243254Y-58568028D01*
X120256883Y-58563151D01*
X120270924Y-58559634D01*
X120285242Y-58557510D01*
X120299700Y-58556800D01*
X120644700Y-58556800D01*
X120659158Y-58557510D01*
X120659158Y-58557510D01*
G37*
D14*
X120472200Y-58851800D03*
D11*
G36*
X124492558Y-63371210D02*
G01*
X124506876Y-63373334D01*
X124520917Y-63376851D01*
X124534546Y-63381728D01*
X124547631Y-63387917D01*
X124560047Y-63395358D01*
X124571673Y-63403981D01*
X124582398Y-63413702D01*
X124592119Y-63424427D01*
X124600742Y-63436053D01*
X124608183Y-63448469D01*
X124614372Y-63461554D01*
X124619249Y-63475183D01*
X124622766Y-63489224D01*
X124624890Y-63503542D01*
X124625600Y-63518000D01*
X124625600Y-63863000D01*
X124624890Y-63877458D01*
X124622766Y-63891776D01*
X124619249Y-63905817D01*
X124614372Y-63919446D01*
X124608183Y-63932531D01*
X124600742Y-63944947D01*
X124592119Y-63956573D01*
X124582398Y-63967298D01*
X124571673Y-63977019D01*
X124560047Y-63985642D01*
X124547631Y-63993083D01*
X124534546Y-63999272D01*
X124520917Y-64004149D01*
X124506876Y-64007666D01*
X124492558Y-64009790D01*
X124478100Y-64010500D01*
X124183100Y-64010500D01*
X124168642Y-64009790D01*
X124154324Y-64007666D01*
X124140283Y-64004149D01*
X124126654Y-63999272D01*
X124113569Y-63993083D01*
X124101153Y-63985642D01*
X124089527Y-63977019D01*
X124078802Y-63967298D01*
X124069081Y-63956573D01*
X124060458Y-63944947D01*
X124053017Y-63932531D01*
X124046828Y-63919446D01*
X124041951Y-63905817D01*
X124038434Y-63891776D01*
X124036310Y-63877458D01*
X124035600Y-63863000D01*
X124035600Y-63518000D01*
X124036310Y-63503542D01*
X124038434Y-63489224D01*
X124041951Y-63475183D01*
X124046828Y-63461554D01*
X124053017Y-63448469D01*
X124060458Y-63436053D01*
X124069081Y-63424427D01*
X124078802Y-63413702D01*
X124089527Y-63403981D01*
X124101153Y-63395358D01*
X124113569Y-63387917D01*
X124126654Y-63381728D01*
X124140283Y-63376851D01*
X124154324Y-63373334D01*
X124168642Y-63371210D01*
X124183100Y-63370500D01*
X124478100Y-63370500D01*
X124492558Y-63371210D01*
X124492558Y-63371210D01*
G37*
D14*
X124330600Y-63690500D03*
D11*
G36*
X125462558Y-63371210D02*
G01*
X125476876Y-63373334D01*
X125490917Y-63376851D01*
X125504546Y-63381728D01*
X125517631Y-63387917D01*
X125530047Y-63395358D01*
X125541673Y-63403981D01*
X125552398Y-63413702D01*
X125562119Y-63424427D01*
X125570742Y-63436053D01*
X125578183Y-63448469D01*
X125584372Y-63461554D01*
X125589249Y-63475183D01*
X125592766Y-63489224D01*
X125594890Y-63503542D01*
X125595600Y-63518000D01*
X125595600Y-63863000D01*
X125594890Y-63877458D01*
X125592766Y-63891776D01*
X125589249Y-63905817D01*
X125584372Y-63919446D01*
X125578183Y-63932531D01*
X125570742Y-63944947D01*
X125562119Y-63956573D01*
X125552398Y-63967298D01*
X125541673Y-63977019D01*
X125530047Y-63985642D01*
X125517631Y-63993083D01*
X125504546Y-63999272D01*
X125490917Y-64004149D01*
X125476876Y-64007666D01*
X125462558Y-64009790D01*
X125448100Y-64010500D01*
X125153100Y-64010500D01*
X125138642Y-64009790D01*
X125124324Y-64007666D01*
X125110283Y-64004149D01*
X125096654Y-63999272D01*
X125083569Y-63993083D01*
X125071153Y-63985642D01*
X125059527Y-63977019D01*
X125048802Y-63967298D01*
X125039081Y-63956573D01*
X125030458Y-63944947D01*
X125023017Y-63932531D01*
X125016828Y-63919446D01*
X125011951Y-63905817D01*
X125008434Y-63891776D01*
X125006310Y-63877458D01*
X125005600Y-63863000D01*
X125005600Y-63518000D01*
X125006310Y-63503542D01*
X125008434Y-63489224D01*
X125011951Y-63475183D01*
X125016828Y-63461554D01*
X125023017Y-63448469D01*
X125030458Y-63436053D01*
X125039081Y-63424427D01*
X125048802Y-63413702D01*
X125059527Y-63403981D01*
X125071153Y-63395358D01*
X125083569Y-63387917D01*
X125096654Y-63381728D01*
X125110283Y-63376851D01*
X125124324Y-63373334D01*
X125138642Y-63371210D01*
X125153100Y-63370500D01*
X125448100Y-63370500D01*
X125462558Y-63371210D01*
X125462558Y-63371210D01*
G37*
D14*
X125300600Y-63690500D03*
D11*
G36*
X114385758Y-63079110D02*
G01*
X114400076Y-63081234D01*
X114414117Y-63084751D01*
X114427746Y-63089628D01*
X114440831Y-63095817D01*
X114453247Y-63103258D01*
X114464873Y-63111881D01*
X114475598Y-63121602D01*
X114485319Y-63132327D01*
X114493942Y-63143953D01*
X114501383Y-63156369D01*
X114507572Y-63169454D01*
X114512449Y-63183083D01*
X114515966Y-63197124D01*
X114518090Y-63211442D01*
X114518800Y-63225900D01*
X114518800Y-63570900D01*
X114518090Y-63585358D01*
X114515966Y-63599676D01*
X114512449Y-63613717D01*
X114507572Y-63627346D01*
X114501383Y-63640431D01*
X114493942Y-63652847D01*
X114485319Y-63664473D01*
X114475598Y-63675198D01*
X114464873Y-63684919D01*
X114453247Y-63693542D01*
X114440831Y-63700983D01*
X114427746Y-63707172D01*
X114414117Y-63712049D01*
X114400076Y-63715566D01*
X114385758Y-63717690D01*
X114371300Y-63718400D01*
X114076300Y-63718400D01*
X114061842Y-63717690D01*
X114047524Y-63715566D01*
X114033483Y-63712049D01*
X114019854Y-63707172D01*
X114006769Y-63700983D01*
X113994353Y-63693542D01*
X113982727Y-63684919D01*
X113972002Y-63675198D01*
X113962281Y-63664473D01*
X113953658Y-63652847D01*
X113946217Y-63640431D01*
X113940028Y-63627346D01*
X113935151Y-63613717D01*
X113931634Y-63599676D01*
X113929510Y-63585358D01*
X113928800Y-63570900D01*
X113928800Y-63225900D01*
X113929510Y-63211442D01*
X113931634Y-63197124D01*
X113935151Y-63183083D01*
X113940028Y-63169454D01*
X113946217Y-63156369D01*
X113953658Y-63143953D01*
X113962281Y-63132327D01*
X113972002Y-63121602D01*
X113982727Y-63111881D01*
X113994353Y-63103258D01*
X114006769Y-63095817D01*
X114019854Y-63089628D01*
X114033483Y-63084751D01*
X114047524Y-63081234D01*
X114061842Y-63079110D01*
X114076300Y-63078400D01*
X114371300Y-63078400D01*
X114385758Y-63079110D01*
X114385758Y-63079110D01*
G37*
D14*
X114223800Y-63398400D03*
D11*
G36*
X115355758Y-63079110D02*
G01*
X115370076Y-63081234D01*
X115384117Y-63084751D01*
X115397746Y-63089628D01*
X115410831Y-63095817D01*
X115423247Y-63103258D01*
X115434873Y-63111881D01*
X115445598Y-63121602D01*
X115455319Y-63132327D01*
X115463942Y-63143953D01*
X115471383Y-63156369D01*
X115477572Y-63169454D01*
X115482449Y-63183083D01*
X115485966Y-63197124D01*
X115488090Y-63211442D01*
X115488800Y-63225900D01*
X115488800Y-63570900D01*
X115488090Y-63585358D01*
X115485966Y-63599676D01*
X115482449Y-63613717D01*
X115477572Y-63627346D01*
X115471383Y-63640431D01*
X115463942Y-63652847D01*
X115455319Y-63664473D01*
X115445598Y-63675198D01*
X115434873Y-63684919D01*
X115423247Y-63693542D01*
X115410831Y-63700983D01*
X115397746Y-63707172D01*
X115384117Y-63712049D01*
X115370076Y-63715566D01*
X115355758Y-63717690D01*
X115341300Y-63718400D01*
X115046300Y-63718400D01*
X115031842Y-63717690D01*
X115017524Y-63715566D01*
X115003483Y-63712049D01*
X114989854Y-63707172D01*
X114976769Y-63700983D01*
X114964353Y-63693542D01*
X114952727Y-63684919D01*
X114942002Y-63675198D01*
X114932281Y-63664473D01*
X114923658Y-63652847D01*
X114916217Y-63640431D01*
X114910028Y-63627346D01*
X114905151Y-63613717D01*
X114901634Y-63599676D01*
X114899510Y-63585358D01*
X114898800Y-63570900D01*
X114898800Y-63225900D01*
X114899510Y-63211442D01*
X114901634Y-63197124D01*
X114905151Y-63183083D01*
X114910028Y-63169454D01*
X114916217Y-63156369D01*
X114923658Y-63143953D01*
X114932281Y-63132327D01*
X114942002Y-63121602D01*
X114952727Y-63111881D01*
X114964353Y-63103258D01*
X114976769Y-63095817D01*
X114989854Y-63089628D01*
X115003483Y-63084751D01*
X115017524Y-63081234D01*
X115031842Y-63079110D01*
X115046300Y-63078400D01*
X115341300Y-63078400D01*
X115355758Y-63079110D01*
X115355758Y-63079110D01*
G37*
D14*
X115193800Y-63398400D03*
D11*
G36*
X115045758Y-57579610D02*
G01*
X115060076Y-57581734D01*
X115074117Y-57585251D01*
X115087746Y-57590128D01*
X115100831Y-57596317D01*
X115113247Y-57603758D01*
X115124873Y-57612381D01*
X115135598Y-57622102D01*
X115145319Y-57632827D01*
X115153942Y-57644453D01*
X115161383Y-57656869D01*
X115167572Y-57669954D01*
X115172449Y-57683583D01*
X115175966Y-57697624D01*
X115178090Y-57711942D01*
X115178800Y-57726400D01*
X115178800Y-58021400D01*
X115178090Y-58035858D01*
X115175966Y-58050176D01*
X115172449Y-58064217D01*
X115167572Y-58077846D01*
X115161383Y-58090931D01*
X115153942Y-58103347D01*
X115145319Y-58114973D01*
X115135598Y-58125698D01*
X115124873Y-58135419D01*
X115113247Y-58144042D01*
X115100831Y-58151483D01*
X115087746Y-58157672D01*
X115074117Y-58162549D01*
X115060076Y-58166066D01*
X115045758Y-58168190D01*
X115031300Y-58168900D01*
X114686300Y-58168900D01*
X114671842Y-58168190D01*
X114657524Y-58166066D01*
X114643483Y-58162549D01*
X114629854Y-58157672D01*
X114616769Y-58151483D01*
X114604353Y-58144042D01*
X114592727Y-58135419D01*
X114582002Y-58125698D01*
X114572281Y-58114973D01*
X114563658Y-58103347D01*
X114556217Y-58090931D01*
X114550028Y-58077846D01*
X114545151Y-58064217D01*
X114541634Y-58050176D01*
X114539510Y-58035858D01*
X114538800Y-58021400D01*
X114538800Y-57726400D01*
X114539510Y-57711942D01*
X114541634Y-57697624D01*
X114545151Y-57683583D01*
X114550028Y-57669954D01*
X114556217Y-57656869D01*
X114563658Y-57644453D01*
X114572281Y-57632827D01*
X114582002Y-57622102D01*
X114592727Y-57612381D01*
X114604353Y-57603758D01*
X114616769Y-57596317D01*
X114629854Y-57590128D01*
X114643483Y-57585251D01*
X114657524Y-57581734D01*
X114671842Y-57579610D01*
X114686300Y-57578900D01*
X115031300Y-57578900D01*
X115045758Y-57579610D01*
X115045758Y-57579610D01*
G37*
D14*
X114858800Y-57873900D03*
D11*
G36*
X115045758Y-58549610D02*
G01*
X115060076Y-58551734D01*
X115074117Y-58555251D01*
X115087746Y-58560128D01*
X115100831Y-58566317D01*
X115113247Y-58573758D01*
X115124873Y-58582381D01*
X115135598Y-58592102D01*
X115145319Y-58602827D01*
X115153942Y-58614453D01*
X115161383Y-58626869D01*
X115167572Y-58639954D01*
X115172449Y-58653583D01*
X115175966Y-58667624D01*
X115178090Y-58681942D01*
X115178800Y-58696400D01*
X115178800Y-58991400D01*
X115178090Y-59005858D01*
X115175966Y-59020176D01*
X115172449Y-59034217D01*
X115167572Y-59047846D01*
X115161383Y-59060931D01*
X115153942Y-59073347D01*
X115145319Y-59084973D01*
X115135598Y-59095698D01*
X115124873Y-59105419D01*
X115113247Y-59114042D01*
X115100831Y-59121483D01*
X115087746Y-59127672D01*
X115074117Y-59132549D01*
X115060076Y-59136066D01*
X115045758Y-59138190D01*
X115031300Y-59138900D01*
X114686300Y-59138900D01*
X114671842Y-59138190D01*
X114657524Y-59136066D01*
X114643483Y-59132549D01*
X114629854Y-59127672D01*
X114616769Y-59121483D01*
X114604353Y-59114042D01*
X114592727Y-59105419D01*
X114582002Y-59095698D01*
X114572281Y-59084973D01*
X114563658Y-59073347D01*
X114556217Y-59060931D01*
X114550028Y-59047846D01*
X114545151Y-59034217D01*
X114541634Y-59020176D01*
X114539510Y-59005858D01*
X114538800Y-58991400D01*
X114538800Y-58696400D01*
X114539510Y-58681942D01*
X114541634Y-58667624D01*
X114545151Y-58653583D01*
X114550028Y-58639954D01*
X114556217Y-58626869D01*
X114563658Y-58614453D01*
X114572281Y-58602827D01*
X114582002Y-58592102D01*
X114592727Y-58582381D01*
X114604353Y-58573758D01*
X114616769Y-58566317D01*
X114629854Y-58560128D01*
X114643483Y-58555251D01*
X114657524Y-58551734D01*
X114671842Y-58549610D01*
X114686300Y-58548900D01*
X115031300Y-58548900D01*
X115045758Y-58549610D01*
X115045758Y-58549610D01*
G37*
D14*
X114858800Y-58843900D03*
M02*
