G04 #@! TF.GenerationSoftware,KiCad,Pcbnew,(5.1.2)-1*
G04 #@! TF.CreationDate,2020-11-19T17:47:33+01:00*
G04 #@! TF.ProjectId,HB-ES-PMSwX-Pl_Gosund,48422d45-532d-4504-9d53-77582d506c5f,rev?*
G04 #@! TF.SameCoordinates,Original*
G04 #@! TF.FileFunction,Copper,L2,Inr*
G04 #@! TF.FilePolarity,Positive*
%FSLAX46Y46*%
G04 Gerber Fmt 4.6, Leading zero omitted, Abs format (unit mm)*
G04 Created by KiCad (PCBNEW (5.1.2)-1) date 2020-11-19 17:47:33*
%MOMM*%
%LPD*%
G04 APERTURE LIST*
%ADD10R,1.700000X1.700000*%
%ADD11C,0.800000*%
%ADD12C,0.250000*%
%ADD13C,0.500000*%
G04 APERTURE END LIST*
D10*
X126695200Y-66040000D03*
D11*
X121335800Y-65608200D03*
X123342400Y-67513200D03*
X121488200Y-57861200D03*
X118592600Y-69062600D03*
X114223800Y-63398400D03*
X122000000Y-71000000D03*
X120472200Y-57886600D03*
X117678200Y-57886600D03*
X114858800Y-57861200D03*
X114223800Y-70332600D03*
X125298200Y-61671200D03*
X120091200Y-67818000D03*
X125298200Y-65557400D03*
X115214400Y-63398400D03*
X125984000Y-71000000D03*
X120472200Y-58877200D03*
X117678200Y-58826400D03*
X114833400Y-58826400D03*
X121488200Y-58877200D03*
X116078000Y-67310000D03*
X113563400Y-64160400D03*
X123000000Y-71000000D03*
X124409200Y-66852800D03*
X115062000Y-67411600D03*
X115951000Y-70332600D03*
X124409200Y-65862200D03*
X114173000Y-67386200D03*
X112826800Y-69342000D03*
X112826800Y-67945000D03*
X112801400Y-66548000D03*
X112801400Y-65176400D03*
X112801400Y-63728600D03*
X112826800Y-62331600D03*
X115443000Y-60147200D03*
X123571000Y-69392800D03*
X127000000Y-71000000D03*
X114604800Y-60147200D03*
X122072400Y-69189600D03*
X124993400Y-71000000D03*
X116281200Y-60147200D03*
X124409200Y-67716400D03*
X124000000Y-71000000D03*
D12*
X117652800Y-57861200D02*
X117678200Y-57886600D01*
D13*
X114858800Y-57861200D02*
X117652800Y-57861200D01*
X117678200Y-57886600D02*
X120472200Y-57886600D01*
D12*
X121462800Y-57886600D02*
X121488200Y-57861200D01*
D13*
X120472200Y-57886600D02*
X121462800Y-57886600D01*
X123240800Y-67513200D02*
X123342400Y-67513200D01*
X121335800Y-65608200D02*
X123240800Y-67513200D01*
X120530000Y-71000000D02*
X118592600Y-69062600D01*
X122000000Y-71000000D02*
X120530000Y-71000000D01*
X115493800Y-69062600D02*
X118592600Y-69062600D01*
X114223800Y-70332600D02*
X115493800Y-69062600D01*
X113889632Y-63064232D02*
X114223800Y-63398400D01*
D12*
X113879799Y-63054399D02*
X113889632Y-63064232D01*
D13*
X113879799Y-58420201D02*
X113879799Y-63054399D01*
X114438800Y-57861200D02*
X113879799Y-58420201D01*
X114858800Y-57861200D02*
X114438800Y-57861200D01*
X114833400Y-58826400D02*
X117678200Y-58826400D01*
D12*
X120421400Y-58826400D02*
X120472200Y-58877200D01*
D13*
X117678200Y-58826400D02*
X120421400Y-58826400D01*
X119634000Y-67843400D02*
X120091200Y-67843400D01*
X115189000Y-63398400D02*
X119634000Y-67843400D01*
X124282200Y-61671200D02*
X125298200Y-61671200D01*
X121488200Y-58877200D02*
X124282200Y-61671200D01*
X125298200Y-61671200D02*
X125298200Y-65557400D01*
X120472200Y-58877200D02*
X121488200Y-58877200D01*
D12*
X116078000Y-66649600D02*
X116078000Y-67310000D01*
X113919000Y-64490600D02*
X113588800Y-64160400D01*
X113919000Y-64490600D02*
X116078000Y-66649600D01*
X113715800Y-64287400D02*
X113919000Y-64490600D01*
X124618602Y-66852800D02*
X124409200Y-66852800D01*
X125134201Y-67368399D02*
X124618602Y-66852800D01*
X125134201Y-68064401D02*
X125134201Y-67368399D01*
X119315013Y-68337599D02*
X119520415Y-68543001D01*
X119520415Y-68543001D02*
X121645997Y-68543001D01*
X124757201Y-68441401D02*
X125134201Y-68064401D01*
X121645997Y-68543001D02*
X121747597Y-68441401D01*
X121747597Y-68441401D02*
X124757201Y-68441401D01*
X115987999Y-68337599D02*
X115062000Y-67411600D01*
X119315013Y-68337599D02*
X115987999Y-68337599D01*
X123571000Y-69392800D02*
X123970999Y-69792799D01*
X123970999Y-69792799D02*
X126358484Y-69792799D01*
X126358484Y-69792799D02*
X127000000Y-70434315D01*
X127000000Y-70434315D02*
X127000000Y-71000000D01*
X122072400Y-69189600D02*
X123157799Y-70274999D01*
X123157799Y-70274999D02*
X124834084Y-70274999D01*
X124834084Y-70274999D02*
X124993400Y-70434315D01*
X124993400Y-70434315D02*
X124993400Y-71000000D01*
M02*
