G04 #@! TF.GenerationSoftware,KiCad,Pcbnew,(5.1.5)-3*
G04 #@! TF.CreationDate,2022-01-20T18:21:31+01:00*
G04 #@! TF.ProjectId,HB-ES-PMSwX-Pl_Gosund,48422d45-532d-4504-9d53-77582d506c5f,rev?*
G04 #@! TF.SameCoordinates,Original*
G04 #@! TF.FileFunction,Paste,Top*
G04 #@! TF.FilePolarity,Positive*
%FSLAX46Y46*%
G04 Gerber Fmt 4.6, Leading zero omitted, Abs format (unit mm)*
G04 Created by KiCad (PCBNEW (5.1.5)-3) date 2022-01-20 18:21:31*
%MOMM*%
%LPD*%
G04 APERTURE LIST*
%ADD10R,3.000000X0.700000*%
%ADD11C,0.100000*%
%ADD12R,1.400000X1.150000*%
G04 APERTURE END LIST*
D10*
X110909100Y-66560000D03*
X110909100Y-67960000D03*
X110909100Y-65160000D03*
X110909100Y-63760000D03*
X110909100Y-62360000D03*
X110909100Y-60960000D03*
X110909100Y-69360000D03*
D11*
G36*
X117305626Y-60540701D02*
G01*
X117311693Y-60541601D01*
X117317643Y-60543091D01*
X117323418Y-60545158D01*
X117328962Y-60547780D01*
X117334223Y-60550933D01*
X117339150Y-60554587D01*
X117343694Y-60558706D01*
X117347813Y-60563250D01*
X117351467Y-60568177D01*
X117354620Y-60573438D01*
X117357242Y-60578982D01*
X117359309Y-60584757D01*
X117360799Y-60590707D01*
X117361699Y-60596774D01*
X117362000Y-60602900D01*
X117362000Y-61302900D01*
X117361699Y-61309026D01*
X117360799Y-61315093D01*
X117359309Y-61321043D01*
X117357242Y-61326818D01*
X117354620Y-61332362D01*
X117351467Y-61337623D01*
X117347813Y-61342550D01*
X117343694Y-61347094D01*
X117339150Y-61351213D01*
X117334223Y-61354867D01*
X117328962Y-61358020D01*
X117323418Y-61360642D01*
X117317643Y-61362709D01*
X117311693Y-61364199D01*
X117305626Y-61365099D01*
X117299500Y-61365400D01*
X117174500Y-61365400D01*
X117168374Y-61365099D01*
X117162307Y-61364199D01*
X117156357Y-61362709D01*
X117150582Y-61360642D01*
X117145038Y-61358020D01*
X117139777Y-61354867D01*
X117134850Y-61351213D01*
X117130306Y-61347094D01*
X117126187Y-61342550D01*
X117122533Y-61337623D01*
X117119380Y-61332362D01*
X117116758Y-61326818D01*
X117114691Y-61321043D01*
X117113201Y-61315093D01*
X117112301Y-61309026D01*
X117112000Y-61302900D01*
X117112000Y-60602900D01*
X117112301Y-60596774D01*
X117113201Y-60590707D01*
X117114691Y-60584757D01*
X117116758Y-60578982D01*
X117119380Y-60573438D01*
X117122533Y-60568177D01*
X117126187Y-60563250D01*
X117130306Y-60558706D01*
X117134850Y-60554587D01*
X117139777Y-60550933D01*
X117145038Y-60547780D01*
X117150582Y-60545158D01*
X117156357Y-60543091D01*
X117162307Y-60541601D01*
X117168374Y-60540701D01*
X117174500Y-60540400D01*
X117299500Y-60540400D01*
X117305626Y-60540701D01*
G37*
G36*
X117805626Y-60540701D02*
G01*
X117811693Y-60541601D01*
X117817643Y-60543091D01*
X117823418Y-60545158D01*
X117828962Y-60547780D01*
X117834223Y-60550933D01*
X117839150Y-60554587D01*
X117843694Y-60558706D01*
X117847813Y-60563250D01*
X117851467Y-60568177D01*
X117854620Y-60573438D01*
X117857242Y-60578982D01*
X117859309Y-60584757D01*
X117860799Y-60590707D01*
X117861699Y-60596774D01*
X117862000Y-60602900D01*
X117862000Y-61302900D01*
X117861699Y-61309026D01*
X117860799Y-61315093D01*
X117859309Y-61321043D01*
X117857242Y-61326818D01*
X117854620Y-61332362D01*
X117851467Y-61337623D01*
X117847813Y-61342550D01*
X117843694Y-61347094D01*
X117839150Y-61351213D01*
X117834223Y-61354867D01*
X117828962Y-61358020D01*
X117823418Y-61360642D01*
X117817643Y-61362709D01*
X117811693Y-61364199D01*
X117805626Y-61365099D01*
X117799500Y-61365400D01*
X117674500Y-61365400D01*
X117668374Y-61365099D01*
X117662307Y-61364199D01*
X117656357Y-61362709D01*
X117650582Y-61360642D01*
X117645038Y-61358020D01*
X117639777Y-61354867D01*
X117634850Y-61351213D01*
X117630306Y-61347094D01*
X117626187Y-61342550D01*
X117622533Y-61337623D01*
X117619380Y-61332362D01*
X117616758Y-61326818D01*
X117614691Y-61321043D01*
X117613201Y-61315093D01*
X117612301Y-61309026D01*
X117612000Y-61302900D01*
X117612000Y-60602900D01*
X117612301Y-60596774D01*
X117613201Y-60590707D01*
X117614691Y-60584757D01*
X117616758Y-60578982D01*
X117619380Y-60573438D01*
X117622533Y-60568177D01*
X117626187Y-60563250D01*
X117630306Y-60558706D01*
X117634850Y-60554587D01*
X117639777Y-60550933D01*
X117645038Y-60547780D01*
X117650582Y-60545158D01*
X117656357Y-60543091D01*
X117662307Y-60541601D01*
X117668374Y-60540701D01*
X117674500Y-60540400D01*
X117799500Y-60540400D01*
X117805626Y-60540701D01*
G37*
G36*
X118305626Y-60540701D02*
G01*
X118311693Y-60541601D01*
X118317643Y-60543091D01*
X118323418Y-60545158D01*
X118328962Y-60547780D01*
X118334223Y-60550933D01*
X118339150Y-60554587D01*
X118343694Y-60558706D01*
X118347813Y-60563250D01*
X118351467Y-60568177D01*
X118354620Y-60573438D01*
X118357242Y-60578982D01*
X118359309Y-60584757D01*
X118360799Y-60590707D01*
X118361699Y-60596774D01*
X118362000Y-60602900D01*
X118362000Y-61302900D01*
X118361699Y-61309026D01*
X118360799Y-61315093D01*
X118359309Y-61321043D01*
X118357242Y-61326818D01*
X118354620Y-61332362D01*
X118351467Y-61337623D01*
X118347813Y-61342550D01*
X118343694Y-61347094D01*
X118339150Y-61351213D01*
X118334223Y-61354867D01*
X118328962Y-61358020D01*
X118323418Y-61360642D01*
X118317643Y-61362709D01*
X118311693Y-61364199D01*
X118305626Y-61365099D01*
X118299500Y-61365400D01*
X118174500Y-61365400D01*
X118168374Y-61365099D01*
X118162307Y-61364199D01*
X118156357Y-61362709D01*
X118150582Y-61360642D01*
X118145038Y-61358020D01*
X118139777Y-61354867D01*
X118134850Y-61351213D01*
X118130306Y-61347094D01*
X118126187Y-61342550D01*
X118122533Y-61337623D01*
X118119380Y-61332362D01*
X118116758Y-61326818D01*
X118114691Y-61321043D01*
X118113201Y-61315093D01*
X118112301Y-61309026D01*
X118112000Y-61302900D01*
X118112000Y-60602900D01*
X118112301Y-60596774D01*
X118113201Y-60590707D01*
X118114691Y-60584757D01*
X118116758Y-60578982D01*
X118119380Y-60573438D01*
X118122533Y-60568177D01*
X118126187Y-60563250D01*
X118130306Y-60558706D01*
X118134850Y-60554587D01*
X118139777Y-60550933D01*
X118145038Y-60547780D01*
X118150582Y-60545158D01*
X118156357Y-60543091D01*
X118162307Y-60541601D01*
X118168374Y-60540701D01*
X118174500Y-60540400D01*
X118299500Y-60540400D01*
X118305626Y-60540701D01*
G37*
G36*
X118805626Y-60540701D02*
G01*
X118811693Y-60541601D01*
X118817643Y-60543091D01*
X118823418Y-60545158D01*
X118828962Y-60547780D01*
X118834223Y-60550933D01*
X118839150Y-60554587D01*
X118843694Y-60558706D01*
X118847813Y-60563250D01*
X118851467Y-60568177D01*
X118854620Y-60573438D01*
X118857242Y-60578982D01*
X118859309Y-60584757D01*
X118860799Y-60590707D01*
X118861699Y-60596774D01*
X118862000Y-60602900D01*
X118862000Y-61302900D01*
X118861699Y-61309026D01*
X118860799Y-61315093D01*
X118859309Y-61321043D01*
X118857242Y-61326818D01*
X118854620Y-61332362D01*
X118851467Y-61337623D01*
X118847813Y-61342550D01*
X118843694Y-61347094D01*
X118839150Y-61351213D01*
X118834223Y-61354867D01*
X118828962Y-61358020D01*
X118823418Y-61360642D01*
X118817643Y-61362709D01*
X118811693Y-61364199D01*
X118805626Y-61365099D01*
X118799500Y-61365400D01*
X118674500Y-61365400D01*
X118668374Y-61365099D01*
X118662307Y-61364199D01*
X118656357Y-61362709D01*
X118650582Y-61360642D01*
X118645038Y-61358020D01*
X118639777Y-61354867D01*
X118634850Y-61351213D01*
X118630306Y-61347094D01*
X118626187Y-61342550D01*
X118622533Y-61337623D01*
X118619380Y-61332362D01*
X118616758Y-61326818D01*
X118614691Y-61321043D01*
X118613201Y-61315093D01*
X118612301Y-61309026D01*
X118612000Y-61302900D01*
X118612000Y-60602900D01*
X118612301Y-60596774D01*
X118613201Y-60590707D01*
X118614691Y-60584757D01*
X118616758Y-60578982D01*
X118619380Y-60573438D01*
X118622533Y-60568177D01*
X118626187Y-60563250D01*
X118630306Y-60558706D01*
X118634850Y-60554587D01*
X118639777Y-60550933D01*
X118645038Y-60547780D01*
X118650582Y-60545158D01*
X118656357Y-60543091D01*
X118662307Y-60541601D01*
X118668374Y-60540701D01*
X118674500Y-60540400D01*
X118799500Y-60540400D01*
X118805626Y-60540701D01*
G37*
G36*
X119305626Y-60540701D02*
G01*
X119311693Y-60541601D01*
X119317643Y-60543091D01*
X119323418Y-60545158D01*
X119328962Y-60547780D01*
X119334223Y-60550933D01*
X119339150Y-60554587D01*
X119343694Y-60558706D01*
X119347813Y-60563250D01*
X119351467Y-60568177D01*
X119354620Y-60573438D01*
X119357242Y-60578982D01*
X119359309Y-60584757D01*
X119360799Y-60590707D01*
X119361699Y-60596774D01*
X119362000Y-60602900D01*
X119362000Y-61302900D01*
X119361699Y-61309026D01*
X119360799Y-61315093D01*
X119359309Y-61321043D01*
X119357242Y-61326818D01*
X119354620Y-61332362D01*
X119351467Y-61337623D01*
X119347813Y-61342550D01*
X119343694Y-61347094D01*
X119339150Y-61351213D01*
X119334223Y-61354867D01*
X119328962Y-61358020D01*
X119323418Y-61360642D01*
X119317643Y-61362709D01*
X119311693Y-61364199D01*
X119305626Y-61365099D01*
X119299500Y-61365400D01*
X119174500Y-61365400D01*
X119168374Y-61365099D01*
X119162307Y-61364199D01*
X119156357Y-61362709D01*
X119150582Y-61360642D01*
X119145038Y-61358020D01*
X119139777Y-61354867D01*
X119134850Y-61351213D01*
X119130306Y-61347094D01*
X119126187Y-61342550D01*
X119122533Y-61337623D01*
X119119380Y-61332362D01*
X119116758Y-61326818D01*
X119114691Y-61321043D01*
X119113201Y-61315093D01*
X119112301Y-61309026D01*
X119112000Y-61302900D01*
X119112000Y-60602900D01*
X119112301Y-60596774D01*
X119113201Y-60590707D01*
X119114691Y-60584757D01*
X119116758Y-60578982D01*
X119119380Y-60573438D01*
X119122533Y-60568177D01*
X119126187Y-60563250D01*
X119130306Y-60558706D01*
X119134850Y-60554587D01*
X119139777Y-60550933D01*
X119145038Y-60547780D01*
X119150582Y-60545158D01*
X119156357Y-60543091D01*
X119162307Y-60541601D01*
X119168374Y-60540701D01*
X119174500Y-60540400D01*
X119299500Y-60540400D01*
X119305626Y-60540701D01*
G37*
G36*
X120530626Y-61765701D02*
G01*
X120536693Y-61766601D01*
X120542643Y-61768091D01*
X120548418Y-61770158D01*
X120553962Y-61772780D01*
X120559223Y-61775933D01*
X120564150Y-61779587D01*
X120568694Y-61783706D01*
X120572813Y-61788250D01*
X120576467Y-61793177D01*
X120579620Y-61798438D01*
X120582242Y-61803982D01*
X120584309Y-61809757D01*
X120585799Y-61815707D01*
X120586699Y-61821774D01*
X120587000Y-61827900D01*
X120587000Y-61952900D01*
X120586699Y-61959026D01*
X120585799Y-61965093D01*
X120584309Y-61971043D01*
X120582242Y-61976818D01*
X120579620Y-61982362D01*
X120576467Y-61987623D01*
X120572813Y-61992550D01*
X120568694Y-61997094D01*
X120564150Y-62001213D01*
X120559223Y-62004867D01*
X120553962Y-62008020D01*
X120548418Y-62010642D01*
X120542643Y-62012709D01*
X120536693Y-62014199D01*
X120530626Y-62015099D01*
X120524500Y-62015400D01*
X119824500Y-62015400D01*
X119818374Y-62015099D01*
X119812307Y-62014199D01*
X119806357Y-62012709D01*
X119800582Y-62010642D01*
X119795038Y-62008020D01*
X119789777Y-62004867D01*
X119784850Y-62001213D01*
X119780306Y-61997094D01*
X119776187Y-61992550D01*
X119772533Y-61987623D01*
X119769380Y-61982362D01*
X119766758Y-61976818D01*
X119764691Y-61971043D01*
X119763201Y-61965093D01*
X119762301Y-61959026D01*
X119762000Y-61952900D01*
X119762000Y-61827900D01*
X119762301Y-61821774D01*
X119763201Y-61815707D01*
X119764691Y-61809757D01*
X119766758Y-61803982D01*
X119769380Y-61798438D01*
X119772533Y-61793177D01*
X119776187Y-61788250D01*
X119780306Y-61783706D01*
X119784850Y-61779587D01*
X119789777Y-61775933D01*
X119795038Y-61772780D01*
X119800582Y-61770158D01*
X119806357Y-61768091D01*
X119812307Y-61766601D01*
X119818374Y-61765701D01*
X119824500Y-61765400D01*
X120524500Y-61765400D01*
X120530626Y-61765701D01*
G37*
G36*
X120530626Y-62265701D02*
G01*
X120536693Y-62266601D01*
X120542643Y-62268091D01*
X120548418Y-62270158D01*
X120553962Y-62272780D01*
X120559223Y-62275933D01*
X120564150Y-62279587D01*
X120568694Y-62283706D01*
X120572813Y-62288250D01*
X120576467Y-62293177D01*
X120579620Y-62298438D01*
X120582242Y-62303982D01*
X120584309Y-62309757D01*
X120585799Y-62315707D01*
X120586699Y-62321774D01*
X120587000Y-62327900D01*
X120587000Y-62452900D01*
X120586699Y-62459026D01*
X120585799Y-62465093D01*
X120584309Y-62471043D01*
X120582242Y-62476818D01*
X120579620Y-62482362D01*
X120576467Y-62487623D01*
X120572813Y-62492550D01*
X120568694Y-62497094D01*
X120564150Y-62501213D01*
X120559223Y-62504867D01*
X120553962Y-62508020D01*
X120548418Y-62510642D01*
X120542643Y-62512709D01*
X120536693Y-62514199D01*
X120530626Y-62515099D01*
X120524500Y-62515400D01*
X119824500Y-62515400D01*
X119818374Y-62515099D01*
X119812307Y-62514199D01*
X119806357Y-62512709D01*
X119800582Y-62510642D01*
X119795038Y-62508020D01*
X119789777Y-62504867D01*
X119784850Y-62501213D01*
X119780306Y-62497094D01*
X119776187Y-62492550D01*
X119772533Y-62487623D01*
X119769380Y-62482362D01*
X119766758Y-62476818D01*
X119764691Y-62471043D01*
X119763201Y-62465093D01*
X119762301Y-62459026D01*
X119762000Y-62452900D01*
X119762000Y-62327900D01*
X119762301Y-62321774D01*
X119763201Y-62315707D01*
X119764691Y-62309757D01*
X119766758Y-62303982D01*
X119769380Y-62298438D01*
X119772533Y-62293177D01*
X119776187Y-62288250D01*
X119780306Y-62283706D01*
X119784850Y-62279587D01*
X119789777Y-62275933D01*
X119795038Y-62272780D01*
X119800582Y-62270158D01*
X119806357Y-62268091D01*
X119812307Y-62266601D01*
X119818374Y-62265701D01*
X119824500Y-62265400D01*
X120524500Y-62265400D01*
X120530626Y-62265701D01*
G37*
G36*
X120530626Y-62765701D02*
G01*
X120536693Y-62766601D01*
X120542643Y-62768091D01*
X120548418Y-62770158D01*
X120553962Y-62772780D01*
X120559223Y-62775933D01*
X120564150Y-62779587D01*
X120568694Y-62783706D01*
X120572813Y-62788250D01*
X120576467Y-62793177D01*
X120579620Y-62798438D01*
X120582242Y-62803982D01*
X120584309Y-62809757D01*
X120585799Y-62815707D01*
X120586699Y-62821774D01*
X120587000Y-62827900D01*
X120587000Y-62952900D01*
X120586699Y-62959026D01*
X120585799Y-62965093D01*
X120584309Y-62971043D01*
X120582242Y-62976818D01*
X120579620Y-62982362D01*
X120576467Y-62987623D01*
X120572813Y-62992550D01*
X120568694Y-62997094D01*
X120564150Y-63001213D01*
X120559223Y-63004867D01*
X120553962Y-63008020D01*
X120548418Y-63010642D01*
X120542643Y-63012709D01*
X120536693Y-63014199D01*
X120530626Y-63015099D01*
X120524500Y-63015400D01*
X119824500Y-63015400D01*
X119818374Y-63015099D01*
X119812307Y-63014199D01*
X119806357Y-63012709D01*
X119800582Y-63010642D01*
X119795038Y-63008020D01*
X119789777Y-63004867D01*
X119784850Y-63001213D01*
X119780306Y-62997094D01*
X119776187Y-62992550D01*
X119772533Y-62987623D01*
X119769380Y-62982362D01*
X119766758Y-62976818D01*
X119764691Y-62971043D01*
X119763201Y-62965093D01*
X119762301Y-62959026D01*
X119762000Y-62952900D01*
X119762000Y-62827900D01*
X119762301Y-62821774D01*
X119763201Y-62815707D01*
X119764691Y-62809757D01*
X119766758Y-62803982D01*
X119769380Y-62798438D01*
X119772533Y-62793177D01*
X119776187Y-62788250D01*
X119780306Y-62783706D01*
X119784850Y-62779587D01*
X119789777Y-62775933D01*
X119795038Y-62772780D01*
X119800582Y-62770158D01*
X119806357Y-62768091D01*
X119812307Y-62766601D01*
X119818374Y-62765701D01*
X119824500Y-62765400D01*
X120524500Y-62765400D01*
X120530626Y-62765701D01*
G37*
G36*
X120530626Y-63265701D02*
G01*
X120536693Y-63266601D01*
X120542643Y-63268091D01*
X120548418Y-63270158D01*
X120553962Y-63272780D01*
X120559223Y-63275933D01*
X120564150Y-63279587D01*
X120568694Y-63283706D01*
X120572813Y-63288250D01*
X120576467Y-63293177D01*
X120579620Y-63298438D01*
X120582242Y-63303982D01*
X120584309Y-63309757D01*
X120585799Y-63315707D01*
X120586699Y-63321774D01*
X120587000Y-63327900D01*
X120587000Y-63452900D01*
X120586699Y-63459026D01*
X120585799Y-63465093D01*
X120584309Y-63471043D01*
X120582242Y-63476818D01*
X120579620Y-63482362D01*
X120576467Y-63487623D01*
X120572813Y-63492550D01*
X120568694Y-63497094D01*
X120564150Y-63501213D01*
X120559223Y-63504867D01*
X120553962Y-63508020D01*
X120548418Y-63510642D01*
X120542643Y-63512709D01*
X120536693Y-63514199D01*
X120530626Y-63515099D01*
X120524500Y-63515400D01*
X119824500Y-63515400D01*
X119818374Y-63515099D01*
X119812307Y-63514199D01*
X119806357Y-63512709D01*
X119800582Y-63510642D01*
X119795038Y-63508020D01*
X119789777Y-63504867D01*
X119784850Y-63501213D01*
X119780306Y-63497094D01*
X119776187Y-63492550D01*
X119772533Y-63487623D01*
X119769380Y-63482362D01*
X119766758Y-63476818D01*
X119764691Y-63471043D01*
X119763201Y-63465093D01*
X119762301Y-63459026D01*
X119762000Y-63452900D01*
X119762000Y-63327900D01*
X119762301Y-63321774D01*
X119763201Y-63315707D01*
X119764691Y-63309757D01*
X119766758Y-63303982D01*
X119769380Y-63298438D01*
X119772533Y-63293177D01*
X119776187Y-63288250D01*
X119780306Y-63283706D01*
X119784850Y-63279587D01*
X119789777Y-63275933D01*
X119795038Y-63272780D01*
X119800582Y-63270158D01*
X119806357Y-63268091D01*
X119812307Y-63266601D01*
X119818374Y-63265701D01*
X119824500Y-63265400D01*
X120524500Y-63265400D01*
X120530626Y-63265701D01*
G37*
G36*
X120530626Y-63765701D02*
G01*
X120536693Y-63766601D01*
X120542643Y-63768091D01*
X120548418Y-63770158D01*
X120553962Y-63772780D01*
X120559223Y-63775933D01*
X120564150Y-63779587D01*
X120568694Y-63783706D01*
X120572813Y-63788250D01*
X120576467Y-63793177D01*
X120579620Y-63798438D01*
X120582242Y-63803982D01*
X120584309Y-63809757D01*
X120585799Y-63815707D01*
X120586699Y-63821774D01*
X120587000Y-63827900D01*
X120587000Y-63952900D01*
X120586699Y-63959026D01*
X120585799Y-63965093D01*
X120584309Y-63971043D01*
X120582242Y-63976818D01*
X120579620Y-63982362D01*
X120576467Y-63987623D01*
X120572813Y-63992550D01*
X120568694Y-63997094D01*
X120564150Y-64001213D01*
X120559223Y-64004867D01*
X120553962Y-64008020D01*
X120548418Y-64010642D01*
X120542643Y-64012709D01*
X120536693Y-64014199D01*
X120530626Y-64015099D01*
X120524500Y-64015400D01*
X119824500Y-64015400D01*
X119818374Y-64015099D01*
X119812307Y-64014199D01*
X119806357Y-64012709D01*
X119800582Y-64010642D01*
X119795038Y-64008020D01*
X119789777Y-64004867D01*
X119784850Y-64001213D01*
X119780306Y-63997094D01*
X119776187Y-63992550D01*
X119772533Y-63987623D01*
X119769380Y-63982362D01*
X119766758Y-63976818D01*
X119764691Y-63971043D01*
X119763201Y-63965093D01*
X119762301Y-63959026D01*
X119762000Y-63952900D01*
X119762000Y-63827900D01*
X119762301Y-63821774D01*
X119763201Y-63815707D01*
X119764691Y-63809757D01*
X119766758Y-63803982D01*
X119769380Y-63798438D01*
X119772533Y-63793177D01*
X119776187Y-63788250D01*
X119780306Y-63783706D01*
X119784850Y-63779587D01*
X119789777Y-63775933D01*
X119795038Y-63772780D01*
X119800582Y-63770158D01*
X119806357Y-63768091D01*
X119812307Y-63766601D01*
X119818374Y-63765701D01*
X119824500Y-63765400D01*
X120524500Y-63765400D01*
X120530626Y-63765701D01*
G37*
G36*
X119305626Y-64415701D02*
G01*
X119311693Y-64416601D01*
X119317643Y-64418091D01*
X119323418Y-64420158D01*
X119328962Y-64422780D01*
X119334223Y-64425933D01*
X119339150Y-64429587D01*
X119343694Y-64433706D01*
X119347813Y-64438250D01*
X119351467Y-64443177D01*
X119354620Y-64448438D01*
X119357242Y-64453982D01*
X119359309Y-64459757D01*
X119360799Y-64465707D01*
X119361699Y-64471774D01*
X119362000Y-64477900D01*
X119362000Y-65177900D01*
X119361699Y-65184026D01*
X119360799Y-65190093D01*
X119359309Y-65196043D01*
X119357242Y-65201818D01*
X119354620Y-65207362D01*
X119351467Y-65212623D01*
X119347813Y-65217550D01*
X119343694Y-65222094D01*
X119339150Y-65226213D01*
X119334223Y-65229867D01*
X119328962Y-65233020D01*
X119323418Y-65235642D01*
X119317643Y-65237709D01*
X119311693Y-65239199D01*
X119305626Y-65240099D01*
X119299500Y-65240400D01*
X119174500Y-65240400D01*
X119168374Y-65240099D01*
X119162307Y-65239199D01*
X119156357Y-65237709D01*
X119150582Y-65235642D01*
X119145038Y-65233020D01*
X119139777Y-65229867D01*
X119134850Y-65226213D01*
X119130306Y-65222094D01*
X119126187Y-65217550D01*
X119122533Y-65212623D01*
X119119380Y-65207362D01*
X119116758Y-65201818D01*
X119114691Y-65196043D01*
X119113201Y-65190093D01*
X119112301Y-65184026D01*
X119112000Y-65177900D01*
X119112000Y-64477900D01*
X119112301Y-64471774D01*
X119113201Y-64465707D01*
X119114691Y-64459757D01*
X119116758Y-64453982D01*
X119119380Y-64448438D01*
X119122533Y-64443177D01*
X119126187Y-64438250D01*
X119130306Y-64433706D01*
X119134850Y-64429587D01*
X119139777Y-64425933D01*
X119145038Y-64422780D01*
X119150582Y-64420158D01*
X119156357Y-64418091D01*
X119162307Y-64416601D01*
X119168374Y-64415701D01*
X119174500Y-64415400D01*
X119299500Y-64415400D01*
X119305626Y-64415701D01*
G37*
G36*
X118805626Y-64415701D02*
G01*
X118811693Y-64416601D01*
X118817643Y-64418091D01*
X118823418Y-64420158D01*
X118828962Y-64422780D01*
X118834223Y-64425933D01*
X118839150Y-64429587D01*
X118843694Y-64433706D01*
X118847813Y-64438250D01*
X118851467Y-64443177D01*
X118854620Y-64448438D01*
X118857242Y-64453982D01*
X118859309Y-64459757D01*
X118860799Y-64465707D01*
X118861699Y-64471774D01*
X118862000Y-64477900D01*
X118862000Y-65177900D01*
X118861699Y-65184026D01*
X118860799Y-65190093D01*
X118859309Y-65196043D01*
X118857242Y-65201818D01*
X118854620Y-65207362D01*
X118851467Y-65212623D01*
X118847813Y-65217550D01*
X118843694Y-65222094D01*
X118839150Y-65226213D01*
X118834223Y-65229867D01*
X118828962Y-65233020D01*
X118823418Y-65235642D01*
X118817643Y-65237709D01*
X118811693Y-65239199D01*
X118805626Y-65240099D01*
X118799500Y-65240400D01*
X118674500Y-65240400D01*
X118668374Y-65240099D01*
X118662307Y-65239199D01*
X118656357Y-65237709D01*
X118650582Y-65235642D01*
X118645038Y-65233020D01*
X118639777Y-65229867D01*
X118634850Y-65226213D01*
X118630306Y-65222094D01*
X118626187Y-65217550D01*
X118622533Y-65212623D01*
X118619380Y-65207362D01*
X118616758Y-65201818D01*
X118614691Y-65196043D01*
X118613201Y-65190093D01*
X118612301Y-65184026D01*
X118612000Y-65177900D01*
X118612000Y-64477900D01*
X118612301Y-64471774D01*
X118613201Y-64465707D01*
X118614691Y-64459757D01*
X118616758Y-64453982D01*
X118619380Y-64448438D01*
X118622533Y-64443177D01*
X118626187Y-64438250D01*
X118630306Y-64433706D01*
X118634850Y-64429587D01*
X118639777Y-64425933D01*
X118645038Y-64422780D01*
X118650582Y-64420158D01*
X118656357Y-64418091D01*
X118662307Y-64416601D01*
X118668374Y-64415701D01*
X118674500Y-64415400D01*
X118799500Y-64415400D01*
X118805626Y-64415701D01*
G37*
G36*
X118305626Y-64415701D02*
G01*
X118311693Y-64416601D01*
X118317643Y-64418091D01*
X118323418Y-64420158D01*
X118328962Y-64422780D01*
X118334223Y-64425933D01*
X118339150Y-64429587D01*
X118343694Y-64433706D01*
X118347813Y-64438250D01*
X118351467Y-64443177D01*
X118354620Y-64448438D01*
X118357242Y-64453982D01*
X118359309Y-64459757D01*
X118360799Y-64465707D01*
X118361699Y-64471774D01*
X118362000Y-64477900D01*
X118362000Y-65177900D01*
X118361699Y-65184026D01*
X118360799Y-65190093D01*
X118359309Y-65196043D01*
X118357242Y-65201818D01*
X118354620Y-65207362D01*
X118351467Y-65212623D01*
X118347813Y-65217550D01*
X118343694Y-65222094D01*
X118339150Y-65226213D01*
X118334223Y-65229867D01*
X118328962Y-65233020D01*
X118323418Y-65235642D01*
X118317643Y-65237709D01*
X118311693Y-65239199D01*
X118305626Y-65240099D01*
X118299500Y-65240400D01*
X118174500Y-65240400D01*
X118168374Y-65240099D01*
X118162307Y-65239199D01*
X118156357Y-65237709D01*
X118150582Y-65235642D01*
X118145038Y-65233020D01*
X118139777Y-65229867D01*
X118134850Y-65226213D01*
X118130306Y-65222094D01*
X118126187Y-65217550D01*
X118122533Y-65212623D01*
X118119380Y-65207362D01*
X118116758Y-65201818D01*
X118114691Y-65196043D01*
X118113201Y-65190093D01*
X118112301Y-65184026D01*
X118112000Y-65177900D01*
X118112000Y-64477900D01*
X118112301Y-64471774D01*
X118113201Y-64465707D01*
X118114691Y-64459757D01*
X118116758Y-64453982D01*
X118119380Y-64448438D01*
X118122533Y-64443177D01*
X118126187Y-64438250D01*
X118130306Y-64433706D01*
X118134850Y-64429587D01*
X118139777Y-64425933D01*
X118145038Y-64422780D01*
X118150582Y-64420158D01*
X118156357Y-64418091D01*
X118162307Y-64416601D01*
X118168374Y-64415701D01*
X118174500Y-64415400D01*
X118299500Y-64415400D01*
X118305626Y-64415701D01*
G37*
G36*
X117805626Y-64415701D02*
G01*
X117811693Y-64416601D01*
X117817643Y-64418091D01*
X117823418Y-64420158D01*
X117828962Y-64422780D01*
X117834223Y-64425933D01*
X117839150Y-64429587D01*
X117843694Y-64433706D01*
X117847813Y-64438250D01*
X117851467Y-64443177D01*
X117854620Y-64448438D01*
X117857242Y-64453982D01*
X117859309Y-64459757D01*
X117860799Y-64465707D01*
X117861699Y-64471774D01*
X117862000Y-64477900D01*
X117862000Y-65177900D01*
X117861699Y-65184026D01*
X117860799Y-65190093D01*
X117859309Y-65196043D01*
X117857242Y-65201818D01*
X117854620Y-65207362D01*
X117851467Y-65212623D01*
X117847813Y-65217550D01*
X117843694Y-65222094D01*
X117839150Y-65226213D01*
X117834223Y-65229867D01*
X117828962Y-65233020D01*
X117823418Y-65235642D01*
X117817643Y-65237709D01*
X117811693Y-65239199D01*
X117805626Y-65240099D01*
X117799500Y-65240400D01*
X117674500Y-65240400D01*
X117668374Y-65240099D01*
X117662307Y-65239199D01*
X117656357Y-65237709D01*
X117650582Y-65235642D01*
X117645038Y-65233020D01*
X117639777Y-65229867D01*
X117634850Y-65226213D01*
X117630306Y-65222094D01*
X117626187Y-65217550D01*
X117622533Y-65212623D01*
X117619380Y-65207362D01*
X117616758Y-65201818D01*
X117614691Y-65196043D01*
X117613201Y-65190093D01*
X117612301Y-65184026D01*
X117612000Y-65177900D01*
X117612000Y-64477900D01*
X117612301Y-64471774D01*
X117613201Y-64465707D01*
X117614691Y-64459757D01*
X117616758Y-64453982D01*
X117619380Y-64448438D01*
X117622533Y-64443177D01*
X117626187Y-64438250D01*
X117630306Y-64433706D01*
X117634850Y-64429587D01*
X117639777Y-64425933D01*
X117645038Y-64422780D01*
X117650582Y-64420158D01*
X117656357Y-64418091D01*
X117662307Y-64416601D01*
X117668374Y-64415701D01*
X117674500Y-64415400D01*
X117799500Y-64415400D01*
X117805626Y-64415701D01*
G37*
G36*
X117305626Y-64415701D02*
G01*
X117311693Y-64416601D01*
X117317643Y-64418091D01*
X117323418Y-64420158D01*
X117328962Y-64422780D01*
X117334223Y-64425933D01*
X117339150Y-64429587D01*
X117343694Y-64433706D01*
X117347813Y-64438250D01*
X117351467Y-64443177D01*
X117354620Y-64448438D01*
X117357242Y-64453982D01*
X117359309Y-64459757D01*
X117360799Y-64465707D01*
X117361699Y-64471774D01*
X117362000Y-64477900D01*
X117362000Y-65177900D01*
X117361699Y-65184026D01*
X117360799Y-65190093D01*
X117359309Y-65196043D01*
X117357242Y-65201818D01*
X117354620Y-65207362D01*
X117351467Y-65212623D01*
X117347813Y-65217550D01*
X117343694Y-65222094D01*
X117339150Y-65226213D01*
X117334223Y-65229867D01*
X117328962Y-65233020D01*
X117323418Y-65235642D01*
X117317643Y-65237709D01*
X117311693Y-65239199D01*
X117305626Y-65240099D01*
X117299500Y-65240400D01*
X117174500Y-65240400D01*
X117168374Y-65240099D01*
X117162307Y-65239199D01*
X117156357Y-65237709D01*
X117150582Y-65235642D01*
X117145038Y-65233020D01*
X117139777Y-65229867D01*
X117134850Y-65226213D01*
X117130306Y-65222094D01*
X117126187Y-65217550D01*
X117122533Y-65212623D01*
X117119380Y-65207362D01*
X117116758Y-65201818D01*
X117114691Y-65196043D01*
X117113201Y-65190093D01*
X117112301Y-65184026D01*
X117112000Y-65177900D01*
X117112000Y-64477900D01*
X117112301Y-64471774D01*
X117113201Y-64465707D01*
X117114691Y-64459757D01*
X117116758Y-64453982D01*
X117119380Y-64448438D01*
X117122533Y-64443177D01*
X117126187Y-64438250D01*
X117130306Y-64433706D01*
X117134850Y-64429587D01*
X117139777Y-64425933D01*
X117145038Y-64422780D01*
X117150582Y-64420158D01*
X117156357Y-64418091D01*
X117162307Y-64416601D01*
X117168374Y-64415701D01*
X117174500Y-64415400D01*
X117299500Y-64415400D01*
X117305626Y-64415701D01*
G37*
G36*
X116655626Y-63765701D02*
G01*
X116661693Y-63766601D01*
X116667643Y-63768091D01*
X116673418Y-63770158D01*
X116678962Y-63772780D01*
X116684223Y-63775933D01*
X116689150Y-63779587D01*
X116693694Y-63783706D01*
X116697813Y-63788250D01*
X116701467Y-63793177D01*
X116704620Y-63798438D01*
X116707242Y-63803982D01*
X116709309Y-63809757D01*
X116710799Y-63815707D01*
X116711699Y-63821774D01*
X116712000Y-63827900D01*
X116712000Y-63952900D01*
X116711699Y-63959026D01*
X116710799Y-63965093D01*
X116709309Y-63971043D01*
X116707242Y-63976818D01*
X116704620Y-63982362D01*
X116701467Y-63987623D01*
X116697813Y-63992550D01*
X116693694Y-63997094D01*
X116689150Y-64001213D01*
X116684223Y-64004867D01*
X116678962Y-64008020D01*
X116673418Y-64010642D01*
X116667643Y-64012709D01*
X116661693Y-64014199D01*
X116655626Y-64015099D01*
X116649500Y-64015400D01*
X115949500Y-64015400D01*
X115943374Y-64015099D01*
X115937307Y-64014199D01*
X115931357Y-64012709D01*
X115925582Y-64010642D01*
X115920038Y-64008020D01*
X115914777Y-64004867D01*
X115909850Y-64001213D01*
X115905306Y-63997094D01*
X115901187Y-63992550D01*
X115897533Y-63987623D01*
X115894380Y-63982362D01*
X115891758Y-63976818D01*
X115889691Y-63971043D01*
X115888201Y-63965093D01*
X115887301Y-63959026D01*
X115887000Y-63952900D01*
X115887000Y-63827900D01*
X115887301Y-63821774D01*
X115888201Y-63815707D01*
X115889691Y-63809757D01*
X115891758Y-63803982D01*
X115894380Y-63798438D01*
X115897533Y-63793177D01*
X115901187Y-63788250D01*
X115905306Y-63783706D01*
X115909850Y-63779587D01*
X115914777Y-63775933D01*
X115920038Y-63772780D01*
X115925582Y-63770158D01*
X115931357Y-63768091D01*
X115937307Y-63766601D01*
X115943374Y-63765701D01*
X115949500Y-63765400D01*
X116649500Y-63765400D01*
X116655626Y-63765701D01*
G37*
G36*
X116655626Y-63265701D02*
G01*
X116661693Y-63266601D01*
X116667643Y-63268091D01*
X116673418Y-63270158D01*
X116678962Y-63272780D01*
X116684223Y-63275933D01*
X116689150Y-63279587D01*
X116693694Y-63283706D01*
X116697813Y-63288250D01*
X116701467Y-63293177D01*
X116704620Y-63298438D01*
X116707242Y-63303982D01*
X116709309Y-63309757D01*
X116710799Y-63315707D01*
X116711699Y-63321774D01*
X116712000Y-63327900D01*
X116712000Y-63452900D01*
X116711699Y-63459026D01*
X116710799Y-63465093D01*
X116709309Y-63471043D01*
X116707242Y-63476818D01*
X116704620Y-63482362D01*
X116701467Y-63487623D01*
X116697813Y-63492550D01*
X116693694Y-63497094D01*
X116689150Y-63501213D01*
X116684223Y-63504867D01*
X116678962Y-63508020D01*
X116673418Y-63510642D01*
X116667643Y-63512709D01*
X116661693Y-63514199D01*
X116655626Y-63515099D01*
X116649500Y-63515400D01*
X115949500Y-63515400D01*
X115943374Y-63515099D01*
X115937307Y-63514199D01*
X115931357Y-63512709D01*
X115925582Y-63510642D01*
X115920038Y-63508020D01*
X115914777Y-63504867D01*
X115909850Y-63501213D01*
X115905306Y-63497094D01*
X115901187Y-63492550D01*
X115897533Y-63487623D01*
X115894380Y-63482362D01*
X115891758Y-63476818D01*
X115889691Y-63471043D01*
X115888201Y-63465093D01*
X115887301Y-63459026D01*
X115887000Y-63452900D01*
X115887000Y-63327900D01*
X115887301Y-63321774D01*
X115888201Y-63315707D01*
X115889691Y-63309757D01*
X115891758Y-63303982D01*
X115894380Y-63298438D01*
X115897533Y-63293177D01*
X115901187Y-63288250D01*
X115905306Y-63283706D01*
X115909850Y-63279587D01*
X115914777Y-63275933D01*
X115920038Y-63272780D01*
X115925582Y-63270158D01*
X115931357Y-63268091D01*
X115937307Y-63266601D01*
X115943374Y-63265701D01*
X115949500Y-63265400D01*
X116649500Y-63265400D01*
X116655626Y-63265701D01*
G37*
G36*
X116655626Y-62765701D02*
G01*
X116661693Y-62766601D01*
X116667643Y-62768091D01*
X116673418Y-62770158D01*
X116678962Y-62772780D01*
X116684223Y-62775933D01*
X116689150Y-62779587D01*
X116693694Y-62783706D01*
X116697813Y-62788250D01*
X116701467Y-62793177D01*
X116704620Y-62798438D01*
X116707242Y-62803982D01*
X116709309Y-62809757D01*
X116710799Y-62815707D01*
X116711699Y-62821774D01*
X116712000Y-62827900D01*
X116712000Y-62952900D01*
X116711699Y-62959026D01*
X116710799Y-62965093D01*
X116709309Y-62971043D01*
X116707242Y-62976818D01*
X116704620Y-62982362D01*
X116701467Y-62987623D01*
X116697813Y-62992550D01*
X116693694Y-62997094D01*
X116689150Y-63001213D01*
X116684223Y-63004867D01*
X116678962Y-63008020D01*
X116673418Y-63010642D01*
X116667643Y-63012709D01*
X116661693Y-63014199D01*
X116655626Y-63015099D01*
X116649500Y-63015400D01*
X115949500Y-63015400D01*
X115943374Y-63015099D01*
X115937307Y-63014199D01*
X115931357Y-63012709D01*
X115925582Y-63010642D01*
X115920038Y-63008020D01*
X115914777Y-63004867D01*
X115909850Y-63001213D01*
X115905306Y-62997094D01*
X115901187Y-62992550D01*
X115897533Y-62987623D01*
X115894380Y-62982362D01*
X115891758Y-62976818D01*
X115889691Y-62971043D01*
X115888201Y-62965093D01*
X115887301Y-62959026D01*
X115887000Y-62952900D01*
X115887000Y-62827900D01*
X115887301Y-62821774D01*
X115888201Y-62815707D01*
X115889691Y-62809757D01*
X115891758Y-62803982D01*
X115894380Y-62798438D01*
X115897533Y-62793177D01*
X115901187Y-62788250D01*
X115905306Y-62783706D01*
X115909850Y-62779587D01*
X115914777Y-62775933D01*
X115920038Y-62772780D01*
X115925582Y-62770158D01*
X115931357Y-62768091D01*
X115937307Y-62766601D01*
X115943374Y-62765701D01*
X115949500Y-62765400D01*
X116649500Y-62765400D01*
X116655626Y-62765701D01*
G37*
G36*
X116655626Y-62265701D02*
G01*
X116661693Y-62266601D01*
X116667643Y-62268091D01*
X116673418Y-62270158D01*
X116678962Y-62272780D01*
X116684223Y-62275933D01*
X116689150Y-62279587D01*
X116693694Y-62283706D01*
X116697813Y-62288250D01*
X116701467Y-62293177D01*
X116704620Y-62298438D01*
X116707242Y-62303982D01*
X116709309Y-62309757D01*
X116710799Y-62315707D01*
X116711699Y-62321774D01*
X116712000Y-62327900D01*
X116712000Y-62452900D01*
X116711699Y-62459026D01*
X116710799Y-62465093D01*
X116709309Y-62471043D01*
X116707242Y-62476818D01*
X116704620Y-62482362D01*
X116701467Y-62487623D01*
X116697813Y-62492550D01*
X116693694Y-62497094D01*
X116689150Y-62501213D01*
X116684223Y-62504867D01*
X116678962Y-62508020D01*
X116673418Y-62510642D01*
X116667643Y-62512709D01*
X116661693Y-62514199D01*
X116655626Y-62515099D01*
X116649500Y-62515400D01*
X115949500Y-62515400D01*
X115943374Y-62515099D01*
X115937307Y-62514199D01*
X115931357Y-62512709D01*
X115925582Y-62510642D01*
X115920038Y-62508020D01*
X115914777Y-62504867D01*
X115909850Y-62501213D01*
X115905306Y-62497094D01*
X115901187Y-62492550D01*
X115897533Y-62487623D01*
X115894380Y-62482362D01*
X115891758Y-62476818D01*
X115889691Y-62471043D01*
X115888201Y-62465093D01*
X115887301Y-62459026D01*
X115887000Y-62452900D01*
X115887000Y-62327900D01*
X115887301Y-62321774D01*
X115888201Y-62315707D01*
X115889691Y-62309757D01*
X115891758Y-62303982D01*
X115894380Y-62298438D01*
X115897533Y-62293177D01*
X115901187Y-62288250D01*
X115905306Y-62283706D01*
X115909850Y-62279587D01*
X115914777Y-62275933D01*
X115920038Y-62272780D01*
X115925582Y-62270158D01*
X115931357Y-62268091D01*
X115937307Y-62266601D01*
X115943374Y-62265701D01*
X115949500Y-62265400D01*
X116649500Y-62265400D01*
X116655626Y-62265701D01*
G37*
G36*
X116655626Y-61765701D02*
G01*
X116661693Y-61766601D01*
X116667643Y-61768091D01*
X116673418Y-61770158D01*
X116678962Y-61772780D01*
X116684223Y-61775933D01*
X116689150Y-61779587D01*
X116693694Y-61783706D01*
X116697813Y-61788250D01*
X116701467Y-61793177D01*
X116704620Y-61798438D01*
X116707242Y-61803982D01*
X116709309Y-61809757D01*
X116710799Y-61815707D01*
X116711699Y-61821774D01*
X116712000Y-61827900D01*
X116712000Y-61952900D01*
X116711699Y-61959026D01*
X116710799Y-61965093D01*
X116709309Y-61971043D01*
X116707242Y-61976818D01*
X116704620Y-61982362D01*
X116701467Y-61987623D01*
X116697813Y-61992550D01*
X116693694Y-61997094D01*
X116689150Y-62001213D01*
X116684223Y-62004867D01*
X116678962Y-62008020D01*
X116673418Y-62010642D01*
X116667643Y-62012709D01*
X116661693Y-62014199D01*
X116655626Y-62015099D01*
X116649500Y-62015400D01*
X115949500Y-62015400D01*
X115943374Y-62015099D01*
X115937307Y-62014199D01*
X115931357Y-62012709D01*
X115925582Y-62010642D01*
X115920038Y-62008020D01*
X115914777Y-62004867D01*
X115909850Y-62001213D01*
X115905306Y-61997094D01*
X115901187Y-61992550D01*
X115897533Y-61987623D01*
X115894380Y-61982362D01*
X115891758Y-61976818D01*
X115889691Y-61971043D01*
X115888201Y-61965093D01*
X115887301Y-61959026D01*
X115887000Y-61952900D01*
X115887000Y-61827900D01*
X115887301Y-61821774D01*
X115888201Y-61815707D01*
X115889691Y-61809757D01*
X115891758Y-61803982D01*
X115894380Y-61798438D01*
X115897533Y-61793177D01*
X115901187Y-61788250D01*
X115905306Y-61783706D01*
X115909850Y-61779587D01*
X115914777Y-61775933D01*
X115920038Y-61772780D01*
X115925582Y-61770158D01*
X115931357Y-61768091D01*
X115937307Y-61766601D01*
X115943374Y-61765701D01*
X115949500Y-61765400D01*
X116649500Y-61765400D01*
X116655626Y-61765701D01*
G37*
G36*
X119141504Y-63011604D02*
G01*
X119165773Y-63015204D01*
X119189571Y-63021165D01*
X119212671Y-63029430D01*
X119234849Y-63039920D01*
X119255893Y-63052533D01*
X119275598Y-63067147D01*
X119293777Y-63083623D01*
X119310253Y-63101802D01*
X119324867Y-63121507D01*
X119337480Y-63142551D01*
X119347970Y-63164729D01*
X119356235Y-63187829D01*
X119362196Y-63211627D01*
X119365796Y-63235896D01*
X119367000Y-63260400D01*
X119367000Y-63770400D01*
X119365796Y-63794904D01*
X119362196Y-63819173D01*
X119356235Y-63842971D01*
X119347970Y-63866071D01*
X119337480Y-63888249D01*
X119324867Y-63909293D01*
X119310253Y-63928998D01*
X119293777Y-63947177D01*
X119275598Y-63963653D01*
X119255893Y-63978267D01*
X119234849Y-63990880D01*
X119212671Y-64001370D01*
X119189571Y-64009635D01*
X119165773Y-64015596D01*
X119141504Y-64019196D01*
X119117000Y-64020400D01*
X118607000Y-64020400D01*
X118582496Y-64019196D01*
X118558227Y-64015596D01*
X118534429Y-64009635D01*
X118511329Y-64001370D01*
X118489151Y-63990880D01*
X118468107Y-63978267D01*
X118448402Y-63963653D01*
X118430223Y-63947177D01*
X118413747Y-63928998D01*
X118399133Y-63909293D01*
X118386520Y-63888249D01*
X118376030Y-63866071D01*
X118367765Y-63842971D01*
X118361804Y-63819173D01*
X118358204Y-63794904D01*
X118357000Y-63770400D01*
X118357000Y-63260400D01*
X118358204Y-63235896D01*
X118361804Y-63211627D01*
X118367765Y-63187829D01*
X118376030Y-63164729D01*
X118386520Y-63142551D01*
X118399133Y-63121507D01*
X118413747Y-63101802D01*
X118430223Y-63083623D01*
X118448402Y-63067147D01*
X118468107Y-63052533D01*
X118489151Y-63039920D01*
X118511329Y-63029430D01*
X118534429Y-63021165D01*
X118558227Y-63015204D01*
X118582496Y-63011604D01*
X118607000Y-63010400D01*
X119117000Y-63010400D01*
X119141504Y-63011604D01*
G37*
G36*
X119141504Y-61761604D02*
G01*
X119165773Y-61765204D01*
X119189571Y-61771165D01*
X119212671Y-61779430D01*
X119234849Y-61789920D01*
X119255893Y-61802533D01*
X119275598Y-61817147D01*
X119293777Y-61833623D01*
X119310253Y-61851802D01*
X119324867Y-61871507D01*
X119337480Y-61892551D01*
X119347970Y-61914729D01*
X119356235Y-61937829D01*
X119362196Y-61961627D01*
X119365796Y-61985896D01*
X119367000Y-62010400D01*
X119367000Y-62520400D01*
X119365796Y-62544904D01*
X119362196Y-62569173D01*
X119356235Y-62592971D01*
X119347970Y-62616071D01*
X119337480Y-62638249D01*
X119324867Y-62659293D01*
X119310253Y-62678998D01*
X119293777Y-62697177D01*
X119275598Y-62713653D01*
X119255893Y-62728267D01*
X119234849Y-62740880D01*
X119212671Y-62751370D01*
X119189571Y-62759635D01*
X119165773Y-62765596D01*
X119141504Y-62769196D01*
X119117000Y-62770400D01*
X118607000Y-62770400D01*
X118582496Y-62769196D01*
X118558227Y-62765596D01*
X118534429Y-62759635D01*
X118511329Y-62751370D01*
X118489151Y-62740880D01*
X118468107Y-62728267D01*
X118448402Y-62713653D01*
X118430223Y-62697177D01*
X118413747Y-62678998D01*
X118399133Y-62659293D01*
X118386520Y-62638249D01*
X118376030Y-62616071D01*
X118367765Y-62592971D01*
X118361804Y-62569173D01*
X118358204Y-62544904D01*
X118357000Y-62520400D01*
X118357000Y-62010400D01*
X118358204Y-61985896D01*
X118361804Y-61961627D01*
X118367765Y-61937829D01*
X118376030Y-61914729D01*
X118386520Y-61892551D01*
X118399133Y-61871507D01*
X118413747Y-61851802D01*
X118430223Y-61833623D01*
X118448402Y-61817147D01*
X118468107Y-61802533D01*
X118489151Y-61789920D01*
X118511329Y-61779430D01*
X118534429Y-61771165D01*
X118558227Y-61765204D01*
X118582496Y-61761604D01*
X118607000Y-61760400D01*
X119117000Y-61760400D01*
X119141504Y-61761604D01*
G37*
G36*
X117891504Y-63011604D02*
G01*
X117915773Y-63015204D01*
X117939571Y-63021165D01*
X117962671Y-63029430D01*
X117984849Y-63039920D01*
X118005893Y-63052533D01*
X118025598Y-63067147D01*
X118043777Y-63083623D01*
X118060253Y-63101802D01*
X118074867Y-63121507D01*
X118087480Y-63142551D01*
X118097970Y-63164729D01*
X118106235Y-63187829D01*
X118112196Y-63211627D01*
X118115796Y-63235896D01*
X118117000Y-63260400D01*
X118117000Y-63770400D01*
X118115796Y-63794904D01*
X118112196Y-63819173D01*
X118106235Y-63842971D01*
X118097970Y-63866071D01*
X118087480Y-63888249D01*
X118074867Y-63909293D01*
X118060253Y-63928998D01*
X118043777Y-63947177D01*
X118025598Y-63963653D01*
X118005893Y-63978267D01*
X117984849Y-63990880D01*
X117962671Y-64001370D01*
X117939571Y-64009635D01*
X117915773Y-64015596D01*
X117891504Y-64019196D01*
X117867000Y-64020400D01*
X117357000Y-64020400D01*
X117332496Y-64019196D01*
X117308227Y-64015596D01*
X117284429Y-64009635D01*
X117261329Y-64001370D01*
X117239151Y-63990880D01*
X117218107Y-63978267D01*
X117198402Y-63963653D01*
X117180223Y-63947177D01*
X117163747Y-63928998D01*
X117149133Y-63909293D01*
X117136520Y-63888249D01*
X117126030Y-63866071D01*
X117117765Y-63842971D01*
X117111804Y-63819173D01*
X117108204Y-63794904D01*
X117107000Y-63770400D01*
X117107000Y-63260400D01*
X117108204Y-63235896D01*
X117111804Y-63211627D01*
X117117765Y-63187829D01*
X117126030Y-63164729D01*
X117136520Y-63142551D01*
X117149133Y-63121507D01*
X117163747Y-63101802D01*
X117180223Y-63083623D01*
X117198402Y-63067147D01*
X117218107Y-63052533D01*
X117239151Y-63039920D01*
X117261329Y-63029430D01*
X117284429Y-63021165D01*
X117308227Y-63015204D01*
X117332496Y-63011604D01*
X117357000Y-63010400D01*
X117867000Y-63010400D01*
X117891504Y-63011604D01*
G37*
G36*
X117891504Y-61761604D02*
G01*
X117915773Y-61765204D01*
X117939571Y-61771165D01*
X117962671Y-61779430D01*
X117984849Y-61789920D01*
X118005893Y-61802533D01*
X118025598Y-61817147D01*
X118043777Y-61833623D01*
X118060253Y-61851802D01*
X118074867Y-61871507D01*
X118087480Y-61892551D01*
X118097970Y-61914729D01*
X118106235Y-61937829D01*
X118112196Y-61961627D01*
X118115796Y-61985896D01*
X118117000Y-62010400D01*
X118117000Y-62520400D01*
X118115796Y-62544904D01*
X118112196Y-62569173D01*
X118106235Y-62592971D01*
X118097970Y-62616071D01*
X118087480Y-62638249D01*
X118074867Y-62659293D01*
X118060253Y-62678998D01*
X118043777Y-62697177D01*
X118025598Y-62713653D01*
X118005893Y-62728267D01*
X117984849Y-62740880D01*
X117962671Y-62751370D01*
X117939571Y-62759635D01*
X117915773Y-62765596D01*
X117891504Y-62769196D01*
X117867000Y-62770400D01*
X117357000Y-62770400D01*
X117332496Y-62769196D01*
X117308227Y-62765596D01*
X117284429Y-62759635D01*
X117261329Y-62751370D01*
X117239151Y-62740880D01*
X117218107Y-62728267D01*
X117198402Y-62713653D01*
X117180223Y-62697177D01*
X117163747Y-62678998D01*
X117149133Y-62659293D01*
X117136520Y-62638249D01*
X117126030Y-62616071D01*
X117117765Y-62592971D01*
X117111804Y-62569173D01*
X117108204Y-62544904D01*
X117107000Y-62520400D01*
X117107000Y-62010400D01*
X117108204Y-61985896D01*
X117111804Y-61961627D01*
X117117765Y-61937829D01*
X117126030Y-61914729D01*
X117136520Y-61892551D01*
X117149133Y-61871507D01*
X117163747Y-61851802D01*
X117180223Y-61833623D01*
X117198402Y-61817147D01*
X117218107Y-61802533D01*
X117239151Y-61789920D01*
X117261329Y-61779430D01*
X117284429Y-61771165D01*
X117308227Y-61765204D01*
X117332496Y-61761604D01*
X117357000Y-61760400D01*
X117867000Y-61760400D01*
X117891504Y-61761604D01*
G37*
G36*
X118881158Y-57579610D02*
G01*
X118895476Y-57581734D01*
X118909517Y-57585251D01*
X118923146Y-57590128D01*
X118936231Y-57596317D01*
X118948647Y-57603758D01*
X118960273Y-57612381D01*
X118970998Y-57622102D01*
X118980719Y-57632827D01*
X118989342Y-57644453D01*
X118996783Y-57656869D01*
X119002972Y-57669954D01*
X119007849Y-57683583D01*
X119011366Y-57697624D01*
X119013490Y-57711942D01*
X119014200Y-57726400D01*
X119014200Y-58021400D01*
X119013490Y-58035858D01*
X119011366Y-58050176D01*
X119007849Y-58064217D01*
X119002972Y-58077846D01*
X118996783Y-58090931D01*
X118989342Y-58103347D01*
X118980719Y-58114973D01*
X118970998Y-58125698D01*
X118960273Y-58135419D01*
X118948647Y-58144042D01*
X118936231Y-58151483D01*
X118923146Y-58157672D01*
X118909517Y-58162549D01*
X118895476Y-58166066D01*
X118881158Y-58168190D01*
X118866700Y-58168900D01*
X118521700Y-58168900D01*
X118507242Y-58168190D01*
X118492924Y-58166066D01*
X118478883Y-58162549D01*
X118465254Y-58157672D01*
X118452169Y-58151483D01*
X118439753Y-58144042D01*
X118428127Y-58135419D01*
X118417402Y-58125698D01*
X118407681Y-58114973D01*
X118399058Y-58103347D01*
X118391617Y-58090931D01*
X118385428Y-58077846D01*
X118380551Y-58064217D01*
X118377034Y-58050176D01*
X118374910Y-58035858D01*
X118374200Y-58021400D01*
X118374200Y-57726400D01*
X118374910Y-57711942D01*
X118377034Y-57697624D01*
X118380551Y-57683583D01*
X118385428Y-57669954D01*
X118391617Y-57656869D01*
X118399058Y-57644453D01*
X118407681Y-57632827D01*
X118417402Y-57622102D01*
X118428127Y-57612381D01*
X118439753Y-57603758D01*
X118452169Y-57596317D01*
X118465254Y-57590128D01*
X118478883Y-57585251D01*
X118492924Y-57581734D01*
X118507242Y-57579610D01*
X118521700Y-57578900D01*
X118866700Y-57578900D01*
X118881158Y-57579610D01*
G37*
G36*
X118881158Y-58549610D02*
G01*
X118895476Y-58551734D01*
X118909517Y-58555251D01*
X118923146Y-58560128D01*
X118936231Y-58566317D01*
X118948647Y-58573758D01*
X118960273Y-58582381D01*
X118970998Y-58592102D01*
X118980719Y-58602827D01*
X118989342Y-58614453D01*
X118996783Y-58626869D01*
X119002972Y-58639954D01*
X119007849Y-58653583D01*
X119011366Y-58667624D01*
X119013490Y-58681942D01*
X119014200Y-58696400D01*
X119014200Y-58991400D01*
X119013490Y-59005858D01*
X119011366Y-59020176D01*
X119007849Y-59034217D01*
X119002972Y-59047846D01*
X118996783Y-59060931D01*
X118989342Y-59073347D01*
X118980719Y-59084973D01*
X118970998Y-59095698D01*
X118960273Y-59105419D01*
X118948647Y-59114042D01*
X118936231Y-59121483D01*
X118923146Y-59127672D01*
X118909517Y-59132549D01*
X118895476Y-59136066D01*
X118881158Y-59138190D01*
X118866700Y-59138900D01*
X118521700Y-59138900D01*
X118507242Y-59138190D01*
X118492924Y-59136066D01*
X118478883Y-59132549D01*
X118465254Y-59127672D01*
X118452169Y-59121483D01*
X118439753Y-59114042D01*
X118428127Y-59105419D01*
X118417402Y-59095698D01*
X118407681Y-59084973D01*
X118399058Y-59073347D01*
X118391617Y-59060931D01*
X118385428Y-59047846D01*
X118380551Y-59034217D01*
X118377034Y-59020176D01*
X118374910Y-59005858D01*
X118374200Y-58991400D01*
X118374200Y-58696400D01*
X118374910Y-58681942D01*
X118377034Y-58667624D01*
X118380551Y-58653583D01*
X118385428Y-58639954D01*
X118391617Y-58626869D01*
X118399058Y-58614453D01*
X118407681Y-58602827D01*
X118417402Y-58592102D01*
X118428127Y-58582381D01*
X118439753Y-58573758D01*
X118452169Y-58566317D01*
X118465254Y-58560128D01*
X118478883Y-58555251D01*
X118492924Y-58551734D01*
X118507242Y-58549610D01*
X118521700Y-58548900D01*
X118866700Y-58548900D01*
X118881158Y-58549610D01*
G37*
D12*
X118551600Y-69062800D03*
X120751600Y-69062800D03*
X120751600Y-70662800D03*
X118551600Y-70662800D03*
D11*
G36*
X123504358Y-61351910D02*
G01*
X123518676Y-61354034D01*
X123532717Y-61357551D01*
X123546346Y-61362428D01*
X123559431Y-61368617D01*
X123571847Y-61376058D01*
X123583473Y-61384681D01*
X123594198Y-61394402D01*
X123603919Y-61405127D01*
X123612542Y-61416753D01*
X123619983Y-61429169D01*
X123626172Y-61442254D01*
X123631049Y-61455883D01*
X123634566Y-61469924D01*
X123636690Y-61484242D01*
X123637400Y-61498700D01*
X123637400Y-61843700D01*
X123636690Y-61858158D01*
X123634566Y-61872476D01*
X123631049Y-61886517D01*
X123626172Y-61900146D01*
X123619983Y-61913231D01*
X123612542Y-61925647D01*
X123603919Y-61937273D01*
X123594198Y-61947998D01*
X123583473Y-61957719D01*
X123571847Y-61966342D01*
X123559431Y-61973783D01*
X123546346Y-61979972D01*
X123532717Y-61984849D01*
X123518676Y-61988366D01*
X123504358Y-61990490D01*
X123489900Y-61991200D01*
X123194900Y-61991200D01*
X123180442Y-61990490D01*
X123166124Y-61988366D01*
X123152083Y-61984849D01*
X123138454Y-61979972D01*
X123125369Y-61973783D01*
X123112953Y-61966342D01*
X123101327Y-61957719D01*
X123090602Y-61947998D01*
X123080881Y-61937273D01*
X123072258Y-61925647D01*
X123064817Y-61913231D01*
X123058628Y-61900146D01*
X123053751Y-61886517D01*
X123050234Y-61872476D01*
X123048110Y-61858158D01*
X123047400Y-61843700D01*
X123047400Y-61498700D01*
X123048110Y-61484242D01*
X123050234Y-61469924D01*
X123053751Y-61455883D01*
X123058628Y-61442254D01*
X123064817Y-61429169D01*
X123072258Y-61416753D01*
X123080881Y-61405127D01*
X123090602Y-61394402D01*
X123101327Y-61384681D01*
X123112953Y-61376058D01*
X123125369Y-61368617D01*
X123138454Y-61362428D01*
X123152083Y-61357551D01*
X123166124Y-61354034D01*
X123180442Y-61351910D01*
X123194900Y-61351200D01*
X123489900Y-61351200D01*
X123504358Y-61351910D01*
G37*
G36*
X124474358Y-61351910D02*
G01*
X124488676Y-61354034D01*
X124502717Y-61357551D01*
X124516346Y-61362428D01*
X124529431Y-61368617D01*
X124541847Y-61376058D01*
X124553473Y-61384681D01*
X124564198Y-61394402D01*
X124573919Y-61405127D01*
X124582542Y-61416753D01*
X124589983Y-61429169D01*
X124596172Y-61442254D01*
X124601049Y-61455883D01*
X124604566Y-61469924D01*
X124606690Y-61484242D01*
X124607400Y-61498700D01*
X124607400Y-61843700D01*
X124606690Y-61858158D01*
X124604566Y-61872476D01*
X124601049Y-61886517D01*
X124596172Y-61900146D01*
X124589983Y-61913231D01*
X124582542Y-61925647D01*
X124573919Y-61937273D01*
X124564198Y-61947998D01*
X124553473Y-61957719D01*
X124541847Y-61966342D01*
X124529431Y-61973783D01*
X124516346Y-61979972D01*
X124502717Y-61984849D01*
X124488676Y-61988366D01*
X124474358Y-61990490D01*
X124459900Y-61991200D01*
X124164900Y-61991200D01*
X124150442Y-61990490D01*
X124136124Y-61988366D01*
X124122083Y-61984849D01*
X124108454Y-61979972D01*
X124095369Y-61973783D01*
X124082953Y-61966342D01*
X124071327Y-61957719D01*
X124060602Y-61947998D01*
X124050881Y-61937273D01*
X124042258Y-61925647D01*
X124034817Y-61913231D01*
X124028628Y-61900146D01*
X124023751Y-61886517D01*
X124020234Y-61872476D01*
X124018110Y-61858158D01*
X124017400Y-61843700D01*
X124017400Y-61498700D01*
X124018110Y-61484242D01*
X124020234Y-61469924D01*
X124023751Y-61455883D01*
X124028628Y-61442254D01*
X124034817Y-61429169D01*
X124042258Y-61416753D01*
X124050881Y-61405127D01*
X124060602Y-61394402D01*
X124071327Y-61384681D01*
X124082953Y-61376058D01*
X124095369Y-61368617D01*
X124108454Y-61362428D01*
X124122083Y-61357551D01*
X124136124Y-61354034D01*
X124150442Y-61351910D01*
X124164900Y-61351200D01*
X124459900Y-61351200D01*
X124474358Y-61351910D01*
G37*
G36*
X121573958Y-62342510D02*
G01*
X121588276Y-62344634D01*
X121602317Y-62348151D01*
X121615946Y-62353028D01*
X121629031Y-62359217D01*
X121641447Y-62366658D01*
X121653073Y-62375281D01*
X121663798Y-62385002D01*
X121673519Y-62395727D01*
X121682142Y-62407353D01*
X121689583Y-62419769D01*
X121695772Y-62432854D01*
X121700649Y-62446483D01*
X121704166Y-62460524D01*
X121706290Y-62474842D01*
X121707000Y-62489300D01*
X121707000Y-62834300D01*
X121706290Y-62848758D01*
X121704166Y-62863076D01*
X121700649Y-62877117D01*
X121695772Y-62890746D01*
X121689583Y-62903831D01*
X121682142Y-62916247D01*
X121673519Y-62927873D01*
X121663798Y-62938598D01*
X121653073Y-62948319D01*
X121641447Y-62956942D01*
X121629031Y-62964383D01*
X121615946Y-62970572D01*
X121602317Y-62975449D01*
X121588276Y-62978966D01*
X121573958Y-62981090D01*
X121559500Y-62981800D01*
X121264500Y-62981800D01*
X121250042Y-62981090D01*
X121235724Y-62978966D01*
X121221683Y-62975449D01*
X121208054Y-62970572D01*
X121194969Y-62964383D01*
X121182553Y-62956942D01*
X121170927Y-62948319D01*
X121160202Y-62938598D01*
X121150481Y-62927873D01*
X121141858Y-62916247D01*
X121134417Y-62903831D01*
X121128228Y-62890746D01*
X121123351Y-62877117D01*
X121119834Y-62863076D01*
X121117710Y-62848758D01*
X121117000Y-62834300D01*
X121117000Y-62489300D01*
X121117710Y-62474842D01*
X121119834Y-62460524D01*
X121123351Y-62446483D01*
X121128228Y-62432854D01*
X121134417Y-62419769D01*
X121141858Y-62407353D01*
X121150481Y-62395727D01*
X121160202Y-62385002D01*
X121170927Y-62375281D01*
X121182553Y-62366658D01*
X121194969Y-62359217D01*
X121208054Y-62353028D01*
X121221683Y-62348151D01*
X121235724Y-62344634D01*
X121250042Y-62342510D01*
X121264500Y-62341800D01*
X121559500Y-62341800D01*
X121573958Y-62342510D01*
G37*
G36*
X122543958Y-62342510D02*
G01*
X122558276Y-62344634D01*
X122572317Y-62348151D01*
X122585946Y-62353028D01*
X122599031Y-62359217D01*
X122611447Y-62366658D01*
X122623073Y-62375281D01*
X122633798Y-62385002D01*
X122643519Y-62395727D01*
X122652142Y-62407353D01*
X122659583Y-62419769D01*
X122665772Y-62432854D01*
X122670649Y-62446483D01*
X122674166Y-62460524D01*
X122676290Y-62474842D01*
X122677000Y-62489300D01*
X122677000Y-62834300D01*
X122676290Y-62848758D01*
X122674166Y-62863076D01*
X122670649Y-62877117D01*
X122665772Y-62890746D01*
X122659583Y-62903831D01*
X122652142Y-62916247D01*
X122643519Y-62927873D01*
X122633798Y-62938598D01*
X122623073Y-62948319D01*
X122611447Y-62956942D01*
X122599031Y-62964383D01*
X122585946Y-62970572D01*
X122572317Y-62975449D01*
X122558276Y-62978966D01*
X122543958Y-62981090D01*
X122529500Y-62981800D01*
X122234500Y-62981800D01*
X122220042Y-62981090D01*
X122205724Y-62978966D01*
X122191683Y-62975449D01*
X122178054Y-62970572D01*
X122164969Y-62964383D01*
X122152553Y-62956942D01*
X122140927Y-62948319D01*
X122130202Y-62938598D01*
X122120481Y-62927873D01*
X122111858Y-62916247D01*
X122104417Y-62903831D01*
X122098228Y-62890746D01*
X122093351Y-62877117D01*
X122089834Y-62863076D01*
X122087710Y-62848758D01*
X122087000Y-62834300D01*
X122087000Y-62489300D01*
X122087710Y-62474842D01*
X122089834Y-62460524D01*
X122093351Y-62446483D01*
X122098228Y-62432854D01*
X122104417Y-62419769D01*
X122111858Y-62407353D01*
X122120481Y-62395727D01*
X122130202Y-62385002D01*
X122140927Y-62375281D01*
X122152553Y-62366658D01*
X122164969Y-62359217D01*
X122178054Y-62353028D01*
X122191683Y-62348151D01*
X122205724Y-62344634D01*
X122220042Y-62342510D01*
X122234500Y-62341800D01*
X122529500Y-62341800D01*
X122543958Y-62342510D01*
G37*
G36*
X126526558Y-63408910D02*
G01*
X126540876Y-63411034D01*
X126554917Y-63414551D01*
X126568546Y-63419428D01*
X126581631Y-63425617D01*
X126594047Y-63433058D01*
X126605673Y-63441681D01*
X126616398Y-63451402D01*
X126626119Y-63462127D01*
X126634742Y-63473753D01*
X126642183Y-63486169D01*
X126648372Y-63499254D01*
X126653249Y-63512883D01*
X126656766Y-63526924D01*
X126658890Y-63541242D01*
X126659600Y-63555700D01*
X126659600Y-63850700D01*
X126658890Y-63865158D01*
X126656766Y-63879476D01*
X126653249Y-63893517D01*
X126648372Y-63907146D01*
X126642183Y-63920231D01*
X126634742Y-63932647D01*
X126626119Y-63944273D01*
X126616398Y-63954998D01*
X126605673Y-63964719D01*
X126594047Y-63973342D01*
X126581631Y-63980783D01*
X126568546Y-63986972D01*
X126554917Y-63991849D01*
X126540876Y-63995366D01*
X126526558Y-63997490D01*
X126512100Y-63998200D01*
X126167100Y-63998200D01*
X126152642Y-63997490D01*
X126138324Y-63995366D01*
X126124283Y-63991849D01*
X126110654Y-63986972D01*
X126097569Y-63980783D01*
X126085153Y-63973342D01*
X126073527Y-63964719D01*
X126062802Y-63954998D01*
X126053081Y-63944273D01*
X126044458Y-63932647D01*
X126037017Y-63920231D01*
X126030828Y-63907146D01*
X126025951Y-63893517D01*
X126022434Y-63879476D01*
X126020310Y-63865158D01*
X126019600Y-63850700D01*
X126019600Y-63555700D01*
X126020310Y-63541242D01*
X126022434Y-63526924D01*
X126025951Y-63512883D01*
X126030828Y-63499254D01*
X126037017Y-63486169D01*
X126044458Y-63473753D01*
X126053081Y-63462127D01*
X126062802Y-63451402D01*
X126073527Y-63441681D01*
X126085153Y-63433058D01*
X126097569Y-63425617D01*
X126110654Y-63419428D01*
X126124283Y-63414551D01*
X126138324Y-63411034D01*
X126152642Y-63408910D01*
X126167100Y-63408200D01*
X126512100Y-63408200D01*
X126526558Y-63408910D01*
G37*
G36*
X126526558Y-64378910D02*
G01*
X126540876Y-64381034D01*
X126554917Y-64384551D01*
X126568546Y-64389428D01*
X126581631Y-64395617D01*
X126594047Y-64403058D01*
X126605673Y-64411681D01*
X126616398Y-64421402D01*
X126626119Y-64432127D01*
X126634742Y-64443753D01*
X126642183Y-64456169D01*
X126648372Y-64469254D01*
X126653249Y-64482883D01*
X126656766Y-64496924D01*
X126658890Y-64511242D01*
X126659600Y-64525700D01*
X126659600Y-64820700D01*
X126658890Y-64835158D01*
X126656766Y-64849476D01*
X126653249Y-64863517D01*
X126648372Y-64877146D01*
X126642183Y-64890231D01*
X126634742Y-64902647D01*
X126626119Y-64914273D01*
X126616398Y-64924998D01*
X126605673Y-64934719D01*
X126594047Y-64943342D01*
X126581631Y-64950783D01*
X126568546Y-64956972D01*
X126554917Y-64961849D01*
X126540876Y-64965366D01*
X126526558Y-64967490D01*
X126512100Y-64968200D01*
X126167100Y-64968200D01*
X126152642Y-64967490D01*
X126138324Y-64965366D01*
X126124283Y-64961849D01*
X126110654Y-64956972D01*
X126097569Y-64950783D01*
X126085153Y-64943342D01*
X126073527Y-64934719D01*
X126062802Y-64924998D01*
X126053081Y-64914273D01*
X126044458Y-64902647D01*
X126037017Y-64890231D01*
X126030828Y-64877146D01*
X126025951Y-64863517D01*
X126022434Y-64849476D01*
X126020310Y-64835158D01*
X126019600Y-64820700D01*
X126019600Y-64525700D01*
X126020310Y-64511242D01*
X126022434Y-64496924D01*
X126025951Y-64482883D01*
X126030828Y-64469254D01*
X126037017Y-64456169D01*
X126044458Y-64443753D01*
X126053081Y-64432127D01*
X126062802Y-64421402D01*
X126073527Y-64411681D01*
X126085153Y-64403058D01*
X126097569Y-64395617D01*
X126110654Y-64389428D01*
X126124283Y-64384551D01*
X126138324Y-64381034D01*
X126152642Y-64378910D01*
X126167100Y-64378200D01*
X126512100Y-64378200D01*
X126526558Y-64378910D01*
G37*
G36*
X125561758Y-62367910D02*
G01*
X125576076Y-62370034D01*
X125590117Y-62373551D01*
X125603746Y-62378428D01*
X125616831Y-62384617D01*
X125629247Y-62392058D01*
X125640873Y-62400681D01*
X125651598Y-62410402D01*
X125661319Y-62421127D01*
X125669942Y-62432753D01*
X125677383Y-62445169D01*
X125683572Y-62458254D01*
X125688449Y-62471883D01*
X125691966Y-62485924D01*
X125694090Y-62500242D01*
X125694800Y-62514700D01*
X125694800Y-62859700D01*
X125694090Y-62874158D01*
X125691966Y-62888476D01*
X125688449Y-62902517D01*
X125683572Y-62916146D01*
X125677383Y-62929231D01*
X125669942Y-62941647D01*
X125661319Y-62953273D01*
X125651598Y-62963998D01*
X125640873Y-62973719D01*
X125629247Y-62982342D01*
X125616831Y-62989783D01*
X125603746Y-62995972D01*
X125590117Y-63000849D01*
X125576076Y-63004366D01*
X125561758Y-63006490D01*
X125547300Y-63007200D01*
X125252300Y-63007200D01*
X125237842Y-63006490D01*
X125223524Y-63004366D01*
X125209483Y-63000849D01*
X125195854Y-62995972D01*
X125182769Y-62989783D01*
X125170353Y-62982342D01*
X125158727Y-62973719D01*
X125148002Y-62963998D01*
X125138281Y-62953273D01*
X125129658Y-62941647D01*
X125122217Y-62929231D01*
X125116028Y-62916146D01*
X125111151Y-62902517D01*
X125107634Y-62888476D01*
X125105510Y-62874158D01*
X125104800Y-62859700D01*
X125104800Y-62514700D01*
X125105510Y-62500242D01*
X125107634Y-62485924D01*
X125111151Y-62471883D01*
X125116028Y-62458254D01*
X125122217Y-62445169D01*
X125129658Y-62432753D01*
X125138281Y-62421127D01*
X125148002Y-62410402D01*
X125158727Y-62400681D01*
X125170353Y-62392058D01*
X125182769Y-62384617D01*
X125195854Y-62378428D01*
X125209483Y-62373551D01*
X125223524Y-62370034D01*
X125237842Y-62367910D01*
X125252300Y-62367200D01*
X125547300Y-62367200D01*
X125561758Y-62367910D01*
G37*
G36*
X126531758Y-62367910D02*
G01*
X126546076Y-62370034D01*
X126560117Y-62373551D01*
X126573746Y-62378428D01*
X126586831Y-62384617D01*
X126599247Y-62392058D01*
X126610873Y-62400681D01*
X126621598Y-62410402D01*
X126631319Y-62421127D01*
X126639942Y-62432753D01*
X126647383Y-62445169D01*
X126653572Y-62458254D01*
X126658449Y-62471883D01*
X126661966Y-62485924D01*
X126664090Y-62500242D01*
X126664800Y-62514700D01*
X126664800Y-62859700D01*
X126664090Y-62874158D01*
X126661966Y-62888476D01*
X126658449Y-62902517D01*
X126653572Y-62916146D01*
X126647383Y-62929231D01*
X126639942Y-62941647D01*
X126631319Y-62953273D01*
X126621598Y-62963998D01*
X126610873Y-62973719D01*
X126599247Y-62982342D01*
X126586831Y-62989783D01*
X126573746Y-62995972D01*
X126560117Y-63000849D01*
X126546076Y-63004366D01*
X126531758Y-63006490D01*
X126517300Y-63007200D01*
X126222300Y-63007200D01*
X126207842Y-63006490D01*
X126193524Y-63004366D01*
X126179483Y-63000849D01*
X126165854Y-62995972D01*
X126152769Y-62989783D01*
X126140353Y-62982342D01*
X126128727Y-62973719D01*
X126118002Y-62963998D01*
X126108281Y-62953273D01*
X126099658Y-62941647D01*
X126092217Y-62929231D01*
X126086028Y-62916146D01*
X126081151Y-62902517D01*
X126077634Y-62888476D01*
X126075510Y-62874158D01*
X126074800Y-62859700D01*
X126074800Y-62514700D01*
X126075510Y-62500242D01*
X126077634Y-62485924D01*
X126081151Y-62471883D01*
X126086028Y-62458254D01*
X126092217Y-62445169D01*
X126099658Y-62432753D01*
X126108281Y-62421127D01*
X126118002Y-62410402D01*
X126128727Y-62400681D01*
X126140353Y-62392058D01*
X126152769Y-62384617D01*
X126165854Y-62378428D01*
X126179483Y-62373551D01*
X126193524Y-62370034D01*
X126207842Y-62367910D01*
X126222300Y-62367200D01*
X126517300Y-62367200D01*
X126531758Y-62367910D01*
G37*
G36*
X123529358Y-65293310D02*
G01*
X123543676Y-65295434D01*
X123557717Y-65298951D01*
X123571346Y-65303828D01*
X123584431Y-65310017D01*
X123596847Y-65317458D01*
X123608473Y-65326081D01*
X123619198Y-65335802D01*
X123628919Y-65346527D01*
X123637542Y-65358153D01*
X123644983Y-65370569D01*
X123651172Y-65383654D01*
X123656049Y-65397283D01*
X123659566Y-65411324D01*
X123661690Y-65425642D01*
X123662400Y-65440100D01*
X123662400Y-65735100D01*
X123661690Y-65749558D01*
X123659566Y-65763876D01*
X123656049Y-65777917D01*
X123651172Y-65791546D01*
X123644983Y-65804631D01*
X123637542Y-65817047D01*
X123628919Y-65828673D01*
X123619198Y-65839398D01*
X123608473Y-65849119D01*
X123596847Y-65857742D01*
X123584431Y-65865183D01*
X123571346Y-65871372D01*
X123557717Y-65876249D01*
X123543676Y-65879766D01*
X123529358Y-65881890D01*
X123514900Y-65882600D01*
X123169900Y-65882600D01*
X123155442Y-65881890D01*
X123141124Y-65879766D01*
X123127083Y-65876249D01*
X123113454Y-65871372D01*
X123100369Y-65865183D01*
X123087953Y-65857742D01*
X123076327Y-65849119D01*
X123065602Y-65839398D01*
X123055881Y-65828673D01*
X123047258Y-65817047D01*
X123039817Y-65804631D01*
X123033628Y-65791546D01*
X123028751Y-65777917D01*
X123025234Y-65763876D01*
X123023110Y-65749558D01*
X123022400Y-65735100D01*
X123022400Y-65440100D01*
X123023110Y-65425642D01*
X123025234Y-65411324D01*
X123028751Y-65397283D01*
X123033628Y-65383654D01*
X123039817Y-65370569D01*
X123047258Y-65358153D01*
X123055881Y-65346527D01*
X123065602Y-65335802D01*
X123076327Y-65326081D01*
X123087953Y-65317458D01*
X123100369Y-65310017D01*
X123113454Y-65303828D01*
X123127083Y-65298951D01*
X123141124Y-65295434D01*
X123155442Y-65293310D01*
X123169900Y-65292600D01*
X123514900Y-65292600D01*
X123529358Y-65293310D01*
G37*
G36*
X123529358Y-64323310D02*
G01*
X123543676Y-64325434D01*
X123557717Y-64328951D01*
X123571346Y-64333828D01*
X123584431Y-64340017D01*
X123596847Y-64347458D01*
X123608473Y-64356081D01*
X123619198Y-64365802D01*
X123628919Y-64376527D01*
X123637542Y-64388153D01*
X123644983Y-64400569D01*
X123651172Y-64413654D01*
X123656049Y-64427283D01*
X123659566Y-64441324D01*
X123661690Y-64455642D01*
X123662400Y-64470100D01*
X123662400Y-64765100D01*
X123661690Y-64779558D01*
X123659566Y-64793876D01*
X123656049Y-64807917D01*
X123651172Y-64821546D01*
X123644983Y-64834631D01*
X123637542Y-64847047D01*
X123628919Y-64858673D01*
X123619198Y-64869398D01*
X123608473Y-64879119D01*
X123596847Y-64887742D01*
X123584431Y-64895183D01*
X123571346Y-64901372D01*
X123557717Y-64906249D01*
X123543676Y-64909766D01*
X123529358Y-64911890D01*
X123514900Y-64912600D01*
X123169900Y-64912600D01*
X123155442Y-64911890D01*
X123141124Y-64909766D01*
X123127083Y-64906249D01*
X123113454Y-64901372D01*
X123100369Y-64895183D01*
X123087953Y-64887742D01*
X123076327Y-64879119D01*
X123065602Y-64869398D01*
X123055881Y-64858673D01*
X123047258Y-64847047D01*
X123039817Y-64834631D01*
X123033628Y-64821546D01*
X123028751Y-64807917D01*
X123025234Y-64793876D01*
X123023110Y-64779558D01*
X123022400Y-64765100D01*
X123022400Y-64470100D01*
X123023110Y-64455642D01*
X123025234Y-64441324D01*
X123028751Y-64427283D01*
X123033628Y-64413654D01*
X123039817Y-64400569D01*
X123047258Y-64388153D01*
X123055881Y-64376527D01*
X123065602Y-64365802D01*
X123076327Y-64356081D01*
X123087953Y-64347458D01*
X123100369Y-64340017D01*
X123113454Y-64333828D01*
X123127083Y-64328951D01*
X123141124Y-64325434D01*
X123155442Y-64323310D01*
X123169900Y-64322600D01*
X123514900Y-64322600D01*
X123529358Y-64323310D01*
G37*
G36*
X121573958Y-63333110D02*
G01*
X121588276Y-63335234D01*
X121602317Y-63338751D01*
X121615946Y-63343628D01*
X121629031Y-63349817D01*
X121641447Y-63357258D01*
X121653073Y-63365881D01*
X121663798Y-63375602D01*
X121673519Y-63386327D01*
X121682142Y-63397953D01*
X121689583Y-63410369D01*
X121695772Y-63423454D01*
X121700649Y-63437083D01*
X121704166Y-63451124D01*
X121706290Y-63465442D01*
X121707000Y-63479900D01*
X121707000Y-63824900D01*
X121706290Y-63839358D01*
X121704166Y-63853676D01*
X121700649Y-63867717D01*
X121695772Y-63881346D01*
X121689583Y-63894431D01*
X121682142Y-63906847D01*
X121673519Y-63918473D01*
X121663798Y-63929198D01*
X121653073Y-63938919D01*
X121641447Y-63947542D01*
X121629031Y-63954983D01*
X121615946Y-63961172D01*
X121602317Y-63966049D01*
X121588276Y-63969566D01*
X121573958Y-63971690D01*
X121559500Y-63972400D01*
X121264500Y-63972400D01*
X121250042Y-63971690D01*
X121235724Y-63969566D01*
X121221683Y-63966049D01*
X121208054Y-63961172D01*
X121194969Y-63954983D01*
X121182553Y-63947542D01*
X121170927Y-63938919D01*
X121160202Y-63929198D01*
X121150481Y-63918473D01*
X121141858Y-63906847D01*
X121134417Y-63894431D01*
X121128228Y-63881346D01*
X121123351Y-63867717D01*
X121119834Y-63853676D01*
X121117710Y-63839358D01*
X121117000Y-63824900D01*
X121117000Y-63479900D01*
X121117710Y-63465442D01*
X121119834Y-63451124D01*
X121123351Y-63437083D01*
X121128228Y-63423454D01*
X121134417Y-63410369D01*
X121141858Y-63397953D01*
X121150481Y-63386327D01*
X121160202Y-63375602D01*
X121170927Y-63365881D01*
X121182553Y-63357258D01*
X121194969Y-63349817D01*
X121208054Y-63343628D01*
X121221683Y-63338751D01*
X121235724Y-63335234D01*
X121250042Y-63333110D01*
X121264500Y-63332400D01*
X121559500Y-63332400D01*
X121573958Y-63333110D01*
G37*
G36*
X122543958Y-63333110D02*
G01*
X122558276Y-63335234D01*
X122572317Y-63338751D01*
X122585946Y-63343628D01*
X122599031Y-63349817D01*
X122611447Y-63357258D01*
X122623073Y-63365881D01*
X122633798Y-63375602D01*
X122643519Y-63386327D01*
X122652142Y-63397953D01*
X122659583Y-63410369D01*
X122665772Y-63423454D01*
X122670649Y-63437083D01*
X122674166Y-63451124D01*
X122676290Y-63465442D01*
X122677000Y-63479900D01*
X122677000Y-63824900D01*
X122676290Y-63839358D01*
X122674166Y-63853676D01*
X122670649Y-63867717D01*
X122665772Y-63881346D01*
X122659583Y-63894431D01*
X122652142Y-63906847D01*
X122643519Y-63918473D01*
X122633798Y-63929198D01*
X122623073Y-63938919D01*
X122611447Y-63947542D01*
X122599031Y-63954983D01*
X122585946Y-63961172D01*
X122572317Y-63966049D01*
X122558276Y-63969566D01*
X122543958Y-63971690D01*
X122529500Y-63972400D01*
X122234500Y-63972400D01*
X122220042Y-63971690D01*
X122205724Y-63969566D01*
X122191683Y-63966049D01*
X122178054Y-63961172D01*
X122164969Y-63954983D01*
X122152553Y-63947542D01*
X122140927Y-63938919D01*
X122130202Y-63929198D01*
X122120481Y-63918473D01*
X122111858Y-63906847D01*
X122104417Y-63894431D01*
X122098228Y-63881346D01*
X122093351Y-63867717D01*
X122089834Y-63853676D01*
X122087710Y-63839358D01*
X122087000Y-63824900D01*
X122087000Y-63479900D01*
X122087710Y-63465442D01*
X122089834Y-63451124D01*
X122093351Y-63437083D01*
X122098228Y-63423454D01*
X122104417Y-63410369D01*
X122111858Y-63397953D01*
X122120481Y-63386327D01*
X122130202Y-63375602D01*
X122140927Y-63365881D01*
X122152553Y-63357258D01*
X122164969Y-63349817D01*
X122178054Y-63343628D01*
X122191683Y-63338751D01*
X122205724Y-63335234D01*
X122220042Y-63333110D01*
X122234500Y-63332400D01*
X122529500Y-63332400D01*
X122543958Y-63333110D01*
G37*
G36*
X120659158Y-57579610D02*
G01*
X120673476Y-57581734D01*
X120687517Y-57585251D01*
X120701146Y-57590128D01*
X120714231Y-57596317D01*
X120726647Y-57603758D01*
X120738273Y-57612381D01*
X120748998Y-57622102D01*
X120758719Y-57632827D01*
X120767342Y-57644453D01*
X120774783Y-57656869D01*
X120780972Y-57669954D01*
X120785849Y-57683583D01*
X120789366Y-57697624D01*
X120791490Y-57711942D01*
X120792200Y-57726400D01*
X120792200Y-58021400D01*
X120791490Y-58035858D01*
X120789366Y-58050176D01*
X120785849Y-58064217D01*
X120780972Y-58077846D01*
X120774783Y-58090931D01*
X120767342Y-58103347D01*
X120758719Y-58114973D01*
X120748998Y-58125698D01*
X120738273Y-58135419D01*
X120726647Y-58144042D01*
X120714231Y-58151483D01*
X120701146Y-58157672D01*
X120687517Y-58162549D01*
X120673476Y-58166066D01*
X120659158Y-58168190D01*
X120644700Y-58168900D01*
X120299700Y-58168900D01*
X120285242Y-58168190D01*
X120270924Y-58166066D01*
X120256883Y-58162549D01*
X120243254Y-58157672D01*
X120230169Y-58151483D01*
X120217753Y-58144042D01*
X120206127Y-58135419D01*
X120195402Y-58125698D01*
X120185681Y-58114973D01*
X120177058Y-58103347D01*
X120169617Y-58090931D01*
X120163428Y-58077846D01*
X120158551Y-58064217D01*
X120155034Y-58050176D01*
X120152910Y-58035858D01*
X120152200Y-58021400D01*
X120152200Y-57726400D01*
X120152910Y-57711942D01*
X120155034Y-57697624D01*
X120158551Y-57683583D01*
X120163428Y-57669954D01*
X120169617Y-57656869D01*
X120177058Y-57644453D01*
X120185681Y-57632827D01*
X120195402Y-57622102D01*
X120206127Y-57612381D01*
X120217753Y-57603758D01*
X120230169Y-57596317D01*
X120243254Y-57590128D01*
X120256883Y-57585251D01*
X120270924Y-57581734D01*
X120285242Y-57579610D01*
X120299700Y-57578900D01*
X120644700Y-57578900D01*
X120659158Y-57579610D01*
G37*
G36*
X120659158Y-58549610D02*
G01*
X120673476Y-58551734D01*
X120687517Y-58555251D01*
X120701146Y-58560128D01*
X120714231Y-58566317D01*
X120726647Y-58573758D01*
X120738273Y-58582381D01*
X120748998Y-58592102D01*
X120758719Y-58602827D01*
X120767342Y-58614453D01*
X120774783Y-58626869D01*
X120780972Y-58639954D01*
X120785849Y-58653583D01*
X120789366Y-58667624D01*
X120791490Y-58681942D01*
X120792200Y-58696400D01*
X120792200Y-58991400D01*
X120791490Y-59005858D01*
X120789366Y-59020176D01*
X120785849Y-59034217D01*
X120780972Y-59047846D01*
X120774783Y-59060931D01*
X120767342Y-59073347D01*
X120758719Y-59084973D01*
X120748998Y-59095698D01*
X120738273Y-59105419D01*
X120726647Y-59114042D01*
X120714231Y-59121483D01*
X120701146Y-59127672D01*
X120687517Y-59132549D01*
X120673476Y-59136066D01*
X120659158Y-59138190D01*
X120644700Y-59138900D01*
X120299700Y-59138900D01*
X120285242Y-59138190D01*
X120270924Y-59136066D01*
X120256883Y-59132549D01*
X120243254Y-59127672D01*
X120230169Y-59121483D01*
X120217753Y-59114042D01*
X120206127Y-59105419D01*
X120195402Y-59095698D01*
X120185681Y-59084973D01*
X120177058Y-59073347D01*
X120169617Y-59060931D01*
X120163428Y-59047846D01*
X120158551Y-59034217D01*
X120155034Y-59020176D01*
X120152910Y-59005858D01*
X120152200Y-58991400D01*
X120152200Y-58696400D01*
X120152910Y-58681942D01*
X120155034Y-58667624D01*
X120158551Y-58653583D01*
X120163428Y-58639954D01*
X120169617Y-58626869D01*
X120177058Y-58614453D01*
X120185681Y-58602827D01*
X120195402Y-58592102D01*
X120206127Y-58582381D01*
X120217753Y-58573758D01*
X120230169Y-58566317D01*
X120243254Y-58560128D01*
X120256883Y-58555251D01*
X120270924Y-58551734D01*
X120285242Y-58549610D01*
X120299700Y-58548900D01*
X120644700Y-58548900D01*
X120659158Y-58549610D01*
G37*
G36*
X119283158Y-67524110D02*
G01*
X119297476Y-67526234D01*
X119311517Y-67529751D01*
X119325146Y-67534628D01*
X119338231Y-67540817D01*
X119350647Y-67548258D01*
X119362273Y-67556881D01*
X119372998Y-67566602D01*
X119382719Y-67577327D01*
X119391342Y-67588953D01*
X119398783Y-67601369D01*
X119404972Y-67614454D01*
X119409849Y-67628083D01*
X119413366Y-67642124D01*
X119415490Y-67656442D01*
X119416200Y-67670900D01*
X119416200Y-68015900D01*
X119415490Y-68030358D01*
X119413366Y-68044676D01*
X119409849Y-68058717D01*
X119404972Y-68072346D01*
X119398783Y-68085431D01*
X119391342Y-68097847D01*
X119382719Y-68109473D01*
X119372998Y-68120198D01*
X119362273Y-68129919D01*
X119350647Y-68138542D01*
X119338231Y-68145983D01*
X119325146Y-68152172D01*
X119311517Y-68157049D01*
X119297476Y-68160566D01*
X119283158Y-68162690D01*
X119268700Y-68163400D01*
X118973700Y-68163400D01*
X118959242Y-68162690D01*
X118944924Y-68160566D01*
X118930883Y-68157049D01*
X118917254Y-68152172D01*
X118904169Y-68145983D01*
X118891753Y-68138542D01*
X118880127Y-68129919D01*
X118869402Y-68120198D01*
X118859681Y-68109473D01*
X118851058Y-68097847D01*
X118843617Y-68085431D01*
X118837428Y-68072346D01*
X118832551Y-68058717D01*
X118829034Y-68044676D01*
X118826910Y-68030358D01*
X118826200Y-68015900D01*
X118826200Y-67670900D01*
X118826910Y-67656442D01*
X118829034Y-67642124D01*
X118832551Y-67628083D01*
X118837428Y-67614454D01*
X118843617Y-67601369D01*
X118851058Y-67588953D01*
X118859681Y-67577327D01*
X118869402Y-67566602D01*
X118880127Y-67556881D01*
X118891753Y-67548258D01*
X118904169Y-67540817D01*
X118917254Y-67534628D01*
X118930883Y-67529751D01*
X118944924Y-67526234D01*
X118959242Y-67524110D01*
X118973700Y-67523400D01*
X119268700Y-67523400D01*
X119283158Y-67524110D01*
G37*
G36*
X120253158Y-67524110D02*
G01*
X120267476Y-67526234D01*
X120281517Y-67529751D01*
X120295146Y-67534628D01*
X120308231Y-67540817D01*
X120320647Y-67548258D01*
X120332273Y-67556881D01*
X120342998Y-67566602D01*
X120352719Y-67577327D01*
X120361342Y-67588953D01*
X120368783Y-67601369D01*
X120374972Y-67614454D01*
X120379849Y-67628083D01*
X120383366Y-67642124D01*
X120385490Y-67656442D01*
X120386200Y-67670900D01*
X120386200Y-68015900D01*
X120385490Y-68030358D01*
X120383366Y-68044676D01*
X120379849Y-68058717D01*
X120374972Y-68072346D01*
X120368783Y-68085431D01*
X120361342Y-68097847D01*
X120352719Y-68109473D01*
X120342998Y-68120198D01*
X120332273Y-68129919D01*
X120320647Y-68138542D01*
X120308231Y-68145983D01*
X120295146Y-68152172D01*
X120281517Y-68157049D01*
X120267476Y-68160566D01*
X120253158Y-68162690D01*
X120238700Y-68163400D01*
X119943700Y-68163400D01*
X119929242Y-68162690D01*
X119914924Y-68160566D01*
X119900883Y-68157049D01*
X119887254Y-68152172D01*
X119874169Y-68145983D01*
X119861753Y-68138542D01*
X119850127Y-68129919D01*
X119839402Y-68120198D01*
X119829681Y-68109473D01*
X119821058Y-68097847D01*
X119813617Y-68085431D01*
X119807428Y-68072346D01*
X119802551Y-68058717D01*
X119799034Y-68044676D01*
X119796910Y-68030358D01*
X119796200Y-68015900D01*
X119796200Y-67670900D01*
X119796910Y-67656442D01*
X119799034Y-67642124D01*
X119802551Y-67628083D01*
X119807428Y-67614454D01*
X119813617Y-67601369D01*
X119821058Y-67588953D01*
X119829681Y-67577327D01*
X119839402Y-67566602D01*
X119850127Y-67556881D01*
X119861753Y-67548258D01*
X119874169Y-67540817D01*
X119887254Y-67534628D01*
X119900883Y-67529751D01*
X119914924Y-67526234D01*
X119929242Y-67524110D01*
X119943700Y-67523400D01*
X120238700Y-67523400D01*
X120253158Y-67524110D01*
G37*
G36*
X121497758Y-65288910D02*
G01*
X121512076Y-65291034D01*
X121526117Y-65294551D01*
X121539746Y-65299428D01*
X121552831Y-65305617D01*
X121565247Y-65313058D01*
X121576873Y-65321681D01*
X121587598Y-65331402D01*
X121597319Y-65342127D01*
X121605942Y-65353753D01*
X121613383Y-65366169D01*
X121619572Y-65379254D01*
X121624449Y-65392883D01*
X121627966Y-65406924D01*
X121630090Y-65421242D01*
X121630800Y-65435700D01*
X121630800Y-65780700D01*
X121630090Y-65795158D01*
X121627966Y-65809476D01*
X121624449Y-65823517D01*
X121619572Y-65837146D01*
X121613383Y-65850231D01*
X121605942Y-65862647D01*
X121597319Y-65874273D01*
X121587598Y-65884998D01*
X121576873Y-65894719D01*
X121565247Y-65903342D01*
X121552831Y-65910783D01*
X121539746Y-65916972D01*
X121526117Y-65921849D01*
X121512076Y-65925366D01*
X121497758Y-65927490D01*
X121483300Y-65928200D01*
X121188300Y-65928200D01*
X121173842Y-65927490D01*
X121159524Y-65925366D01*
X121145483Y-65921849D01*
X121131854Y-65916972D01*
X121118769Y-65910783D01*
X121106353Y-65903342D01*
X121094727Y-65894719D01*
X121084002Y-65884998D01*
X121074281Y-65874273D01*
X121065658Y-65862647D01*
X121058217Y-65850231D01*
X121052028Y-65837146D01*
X121047151Y-65823517D01*
X121043634Y-65809476D01*
X121041510Y-65795158D01*
X121040800Y-65780700D01*
X121040800Y-65435700D01*
X121041510Y-65421242D01*
X121043634Y-65406924D01*
X121047151Y-65392883D01*
X121052028Y-65379254D01*
X121058217Y-65366169D01*
X121065658Y-65353753D01*
X121074281Y-65342127D01*
X121084002Y-65331402D01*
X121094727Y-65321681D01*
X121106353Y-65313058D01*
X121118769Y-65305617D01*
X121131854Y-65299428D01*
X121145483Y-65294551D01*
X121159524Y-65291034D01*
X121173842Y-65288910D01*
X121188300Y-65288200D01*
X121483300Y-65288200D01*
X121497758Y-65288910D01*
G37*
G36*
X122467758Y-65288910D02*
G01*
X122482076Y-65291034D01*
X122496117Y-65294551D01*
X122509746Y-65299428D01*
X122522831Y-65305617D01*
X122535247Y-65313058D01*
X122546873Y-65321681D01*
X122557598Y-65331402D01*
X122567319Y-65342127D01*
X122575942Y-65353753D01*
X122583383Y-65366169D01*
X122589572Y-65379254D01*
X122594449Y-65392883D01*
X122597966Y-65406924D01*
X122600090Y-65421242D01*
X122600800Y-65435700D01*
X122600800Y-65780700D01*
X122600090Y-65795158D01*
X122597966Y-65809476D01*
X122594449Y-65823517D01*
X122589572Y-65837146D01*
X122583383Y-65850231D01*
X122575942Y-65862647D01*
X122567319Y-65874273D01*
X122557598Y-65884998D01*
X122546873Y-65894719D01*
X122535247Y-65903342D01*
X122522831Y-65910783D01*
X122509746Y-65916972D01*
X122496117Y-65921849D01*
X122482076Y-65925366D01*
X122467758Y-65927490D01*
X122453300Y-65928200D01*
X122158300Y-65928200D01*
X122143842Y-65927490D01*
X122129524Y-65925366D01*
X122115483Y-65921849D01*
X122101854Y-65916972D01*
X122088769Y-65910783D01*
X122076353Y-65903342D01*
X122064727Y-65894719D01*
X122054002Y-65884998D01*
X122044281Y-65874273D01*
X122035658Y-65862647D01*
X122028217Y-65850231D01*
X122022028Y-65837146D01*
X122017151Y-65823517D01*
X122013634Y-65809476D01*
X122011510Y-65795158D01*
X122010800Y-65780700D01*
X122010800Y-65435700D01*
X122011510Y-65421242D01*
X122013634Y-65406924D01*
X122017151Y-65392883D01*
X122022028Y-65379254D01*
X122028217Y-65366169D01*
X122035658Y-65353753D01*
X122044281Y-65342127D01*
X122054002Y-65331402D01*
X122064727Y-65321681D01*
X122076353Y-65313058D01*
X122088769Y-65305617D01*
X122101854Y-65299428D01*
X122115483Y-65294551D01*
X122129524Y-65291034D01*
X122143842Y-65288910D01*
X122158300Y-65288200D01*
X122453300Y-65288200D01*
X122467758Y-65288910D01*
G37*
G36*
X123554758Y-60386310D02*
G01*
X123569076Y-60388434D01*
X123583117Y-60391951D01*
X123596746Y-60396828D01*
X123609831Y-60403017D01*
X123622247Y-60410458D01*
X123633873Y-60419081D01*
X123644598Y-60428802D01*
X123654319Y-60439527D01*
X123662942Y-60451153D01*
X123670383Y-60463569D01*
X123676572Y-60476654D01*
X123681449Y-60490283D01*
X123684966Y-60504324D01*
X123687090Y-60518642D01*
X123687800Y-60533100D01*
X123687800Y-60828100D01*
X123687090Y-60842558D01*
X123684966Y-60856876D01*
X123681449Y-60870917D01*
X123676572Y-60884546D01*
X123670383Y-60897631D01*
X123662942Y-60910047D01*
X123654319Y-60921673D01*
X123644598Y-60932398D01*
X123633873Y-60942119D01*
X123622247Y-60950742D01*
X123609831Y-60958183D01*
X123596746Y-60964372D01*
X123583117Y-60969249D01*
X123569076Y-60972766D01*
X123554758Y-60974890D01*
X123540300Y-60975600D01*
X123195300Y-60975600D01*
X123180842Y-60974890D01*
X123166524Y-60972766D01*
X123152483Y-60969249D01*
X123138854Y-60964372D01*
X123125769Y-60958183D01*
X123113353Y-60950742D01*
X123101727Y-60942119D01*
X123091002Y-60932398D01*
X123081281Y-60921673D01*
X123072658Y-60910047D01*
X123065217Y-60897631D01*
X123059028Y-60884546D01*
X123054151Y-60870917D01*
X123050634Y-60856876D01*
X123048510Y-60842558D01*
X123047800Y-60828100D01*
X123047800Y-60533100D01*
X123048510Y-60518642D01*
X123050634Y-60504324D01*
X123054151Y-60490283D01*
X123059028Y-60476654D01*
X123065217Y-60463569D01*
X123072658Y-60451153D01*
X123081281Y-60439527D01*
X123091002Y-60428802D01*
X123101727Y-60419081D01*
X123113353Y-60410458D01*
X123125769Y-60403017D01*
X123138854Y-60396828D01*
X123152483Y-60391951D01*
X123166524Y-60388434D01*
X123180842Y-60386310D01*
X123195300Y-60385600D01*
X123540300Y-60385600D01*
X123554758Y-60386310D01*
G37*
G36*
X123554758Y-59416310D02*
G01*
X123569076Y-59418434D01*
X123583117Y-59421951D01*
X123596746Y-59426828D01*
X123609831Y-59433017D01*
X123622247Y-59440458D01*
X123633873Y-59449081D01*
X123644598Y-59458802D01*
X123654319Y-59469527D01*
X123662942Y-59481153D01*
X123670383Y-59493569D01*
X123676572Y-59506654D01*
X123681449Y-59520283D01*
X123684966Y-59534324D01*
X123687090Y-59548642D01*
X123687800Y-59563100D01*
X123687800Y-59858100D01*
X123687090Y-59872558D01*
X123684966Y-59886876D01*
X123681449Y-59900917D01*
X123676572Y-59914546D01*
X123670383Y-59927631D01*
X123662942Y-59940047D01*
X123654319Y-59951673D01*
X123644598Y-59962398D01*
X123633873Y-59972119D01*
X123622247Y-59980742D01*
X123609831Y-59988183D01*
X123596746Y-59994372D01*
X123583117Y-59999249D01*
X123569076Y-60002766D01*
X123554758Y-60004890D01*
X123540300Y-60005600D01*
X123195300Y-60005600D01*
X123180842Y-60004890D01*
X123166524Y-60002766D01*
X123152483Y-59999249D01*
X123138854Y-59994372D01*
X123125769Y-59988183D01*
X123113353Y-59980742D01*
X123101727Y-59972119D01*
X123091002Y-59962398D01*
X123081281Y-59951673D01*
X123072658Y-59940047D01*
X123065217Y-59927631D01*
X123059028Y-59914546D01*
X123054151Y-59900917D01*
X123050634Y-59886876D01*
X123048510Y-59872558D01*
X123047800Y-59858100D01*
X123047800Y-59563100D01*
X123048510Y-59548642D01*
X123050634Y-59534324D01*
X123054151Y-59520283D01*
X123059028Y-59506654D01*
X123065217Y-59493569D01*
X123072658Y-59481153D01*
X123081281Y-59469527D01*
X123091002Y-59458802D01*
X123101727Y-59449081D01*
X123113353Y-59440458D01*
X123125769Y-59433017D01*
X123138854Y-59426828D01*
X123152483Y-59421951D01*
X123166524Y-59418434D01*
X123180842Y-59416310D01*
X123195300Y-59415600D01*
X123540300Y-59415600D01*
X123554758Y-59416310D01*
G37*
G36*
X123529358Y-66251310D02*
G01*
X123543676Y-66253434D01*
X123557717Y-66256951D01*
X123571346Y-66261828D01*
X123584431Y-66268017D01*
X123596847Y-66275458D01*
X123608473Y-66284081D01*
X123619198Y-66293802D01*
X123628919Y-66304527D01*
X123637542Y-66316153D01*
X123644983Y-66328569D01*
X123651172Y-66341654D01*
X123656049Y-66355283D01*
X123659566Y-66369324D01*
X123661690Y-66383642D01*
X123662400Y-66398100D01*
X123662400Y-66693100D01*
X123661690Y-66707558D01*
X123659566Y-66721876D01*
X123656049Y-66735917D01*
X123651172Y-66749546D01*
X123644983Y-66762631D01*
X123637542Y-66775047D01*
X123628919Y-66786673D01*
X123619198Y-66797398D01*
X123608473Y-66807119D01*
X123596847Y-66815742D01*
X123584431Y-66823183D01*
X123571346Y-66829372D01*
X123557717Y-66834249D01*
X123543676Y-66837766D01*
X123529358Y-66839890D01*
X123514900Y-66840600D01*
X123169900Y-66840600D01*
X123155442Y-66839890D01*
X123141124Y-66837766D01*
X123127083Y-66834249D01*
X123113454Y-66829372D01*
X123100369Y-66823183D01*
X123087953Y-66815742D01*
X123076327Y-66807119D01*
X123065602Y-66797398D01*
X123055881Y-66786673D01*
X123047258Y-66775047D01*
X123039817Y-66762631D01*
X123033628Y-66749546D01*
X123028751Y-66735917D01*
X123025234Y-66721876D01*
X123023110Y-66707558D01*
X123022400Y-66693100D01*
X123022400Y-66398100D01*
X123023110Y-66383642D01*
X123025234Y-66369324D01*
X123028751Y-66355283D01*
X123033628Y-66341654D01*
X123039817Y-66328569D01*
X123047258Y-66316153D01*
X123055881Y-66304527D01*
X123065602Y-66293802D01*
X123076327Y-66284081D01*
X123087953Y-66275458D01*
X123100369Y-66268017D01*
X123113454Y-66261828D01*
X123127083Y-66256951D01*
X123141124Y-66253434D01*
X123155442Y-66251310D01*
X123169900Y-66250600D01*
X123514900Y-66250600D01*
X123529358Y-66251310D01*
G37*
G36*
X123529358Y-67221310D02*
G01*
X123543676Y-67223434D01*
X123557717Y-67226951D01*
X123571346Y-67231828D01*
X123584431Y-67238017D01*
X123596847Y-67245458D01*
X123608473Y-67254081D01*
X123619198Y-67263802D01*
X123628919Y-67274527D01*
X123637542Y-67286153D01*
X123644983Y-67298569D01*
X123651172Y-67311654D01*
X123656049Y-67325283D01*
X123659566Y-67339324D01*
X123661690Y-67353642D01*
X123662400Y-67368100D01*
X123662400Y-67663100D01*
X123661690Y-67677558D01*
X123659566Y-67691876D01*
X123656049Y-67705917D01*
X123651172Y-67719546D01*
X123644983Y-67732631D01*
X123637542Y-67745047D01*
X123628919Y-67756673D01*
X123619198Y-67767398D01*
X123608473Y-67777119D01*
X123596847Y-67785742D01*
X123584431Y-67793183D01*
X123571346Y-67799372D01*
X123557717Y-67804249D01*
X123543676Y-67807766D01*
X123529358Y-67809890D01*
X123514900Y-67810600D01*
X123169900Y-67810600D01*
X123155442Y-67809890D01*
X123141124Y-67807766D01*
X123127083Y-67804249D01*
X123113454Y-67799372D01*
X123100369Y-67793183D01*
X123087953Y-67785742D01*
X123076327Y-67777119D01*
X123065602Y-67767398D01*
X123055881Y-67756673D01*
X123047258Y-67745047D01*
X123039817Y-67732631D01*
X123033628Y-67719546D01*
X123028751Y-67705917D01*
X123025234Y-67691876D01*
X123023110Y-67677558D01*
X123022400Y-67663100D01*
X123022400Y-67368100D01*
X123023110Y-67353642D01*
X123025234Y-67339324D01*
X123028751Y-67325283D01*
X123033628Y-67311654D01*
X123039817Y-67298569D01*
X123047258Y-67286153D01*
X123055881Y-67274527D01*
X123065602Y-67263802D01*
X123076327Y-67254081D01*
X123087953Y-67245458D01*
X123100369Y-67238017D01*
X123113454Y-67231828D01*
X123127083Y-67226951D01*
X123141124Y-67223434D01*
X123155442Y-67221310D01*
X123169900Y-67220600D01*
X123514900Y-67220600D01*
X123529358Y-67221310D01*
G37*
G36*
X126526558Y-61376910D02*
G01*
X126540876Y-61379034D01*
X126554917Y-61382551D01*
X126568546Y-61387428D01*
X126581631Y-61393617D01*
X126594047Y-61401058D01*
X126605673Y-61409681D01*
X126616398Y-61419402D01*
X126626119Y-61430127D01*
X126634742Y-61441753D01*
X126642183Y-61454169D01*
X126648372Y-61467254D01*
X126653249Y-61480883D01*
X126656766Y-61494924D01*
X126658890Y-61509242D01*
X126659600Y-61523700D01*
X126659600Y-61818700D01*
X126658890Y-61833158D01*
X126656766Y-61847476D01*
X126653249Y-61861517D01*
X126648372Y-61875146D01*
X126642183Y-61888231D01*
X126634742Y-61900647D01*
X126626119Y-61912273D01*
X126616398Y-61922998D01*
X126605673Y-61932719D01*
X126594047Y-61941342D01*
X126581631Y-61948783D01*
X126568546Y-61954972D01*
X126554917Y-61959849D01*
X126540876Y-61963366D01*
X126526558Y-61965490D01*
X126512100Y-61966200D01*
X126167100Y-61966200D01*
X126152642Y-61965490D01*
X126138324Y-61963366D01*
X126124283Y-61959849D01*
X126110654Y-61954972D01*
X126097569Y-61948783D01*
X126085153Y-61941342D01*
X126073527Y-61932719D01*
X126062802Y-61922998D01*
X126053081Y-61912273D01*
X126044458Y-61900647D01*
X126037017Y-61888231D01*
X126030828Y-61875146D01*
X126025951Y-61861517D01*
X126022434Y-61847476D01*
X126020310Y-61833158D01*
X126019600Y-61818700D01*
X126019600Y-61523700D01*
X126020310Y-61509242D01*
X126022434Y-61494924D01*
X126025951Y-61480883D01*
X126030828Y-61467254D01*
X126037017Y-61454169D01*
X126044458Y-61441753D01*
X126053081Y-61430127D01*
X126062802Y-61419402D01*
X126073527Y-61409681D01*
X126085153Y-61401058D01*
X126097569Y-61393617D01*
X126110654Y-61387428D01*
X126124283Y-61382551D01*
X126138324Y-61379034D01*
X126152642Y-61376910D01*
X126167100Y-61376200D01*
X126512100Y-61376200D01*
X126526558Y-61376910D01*
G37*
G36*
X126526558Y-60406910D02*
G01*
X126540876Y-60409034D01*
X126554917Y-60412551D01*
X126568546Y-60417428D01*
X126581631Y-60423617D01*
X126594047Y-60431058D01*
X126605673Y-60439681D01*
X126616398Y-60449402D01*
X126626119Y-60460127D01*
X126634742Y-60471753D01*
X126642183Y-60484169D01*
X126648372Y-60497254D01*
X126653249Y-60510883D01*
X126656766Y-60524924D01*
X126658890Y-60539242D01*
X126659600Y-60553700D01*
X126659600Y-60848700D01*
X126658890Y-60863158D01*
X126656766Y-60877476D01*
X126653249Y-60891517D01*
X126648372Y-60905146D01*
X126642183Y-60918231D01*
X126634742Y-60930647D01*
X126626119Y-60942273D01*
X126616398Y-60952998D01*
X126605673Y-60962719D01*
X126594047Y-60971342D01*
X126581631Y-60978783D01*
X126568546Y-60984972D01*
X126554917Y-60989849D01*
X126540876Y-60993366D01*
X126526558Y-60995490D01*
X126512100Y-60996200D01*
X126167100Y-60996200D01*
X126152642Y-60995490D01*
X126138324Y-60993366D01*
X126124283Y-60989849D01*
X126110654Y-60984972D01*
X126097569Y-60978783D01*
X126085153Y-60971342D01*
X126073527Y-60962719D01*
X126062802Y-60952998D01*
X126053081Y-60942273D01*
X126044458Y-60930647D01*
X126037017Y-60918231D01*
X126030828Y-60905146D01*
X126025951Y-60891517D01*
X126022434Y-60877476D01*
X126020310Y-60863158D01*
X126019600Y-60848700D01*
X126019600Y-60553700D01*
X126020310Y-60539242D01*
X126022434Y-60524924D01*
X126025951Y-60510883D01*
X126030828Y-60497254D01*
X126037017Y-60484169D01*
X126044458Y-60471753D01*
X126053081Y-60460127D01*
X126062802Y-60449402D01*
X126073527Y-60439681D01*
X126085153Y-60431058D01*
X126097569Y-60423617D01*
X126110654Y-60417428D01*
X126124283Y-60412551D01*
X126138324Y-60409034D01*
X126152642Y-60406910D01*
X126167100Y-60406200D01*
X126512100Y-60406200D01*
X126526558Y-60406910D01*
G37*
G36*
X124570758Y-62365110D02*
G01*
X124585076Y-62367234D01*
X124599117Y-62370751D01*
X124612746Y-62375628D01*
X124625831Y-62381817D01*
X124638247Y-62389258D01*
X124649873Y-62397881D01*
X124660598Y-62407602D01*
X124670319Y-62418327D01*
X124678942Y-62429953D01*
X124686383Y-62442369D01*
X124692572Y-62455454D01*
X124697449Y-62469083D01*
X124700966Y-62483124D01*
X124703090Y-62497442D01*
X124703800Y-62511900D01*
X124703800Y-62806900D01*
X124703090Y-62821358D01*
X124700966Y-62835676D01*
X124697449Y-62849717D01*
X124692572Y-62863346D01*
X124686383Y-62876431D01*
X124678942Y-62888847D01*
X124670319Y-62900473D01*
X124660598Y-62911198D01*
X124649873Y-62920919D01*
X124638247Y-62929542D01*
X124625831Y-62936983D01*
X124612746Y-62943172D01*
X124599117Y-62948049D01*
X124585076Y-62951566D01*
X124570758Y-62953690D01*
X124556300Y-62954400D01*
X124211300Y-62954400D01*
X124196842Y-62953690D01*
X124182524Y-62951566D01*
X124168483Y-62948049D01*
X124154854Y-62943172D01*
X124141769Y-62936983D01*
X124129353Y-62929542D01*
X124117727Y-62920919D01*
X124107002Y-62911198D01*
X124097281Y-62900473D01*
X124088658Y-62888847D01*
X124081217Y-62876431D01*
X124075028Y-62863346D01*
X124070151Y-62849717D01*
X124066634Y-62835676D01*
X124064510Y-62821358D01*
X124063800Y-62806900D01*
X124063800Y-62511900D01*
X124064510Y-62497442D01*
X124066634Y-62483124D01*
X124070151Y-62469083D01*
X124075028Y-62455454D01*
X124081217Y-62442369D01*
X124088658Y-62429953D01*
X124097281Y-62418327D01*
X124107002Y-62407602D01*
X124117727Y-62397881D01*
X124129353Y-62389258D01*
X124141769Y-62381817D01*
X124154854Y-62375628D01*
X124168483Y-62370751D01*
X124182524Y-62367234D01*
X124196842Y-62365110D01*
X124211300Y-62364400D01*
X124556300Y-62364400D01*
X124570758Y-62365110D01*
G37*
G36*
X124570758Y-63335110D02*
G01*
X124585076Y-63337234D01*
X124599117Y-63340751D01*
X124612746Y-63345628D01*
X124625831Y-63351817D01*
X124638247Y-63359258D01*
X124649873Y-63367881D01*
X124660598Y-63377602D01*
X124670319Y-63388327D01*
X124678942Y-63399953D01*
X124686383Y-63412369D01*
X124692572Y-63425454D01*
X124697449Y-63439083D01*
X124700966Y-63453124D01*
X124703090Y-63467442D01*
X124703800Y-63481900D01*
X124703800Y-63776900D01*
X124703090Y-63791358D01*
X124700966Y-63805676D01*
X124697449Y-63819717D01*
X124692572Y-63833346D01*
X124686383Y-63846431D01*
X124678942Y-63858847D01*
X124670319Y-63870473D01*
X124660598Y-63881198D01*
X124649873Y-63890919D01*
X124638247Y-63899542D01*
X124625831Y-63906983D01*
X124612746Y-63913172D01*
X124599117Y-63918049D01*
X124585076Y-63921566D01*
X124570758Y-63923690D01*
X124556300Y-63924400D01*
X124211300Y-63924400D01*
X124196842Y-63923690D01*
X124182524Y-63921566D01*
X124168483Y-63918049D01*
X124154854Y-63913172D01*
X124141769Y-63906983D01*
X124129353Y-63899542D01*
X124117727Y-63890919D01*
X124107002Y-63881198D01*
X124097281Y-63870473D01*
X124088658Y-63858847D01*
X124081217Y-63846431D01*
X124075028Y-63833346D01*
X124070151Y-63819717D01*
X124066634Y-63805676D01*
X124064510Y-63791358D01*
X124063800Y-63776900D01*
X124063800Y-63481900D01*
X124064510Y-63467442D01*
X124066634Y-63453124D01*
X124070151Y-63439083D01*
X124075028Y-63425454D01*
X124081217Y-63412369D01*
X124088658Y-63399953D01*
X124097281Y-63388327D01*
X124107002Y-63377602D01*
X124117727Y-63367881D01*
X124129353Y-63359258D01*
X124141769Y-63351817D01*
X124154854Y-63345628D01*
X124168483Y-63340751D01*
X124182524Y-63337234D01*
X124196842Y-63335110D01*
X124211300Y-63334400D01*
X124556300Y-63334400D01*
X124570758Y-63335110D01*
G37*
G36*
X123554758Y-62362710D02*
G01*
X123569076Y-62364834D01*
X123583117Y-62368351D01*
X123596746Y-62373228D01*
X123609831Y-62379417D01*
X123622247Y-62386858D01*
X123633873Y-62395481D01*
X123644598Y-62405202D01*
X123654319Y-62415927D01*
X123662942Y-62427553D01*
X123670383Y-62439969D01*
X123676572Y-62453054D01*
X123681449Y-62466683D01*
X123684966Y-62480724D01*
X123687090Y-62495042D01*
X123687800Y-62509500D01*
X123687800Y-62804500D01*
X123687090Y-62818958D01*
X123684966Y-62833276D01*
X123681449Y-62847317D01*
X123676572Y-62860946D01*
X123670383Y-62874031D01*
X123662942Y-62886447D01*
X123654319Y-62898073D01*
X123644598Y-62908798D01*
X123633873Y-62918519D01*
X123622247Y-62927142D01*
X123609831Y-62934583D01*
X123596746Y-62940772D01*
X123583117Y-62945649D01*
X123569076Y-62949166D01*
X123554758Y-62951290D01*
X123540300Y-62952000D01*
X123195300Y-62952000D01*
X123180842Y-62951290D01*
X123166524Y-62949166D01*
X123152483Y-62945649D01*
X123138854Y-62940772D01*
X123125769Y-62934583D01*
X123113353Y-62927142D01*
X123101727Y-62918519D01*
X123091002Y-62908798D01*
X123081281Y-62898073D01*
X123072658Y-62886447D01*
X123065217Y-62874031D01*
X123059028Y-62860946D01*
X123054151Y-62847317D01*
X123050634Y-62833276D01*
X123048510Y-62818958D01*
X123047800Y-62804500D01*
X123047800Y-62509500D01*
X123048510Y-62495042D01*
X123050634Y-62480724D01*
X123054151Y-62466683D01*
X123059028Y-62453054D01*
X123065217Y-62439969D01*
X123072658Y-62427553D01*
X123081281Y-62415927D01*
X123091002Y-62405202D01*
X123101727Y-62395481D01*
X123113353Y-62386858D01*
X123125769Y-62379417D01*
X123138854Y-62373228D01*
X123152483Y-62368351D01*
X123166524Y-62364834D01*
X123180842Y-62362710D01*
X123195300Y-62362000D01*
X123540300Y-62362000D01*
X123554758Y-62362710D01*
G37*
G36*
X123554758Y-63332710D02*
G01*
X123569076Y-63334834D01*
X123583117Y-63338351D01*
X123596746Y-63343228D01*
X123609831Y-63349417D01*
X123622247Y-63356858D01*
X123633873Y-63365481D01*
X123644598Y-63375202D01*
X123654319Y-63385927D01*
X123662942Y-63397553D01*
X123670383Y-63409969D01*
X123676572Y-63423054D01*
X123681449Y-63436683D01*
X123684966Y-63450724D01*
X123687090Y-63465042D01*
X123687800Y-63479500D01*
X123687800Y-63774500D01*
X123687090Y-63788958D01*
X123684966Y-63803276D01*
X123681449Y-63817317D01*
X123676572Y-63830946D01*
X123670383Y-63844031D01*
X123662942Y-63856447D01*
X123654319Y-63868073D01*
X123644598Y-63878798D01*
X123633873Y-63888519D01*
X123622247Y-63897142D01*
X123609831Y-63904583D01*
X123596746Y-63910772D01*
X123583117Y-63915649D01*
X123569076Y-63919166D01*
X123554758Y-63921290D01*
X123540300Y-63922000D01*
X123195300Y-63922000D01*
X123180842Y-63921290D01*
X123166524Y-63919166D01*
X123152483Y-63915649D01*
X123138854Y-63910772D01*
X123125769Y-63904583D01*
X123113353Y-63897142D01*
X123101727Y-63888519D01*
X123091002Y-63878798D01*
X123081281Y-63868073D01*
X123072658Y-63856447D01*
X123065217Y-63844031D01*
X123059028Y-63830946D01*
X123054151Y-63817317D01*
X123050634Y-63803276D01*
X123048510Y-63788958D01*
X123047800Y-63774500D01*
X123047800Y-63479500D01*
X123048510Y-63465042D01*
X123050634Y-63450724D01*
X123054151Y-63436683D01*
X123059028Y-63423054D01*
X123065217Y-63409969D01*
X123072658Y-63397553D01*
X123081281Y-63385927D01*
X123091002Y-63375202D01*
X123101727Y-63365481D01*
X123113353Y-63356858D01*
X123125769Y-63349417D01*
X123138854Y-63343228D01*
X123152483Y-63338351D01*
X123166524Y-63334834D01*
X123180842Y-63332710D01*
X123195300Y-63332000D01*
X123540300Y-63332000D01*
X123554758Y-63332710D01*
G37*
G36*
X121675158Y-57579610D02*
G01*
X121689476Y-57581734D01*
X121703517Y-57585251D01*
X121717146Y-57590128D01*
X121730231Y-57596317D01*
X121742647Y-57603758D01*
X121754273Y-57612381D01*
X121764998Y-57622102D01*
X121774719Y-57632827D01*
X121783342Y-57644453D01*
X121790783Y-57656869D01*
X121796972Y-57669954D01*
X121801849Y-57683583D01*
X121805366Y-57697624D01*
X121807490Y-57711942D01*
X121808200Y-57726400D01*
X121808200Y-58021400D01*
X121807490Y-58035858D01*
X121805366Y-58050176D01*
X121801849Y-58064217D01*
X121796972Y-58077846D01*
X121790783Y-58090931D01*
X121783342Y-58103347D01*
X121774719Y-58114973D01*
X121764998Y-58125698D01*
X121754273Y-58135419D01*
X121742647Y-58144042D01*
X121730231Y-58151483D01*
X121717146Y-58157672D01*
X121703517Y-58162549D01*
X121689476Y-58166066D01*
X121675158Y-58168190D01*
X121660700Y-58168900D01*
X121315700Y-58168900D01*
X121301242Y-58168190D01*
X121286924Y-58166066D01*
X121272883Y-58162549D01*
X121259254Y-58157672D01*
X121246169Y-58151483D01*
X121233753Y-58144042D01*
X121222127Y-58135419D01*
X121211402Y-58125698D01*
X121201681Y-58114973D01*
X121193058Y-58103347D01*
X121185617Y-58090931D01*
X121179428Y-58077846D01*
X121174551Y-58064217D01*
X121171034Y-58050176D01*
X121168910Y-58035858D01*
X121168200Y-58021400D01*
X121168200Y-57726400D01*
X121168910Y-57711942D01*
X121171034Y-57697624D01*
X121174551Y-57683583D01*
X121179428Y-57669954D01*
X121185617Y-57656869D01*
X121193058Y-57644453D01*
X121201681Y-57632827D01*
X121211402Y-57622102D01*
X121222127Y-57612381D01*
X121233753Y-57603758D01*
X121246169Y-57596317D01*
X121259254Y-57590128D01*
X121272883Y-57585251D01*
X121286924Y-57581734D01*
X121301242Y-57579610D01*
X121315700Y-57578900D01*
X121660700Y-57578900D01*
X121675158Y-57579610D01*
G37*
G36*
X121675158Y-58549610D02*
G01*
X121689476Y-58551734D01*
X121703517Y-58555251D01*
X121717146Y-58560128D01*
X121730231Y-58566317D01*
X121742647Y-58573758D01*
X121754273Y-58582381D01*
X121764998Y-58592102D01*
X121774719Y-58602827D01*
X121783342Y-58614453D01*
X121790783Y-58626869D01*
X121796972Y-58639954D01*
X121801849Y-58653583D01*
X121805366Y-58667624D01*
X121807490Y-58681942D01*
X121808200Y-58696400D01*
X121808200Y-58991400D01*
X121807490Y-59005858D01*
X121805366Y-59020176D01*
X121801849Y-59034217D01*
X121796972Y-59047846D01*
X121790783Y-59060931D01*
X121783342Y-59073347D01*
X121774719Y-59084973D01*
X121764998Y-59095698D01*
X121754273Y-59105419D01*
X121742647Y-59114042D01*
X121730231Y-59121483D01*
X121717146Y-59127672D01*
X121703517Y-59132549D01*
X121689476Y-59136066D01*
X121675158Y-59138190D01*
X121660700Y-59138900D01*
X121315700Y-59138900D01*
X121301242Y-59138190D01*
X121286924Y-59136066D01*
X121272883Y-59132549D01*
X121259254Y-59127672D01*
X121246169Y-59121483D01*
X121233753Y-59114042D01*
X121222127Y-59105419D01*
X121211402Y-59095698D01*
X121201681Y-59084973D01*
X121193058Y-59073347D01*
X121185617Y-59060931D01*
X121179428Y-59047846D01*
X121174551Y-59034217D01*
X121171034Y-59020176D01*
X121168910Y-59005858D01*
X121168200Y-58991400D01*
X121168200Y-58696400D01*
X121168910Y-58681942D01*
X121171034Y-58667624D01*
X121174551Y-58653583D01*
X121179428Y-58639954D01*
X121185617Y-58626869D01*
X121193058Y-58614453D01*
X121201681Y-58602827D01*
X121211402Y-58592102D01*
X121222127Y-58582381D01*
X121233753Y-58573758D01*
X121246169Y-58566317D01*
X121259254Y-58560128D01*
X121272883Y-58555251D01*
X121286924Y-58551734D01*
X121301242Y-58549610D01*
X121315700Y-58548900D01*
X121660700Y-58548900D01*
X121675158Y-58549610D01*
G37*
G36*
X121522758Y-66352910D02*
G01*
X121537076Y-66355034D01*
X121551117Y-66358551D01*
X121564746Y-66363428D01*
X121577831Y-66369617D01*
X121590247Y-66377058D01*
X121601873Y-66385681D01*
X121612598Y-66395402D01*
X121622319Y-66406127D01*
X121630942Y-66417753D01*
X121638383Y-66430169D01*
X121644572Y-66443254D01*
X121649449Y-66456883D01*
X121652966Y-66470924D01*
X121655090Y-66485242D01*
X121655800Y-66499700D01*
X121655800Y-66794700D01*
X121655090Y-66809158D01*
X121652966Y-66823476D01*
X121649449Y-66837517D01*
X121644572Y-66851146D01*
X121638383Y-66864231D01*
X121630942Y-66876647D01*
X121622319Y-66888273D01*
X121612598Y-66898998D01*
X121601873Y-66908719D01*
X121590247Y-66917342D01*
X121577831Y-66924783D01*
X121564746Y-66930972D01*
X121551117Y-66935849D01*
X121537076Y-66939366D01*
X121522758Y-66941490D01*
X121508300Y-66942200D01*
X121163300Y-66942200D01*
X121148842Y-66941490D01*
X121134524Y-66939366D01*
X121120483Y-66935849D01*
X121106854Y-66930972D01*
X121093769Y-66924783D01*
X121081353Y-66917342D01*
X121069727Y-66908719D01*
X121059002Y-66898998D01*
X121049281Y-66888273D01*
X121040658Y-66876647D01*
X121033217Y-66864231D01*
X121027028Y-66851146D01*
X121022151Y-66837517D01*
X121018634Y-66823476D01*
X121016510Y-66809158D01*
X121015800Y-66794700D01*
X121015800Y-66499700D01*
X121016510Y-66485242D01*
X121018634Y-66470924D01*
X121022151Y-66456883D01*
X121027028Y-66443254D01*
X121033217Y-66430169D01*
X121040658Y-66417753D01*
X121049281Y-66406127D01*
X121059002Y-66395402D01*
X121069727Y-66385681D01*
X121081353Y-66377058D01*
X121093769Y-66369617D01*
X121106854Y-66363428D01*
X121120483Y-66358551D01*
X121134524Y-66355034D01*
X121148842Y-66352910D01*
X121163300Y-66352200D01*
X121508300Y-66352200D01*
X121522758Y-66352910D01*
G37*
G36*
X121522758Y-67322910D02*
G01*
X121537076Y-67325034D01*
X121551117Y-67328551D01*
X121564746Y-67333428D01*
X121577831Y-67339617D01*
X121590247Y-67347058D01*
X121601873Y-67355681D01*
X121612598Y-67365402D01*
X121622319Y-67376127D01*
X121630942Y-67387753D01*
X121638383Y-67400169D01*
X121644572Y-67413254D01*
X121649449Y-67426883D01*
X121652966Y-67440924D01*
X121655090Y-67455242D01*
X121655800Y-67469700D01*
X121655800Y-67764700D01*
X121655090Y-67779158D01*
X121652966Y-67793476D01*
X121649449Y-67807517D01*
X121644572Y-67821146D01*
X121638383Y-67834231D01*
X121630942Y-67846647D01*
X121622319Y-67858273D01*
X121612598Y-67868998D01*
X121601873Y-67878719D01*
X121590247Y-67887342D01*
X121577831Y-67894783D01*
X121564746Y-67900972D01*
X121551117Y-67905849D01*
X121537076Y-67909366D01*
X121522758Y-67911490D01*
X121508300Y-67912200D01*
X121163300Y-67912200D01*
X121148842Y-67911490D01*
X121134524Y-67909366D01*
X121120483Y-67905849D01*
X121106854Y-67900972D01*
X121093769Y-67894783D01*
X121081353Y-67887342D01*
X121069727Y-67878719D01*
X121059002Y-67868998D01*
X121049281Y-67858273D01*
X121040658Y-67846647D01*
X121033217Y-67834231D01*
X121027028Y-67821146D01*
X121022151Y-67807517D01*
X121018634Y-67793476D01*
X121016510Y-67779158D01*
X121015800Y-67764700D01*
X121015800Y-67469700D01*
X121016510Y-67455242D01*
X121018634Y-67440924D01*
X121022151Y-67426883D01*
X121027028Y-67413254D01*
X121033217Y-67400169D01*
X121040658Y-67387753D01*
X121049281Y-67376127D01*
X121059002Y-67365402D01*
X121069727Y-67355681D01*
X121081353Y-67347058D01*
X121093769Y-67339617D01*
X121106854Y-67333428D01*
X121120483Y-67328551D01*
X121134524Y-67325034D01*
X121148842Y-67322910D01*
X121163300Y-67322200D01*
X121508300Y-67322200D01*
X121522758Y-67322910D01*
G37*
G36*
X117865158Y-57566910D02*
G01*
X117879476Y-57569034D01*
X117893517Y-57572551D01*
X117907146Y-57577428D01*
X117920231Y-57583617D01*
X117932647Y-57591058D01*
X117944273Y-57599681D01*
X117954998Y-57609402D01*
X117964719Y-57620127D01*
X117973342Y-57631753D01*
X117980783Y-57644169D01*
X117986972Y-57657254D01*
X117991849Y-57670883D01*
X117995366Y-57684924D01*
X117997490Y-57699242D01*
X117998200Y-57713700D01*
X117998200Y-58008700D01*
X117997490Y-58023158D01*
X117995366Y-58037476D01*
X117991849Y-58051517D01*
X117986972Y-58065146D01*
X117980783Y-58078231D01*
X117973342Y-58090647D01*
X117964719Y-58102273D01*
X117954998Y-58112998D01*
X117944273Y-58122719D01*
X117932647Y-58131342D01*
X117920231Y-58138783D01*
X117907146Y-58144972D01*
X117893517Y-58149849D01*
X117879476Y-58153366D01*
X117865158Y-58155490D01*
X117850700Y-58156200D01*
X117505700Y-58156200D01*
X117491242Y-58155490D01*
X117476924Y-58153366D01*
X117462883Y-58149849D01*
X117449254Y-58144972D01*
X117436169Y-58138783D01*
X117423753Y-58131342D01*
X117412127Y-58122719D01*
X117401402Y-58112998D01*
X117391681Y-58102273D01*
X117383058Y-58090647D01*
X117375617Y-58078231D01*
X117369428Y-58065146D01*
X117364551Y-58051517D01*
X117361034Y-58037476D01*
X117358910Y-58023158D01*
X117358200Y-58008700D01*
X117358200Y-57713700D01*
X117358910Y-57699242D01*
X117361034Y-57684924D01*
X117364551Y-57670883D01*
X117369428Y-57657254D01*
X117375617Y-57644169D01*
X117383058Y-57631753D01*
X117391681Y-57620127D01*
X117401402Y-57609402D01*
X117412127Y-57599681D01*
X117423753Y-57591058D01*
X117436169Y-57583617D01*
X117449254Y-57577428D01*
X117462883Y-57572551D01*
X117476924Y-57569034D01*
X117491242Y-57566910D01*
X117505700Y-57566200D01*
X117850700Y-57566200D01*
X117865158Y-57566910D01*
G37*
G36*
X117865158Y-58536910D02*
G01*
X117879476Y-58539034D01*
X117893517Y-58542551D01*
X117907146Y-58547428D01*
X117920231Y-58553617D01*
X117932647Y-58561058D01*
X117944273Y-58569681D01*
X117954998Y-58579402D01*
X117964719Y-58590127D01*
X117973342Y-58601753D01*
X117980783Y-58614169D01*
X117986972Y-58627254D01*
X117991849Y-58640883D01*
X117995366Y-58654924D01*
X117997490Y-58669242D01*
X117998200Y-58683700D01*
X117998200Y-58978700D01*
X117997490Y-58993158D01*
X117995366Y-59007476D01*
X117991849Y-59021517D01*
X117986972Y-59035146D01*
X117980783Y-59048231D01*
X117973342Y-59060647D01*
X117964719Y-59072273D01*
X117954998Y-59082998D01*
X117944273Y-59092719D01*
X117932647Y-59101342D01*
X117920231Y-59108783D01*
X117907146Y-59114972D01*
X117893517Y-59119849D01*
X117879476Y-59123366D01*
X117865158Y-59125490D01*
X117850700Y-59126200D01*
X117505700Y-59126200D01*
X117491242Y-59125490D01*
X117476924Y-59123366D01*
X117462883Y-59119849D01*
X117449254Y-59114972D01*
X117436169Y-59108783D01*
X117423753Y-59101342D01*
X117412127Y-59092719D01*
X117401402Y-59082998D01*
X117391681Y-59072273D01*
X117383058Y-59060647D01*
X117375617Y-59048231D01*
X117369428Y-59035146D01*
X117364551Y-59021517D01*
X117361034Y-59007476D01*
X117358910Y-58993158D01*
X117358200Y-58978700D01*
X117358200Y-58683700D01*
X117358910Y-58669242D01*
X117361034Y-58654924D01*
X117364551Y-58640883D01*
X117369428Y-58627254D01*
X117375617Y-58614169D01*
X117383058Y-58601753D01*
X117391681Y-58590127D01*
X117401402Y-58579402D01*
X117412127Y-58569681D01*
X117423753Y-58561058D01*
X117436169Y-58553617D01*
X117449254Y-58547428D01*
X117462883Y-58542551D01*
X117476924Y-58539034D01*
X117491242Y-58536910D01*
X117505700Y-58536200D01*
X117850700Y-58536200D01*
X117865158Y-58536910D01*
G37*
G36*
X117192458Y-68946510D02*
G01*
X117206776Y-68948634D01*
X117220817Y-68952151D01*
X117234446Y-68957028D01*
X117247531Y-68963217D01*
X117259947Y-68970658D01*
X117271573Y-68979281D01*
X117282298Y-68989002D01*
X117292019Y-68999727D01*
X117300642Y-69011353D01*
X117308083Y-69023769D01*
X117314272Y-69036854D01*
X117319149Y-69050483D01*
X117322666Y-69064524D01*
X117324790Y-69078842D01*
X117325500Y-69093300D01*
X117325500Y-69438300D01*
X117324790Y-69452758D01*
X117322666Y-69467076D01*
X117319149Y-69481117D01*
X117314272Y-69494746D01*
X117308083Y-69507831D01*
X117300642Y-69520247D01*
X117292019Y-69531873D01*
X117282298Y-69542598D01*
X117271573Y-69552319D01*
X117259947Y-69560942D01*
X117247531Y-69568383D01*
X117234446Y-69574572D01*
X117220817Y-69579449D01*
X117206776Y-69582966D01*
X117192458Y-69585090D01*
X117178000Y-69585800D01*
X116883000Y-69585800D01*
X116868542Y-69585090D01*
X116854224Y-69582966D01*
X116840183Y-69579449D01*
X116826554Y-69574572D01*
X116813469Y-69568383D01*
X116801053Y-69560942D01*
X116789427Y-69552319D01*
X116778702Y-69542598D01*
X116768981Y-69531873D01*
X116760358Y-69520247D01*
X116752917Y-69507831D01*
X116746728Y-69494746D01*
X116741851Y-69481117D01*
X116738334Y-69467076D01*
X116736210Y-69452758D01*
X116735500Y-69438300D01*
X116735500Y-69093300D01*
X116736210Y-69078842D01*
X116738334Y-69064524D01*
X116741851Y-69050483D01*
X116746728Y-69036854D01*
X116752917Y-69023769D01*
X116760358Y-69011353D01*
X116768981Y-68999727D01*
X116778702Y-68989002D01*
X116789427Y-68979281D01*
X116801053Y-68970658D01*
X116813469Y-68963217D01*
X116826554Y-68957028D01*
X116840183Y-68952151D01*
X116854224Y-68948634D01*
X116868542Y-68946510D01*
X116883000Y-68945800D01*
X117178000Y-68945800D01*
X117192458Y-68946510D01*
G37*
G36*
X116222458Y-68946510D02*
G01*
X116236776Y-68948634D01*
X116250817Y-68952151D01*
X116264446Y-68957028D01*
X116277531Y-68963217D01*
X116289947Y-68970658D01*
X116301573Y-68979281D01*
X116312298Y-68989002D01*
X116322019Y-68999727D01*
X116330642Y-69011353D01*
X116338083Y-69023769D01*
X116344272Y-69036854D01*
X116349149Y-69050483D01*
X116352666Y-69064524D01*
X116354790Y-69078842D01*
X116355500Y-69093300D01*
X116355500Y-69438300D01*
X116354790Y-69452758D01*
X116352666Y-69467076D01*
X116349149Y-69481117D01*
X116344272Y-69494746D01*
X116338083Y-69507831D01*
X116330642Y-69520247D01*
X116322019Y-69531873D01*
X116312298Y-69542598D01*
X116301573Y-69552319D01*
X116289947Y-69560942D01*
X116277531Y-69568383D01*
X116264446Y-69574572D01*
X116250817Y-69579449D01*
X116236776Y-69582966D01*
X116222458Y-69585090D01*
X116208000Y-69585800D01*
X115913000Y-69585800D01*
X115898542Y-69585090D01*
X115884224Y-69582966D01*
X115870183Y-69579449D01*
X115856554Y-69574572D01*
X115843469Y-69568383D01*
X115831053Y-69560942D01*
X115819427Y-69552319D01*
X115808702Y-69542598D01*
X115798981Y-69531873D01*
X115790358Y-69520247D01*
X115782917Y-69507831D01*
X115776728Y-69494746D01*
X115771851Y-69481117D01*
X115768334Y-69467076D01*
X115766210Y-69452758D01*
X115765500Y-69438300D01*
X115765500Y-69093300D01*
X115766210Y-69078842D01*
X115768334Y-69064524D01*
X115771851Y-69050483D01*
X115776728Y-69036854D01*
X115782917Y-69023769D01*
X115790358Y-69011353D01*
X115798981Y-68999727D01*
X115808702Y-68989002D01*
X115819427Y-68979281D01*
X115831053Y-68970658D01*
X115843469Y-68963217D01*
X115856554Y-68957028D01*
X115870183Y-68952151D01*
X115884224Y-68948634D01*
X115898542Y-68946510D01*
X115913000Y-68945800D01*
X116208000Y-68945800D01*
X116222458Y-68946510D01*
G37*
G36*
X116277658Y-67993610D02*
G01*
X116291976Y-67995734D01*
X116306017Y-67999251D01*
X116319646Y-68004128D01*
X116332731Y-68010317D01*
X116345147Y-68017758D01*
X116356773Y-68026381D01*
X116367498Y-68036102D01*
X116377219Y-68046827D01*
X116385842Y-68058453D01*
X116393283Y-68070869D01*
X116399472Y-68083954D01*
X116404349Y-68097583D01*
X116407866Y-68111624D01*
X116409990Y-68125942D01*
X116410700Y-68140400D01*
X116410700Y-68435400D01*
X116409990Y-68449858D01*
X116407866Y-68464176D01*
X116404349Y-68478217D01*
X116399472Y-68491846D01*
X116393283Y-68504931D01*
X116385842Y-68517347D01*
X116377219Y-68528973D01*
X116367498Y-68539698D01*
X116356773Y-68549419D01*
X116345147Y-68558042D01*
X116332731Y-68565483D01*
X116319646Y-68571672D01*
X116306017Y-68576549D01*
X116291976Y-68580066D01*
X116277658Y-68582190D01*
X116263200Y-68582900D01*
X115918200Y-68582900D01*
X115903742Y-68582190D01*
X115889424Y-68580066D01*
X115875383Y-68576549D01*
X115861754Y-68571672D01*
X115848669Y-68565483D01*
X115836253Y-68558042D01*
X115824627Y-68549419D01*
X115813902Y-68539698D01*
X115804181Y-68528973D01*
X115795558Y-68517347D01*
X115788117Y-68504931D01*
X115781928Y-68491846D01*
X115777051Y-68478217D01*
X115773534Y-68464176D01*
X115771410Y-68449858D01*
X115770700Y-68435400D01*
X115770700Y-68140400D01*
X115771410Y-68125942D01*
X115773534Y-68111624D01*
X115777051Y-68097583D01*
X115781928Y-68083954D01*
X115788117Y-68070869D01*
X115795558Y-68058453D01*
X115804181Y-68046827D01*
X115813902Y-68036102D01*
X115824627Y-68026381D01*
X115836253Y-68017758D01*
X115848669Y-68010317D01*
X115861754Y-68004128D01*
X115875383Y-67999251D01*
X115889424Y-67995734D01*
X115903742Y-67993610D01*
X115918200Y-67992900D01*
X116263200Y-67992900D01*
X116277658Y-67993610D01*
G37*
G36*
X116277658Y-67023610D02*
G01*
X116291976Y-67025734D01*
X116306017Y-67029251D01*
X116319646Y-67034128D01*
X116332731Y-67040317D01*
X116345147Y-67047758D01*
X116356773Y-67056381D01*
X116367498Y-67066102D01*
X116377219Y-67076827D01*
X116385842Y-67088453D01*
X116393283Y-67100869D01*
X116399472Y-67113954D01*
X116404349Y-67127583D01*
X116407866Y-67141624D01*
X116409990Y-67155942D01*
X116410700Y-67170400D01*
X116410700Y-67465400D01*
X116409990Y-67479858D01*
X116407866Y-67494176D01*
X116404349Y-67508217D01*
X116399472Y-67521846D01*
X116393283Y-67534931D01*
X116385842Y-67547347D01*
X116377219Y-67558973D01*
X116367498Y-67569698D01*
X116356773Y-67579419D01*
X116345147Y-67588042D01*
X116332731Y-67595483D01*
X116319646Y-67601672D01*
X116306017Y-67606549D01*
X116291976Y-67610066D01*
X116277658Y-67612190D01*
X116263200Y-67612900D01*
X115918200Y-67612900D01*
X115903742Y-67612190D01*
X115889424Y-67610066D01*
X115875383Y-67606549D01*
X115861754Y-67601672D01*
X115848669Y-67595483D01*
X115836253Y-67588042D01*
X115824627Y-67579419D01*
X115813902Y-67569698D01*
X115804181Y-67558973D01*
X115795558Y-67547347D01*
X115788117Y-67534931D01*
X115781928Y-67521846D01*
X115777051Y-67508217D01*
X115773534Y-67494176D01*
X115771410Y-67479858D01*
X115770700Y-67465400D01*
X115770700Y-67170400D01*
X115771410Y-67155942D01*
X115773534Y-67141624D01*
X115777051Y-67127583D01*
X115781928Y-67113954D01*
X115788117Y-67100869D01*
X115795558Y-67088453D01*
X115804181Y-67076827D01*
X115813902Y-67066102D01*
X115824627Y-67056381D01*
X115836253Y-67047758D01*
X115848669Y-67040317D01*
X115861754Y-67034128D01*
X115875383Y-67029251D01*
X115889424Y-67025734D01*
X115903742Y-67023610D01*
X115918200Y-67022900D01*
X116263200Y-67022900D01*
X116277658Y-67023610D01*
G37*
G36*
X115045758Y-57577210D02*
G01*
X115060076Y-57579334D01*
X115074117Y-57582851D01*
X115087746Y-57587728D01*
X115100831Y-57593917D01*
X115113247Y-57601358D01*
X115124873Y-57609981D01*
X115135598Y-57619702D01*
X115145319Y-57630427D01*
X115153942Y-57642053D01*
X115161383Y-57654469D01*
X115167572Y-57667554D01*
X115172449Y-57681183D01*
X115175966Y-57695224D01*
X115178090Y-57709542D01*
X115178800Y-57724000D01*
X115178800Y-58019000D01*
X115178090Y-58033458D01*
X115175966Y-58047776D01*
X115172449Y-58061817D01*
X115167572Y-58075446D01*
X115161383Y-58088531D01*
X115153942Y-58100947D01*
X115145319Y-58112573D01*
X115135598Y-58123298D01*
X115124873Y-58133019D01*
X115113247Y-58141642D01*
X115100831Y-58149083D01*
X115087746Y-58155272D01*
X115074117Y-58160149D01*
X115060076Y-58163666D01*
X115045758Y-58165790D01*
X115031300Y-58166500D01*
X114686300Y-58166500D01*
X114671842Y-58165790D01*
X114657524Y-58163666D01*
X114643483Y-58160149D01*
X114629854Y-58155272D01*
X114616769Y-58149083D01*
X114604353Y-58141642D01*
X114592727Y-58133019D01*
X114582002Y-58123298D01*
X114572281Y-58112573D01*
X114563658Y-58100947D01*
X114556217Y-58088531D01*
X114550028Y-58075446D01*
X114545151Y-58061817D01*
X114541634Y-58047776D01*
X114539510Y-58033458D01*
X114538800Y-58019000D01*
X114538800Y-57724000D01*
X114539510Y-57709542D01*
X114541634Y-57695224D01*
X114545151Y-57681183D01*
X114550028Y-57667554D01*
X114556217Y-57654469D01*
X114563658Y-57642053D01*
X114572281Y-57630427D01*
X114582002Y-57619702D01*
X114592727Y-57609981D01*
X114604353Y-57601358D01*
X114616769Y-57593917D01*
X114629854Y-57587728D01*
X114643483Y-57582851D01*
X114657524Y-57579334D01*
X114671842Y-57577210D01*
X114686300Y-57576500D01*
X115031300Y-57576500D01*
X115045758Y-57577210D01*
G37*
G36*
X115045758Y-58547210D02*
G01*
X115060076Y-58549334D01*
X115074117Y-58552851D01*
X115087746Y-58557728D01*
X115100831Y-58563917D01*
X115113247Y-58571358D01*
X115124873Y-58579981D01*
X115135598Y-58589702D01*
X115145319Y-58600427D01*
X115153942Y-58612053D01*
X115161383Y-58624469D01*
X115167572Y-58637554D01*
X115172449Y-58651183D01*
X115175966Y-58665224D01*
X115178090Y-58679542D01*
X115178800Y-58694000D01*
X115178800Y-58989000D01*
X115178090Y-59003458D01*
X115175966Y-59017776D01*
X115172449Y-59031817D01*
X115167572Y-59045446D01*
X115161383Y-59058531D01*
X115153942Y-59070947D01*
X115145319Y-59082573D01*
X115135598Y-59093298D01*
X115124873Y-59103019D01*
X115113247Y-59111642D01*
X115100831Y-59119083D01*
X115087746Y-59125272D01*
X115074117Y-59130149D01*
X115060076Y-59133666D01*
X115045758Y-59135790D01*
X115031300Y-59136500D01*
X114686300Y-59136500D01*
X114671842Y-59135790D01*
X114657524Y-59133666D01*
X114643483Y-59130149D01*
X114629854Y-59125272D01*
X114616769Y-59119083D01*
X114604353Y-59111642D01*
X114592727Y-59103019D01*
X114582002Y-59093298D01*
X114572281Y-59082573D01*
X114563658Y-59070947D01*
X114556217Y-59058531D01*
X114550028Y-59045446D01*
X114545151Y-59031817D01*
X114541634Y-59017776D01*
X114539510Y-59003458D01*
X114538800Y-58989000D01*
X114538800Y-58694000D01*
X114539510Y-58679542D01*
X114541634Y-58665224D01*
X114545151Y-58651183D01*
X114550028Y-58637554D01*
X114556217Y-58624469D01*
X114563658Y-58612053D01*
X114572281Y-58600427D01*
X114582002Y-58589702D01*
X114592727Y-58579981D01*
X114604353Y-58571358D01*
X114616769Y-58563917D01*
X114629854Y-58557728D01*
X114643483Y-58552851D01*
X114657524Y-58549334D01*
X114671842Y-58547210D01*
X114686300Y-58546500D01*
X115031300Y-58546500D01*
X115045758Y-58547210D01*
G37*
G36*
X116061758Y-57574810D02*
G01*
X116076076Y-57576934D01*
X116090117Y-57580451D01*
X116103746Y-57585328D01*
X116116831Y-57591517D01*
X116129247Y-57598958D01*
X116140873Y-57607581D01*
X116151598Y-57617302D01*
X116161319Y-57628027D01*
X116169942Y-57639653D01*
X116177383Y-57652069D01*
X116183572Y-57665154D01*
X116188449Y-57678783D01*
X116191966Y-57692824D01*
X116194090Y-57707142D01*
X116194800Y-57721600D01*
X116194800Y-58016600D01*
X116194090Y-58031058D01*
X116191966Y-58045376D01*
X116188449Y-58059417D01*
X116183572Y-58073046D01*
X116177383Y-58086131D01*
X116169942Y-58098547D01*
X116161319Y-58110173D01*
X116151598Y-58120898D01*
X116140873Y-58130619D01*
X116129247Y-58139242D01*
X116116831Y-58146683D01*
X116103746Y-58152872D01*
X116090117Y-58157749D01*
X116076076Y-58161266D01*
X116061758Y-58163390D01*
X116047300Y-58164100D01*
X115702300Y-58164100D01*
X115687842Y-58163390D01*
X115673524Y-58161266D01*
X115659483Y-58157749D01*
X115645854Y-58152872D01*
X115632769Y-58146683D01*
X115620353Y-58139242D01*
X115608727Y-58130619D01*
X115598002Y-58120898D01*
X115588281Y-58110173D01*
X115579658Y-58098547D01*
X115572217Y-58086131D01*
X115566028Y-58073046D01*
X115561151Y-58059417D01*
X115557634Y-58045376D01*
X115555510Y-58031058D01*
X115554800Y-58016600D01*
X115554800Y-57721600D01*
X115555510Y-57707142D01*
X115557634Y-57692824D01*
X115561151Y-57678783D01*
X115566028Y-57665154D01*
X115572217Y-57652069D01*
X115579658Y-57639653D01*
X115588281Y-57628027D01*
X115598002Y-57617302D01*
X115608727Y-57607581D01*
X115620353Y-57598958D01*
X115632769Y-57591517D01*
X115645854Y-57585328D01*
X115659483Y-57580451D01*
X115673524Y-57576934D01*
X115687842Y-57574810D01*
X115702300Y-57574100D01*
X116047300Y-57574100D01*
X116061758Y-57574810D01*
G37*
G36*
X116061758Y-58544810D02*
G01*
X116076076Y-58546934D01*
X116090117Y-58550451D01*
X116103746Y-58555328D01*
X116116831Y-58561517D01*
X116129247Y-58568958D01*
X116140873Y-58577581D01*
X116151598Y-58587302D01*
X116161319Y-58598027D01*
X116169942Y-58609653D01*
X116177383Y-58622069D01*
X116183572Y-58635154D01*
X116188449Y-58648783D01*
X116191966Y-58662824D01*
X116194090Y-58677142D01*
X116194800Y-58691600D01*
X116194800Y-58986600D01*
X116194090Y-59001058D01*
X116191966Y-59015376D01*
X116188449Y-59029417D01*
X116183572Y-59043046D01*
X116177383Y-59056131D01*
X116169942Y-59068547D01*
X116161319Y-59080173D01*
X116151598Y-59090898D01*
X116140873Y-59100619D01*
X116129247Y-59109242D01*
X116116831Y-59116683D01*
X116103746Y-59122872D01*
X116090117Y-59127749D01*
X116076076Y-59131266D01*
X116061758Y-59133390D01*
X116047300Y-59134100D01*
X115702300Y-59134100D01*
X115687842Y-59133390D01*
X115673524Y-59131266D01*
X115659483Y-59127749D01*
X115645854Y-59122872D01*
X115632769Y-59116683D01*
X115620353Y-59109242D01*
X115608727Y-59100619D01*
X115598002Y-59090898D01*
X115588281Y-59080173D01*
X115579658Y-59068547D01*
X115572217Y-59056131D01*
X115566028Y-59043046D01*
X115561151Y-59029417D01*
X115557634Y-59015376D01*
X115555510Y-59001058D01*
X115554800Y-58986600D01*
X115554800Y-58691600D01*
X115555510Y-58677142D01*
X115557634Y-58662824D01*
X115561151Y-58648783D01*
X115566028Y-58635154D01*
X115572217Y-58622069D01*
X115579658Y-58609653D01*
X115588281Y-58598027D01*
X115598002Y-58587302D01*
X115608727Y-58577581D01*
X115620353Y-58568958D01*
X115632769Y-58561517D01*
X115645854Y-58555328D01*
X115659483Y-58550451D01*
X115673524Y-58546934D01*
X115687842Y-58544810D01*
X115702300Y-58544100D01*
X116047300Y-58544100D01*
X116061758Y-58544810D01*
G37*
M02*
