G04 #@! TF.GenerationSoftware,KiCad,Pcbnew,(5.1.2)-1*
G04 #@! TF.CreationDate,2020-11-21T10:17:18+01:00*
G04 #@! TF.ProjectId,HB-ES-PMSwX-Pl_Gosund,48422d45-532d-4504-9d53-77582d506c5f,rev?*
G04 #@! TF.SameCoordinates,Original*
G04 #@! TF.FileFunction,Copper,L4,Bot*
G04 #@! TF.FilePolarity,Positive*
%FSLAX46Y46*%
G04 Gerber Fmt 4.6, Leading zero omitted, Abs format (unit mm)*
G04 Created by KiCad (PCBNEW (5.1.2)-1) date 2020-11-21 10:17:18*
%MOMM*%
%LPD*%
G04 APERTURE LIST*
%ADD10C,0.125000*%
%ADD11R,3.000000X0.700000*%
%ADD12C,0.100000*%
%ADD13C,0.250000*%
%ADD14C,5.200000*%
%ADD15C,0.590000*%
%ADD16R,1.700000X1.700000*%
%ADD17C,0.800000*%
%ADD18C,0.500000*%
%ADD19C,0.250000*%
G04 APERTURE END LIST*
D10*
X123436890Y-57391395D02*
X123936890Y-57558061D01*
X123436890Y-57724728D01*
X123936890Y-58153300D02*
X123936890Y-57867585D01*
X123936890Y-58010442D02*
X123436890Y-58010442D01*
X123508319Y-57962823D01*
X123555938Y-57915204D01*
X123579747Y-57867585D01*
X123889271Y-58367585D02*
X123913080Y-58391395D01*
X123936890Y-58367585D01*
X123913080Y-58343776D01*
X123889271Y-58367585D01*
X123936890Y-58367585D01*
X123436890Y-58700919D02*
X123436890Y-58748538D01*
X123460700Y-58796157D01*
X123484509Y-58819966D01*
X123532128Y-58843776D01*
X123627366Y-58867585D01*
X123746414Y-58867585D01*
X123841652Y-58843776D01*
X123889271Y-58819966D01*
X123913080Y-58796157D01*
X123936890Y-58748538D01*
X123936890Y-58700919D01*
X123913080Y-58653300D01*
X123889271Y-58629490D01*
X123841652Y-58605680D01*
X123746414Y-58581871D01*
X123627366Y-58581871D01*
X123532128Y-58605680D01*
X123484509Y-58629490D01*
X123460700Y-58653300D01*
X123436890Y-58700919D01*
X124838590Y-57371680D02*
X124505257Y-57371680D01*
X124552876Y-57371680D02*
X124529066Y-57395490D01*
X124505257Y-57443109D01*
X124505257Y-57514538D01*
X124529066Y-57562157D01*
X124576685Y-57585966D01*
X124838590Y-57585966D01*
X124576685Y-57585966D02*
X124529066Y-57609776D01*
X124505257Y-57657395D01*
X124505257Y-57728823D01*
X124529066Y-57776442D01*
X124576685Y-57800252D01*
X124838590Y-57800252D01*
X124838590Y-58252633D02*
X124576685Y-58252633D01*
X124529066Y-58228823D01*
X124505257Y-58181204D01*
X124505257Y-58085966D01*
X124529066Y-58038347D01*
X124814780Y-58252633D02*
X124838590Y-58205014D01*
X124838590Y-58085966D01*
X124814780Y-58038347D01*
X124767161Y-58014538D01*
X124719542Y-58014538D01*
X124671923Y-58038347D01*
X124648114Y-58085966D01*
X124648114Y-58205014D01*
X124624304Y-58252633D01*
X124838590Y-58443109D02*
X124505257Y-58705014D01*
X124505257Y-58443109D02*
X124838590Y-58705014D01*
X124838590Y-58847871D02*
X124505257Y-59109776D01*
X124505257Y-58847871D02*
X124838590Y-59109776D01*
X124338590Y-59252633D02*
X124338590Y-59562157D01*
X124529066Y-59395490D01*
X124529066Y-59466919D01*
X124552876Y-59514538D01*
X124576685Y-59538347D01*
X124624304Y-59562157D01*
X124743352Y-59562157D01*
X124790971Y-59538347D01*
X124814780Y-59514538D01*
X124838590Y-59466919D01*
X124838590Y-59324061D01*
X124814780Y-59276442D01*
X124790971Y-59252633D01*
X124838590Y-60038347D02*
X124838590Y-59752633D01*
X124838590Y-59895490D02*
X124338590Y-59895490D01*
X124410019Y-59847871D01*
X124457638Y-59800252D01*
X124481447Y-59752633D01*
X124338590Y-60347871D02*
X124338590Y-60395490D01*
X124362400Y-60443109D01*
X124386209Y-60466919D01*
X124433828Y-60490728D01*
X124529066Y-60514538D01*
X124648114Y-60514538D01*
X124743352Y-60490728D01*
X124790971Y-60466919D01*
X124814780Y-60443109D01*
X124838590Y-60395490D01*
X124838590Y-60347871D01*
X124814780Y-60300252D01*
X124790971Y-60276442D01*
X124743352Y-60252633D01*
X124648114Y-60228823D01*
X124529066Y-60228823D01*
X124433828Y-60252633D01*
X124386209Y-60276442D01*
X124362400Y-60300252D01*
X124338590Y-60347871D01*
X124338590Y-60966919D02*
X124338590Y-60728823D01*
X124576685Y-60705014D01*
X124552876Y-60728823D01*
X124529066Y-60776442D01*
X124529066Y-60895490D01*
X124552876Y-60943109D01*
X124576685Y-60966919D01*
X124624304Y-60990728D01*
X124743352Y-60990728D01*
X124790971Y-60966919D01*
X124814780Y-60943109D01*
X124838590Y-60895490D01*
X124838590Y-60776442D01*
X124814780Y-60728823D01*
X124790971Y-60705014D01*
X126768990Y-57468723D02*
X126268990Y-57468723D01*
X126507085Y-57468723D02*
X126507085Y-57754438D01*
X126768990Y-57754438D02*
X126268990Y-57754438D01*
X126507085Y-58159200D02*
X126530895Y-58230628D01*
X126554704Y-58254438D01*
X126602323Y-58278247D01*
X126673752Y-58278247D01*
X126721371Y-58254438D01*
X126745180Y-58230628D01*
X126768990Y-58183009D01*
X126768990Y-57992533D01*
X126268990Y-57992533D01*
X126268990Y-58159200D01*
X126292800Y-58206819D01*
X126316609Y-58230628D01*
X126364228Y-58254438D01*
X126411847Y-58254438D01*
X126459466Y-58230628D01*
X126483276Y-58206819D01*
X126507085Y-58159200D01*
X126507085Y-57992533D01*
X126578514Y-58492533D02*
X126578514Y-58873485D01*
X126507085Y-59111580D02*
X126507085Y-59278247D01*
X126768990Y-59349676D02*
X126768990Y-59111580D01*
X126268990Y-59111580D01*
X126268990Y-59349676D01*
X126745180Y-59540152D02*
X126768990Y-59611580D01*
X126768990Y-59730628D01*
X126745180Y-59778247D01*
X126721371Y-59802057D01*
X126673752Y-59825866D01*
X126626133Y-59825866D01*
X126578514Y-59802057D01*
X126554704Y-59778247D01*
X126530895Y-59730628D01*
X126507085Y-59635390D01*
X126483276Y-59587771D01*
X126459466Y-59563961D01*
X126411847Y-59540152D01*
X126364228Y-59540152D01*
X126316609Y-59563961D01*
X126292800Y-59587771D01*
X126268990Y-59635390D01*
X126268990Y-59754438D01*
X126292800Y-59825866D01*
X126578514Y-60040152D02*
X126578514Y-60421104D01*
X126768990Y-60659200D02*
X126268990Y-60659200D01*
X126268990Y-60849676D01*
X126292800Y-60897295D01*
X126316609Y-60921104D01*
X126364228Y-60944914D01*
X126435657Y-60944914D01*
X126483276Y-60921104D01*
X126507085Y-60897295D01*
X126530895Y-60849676D01*
X126530895Y-60659200D01*
X126768990Y-61159200D02*
X126268990Y-61159200D01*
X126626133Y-61325866D01*
X126268990Y-61492533D01*
X126768990Y-61492533D01*
X126745180Y-61706819D02*
X126768990Y-61778247D01*
X126768990Y-61897295D01*
X126745180Y-61944914D01*
X126721371Y-61968723D01*
X126673752Y-61992533D01*
X126626133Y-61992533D01*
X126578514Y-61968723D01*
X126554704Y-61944914D01*
X126530895Y-61897295D01*
X126507085Y-61802057D01*
X126483276Y-61754438D01*
X126459466Y-61730628D01*
X126411847Y-61706819D01*
X126364228Y-61706819D01*
X126316609Y-61730628D01*
X126292800Y-61754438D01*
X126268990Y-61802057D01*
X126268990Y-61921104D01*
X126292800Y-61992533D01*
X126435657Y-62159200D02*
X126768990Y-62254438D01*
X126530895Y-62349676D01*
X126768990Y-62444914D01*
X126435657Y-62540152D01*
X126268990Y-62683009D02*
X126768990Y-63016342D01*
X126268990Y-63016342D02*
X126768990Y-62683009D01*
X126578514Y-63206819D02*
X126578514Y-63587771D01*
X126768990Y-63825866D02*
X126268990Y-63825866D01*
X126268990Y-64016342D01*
X126292800Y-64063961D01*
X126316609Y-64087771D01*
X126364228Y-64111580D01*
X126435657Y-64111580D01*
X126483276Y-64087771D01*
X126507085Y-64063961D01*
X126530895Y-64016342D01*
X126530895Y-63825866D01*
X126768990Y-64397295D02*
X126745180Y-64349676D01*
X126697561Y-64325866D01*
X126268990Y-64325866D01*
D11*
X110909100Y-61660000D03*
X110909100Y-64460000D03*
X110909100Y-63060000D03*
X110909100Y-67260000D03*
X110909100Y-65860000D03*
X110909100Y-68660000D03*
D12*
G36*
X123579626Y-65773701D02*
G01*
X123585693Y-65774601D01*
X123591643Y-65776091D01*
X123597418Y-65778158D01*
X123602962Y-65780780D01*
X123608223Y-65783933D01*
X123613150Y-65787587D01*
X123617694Y-65791706D01*
X123621813Y-65796250D01*
X123625467Y-65801177D01*
X123628620Y-65806438D01*
X123631242Y-65811982D01*
X123633309Y-65817757D01*
X123634799Y-65823707D01*
X123635699Y-65829774D01*
X123636000Y-65835900D01*
X123636000Y-65960900D01*
X123635699Y-65967026D01*
X123634799Y-65973093D01*
X123633309Y-65979043D01*
X123631242Y-65984818D01*
X123628620Y-65990362D01*
X123625467Y-65995623D01*
X123621813Y-66000550D01*
X123617694Y-66005094D01*
X123613150Y-66009213D01*
X123608223Y-66012867D01*
X123602962Y-66016020D01*
X123597418Y-66018642D01*
X123591643Y-66020709D01*
X123585693Y-66022199D01*
X123579626Y-66023099D01*
X123573500Y-66023400D01*
X122623500Y-66023400D01*
X122617374Y-66023099D01*
X122611307Y-66022199D01*
X122605357Y-66020709D01*
X122599582Y-66018642D01*
X122594038Y-66016020D01*
X122588777Y-66012867D01*
X122583850Y-66009213D01*
X122579306Y-66005094D01*
X122575187Y-66000550D01*
X122571533Y-65995623D01*
X122568380Y-65990362D01*
X122565758Y-65984818D01*
X122563691Y-65979043D01*
X122562201Y-65973093D01*
X122561301Y-65967026D01*
X122561000Y-65960900D01*
X122561000Y-65835900D01*
X122561301Y-65829774D01*
X122562201Y-65823707D01*
X122563691Y-65817757D01*
X122565758Y-65811982D01*
X122568380Y-65806438D01*
X122571533Y-65801177D01*
X122575187Y-65796250D01*
X122579306Y-65791706D01*
X122583850Y-65787587D01*
X122588777Y-65783933D01*
X122594038Y-65780780D01*
X122599582Y-65778158D01*
X122605357Y-65776091D01*
X122611307Y-65774601D01*
X122617374Y-65773701D01*
X122623500Y-65773400D01*
X123573500Y-65773400D01*
X123579626Y-65773701D01*
X123579626Y-65773701D01*
G37*
D13*
X123098500Y-65898400D03*
D12*
G36*
X123579626Y-65273701D02*
G01*
X123585693Y-65274601D01*
X123591643Y-65276091D01*
X123597418Y-65278158D01*
X123602962Y-65280780D01*
X123608223Y-65283933D01*
X123613150Y-65287587D01*
X123617694Y-65291706D01*
X123621813Y-65296250D01*
X123625467Y-65301177D01*
X123628620Y-65306438D01*
X123631242Y-65311982D01*
X123633309Y-65317757D01*
X123634799Y-65323707D01*
X123635699Y-65329774D01*
X123636000Y-65335900D01*
X123636000Y-65460900D01*
X123635699Y-65467026D01*
X123634799Y-65473093D01*
X123633309Y-65479043D01*
X123631242Y-65484818D01*
X123628620Y-65490362D01*
X123625467Y-65495623D01*
X123621813Y-65500550D01*
X123617694Y-65505094D01*
X123613150Y-65509213D01*
X123608223Y-65512867D01*
X123602962Y-65516020D01*
X123597418Y-65518642D01*
X123591643Y-65520709D01*
X123585693Y-65522199D01*
X123579626Y-65523099D01*
X123573500Y-65523400D01*
X122623500Y-65523400D01*
X122617374Y-65523099D01*
X122611307Y-65522199D01*
X122605357Y-65520709D01*
X122599582Y-65518642D01*
X122594038Y-65516020D01*
X122588777Y-65512867D01*
X122583850Y-65509213D01*
X122579306Y-65505094D01*
X122575187Y-65500550D01*
X122571533Y-65495623D01*
X122568380Y-65490362D01*
X122565758Y-65484818D01*
X122563691Y-65479043D01*
X122562201Y-65473093D01*
X122561301Y-65467026D01*
X122561000Y-65460900D01*
X122561000Y-65335900D01*
X122561301Y-65329774D01*
X122562201Y-65323707D01*
X122563691Y-65317757D01*
X122565758Y-65311982D01*
X122568380Y-65306438D01*
X122571533Y-65301177D01*
X122575187Y-65296250D01*
X122579306Y-65291706D01*
X122583850Y-65287587D01*
X122588777Y-65283933D01*
X122594038Y-65280780D01*
X122599582Y-65278158D01*
X122605357Y-65276091D01*
X122611307Y-65274601D01*
X122617374Y-65273701D01*
X122623500Y-65273400D01*
X123573500Y-65273400D01*
X123579626Y-65273701D01*
X123579626Y-65273701D01*
G37*
D13*
X123098500Y-65398400D03*
D12*
G36*
X123579626Y-64773701D02*
G01*
X123585693Y-64774601D01*
X123591643Y-64776091D01*
X123597418Y-64778158D01*
X123602962Y-64780780D01*
X123608223Y-64783933D01*
X123613150Y-64787587D01*
X123617694Y-64791706D01*
X123621813Y-64796250D01*
X123625467Y-64801177D01*
X123628620Y-64806438D01*
X123631242Y-64811982D01*
X123633309Y-64817757D01*
X123634799Y-64823707D01*
X123635699Y-64829774D01*
X123636000Y-64835900D01*
X123636000Y-64960900D01*
X123635699Y-64967026D01*
X123634799Y-64973093D01*
X123633309Y-64979043D01*
X123631242Y-64984818D01*
X123628620Y-64990362D01*
X123625467Y-64995623D01*
X123621813Y-65000550D01*
X123617694Y-65005094D01*
X123613150Y-65009213D01*
X123608223Y-65012867D01*
X123602962Y-65016020D01*
X123597418Y-65018642D01*
X123591643Y-65020709D01*
X123585693Y-65022199D01*
X123579626Y-65023099D01*
X123573500Y-65023400D01*
X122623500Y-65023400D01*
X122617374Y-65023099D01*
X122611307Y-65022199D01*
X122605357Y-65020709D01*
X122599582Y-65018642D01*
X122594038Y-65016020D01*
X122588777Y-65012867D01*
X122583850Y-65009213D01*
X122579306Y-65005094D01*
X122575187Y-65000550D01*
X122571533Y-64995623D01*
X122568380Y-64990362D01*
X122565758Y-64984818D01*
X122563691Y-64979043D01*
X122562201Y-64973093D01*
X122561301Y-64967026D01*
X122561000Y-64960900D01*
X122561000Y-64835900D01*
X122561301Y-64829774D01*
X122562201Y-64823707D01*
X122563691Y-64817757D01*
X122565758Y-64811982D01*
X122568380Y-64806438D01*
X122571533Y-64801177D01*
X122575187Y-64796250D01*
X122579306Y-64791706D01*
X122583850Y-64787587D01*
X122588777Y-64783933D01*
X122594038Y-64780780D01*
X122599582Y-64778158D01*
X122605357Y-64776091D01*
X122611307Y-64774601D01*
X122617374Y-64773701D01*
X122623500Y-64773400D01*
X123573500Y-64773400D01*
X123579626Y-64773701D01*
X123579626Y-64773701D01*
G37*
D13*
X123098500Y-64898400D03*
D12*
G36*
X123579626Y-64273701D02*
G01*
X123585693Y-64274601D01*
X123591643Y-64276091D01*
X123597418Y-64278158D01*
X123602962Y-64280780D01*
X123608223Y-64283933D01*
X123613150Y-64287587D01*
X123617694Y-64291706D01*
X123621813Y-64296250D01*
X123625467Y-64301177D01*
X123628620Y-64306438D01*
X123631242Y-64311982D01*
X123633309Y-64317757D01*
X123634799Y-64323707D01*
X123635699Y-64329774D01*
X123636000Y-64335900D01*
X123636000Y-64460900D01*
X123635699Y-64467026D01*
X123634799Y-64473093D01*
X123633309Y-64479043D01*
X123631242Y-64484818D01*
X123628620Y-64490362D01*
X123625467Y-64495623D01*
X123621813Y-64500550D01*
X123617694Y-64505094D01*
X123613150Y-64509213D01*
X123608223Y-64512867D01*
X123602962Y-64516020D01*
X123597418Y-64518642D01*
X123591643Y-64520709D01*
X123585693Y-64522199D01*
X123579626Y-64523099D01*
X123573500Y-64523400D01*
X122623500Y-64523400D01*
X122617374Y-64523099D01*
X122611307Y-64522199D01*
X122605357Y-64520709D01*
X122599582Y-64518642D01*
X122594038Y-64516020D01*
X122588777Y-64512867D01*
X122583850Y-64509213D01*
X122579306Y-64505094D01*
X122575187Y-64500550D01*
X122571533Y-64495623D01*
X122568380Y-64490362D01*
X122565758Y-64484818D01*
X122563691Y-64479043D01*
X122562201Y-64473093D01*
X122561301Y-64467026D01*
X122561000Y-64460900D01*
X122561000Y-64335900D01*
X122561301Y-64329774D01*
X122562201Y-64323707D01*
X122563691Y-64317757D01*
X122565758Y-64311982D01*
X122568380Y-64306438D01*
X122571533Y-64301177D01*
X122575187Y-64296250D01*
X122579306Y-64291706D01*
X122583850Y-64287587D01*
X122588777Y-64283933D01*
X122594038Y-64280780D01*
X122599582Y-64278158D01*
X122605357Y-64276091D01*
X122611307Y-64274601D01*
X122617374Y-64273701D01*
X122623500Y-64273400D01*
X123573500Y-64273400D01*
X123579626Y-64273701D01*
X123579626Y-64273701D01*
G37*
D13*
X123098500Y-64398400D03*
D12*
G36*
X123579626Y-63773701D02*
G01*
X123585693Y-63774601D01*
X123591643Y-63776091D01*
X123597418Y-63778158D01*
X123602962Y-63780780D01*
X123608223Y-63783933D01*
X123613150Y-63787587D01*
X123617694Y-63791706D01*
X123621813Y-63796250D01*
X123625467Y-63801177D01*
X123628620Y-63806438D01*
X123631242Y-63811982D01*
X123633309Y-63817757D01*
X123634799Y-63823707D01*
X123635699Y-63829774D01*
X123636000Y-63835900D01*
X123636000Y-63960900D01*
X123635699Y-63967026D01*
X123634799Y-63973093D01*
X123633309Y-63979043D01*
X123631242Y-63984818D01*
X123628620Y-63990362D01*
X123625467Y-63995623D01*
X123621813Y-64000550D01*
X123617694Y-64005094D01*
X123613150Y-64009213D01*
X123608223Y-64012867D01*
X123602962Y-64016020D01*
X123597418Y-64018642D01*
X123591643Y-64020709D01*
X123585693Y-64022199D01*
X123579626Y-64023099D01*
X123573500Y-64023400D01*
X122623500Y-64023400D01*
X122617374Y-64023099D01*
X122611307Y-64022199D01*
X122605357Y-64020709D01*
X122599582Y-64018642D01*
X122594038Y-64016020D01*
X122588777Y-64012867D01*
X122583850Y-64009213D01*
X122579306Y-64005094D01*
X122575187Y-64000550D01*
X122571533Y-63995623D01*
X122568380Y-63990362D01*
X122565758Y-63984818D01*
X122563691Y-63979043D01*
X122562201Y-63973093D01*
X122561301Y-63967026D01*
X122561000Y-63960900D01*
X122561000Y-63835900D01*
X122561301Y-63829774D01*
X122562201Y-63823707D01*
X122563691Y-63817757D01*
X122565758Y-63811982D01*
X122568380Y-63806438D01*
X122571533Y-63801177D01*
X122575187Y-63796250D01*
X122579306Y-63791706D01*
X122583850Y-63787587D01*
X122588777Y-63783933D01*
X122594038Y-63780780D01*
X122599582Y-63778158D01*
X122605357Y-63776091D01*
X122611307Y-63774601D01*
X122617374Y-63773701D01*
X122623500Y-63773400D01*
X123573500Y-63773400D01*
X123579626Y-63773701D01*
X123579626Y-63773701D01*
G37*
D13*
X123098500Y-63898400D03*
D12*
G36*
X123579626Y-63273701D02*
G01*
X123585693Y-63274601D01*
X123591643Y-63276091D01*
X123597418Y-63278158D01*
X123602962Y-63280780D01*
X123608223Y-63283933D01*
X123613150Y-63287587D01*
X123617694Y-63291706D01*
X123621813Y-63296250D01*
X123625467Y-63301177D01*
X123628620Y-63306438D01*
X123631242Y-63311982D01*
X123633309Y-63317757D01*
X123634799Y-63323707D01*
X123635699Y-63329774D01*
X123636000Y-63335900D01*
X123636000Y-63460900D01*
X123635699Y-63467026D01*
X123634799Y-63473093D01*
X123633309Y-63479043D01*
X123631242Y-63484818D01*
X123628620Y-63490362D01*
X123625467Y-63495623D01*
X123621813Y-63500550D01*
X123617694Y-63505094D01*
X123613150Y-63509213D01*
X123608223Y-63512867D01*
X123602962Y-63516020D01*
X123597418Y-63518642D01*
X123591643Y-63520709D01*
X123585693Y-63522199D01*
X123579626Y-63523099D01*
X123573500Y-63523400D01*
X122623500Y-63523400D01*
X122617374Y-63523099D01*
X122611307Y-63522199D01*
X122605357Y-63520709D01*
X122599582Y-63518642D01*
X122594038Y-63516020D01*
X122588777Y-63512867D01*
X122583850Y-63509213D01*
X122579306Y-63505094D01*
X122575187Y-63500550D01*
X122571533Y-63495623D01*
X122568380Y-63490362D01*
X122565758Y-63484818D01*
X122563691Y-63479043D01*
X122562201Y-63473093D01*
X122561301Y-63467026D01*
X122561000Y-63460900D01*
X122561000Y-63335900D01*
X122561301Y-63329774D01*
X122562201Y-63323707D01*
X122563691Y-63317757D01*
X122565758Y-63311982D01*
X122568380Y-63306438D01*
X122571533Y-63301177D01*
X122575187Y-63296250D01*
X122579306Y-63291706D01*
X122583850Y-63287587D01*
X122588777Y-63283933D01*
X122594038Y-63280780D01*
X122599582Y-63278158D01*
X122605357Y-63276091D01*
X122611307Y-63274601D01*
X122617374Y-63273701D01*
X122623500Y-63273400D01*
X123573500Y-63273400D01*
X123579626Y-63273701D01*
X123579626Y-63273701D01*
G37*
D13*
X123098500Y-63398400D03*
D12*
G36*
X123579626Y-62773701D02*
G01*
X123585693Y-62774601D01*
X123591643Y-62776091D01*
X123597418Y-62778158D01*
X123602962Y-62780780D01*
X123608223Y-62783933D01*
X123613150Y-62787587D01*
X123617694Y-62791706D01*
X123621813Y-62796250D01*
X123625467Y-62801177D01*
X123628620Y-62806438D01*
X123631242Y-62811982D01*
X123633309Y-62817757D01*
X123634799Y-62823707D01*
X123635699Y-62829774D01*
X123636000Y-62835900D01*
X123636000Y-62960900D01*
X123635699Y-62967026D01*
X123634799Y-62973093D01*
X123633309Y-62979043D01*
X123631242Y-62984818D01*
X123628620Y-62990362D01*
X123625467Y-62995623D01*
X123621813Y-63000550D01*
X123617694Y-63005094D01*
X123613150Y-63009213D01*
X123608223Y-63012867D01*
X123602962Y-63016020D01*
X123597418Y-63018642D01*
X123591643Y-63020709D01*
X123585693Y-63022199D01*
X123579626Y-63023099D01*
X123573500Y-63023400D01*
X122623500Y-63023400D01*
X122617374Y-63023099D01*
X122611307Y-63022199D01*
X122605357Y-63020709D01*
X122599582Y-63018642D01*
X122594038Y-63016020D01*
X122588777Y-63012867D01*
X122583850Y-63009213D01*
X122579306Y-63005094D01*
X122575187Y-63000550D01*
X122571533Y-62995623D01*
X122568380Y-62990362D01*
X122565758Y-62984818D01*
X122563691Y-62979043D01*
X122562201Y-62973093D01*
X122561301Y-62967026D01*
X122561000Y-62960900D01*
X122561000Y-62835900D01*
X122561301Y-62829774D01*
X122562201Y-62823707D01*
X122563691Y-62817757D01*
X122565758Y-62811982D01*
X122568380Y-62806438D01*
X122571533Y-62801177D01*
X122575187Y-62796250D01*
X122579306Y-62791706D01*
X122583850Y-62787587D01*
X122588777Y-62783933D01*
X122594038Y-62780780D01*
X122599582Y-62778158D01*
X122605357Y-62776091D01*
X122611307Y-62774601D01*
X122617374Y-62773701D01*
X122623500Y-62773400D01*
X123573500Y-62773400D01*
X123579626Y-62773701D01*
X123579626Y-62773701D01*
G37*
D13*
X123098500Y-62898400D03*
D12*
G36*
X123579626Y-62273701D02*
G01*
X123585693Y-62274601D01*
X123591643Y-62276091D01*
X123597418Y-62278158D01*
X123602962Y-62280780D01*
X123608223Y-62283933D01*
X123613150Y-62287587D01*
X123617694Y-62291706D01*
X123621813Y-62296250D01*
X123625467Y-62301177D01*
X123628620Y-62306438D01*
X123631242Y-62311982D01*
X123633309Y-62317757D01*
X123634799Y-62323707D01*
X123635699Y-62329774D01*
X123636000Y-62335900D01*
X123636000Y-62460900D01*
X123635699Y-62467026D01*
X123634799Y-62473093D01*
X123633309Y-62479043D01*
X123631242Y-62484818D01*
X123628620Y-62490362D01*
X123625467Y-62495623D01*
X123621813Y-62500550D01*
X123617694Y-62505094D01*
X123613150Y-62509213D01*
X123608223Y-62512867D01*
X123602962Y-62516020D01*
X123597418Y-62518642D01*
X123591643Y-62520709D01*
X123585693Y-62522199D01*
X123579626Y-62523099D01*
X123573500Y-62523400D01*
X122623500Y-62523400D01*
X122617374Y-62523099D01*
X122611307Y-62522199D01*
X122605357Y-62520709D01*
X122599582Y-62518642D01*
X122594038Y-62516020D01*
X122588777Y-62512867D01*
X122583850Y-62509213D01*
X122579306Y-62505094D01*
X122575187Y-62500550D01*
X122571533Y-62495623D01*
X122568380Y-62490362D01*
X122565758Y-62484818D01*
X122563691Y-62479043D01*
X122562201Y-62473093D01*
X122561301Y-62467026D01*
X122561000Y-62460900D01*
X122561000Y-62335900D01*
X122561301Y-62329774D01*
X122562201Y-62323707D01*
X122563691Y-62317757D01*
X122565758Y-62311982D01*
X122568380Y-62306438D01*
X122571533Y-62301177D01*
X122575187Y-62296250D01*
X122579306Y-62291706D01*
X122583850Y-62287587D01*
X122588777Y-62283933D01*
X122594038Y-62280780D01*
X122599582Y-62278158D01*
X122605357Y-62276091D01*
X122611307Y-62274601D01*
X122617374Y-62273701D01*
X122623500Y-62273400D01*
X123573500Y-62273400D01*
X123579626Y-62273701D01*
X123579626Y-62273701D01*
G37*
D13*
X123098500Y-62398400D03*
D12*
G36*
X123579626Y-61773701D02*
G01*
X123585693Y-61774601D01*
X123591643Y-61776091D01*
X123597418Y-61778158D01*
X123602962Y-61780780D01*
X123608223Y-61783933D01*
X123613150Y-61787587D01*
X123617694Y-61791706D01*
X123621813Y-61796250D01*
X123625467Y-61801177D01*
X123628620Y-61806438D01*
X123631242Y-61811982D01*
X123633309Y-61817757D01*
X123634799Y-61823707D01*
X123635699Y-61829774D01*
X123636000Y-61835900D01*
X123636000Y-61960900D01*
X123635699Y-61967026D01*
X123634799Y-61973093D01*
X123633309Y-61979043D01*
X123631242Y-61984818D01*
X123628620Y-61990362D01*
X123625467Y-61995623D01*
X123621813Y-62000550D01*
X123617694Y-62005094D01*
X123613150Y-62009213D01*
X123608223Y-62012867D01*
X123602962Y-62016020D01*
X123597418Y-62018642D01*
X123591643Y-62020709D01*
X123585693Y-62022199D01*
X123579626Y-62023099D01*
X123573500Y-62023400D01*
X122623500Y-62023400D01*
X122617374Y-62023099D01*
X122611307Y-62022199D01*
X122605357Y-62020709D01*
X122599582Y-62018642D01*
X122594038Y-62016020D01*
X122588777Y-62012867D01*
X122583850Y-62009213D01*
X122579306Y-62005094D01*
X122575187Y-62000550D01*
X122571533Y-61995623D01*
X122568380Y-61990362D01*
X122565758Y-61984818D01*
X122563691Y-61979043D01*
X122562201Y-61973093D01*
X122561301Y-61967026D01*
X122561000Y-61960900D01*
X122561000Y-61835900D01*
X122561301Y-61829774D01*
X122562201Y-61823707D01*
X122563691Y-61817757D01*
X122565758Y-61811982D01*
X122568380Y-61806438D01*
X122571533Y-61801177D01*
X122575187Y-61796250D01*
X122579306Y-61791706D01*
X122583850Y-61787587D01*
X122588777Y-61783933D01*
X122594038Y-61780780D01*
X122599582Y-61778158D01*
X122605357Y-61776091D01*
X122611307Y-61774601D01*
X122617374Y-61773701D01*
X122623500Y-61773400D01*
X123573500Y-61773400D01*
X123579626Y-61773701D01*
X123579626Y-61773701D01*
G37*
D13*
X123098500Y-61898400D03*
D12*
G36*
X123579626Y-61273701D02*
G01*
X123585693Y-61274601D01*
X123591643Y-61276091D01*
X123597418Y-61278158D01*
X123602962Y-61280780D01*
X123608223Y-61283933D01*
X123613150Y-61287587D01*
X123617694Y-61291706D01*
X123621813Y-61296250D01*
X123625467Y-61301177D01*
X123628620Y-61306438D01*
X123631242Y-61311982D01*
X123633309Y-61317757D01*
X123634799Y-61323707D01*
X123635699Y-61329774D01*
X123636000Y-61335900D01*
X123636000Y-61460900D01*
X123635699Y-61467026D01*
X123634799Y-61473093D01*
X123633309Y-61479043D01*
X123631242Y-61484818D01*
X123628620Y-61490362D01*
X123625467Y-61495623D01*
X123621813Y-61500550D01*
X123617694Y-61505094D01*
X123613150Y-61509213D01*
X123608223Y-61512867D01*
X123602962Y-61516020D01*
X123597418Y-61518642D01*
X123591643Y-61520709D01*
X123585693Y-61522199D01*
X123579626Y-61523099D01*
X123573500Y-61523400D01*
X122623500Y-61523400D01*
X122617374Y-61523099D01*
X122611307Y-61522199D01*
X122605357Y-61520709D01*
X122599582Y-61518642D01*
X122594038Y-61516020D01*
X122588777Y-61512867D01*
X122583850Y-61509213D01*
X122579306Y-61505094D01*
X122575187Y-61500550D01*
X122571533Y-61495623D01*
X122568380Y-61490362D01*
X122565758Y-61484818D01*
X122563691Y-61479043D01*
X122562201Y-61473093D01*
X122561301Y-61467026D01*
X122561000Y-61460900D01*
X122561000Y-61335900D01*
X122561301Y-61329774D01*
X122562201Y-61323707D01*
X122563691Y-61317757D01*
X122565758Y-61311982D01*
X122568380Y-61306438D01*
X122571533Y-61301177D01*
X122575187Y-61296250D01*
X122579306Y-61291706D01*
X122583850Y-61287587D01*
X122588777Y-61283933D01*
X122594038Y-61280780D01*
X122599582Y-61278158D01*
X122605357Y-61276091D01*
X122611307Y-61274601D01*
X122617374Y-61273701D01*
X122623500Y-61273400D01*
X123573500Y-61273400D01*
X123579626Y-61273701D01*
X123579626Y-61273701D01*
G37*
D13*
X123098500Y-61398400D03*
D12*
G36*
X123579626Y-60773701D02*
G01*
X123585693Y-60774601D01*
X123591643Y-60776091D01*
X123597418Y-60778158D01*
X123602962Y-60780780D01*
X123608223Y-60783933D01*
X123613150Y-60787587D01*
X123617694Y-60791706D01*
X123621813Y-60796250D01*
X123625467Y-60801177D01*
X123628620Y-60806438D01*
X123631242Y-60811982D01*
X123633309Y-60817757D01*
X123634799Y-60823707D01*
X123635699Y-60829774D01*
X123636000Y-60835900D01*
X123636000Y-60960900D01*
X123635699Y-60967026D01*
X123634799Y-60973093D01*
X123633309Y-60979043D01*
X123631242Y-60984818D01*
X123628620Y-60990362D01*
X123625467Y-60995623D01*
X123621813Y-61000550D01*
X123617694Y-61005094D01*
X123613150Y-61009213D01*
X123608223Y-61012867D01*
X123602962Y-61016020D01*
X123597418Y-61018642D01*
X123591643Y-61020709D01*
X123585693Y-61022199D01*
X123579626Y-61023099D01*
X123573500Y-61023400D01*
X122623500Y-61023400D01*
X122617374Y-61023099D01*
X122611307Y-61022199D01*
X122605357Y-61020709D01*
X122599582Y-61018642D01*
X122594038Y-61016020D01*
X122588777Y-61012867D01*
X122583850Y-61009213D01*
X122579306Y-61005094D01*
X122575187Y-61000550D01*
X122571533Y-60995623D01*
X122568380Y-60990362D01*
X122565758Y-60984818D01*
X122563691Y-60979043D01*
X122562201Y-60973093D01*
X122561301Y-60967026D01*
X122561000Y-60960900D01*
X122561000Y-60835900D01*
X122561301Y-60829774D01*
X122562201Y-60823707D01*
X122563691Y-60817757D01*
X122565758Y-60811982D01*
X122568380Y-60806438D01*
X122571533Y-60801177D01*
X122575187Y-60796250D01*
X122579306Y-60791706D01*
X122583850Y-60787587D01*
X122588777Y-60783933D01*
X122594038Y-60780780D01*
X122599582Y-60778158D01*
X122605357Y-60776091D01*
X122611307Y-60774601D01*
X122617374Y-60773701D01*
X122623500Y-60773400D01*
X123573500Y-60773400D01*
X123579626Y-60773701D01*
X123579626Y-60773701D01*
G37*
D13*
X123098500Y-60898400D03*
D12*
G36*
X122329626Y-59523701D02*
G01*
X122335693Y-59524601D01*
X122341643Y-59526091D01*
X122347418Y-59528158D01*
X122352962Y-59530780D01*
X122358223Y-59533933D01*
X122363150Y-59537587D01*
X122367694Y-59541706D01*
X122371813Y-59546250D01*
X122375467Y-59551177D01*
X122378620Y-59556438D01*
X122381242Y-59561982D01*
X122383309Y-59567757D01*
X122384799Y-59573707D01*
X122385699Y-59579774D01*
X122386000Y-59585900D01*
X122386000Y-60535900D01*
X122385699Y-60542026D01*
X122384799Y-60548093D01*
X122383309Y-60554043D01*
X122381242Y-60559818D01*
X122378620Y-60565362D01*
X122375467Y-60570623D01*
X122371813Y-60575550D01*
X122367694Y-60580094D01*
X122363150Y-60584213D01*
X122358223Y-60587867D01*
X122352962Y-60591020D01*
X122347418Y-60593642D01*
X122341643Y-60595709D01*
X122335693Y-60597199D01*
X122329626Y-60598099D01*
X122323500Y-60598400D01*
X122198500Y-60598400D01*
X122192374Y-60598099D01*
X122186307Y-60597199D01*
X122180357Y-60595709D01*
X122174582Y-60593642D01*
X122169038Y-60591020D01*
X122163777Y-60587867D01*
X122158850Y-60584213D01*
X122154306Y-60580094D01*
X122150187Y-60575550D01*
X122146533Y-60570623D01*
X122143380Y-60565362D01*
X122140758Y-60559818D01*
X122138691Y-60554043D01*
X122137201Y-60548093D01*
X122136301Y-60542026D01*
X122136000Y-60535900D01*
X122136000Y-59585900D01*
X122136301Y-59579774D01*
X122137201Y-59573707D01*
X122138691Y-59567757D01*
X122140758Y-59561982D01*
X122143380Y-59556438D01*
X122146533Y-59551177D01*
X122150187Y-59546250D01*
X122154306Y-59541706D01*
X122158850Y-59537587D01*
X122163777Y-59533933D01*
X122169038Y-59530780D01*
X122174582Y-59528158D01*
X122180357Y-59526091D01*
X122186307Y-59524601D01*
X122192374Y-59523701D01*
X122198500Y-59523400D01*
X122323500Y-59523400D01*
X122329626Y-59523701D01*
X122329626Y-59523701D01*
G37*
D13*
X122261000Y-60060900D03*
D12*
G36*
X121829626Y-59523701D02*
G01*
X121835693Y-59524601D01*
X121841643Y-59526091D01*
X121847418Y-59528158D01*
X121852962Y-59530780D01*
X121858223Y-59533933D01*
X121863150Y-59537587D01*
X121867694Y-59541706D01*
X121871813Y-59546250D01*
X121875467Y-59551177D01*
X121878620Y-59556438D01*
X121881242Y-59561982D01*
X121883309Y-59567757D01*
X121884799Y-59573707D01*
X121885699Y-59579774D01*
X121886000Y-59585900D01*
X121886000Y-60535900D01*
X121885699Y-60542026D01*
X121884799Y-60548093D01*
X121883309Y-60554043D01*
X121881242Y-60559818D01*
X121878620Y-60565362D01*
X121875467Y-60570623D01*
X121871813Y-60575550D01*
X121867694Y-60580094D01*
X121863150Y-60584213D01*
X121858223Y-60587867D01*
X121852962Y-60591020D01*
X121847418Y-60593642D01*
X121841643Y-60595709D01*
X121835693Y-60597199D01*
X121829626Y-60598099D01*
X121823500Y-60598400D01*
X121698500Y-60598400D01*
X121692374Y-60598099D01*
X121686307Y-60597199D01*
X121680357Y-60595709D01*
X121674582Y-60593642D01*
X121669038Y-60591020D01*
X121663777Y-60587867D01*
X121658850Y-60584213D01*
X121654306Y-60580094D01*
X121650187Y-60575550D01*
X121646533Y-60570623D01*
X121643380Y-60565362D01*
X121640758Y-60559818D01*
X121638691Y-60554043D01*
X121637201Y-60548093D01*
X121636301Y-60542026D01*
X121636000Y-60535900D01*
X121636000Y-59585900D01*
X121636301Y-59579774D01*
X121637201Y-59573707D01*
X121638691Y-59567757D01*
X121640758Y-59561982D01*
X121643380Y-59556438D01*
X121646533Y-59551177D01*
X121650187Y-59546250D01*
X121654306Y-59541706D01*
X121658850Y-59537587D01*
X121663777Y-59533933D01*
X121669038Y-59530780D01*
X121674582Y-59528158D01*
X121680357Y-59526091D01*
X121686307Y-59524601D01*
X121692374Y-59523701D01*
X121698500Y-59523400D01*
X121823500Y-59523400D01*
X121829626Y-59523701D01*
X121829626Y-59523701D01*
G37*
D13*
X121761000Y-60060900D03*
D12*
G36*
X121329626Y-59523701D02*
G01*
X121335693Y-59524601D01*
X121341643Y-59526091D01*
X121347418Y-59528158D01*
X121352962Y-59530780D01*
X121358223Y-59533933D01*
X121363150Y-59537587D01*
X121367694Y-59541706D01*
X121371813Y-59546250D01*
X121375467Y-59551177D01*
X121378620Y-59556438D01*
X121381242Y-59561982D01*
X121383309Y-59567757D01*
X121384799Y-59573707D01*
X121385699Y-59579774D01*
X121386000Y-59585900D01*
X121386000Y-60535900D01*
X121385699Y-60542026D01*
X121384799Y-60548093D01*
X121383309Y-60554043D01*
X121381242Y-60559818D01*
X121378620Y-60565362D01*
X121375467Y-60570623D01*
X121371813Y-60575550D01*
X121367694Y-60580094D01*
X121363150Y-60584213D01*
X121358223Y-60587867D01*
X121352962Y-60591020D01*
X121347418Y-60593642D01*
X121341643Y-60595709D01*
X121335693Y-60597199D01*
X121329626Y-60598099D01*
X121323500Y-60598400D01*
X121198500Y-60598400D01*
X121192374Y-60598099D01*
X121186307Y-60597199D01*
X121180357Y-60595709D01*
X121174582Y-60593642D01*
X121169038Y-60591020D01*
X121163777Y-60587867D01*
X121158850Y-60584213D01*
X121154306Y-60580094D01*
X121150187Y-60575550D01*
X121146533Y-60570623D01*
X121143380Y-60565362D01*
X121140758Y-60559818D01*
X121138691Y-60554043D01*
X121137201Y-60548093D01*
X121136301Y-60542026D01*
X121136000Y-60535900D01*
X121136000Y-59585900D01*
X121136301Y-59579774D01*
X121137201Y-59573707D01*
X121138691Y-59567757D01*
X121140758Y-59561982D01*
X121143380Y-59556438D01*
X121146533Y-59551177D01*
X121150187Y-59546250D01*
X121154306Y-59541706D01*
X121158850Y-59537587D01*
X121163777Y-59533933D01*
X121169038Y-59530780D01*
X121174582Y-59528158D01*
X121180357Y-59526091D01*
X121186307Y-59524601D01*
X121192374Y-59523701D01*
X121198500Y-59523400D01*
X121323500Y-59523400D01*
X121329626Y-59523701D01*
X121329626Y-59523701D01*
G37*
D13*
X121261000Y-60060900D03*
D12*
G36*
X120829626Y-59523701D02*
G01*
X120835693Y-59524601D01*
X120841643Y-59526091D01*
X120847418Y-59528158D01*
X120852962Y-59530780D01*
X120858223Y-59533933D01*
X120863150Y-59537587D01*
X120867694Y-59541706D01*
X120871813Y-59546250D01*
X120875467Y-59551177D01*
X120878620Y-59556438D01*
X120881242Y-59561982D01*
X120883309Y-59567757D01*
X120884799Y-59573707D01*
X120885699Y-59579774D01*
X120886000Y-59585900D01*
X120886000Y-60535900D01*
X120885699Y-60542026D01*
X120884799Y-60548093D01*
X120883309Y-60554043D01*
X120881242Y-60559818D01*
X120878620Y-60565362D01*
X120875467Y-60570623D01*
X120871813Y-60575550D01*
X120867694Y-60580094D01*
X120863150Y-60584213D01*
X120858223Y-60587867D01*
X120852962Y-60591020D01*
X120847418Y-60593642D01*
X120841643Y-60595709D01*
X120835693Y-60597199D01*
X120829626Y-60598099D01*
X120823500Y-60598400D01*
X120698500Y-60598400D01*
X120692374Y-60598099D01*
X120686307Y-60597199D01*
X120680357Y-60595709D01*
X120674582Y-60593642D01*
X120669038Y-60591020D01*
X120663777Y-60587867D01*
X120658850Y-60584213D01*
X120654306Y-60580094D01*
X120650187Y-60575550D01*
X120646533Y-60570623D01*
X120643380Y-60565362D01*
X120640758Y-60559818D01*
X120638691Y-60554043D01*
X120637201Y-60548093D01*
X120636301Y-60542026D01*
X120636000Y-60535900D01*
X120636000Y-59585900D01*
X120636301Y-59579774D01*
X120637201Y-59573707D01*
X120638691Y-59567757D01*
X120640758Y-59561982D01*
X120643380Y-59556438D01*
X120646533Y-59551177D01*
X120650187Y-59546250D01*
X120654306Y-59541706D01*
X120658850Y-59537587D01*
X120663777Y-59533933D01*
X120669038Y-59530780D01*
X120674582Y-59528158D01*
X120680357Y-59526091D01*
X120686307Y-59524601D01*
X120692374Y-59523701D01*
X120698500Y-59523400D01*
X120823500Y-59523400D01*
X120829626Y-59523701D01*
X120829626Y-59523701D01*
G37*
D13*
X120761000Y-60060900D03*
D12*
G36*
X120329626Y-59523701D02*
G01*
X120335693Y-59524601D01*
X120341643Y-59526091D01*
X120347418Y-59528158D01*
X120352962Y-59530780D01*
X120358223Y-59533933D01*
X120363150Y-59537587D01*
X120367694Y-59541706D01*
X120371813Y-59546250D01*
X120375467Y-59551177D01*
X120378620Y-59556438D01*
X120381242Y-59561982D01*
X120383309Y-59567757D01*
X120384799Y-59573707D01*
X120385699Y-59579774D01*
X120386000Y-59585900D01*
X120386000Y-60535900D01*
X120385699Y-60542026D01*
X120384799Y-60548093D01*
X120383309Y-60554043D01*
X120381242Y-60559818D01*
X120378620Y-60565362D01*
X120375467Y-60570623D01*
X120371813Y-60575550D01*
X120367694Y-60580094D01*
X120363150Y-60584213D01*
X120358223Y-60587867D01*
X120352962Y-60591020D01*
X120347418Y-60593642D01*
X120341643Y-60595709D01*
X120335693Y-60597199D01*
X120329626Y-60598099D01*
X120323500Y-60598400D01*
X120198500Y-60598400D01*
X120192374Y-60598099D01*
X120186307Y-60597199D01*
X120180357Y-60595709D01*
X120174582Y-60593642D01*
X120169038Y-60591020D01*
X120163777Y-60587867D01*
X120158850Y-60584213D01*
X120154306Y-60580094D01*
X120150187Y-60575550D01*
X120146533Y-60570623D01*
X120143380Y-60565362D01*
X120140758Y-60559818D01*
X120138691Y-60554043D01*
X120137201Y-60548093D01*
X120136301Y-60542026D01*
X120136000Y-60535900D01*
X120136000Y-59585900D01*
X120136301Y-59579774D01*
X120137201Y-59573707D01*
X120138691Y-59567757D01*
X120140758Y-59561982D01*
X120143380Y-59556438D01*
X120146533Y-59551177D01*
X120150187Y-59546250D01*
X120154306Y-59541706D01*
X120158850Y-59537587D01*
X120163777Y-59533933D01*
X120169038Y-59530780D01*
X120174582Y-59528158D01*
X120180357Y-59526091D01*
X120186307Y-59524601D01*
X120192374Y-59523701D01*
X120198500Y-59523400D01*
X120323500Y-59523400D01*
X120329626Y-59523701D01*
X120329626Y-59523701D01*
G37*
D13*
X120261000Y-60060900D03*
D12*
G36*
X119829626Y-59523701D02*
G01*
X119835693Y-59524601D01*
X119841643Y-59526091D01*
X119847418Y-59528158D01*
X119852962Y-59530780D01*
X119858223Y-59533933D01*
X119863150Y-59537587D01*
X119867694Y-59541706D01*
X119871813Y-59546250D01*
X119875467Y-59551177D01*
X119878620Y-59556438D01*
X119881242Y-59561982D01*
X119883309Y-59567757D01*
X119884799Y-59573707D01*
X119885699Y-59579774D01*
X119886000Y-59585900D01*
X119886000Y-60535900D01*
X119885699Y-60542026D01*
X119884799Y-60548093D01*
X119883309Y-60554043D01*
X119881242Y-60559818D01*
X119878620Y-60565362D01*
X119875467Y-60570623D01*
X119871813Y-60575550D01*
X119867694Y-60580094D01*
X119863150Y-60584213D01*
X119858223Y-60587867D01*
X119852962Y-60591020D01*
X119847418Y-60593642D01*
X119841643Y-60595709D01*
X119835693Y-60597199D01*
X119829626Y-60598099D01*
X119823500Y-60598400D01*
X119698500Y-60598400D01*
X119692374Y-60598099D01*
X119686307Y-60597199D01*
X119680357Y-60595709D01*
X119674582Y-60593642D01*
X119669038Y-60591020D01*
X119663777Y-60587867D01*
X119658850Y-60584213D01*
X119654306Y-60580094D01*
X119650187Y-60575550D01*
X119646533Y-60570623D01*
X119643380Y-60565362D01*
X119640758Y-60559818D01*
X119638691Y-60554043D01*
X119637201Y-60548093D01*
X119636301Y-60542026D01*
X119636000Y-60535900D01*
X119636000Y-59585900D01*
X119636301Y-59579774D01*
X119637201Y-59573707D01*
X119638691Y-59567757D01*
X119640758Y-59561982D01*
X119643380Y-59556438D01*
X119646533Y-59551177D01*
X119650187Y-59546250D01*
X119654306Y-59541706D01*
X119658850Y-59537587D01*
X119663777Y-59533933D01*
X119669038Y-59530780D01*
X119674582Y-59528158D01*
X119680357Y-59526091D01*
X119686307Y-59524601D01*
X119692374Y-59523701D01*
X119698500Y-59523400D01*
X119823500Y-59523400D01*
X119829626Y-59523701D01*
X119829626Y-59523701D01*
G37*
D13*
X119761000Y-60060900D03*
D12*
G36*
X119329626Y-59523701D02*
G01*
X119335693Y-59524601D01*
X119341643Y-59526091D01*
X119347418Y-59528158D01*
X119352962Y-59530780D01*
X119358223Y-59533933D01*
X119363150Y-59537587D01*
X119367694Y-59541706D01*
X119371813Y-59546250D01*
X119375467Y-59551177D01*
X119378620Y-59556438D01*
X119381242Y-59561982D01*
X119383309Y-59567757D01*
X119384799Y-59573707D01*
X119385699Y-59579774D01*
X119386000Y-59585900D01*
X119386000Y-60535900D01*
X119385699Y-60542026D01*
X119384799Y-60548093D01*
X119383309Y-60554043D01*
X119381242Y-60559818D01*
X119378620Y-60565362D01*
X119375467Y-60570623D01*
X119371813Y-60575550D01*
X119367694Y-60580094D01*
X119363150Y-60584213D01*
X119358223Y-60587867D01*
X119352962Y-60591020D01*
X119347418Y-60593642D01*
X119341643Y-60595709D01*
X119335693Y-60597199D01*
X119329626Y-60598099D01*
X119323500Y-60598400D01*
X119198500Y-60598400D01*
X119192374Y-60598099D01*
X119186307Y-60597199D01*
X119180357Y-60595709D01*
X119174582Y-60593642D01*
X119169038Y-60591020D01*
X119163777Y-60587867D01*
X119158850Y-60584213D01*
X119154306Y-60580094D01*
X119150187Y-60575550D01*
X119146533Y-60570623D01*
X119143380Y-60565362D01*
X119140758Y-60559818D01*
X119138691Y-60554043D01*
X119137201Y-60548093D01*
X119136301Y-60542026D01*
X119136000Y-60535900D01*
X119136000Y-59585900D01*
X119136301Y-59579774D01*
X119137201Y-59573707D01*
X119138691Y-59567757D01*
X119140758Y-59561982D01*
X119143380Y-59556438D01*
X119146533Y-59551177D01*
X119150187Y-59546250D01*
X119154306Y-59541706D01*
X119158850Y-59537587D01*
X119163777Y-59533933D01*
X119169038Y-59530780D01*
X119174582Y-59528158D01*
X119180357Y-59526091D01*
X119186307Y-59524601D01*
X119192374Y-59523701D01*
X119198500Y-59523400D01*
X119323500Y-59523400D01*
X119329626Y-59523701D01*
X119329626Y-59523701D01*
G37*
D13*
X119261000Y-60060900D03*
D12*
G36*
X118829626Y-59523701D02*
G01*
X118835693Y-59524601D01*
X118841643Y-59526091D01*
X118847418Y-59528158D01*
X118852962Y-59530780D01*
X118858223Y-59533933D01*
X118863150Y-59537587D01*
X118867694Y-59541706D01*
X118871813Y-59546250D01*
X118875467Y-59551177D01*
X118878620Y-59556438D01*
X118881242Y-59561982D01*
X118883309Y-59567757D01*
X118884799Y-59573707D01*
X118885699Y-59579774D01*
X118886000Y-59585900D01*
X118886000Y-60535900D01*
X118885699Y-60542026D01*
X118884799Y-60548093D01*
X118883309Y-60554043D01*
X118881242Y-60559818D01*
X118878620Y-60565362D01*
X118875467Y-60570623D01*
X118871813Y-60575550D01*
X118867694Y-60580094D01*
X118863150Y-60584213D01*
X118858223Y-60587867D01*
X118852962Y-60591020D01*
X118847418Y-60593642D01*
X118841643Y-60595709D01*
X118835693Y-60597199D01*
X118829626Y-60598099D01*
X118823500Y-60598400D01*
X118698500Y-60598400D01*
X118692374Y-60598099D01*
X118686307Y-60597199D01*
X118680357Y-60595709D01*
X118674582Y-60593642D01*
X118669038Y-60591020D01*
X118663777Y-60587867D01*
X118658850Y-60584213D01*
X118654306Y-60580094D01*
X118650187Y-60575550D01*
X118646533Y-60570623D01*
X118643380Y-60565362D01*
X118640758Y-60559818D01*
X118638691Y-60554043D01*
X118637201Y-60548093D01*
X118636301Y-60542026D01*
X118636000Y-60535900D01*
X118636000Y-59585900D01*
X118636301Y-59579774D01*
X118637201Y-59573707D01*
X118638691Y-59567757D01*
X118640758Y-59561982D01*
X118643380Y-59556438D01*
X118646533Y-59551177D01*
X118650187Y-59546250D01*
X118654306Y-59541706D01*
X118658850Y-59537587D01*
X118663777Y-59533933D01*
X118669038Y-59530780D01*
X118674582Y-59528158D01*
X118680357Y-59526091D01*
X118686307Y-59524601D01*
X118692374Y-59523701D01*
X118698500Y-59523400D01*
X118823500Y-59523400D01*
X118829626Y-59523701D01*
X118829626Y-59523701D01*
G37*
D13*
X118761000Y-60060900D03*
D12*
G36*
X118329626Y-59523701D02*
G01*
X118335693Y-59524601D01*
X118341643Y-59526091D01*
X118347418Y-59528158D01*
X118352962Y-59530780D01*
X118358223Y-59533933D01*
X118363150Y-59537587D01*
X118367694Y-59541706D01*
X118371813Y-59546250D01*
X118375467Y-59551177D01*
X118378620Y-59556438D01*
X118381242Y-59561982D01*
X118383309Y-59567757D01*
X118384799Y-59573707D01*
X118385699Y-59579774D01*
X118386000Y-59585900D01*
X118386000Y-60535900D01*
X118385699Y-60542026D01*
X118384799Y-60548093D01*
X118383309Y-60554043D01*
X118381242Y-60559818D01*
X118378620Y-60565362D01*
X118375467Y-60570623D01*
X118371813Y-60575550D01*
X118367694Y-60580094D01*
X118363150Y-60584213D01*
X118358223Y-60587867D01*
X118352962Y-60591020D01*
X118347418Y-60593642D01*
X118341643Y-60595709D01*
X118335693Y-60597199D01*
X118329626Y-60598099D01*
X118323500Y-60598400D01*
X118198500Y-60598400D01*
X118192374Y-60598099D01*
X118186307Y-60597199D01*
X118180357Y-60595709D01*
X118174582Y-60593642D01*
X118169038Y-60591020D01*
X118163777Y-60587867D01*
X118158850Y-60584213D01*
X118154306Y-60580094D01*
X118150187Y-60575550D01*
X118146533Y-60570623D01*
X118143380Y-60565362D01*
X118140758Y-60559818D01*
X118138691Y-60554043D01*
X118137201Y-60548093D01*
X118136301Y-60542026D01*
X118136000Y-60535900D01*
X118136000Y-59585900D01*
X118136301Y-59579774D01*
X118137201Y-59573707D01*
X118138691Y-59567757D01*
X118140758Y-59561982D01*
X118143380Y-59556438D01*
X118146533Y-59551177D01*
X118150187Y-59546250D01*
X118154306Y-59541706D01*
X118158850Y-59537587D01*
X118163777Y-59533933D01*
X118169038Y-59530780D01*
X118174582Y-59528158D01*
X118180357Y-59526091D01*
X118186307Y-59524601D01*
X118192374Y-59523701D01*
X118198500Y-59523400D01*
X118323500Y-59523400D01*
X118329626Y-59523701D01*
X118329626Y-59523701D01*
G37*
D13*
X118261000Y-60060900D03*
D12*
G36*
X117829626Y-59523701D02*
G01*
X117835693Y-59524601D01*
X117841643Y-59526091D01*
X117847418Y-59528158D01*
X117852962Y-59530780D01*
X117858223Y-59533933D01*
X117863150Y-59537587D01*
X117867694Y-59541706D01*
X117871813Y-59546250D01*
X117875467Y-59551177D01*
X117878620Y-59556438D01*
X117881242Y-59561982D01*
X117883309Y-59567757D01*
X117884799Y-59573707D01*
X117885699Y-59579774D01*
X117886000Y-59585900D01*
X117886000Y-60535900D01*
X117885699Y-60542026D01*
X117884799Y-60548093D01*
X117883309Y-60554043D01*
X117881242Y-60559818D01*
X117878620Y-60565362D01*
X117875467Y-60570623D01*
X117871813Y-60575550D01*
X117867694Y-60580094D01*
X117863150Y-60584213D01*
X117858223Y-60587867D01*
X117852962Y-60591020D01*
X117847418Y-60593642D01*
X117841643Y-60595709D01*
X117835693Y-60597199D01*
X117829626Y-60598099D01*
X117823500Y-60598400D01*
X117698500Y-60598400D01*
X117692374Y-60598099D01*
X117686307Y-60597199D01*
X117680357Y-60595709D01*
X117674582Y-60593642D01*
X117669038Y-60591020D01*
X117663777Y-60587867D01*
X117658850Y-60584213D01*
X117654306Y-60580094D01*
X117650187Y-60575550D01*
X117646533Y-60570623D01*
X117643380Y-60565362D01*
X117640758Y-60559818D01*
X117638691Y-60554043D01*
X117637201Y-60548093D01*
X117636301Y-60542026D01*
X117636000Y-60535900D01*
X117636000Y-59585900D01*
X117636301Y-59579774D01*
X117637201Y-59573707D01*
X117638691Y-59567757D01*
X117640758Y-59561982D01*
X117643380Y-59556438D01*
X117646533Y-59551177D01*
X117650187Y-59546250D01*
X117654306Y-59541706D01*
X117658850Y-59537587D01*
X117663777Y-59533933D01*
X117669038Y-59530780D01*
X117674582Y-59528158D01*
X117680357Y-59526091D01*
X117686307Y-59524601D01*
X117692374Y-59523701D01*
X117698500Y-59523400D01*
X117823500Y-59523400D01*
X117829626Y-59523701D01*
X117829626Y-59523701D01*
G37*
D13*
X117761000Y-60060900D03*
D12*
G36*
X117329626Y-59523701D02*
G01*
X117335693Y-59524601D01*
X117341643Y-59526091D01*
X117347418Y-59528158D01*
X117352962Y-59530780D01*
X117358223Y-59533933D01*
X117363150Y-59537587D01*
X117367694Y-59541706D01*
X117371813Y-59546250D01*
X117375467Y-59551177D01*
X117378620Y-59556438D01*
X117381242Y-59561982D01*
X117383309Y-59567757D01*
X117384799Y-59573707D01*
X117385699Y-59579774D01*
X117386000Y-59585900D01*
X117386000Y-60535900D01*
X117385699Y-60542026D01*
X117384799Y-60548093D01*
X117383309Y-60554043D01*
X117381242Y-60559818D01*
X117378620Y-60565362D01*
X117375467Y-60570623D01*
X117371813Y-60575550D01*
X117367694Y-60580094D01*
X117363150Y-60584213D01*
X117358223Y-60587867D01*
X117352962Y-60591020D01*
X117347418Y-60593642D01*
X117341643Y-60595709D01*
X117335693Y-60597199D01*
X117329626Y-60598099D01*
X117323500Y-60598400D01*
X117198500Y-60598400D01*
X117192374Y-60598099D01*
X117186307Y-60597199D01*
X117180357Y-60595709D01*
X117174582Y-60593642D01*
X117169038Y-60591020D01*
X117163777Y-60587867D01*
X117158850Y-60584213D01*
X117154306Y-60580094D01*
X117150187Y-60575550D01*
X117146533Y-60570623D01*
X117143380Y-60565362D01*
X117140758Y-60559818D01*
X117138691Y-60554043D01*
X117137201Y-60548093D01*
X117136301Y-60542026D01*
X117136000Y-60535900D01*
X117136000Y-59585900D01*
X117136301Y-59579774D01*
X117137201Y-59573707D01*
X117138691Y-59567757D01*
X117140758Y-59561982D01*
X117143380Y-59556438D01*
X117146533Y-59551177D01*
X117150187Y-59546250D01*
X117154306Y-59541706D01*
X117158850Y-59537587D01*
X117163777Y-59533933D01*
X117169038Y-59530780D01*
X117174582Y-59528158D01*
X117180357Y-59526091D01*
X117186307Y-59524601D01*
X117192374Y-59523701D01*
X117198500Y-59523400D01*
X117323500Y-59523400D01*
X117329626Y-59523701D01*
X117329626Y-59523701D01*
G37*
D13*
X117261000Y-60060900D03*
D12*
G36*
X116904626Y-60773701D02*
G01*
X116910693Y-60774601D01*
X116916643Y-60776091D01*
X116922418Y-60778158D01*
X116927962Y-60780780D01*
X116933223Y-60783933D01*
X116938150Y-60787587D01*
X116942694Y-60791706D01*
X116946813Y-60796250D01*
X116950467Y-60801177D01*
X116953620Y-60806438D01*
X116956242Y-60811982D01*
X116958309Y-60817757D01*
X116959799Y-60823707D01*
X116960699Y-60829774D01*
X116961000Y-60835900D01*
X116961000Y-60960900D01*
X116960699Y-60967026D01*
X116959799Y-60973093D01*
X116958309Y-60979043D01*
X116956242Y-60984818D01*
X116953620Y-60990362D01*
X116950467Y-60995623D01*
X116946813Y-61000550D01*
X116942694Y-61005094D01*
X116938150Y-61009213D01*
X116933223Y-61012867D01*
X116927962Y-61016020D01*
X116922418Y-61018642D01*
X116916643Y-61020709D01*
X116910693Y-61022199D01*
X116904626Y-61023099D01*
X116898500Y-61023400D01*
X115948500Y-61023400D01*
X115942374Y-61023099D01*
X115936307Y-61022199D01*
X115930357Y-61020709D01*
X115924582Y-61018642D01*
X115919038Y-61016020D01*
X115913777Y-61012867D01*
X115908850Y-61009213D01*
X115904306Y-61005094D01*
X115900187Y-61000550D01*
X115896533Y-60995623D01*
X115893380Y-60990362D01*
X115890758Y-60984818D01*
X115888691Y-60979043D01*
X115887201Y-60973093D01*
X115886301Y-60967026D01*
X115886000Y-60960900D01*
X115886000Y-60835900D01*
X115886301Y-60829774D01*
X115887201Y-60823707D01*
X115888691Y-60817757D01*
X115890758Y-60811982D01*
X115893380Y-60806438D01*
X115896533Y-60801177D01*
X115900187Y-60796250D01*
X115904306Y-60791706D01*
X115908850Y-60787587D01*
X115913777Y-60783933D01*
X115919038Y-60780780D01*
X115924582Y-60778158D01*
X115930357Y-60776091D01*
X115936307Y-60774601D01*
X115942374Y-60773701D01*
X115948500Y-60773400D01*
X116898500Y-60773400D01*
X116904626Y-60773701D01*
X116904626Y-60773701D01*
G37*
D13*
X116423500Y-60898400D03*
D12*
G36*
X116904626Y-61273701D02*
G01*
X116910693Y-61274601D01*
X116916643Y-61276091D01*
X116922418Y-61278158D01*
X116927962Y-61280780D01*
X116933223Y-61283933D01*
X116938150Y-61287587D01*
X116942694Y-61291706D01*
X116946813Y-61296250D01*
X116950467Y-61301177D01*
X116953620Y-61306438D01*
X116956242Y-61311982D01*
X116958309Y-61317757D01*
X116959799Y-61323707D01*
X116960699Y-61329774D01*
X116961000Y-61335900D01*
X116961000Y-61460900D01*
X116960699Y-61467026D01*
X116959799Y-61473093D01*
X116958309Y-61479043D01*
X116956242Y-61484818D01*
X116953620Y-61490362D01*
X116950467Y-61495623D01*
X116946813Y-61500550D01*
X116942694Y-61505094D01*
X116938150Y-61509213D01*
X116933223Y-61512867D01*
X116927962Y-61516020D01*
X116922418Y-61518642D01*
X116916643Y-61520709D01*
X116910693Y-61522199D01*
X116904626Y-61523099D01*
X116898500Y-61523400D01*
X115948500Y-61523400D01*
X115942374Y-61523099D01*
X115936307Y-61522199D01*
X115930357Y-61520709D01*
X115924582Y-61518642D01*
X115919038Y-61516020D01*
X115913777Y-61512867D01*
X115908850Y-61509213D01*
X115904306Y-61505094D01*
X115900187Y-61500550D01*
X115896533Y-61495623D01*
X115893380Y-61490362D01*
X115890758Y-61484818D01*
X115888691Y-61479043D01*
X115887201Y-61473093D01*
X115886301Y-61467026D01*
X115886000Y-61460900D01*
X115886000Y-61335900D01*
X115886301Y-61329774D01*
X115887201Y-61323707D01*
X115888691Y-61317757D01*
X115890758Y-61311982D01*
X115893380Y-61306438D01*
X115896533Y-61301177D01*
X115900187Y-61296250D01*
X115904306Y-61291706D01*
X115908850Y-61287587D01*
X115913777Y-61283933D01*
X115919038Y-61280780D01*
X115924582Y-61278158D01*
X115930357Y-61276091D01*
X115936307Y-61274601D01*
X115942374Y-61273701D01*
X115948500Y-61273400D01*
X116898500Y-61273400D01*
X116904626Y-61273701D01*
X116904626Y-61273701D01*
G37*
D13*
X116423500Y-61398400D03*
D12*
G36*
X116904626Y-61773701D02*
G01*
X116910693Y-61774601D01*
X116916643Y-61776091D01*
X116922418Y-61778158D01*
X116927962Y-61780780D01*
X116933223Y-61783933D01*
X116938150Y-61787587D01*
X116942694Y-61791706D01*
X116946813Y-61796250D01*
X116950467Y-61801177D01*
X116953620Y-61806438D01*
X116956242Y-61811982D01*
X116958309Y-61817757D01*
X116959799Y-61823707D01*
X116960699Y-61829774D01*
X116961000Y-61835900D01*
X116961000Y-61960900D01*
X116960699Y-61967026D01*
X116959799Y-61973093D01*
X116958309Y-61979043D01*
X116956242Y-61984818D01*
X116953620Y-61990362D01*
X116950467Y-61995623D01*
X116946813Y-62000550D01*
X116942694Y-62005094D01*
X116938150Y-62009213D01*
X116933223Y-62012867D01*
X116927962Y-62016020D01*
X116922418Y-62018642D01*
X116916643Y-62020709D01*
X116910693Y-62022199D01*
X116904626Y-62023099D01*
X116898500Y-62023400D01*
X115948500Y-62023400D01*
X115942374Y-62023099D01*
X115936307Y-62022199D01*
X115930357Y-62020709D01*
X115924582Y-62018642D01*
X115919038Y-62016020D01*
X115913777Y-62012867D01*
X115908850Y-62009213D01*
X115904306Y-62005094D01*
X115900187Y-62000550D01*
X115896533Y-61995623D01*
X115893380Y-61990362D01*
X115890758Y-61984818D01*
X115888691Y-61979043D01*
X115887201Y-61973093D01*
X115886301Y-61967026D01*
X115886000Y-61960900D01*
X115886000Y-61835900D01*
X115886301Y-61829774D01*
X115887201Y-61823707D01*
X115888691Y-61817757D01*
X115890758Y-61811982D01*
X115893380Y-61806438D01*
X115896533Y-61801177D01*
X115900187Y-61796250D01*
X115904306Y-61791706D01*
X115908850Y-61787587D01*
X115913777Y-61783933D01*
X115919038Y-61780780D01*
X115924582Y-61778158D01*
X115930357Y-61776091D01*
X115936307Y-61774601D01*
X115942374Y-61773701D01*
X115948500Y-61773400D01*
X116898500Y-61773400D01*
X116904626Y-61773701D01*
X116904626Y-61773701D01*
G37*
D13*
X116423500Y-61898400D03*
D12*
G36*
X116904626Y-62273701D02*
G01*
X116910693Y-62274601D01*
X116916643Y-62276091D01*
X116922418Y-62278158D01*
X116927962Y-62280780D01*
X116933223Y-62283933D01*
X116938150Y-62287587D01*
X116942694Y-62291706D01*
X116946813Y-62296250D01*
X116950467Y-62301177D01*
X116953620Y-62306438D01*
X116956242Y-62311982D01*
X116958309Y-62317757D01*
X116959799Y-62323707D01*
X116960699Y-62329774D01*
X116961000Y-62335900D01*
X116961000Y-62460900D01*
X116960699Y-62467026D01*
X116959799Y-62473093D01*
X116958309Y-62479043D01*
X116956242Y-62484818D01*
X116953620Y-62490362D01*
X116950467Y-62495623D01*
X116946813Y-62500550D01*
X116942694Y-62505094D01*
X116938150Y-62509213D01*
X116933223Y-62512867D01*
X116927962Y-62516020D01*
X116922418Y-62518642D01*
X116916643Y-62520709D01*
X116910693Y-62522199D01*
X116904626Y-62523099D01*
X116898500Y-62523400D01*
X115948500Y-62523400D01*
X115942374Y-62523099D01*
X115936307Y-62522199D01*
X115930357Y-62520709D01*
X115924582Y-62518642D01*
X115919038Y-62516020D01*
X115913777Y-62512867D01*
X115908850Y-62509213D01*
X115904306Y-62505094D01*
X115900187Y-62500550D01*
X115896533Y-62495623D01*
X115893380Y-62490362D01*
X115890758Y-62484818D01*
X115888691Y-62479043D01*
X115887201Y-62473093D01*
X115886301Y-62467026D01*
X115886000Y-62460900D01*
X115886000Y-62335900D01*
X115886301Y-62329774D01*
X115887201Y-62323707D01*
X115888691Y-62317757D01*
X115890758Y-62311982D01*
X115893380Y-62306438D01*
X115896533Y-62301177D01*
X115900187Y-62296250D01*
X115904306Y-62291706D01*
X115908850Y-62287587D01*
X115913777Y-62283933D01*
X115919038Y-62280780D01*
X115924582Y-62278158D01*
X115930357Y-62276091D01*
X115936307Y-62274601D01*
X115942374Y-62273701D01*
X115948500Y-62273400D01*
X116898500Y-62273400D01*
X116904626Y-62273701D01*
X116904626Y-62273701D01*
G37*
D13*
X116423500Y-62398400D03*
D12*
G36*
X116904626Y-62773701D02*
G01*
X116910693Y-62774601D01*
X116916643Y-62776091D01*
X116922418Y-62778158D01*
X116927962Y-62780780D01*
X116933223Y-62783933D01*
X116938150Y-62787587D01*
X116942694Y-62791706D01*
X116946813Y-62796250D01*
X116950467Y-62801177D01*
X116953620Y-62806438D01*
X116956242Y-62811982D01*
X116958309Y-62817757D01*
X116959799Y-62823707D01*
X116960699Y-62829774D01*
X116961000Y-62835900D01*
X116961000Y-62960900D01*
X116960699Y-62967026D01*
X116959799Y-62973093D01*
X116958309Y-62979043D01*
X116956242Y-62984818D01*
X116953620Y-62990362D01*
X116950467Y-62995623D01*
X116946813Y-63000550D01*
X116942694Y-63005094D01*
X116938150Y-63009213D01*
X116933223Y-63012867D01*
X116927962Y-63016020D01*
X116922418Y-63018642D01*
X116916643Y-63020709D01*
X116910693Y-63022199D01*
X116904626Y-63023099D01*
X116898500Y-63023400D01*
X115948500Y-63023400D01*
X115942374Y-63023099D01*
X115936307Y-63022199D01*
X115930357Y-63020709D01*
X115924582Y-63018642D01*
X115919038Y-63016020D01*
X115913777Y-63012867D01*
X115908850Y-63009213D01*
X115904306Y-63005094D01*
X115900187Y-63000550D01*
X115896533Y-62995623D01*
X115893380Y-62990362D01*
X115890758Y-62984818D01*
X115888691Y-62979043D01*
X115887201Y-62973093D01*
X115886301Y-62967026D01*
X115886000Y-62960900D01*
X115886000Y-62835900D01*
X115886301Y-62829774D01*
X115887201Y-62823707D01*
X115888691Y-62817757D01*
X115890758Y-62811982D01*
X115893380Y-62806438D01*
X115896533Y-62801177D01*
X115900187Y-62796250D01*
X115904306Y-62791706D01*
X115908850Y-62787587D01*
X115913777Y-62783933D01*
X115919038Y-62780780D01*
X115924582Y-62778158D01*
X115930357Y-62776091D01*
X115936307Y-62774601D01*
X115942374Y-62773701D01*
X115948500Y-62773400D01*
X116898500Y-62773400D01*
X116904626Y-62773701D01*
X116904626Y-62773701D01*
G37*
D13*
X116423500Y-62898400D03*
D12*
G36*
X116904626Y-63273701D02*
G01*
X116910693Y-63274601D01*
X116916643Y-63276091D01*
X116922418Y-63278158D01*
X116927962Y-63280780D01*
X116933223Y-63283933D01*
X116938150Y-63287587D01*
X116942694Y-63291706D01*
X116946813Y-63296250D01*
X116950467Y-63301177D01*
X116953620Y-63306438D01*
X116956242Y-63311982D01*
X116958309Y-63317757D01*
X116959799Y-63323707D01*
X116960699Y-63329774D01*
X116961000Y-63335900D01*
X116961000Y-63460900D01*
X116960699Y-63467026D01*
X116959799Y-63473093D01*
X116958309Y-63479043D01*
X116956242Y-63484818D01*
X116953620Y-63490362D01*
X116950467Y-63495623D01*
X116946813Y-63500550D01*
X116942694Y-63505094D01*
X116938150Y-63509213D01*
X116933223Y-63512867D01*
X116927962Y-63516020D01*
X116922418Y-63518642D01*
X116916643Y-63520709D01*
X116910693Y-63522199D01*
X116904626Y-63523099D01*
X116898500Y-63523400D01*
X115948500Y-63523400D01*
X115942374Y-63523099D01*
X115936307Y-63522199D01*
X115930357Y-63520709D01*
X115924582Y-63518642D01*
X115919038Y-63516020D01*
X115913777Y-63512867D01*
X115908850Y-63509213D01*
X115904306Y-63505094D01*
X115900187Y-63500550D01*
X115896533Y-63495623D01*
X115893380Y-63490362D01*
X115890758Y-63484818D01*
X115888691Y-63479043D01*
X115887201Y-63473093D01*
X115886301Y-63467026D01*
X115886000Y-63460900D01*
X115886000Y-63335900D01*
X115886301Y-63329774D01*
X115887201Y-63323707D01*
X115888691Y-63317757D01*
X115890758Y-63311982D01*
X115893380Y-63306438D01*
X115896533Y-63301177D01*
X115900187Y-63296250D01*
X115904306Y-63291706D01*
X115908850Y-63287587D01*
X115913777Y-63283933D01*
X115919038Y-63280780D01*
X115924582Y-63278158D01*
X115930357Y-63276091D01*
X115936307Y-63274601D01*
X115942374Y-63273701D01*
X115948500Y-63273400D01*
X116898500Y-63273400D01*
X116904626Y-63273701D01*
X116904626Y-63273701D01*
G37*
D13*
X116423500Y-63398400D03*
D12*
G36*
X116904626Y-63773701D02*
G01*
X116910693Y-63774601D01*
X116916643Y-63776091D01*
X116922418Y-63778158D01*
X116927962Y-63780780D01*
X116933223Y-63783933D01*
X116938150Y-63787587D01*
X116942694Y-63791706D01*
X116946813Y-63796250D01*
X116950467Y-63801177D01*
X116953620Y-63806438D01*
X116956242Y-63811982D01*
X116958309Y-63817757D01*
X116959799Y-63823707D01*
X116960699Y-63829774D01*
X116961000Y-63835900D01*
X116961000Y-63960900D01*
X116960699Y-63967026D01*
X116959799Y-63973093D01*
X116958309Y-63979043D01*
X116956242Y-63984818D01*
X116953620Y-63990362D01*
X116950467Y-63995623D01*
X116946813Y-64000550D01*
X116942694Y-64005094D01*
X116938150Y-64009213D01*
X116933223Y-64012867D01*
X116927962Y-64016020D01*
X116922418Y-64018642D01*
X116916643Y-64020709D01*
X116910693Y-64022199D01*
X116904626Y-64023099D01*
X116898500Y-64023400D01*
X115948500Y-64023400D01*
X115942374Y-64023099D01*
X115936307Y-64022199D01*
X115930357Y-64020709D01*
X115924582Y-64018642D01*
X115919038Y-64016020D01*
X115913777Y-64012867D01*
X115908850Y-64009213D01*
X115904306Y-64005094D01*
X115900187Y-64000550D01*
X115896533Y-63995623D01*
X115893380Y-63990362D01*
X115890758Y-63984818D01*
X115888691Y-63979043D01*
X115887201Y-63973093D01*
X115886301Y-63967026D01*
X115886000Y-63960900D01*
X115886000Y-63835900D01*
X115886301Y-63829774D01*
X115887201Y-63823707D01*
X115888691Y-63817757D01*
X115890758Y-63811982D01*
X115893380Y-63806438D01*
X115896533Y-63801177D01*
X115900187Y-63796250D01*
X115904306Y-63791706D01*
X115908850Y-63787587D01*
X115913777Y-63783933D01*
X115919038Y-63780780D01*
X115924582Y-63778158D01*
X115930357Y-63776091D01*
X115936307Y-63774601D01*
X115942374Y-63773701D01*
X115948500Y-63773400D01*
X116898500Y-63773400D01*
X116904626Y-63773701D01*
X116904626Y-63773701D01*
G37*
D13*
X116423500Y-63898400D03*
D12*
G36*
X116904626Y-64273701D02*
G01*
X116910693Y-64274601D01*
X116916643Y-64276091D01*
X116922418Y-64278158D01*
X116927962Y-64280780D01*
X116933223Y-64283933D01*
X116938150Y-64287587D01*
X116942694Y-64291706D01*
X116946813Y-64296250D01*
X116950467Y-64301177D01*
X116953620Y-64306438D01*
X116956242Y-64311982D01*
X116958309Y-64317757D01*
X116959799Y-64323707D01*
X116960699Y-64329774D01*
X116961000Y-64335900D01*
X116961000Y-64460900D01*
X116960699Y-64467026D01*
X116959799Y-64473093D01*
X116958309Y-64479043D01*
X116956242Y-64484818D01*
X116953620Y-64490362D01*
X116950467Y-64495623D01*
X116946813Y-64500550D01*
X116942694Y-64505094D01*
X116938150Y-64509213D01*
X116933223Y-64512867D01*
X116927962Y-64516020D01*
X116922418Y-64518642D01*
X116916643Y-64520709D01*
X116910693Y-64522199D01*
X116904626Y-64523099D01*
X116898500Y-64523400D01*
X115948500Y-64523400D01*
X115942374Y-64523099D01*
X115936307Y-64522199D01*
X115930357Y-64520709D01*
X115924582Y-64518642D01*
X115919038Y-64516020D01*
X115913777Y-64512867D01*
X115908850Y-64509213D01*
X115904306Y-64505094D01*
X115900187Y-64500550D01*
X115896533Y-64495623D01*
X115893380Y-64490362D01*
X115890758Y-64484818D01*
X115888691Y-64479043D01*
X115887201Y-64473093D01*
X115886301Y-64467026D01*
X115886000Y-64460900D01*
X115886000Y-64335900D01*
X115886301Y-64329774D01*
X115887201Y-64323707D01*
X115888691Y-64317757D01*
X115890758Y-64311982D01*
X115893380Y-64306438D01*
X115896533Y-64301177D01*
X115900187Y-64296250D01*
X115904306Y-64291706D01*
X115908850Y-64287587D01*
X115913777Y-64283933D01*
X115919038Y-64280780D01*
X115924582Y-64278158D01*
X115930357Y-64276091D01*
X115936307Y-64274601D01*
X115942374Y-64273701D01*
X115948500Y-64273400D01*
X116898500Y-64273400D01*
X116904626Y-64273701D01*
X116904626Y-64273701D01*
G37*
D13*
X116423500Y-64398400D03*
D12*
G36*
X116904626Y-64773701D02*
G01*
X116910693Y-64774601D01*
X116916643Y-64776091D01*
X116922418Y-64778158D01*
X116927962Y-64780780D01*
X116933223Y-64783933D01*
X116938150Y-64787587D01*
X116942694Y-64791706D01*
X116946813Y-64796250D01*
X116950467Y-64801177D01*
X116953620Y-64806438D01*
X116956242Y-64811982D01*
X116958309Y-64817757D01*
X116959799Y-64823707D01*
X116960699Y-64829774D01*
X116961000Y-64835900D01*
X116961000Y-64960900D01*
X116960699Y-64967026D01*
X116959799Y-64973093D01*
X116958309Y-64979043D01*
X116956242Y-64984818D01*
X116953620Y-64990362D01*
X116950467Y-64995623D01*
X116946813Y-65000550D01*
X116942694Y-65005094D01*
X116938150Y-65009213D01*
X116933223Y-65012867D01*
X116927962Y-65016020D01*
X116922418Y-65018642D01*
X116916643Y-65020709D01*
X116910693Y-65022199D01*
X116904626Y-65023099D01*
X116898500Y-65023400D01*
X115948500Y-65023400D01*
X115942374Y-65023099D01*
X115936307Y-65022199D01*
X115930357Y-65020709D01*
X115924582Y-65018642D01*
X115919038Y-65016020D01*
X115913777Y-65012867D01*
X115908850Y-65009213D01*
X115904306Y-65005094D01*
X115900187Y-65000550D01*
X115896533Y-64995623D01*
X115893380Y-64990362D01*
X115890758Y-64984818D01*
X115888691Y-64979043D01*
X115887201Y-64973093D01*
X115886301Y-64967026D01*
X115886000Y-64960900D01*
X115886000Y-64835900D01*
X115886301Y-64829774D01*
X115887201Y-64823707D01*
X115888691Y-64817757D01*
X115890758Y-64811982D01*
X115893380Y-64806438D01*
X115896533Y-64801177D01*
X115900187Y-64796250D01*
X115904306Y-64791706D01*
X115908850Y-64787587D01*
X115913777Y-64783933D01*
X115919038Y-64780780D01*
X115924582Y-64778158D01*
X115930357Y-64776091D01*
X115936307Y-64774601D01*
X115942374Y-64773701D01*
X115948500Y-64773400D01*
X116898500Y-64773400D01*
X116904626Y-64773701D01*
X116904626Y-64773701D01*
G37*
D13*
X116423500Y-64898400D03*
D12*
G36*
X116904626Y-65273701D02*
G01*
X116910693Y-65274601D01*
X116916643Y-65276091D01*
X116922418Y-65278158D01*
X116927962Y-65280780D01*
X116933223Y-65283933D01*
X116938150Y-65287587D01*
X116942694Y-65291706D01*
X116946813Y-65296250D01*
X116950467Y-65301177D01*
X116953620Y-65306438D01*
X116956242Y-65311982D01*
X116958309Y-65317757D01*
X116959799Y-65323707D01*
X116960699Y-65329774D01*
X116961000Y-65335900D01*
X116961000Y-65460900D01*
X116960699Y-65467026D01*
X116959799Y-65473093D01*
X116958309Y-65479043D01*
X116956242Y-65484818D01*
X116953620Y-65490362D01*
X116950467Y-65495623D01*
X116946813Y-65500550D01*
X116942694Y-65505094D01*
X116938150Y-65509213D01*
X116933223Y-65512867D01*
X116927962Y-65516020D01*
X116922418Y-65518642D01*
X116916643Y-65520709D01*
X116910693Y-65522199D01*
X116904626Y-65523099D01*
X116898500Y-65523400D01*
X115948500Y-65523400D01*
X115942374Y-65523099D01*
X115936307Y-65522199D01*
X115930357Y-65520709D01*
X115924582Y-65518642D01*
X115919038Y-65516020D01*
X115913777Y-65512867D01*
X115908850Y-65509213D01*
X115904306Y-65505094D01*
X115900187Y-65500550D01*
X115896533Y-65495623D01*
X115893380Y-65490362D01*
X115890758Y-65484818D01*
X115888691Y-65479043D01*
X115887201Y-65473093D01*
X115886301Y-65467026D01*
X115886000Y-65460900D01*
X115886000Y-65335900D01*
X115886301Y-65329774D01*
X115887201Y-65323707D01*
X115888691Y-65317757D01*
X115890758Y-65311982D01*
X115893380Y-65306438D01*
X115896533Y-65301177D01*
X115900187Y-65296250D01*
X115904306Y-65291706D01*
X115908850Y-65287587D01*
X115913777Y-65283933D01*
X115919038Y-65280780D01*
X115924582Y-65278158D01*
X115930357Y-65276091D01*
X115936307Y-65274601D01*
X115942374Y-65273701D01*
X115948500Y-65273400D01*
X116898500Y-65273400D01*
X116904626Y-65273701D01*
X116904626Y-65273701D01*
G37*
D13*
X116423500Y-65398400D03*
D12*
G36*
X116904626Y-65773701D02*
G01*
X116910693Y-65774601D01*
X116916643Y-65776091D01*
X116922418Y-65778158D01*
X116927962Y-65780780D01*
X116933223Y-65783933D01*
X116938150Y-65787587D01*
X116942694Y-65791706D01*
X116946813Y-65796250D01*
X116950467Y-65801177D01*
X116953620Y-65806438D01*
X116956242Y-65811982D01*
X116958309Y-65817757D01*
X116959799Y-65823707D01*
X116960699Y-65829774D01*
X116961000Y-65835900D01*
X116961000Y-65960900D01*
X116960699Y-65967026D01*
X116959799Y-65973093D01*
X116958309Y-65979043D01*
X116956242Y-65984818D01*
X116953620Y-65990362D01*
X116950467Y-65995623D01*
X116946813Y-66000550D01*
X116942694Y-66005094D01*
X116938150Y-66009213D01*
X116933223Y-66012867D01*
X116927962Y-66016020D01*
X116922418Y-66018642D01*
X116916643Y-66020709D01*
X116910693Y-66022199D01*
X116904626Y-66023099D01*
X116898500Y-66023400D01*
X115948500Y-66023400D01*
X115942374Y-66023099D01*
X115936307Y-66022199D01*
X115930357Y-66020709D01*
X115924582Y-66018642D01*
X115919038Y-66016020D01*
X115913777Y-66012867D01*
X115908850Y-66009213D01*
X115904306Y-66005094D01*
X115900187Y-66000550D01*
X115896533Y-65995623D01*
X115893380Y-65990362D01*
X115890758Y-65984818D01*
X115888691Y-65979043D01*
X115887201Y-65973093D01*
X115886301Y-65967026D01*
X115886000Y-65960900D01*
X115886000Y-65835900D01*
X115886301Y-65829774D01*
X115887201Y-65823707D01*
X115888691Y-65817757D01*
X115890758Y-65811982D01*
X115893380Y-65806438D01*
X115896533Y-65801177D01*
X115900187Y-65796250D01*
X115904306Y-65791706D01*
X115908850Y-65787587D01*
X115913777Y-65783933D01*
X115919038Y-65780780D01*
X115924582Y-65778158D01*
X115930357Y-65776091D01*
X115936307Y-65774601D01*
X115942374Y-65773701D01*
X115948500Y-65773400D01*
X116898500Y-65773400D01*
X116904626Y-65773701D01*
X116904626Y-65773701D01*
G37*
D13*
X116423500Y-65898400D03*
D12*
G36*
X117329626Y-66198701D02*
G01*
X117335693Y-66199601D01*
X117341643Y-66201091D01*
X117347418Y-66203158D01*
X117352962Y-66205780D01*
X117358223Y-66208933D01*
X117363150Y-66212587D01*
X117367694Y-66216706D01*
X117371813Y-66221250D01*
X117375467Y-66226177D01*
X117378620Y-66231438D01*
X117381242Y-66236982D01*
X117383309Y-66242757D01*
X117384799Y-66248707D01*
X117385699Y-66254774D01*
X117386000Y-66260900D01*
X117386000Y-67210900D01*
X117385699Y-67217026D01*
X117384799Y-67223093D01*
X117383309Y-67229043D01*
X117381242Y-67234818D01*
X117378620Y-67240362D01*
X117375467Y-67245623D01*
X117371813Y-67250550D01*
X117367694Y-67255094D01*
X117363150Y-67259213D01*
X117358223Y-67262867D01*
X117352962Y-67266020D01*
X117347418Y-67268642D01*
X117341643Y-67270709D01*
X117335693Y-67272199D01*
X117329626Y-67273099D01*
X117323500Y-67273400D01*
X117198500Y-67273400D01*
X117192374Y-67273099D01*
X117186307Y-67272199D01*
X117180357Y-67270709D01*
X117174582Y-67268642D01*
X117169038Y-67266020D01*
X117163777Y-67262867D01*
X117158850Y-67259213D01*
X117154306Y-67255094D01*
X117150187Y-67250550D01*
X117146533Y-67245623D01*
X117143380Y-67240362D01*
X117140758Y-67234818D01*
X117138691Y-67229043D01*
X117137201Y-67223093D01*
X117136301Y-67217026D01*
X117136000Y-67210900D01*
X117136000Y-66260900D01*
X117136301Y-66254774D01*
X117137201Y-66248707D01*
X117138691Y-66242757D01*
X117140758Y-66236982D01*
X117143380Y-66231438D01*
X117146533Y-66226177D01*
X117150187Y-66221250D01*
X117154306Y-66216706D01*
X117158850Y-66212587D01*
X117163777Y-66208933D01*
X117169038Y-66205780D01*
X117174582Y-66203158D01*
X117180357Y-66201091D01*
X117186307Y-66199601D01*
X117192374Y-66198701D01*
X117198500Y-66198400D01*
X117323500Y-66198400D01*
X117329626Y-66198701D01*
X117329626Y-66198701D01*
G37*
D13*
X117261000Y-66735900D03*
D12*
G36*
X117829626Y-66198701D02*
G01*
X117835693Y-66199601D01*
X117841643Y-66201091D01*
X117847418Y-66203158D01*
X117852962Y-66205780D01*
X117858223Y-66208933D01*
X117863150Y-66212587D01*
X117867694Y-66216706D01*
X117871813Y-66221250D01*
X117875467Y-66226177D01*
X117878620Y-66231438D01*
X117881242Y-66236982D01*
X117883309Y-66242757D01*
X117884799Y-66248707D01*
X117885699Y-66254774D01*
X117886000Y-66260900D01*
X117886000Y-67210900D01*
X117885699Y-67217026D01*
X117884799Y-67223093D01*
X117883309Y-67229043D01*
X117881242Y-67234818D01*
X117878620Y-67240362D01*
X117875467Y-67245623D01*
X117871813Y-67250550D01*
X117867694Y-67255094D01*
X117863150Y-67259213D01*
X117858223Y-67262867D01*
X117852962Y-67266020D01*
X117847418Y-67268642D01*
X117841643Y-67270709D01*
X117835693Y-67272199D01*
X117829626Y-67273099D01*
X117823500Y-67273400D01*
X117698500Y-67273400D01*
X117692374Y-67273099D01*
X117686307Y-67272199D01*
X117680357Y-67270709D01*
X117674582Y-67268642D01*
X117669038Y-67266020D01*
X117663777Y-67262867D01*
X117658850Y-67259213D01*
X117654306Y-67255094D01*
X117650187Y-67250550D01*
X117646533Y-67245623D01*
X117643380Y-67240362D01*
X117640758Y-67234818D01*
X117638691Y-67229043D01*
X117637201Y-67223093D01*
X117636301Y-67217026D01*
X117636000Y-67210900D01*
X117636000Y-66260900D01*
X117636301Y-66254774D01*
X117637201Y-66248707D01*
X117638691Y-66242757D01*
X117640758Y-66236982D01*
X117643380Y-66231438D01*
X117646533Y-66226177D01*
X117650187Y-66221250D01*
X117654306Y-66216706D01*
X117658850Y-66212587D01*
X117663777Y-66208933D01*
X117669038Y-66205780D01*
X117674582Y-66203158D01*
X117680357Y-66201091D01*
X117686307Y-66199601D01*
X117692374Y-66198701D01*
X117698500Y-66198400D01*
X117823500Y-66198400D01*
X117829626Y-66198701D01*
X117829626Y-66198701D01*
G37*
D13*
X117761000Y-66735900D03*
D12*
G36*
X118329626Y-66198701D02*
G01*
X118335693Y-66199601D01*
X118341643Y-66201091D01*
X118347418Y-66203158D01*
X118352962Y-66205780D01*
X118358223Y-66208933D01*
X118363150Y-66212587D01*
X118367694Y-66216706D01*
X118371813Y-66221250D01*
X118375467Y-66226177D01*
X118378620Y-66231438D01*
X118381242Y-66236982D01*
X118383309Y-66242757D01*
X118384799Y-66248707D01*
X118385699Y-66254774D01*
X118386000Y-66260900D01*
X118386000Y-67210900D01*
X118385699Y-67217026D01*
X118384799Y-67223093D01*
X118383309Y-67229043D01*
X118381242Y-67234818D01*
X118378620Y-67240362D01*
X118375467Y-67245623D01*
X118371813Y-67250550D01*
X118367694Y-67255094D01*
X118363150Y-67259213D01*
X118358223Y-67262867D01*
X118352962Y-67266020D01*
X118347418Y-67268642D01*
X118341643Y-67270709D01*
X118335693Y-67272199D01*
X118329626Y-67273099D01*
X118323500Y-67273400D01*
X118198500Y-67273400D01*
X118192374Y-67273099D01*
X118186307Y-67272199D01*
X118180357Y-67270709D01*
X118174582Y-67268642D01*
X118169038Y-67266020D01*
X118163777Y-67262867D01*
X118158850Y-67259213D01*
X118154306Y-67255094D01*
X118150187Y-67250550D01*
X118146533Y-67245623D01*
X118143380Y-67240362D01*
X118140758Y-67234818D01*
X118138691Y-67229043D01*
X118137201Y-67223093D01*
X118136301Y-67217026D01*
X118136000Y-67210900D01*
X118136000Y-66260900D01*
X118136301Y-66254774D01*
X118137201Y-66248707D01*
X118138691Y-66242757D01*
X118140758Y-66236982D01*
X118143380Y-66231438D01*
X118146533Y-66226177D01*
X118150187Y-66221250D01*
X118154306Y-66216706D01*
X118158850Y-66212587D01*
X118163777Y-66208933D01*
X118169038Y-66205780D01*
X118174582Y-66203158D01*
X118180357Y-66201091D01*
X118186307Y-66199601D01*
X118192374Y-66198701D01*
X118198500Y-66198400D01*
X118323500Y-66198400D01*
X118329626Y-66198701D01*
X118329626Y-66198701D01*
G37*
D13*
X118261000Y-66735900D03*
D12*
G36*
X118829626Y-66198701D02*
G01*
X118835693Y-66199601D01*
X118841643Y-66201091D01*
X118847418Y-66203158D01*
X118852962Y-66205780D01*
X118858223Y-66208933D01*
X118863150Y-66212587D01*
X118867694Y-66216706D01*
X118871813Y-66221250D01*
X118875467Y-66226177D01*
X118878620Y-66231438D01*
X118881242Y-66236982D01*
X118883309Y-66242757D01*
X118884799Y-66248707D01*
X118885699Y-66254774D01*
X118886000Y-66260900D01*
X118886000Y-67210900D01*
X118885699Y-67217026D01*
X118884799Y-67223093D01*
X118883309Y-67229043D01*
X118881242Y-67234818D01*
X118878620Y-67240362D01*
X118875467Y-67245623D01*
X118871813Y-67250550D01*
X118867694Y-67255094D01*
X118863150Y-67259213D01*
X118858223Y-67262867D01*
X118852962Y-67266020D01*
X118847418Y-67268642D01*
X118841643Y-67270709D01*
X118835693Y-67272199D01*
X118829626Y-67273099D01*
X118823500Y-67273400D01*
X118698500Y-67273400D01*
X118692374Y-67273099D01*
X118686307Y-67272199D01*
X118680357Y-67270709D01*
X118674582Y-67268642D01*
X118669038Y-67266020D01*
X118663777Y-67262867D01*
X118658850Y-67259213D01*
X118654306Y-67255094D01*
X118650187Y-67250550D01*
X118646533Y-67245623D01*
X118643380Y-67240362D01*
X118640758Y-67234818D01*
X118638691Y-67229043D01*
X118637201Y-67223093D01*
X118636301Y-67217026D01*
X118636000Y-67210900D01*
X118636000Y-66260900D01*
X118636301Y-66254774D01*
X118637201Y-66248707D01*
X118638691Y-66242757D01*
X118640758Y-66236982D01*
X118643380Y-66231438D01*
X118646533Y-66226177D01*
X118650187Y-66221250D01*
X118654306Y-66216706D01*
X118658850Y-66212587D01*
X118663777Y-66208933D01*
X118669038Y-66205780D01*
X118674582Y-66203158D01*
X118680357Y-66201091D01*
X118686307Y-66199601D01*
X118692374Y-66198701D01*
X118698500Y-66198400D01*
X118823500Y-66198400D01*
X118829626Y-66198701D01*
X118829626Y-66198701D01*
G37*
D13*
X118761000Y-66735900D03*
D12*
G36*
X119329626Y-66198701D02*
G01*
X119335693Y-66199601D01*
X119341643Y-66201091D01*
X119347418Y-66203158D01*
X119352962Y-66205780D01*
X119358223Y-66208933D01*
X119363150Y-66212587D01*
X119367694Y-66216706D01*
X119371813Y-66221250D01*
X119375467Y-66226177D01*
X119378620Y-66231438D01*
X119381242Y-66236982D01*
X119383309Y-66242757D01*
X119384799Y-66248707D01*
X119385699Y-66254774D01*
X119386000Y-66260900D01*
X119386000Y-67210900D01*
X119385699Y-67217026D01*
X119384799Y-67223093D01*
X119383309Y-67229043D01*
X119381242Y-67234818D01*
X119378620Y-67240362D01*
X119375467Y-67245623D01*
X119371813Y-67250550D01*
X119367694Y-67255094D01*
X119363150Y-67259213D01*
X119358223Y-67262867D01*
X119352962Y-67266020D01*
X119347418Y-67268642D01*
X119341643Y-67270709D01*
X119335693Y-67272199D01*
X119329626Y-67273099D01*
X119323500Y-67273400D01*
X119198500Y-67273400D01*
X119192374Y-67273099D01*
X119186307Y-67272199D01*
X119180357Y-67270709D01*
X119174582Y-67268642D01*
X119169038Y-67266020D01*
X119163777Y-67262867D01*
X119158850Y-67259213D01*
X119154306Y-67255094D01*
X119150187Y-67250550D01*
X119146533Y-67245623D01*
X119143380Y-67240362D01*
X119140758Y-67234818D01*
X119138691Y-67229043D01*
X119137201Y-67223093D01*
X119136301Y-67217026D01*
X119136000Y-67210900D01*
X119136000Y-66260900D01*
X119136301Y-66254774D01*
X119137201Y-66248707D01*
X119138691Y-66242757D01*
X119140758Y-66236982D01*
X119143380Y-66231438D01*
X119146533Y-66226177D01*
X119150187Y-66221250D01*
X119154306Y-66216706D01*
X119158850Y-66212587D01*
X119163777Y-66208933D01*
X119169038Y-66205780D01*
X119174582Y-66203158D01*
X119180357Y-66201091D01*
X119186307Y-66199601D01*
X119192374Y-66198701D01*
X119198500Y-66198400D01*
X119323500Y-66198400D01*
X119329626Y-66198701D01*
X119329626Y-66198701D01*
G37*
D13*
X119261000Y-66735900D03*
D12*
G36*
X119829626Y-66198701D02*
G01*
X119835693Y-66199601D01*
X119841643Y-66201091D01*
X119847418Y-66203158D01*
X119852962Y-66205780D01*
X119858223Y-66208933D01*
X119863150Y-66212587D01*
X119867694Y-66216706D01*
X119871813Y-66221250D01*
X119875467Y-66226177D01*
X119878620Y-66231438D01*
X119881242Y-66236982D01*
X119883309Y-66242757D01*
X119884799Y-66248707D01*
X119885699Y-66254774D01*
X119886000Y-66260900D01*
X119886000Y-67210900D01*
X119885699Y-67217026D01*
X119884799Y-67223093D01*
X119883309Y-67229043D01*
X119881242Y-67234818D01*
X119878620Y-67240362D01*
X119875467Y-67245623D01*
X119871813Y-67250550D01*
X119867694Y-67255094D01*
X119863150Y-67259213D01*
X119858223Y-67262867D01*
X119852962Y-67266020D01*
X119847418Y-67268642D01*
X119841643Y-67270709D01*
X119835693Y-67272199D01*
X119829626Y-67273099D01*
X119823500Y-67273400D01*
X119698500Y-67273400D01*
X119692374Y-67273099D01*
X119686307Y-67272199D01*
X119680357Y-67270709D01*
X119674582Y-67268642D01*
X119669038Y-67266020D01*
X119663777Y-67262867D01*
X119658850Y-67259213D01*
X119654306Y-67255094D01*
X119650187Y-67250550D01*
X119646533Y-67245623D01*
X119643380Y-67240362D01*
X119640758Y-67234818D01*
X119638691Y-67229043D01*
X119637201Y-67223093D01*
X119636301Y-67217026D01*
X119636000Y-67210900D01*
X119636000Y-66260900D01*
X119636301Y-66254774D01*
X119637201Y-66248707D01*
X119638691Y-66242757D01*
X119640758Y-66236982D01*
X119643380Y-66231438D01*
X119646533Y-66226177D01*
X119650187Y-66221250D01*
X119654306Y-66216706D01*
X119658850Y-66212587D01*
X119663777Y-66208933D01*
X119669038Y-66205780D01*
X119674582Y-66203158D01*
X119680357Y-66201091D01*
X119686307Y-66199601D01*
X119692374Y-66198701D01*
X119698500Y-66198400D01*
X119823500Y-66198400D01*
X119829626Y-66198701D01*
X119829626Y-66198701D01*
G37*
D13*
X119761000Y-66735900D03*
D12*
G36*
X120329626Y-66198701D02*
G01*
X120335693Y-66199601D01*
X120341643Y-66201091D01*
X120347418Y-66203158D01*
X120352962Y-66205780D01*
X120358223Y-66208933D01*
X120363150Y-66212587D01*
X120367694Y-66216706D01*
X120371813Y-66221250D01*
X120375467Y-66226177D01*
X120378620Y-66231438D01*
X120381242Y-66236982D01*
X120383309Y-66242757D01*
X120384799Y-66248707D01*
X120385699Y-66254774D01*
X120386000Y-66260900D01*
X120386000Y-67210900D01*
X120385699Y-67217026D01*
X120384799Y-67223093D01*
X120383309Y-67229043D01*
X120381242Y-67234818D01*
X120378620Y-67240362D01*
X120375467Y-67245623D01*
X120371813Y-67250550D01*
X120367694Y-67255094D01*
X120363150Y-67259213D01*
X120358223Y-67262867D01*
X120352962Y-67266020D01*
X120347418Y-67268642D01*
X120341643Y-67270709D01*
X120335693Y-67272199D01*
X120329626Y-67273099D01*
X120323500Y-67273400D01*
X120198500Y-67273400D01*
X120192374Y-67273099D01*
X120186307Y-67272199D01*
X120180357Y-67270709D01*
X120174582Y-67268642D01*
X120169038Y-67266020D01*
X120163777Y-67262867D01*
X120158850Y-67259213D01*
X120154306Y-67255094D01*
X120150187Y-67250550D01*
X120146533Y-67245623D01*
X120143380Y-67240362D01*
X120140758Y-67234818D01*
X120138691Y-67229043D01*
X120137201Y-67223093D01*
X120136301Y-67217026D01*
X120136000Y-67210900D01*
X120136000Y-66260900D01*
X120136301Y-66254774D01*
X120137201Y-66248707D01*
X120138691Y-66242757D01*
X120140758Y-66236982D01*
X120143380Y-66231438D01*
X120146533Y-66226177D01*
X120150187Y-66221250D01*
X120154306Y-66216706D01*
X120158850Y-66212587D01*
X120163777Y-66208933D01*
X120169038Y-66205780D01*
X120174582Y-66203158D01*
X120180357Y-66201091D01*
X120186307Y-66199601D01*
X120192374Y-66198701D01*
X120198500Y-66198400D01*
X120323500Y-66198400D01*
X120329626Y-66198701D01*
X120329626Y-66198701D01*
G37*
D13*
X120261000Y-66735900D03*
D12*
G36*
X120829626Y-66198701D02*
G01*
X120835693Y-66199601D01*
X120841643Y-66201091D01*
X120847418Y-66203158D01*
X120852962Y-66205780D01*
X120858223Y-66208933D01*
X120863150Y-66212587D01*
X120867694Y-66216706D01*
X120871813Y-66221250D01*
X120875467Y-66226177D01*
X120878620Y-66231438D01*
X120881242Y-66236982D01*
X120883309Y-66242757D01*
X120884799Y-66248707D01*
X120885699Y-66254774D01*
X120886000Y-66260900D01*
X120886000Y-67210900D01*
X120885699Y-67217026D01*
X120884799Y-67223093D01*
X120883309Y-67229043D01*
X120881242Y-67234818D01*
X120878620Y-67240362D01*
X120875467Y-67245623D01*
X120871813Y-67250550D01*
X120867694Y-67255094D01*
X120863150Y-67259213D01*
X120858223Y-67262867D01*
X120852962Y-67266020D01*
X120847418Y-67268642D01*
X120841643Y-67270709D01*
X120835693Y-67272199D01*
X120829626Y-67273099D01*
X120823500Y-67273400D01*
X120698500Y-67273400D01*
X120692374Y-67273099D01*
X120686307Y-67272199D01*
X120680357Y-67270709D01*
X120674582Y-67268642D01*
X120669038Y-67266020D01*
X120663777Y-67262867D01*
X120658850Y-67259213D01*
X120654306Y-67255094D01*
X120650187Y-67250550D01*
X120646533Y-67245623D01*
X120643380Y-67240362D01*
X120640758Y-67234818D01*
X120638691Y-67229043D01*
X120637201Y-67223093D01*
X120636301Y-67217026D01*
X120636000Y-67210900D01*
X120636000Y-66260900D01*
X120636301Y-66254774D01*
X120637201Y-66248707D01*
X120638691Y-66242757D01*
X120640758Y-66236982D01*
X120643380Y-66231438D01*
X120646533Y-66226177D01*
X120650187Y-66221250D01*
X120654306Y-66216706D01*
X120658850Y-66212587D01*
X120663777Y-66208933D01*
X120669038Y-66205780D01*
X120674582Y-66203158D01*
X120680357Y-66201091D01*
X120686307Y-66199601D01*
X120692374Y-66198701D01*
X120698500Y-66198400D01*
X120823500Y-66198400D01*
X120829626Y-66198701D01*
X120829626Y-66198701D01*
G37*
D13*
X120761000Y-66735900D03*
D12*
G36*
X121329626Y-66198701D02*
G01*
X121335693Y-66199601D01*
X121341643Y-66201091D01*
X121347418Y-66203158D01*
X121352962Y-66205780D01*
X121358223Y-66208933D01*
X121363150Y-66212587D01*
X121367694Y-66216706D01*
X121371813Y-66221250D01*
X121375467Y-66226177D01*
X121378620Y-66231438D01*
X121381242Y-66236982D01*
X121383309Y-66242757D01*
X121384799Y-66248707D01*
X121385699Y-66254774D01*
X121386000Y-66260900D01*
X121386000Y-67210900D01*
X121385699Y-67217026D01*
X121384799Y-67223093D01*
X121383309Y-67229043D01*
X121381242Y-67234818D01*
X121378620Y-67240362D01*
X121375467Y-67245623D01*
X121371813Y-67250550D01*
X121367694Y-67255094D01*
X121363150Y-67259213D01*
X121358223Y-67262867D01*
X121352962Y-67266020D01*
X121347418Y-67268642D01*
X121341643Y-67270709D01*
X121335693Y-67272199D01*
X121329626Y-67273099D01*
X121323500Y-67273400D01*
X121198500Y-67273400D01*
X121192374Y-67273099D01*
X121186307Y-67272199D01*
X121180357Y-67270709D01*
X121174582Y-67268642D01*
X121169038Y-67266020D01*
X121163777Y-67262867D01*
X121158850Y-67259213D01*
X121154306Y-67255094D01*
X121150187Y-67250550D01*
X121146533Y-67245623D01*
X121143380Y-67240362D01*
X121140758Y-67234818D01*
X121138691Y-67229043D01*
X121137201Y-67223093D01*
X121136301Y-67217026D01*
X121136000Y-67210900D01*
X121136000Y-66260900D01*
X121136301Y-66254774D01*
X121137201Y-66248707D01*
X121138691Y-66242757D01*
X121140758Y-66236982D01*
X121143380Y-66231438D01*
X121146533Y-66226177D01*
X121150187Y-66221250D01*
X121154306Y-66216706D01*
X121158850Y-66212587D01*
X121163777Y-66208933D01*
X121169038Y-66205780D01*
X121174582Y-66203158D01*
X121180357Y-66201091D01*
X121186307Y-66199601D01*
X121192374Y-66198701D01*
X121198500Y-66198400D01*
X121323500Y-66198400D01*
X121329626Y-66198701D01*
X121329626Y-66198701D01*
G37*
D13*
X121261000Y-66735900D03*
D12*
G36*
X121829626Y-66198701D02*
G01*
X121835693Y-66199601D01*
X121841643Y-66201091D01*
X121847418Y-66203158D01*
X121852962Y-66205780D01*
X121858223Y-66208933D01*
X121863150Y-66212587D01*
X121867694Y-66216706D01*
X121871813Y-66221250D01*
X121875467Y-66226177D01*
X121878620Y-66231438D01*
X121881242Y-66236982D01*
X121883309Y-66242757D01*
X121884799Y-66248707D01*
X121885699Y-66254774D01*
X121886000Y-66260900D01*
X121886000Y-67210900D01*
X121885699Y-67217026D01*
X121884799Y-67223093D01*
X121883309Y-67229043D01*
X121881242Y-67234818D01*
X121878620Y-67240362D01*
X121875467Y-67245623D01*
X121871813Y-67250550D01*
X121867694Y-67255094D01*
X121863150Y-67259213D01*
X121858223Y-67262867D01*
X121852962Y-67266020D01*
X121847418Y-67268642D01*
X121841643Y-67270709D01*
X121835693Y-67272199D01*
X121829626Y-67273099D01*
X121823500Y-67273400D01*
X121698500Y-67273400D01*
X121692374Y-67273099D01*
X121686307Y-67272199D01*
X121680357Y-67270709D01*
X121674582Y-67268642D01*
X121669038Y-67266020D01*
X121663777Y-67262867D01*
X121658850Y-67259213D01*
X121654306Y-67255094D01*
X121650187Y-67250550D01*
X121646533Y-67245623D01*
X121643380Y-67240362D01*
X121640758Y-67234818D01*
X121638691Y-67229043D01*
X121637201Y-67223093D01*
X121636301Y-67217026D01*
X121636000Y-67210900D01*
X121636000Y-66260900D01*
X121636301Y-66254774D01*
X121637201Y-66248707D01*
X121638691Y-66242757D01*
X121640758Y-66236982D01*
X121643380Y-66231438D01*
X121646533Y-66226177D01*
X121650187Y-66221250D01*
X121654306Y-66216706D01*
X121658850Y-66212587D01*
X121663777Y-66208933D01*
X121669038Y-66205780D01*
X121674582Y-66203158D01*
X121680357Y-66201091D01*
X121686307Y-66199601D01*
X121692374Y-66198701D01*
X121698500Y-66198400D01*
X121823500Y-66198400D01*
X121829626Y-66198701D01*
X121829626Y-66198701D01*
G37*
D13*
X121761000Y-66735900D03*
D12*
G36*
X122329626Y-66198701D02*
G01*
X122335693Y-66199601D01*
X122341643Y-66201091D01*
X122347418Y-66203158D01*
X122352962Y-66205780D01*
X122358223Y-66208933D01*
X122363150Y-66212587D01*
X122367694Y-66216706D01*
X122371813Y-66221250D01*
X122375467Y-66226177D01*
X122378620Y-66231438D01*
X122381242Y-66236982D01*
X122383309Y-66242757D01*
X122384799Y-66248707D01*
X122385699Y-66254774D01*
X122386000Y-66260900D01*
X122386000Y-67210900D01*
X122385699Y-67217026D01*
X122384799Y-67223093D01*
X122383309Y-67229043D01*
X122381242Y-67234818D01*
X122378620Y-67240362D01*
X122375467Y-67245623D01*
X122371813Y-67250550D01*
X122367694Y-67255094D01*
X122363150Y-67259213D01*
X122358223Y-67262867D01*
X122352962Y-67266020D01*
X122347418Y-67268642D01*
X122341643Y-67270709D01*
X122335693Y-67272199D01*
X122329626Y-67273099D01*
X122323500Y-67273400D01*
X122198500Y-67273400D01*
X122192374Y-67273099D01*
X122186307Y-67272199D01*
X122180357Y-67270709D01*
X122174582Y-67268642D01*
X122169038Y-67266020D01*
X122163777Y-67262867D01*
X122158850Y-67259213D01*
X122154306Y-67255094D01*
X122150187Y-67250550D01*
X122146533Y-67245623D01*
X122143380Y-67240362D01*
X122140758Y-67234818D01*
X122138691Y-67229043D01*
X122137201Y-67223093D01*
X122136301Y-67217026D01*
X122136000Y-67210900D01*
X122136000Y-66260900D01*
X122136301Y-66254774D01*
X122137201Y-66248707D01*
X122138691Y-66242757D01*
X122140758Y-66236982D01*
X122143380Y-66231438D01*
X122146533Y-66226177D01*
X122150187Y-66221250D01*
X122154306Y-66216706D01*
X122158850Y-66212587D01*
X122163777Y-66208933D01*
X122169038Y-66205780D01*
X122174582Y-66203158D01*
X122180357Y-66201091D01*
X122186307Y-66199601D01*
X122192374Y-66198701D01*
X122198500Y-66198400D01*
X122323500Y-66198400D01*
X122329626Y-66198701D01*
X122329626Y-66198701D01*
G37*
D13*
X122261000Y-66735900D03*
D12*
G36*
X122135504Y-60799604D02*
G01*
X122159773Y-60803204D01*
X122183571Y-60809165D01*
X122206671Y-60817430D01*
X122228849Y-60827920D01*
X122249893Y-60840533D01*
X122269598Y-60855147D01*
X122287777Y-60871623D01*
X122304253Y-60889802D01*
X122318867Y-60909507D01*
X122331480Y-60930551D01*
X122341970Y-60952729D01*
X122350235Y-60975829D01*
X122356196Y-60999627D01*
X122359796Y-61023896D01*
X122361000Y-61048400D01*
X122361000Y-65748400D01*
X122359796Y-65772904D01*
X122356196Y-65797173D01*
X122350235Y-65820971D01*
X122341970Y-65844071D01*
X122331480Y-65866249D01*
X122318867Y-65887293D01*
X122304253Y-65906998D01*
X122287777Y-65925177D01*
X122269598Y-65941653D01*
X122249893Y-65956267D01*
X122228849Y-65968880D01*
X122206671Y-65979370D01*
X122183571Y-65987635D01*
X122159773Y-65993596D01*
X122135504Y-65997196D01*
X122111000Y-65998400D01*
X117411000Y-65998400D01*
X117386496Y-65997196D01*
X117362227Y-65993596D01*
X117338429Y-65987635D01*
X117315329Y-65979370D01*
X117293151Y-65968880D01*
X117272107Y-65956267D01*
X117252402Y-65941653D01*
X117234223Y-65925177D01*
X117217747Y-65906998D01*
X117203133Y-65887293D01*
X117190520Y-65866249D01*
X117180030Y-65844071D01*
X117171765Y-65820971D01*
X117165804Y-65797173D01*
X117162204Y-65772904D01*
X117161000Y-65748400D01*
X117161000Y-61048400D01*
X117162204Y-61023896D01*
X117165804Y-60999627D01*
X117171765Y-60975829D01*
X117180030Y-60952729D01*
X117190520Y-60930551D01*
X117203133Y-60909507D01*
X117217747Y-60889802D01*
X117234223Y-60871623D01*
X117252402Y-60855147D01*
X117272107Y-60840533D01*
X117293151Y-60827920D01*
X117315329Y-60817430D01*
X117338429Y-60809165D01*
X117362227Y-60803204D01*
X117386496Y-60799604D01*
X117411000Y-60798400D01*
X122111000Y-60798400D01*
X122135504Y-60799604D01*
X122135504Y-60799604D01*
G37*
D14*
X119761000Y-63398400D03*
D12*
G36*
X120201958Y-70012910D02*
G01*
X120216276Y-70015034D01*
X120230317Y-70018551D01*
X120243946Y-70023428D01*
X120257031Y-70029617D01*
X120269447Y-70037058D01*
X120281073Y-70045681D01*
X120291798Y-70055402D01*
X120301519Y-70066127D01*
X120310142Y-70077753D01*
X120317583Y-70090169D01*
X120323772Y-70103254D01*
X120328649Y-70116883D01*
X120332166Y-70130924D01*
X120334290Y-70145242D01*
X120335000Y-70159700D01*
X120335000Y-70454700D01*
X120334290Y-70469158D01*
X120332166Y-70483476D01*
X120328649Y-70497517D01*
X120323772Y-70511146D01*
X120317583Y-70524231D01*
X120310142Y-70536647D01*
X120301519Y-70548273D01*
X120291798Y-70558998D01*
X120281073Y-70568719D01*
X120269447Y-70577342D01*
X120257031Y-70584783D01*
X120243946Y-70590972D01*
X120230317Y-70595849D01*
X120216276Y-70599366D01*
X120201958Y-70601490D01*
X120187500Y-70602200D01*
X119842500Y-70602200D01*
X119828042Y-70601490D01*
X119813724Y-70599366D01*
X119799683Y-70595849D01*
X119786054Y-70590972D01*
X119772969Y-70584783D01*
X119760553Y-70577342D01*
X119748927Y-70568719D01*
X119738202Y-70558998D01*
X119728481Y-70548273D01*
X119719858Y-70536647D01*
X119712417Y-70524231D01*
X119706228Y-70511146D01*
X119701351Y-70497517D01*
X119697834Y-70483476D01*
X119695710Y-70469158D01*
X119695000Y-70454700D01*
X119695000Y-70159700D01*
X119695710Y-70145242D01*
X119697834Y-70130924D01*
X119701351Y-70116883D01*
X119706228Y-70103254D01*
X119712417Y-70090169D01*
X119719858Y-70077753D01*
X119728481Y-70066127D01*
X119738202Y-70055402D01*
X119748927Y-70045681D01*
X119760553Y-70037058D01*
X119772969Y-70029617D01*
X119786054Y-70023428D01*
X119799683Y-70018551D01*
X119813724Y-70015034D01*
X119828042Y-70012910D01*
X119842500Y-70012200D01*
X120187500Y-70012200D01*
X120201958Y-70012910D01*
X120201958Y-70012910D01*
G37*
D15*
X120015000Y-70307200D03*
D12*
G36*
X120201958Y-69042910D02*
G01*
X120216276Y-69045034D01*
X120230317Y-69048551D01*
X120243946Y-69053428D01*
X120257031Y-69059617D01*
X120269447Y-69067058D01*
X120281073Y-69075681D01*
X120291798Y-69085402D01*
X120301519Y-69096127D01*
X120310142Y-69107753D01*
X120317583Y-69120169D01*
X120323772Y-69133254D01*
X120328649Y-69146883D01*
X120332166Y-69160924D01*
X120334290Y-69175242D01*
X120335000Y-69189700D01*
X120335000Y-69484700D01*
X120334290Y-69499158D01*
X120332166Y-69513476D01*
X120328649Y-69527517D01*
X120323772Y-69541146D01*
X120317583Y-69554231D01*
X120310142Y-69566647D01*
X120301519Y-69578273D01*
X120291798Y-69588998D01*
X120281073Y-69598719D01*
X120269447Y-69607342D01*
X120257031Y-69614783D01*
X120243946Y-69620972D01*
X120230317Y-69625849D01*
X120216276Y-69629366D01*
X120201958Y-69631490D01*
X120187500Y-69632200D01*
X119842500Y-69632200D01*
X119828042Y-69631490D01*
X119813724Y-69629366D01*
X119799683Y-69625849D01*
X119786054Y-69620972D01*
X119772969Y-69614783D01*
X119760553Y-69607342D01*
X119748927Y-69598719D01*
X119738202Y-69588998D01*
X119728481Y-69578273D01*
X119719858Y-69566647D01*
X119712417Y-69554231D01*
X119706228Y-69541146D01*
X119701351Y-69527517D01*
X119697834Y-69513476D01*
X119695710Y-69499158D01*
X119695000Y-69484700D01*
X119695000Y-69189700D01*
X119695710Y-69175242D01*
X119697834Y-69160924D01*
X119701351Y-69146883D01*
X119706228Y-69133254D01*
X119712417Y-69120169D01*
X119719858Y-69107753D01*
X119728481Y-69096127D01*
X119738202Y-69085402D01*
X119748927Y-69075681D01*
X119760553Y-69067058D01*
X119772969Y-69059617D01*
X119786054Y-69053428D01*
X119799683Y-69048551D01*
X119813724Y-69045034D01*
X119828042Y-69042910D01*
X119842500Y-69042200D01*
X120187500Y-69042200D01*
X120201958Y-69042910D01*
X120201958Y-69042910D01*
G37*
D15*
X120015000Y-69337200D03*
D16*
X126695200Y-66040000D03*
D12*
G36*
X119249858Y-67676510D02*
G01*
X119264176Y-67678634D01*
X119278217Y-67682151D01*
X119291846Y-67687028D01*
X119304931Y-67693217D01*
X119317347Y-67700658D01*
X119328973Y-67709281D01*
X119339698Y-67719002D01*
X119349419Y-67729727D01*
X119358042Y-67741353D01*
X119365483Y-67753769D01*
X119371672Y-67766854D01*
X119376549Y-67780483D01*
X119380066Y-67794524D01*
X119382190Y-67808842D01*
X119382900Y-67823300D01*
X119382900Y-68168300D01*
X119382190Y-68182758D01*
X119380066Y-68197076D01*
X119376549Y-68211117D01*
X119371672Y-68224746D01*
X119365483Y-68237831D01*
X119358042Y-68250247D01*
X119349419Y-68261873D01*
X119339698Y-68272598D01*
X119328973Y-68282319D01*
X119317347Y-68290942D01*
X119304931Y-68298383D01*
X119291846Y-68304572D01*
X119278217Y-68309449D01*
X119264176Y-68312966D01*
X119249858Y-68315090D01*
X119235400Y-68315800D01*
X118940400Y-68315800D01*
X118925942Y-68315090D01*
X118911624Y-68312966D01*
X118897583Y-68309449D01*
X118883954Y-68304572D01*
X118870869Y-68298383D01*
X118858453Y-68290942D01*
X118846827Y-68282319D01*
X118836102Y-68272598D01*
X118826381Y-68261873D01*
X118817758Y-68250247D01*
X118810317Y-68237831D01*
X118804128Y-68224746D01*
X118799251Y-68211117D01*
X118795734Y-68197076D01*
X118793610Y-68182758D01*
X118792900Y-68168300D01*
X118792900Y-67823300D01*
X118793610Y-67808842D01*
X118795734Y-67794524D01*
X118799251Y-67780483D01*
X118804128Y-67766854D01*
X118810317Y-67753769D01*
X118817758Y-67741353D01*
X118826381Y-67729727D01*
X118836102Y-67719002D01*
X118846827Y-67709281D01*
X118858453Y-67700658D01*
X118870869Y-67693217D01*
X118883954Y-67687028D01*
X118897583Y-67682151D01*
X118911624Y-67678634D01*
X118925942Y-67676510D01*
X118940400Y-67675800D01*
X119235400Y-67675800D01*
X119249858Y-67676510D01*
X119249858Y-67676510D01*
G37*
D15*
X119087900Y-67995800D03*
D12*
G36*
X120219858Y-67676510D02*
G01*
X120234176Y-67678634D01*
X120248217Y-67682151D01*
X120261846Y-67687028D01*
X120274931Y-67693217D01*
X120287347Y-67700658D01*
X120298973Y-67709281D01*
X120309698Y-67719002D01*
X120319419Y-67729727D01*
X120328042Y-67741353D01*
X120335483Y-67753769D01*
X120341672Y-67766854D01*
X120346549Y-67780483D01*
X120350066Y-67794524D01*
X120352190Y-67808842D01*
X120352900Y-67823300D01*
X120352900Y-68168300D01*
X120352190Y-68182758D01*
X120350066Y-68197076D01*
X120346549Y-68211117D01*
X120341672Y-68224746D01*
X120335483Y-68237831D01*
X120328042Y-68250247D01*
X120319419Y-68261873D01*
X120309698Y-68272598D01*
X120298973Y-68282319D01*
X120287347Y-68290942D01*
X120274931Y-68298383D01*
X120261846Y-68304572D01*
X120248217Y-68309449D01*
X120234176Y-68312966D01*
X120219858Y-68315090D01*
X120205400Y-68315800D01*
X119910400Y-68315800D01*
X119895942Y-68315090D01*
X119881624Y-68312966D01*
X119867583Y-68309449D01*
X119853954Y-68304572D01*
X119840869Y-68298383D01*
X119828453Y-68290942D01*
X119816827Y-68282319D01*
X119806102Y-68272598D01*
X119796381Y-68261873D01*
X119787758Y-68250247D01*
X119780317Y-68237831D01*
X119774128Y-68224746D01*
X119769251Y-68211117D01*
X119765734Y-68197076D01*
X119763610Y-68182758D01*
X119762900Y-68168300D01*
X119762900Y-67823300D01*
X119763610Y-67808842D01*
X119765734Y-67794524D01*
X119769251Y-67780483D01*
X119774128Y-67766854D01*
X119780317Y-67753769D01*
X119787758Y-67741353D01*
X119796381Y-67729727D01*
X119806102Y-67719002D01*
X119816827Y-67709281D01*
X119828453Y-67700658D01*
X119840869Y-67693217D01*
X119853954Y-67687028D01*
X119867583Y-67682151D01*
X119881624Y-67678634D01*
X119895942Y-67676510D01*
X119910400Y-67675800D01*
X120205400Y-67675800D01*
X120219858Y-67676510D01*
X120219858Y-67676510D01*
G37*
D15*
X120057900Y-67995800D03*
D12*
G36*
X120659158Y-57587510D02*
G01*
X120673476Y-57589634D01*
X120687517Y-57593151D01*
X120701146Y-57598028D01*
X120714231Y-57604217D01*
X120726647Y-57611658D01*
X120738273Y-57620281D01*
X120748998Y-57630002D01*
X120758719Y-57640727D01*
X120767342Y-57652353D01*
X120774783Y-57664769D01*
X120780972Y-57677854D01*
X120785849Y-57691483D01*
X120789366Y-57705524D01*
X120791490Y-57719842D01*
X120792200Y-57734300D01*
X120792200Y-58029300D01*
X120791490Y-58043758D01*
X120789366Y-58058076D01*
X120785849Y-58072117D01*
X120780972Y-58085746D01*
X120774783Y-58098831D01*
X120767342Y-58111247D01*
X120758719Y-58122873D01*
X120748998Y-58133598D01*
X120738273Y-58143319D01*
X120726647Y-58151942D01*
X120714231Y-58159383D01*
X120701146Y-58165572D01*
X120687517Y-58170449D01*
X120673476Y-58173966D01*
X120659158Y-58176090D01*
X120644700Y-58176800D01*
X120299700Y-58176800D01*
X120285242Y-58176090D01*
X120270924Y-58173966D01*
X120256883Y-58170449D01*
X120243254Y-58165572D01*
X120230169Y-58159383D01*
X120217753Y-58151942D01*
X120206127Y-58143319D01*
X120195402Y-58133598D01*
X120185681Y-58122873D01*
X120177058Y-58111247D01*
X120169617Y-58098831D01*
X120163428Y-58085746D01*
X120158551Y-58072117D01*
X120155034Y-58058076D01*
X120152910Y-58043758D01*
X120152200Y-58029300D01*
X120152200Y-57734300D01*
X120152910Y-57719842D01*
X120155034Y-57705524D01*
X120158551Y-57691483D01*
X120163428Y-57677854D01*
X120169617Y-57664769D01*
X120177058Y-57652353D01*
X120185681Y-57640727D01*
X120195402Y-57630002D01*
X120206127Y-57620281D01*
X120217753Y-57611658D01*
X120230169Y-57604217D01*
X120243254Y-57598028D01*
X120256883Y-57593151D01*
X120270924Y-57589634D01*
X120285242Y-57587510D01*
X120299700Y-57586800D01*
X120644700Y-57586800D01*
X120659158Y-57587510D01*
X120659158Y-57587510D01*
G37*
D15*
X120472200Y-57881800D03*
D12*
G36*
X120659158Y-58557510D02*
G01*
X120673476Y-58559634D01*
X120687517Y-58563151D01*
X120701146Y-58568028D01*
X120714231Y-58574217D01*
X120726647Y-58581658D01*
X120738273Y-58590281D01*
X120748998Y-58600002D01*
X120758719Y-58610727D01*
X120767342Y-58622353D01*
X120774783Y-58634769D01*
X120780972Y-58647854D01*
X120785849Y-58661483D01*
X120789366Y-58675524D01*
X120791490Y-58689842D01*
X120792200Y-58704300D01*
X120792200Y-58999300D01*
X120791490Y-59013758D01*
X120789366Y-59028076D01*
X120785849Y-59042117D01*
X120780972Y-59055746D01*
X120774783Y-59068831D01*
X120767342Y-59081247D01*
X120758719Y-59092873D01*
X120748998Y-59103598D01*
X120738273Y-59113319D01*
X120726647Y-59121942D01*
X120714231Y-59129383D01*
X120701146Y-59135572D01*
X120687517Y-59140449D01*
X120673476Y-59143966D01*
X120659158Y-59146090D01*
X120644700Y-59146800D01*
X120299700Y-59146800D01*
X120285242Y-59146090D01*
X120270924Y-59143966D01*
X120256883Y-59140449D01*
X120243254Y-59135572D01*
X120230169Y-59129383D01*
X120217753Y-59121942D01*
X120206127Y-59113319D01*
X120195402Y-59103598D01*
X120185681Y-59092873D01*
X120177058Y-59081247D01*
X120169617Y-59068831D01*
X120163428Y-59055746D01*
X120158551Y-59042117D01*
X120155034Y-59028076D01*
X120152910Y-59013758D01*
X120152200Y-58999300D01*
X120152200Y-58704300D01*
X120152910Y-58689842D01*
X120155034Y-58675524D01*
X120158551Y-58661483D01*
X120163428Y-58647854D01*
X120169617Y-58634769D01*
X120177058Y-58622353D01*
X120185681Y-58610727D01*
X120195402Y-58600002D01*
X120206127Y-58590281D01*
X120217753Y-58581658D01*
X120230169Y-58574217D01*
X120243254Y-58568028D01*
X120256883Y-58563151D01*
X120270924Y-58559634D01*
X120285242Y-58557510D01*
X120299700Y-58556800D01*
X120644700Y-58556800D01*
X120659158Y-58557510D01*
X120659158Y-58557510D01*
G37*
D15*
X120472200Y-58851800D03*
D12*
G36*
X124492558Y-63371210D02*
G01*
X124506876Y-63373334D01*
X124520917Y-63376851D01*
X124534546Y-63381728D01*
X124547631Y-63387917D01*
X124560047Y-63395358D01*
X124571673Y-63403981D01*
X124582398Y-63413702D01*
X124592119Y-63424427D01*
X124600742Y-63436053D01*
X124608183Y-63448469D01*
X124614372Y-63461554D01*
X124619249Y-63475183D01*
X124622766Y-63489224D01*
X124624890Y-63503542D01*
X124625600Y-63518000D01*
X124625600Y-63863000D01*
X124624890Y-63877458D01*
X124622766Y-63891776D01*
X124619249Y-63905817D01*
X124614372Y-63919446D01*
X124608183Y-63932531D01*
X124600742Y-63944947D01*
X124592119Y-63956573D01*
X124582398Y-63967298D01*
X124571673Y-63977019D01*
X124560047Y-63985642D01*
X124547631Y-63993083D01*
X124534546Y-63999272D01*
X124520917Y-64004149D01*
X124506876Y-64007666D01*
X124492558Y-64009790D01*
X124478100Y-64010500D01*
X124183100Y-64010500D01*
X124168642Y-64009790D01*
X124154324Y-64007666D01*
X124140283Y-64004149D01*
X124126654Y-63999272D01*
X124113569Y-63993083D01*
X124101153Y-63985642D01*
X124089527Y-63977019D01*
X124078802Y-63967298D01*
X124069081Y-63956573D01*
X124060458Y-63944947D01*
X124053017Y-63932531D01*
X124046828Y-63919446D01*
X124041951Y-63905817D01*
X124038434Y-63891776D01*
X124036310Y-63877458D01*
X124035600Y-63863000D01*
X124035600Y-63518000D01*
X124036310Y-63503542D01*
X124038434Y-63489224D01*
X124041951Y-63475183D01*
X124046828Y-63461554D01*
X124053017Y-63448469D01*
X124060458Y-63436053D01*
X124069081Y-63424427D01*
X124078802Y-63413702D01*
X124089527Y-63403981D01*
X124101153Y-63395358D01*
X124113569Y-63387917D01*
X124126654Y-63381728D01*
X124140283Y-63376851D01*
X124154324Y-63373334D01*
X124168642Y-63371210D01*
X124183100Y-63370500D01*
X124478100Y-63370500D01*
X124492558Y-63371210D01*
X124492558Y-63371210D01*
G37*
D15*
X124330600Y-63690500D03*
D12*
G36*
X125462558Y-63371210D02*
G01*
X125476876Y-63373334D01*
X125490917Y-63376851D01*
X125504546Y-63381728D01*
X125517631Y-63387917D01*
X125530047Y-63395358D01*
X125541673Y-63403981D01*
X125552398Y-63413702D01*
X125562119Y-63424427D01*
X125570742Y-63436053D01*
X125578183Y-63448469D01*
X125584372Y-63461554D01*
X125589249Y-63475183D01*
X125592766Y-63489224D01*
X125594890Y-63503542D01*
X125595600Y-63518000D01*
X125595600Y-63863000D01*
X125594890Y-63877458D01*
X125592766Y-63891776D01*
X125589249Y-63905817D01*
X125584372Y-63919446D01*
X125578183Y-63932531D01*
X125570742Y-63944947D01*
X125562119Y-63956573D01*
X125552398Y-63967298D01*
X125541673Y-63977019D01*
X125530047Y-63985642D01*
X125517631Y-63993083D01*
X125504546Y-63999272D01*
X125490917Y-64004149D01*
X125476876Y-64007666D01*
X125462558Y-64009790D01*
X125448100Y-64010500D01*
X125153100Y-64010500D01*
X125138642Y-64009790D01*
X125124324Y-64007666D01*
X125110283Y-64004149D01*
X125096654Y-63999272D01*
X125083569Y-63993083D01*
X125071153Y-63985642D01*
X125059527Y-63977019D01*
X125048802Y-63967298D01*
X125039081Y-63956573D01*
X125030458Y-63944947D01*
X125023017Y-63932531D01*
X125016828Y-63919446D01*
X125011951Y-63905817D01*
X125008434Y-63891776D01*
X125006310Y-63877458D01*
X125005600Y-63863000D01*
X125005600Y-63518000D01*
X125006310Y-63503542D01*
X125008434Y-63489224D01*
X125011951Y-63475183D01*
X125016828Y-63461554D01*
X125023017Y-63448469D01*
X125030458Y-63436053D01*
X125039081Y-63424427D01*
X125048802Y-63413702D01*
X125059527Y-63403981D01*
X125071153Y-63395358D01*
X125083569Y-63387917D01*
X125096654Y-63381728D01*
X125110283Y-63376851D01*
X125124324Y-63373334D01*
X125138642Y-63371210D01*
X125153100Y-63370500D01*
X125448100Y-63370500D01*
X125462558Y-63371210D01*
X125462558Y-63371210D01*
G37*
D15*
X125300600Y-63690500D03*
D12*
G36*
X114385758Y-63079110D02*
G01*
X114400076Y-63081234D01*
X114414117Y-63084751D01*
X114427746Y-63089628D01*
X114440831Y-63095817D01*
X114453247Y-63103258D01*
X114464873Y-63111881D01*
X114475598Y-63121602D01*
X114485319Y-63132327D01*
X114493942Y-63143953D01*
X114501383Y-63156369D01*
X114507572Y-63169454D01*
X114512449Y-63183083D01*
X114515966Y-63197124D01*
X114518090Y-63211442D01*
X114518800Y-63225900D01*
X114518800Y-63570900D01*
X114518090Y-63585358D01*
X114515966Y-63599676D01*
X114512449Y-63613717D01*
X114507572Y-63627346D01*
X114501383Y-63640431D01*
X114493942Y-63652847D01*
X114485319Y-63664473D01*
X114475598Y-63675198D01*
X114464873Y-63684919D01*
X114453247Y-63693542D01*
X114440831Y-63700983D01*
X114427746Y-63707172D01*
X114414117Y-63712049D01*
X114400076Y-63715566D01*
X114385758Y-63717690D01*
X114371300Y-63718400D01*
X114076300Y-63718400D01*
X114061842Y-63717690D01*
X114047524Y-63715566D01*
X114033483Y-63712049D01*
X114019854Y-63707172D01*
X114006769Y-63700983D01*
X113994353Y-63693542D01*
X113982727Y-63684919D01*
X113972002Y-63675198D01*
X113962281Y-63664473D01*
X113953658Y-63652847D01*
X113946217Y-63640431D01*
X113940028Y-63627346D01*
X113935151Y-63613717D01*
X113931634Y-63599676D01*
X113929510Y-63585358D01*
X113928800Y-63570900D01*
X113928800Y-63225900D01*
X113929510Y-63211442D01*
X113931634Y-63197124D01*
X113935151Y-63183083D01*
X113940028Y-63169454D01*
X113946217Y-63156369D01*
X113953658Y-63143953D01*
X113962281Y-63132327D01*
X113972002Y-63121602D01*
X113982727Y-63111881D01*
X113994353Y-63103258D01*
X114006769Y-63095817D01*
X114019854Y-63089628D01*
X114033483Y-63084751D01*
X114047524Y-63081234D01*
X114061842Y-63079110D01*
X114076300Y-63078400D01*
X114371300Y-63078400D01*
X114385758Y-63079110D01*
X114385758Y-63079110D01*
G37*
D15*
X114223800Y-63398400D03*
D12*
G36*
X115355758Y-63079110D02*
G01*
X115370076Y-63081234D01*
X115384117Y-63084751D01*
X115397746Y-63089628D01*
X115410831Y-63095817D01*
X115423247Y-63103258D01*
X115434873Y-63111881D01*
X115445598Y-63121602D01*
X115455319Y-63132327D01*
X115463942Y-63143953D01*
X115471383Y-63156369D01*
X115477572Y-63169454D01*
X115482449Y-63183083D01*
X115485966Y-63197124D01*
X115488090Y-63211442D01*
X115488800Y-63225900D01*
X115488800Y-63570900D01*
X115488090Y-63585358D01*
X115485966Y-63599676D01*
X115482449Y-63613717D01*
X115477572Y-63627346D01*
X115471383Y-63640431D01*
X115463942Y-63652847D01*
X115455319Y-63664473D01*
X115445598Y-63675198D01*
X115434873Y-63684919D01*
X115423247Y-63693542D01*
X115410831Y-63700983D01*
X115397746Y-63707172D01*
X115384117Y-63712049D01*
X115370076Y-63715566D01*
X115355758Y-63717690D01*
X115341300Y-63718400D01*
X115046300Y-63718400D01*
X115031842Y-63717690D01*
X115017524Y-63715566D01*
X115003483Y-63712049D01*
X114989854Y-63707172D01*
X114976769Y-63700983D01*
X114964353Y-63693542D01*
X114952727Y-63684919D01*
X114942002Y-63675198D01*
X114932281Y-63664473D01*
X114923658Y-63652847D01*
X114916217Y-63640431D01*
X114910028Y-63627346D01*
X114905151Y-63613717D01*
X114901634Y-63599676D01*
X114899510Y-63585358D01*
X114898800Y-63570900D01*
X114898800Y-63225900D01*
X114899510Y-63211442D01*
X114901634Y-63197124D01*
X114905151Y-63183083D01*
X114910028Y-63169454D01*
X114916217Y-63156369D01*
X114923658Y-63143953D01*
X114932281Y-63132327D01*
X114942002Y-63121602D01*
X114952727Y-63111881D01*
X114964353Y-63103258D01*
X114976769Y-63095817D01*
X114989854Y-63089628D01*
X115003483Y-63084751D01*
X115017524Y-63081234D01*
X115031842Y-63079110D01*
X115046300Y-63078400D01*
X115341300Y-63078400D01*
X115355758Y-63079110D01*
X115355758Y-63079110D01*
G37*
D15*
X115193800Y-63398400D03*
D12*
G36*
X115045758Y-57579610D02*
G01*
X115060076Y-57581734D01*
X115074117Y-57585251D01*
X115087746Y-57590128D01*
X115100831Y-57596317D01*
X115113247Y-57603758D01*
X115124873Y-57612381D01*
X115135598Y-57622102D01*
X115145319Y-57632827D01*
X115153942Y-57644453D01*
X115161383Y-57656869D01*
X115167572Y-57669954D01*
X115172449Y-57683583D01*
X115175966Y-57697624D01*
X115178090Y-57711942D01*
X115178800Y-57726400D01*
X115178800Y-58021400D01*
X115178090Y-58035858D01*
X115175966Y-58050176D01*
X115172449Y-58064217D01*
X115167572Y-58077846D01*
X115161383Y-58090931D01*
X115153942Y-58103347D01*
X115145319Y-58114973D01*
X115135598Y-58125698D01*
X115124873Y-58135419D01*
X115113247Y-58144042D01*
X115100831Y-58151483D01*
X115087746Y-58157672D01*
X115074117Y-58162549D01*
X115060076Y-58166066D01*
X115045758Y-58168190D01*
X115031300Y-58168900D01*
X114686300Y-58168900D01*
X114671842Y-58168190D01*
X114657524Y-58166066D01*
X114643483Y-58162549D01*
X114629854Y-58157672D01*
X114616769Y-58151483D01*
X114604353Y-58144042D01*
X114592727Y-58135419D01*
X114582002Y-58125698D01*
X114572281Y-58114973D01*
X114563658Y-58103347D01*
X114556217Y-58090931D01*
X114550028Y-58077846D01*
X114545151Y-58064217D01*
X114541634Y-58050176D01*
X114539510Y-58035858D01*
X114538800Y-58021400D01*
X114538800Y-57726400D01*
X114539510Y-57711942D01*
X114541634Y-57697624D01*
X114545151Y-57683583D01*
X114550028Y-57669954D01*
X114556217Y-57656869D01*
X114563658Y-57644453D01*
X114572281Y-57632827D01*
X114582002Y-57622102D01*
X114592727Y-57612381D01*
X114604353Y-57603758D01*
X114616769Y-57596317D01*
X114629854Y-57590128D01*
X114643483Y-57585251D01*
X114657524Y-57581734D01*
X114671842Y-57579610D01*
X114686300Y-57578900D01*
X115031300Y-57578900D01*
X115045758Y-57579610D01*
X115045758Y-57579610D01*
G37*
D15*
X114858800Y-57873900D03*
D12*
G36*
X115045758Y-58549610D02*
G01*
X115060076Y-58551734D01*
X115074117Y-58555251D01*
X115087746Y-58560128D01*
X115100831Y-58566317D01*
X115113247Y-58573758D01*
X115124873Y-58582381D01*
X115135598Y-58592102D01*
X115145319Y-58602827D01*
X115153942Y-58614453D01*
X115161383Y-58626869D01*
X115167572Y-58639954D01*
X115172449Y-58653583D01*
X115175966Y-58667624D01*
X115178090Y-58681942D01*
X115178800Y-58696400D01*
X115178800Y-58991400D01*
X115178090Y-59005858D01*
X115175966Y-59020176D01*
X115172449Y-59034217D01*
X115167572Y-59047846D01*
X115161383Y-59060931D01*
X115153942Y-59073347D01*
X115145319Y-59084973D01*
X115135598Y-59095698D01*
X115124873Y-59105419D01*
X115113247Y-59114042D01*
X115100831Y-59121483D01*
X115087746Y-59127672D01*
X115074117Y-59132549D01*
X115060076Y-59136066D01*
X115045758Y-59138190D01*
X115031300Y-59138900D01*
X114686300Y-59138900D01*
X114671842Y-59138190D01*
X114657524Y-59136066D01*
X114643483Y-59132549D01*
X114629854Y-59127672D01*
X114616769Y-59121483D01*
X114604353Y-59114042D01*
X114592727Y-59105419D01*
X114582002Y-59095698D01*
X114572281Y-59084973D01*
X114563658Y-59073347D01*
X114556217Y-59060931D01*
X114550028Y-59047846D01*
X114545151Y-59034217D01*
X114541634Y-59020176D01*
X114539510Y-59005858D01*
X114538800Y-58991400D01*
X114538800Y-58696400D01*
X114539510Y-58681942D01*
X114541634Y-58667624D01*
X114545151Y-58653583D01*
X114550028Y-58639954D01*
X114556217Y-58626869D01*
X114563658Y-58614453D01*
X114572281Y-58602827D01*
X114582002Y-58592102D01*
X114592727Y-58582381D01*
X114604353Y-58573758D01*
X114616769Y-58566317D01*
X114629854Y-58560128D01*
X114643483Y-58555251D01*
X114657524Y-58551734D01*
X114671842Y-58549610D01*
X114686300Y-58548900D01*
X115031300Y-58548900D01*
X115045758Y-58549610D01*
X115045758Y-58549610D01*
G37*
D15*
X114858800Y-58843900D03*
D17*
X121335800Y-65608200D03*
X123342400Y-67513200D03*
X121488200Y-57861200D03*
X118592600Y-69062600D03*
X114223800Y-63398400D03*
X122000000Y-71000000D03*
X120472200Y-57886600D03*
X117678200Y-57886600D03*
X114858800Y-57861200D03*
X114223800Y-70332600D03*
X123380500Y-59702700D03*
X126365000Y-60718700D03*
X125298200Y-63690500D03*
X125298200Y-61671200D03*
X120091200Y-67818000D03*
X125298200Y-65557400D03*
X115214400Y-63398400D03*
X125984000Y-71000000D03*
X120472200Y-58877200D03*
X117678200Y-58826400D03*
X114833400Y-58826400D03*
X121488200Y-58877200D03*
X116078000Y-67310000D03*
X113563400Y-64160400D03*
X123000000Y-71000000D03*
X124409200Y-66852800D03*
X115062000Y-67411600D03*
X115951000Y-70332600D03*
X124409200Y-65862200D03*
X114173000Y-67386200D03*
X112826800Y-69342000D03*
X112826800Y-67945000D03*
X112801400Y-66548000D03*
X112801400Y-65176400D03*
X112801400Y-63728600D03*
X112826800Y-62331600D03*
X127000000Y-71000000D03*
X115443000Y-60147200D03*
X123571000Y-69392800D03*
X125000000Y-71000000D03*
X114604800Y-60147200D03*
X122072400Y-69189600D03*
X124000000Y-71000000D03*
X116281200Y-60147200D03*
X124409200Y-67716400D03*
D18*
X111068610Y-61645800D02*
X112572800Y-61645800D01*
D19*
X119761000Y-66735900D02*
X119761000Y-63398400D01*
X119261000Y-62898400D02*
X119761000Y-63398400D01*
X116423500Y-62898400D02*
X119261000Y-62898400D01*
X123098500Y-63398400D02*
X119761000Y-63398400D01*
X119761000Y-60060900D02*
X119761000Y-63398400D01*
X114219000Y-63295398D02*
X114219000Y-63423800D01*
X114840999Y-62673399D02*
X114219000Y-63295398D01*
X115537001Y-62673399D02*
X114840999Y-62673399D01*
X115762002Y-62898400D02*
X115537001Y-62673399D01*
X116423500Y-62898400D02*
X115762002Y-62898400D01*
X119911315Y-57881800D02*
X120472200Y-57881800D01*
X119747199Y-58045916D02*
X119911315Y-57881800D01*
X119747199Y-59409599D02*
X119747199Y-58045916D01*
X119761000Y-59423400D02*
X119747199Y-59409599D01*
X119761000Y-60060900D02*
X119761000Y-59423400D01*
X118992599Y-68662601D02*
X118592600Y-69062600D01*
X118992599Y-68097599D02*
X118992599Y-68662601D01*
X119761000Y-67329198D02*
X118992599Y-68097599D01*
X119761000Y-66735900D02*
X119761000Y-67329198D01*
X110909100Y-61660000D02*
X111587198Y-61660000D01*
D18*
X113652300Y-58934498D02*
X113652300Y-60566300D01*
X114725598Y-57861200D02*
X113652300Y-58934498D01*
D19*
X114858800Y-57861200D02*
X114725598Y-57861200D01*
D18*
X112572800Y-61645800D02*
X113652300Y-60566300D01*
D19*
X124038500Y-63398400D02*
X124330600Y-63690500D01*
X123098500Y-63398400D02*
X124038500Y-63398400D01*
X120261000Y-67673600D02*
X120091200Y-67843400D01*
X120261000Y-66735900D02*
X120261000Y-67673600D01*
X116423500Y-63398400D02*
X115189000Y-63398400D01*
X118612022Y-58826400D02*
X117678200Y-58826400D01*
X119261000Y-59475378D02*
X118612022Y-58826400D01*
X119261000Y-60060900D02*
X119261000Y-59475378D01*
X120261000Y-59063000D02*
X120472200Y-58851800D01*
X120261000Y-60060900D02*
X120261000Y-59063000D01*
X120091200Y-68263400D02*
X119852590Y-68502010D01*
X120091200Y-67843400D02*
X120091200Y-68263400D01*
X125123447Y-61648647D02*
X125254229Y-61583258D01*
X125113322Y-61679021D02*
X125123447Y-61648647D01*
X123098500Y-62898400D02*
X123893943Y-62898400D01*
X123893943Y-62898400D02*
X125113322Y-61679021D01*
X119595000Y-70307200D02*
X120015000Y-70307200D01*
X119369990Y-70082190D02*
X119595000Y-70307200D01*
X119369990Y-68993978D02*
X119369990Y-70082190D01*
X119818201Y-68545767D02*
X119369990Y-68993978D01*
D18*
X125984000Y-69849002D02*
X125984000Y-71000000D01*
X125298200Y-69163202D02*
X125984000Y-69849002D01*
X125298200Y-65557400D02*
X125298200Y-69163202D01*
D19*
X121513600Y-70358000D02*
X122402600Y-70358000D01*
X120761000Y-66735900D02*
X120761000Y-67249800D01*
X120816201Y-68535999D02*
X120015000Y-69337200D01*
X120816201Y-67469999D02*
X120816201Y-68535999D01*
X120761000Y-67414798D02*
X120816201Y-67469999D01*
X120761000Y-66735900D02*
X120761000Y-67414798D01*
X123000000Y-71000000D02*
X123000000Y-70726800D01*
X120768556Y-69671368D02*
X121461798Y-70364610D01*
X120015000Y-69337200D02*
X120349168Y-69671368D01*
X120349168Y-69671368D02*
X120768556Y-69671368D01*
X121461798Y-70364610D02*
X121549597Y-70364610D01*
X123000000Y-71000000D02*
X123000000Y-70926998D01*
X123000000Y-70926998D02*
X122437613Y-70364611D01*
X124052900Y-66852800D02*
X124409200Y-66852800D01*
X123098500Y-65898400D02*
X124052900Y-66852800D01*
X124409200Y-65296515D02*
X124409200Y-65862200D01*
X124011085Y-64898400D02*
X124409200Y-65296515D01*
X123098500Y-64898400D02*
X124011085Y-64898400D01*
X116436420Y-69342000D02*
X116255800Y-69342000D01*
X118261000Y-67517420D02*
X116436420Y-69342000D01*
X118261000Y-66735900D02*
X118261000Y-67517420D01*
X116428810Y-69342000D02*
X116255800Y-69342000D01*
X116255800Y-69342000D02*
X112554285Y-69342000D01*
X111480600Y-68656200D02*
X112572800Y-68656200D01*
X116485810Y-68656200D02*
X112420400Y-68656200D01*
X117761000Y-66735900D02*
X117761000Y-67381010D01*
X117761000Y-67381010D02*
X116485810Y-68656200D01*
X116368999Y-68136601D02*
X117261000Y-67244600D01*
X112820703Y-68136601D02*
X116368999Y-68136601D01*
X112629102Y-67945000D02*
X112820703Y-68136601D01*
X117261000Y-66735900D02*
X117261000Y-67244600D01*
X115645401Y-66661199D02*
X116408200Y-65898400D01*
X113824999Y-66661199D02*
X115645401Y-66661199D01*
X113226998Y-67259200D02*
X113824999Y-66661199D01*
X111302800Y-67259200D02*
X113226998Y-67259200D01*
X116423500Y-65398400D02*
X116423500Y-65415100D01*
X116423500Y-65415100D02*
X116390210Y-65448390D01*
X115786000Y-65398400D02*
X116423500Y-65398400D01*
X114973211Y-66211189D02*
X115786000Y-65398400D01*
X113638599Y-66211189D02*
X114973211Y-66211189D01*
X113301788Y-66548000D02*
X113638599Y-66211189D01*
X112801400Y-66548000D02*
X113301788Y-66548000D01*
X115649590Y-64898400D02*
X116423500Y-64898400D01*
X114786811Y-65761179D02*
X115649590Y-64898400D01*
X113452199Y-65761179D02*
X114786811Y-65761179D01*
X113351178Y-65862200D02*
X113452199Y-65761179D01*
X110837988Y-65862200D02*
X113351178Y-65862200D01*
X112845270Y-65311170D02*
X112960999Y-65311169D01*
X112669101Y-65135001D02*
X112845270Y-65311170D01*
X115513180Y-64398400D02*
X116423500Y-64398400D01*
X114600410Y-65311170D02*
X115513180Y-64398400D01*
X112845270Y-65311170D02*
X114600410Y-65311170D01*
X112990799Y-64465200D02*
X111926102Y-64465200D01*
X115933600Y-63898400D02*
X116423500Y-63898400D01*
X115883610Y-63948390D02*
X115933600Y-63898400D01*
X115326780Y-63948390D02*
X115883610Y-63948390D01*
X114454370Y-64820800D02*
X115326780Y-63948390D01*
X113007442Y-64468042D02*
X113360200Y-64820800D01*
X113360200Y-64820800D02*
X114454370Y-64820800D01*
X116423500Y-61898400D02*
X114691422Y-61898400D01*
X114691422Y-61898400D02*
X112854821Y-63735001D01*
X112854821Y-63735001D02*
X112669101Y-63735001D01*
X111221010Y-63068200D02*
X112699800Y-63068200D01*
X114555012Y-61398400D02*
X112885212Y-63068200D01*
X116423500Y-61398400D02*
X114555012Y-61398400D01*
X112885212Y-63068200D02*
X112471200Y-63068200D01*
X112946201Y-62331600D02*
X112522000Y-62331600D01*
X116423500Y-60898400D02*
X114418602Y-60898400D01*
X114418602Y-60898400D02*
X112920801Y-62396201D01*
X121261000Y-66735900D02*
X121266211Y-66741111D01*
X121261000Y-66735900D02*
X121261000Y-67373400D01*
X121259600Y-67446790D02*
X121259600Y-69526002D01*
X123049199Y-69914601D02*
X123571000Y-69392800D01*
X121735998Y-69914601D02*
X123049199Y-69914601D01*
X121347399Y-69526002D02*
X121735998Y-69914601D01*
X121259600Y-69526002D02*
X121347399Y-69526002D01*
X121761000Y-68878200D02*
X122072400Y-69189600D01*
X121761000Y-66735900D02*
X121761000Y-68878200D01*
X123887399Y-68238201D02*
X124409200Y-67716400D01*
X122994399Y-68238201D02*
X123887399Y-68238201D01*
X122261000Y-67504802D02*
X122994399Y-68238201D01*
X122261000Y-66735900D02*
X122261000Y-67504802D01*
X124409200Y-70517798D02*
X124000000Y-70926998D01*
X124409200Y-67716400D02*
X124409200Y-70517798D01*
M02*
