G04 #@! TF.GenerationSoftware,KiCad,Pcbnew,(5.1.5)-3*
G04 #@! TF.CreationDate,2022-01-20T18:21:30+01:00*
G04 #@! TF.ProjectId,HB-ES-PMSwX-Pl_Gosund,48422d45-532d-4504-9d53-77582d506c5f,rev?*
G04 #@! TF.SameCoordinates,Original*
G04 #@! TF.FileFunction,Copper,L2,Inr*
G04 #@! TF.FilePolarity,Positive*
%FSLAX46Y46*%
G04 Gerber Fmt 4.6, Leading zero omitted, Abs format (unit mm)*
G04 Created by KiCad (PCBNEW (5.1.5)-3) date 2022-01-20 18:21:30*
%MOMM*%
%LPD*%
G04 APERTURE LIST*
%ADD10R,1.700000X1.700000*%
%ADD11C,0.600000*%
%ADD12C,0.250000*%
%ADD13C,0.500000*%
%ADD14C,0.254000*%
G04 APERTURE END LIST*
D10*
X126695200Y-66040000D03*
D11*
X121335800Y-65608200D03*
X123342400Y-67513200D03*
X121488200Y-57861200D03*
X118592600Y-69062600D03*
X114223800Y-63398400D03*
X122000000Y-71000000D03*
X120472200Y-57886600D03*
X117678200Y-57886600D03*
X114858800Y-57861200D03*
X114223800Y-70332600D03*
X123380500Y-59702700D03*
X126365000Y-60718700D03*
X125298200Y-63690500D03*
X120091200Y-67818000D03*
X115214400Y-63398400D03*
X120472200Y-58877200D03*
X117678200Y-58826400D03*
X114833400Y-58826400D03*
X121488200Y-58877200D03*
X125298200Y-65557400D03*
X125298200Y-61671200D03*
X124409200Y-66852800D03*
X114740000Y-67840000D03*
X115951000Y-70332600D03*
X124409200Y-65862200D03*
X114020000Y-67390000D03*
X112115600Y-69367400D03*
X112115600Y-67945000D03*
X112115600Y-66548000D03*
X112115600Y-63754000D03*
X112115600Y-65151000D03*
X112115600Y-62357000D03*
X115443000Y-60147200D03*
X123571000Y-69392800D03*
X114604800Y-60147200D03*
X122072400Y-69189600D03*
X116281200Y-60147200D03*
X124409200Y-67716400D03*
X113625000Y-64225000D03*
X115340000Y-67320000D03*
D12*
X117652800Y-57861200D02*
X117678200Y-57886600D01*
X121462800Y-57886600D02*
X121488200Y-57861200D01*
D13*
X123240800Y-67513200D02*
X123342400Y-67513200D01*
X120530000Y-71000000D02*
X118592600Y-69062600D01*
X122000000Y-71000000D02*
X120530000Y-71000000D01*
X115493800Y-69062600D02*
X118592600Y-69062600D01*
X114223800Y-70332600D02*
X115493800Y-69062600D01*
X114833400Y-58826400D02*
X117678200Y-58826400D01*
D12*
X120421400Y-58826400D02*
X120472200Y-58877200D01*
D13*
X117678200Y-58826400D02*
X120421400Y-58826400D01*
X120472200Y-58877200D02*
X121488200Y-58877200D01*
D12*
X124898201Y-64090499D02*
X125298200Y-63690500D01*
D13*
X122200501Y-66788199D02*
X124898201Y-64090499D01*
X121121001Y-66788199D02*
X122200501Y-66788199D01*
X120091200Y-67818000D02*
X121121001Y-66788199D01*
X125298200Y-61671200D02*
X125298200Y-65557400D01*
X124282200Y-61671200D02*
X125298200Y-61671200D01*
X121488200Y-58877200D02*
X124282200Y-61671200D01*
X119634000Y-67818000D02*
X120091200Y-67818000D01*
X115214400Y-63398400D02*
X119634000Y-67818000D01*
D12*
X119315013Y-68337599D02*
X115237599Y-68337599D01*
X119520415Y-68543001D02*
X119315013Y-68337599D01*
X121645997Y-68543001D02*
X119520415Y-68543001D01*
X124618602Y-66852800D02*
X125134201Y-67368399D01*
X124409200Y-66852800D02*
X124618602Y-66852800D01*
X121747597Y-68441401D02*
X121645997Y-68543001D01*
X125134201Y-67368399D02*
X125134201Y-68064401D01*
X115237599Y-68337599D02*
X114740000Y-67840000D01*
X124757201Y-68441401D02*
X121747597Y-68441401D01*
X125134201Y-68064401D02*
X124757201Y-68441401D01*
X113625000Y-64225000D02*
X113625000Y-64875000D01*
X113625000Y-65605000D02*
X113625000Y-64225000D01*
X115340000Y-67320000D02*
X113625000Y-65605000D01*
D14*
G36*
X114030214Y-57418311D02*
G01*
X113959732Y-57588471D01*
X113923800Y-57769111D01*
X113923800Y-57953289D01*
X113959732Y-58133929D01*
X114030214Y-58304089D01*
X114132538Y-58457228D01*
X114262772Y-58587462D01*
X114415911Y-58689786D01*
X114586071Y-58760268D01*
X114766711Y-58796200D01*
X114950889Y-58796200D01*
X115131529Y-58760268D01*
X115301689Y-58689786D01*
X115454828Y-58587462D01*
X115585062Y-58457228D01*
X115687386Y-58304089D01*
X115757868Y-58133929D01*
X115793800Y-57953289D01*
X115793800Y-57769111D01*
X115757868Y-57588471D01*
X115687386Y-57418311D01*
X115677556Y-57403600D01*
X116876415Y-57403600D01*
X116849614Y-57443711D01*
X116779132Y-57613871D01*
X116743200Y-57794511D01*
X116743200Y-57978689D01*
X116779132Y-58159329D01*
X116849614Y-58329489D01*
X116951938Y-58482628D01*
X117082172Y-58612862D01*
X117235311Y-58715186D01*
X117405471Y-58785668D01*
X117586111Y-58821600D01*
X117770289Y-58821600D01*
X117950929Y-58785668D01*
X118121089Y-58715186D01*
X118274228Y-58612862D01*
X118404462Y-58482628D01*
X118506786Y-58329489D01*
X118577268Y-58159329D01*
X118613200Y-57978689D01*
X118613200Y-57794511D01*
X118577268Y-57613871D01*
X118506786Y-57443711D01*
X118479985Y-57403600D01*
X119670415Y-57403600D01*
X119643614Y-57443711D01*
X119573132Y-57613871D01*
X119537200Y-57794511D01*
X119537200Y-57978689D01*
X119573132Y-58159329D01*
X119643614Y-58329489D01*
X119745938Y-58482628D01*
X119876172Y-58612862D01*
X120029311Y-58715186D01*
X120199471Y-58785668D01*
X120380111Y-58821600D01*
X120564289Y-58821600D01*
X120744929Y-58785668D01*
X120915089Y-58715186D01*
X120999207Y-58658980D01*
X121045311Y-58689786D01*
X121215471Y-58760268D01*
X121396111Y-58796200D01*
X121580289Y-58796200D01*
X121760929Y-58760268D01*
X121931089Y-58689786D01*
X122084228Y-58587462D01*
X122214462Y-58457228D01*
X122316786Y-58304089D01*
X122387268Y-58133929D01*
X122423200Y-57953289D01*
X122423200Y-57769111D01*
X122387268Y-57588471D01*
X122316786Y-57418311D01*
X122306956Y-57403600D01*
X127025800Y-57403600D01*
X127025800Y-60057210D01*
X126961028Y-59992438D01*
X126807889Y-59890114D01*
X126637729Y-59819632D01*
X126457089Y-59783700D01*
X126272911Y-59783700D01*
X126092271Y-59819632D01*
X125922111Y-59890114D01*
X125768972Y-59992438D01*
X125638738Y-60122672D01*
X125536414Y-60275811D01*
X125465932Y-60445971D01*
X125430000Y-60626611D01*
X125430000Y-60810789D01*
X125465932Y-60991429D01*
X125536414Y-61161589D01*
X125638738Y-61314728D01*
X125768972Y-61444962D01*
X125922111Y-61547286D01*
X126092271Y-61617768D01*
X126272911Y-61653700D01*
X126457089Y-61653700D01*
X126637729Y-61617768D01*
X126807889Y-61547286D01*
X126961028Y-61444962D01*
X127025800Y-61380190D01*
X127025801Y-64551928D01*
X125845200Y-64551928D01*
X125720718Y-64564188D01*
X125601020Y-64600498D01*
X125490706Y-64659463D01*
X125394015Y-64738815D01*
X125314663Y-64835506D01*
X125255698Y-64945820D01*
X125219388Y-65065518D01*
X125207128Y-65190000D01*
X125207128Y-65373428D01*
X125135462Y-65266172D01*
X125005228Y-65135938D01*
X124852089Y-65033614D01*
X124681929Y-64963132D01*
X124501289Y-64927200D01*
X124317111Y-64927200D01*
X124136471Y-64963132D01*
X123966311Y-65033614D01*
X123813172Y-65135938D01*
X123682938Y-65266172D01*
X123580614Y-65419311D01*
X123510132Y-65589471D01*
X123474200Y-65770111D01*
X123474200Y-65954289D01*
X123510132Y-66134929D01*
X123580614Y-66305089D01*
X123615634Y-66357500D01*
X123580614Y-66409911D01*
X123510132Y-66580071D01*
X123507611Y-66592745D01*
X123434489Y-66578200D01*
X123250311Y-66578200D01*
X123069671Y-66614132D01*
X122899511Y-66684614D01*
X122843264Y-66722197D01*
X122746741Y-66773789D01*
X122611983Y-66884383D01*
X122501389Y-67019141D01*
X122419211Y-67172887D01*
X122368605Y-67339710D01*
X122351518Y-67513200D01*
X122368084Y-67681401D01*
X121784919Y-67681401D01*
X121747596Y-67677725D01*
X121710274Y-67681401D01*
X121710264Y-67681401D01*
X121598611Y-67692398D01*
X121455350Y-67735855D01*
X121367147Y-67783001D01*
X119837227Y-67783001D01*
X119739289Y-67702625D01*
X119607260Y-67632053D01*
X119463999Y-67588596D01*
X119352346Y-67577599D01*
X119352335Y-67577599D01*
X119315013Y-67573923D01*
X119277691Y-67577599D01*
X116242078Y-67577599D01*
X116275000Y-67412089D01*
X116275000Y-67227911D01*
X116239068Y-67047271D01*
X116168586Y-66877111D01*
X116066262Y-66723972D01*
X115936028Y-66593738D01*
X115782889Y-66491414D01*
X115612729Y-66420932D01*
X115491649Y-66396847D01*
X114610913Y-65516111D01*
X120400800Y-65516111D01*
X120400800Y-65700289D01*
X120436732Y-65880929D01*
X120507214Y-66051089D01*
X120609538Y-66204228D01*
X120739772Y-66334462D01*
X120892911Y-66436786D01*
X121063071Y-66507268D01*
X121243711Y-66543200D01*
X121427889Y-66543200D01*
X121608529Y-66507268D01*
X121778689Y-66436786D01*
X121931828Y-66334462D01*
X122062062Y-66204228D01*
X122164386Y-66051089D01*
X122234868Y-65880929D01*
X122270800Y-65700289D01*
X122270800Y-65516111D01*
X122234868Y-65335471D01*
X122164386Y-65165311D01*
X122062062Y-65012172D01*
X121931828Y-64881938D01*
X121778689Y-64779614D01*
X121608529Y-64709132D01*
X121427889Y-64673200D01*
X121243711Y-64673200D01*
X121063071Y-64709132D01*
X120892911Y-64779614D01*
X120739772Y-64881938D01*
X120609538Y-65012172D01*
X120507214Y-65165311D01*
X120436732Y-65335471D01*
X120400800Y-65516111D01*
X114610913Y-65516111D01*
X114385000Y-65290199D01*
X114385000Y-64770535D01*
X114453586Y-64667889D01*
X114524068Y-64497729D01*
X114560000Y-64317089D01*
X114560000Y-64271178D01*
X114666689Y-64226986D01*
X114819828Y-64124662D01*
X114950062Y-63994428D01*
X115052386Y-63841289D01*
X115122868Y-63671129D01*
X115158800Y-63490489D01*
X115158800Y-63306311D01*
X115122868Y-63125671D01*
X115052386Y-62955511D01*
X114950062Y-62802372D01*
X114819828Y-62672138D01*
X114666689Y-62569814D01*
X114496529Y-62499332D01*
X114315889Y-62463400D01*
X114131711Y-62463400D01*
X113951071Y-62499332D01*
X113780911Y-62569814D01*
X113627772Y-62672138D01*
X113497538Y-62802372D01*
X113395214Y-62955511D01*
X113324732Y-63125671D01*
X113288800Y-63306311D01*
X113288800Y-63352222D01*
X113182111Y-63396414D01*
X113028972Y-63498738D01*
X113019939Y-63507771D01*
X113014668Y-63481271D01*
X112944186Y-63311111D01*
X112841862Y-63157972D01*
X112841418Y-63157528D01*
X112841765Y-62953125D01*
X112841862Y-62953028D01*
X112944186Y-62799889D01*
X113014668Y-62629729D01*
X113050600Y-62449089D01*
X113050600Y-62264911D01*
X113014668Y-62084271D01*
X112944186Y-61914111D01*
X112843785Y-61763849D01*
X112845188Y-60937490D01*
X112928193Y-60912310D01*
X113042850Y-60851025D01*
X113143348Y-60768548D01*
X113225825Y-60668050D01*
X113287110Y-60553393D01*
X113324850Y-60428983D01*
X113337593Y-60299600D01*
X113334400Y-60267181D01*
X113334400Y-60055111D01*
X113669800Y-60055111D01*
X113669800Y-60239289D01*
X113705732Y-60419929D01*
X113776214Y-60590089D01*
X113878538Y-60743228D01*
X114008772Y-60873462D01*
X114161911Y-60975786D01*
X114332071Y-61046268D01*
X114512711Y-61082200D01*
X114696889Y-61082200D01*
X114877529Y-61046268D01*
X115023900Y-60985640D01*
X115170271Y-61046268D01*
X115350911Y-61082200D01*
X115535089Y-61082200D01*
X115715729Y-61046268D01*
X115862100Y-60985640D01*
X116008471Y-61046268D01*
X116189111Y-61082200D01*
X116373289Y-61082200D01*
X116553929Y-61046268D01*
X116724089Y-60975786D01*
X116877228Y-60873462D01*
X117007462Y-60743228D01*
X117109786Y-60590089D01*
X117180268Y-60419929D01*
X117216200Y-60239289D01*
X117216200Y-60055111D01*
X117180268Y-59874471D01*
X117109786Y-59704311D01*
X117047178Y-59610611D01*
X122445500Y-59610611D01*
X122445500Y-59794789D01*
X122481432Y-59975429D01*
X122551914Y-60145589D01*
X122654238Y-60298728D01*
X122784472Y-60428962D01*
X122937611Y-60531286D01*
X123107771Y-60601768D01*
X123288411Y-60637700D01*
X123472589Y-60637700D01*
X123653229Y-60601768D01*
X123823389Y-60531286D01*
X123976528Y-60428962D01*
X124106762Y-60298728D01*
X124209086Y-60145589D01*
X124279568Y-59975429D01*
X124315500Y-59794789D01*
X124315500Y-59610611D01*
X124279568Y-59429971D01*
X124209086Y-59259811D01*
X124106762Y-59106672D01*
X123976528Y-58976438D01*
X123823389Y-58874114D01*
X123653229Y-58803632D01*
X123472589Y-58767700D01*
X123288411Y-58767700D01*
X123107771Y-58803632D01*
X122937611Y-58874114D01*
X122784472Y-58976438D01*
X122654238Y-59106672D01*
X122551914Y-59259811D01*
X122481432Y-59429971D01*
X122445500Y-59610611D01*
X117047178Y-59610611D01*
X117007462Y-59551172D01*
X116877228Y-59420938D01*
X116724089Y-59318614D01*
X116553929Y-59248132D01*
X116373289Y-59212200D01*
X116189111Y-59212200D01*
X116008471Y-59248132D01*
X115862100Y-59308760D01*
X115715729Y-59248132D01*
X115535089Y-59212200D01*
X115350911Y-59212200D01*
X115170271Y-59248132D01*
X115023900Y-59308760D01*
X114877529Y-59248132D01*
X114696889Y-59212200D01*
X114512711Y-59212200D01*
X114332071Y-59248132D01*
X114161911Y-59318614D01*
X114008772Y-59420938D01*
X113878538Y-59551172D01*
X113776214Y-59704311D01*
X113705732Y-59874471D01*
X113669800Y-60055111D01*
X113334400Y-60055111D01*
X113334400Y-57403600D01*
X114040044Y-57403600D01*
X114030214Y-57418311D01*
G37*
X114030214Y-57418311D02*
X113959732Y-57588471D01*
X113923800Y-57769111D01*
X113923800Y-57953289D01*
X113959732Y-58133929D01*
X114030214Y-58304089D01*
X114132538Y-58457228D01*
X114262772Y-58587462D01*
X114415911Y-58689786D01*
X114586071Y-58760268D01*
X114766711Y-58796200D01*
X114950889Y-58796200D01*
X115131529Y-58760268D01*
X115301689Y-58689786D01*
X115454828Y-58587462D01*
X115585062Y-58457228D01*
X115687386Y-58304089D01*
X115757868Y-58133929D01*
X115793800Y-57953289D01*
X115793800Y-57769111D01*
X115757868Y-57588471D01*
X115687386Y-57418311D01*
X115677556Y-57403600D01*
X116876415Y-57403600D01*
X116849614Y-57443711D01*
X116779132Y-57613871D01*
X116743200Y-57794511D01*
X116743200Y-57978689D01*
X116779132Y-58159329D01*
X116849614Y-58329489D01*
X116951938Y-58482628D01*
X117082172Y-58612862D01*
X117235311Y-58715186D01*
X117405471Y-58785668D01*
X117586111Y-58821600D01*
X117770289Y-58821600D01*
X117950929Y-58785668D01*
X118121089Y-58715186D01*
X118274228Y-58612862D01*
X118404462Y-58482628D01*
X118506786Y-58329489D01*
X118577268Y-58159329D01*
X118613200Y-57978689D01*
X118613200Y-57794511D01*
X118577268Y-57613871D01*
X118506786Y-57443711D01*
X118479985Y-57403600D01*
X119670415Y-57403600D01*
X119643614Y-57443711D01*
X119573132Y-57613871D01*
X119537200Y-57794511D01*
X119537200Y-57978689D01*
X119573132Y-58159329D01*
X119643614Y-58329489D01*
X119745938Y-58482628D01*
X119876172Y-58612862D01*
X120029311Y-58715186D01*
X120199471Y-58785668D01*
X120380111Y-58821600D01*
X120564289Y-58821600D01*
X120744929Y-58785668D01*
X120915089Y-58715186D01*
X120999207Y-58658980D01*
X121045311Y-58689786D01*
X121215471Y-58760268D01*
X121396111Y-58796200D01*
X121580289Y-58796200D01*
X121760929Y-58760268D01*
X121931089Y-58689786D01*
X122084228Y-58587462D01*
X122214462Y-58457228D01*
X122316786Y-58304089D01*
X122387268Y-58133929D01*
X122423200Y-57953289D01*
X122423200Y-57769111D01*
X122387268Y-57588471D01*
X122316786Y-57418311D01*
X122306956Y-57403600D01*
X127025800Y-57403600D01*
X127025800Y-60057210D01*
X126961028Y-59992438D01*
X126807889Y-59890114D01*
X126637729Y-59819632D01*
X126457089Y-59783700D01*
X126272911Y-59783700D01*
X126092271Y-59819632D01*
X125922111Y-59890114D01*
X125768972Y-59992438D01*
X125638738Y-60122672D01*
X125536414Y-60275811D01*
X125465932Y-60445971D01*
X125430000Y-60626611D01*
X125430000Y-60810789D01*
X125465932Y-60991429D01*
X125536414Y-61161589D01*
X125638738Y-61314728D01*
X125768972Y-61444962D01*
X125922111Y-61547286D01*
X126092271Y-61617768D01*
X126272911Y-61653700D01*
X126457089Y-61653700D01*
X126637729Y-61617768D01*
X126807889Y-61547286D01*
X126961028Y-61444962D01*
X127025800Y-61380190D01*
X127025801Y-64551928D01*
X125845200Y-64551928D01*
X125720718Y-64564188D01*
X125601020Y-64600498D01*
X125490706Y-64659463D01*
X125394015Y-64738815D01*
X125314663Y-64835506D01*
X125255698Y-64945820D01*
X125219388Y-65065518D01*
X125207128Y-65190000D01*
X125207128Y-65373428D01*
X125135462Y-65266172D01*
X125005228Y-65135938D01*
X124852089Y-65033614D01*
X124681929Y-64963132D01*
X124501289Y-64927200D01*
X124317111Y-64927200D01*
X124136471Y-64963132D01*
X123966311Y-65033614D01*
X123813172Y-65135938D01*
X123682938Y-65266172D01*
X123580614Y-65419311D01*
X123510132Y-65589471D01*
X123474200Y-65770111D01*
X123474200Y-65954289D01*
X123510132Y-66134929D01*
X123580614Y-66305089D01*
X123615634Y-66357500D01*
X123580614Y-66409911D01*
X123510132Y-66580071D01*
X123507611Y-66592745D01*
X123434489Y-66578200D01*
X123250311Y-66578200D01*
X123069671Y-66614132D01*
X122899511Y-66684614D01*
X122843264Y-66722197D01*
X122746741Y-66773789D01*
X122611983Y-66884383D01*
X122501389Y-67019141D01*
X122419211Y-67172887D01*
X122368605Y-67339710D01*
X122351518Y-67513200D01*
X122368084Y-67681401D01*
X121784919Y-67681401D01*
X121747596Y-67677725D01*
X121710274Y-67681401D01*
X121710264Y-67681401D01*
X121598611Y-67692398D01*
X121455350Y-67735855D01*
X121367147Y-67783001D01*
X119837227Y-67783001D01*
X119739289Y-67702625D01*
X119607260Y-67632053D01*
X119463999Y-67588596D01*
X119352346Y-67577599D01*
X119352335Y-67577599D01*
X119315013Y-67573923D01*
X119277691Y-67577599D01*
X116242078Y-67577599D01*
X116275000Y-67412089D01*
X116275000Y-67227911D01*
X116239068Y-67047271D01*
X116168586Y-66877111D01*
X116066262Y-66723972D01*
X115936028Y-66593738D01*
X115782889Y-66491414D01*
X115612729Y-66420932D01*
X115491649Y-66396847D01*
X114610913Y-65516111D01*
X120400800Y-65516111D01*
X120400800Y-65700289D01*
X120436732Y-65880929D01*
X120507214Y-66051089D01*
X120609538Y-66204228D01*
X120739772Y-66334462D01*
X120892911Y-66436786D01*
X121063071Y-66507268D01*
X121243711Y-66543200D01*
X121427889Y-66543200D01*
X121608529Y-66507268D01*
X121778689Y-66436786D01*
X121931828Y-66334462D01*
X122062062Y-66204228D01*
X122164386Y-66051089D01*
X122234868Y-65880929D01*
X122270800Y-65700289D01*
X122270800Y-65516111D01*
X122234868Y-65335471D01*
X122164386Y-65165311D01*
X122062062Y-65012172D01*
X121931828Y-64881938D01*
X121778689Y-64779614D01*
X121608529Y-64709132D01*
X121427889Y-64673200D01*
X121243711Y-64673200D01*
X121063071Y-64709132D01*
X120892911Y-64779614D01*
X120739772Y-64881938D01*
X120609538Y-65012172D01*
X120507214Y-65165311D01*
X120436732Y-65335471D01*
X120400800Y-65516111D01*
X114610913Y-65516111D01*
X114385000Y-65290199D01*
X114385000Y-64770535D01*
X114453586Y-64667889D01*
X114524068Y-64497729D01*
X114560000Y-64317089D01*
X114560000Y-64271178D01*
X114666689Y-64226986D01*
X114819828Y-64124662D01*
X114950062Y-63994428D01*
X115052386Y-63841289D01*
X115122868Y-63671129D01*
X115158800Y-63490489D01*
X115158800Y-63306311D01*
X115122868Y-63125671D01*
X115052386Y-62955511D01*
X114950062Y-62802372D01*
X114819828Y-62672138D01*
X114666689Y-62569814D01*
X114496529Y-62499332D01*
X114315889Y-62463400D01*
X114131711Y-62463400D01*
X113951071Y-62499332D01*
X113780911Y-62569814D01*
X113627772Y-62672138D01*
X113497538Y-62802372D01*
X113395214Y-62955511D01*
X113324732Y-63125671D01*
X113288800Y-63306311D01*
X113288800Y-63352222D01*
X113182111Y-63396414D01*
X113028972Y-63498738D01*
X113019939Y-63507771D01*
X113014668Y-63481271D01*
X112944186Y-63311111D01*
X112841862Y-63157972D01*
X112841418Y-63157528D01*
X112841765Y-62953125D01*
X112841862Y-62953028D01*
X112944186Y-62799889D01*
X113014668Y-62629729D01*
X113050600Y-62449089D01*
X113050600Y-62264911D01*
X113014668Y-62084271D01*
X112944186Y-61914111D01*
X112843785Y-61763849D01*
X112845188Y-60937490D01*
X112928193Y-60912310D01*
X113042850Y-60851025D01*
X113143348Y-60768548D01*
X113225825Y-60668050D01*
X113287110Y-60553393D01*
X113324850Y-60428983D01*
X113337593Y-60299600D01*
X113334400Y-60267181D01*
X113334400Y-60055111D01*
X113669800Y-60055111D01*
X113669800Y-60239289D01*
X113705732Y-60419929D01*
X113776214Y-60590089D01*
X113878538Y-60743228D01*
X114008772Y-60873462D01*
X114161911Y-60975786D01*
X114332071Y-61046268D01*
X114512711Y-61082200D01*
X114696889Y-61082200D01*
X114877529Y-61046268D01*
X115023900Y-60985640D01*
X115170271Y-61046268D01*
X115350911Y-61082200D01*
X115535089Y-61082200D01*
X115715729Y-61046268D01*
X115862100Y-60985640D01*
X116008471Y-61046268D01*
X116189111Y-61082200D01*
X116373289Y-61082200D01*
X116553929Y-61046268D01*
X116724089Y-60975786D01*
X116877228Y-60873462D01*
X117007462Y-60743228D01*
X117109786Y-60590089D01*
X117180268Y-60419929D01*
X117216200Y-60239289D01*
X117216200Y-60055111D01*
X117180268Y-59874471D01*
X117109786Y-59704311D01*
X117047178Y-59610611D01*
X122445500Y-59610611D01*
X122445500Y-59794789D01*
X122481432Y-59975429D01*
X122551914Y-60145589D01*
X122654238Y-60298728D01*
X122784472Y-60428962D01*
X122937611Y-60531286D01*
X123107771Y-60601768D01*
X123288411Y-60637700D01*
X123472589Y-60637700D01*
X123653229Y-60601768D01*
X123823389Y-60531286D01*
X123976528Y-60428962D01*
X124106762Y-60298728D01*
X124209086Y-60145589D01*
X124279568Y-59975429D01*
X124315500Y-59794789D01*
X124315500Y-59610611D01*
X124279568Y-59429971D01*
X124209086Y-59259811D01*
X124106762Y-59106672D01*
X123976528Y-58976438D01*
X123823389Y-58874114D01*
X123653229Y-58803632D01*
X123472589Y-58767700D01*
X123288411Y-58767700D01*
X123107771Y-58803632D01*
X122937611Y-58874114D01*
X122784472Y-58976438D01*
X122654238Y-59106672D01*
X122551914Y-59259811D01*
X122481432Y-59429971D01*
X122445500Y-59610611D01*
X117047178Y-59610611D01*
X117007462Y-59551172D01*
X116877228Y-59420938D01*
X116724089Y-59318614D01*
X116553929Y-59248132D01*
X116373289Y-59212200D01*
X116189111Y-59212200D01*
X116008471Y-59248132D01*
X115862100Y-59308760D01*
X115715729Y-59248132D01*
X115535089Y-59212200D01*
X115350911Y-59212200D01*
X115170271Y-59248132D01*
X115023900Y-59308760D01*
X114877529Y-59248132D01*
X114696889Y-59212200D01*
X114512711Y-59212200D01*
X114332071Y-59248132D01*
X114161911Y-59318614D01*
X114008772Y-59420938D01*
X113878538Y-59551172D01*
X113776214Y-59704311D01*
X113705732Y-59874471D01*
X113669800Y-60055111D01*
X113334400Y-60055111D01*
X113334400Y-57403600D01*
X114040044Y-57403600D01*
X114030214Y-57418311D01*
M02*
