M48
; DRILL file {KiCad (5.1.2)-1} date 19.11.2020 17:47:35
; FORMAT={-:-/ absolute / inch / decimal}
; #@! TF.CreationDate,2020-11-19T17:47:35+01:00
; #@! TF.GenerationSoftware,Kicad,Pcbnew,(5.1.2)-1
; #@! TF.FileFunction,Plated,1,4,PTH
FMAT,2
INCH
T1C0.0157
T2C0.0394
%
G90
G05
T1
X4.441Y-2.509
X4.441Y-2.566
X4.441Y-2.62
X4.442Y-2.454
X4.442Y-2.675
X4.442Y-2.73
X4.471Y-2.526
X4.495Y-2.653
X4.497Y-2.496
X4.497Y-2.769
X4.512Y-2.368
X4.521Y-2.316
X4.522Y-2.278
X4.53Y-2.654
X4.536Y-2.496
X4.545Y-2.368
X4.565Y-2.769
X4.57Y-2.65
X4.578Y-2.368
X4.633Y-2.279
X4.633Y-2.316
X4.669Y-2.719
X4.728Y-2.67
X4.743Y-2.279
X4.743Y-2.318
X4.777Y-2.583
X4.783Y-2.278
X4.783Y-2.318
X4.8031Y-2.7953
X4.806Y-2.724
X4.8425Y-2.7953
X4.856Y-2.658
X4.865Y-2.732
X4.8819Y-2.7953
X4.898Y-2.593
X4.898Y-2.632
X4.898Y-2.666
X4.921Y-2.7953
X4.933Y-2.428
X4.933Y-2.581
X4.96Y-2.7953
X5.0Y-2.7953
T2
X4.988Y-2.6
T0
M30
