G04 #@! TF.GenerationSoftware,KiCad,Pcbnew,(5.1.5)-3*
G04 #@! TF.CreationDate,2022-01-20T18:21:31+01:00*
G04 #@! TF.ProjectId,HB-ES-PMSwX-Pl_Gosund,48422d45-532d-4504-9d53-77582d506c5f,rev?*
G04 #@! TF.SameCoordinates,Original*
G04 #@! TF.FileFunction,Soldermask,Top*
G04 #@! TF.FilePolarity,Negative*
%FSLAX46Y46*%
G04 Gerber Fmt 4.6, Leading zero omitted, Abs format (unit mm)*
G04 Created by KiCad (PCBNEW (5.1.5)-3) date 2022-01-20 18:21:31*
%MOMM*%
%LPD*%
G04 APERTURE LIST*
%ADD10C,0.100000*%
G04 APERTURE END LIST*
D10*
G36*
X121502600Y-71288800D02*
G01*
X120000600Y-71288800D01*
X120000600Y-70036800D01*
X121502600Y-70036800D01*
X121502600Y-71288800D01*
G37*
G36*
X119302600Y-71288800D02*
G01*
X117800600Y-71288800D01*
X117800600Y-70036800D01*
X119302600Y-70036800D01*
X119302600Y-71288800D01*
G37*
G36*
X112460100Y-69761000D02*
G01*
X109358100Y-69761000D01*
X109358100Y-68959000D01*
X112460100Y-68959000D01*
X112460100Y-69761000D01*
G37*
G36*
X119378138Y-67475116D02*
G01*
X119398757Y-67481371D01*
X119417753Y-67491524D01*
X119434408Y-67505192D01*
X119448076Y-67521847D01*
X119458229Y-67540843D01*
X119464484Y-67561462D01*
X119467200Y-67589040D01*
X119467200Y-68097760D01*
X119464484Y-68125338D01*
X119458229Y-68145957D01*
X119448076Y-68164953D01*
X119434408Y-68181608D01*
X119417753Y-68195276D01*
X119398756Y-68205430D01*
X119391315Y-68207687D01*
X119368676Y-68217064D01*
X119348302Y-68230678D01*
X119330974Y-68248004D01*
X119317360Y-68268379D01*
X119307983Y-68291017D01*
X119303202Y-68315051D01*
X119302600Y-68327304D01*
X119302600Y-69688800D01*
X117800600Y-69688800D01*
X117800600Y-68436800D01*
X118777484Y-68436800D01*
X118801870Y-68434398D01*
X118825319Y-68427285D01*
X118846930Y-68415734D01*
X118865872Y-68400189D01*
X118881417Y-68381247D01*
X118892968Y-68359636D01*
X118900081Y-68336187D01*
X118902483Y-68311801D01*
X118900081Y-68287415D01*
X118892968Y-68263966D01*
X118881417Y-68242355D01*
X118865872Y-68223413D01*
X118836409Y-68201562D01*
X118824645Y-68195274D01*
X118807992Y-68181608D01*
X118794324Y-68164953D01*
X118784171Y-68145957D01*
X118777916Y-68125338D01*
X118775200Y-68097760D01*
X118775200Y-67589040D01*
X118777916Y-67561462D01*
X118784171Y-67540843D01*
X118794324Y-67521847D01*
X118807992Y-67505192D01*
X118824647Y-67491524D01*
X118843643Y-67481371D01*
X118864262Y-67475116D01*
X118891840Y-67472400D01*
X119350560Y-67472400D01*
X119378138Y-67475116D01*
G37*
G36*
X120348138Y-67475116D02*
G01*
X120368757Y-67481371D01*
X120387753Y-67491524D01*
X120404408Y-67505192D01*
X120418076Y-67521847D01*
X120428229Y-67540843D01*
X120434484Y-67561462D01*
X120437200Y-67589040D01*
X120437200Y-68097760D01*
X120434484Y-68125338D01*
X120428229Y-68145957D01*
X120418076Y-68164953D01*
X120404408Y-68181608D01*
X120387755Y-68195274D01*
X120375991Y-68201562D01*
X120355616Y-68215176D01*
X120338289Y-68232504D01*
X120324676Y-68252878D01*
X120315299Y-68275517D01*
X120310519Y-68299550D01*
X120310519Y-68324055D01*
X120315300Y-68348088D01*
X120324677Y-68370726D01*
X120338291Y-68391101D01*
X120355619Y-68408428D01*
X120375993Y-68422041D01*
X120398632Y-68431418D01*
X120434916Y-68436800D01*
X121502600Y-68436800D01*
X121502600Y-69688800D01*
X120000600Y-69688800D01*
X120000600Y-68339399D01*
X119998198Y-68315013D01*
X119991085Y-68291564D01*
X119979534Y-68269953D01*
X119963989Y-68251011D01*
X119945047Y-68235466D01*
X119923436Y-68223915D01*
X119899987Y-68216802D01*
X119875601Y-68214400D01*
X119861840Y-68214400D01*
X119834262Y-68211684D01*
X119813643Y-68205429D01*
X119794647Y-68195276D01*
X119777992Y-68181608D01*
X119764324Y-68164953D01*
X119754171Y-68145957D01*
X119747916Y-68125338D01*
X119745200Y-68097760D01*
X119745200Y-67589040D01*
X119747916Y-67561462D01*
X119754171Y-67540843D01*
X119764324Y-67521847D01*
X119777992Y-67505192D01*
X119794647Y-67491524D01*
X119813643Y-67481371D01*
X119834262Y-67475116D01*
X119861840Y-67472400D01*
X120320560Y-67472400D01*
X120348138Y-67475116D01*
G37*
G36*
X116317438Y-68897516D02*
G01*
X116338057Y-68903771D01*
X116357053Y-68913924D01*
X116373708Y-68927592D01*
X116387376Y-68944247D01*
X116397529Y-68963243D01*
X116403784Y-68983862D01*
X116406500Y-69011440D01*
X116406500Y-69520160D01*
X116403784Y-69547738D01*
X116397529Y-69568357D01*
X116387376Y-69587353D01*
X116373708Y-69604008D01*
X116357053Y-69617676D01*
X116338057Y-69627829D01*
X116317438Y-69634084D01*
X116289860Y-69636800D01*
X115831140Y-69636800D01*
X115803562Y-69634084D01*
X115782943Y-69627829D01*
X115763947Y-69617676D01*
X115747292Y-69604008D01*
X115733624Y-69587353D01*
X115723471Y-69568357D01*
X115717216Y-69547738D01*
X115714500Y-69520160D01*
X115714500Y-69011440D01*
X115717216Y-68983862D01*
X115723471Y-68963243D01*
X115733624Y-68944247D01*
X115747292Y-68927592D01*
X115763947Y-68913924D01*
X115782943Y-68903771D01*
X115803562Y-68897516D01*
X115831140Y-68894800D01*
X116289860Y-68894800D01*
X116317438Y-68897516D01*
G37*
G36*
X117287438Y-68897516D02*
G01*
X117308057Y-68903771D01*
X117327053Y-68913924D01*
X117343708Y-68927592D01*
X117357376Y-68944247D01*
X117367529Y-68963243D01*
X117373784Y-68983862D01*
X117376500Y-69011440D01*
X117376500Y-69520160D01*
X117373784Y-69547738D01*
X117367529Y-69568357D01*
X117357376Y-69587353D01*
X117343708Y-69604008D01*
X117327053Y-69617676D01*
X117308057Y-69627829D01*
X117287438Y-69634084D01*
X117259860Y-69636800D01*
X116801140Y-69636800D01*
X116773562Y-69634084D01*
X116752943Y-69627829D01*
X116733947Y-69617676D01*
X116717292Y-69604008D01*
X116703624Y-69587353D01*
X116693471Y-69568357D01*
X116687216Y-69547738D01*
X116684500Y-69520160D01*
X116684500Y-69011440D01*
X116687216Y-68983862D01*
X116693471Y-68963243D01*
X116703624Y-68944247D01*
X116717292Y-68927592D01*
X116733947Y-68913924D01*
X116752943Y-68903771D01*
X116773562Y-68897516D01*
X116801140Y-68894800D01*
X117259860Y-68894800D01*
X117287438Y-68897516D01*
G37*
G36*
X116372638Y-67944616D02*
G01*
X116393257Y-67950871D01*
X116412253Y-67961024D01*
X116428908Y-67974692D01*
X116442576Y-67991347D01*
X116452729Y-68010343D01*
X116458984Y-68030962D01*
X116461700Y-68058540D01*
X116461700Y-68517260D01*
X116458984Y-68544838D01*
X116452729Y-68565457D01*
X116442576Y-68584453D01*
X116428908Y-68601108D01*
X116412253Y-68614776D01*
X116393257Y-68624929D01*
X116372638Y-68631184D01*
X116345060Y-68633900D01*
X115836340Y-68633900D01*
X115808762Y-68631184D01*
X115788143Y-68624929D01*
X115769147Y-68614776D01*
X115752492Y-68601108D01*
X115738824Y-68584453D01*
X115728671Y-68565457D01*
X115722416Y-68544838D01*
X115719700Y-68517260D01*
X115719700Y-68058540D01*
X115722416Y-68030962D01*
X115728671Y-68010343D01*
X115738824Y-67991347D01*
X115752492Y-67974692D01*
X115769147Y-67961024D01*
X115788143Y-67950871D01*
X115808762Y-67944616D01*
X115836340Y-67941900D01*
X116345060Y-67941900D01*
X116372638Y-67944616D01*
G37*
G36*
X112460100Y-68361000D02*
G01*
X109358100Y-68361000D01*
X109358100Y-67559000D01*
X112460100Y-67559000D01*
X112460100Y-68361000D01*
G37*
G36*
X121617738Y-67273916D02*
G01*
X121638357Y-67280171D01*
X121657353Y-67290324D01*
X121674008Y-67303992D01*
X121687676Y-67320647D01*
X121697829Y-67339643D01*
X121704084Y-67360262D01*
X121706800Y-67387840D01*
X121706800Y-67846560D01*
X121704084Y-67874138D01*
X121697829Y-67894757D01*
X121687676Y-67913753D01*
X121674008Y-67930408D01*
X121657353Y-67944076D01*
X121638357Y-67954229D01*
X121617738Y-67960484D01*
X121590160Y-67963200D01*
X121081440Y-67963200D01*
X121053862Y-67960484D01*
X121033243Y-67954229D01*
X121014247Y-67944076D01*
X120997592Y-67930408D01*
X120983924Y-67913753D01*
X120973771Y-67894757D01*
X120967516Y-67874138D01*
X120964800Y-67846560D01*
X120964800Y-67387840D01*
X120967516Y-67360262D01*
X120973771Y-67339643D01*
X120983924Y-67320647D01*
X120997592Y-67303992D01*
X121014247Y-67290324D01*
X121033243Y-67280171D01*
X121053862Y-67273916D01*
X121081440Y-67271200D01*
X121590160Y-67271200D01*
X121617738Y-67273916D01*
G37*
G36*
X123624338Y-67172316D02*
G01*
X123644957Y-67178571D01*
X123663953Y-67188724D01*
X123680608Y-67202392D01*
X123694276Y-67219047D01*
X123704429Y-67238043D01*
X123710684Y-67258662D01*
X123713400Y-67286240D01*
X123713400Y-67744960D01*
X123710684Y-67772538D01*
X123704429Y-67793157D01*
X123694276Y-67812153D01*
X123680608Y-67828808D01*
X123663953Y-67842476D01*
X123644957Y-67852629D01*
X123624338Y-67858884D01*
X123596760Y-67861600D01*
X123088040Y-67861600D01*
X123060462Y-67858884D01*
X123039843Y-67852629D01*
X123020847Y-67842476D01*
X123004192Y-67828808D01*
X122990524Y-67812153D01*
X122980371Y-67793157D01*
X122974116Y-67772538D01*
X122971400Y-67744960D01*
X122971400Y-67286240D01*
X122974116Y-67258662D01*
X122980371Y-67238043D01*
X122990524Y-67219047D01*
X123004192Y-67202392D01*
X123020847Y-67188724D01*
X123039843Y-67178571D01*
X123060462Y-67172316D01*
X123088040Y-67169600D01*
X123596760Y-67169600D01*
X123624338Y-67172316D01*
G37*
G36*
X116372638Y-66974616D02*
G01*
X116393257Y-66980871D01*
X116412253Y-66991024D01*
X116428908Y-67004692D01*
X116442576Y-67021347D01*
X116452729Y-67040343D01*
X116458984Y-67060962D01*
X116461700Y-67088540D01*
X116461700Y-67547260D01*
X116458984Y-67574838D01*
X116452729Y-67595457D01*
X116442576Y-67614453D01*
X116428908Y-67631108D01*
X116412253Y-67644776D01*
X116393257Y-67654929D01*
X116372638Y-67661184D01*
X116345060Y-67663900D01*
X115836340Y-67663900D01*
X115808762Y-67661184D01*
X115788143Y-67654929D01*
X115769147Y-67644776D01*
X115752492Y-67631108D01*
X115738824Y-67614453D01*
X115728671Y-67595457D01*
X115722416Y-67574838D01*
X115719700Y-67547260D01*
X115719700Y-67088540D01*
X115722416Y-67060962D01*
X115728671Y-67040343D01*
X115738824Y-67021347D01*
X115752492Y-67004692D01*
X115769147Y-66991024D01*
X115788143Y-66980871D01*
X115808762Y-66974616D01*
X115836340Y-66971900D01*
X116345060Y-66971900D01*
X116372638Y-66974616D01*
G37*
G36*
X121617738Y-66303916D02*
G01*
X121638357Y-66310171D01*
X121657353Y-66320324D01*
X121674008Y-66333992D01*
X121687676Y-66350647D01*
X121697829Y-66369643D01*
X121704084Y-66390262D01*
X121706800Y-66417840D01*
X121706800Y-66876560D01*
X121704084Y-66904138D01*
X121697829Y-66924757D01*
X121687676Y-66943753D01*
X121674008Y-66960408D01*
X121657353Y-66974076D01*
X121638357Y-66984229D01*
X121617738Y-66990484D01*
X121590160Y-66993200D01*
X121081440Y-66993200D01*
X121053862Y-66990484D01*
X121033243Y-66984229D01*
X121014247Y-66974076D01*
X120997592Y-66960408D01*
X120983924Y-66943753D01*
X120973771Y-66924757D01*
X120967516Y-66904138D01*
X120964800Y-66876560D01*
X120964800Y-66417840D01*
X120967516Y-66390262D01*
X120973771Y-66369643D01*
X120983924Y-66350647D01*
X120997592Y-66333992D01*
X121014247Y-66320324D01*
X121033243Y-66310171D01*
X121053862Y-66303916D01*
X121081440Y-66301200D01*
X121590160Y-66301200D01*
X121617738Y-66303916D01*
G37*
G36*
X112460100Y-66961000D02*
G01*
X109358100Y-66961000D01*
X109358100Y-66159000D01*
X112460100Y-66159000D01*
X112460100Y-66961000D01*
G37*
G36*
X126621538Y-64329916D02*
G01*
X126642157Y-64336171D01*
X126661153Y-64346324D01*
X126677808Y-64359992D01*
X126691476Y-64376647D01*
X126701629Y-64395643D01*
X126707884Y-64416262D01*
X126710600Y-64443840D01*
X126710600Y-64902560D01*
X126707884Y-64930138D01*
X126701630Y-64950756D01*
X126699322Y-64955073D01*
X126689944Y-64977712D01*
X126685162Y-65001745D01*
X126685161Y-65026249D01*
X126689941Y-65050282D01*
X126699318Y-65072921D01*
X126712931Y-65093296D01*
X126730257Y-65110624D01*
X126750631Y-65124238D01*
X126773270Y-65133616D01*
X126797303Y-65138398D01*
X126809559Y-65139000D01*
X127596200Y-65139000D01*
X127596200Y-66941000D01*
X125794200Y-66941000D01*
X125794200Y-65139000D01*
X125869641Y-65139000D01*
X125894027Y-65136598D01*
X125917476Y-65129485D01*
X125939087Y-65117934D01*
X125958029Y-65102389D01*
X125973574Y-65083447D01*
X125985125Y-65061836D01*
X125992238Y-65038387D01*
X125994640Y-65014001D01*
X125992238Y-64989615D01*
X125985125Y-64966166D01*
X125979878Y-64955073D01*
X125977570Y-64950756D01*
X125971316Y-64930138D01*
X125968600Y-64902560D01*
X125968600Y-64443840D01*
X125971316Y-64416262D01*
X125977571Y-64395643D01*
X125987724Y-64376647D01*
X126001392Y-64359992D01*
X126018047Y-64346324D01*
X126037043Y-64336171D01*
X126057662Y-64329916D01*
X126085240Y-64327200D01*
X126593960Y-64327200D01*
X126621538Y-64329916D01*
G37*
G36*
X123624338Y-66202316D02*
G01*
X123644957Y-66208571D01*
X123663953Y-66218724D01*
X123680608Y-66232392D01*
X123694276Y-66249047D01*
X123704429Y-66268043D01*
X123710684Y-66288662D01*
X123713400Y-66316240D01*
X123713400Y-66774960D01*
X123710684Y-66802538D01*
X123704429Y-66823157D01*
X123694276Y-66842153D01*
X123680608Y-66858808D01*
X123663953Y-66872476D01*
X123644957Y-66882629D01*
X123624338Y-66888884D01*
X123596760Y-66891600D01*
X123088040Y-66891600D01*
X123060462Y-66888884D01*
X123039843Y-66882629D01*
X123020847Y-66872476D01*
X123004192Y-66858808D01*
X122990524Y-66842153D01*
X122980371Y-66823157D01*
X122974116Y-66802538D01*
X122971400Y-66774960D01*
X122971400Y-66316240D01*
X122974116Y-66288662D01*
X122980371Y-66268043D01*
X122990524Y-66249047D01*
X123004192Y-66232392D01*
X123020847Y-66218724D01*
X123039843Y-66208571D01*
X123060462Y-66202316D01*
X123088040Y-66199600D01*
X123596760Y-66199600D01*
X123624338Y-66202316D01*
G37*
G36*
X122562738Y-65239916D02*
G01*
X122583357Y-65246171D01*
X122602353Y-65256324D01*
X122619008Y-65269992D01*
X122632676Y-65286647D01*
X122642829Y-65305643D01*
X122649084Y-65326262D01*
X122651800Y-65353840D01*
X122651800Y-65862560D01*
X122649084Y-65890138D01*
X122642829Y-65910757D01*
X122632676Y-65929753D01*
X122619008Y-65946408D01*
X122602353Y-65960076D01*
X122583357Y-65970229D01*
X122562738Y-65976484D01*
X122535160Y-65979200D01*
X122076440Y-65979200D01*
X122048862Y-65976484D01*
X122028243Y-65970229D01*
X122009247Y-65960076D01*
X121992592Y-65946408D01*
X121978924Y-65929753D01*
X121968771Y-65910757D01*
X121962516Y-65890138D01*
X121959800Y-65862560D01*
X121959800Y-65353840D01*
X121962516Y-65326262D01*
X121968771Y-65305643D01*
X121978924Y-65286647D01*
X121992592Y-65269992D01*
X122009247Y-65256324D01*
X122028243Y-65246171D01*
X122048862Y-65239916D01*
X122076440Y-65237200D01*
X122535160Y-65237200D01*
X122562738Y-65239916D01*
G37*
G36*
X121592738Y-65239916D02*
G01*
X121613357Y-65246171D01*
X121632353Y-65256324D01*
X121649008Y-65269992D01*
X121662676Y-65286647D01*
X121672829Y-65305643D01*
X121679084Y-65326262D01*
X121681800Y-65353840D01*
X121681800Y-65862560D01*
X121679084Y-65890138D01*
X121672829Y-65910757D01*
X121662676Y-65929753D01*
X121649008Y-65946408D01*
X121632353Y-65960076D01*
X121613357Y-65970229D01*
X121592738Y-65976484D01*
X121565160Y-65979200D01*
X121106440Y-65979200D01*
X121078862Y-65976484D01*
X121058243Y-65970229D01*
X121039247Y-65960076D01*
X121022592Y-65946408D01*
X121008924Y-65929753D01*
X120998771Y-65910757D01*
X120992516Y-65890138D01*
X120989800Y-65862560D01*
X120989800Y-65353840D01*
X120992516Y-65326262D01*
X120998771Y-65305643D01*
X121008924Y-65286647D01*
X121022592Y-65269992D01*
X121039247Y-65256324D01*
X121058243Y-65246171D01*
X121078862Y-65239916D01*
X121106440Y-65237200D01*
X121565160Y-65237200D01*
X121592738Y-65239916D01*
G37*
G36*
X123624338Y-65244316D02*
G01*
X123644957Y-65250571D01*
X123663953Y-65260724D01*
X123680608Y-65274392D01*
X123694276Y-65291047D01*
X123704429Y-65310043D01*
X123710684Y-65330662D01*
X123713400Y-65358240D01*
X123713400Y-65816960D01*
X123710684Y-65844538D01*
X123704429Y-65865157D01*
X123694276Y-65884153D01*
X123680608Y-65900808D01*
X123663953Y-65914476D01*
X123644957Y-65924629D01*
X123624338Y-65930884D01*
X123596760Y-65933600D01*
X123088040Y-65933600D01*
X123060462Y-65930884D01*
X123039843Y-65924629D01*
X123020847Y-65914476D01*
X123004192Y-65900808D01*
X122990524Y-65884153D01*
X122980371Y-65865157D01*
X122974116Y-65844538D01*
X122971400Y-65816960D01*
X122971400Y-65358240D01*
X122974116Y-65330662D01*
X122980371Y-65310043D01*
X122990524Y-65291047D01*
X123004192Y-65274392D01*
X123020847Y-65260724D01*
X123039843Y-65250571D01*
X123060462Y-65244316D01*
X123088040Y-65241600D01*
X123596760Y-65241600D01*
X123624338Y-65244316D01*
G37*
G36*
X112460100Y-65561000D02*
G01*
X109358100Y-65561000D01*
X109358100Y-64759000D01*
X112460100Y-64759000D01*
X112460100Y-65561000D01*
G37*
G36*
X117392355Y-60490483D02*
G01*
X117397029Y-60491901D01*
X117401330Y-60494200D01*
X117407702Y-60499429D01*
X117428076Y-60513043D01*
X117450715Y-60522420D01*
X117474749Y-60527200D01*
X117499253Y-60527200D01*
X117523286Y-60522419D01*
X117545925Y-60513042D01*
X117566298Y-60499429D01*
X117572670Y-60494200D01*
X117576971Y-60491901D01*
X117581645Y-60490483D01*
X117592641Y-60489400D01*
X117881359Y-60489400D01*
X117892355Y-60490483D01*
X117897029Y-60491901D01*
X117901330Y-60494200D01*
X117907702Y-60499429D01*
X117928076Y-60513043D01*
X117950715Y-60522420D01*
X117974749Y-60527200D01*
X117999253Y-60527200D01*
X118023286Y-60522419D01*
X118045925Y-60513042D01*
X118066298Y-60499429D01*
X118072670Y-60494200D01*
X118076971Y-60491901D01*
X118081645Y-60490483D01*
X118092641Y-60489400D01*
X118381359Y-60489400D01*
X118392355Y-60490483D01*
X118397029Y-60491901D01*
X118401330Y-60494200D01*
X118407702Y-60499429D01*
X118428076Y-60513043D01*
X118450715Y-60522420D01*
X118474749Y-60527200D01*
X118499253Y-60527200D01*
X118523286Y-60522419D01*
X118545925Y-60513042D01*
X118566298Y-60499429D01*
X118572670Y-60494200D01*
X118576971Y-60491901D01*
X118581645Y-60490483D01*
X118592641Y-60489400D01*
X118881359Y-60489400D01*
X118892355Y-60490483D01*
X118897029Y-60491901D01*
X118901330Y-60494200D01*
X118907702Y-60499429D01*
X118928076Y-60513043D01*
X118950715Y-60522420D01*
X118974749Y-60527200D01*
X118999253Y-60527200D01*
X119023286Y-60522419D01*
X119045925Y-60513042D01*
X119066298Y-60499429D01*
X119072670Y-60494200D01*
X119076971Y-60491901D01*
X119081645Y-60490483D01*
X119092641Y-60489400D01*
X119381359Y-60489400D01*
X119392355Y-60490483D01*
X119397029Y-60491901D01*
X119401331Y-60494200D01*
X119405104Y-60497296D01*
X119408200Y-60501069D01*
X119410499Y-60505371D01*
X119411917Y-60510045D01*
X119413000Y-60521041D01*
X119413000Y-61384759D01*
X119411917Y-61395755D01*
X119410499Y-61400429D01*
X119408202Y-61404727D01*
X119401560Y-61412820D01*
X119387946Y-61433195D01*
X119378569Y-61455833D01*
X119373788Y-61479867D01*
X119373788Y-61504371D01*
X119378568Y-61528404D01*
X119387945Y-61551043D01*
X119401559Y-61571418D01*
X119418885Y-61588745D01*
X119439259Y-61602358D01*
X119466464Y-61616900D01*
X119490651Y-61636749D01*
X119510500Y-61660936D01*
X119525042Y-61688141D01*
X119538656Y-61708515D01*
X119555983Y-61725842D01*
X119576358Y-61739455D01*
X119598997Y-61748832D01*
X119623030Y-61753612D01*
X119647534Y-61753612D01*
X119671568Y-61748831D01*
X119694206Y-61739453D01*
X119714580Y-61725840D01*
X119722673Y-61719198D01*
X119726971Y-61716901D01*
X119731645Y-61715483D01*
X119742641Y-61714400D01*
X120606359Y-61714400D01*
X120617355Y-61715483D01*
X120622029Y-61716901D01*
X120626331Y-61719200D01*
X120630104Y-61722296D01*
X120633200Y-61726069D01*
X120635499Y-61730371D01*
X120636917Y-61735045D01*
X120638000Y-61746041D01*
X120638000Y-62034759D01*
X120636917Y-62045755D01*
X120635499Y-62050429D01*
X120633200Y-62054730D01*
X120627971Y-62061102D01*
X120614357Y-62081476D01*
X120604980Y-62104115D01*
X120600200Y-62128149D01*
X120600200Y-62152653D01*
X120604981Y-62176686D01*
X120614358Y-62199325D01*
X120627971Y-62219698D01*
X120633200Y-62226070D01*
X120635499Y-62230371D01*
X120636917Y-62235045D01*
X120638000Y-62246041D01*
X120638000Y-62534759D01*
X120636917Y-62545755D01*
X120635499Y-62550429D01*
X120633200Y-62554730D01*
X120627971Y-62561102D01*
X120614357Y-62581476D01*
X120604980Y-62604115D01*
X120600200Y-62628149D01*
X120600200Y-62652653D01*
X120604981Y-62676686D01*
X120614358Y-62699325D01*
X120627971Y-62719698D01*
X120633200Y-62726070D01*
X120635499Y-62730371D01*
X120636917Y-62735045D01*
X120638000Y-62746041D01*
X120638000Y-63034759D01*
X120636917Y-63045755D01*
X120635499Y-63050429D01*
X120633200Y-63054730D01*
X120627971Y-63061102D01*
X120614357Y-63081476D01*
X120604980Y-63104115D01*
X120600200Y-63128149D01*
X120600200Y-63152653D01*
X120604981Y-63176686D01*
X120614358Y-63199325D01*
X120627971Y-63219698D01*
X120633200Y-63226070D01*
X120635499Y-63230371D01*
X120636917Y-63235045D01*
X120638000Y-63246041D01*
X120638000Y-63534759D01*
X120636917Y-63545755D01*
X120635499Y-63550429D01*
X120633200Y-63554730D01*
X120627971Y-63561102D01*
X120614357Y-63581476D01*
X120604980Y-63604115D01*
X120600200Y-63628149D01*
X120600200Y-63652653D01*
X120604981Y-63676686D01*
X120614358Y-63699325D01*
X120627971Y-63719698D01*
X120633200Y-63726070D01*
X120635499Y-63730371D01*
X120636917Y-63735045D01*
X120638000Y-63746041D01*
X120638000Y-64034759D01*
X120636917Y-64045755D01*
X120635499Y-64050429D01*
X120633200Y-64054731D01*
X120630104Y-64058504D01*
X120626331Y-64061600D01*
X120622029Y-64063899D01*
X120617355Y-64065317D01*
X120606359Y-64066400D01*
X119742641Y-64066400D01*
X119731645Y-64065317D01*
X119726971Y-64063899D01*
X119722673Y-64061602D01*
X119714580Y-64054960D01*
X119694205Y-64041346D01*
X119671567Y-64031969D01*
X119647533Y-64027188D01*
X119623029Y-64027188D01*
X119598996Y-64031968D01*
X119576357Y-64041345D01*
X119555982Y-64054959D01*
X119538655Y-64072285D01*
X119525042Y-64092659D01*
X119510500Y-64119864D01*
X119490651Y-64144051D01*
X119466464Y-64163900D01*
X119439259Y-64178442D01*
X119418885Y-64192056D01*
X119401558Y-64209383D01*
X119387945Y-64229758D01*
X119378568Y-64252397D01*
X119373788Y-64276430D01*
X119373788Y-64300934D01*
X119378569Y-64324968D01*
X119387947Y-64347606D01*
X119401560Y-64367980D01*
X119408202Y-64376073D01*
X119410499Y-64380371D01*
X119411917Y-64385045D01*
X119413000Y-64396041D01*
X119413000Y-65259759D01*
X119411917Y-65270755D01*
X119410499Y-65275429D01*
X119408200Y-65279731D01*
X119405104Y-65283504D01*
X119401331Y-65286600D01*
X119397029Y-65288899D01*
X119392355Y-65290317D01*
X119381359Y-65291400D01*
X119092641Y-65291400D01*
X119081645Y-65290317D01*
X119076971Y-65288899D01*
X119072670Y-65286600D01*
X119066298Y-65281371D01*
X119045924Y-65267757D01*
X119023285Y-65258380D01*
X118999251Y-65253600D01*
X118974747Y-65253600D01*
X118950714Y-65258381D01*
X118928075Y-65267758D01*
X118907702Y-65281371D01*
X118901330Y-65286600D01*
X118897029Y-65288899D01*
X118892355Y-65290317D01*
X118881359Y-65291400D01*
X118592641Y-65291400D01*
X118581645Y-65290317D01*
X118576971Y-65288899D01*
X118572670Y-65286600D01*
X118566298Y-65281371D01*
X118545924Y-65267757D01*
X118523285Y-65258380D01*
X118499251Y-65253600D01*
X118474747Y-65253600D01*
X118450714Y-65258381D01*
X118428075Y-65267758D01*
X118407702Y-65281371D01*
X118401330Y-65286600D01*
X118397029Y-65288899D01*
X118392355Y-65290317D01*
X118381359Y-65291400D01*
X118092641Y-65291400D01*
X118081645Y-65290317D01*
X118076971Y-65288899D01*
X118072670Y-65286600D01*
X118066298Y-65281371D01*
X118045924Y-65267757D01*
X118023285Y-65258380D01*
X117999251Y-65253600D01*
X117974747Y-65253600D01*
X117950714Y-65258381D01*
X117928075Y-65267758D01*
X117907702Y-65281371D01*
X117901330Y-65286600D01*
X117897029Y-65288899D01*
X117892355Y-65290317D01*
X117881359Y-65291400D01*
X117592641Y-65291400D01*
X117581645Y-65290317D01*
X117576971Y-65288899D01*
X117572670Y-65286600D01*
X117566298Y-65281371D01*
X117545924Y-65267757D01*
X117523285Y-65258380D01*
X117499251Y-65253600D01*
X117474747Y-65253600D01*
X117450714Y-65258381D01*
X117428075Y-65267758D01*
X117407702Y-65281371D01*
X117401330Y-65286600D01*
X117397029Y-65288899D01*
X117392355Y-65290317D01*
X117381359Y-65291400D01*
X117092641Y-65291400D01*
X117081645Y-65290317D01*
X117076971Y-65288899D01*
X117072669Y-65286600D01*
X117068896Y-65283504D01*
X117065800Y-65279731D01*
X117063501Y-65275429D01*
X117062083Y-65270755D01*
X117061000Y-65259759D01*
X117061000Y-64396041D01*
X117062083Y-64385045D01*
X117063501Y-64380371D01*
X117065798Y-64376073D01*
X117072440Y-64367980D01*
X117086054Y-64347605D01*
X117095431Y-64324967D01*
X117100212Y-64300933D01*
X117100212Y-64276429D01*
X117095432Y-64252396D01*
X117086055Y-64229757D01*
X117072441Y-64209382D01*
X117055115Y-64192055D01*
X117034741Y-64178442D01*
X117007536Y-64163900D01*
X116983349Y-64144051D01*
X116963500Y-64119864D01*
X116948958Y-64092659D01*
X116935344Y-64072285D01*
X116918017Y-64054958D01*
X116897642Y-64041345D01*
X116875003Y-64031968D01*
X116850970Y-64027188D01*
X116826466Y-64027188D01*
X116802432Y-64031969D01*
X116779794Y-64041347D01*
X116759420Y-64054960D01*
X116751327Y-64061602D01*
X116747029Y-64063899D01*
X116742355Y-64065317D01*
X116731359Y-64066400D01*
X115867641Y-64066400D01*
X115856645Y-64065317D01*
X115851971Y-64063899D01*
X115847669Y-64061600D01*
X115843896Y-64058504D01*
X115840800Y-64054731D01*
X115838501Y-64050429D01*
X115837083Y-64045755D01*
X115836000Y-64034759D01*
X115836000Y-63746041D01*
X115837083Y-63735045D01*
X115838501Y-63730371D01*
X115840800Y-63726070D01*
X115846029Y-63719698D01*
X115859643Y-63699324D01*
X115869020Y-63676685D01*
X115873800Y-63652651D01*
X115873800Y-63628147D01*
X115869019Y-63604114D01*
X115859642Y-63581475D01*
X115846029Y-63561102D01*
X115840800Y-63554730D01*
X115838501Y-63550429D01*
X115837083Y-63545755D01*
X115836000Y-63534759D01*
X115836000Y-63246041D01*
X115837083Y-63235045D01*
X115838501Y-63230371D01*
X115840800Y-63226070D01*
X115846029Y-63219698D01*
X115859643Y-63199324D01*
X115869020Y-63176685D01*
X115873800Y-63152651D01*
X115873800Y-63128147D01*
X115869019Y-63104114D01*
X115859642Y-63081475D01*
X115846029Y-63061102D01*
X115840800Y-63054730D01*
X115838501Y-63050429D01*
X115837083Y-63045755D01*
X115836000Y-63034759D01*
X115836000Y-62746041D01*
X115837083Y-62735045D01*
X115838501Y-62730371D01*
X115840800Y-62726070D01*
X115846029Y-62719698D01*
X115859643Y-62699324D01*
X115869020Y-62676685D01*
X115873800Y-62652651D01*
X115873800Y-62628147D01*
X115869019Y-62604114D01*
X115859642Y-62581475D01*
X115846029Y-62561102D01*
X115840800Y-62554730D01*
X115838501Y-62550429D01*
X115837083Y-62545755D01*
X115836000Y-62534759D01*
X115836000Y-62246041D01*
X115837083Y-62235045D01*
X115838501Y-62230371D01*
X115840800Y-62226070D01*
X115846029Y-62219698D01*
X115859643Y-62199324D01*
X115869020Y-62176685D01*
X115873800Y-62152651D01*
X115873800Y-62128147D01*
X115869019Y-62104114D01*
X115859642Y-62081475D01*
X115846029Y-62061102D01*
X115840800Y-62054730D01*
X115838501Y-62050429D01*
X115837083Y-62045755D01*
X115836000Y-62034759D01*
X115836000Y-61746041D01*
X115837083Y-61735045D01*
X115838501Y-61730371D01*
X115840800Y-61726069D01*
X115843896Y-61722296D01*
X115847669Y-61719200D01*
X115851971Y-61716901D01*
X115856645Y-61715483D01*
X115867641Y-61714400D01*
X116731359Y-61714400D01*
X116742355Y-61715483D01*
X116747029Y-61716901D01*
X116751327Y-61719198D01*
X116759420Y-61725840D01*
X116779795Y-61739454D01*
X116802433Y-61748831D01*
X116826467Y-61753612D01*
X116850971Y-61753612D01*
X116875004Y-61748832D01*
X116897643Y-61739455D01*
X116918018Y-61725841D01*
X116935345Y-61708515D01*
X116948958Y-61688141D01*
X116963500Y-61660936D01*
X116983349Y-61636749D01*
X117007536Y-61616900D01*
X117034741Y-61602358D01*
X117055115Y-61588744D01*
X117072442Y-61571417D01*
X117086055Y-61551042D01*
X117095432Y-61528403D01*
X117100212Y-61504370D01*
X117100212Y-61479866D01*
X117095431Y-61455832D01*
X117086053Y-61433194D01*
X117072440Y-61412820D01*
X117065798Y-61404727D01*
X117063501Y-61400429D01*
X117062083Y-61395755D01*
X117061000Y-61384759D01*
X117061000Y-60521041D01*
X117062083Y-60510045D01*
X117063501Y-60505371D01*
X117065800Y-60501069D01*
X117068896Y-60497296D01*
X117072669Y-60494200D01*
X117076971Y-60491901D01*
X117081645Y-60490483D01*
X117092641Y-60489400D01*
X117381359Y-60489400D01*
X117392355Y-60490483D01*
G37*
G36*
X123624338Y-64274316D02*
G01*
X123644957Y-64280571D01*
X123663953Y-64290724D01*
X123680608Y-64304392D01*
X123694276Y-64321047D01*
X123704429Y-64340043D01*
X123710684Y-64360662D01*
X123713400Y-64388240D01*
X123713400Y-64846960D01*
X123710684Y-64874538D01*
X123704429Y-64895157D01*
X123694276Y-64914153D01*
X123680608Y-64930808D01*
X123663953Y-64944476D01*
X123644957Y-64954629D01*
X123624338Y-64960884D01*
X123596760Y-64963600D01*
X123088040Y-64963600D01*
X123060462Y-64960884D01*
X123039843Y-64954629D01*
X123020847Y-64944476D01*
X123004192Y-64930808D01*
X122990524Y-64914153D01*
X122980371Y-64895157D01*
X122974116Y-64874538D01*
X122971400Y-64846960D01*
X122971400Y-64388240D01*
X122974116Y-64360662D01*
X122980371Y-64340043D01*
X122990524Y-64321047D01*
X123004192Y-64304392D01*
X123020847Y-64290724D01*
X123039843Y-64280571D01*
X123060462Y-64274316D01*
X123088040Y-64271600D01*
X123596760Y-64271600D01*
X123624338Y-64274316D01*
G37*
G36*
X112460100Y-64161000D02*
G01*
X109358100Y-64161000D01*
X109358100Y-63359000D01*
X112460100Y-63359000D01*
X112460100Y-64161000D01*
G37*
G36*
X126621538Y-63359916D02*
G01*
X126642157Y-63366171D01*
X126661153Y-63376324D01*
X126677808Y-63389992D01*
X126691476Y-63406647D01*
X126701629Y-63425643D01*
X126707884Y-63446262D01*
X126710600Y-63473840D01*
X126710600Y-63932560D01*
X126707884Y-63960138D01*
X126701629Y-63980757D01*
X126691476Y-63999753D01*
X126677808Y-64016408D01*
X126661153Y-64030076D01*
X126642157Y-64040229D01*
X126621538Y-64046484D01*
X126593960Y-64049200D01*
X126085240Y-64049200D01*
X126057662Y-64046484D01*
X126037043Y-64040229D01*
X126018047Y-64030076D01*
X126001392Y-64016408D01*
X125987724Y-63999753D01*
X125977571Y-63980757D01*
X125971316Y-63960138D01*
X125968600Y-63932560D01*
X125968600Y-63473840D01*
X125971316Y-63446262D01*
X125977571Y-63425643D01*
X125987724Y-63406647D01*
X126001392Y-63389992D01*
X126018047Y-63376324D01*
X126037043Y-63366171D01*
X126057662Y-63359916D01*
X126085240Y-63357200D01*
X126593960Y-63357200D01*
X126621538Y-63359916D01*
G37*
G36*
X122638938Y-62293516D02*
G01*
X122659557Y-62299771D01*
X122678553Y-62309924D01*
X122695208Y-62323592D01*
X122708876Y-62340247D01*
X122719029Y-62359243D01*
X122725284Y-62379862D01*
X122728000Y-62407440D01*
X122728000Y-62916160D01*
X122725284Y-62943738D01*
X122719029Y-62964357D01*
X122708876Y-62983353D01*
X122695208Y-63000008D01*
X122678553Y-63013676D01*
X122659557Y-63023829D01*
X122638938Y-63030084D01*
X122612345Y-63032703D01*
X122588312Y-63037483D01*
X122565673Y-63046861D01*
X122545299Y-63060474D01*
X122527972Y-63077801D01*
X122514358Y-63098176D01*
X122504981Y-63120814D01*
X122500200Y-63144848D01*
X122500200Y-63169352D01*
X122504980Y-63193385D01*
X122514358Y-63216024D01*
X122527971Y-63236398D01*
X122545298Y-63253725D01*
X122565673Y-63267339D01*
X122588311Y-63276716D01*
X122612345Y-63281497D01*
X122638938Y-63284116D01*
X122659557Y-63290371D01*
X122678553Y-63300524D01*
X122695208Y-63314192D01*
X122708876Y-63330847D01*
X122719029Y-63349843D01*
X122725284Y-63370462D01*
X122728000Y-63398040D01*
X122728000Y-63906760D01*
X122725284Y-63934338D01*
X122719029Y-63954957D01*
X122708876Y-63973953D01*
X122695208Y-63990608D01*
X122678553Y-64004276D01*
X122659557Y-64014429D01*
X122638938Y-64020684D01*
X122611360Y-64023400D01*
X122152640Y-64023400D01*
X122125062Y-64020684D01*
X122104443Y-64014429D01*
X122085447Y-64004276D01*
X122068792Y-63990608D01*
X122055124Y-63973953D01*
X122044971Y-63954957D01*
X122038716Y-63934338D01*
X122036000Y-63906760D01*
X122036000Y-63398040D01*
X122038716Y-63370462D01*
X122044971Y-63349843D01*
X122055124Y-63330847D01*
X122068792Y-63314192D01*
X122085447Y-63300524D01*
X122104443Y-63290371D01*
X122125062Y-63284116D01*
X122151655Y-63281497D01*
X122175688Y-63276717D01*
X122198327Y-63267339D01*
X122218701Y-63253726D01*
X122236028Y-63236399D01*
X122249642Y-63216024D01*
X122259019Y-63193386D01*
X122263800Y-63169352D01*
X122263800Y-63144848D01*
X122259020Y-63120815D01*
X122249642Y-63098176D01*
X122236029Y-63077802D01*
X122218702Y-63060475D01*
X122198327Y-63046861D01*
X122175689Y-63037484D01*
X122151655Y-63032703D01*
X122125062Y-63030084D01*
X122104443Y-63023829D01*
X122085447Y-63013676D01*
X122068792Y-63000008D01*
X122055124Y-62983353D01*
X122044971Y-62964357D01*
X122038716Y-62943738D01*
X122036000Y-62916160D01*
X122036000Y-62407440D01*
X122038716Y-62379862D01*
X122044971Y-62359243D01*
X122055124Y-62340247D01*
X122068792Y-62323592D01*
X122085447Y-62309924D01*
X122104443Y-62299771D01*
X122125062Y-62293516D01*
X122152640Y-62290800D01*
X122611360Y-62290800D01*
X122638938Y-62293516D01*
G37*
G36*
X121668938Y-62293516D02*
G01*
X121689557Y-62299771D01*
X121708553Y-62309924D01*
X121725208Y-62323592D01*
X121738876Y-62340247D01*
X121749029Y-62359243D01*
X121755284Y-62379862D01*
X121758000Y-62407440D01*
X121758000Y-62916160D01*
X121755284Y-62943738D01*
X121749029Y-62964357D01*
X121738876Y-62983353D01*
X121725208Y-63000008D01*
X121708553Y-63013676D01*
X121689557Y-63023829D01*
X121668938Y-63030084D01*
X121642345Y-63032703D01*
X121618312Y-63037483D01*
X121595673Y-63046861D01*
X121575299Y-63060474D01*
X121557972Y-63077801D01*
X121544358Y-63098176D01*
X121534981Y-63120814D01*
X121530200Y-63144848D01*
X121530200Y-63169352D01*
X121534980Y-63193385D01*
X121544358Y-63216024D01*
X121557971Y-63236398D01*
X121575298Y-63253725D01*
X121595673Y-63267339D01*
X121618311Y-63276716D01*
X121642345Y-63281497D01*
X121668938Y-63284116D01*
X121689557Y-63290371D01*
X121708553Y-63300524D01*
X121725208Y-63314192D01*
X121738876Y-63330847D01*
X121749029Y-63349843D01*
X121755284Y-63370462D01*
X121758000Y-63398040D01*
X121758000Y-63906760D01*
X121755284Y-63934338D01*
X121749029Y-63954957D01*
X121738876Y-63973953D01*
X121725208Y-63990608D01*
X121708553Y-64004276D01*
X121689557Y-64014429D01*
X121668938Y-64020684D01*
X121641360Y-64023400D01*
X121182640Y-64023400D01*
X121155062Y-64020684D01*
X121134443Y-64014429D01*
X121115447Y-64004276D01*
X121098792Y-63990608D01*
X121085124Y-63973953D01*
X121074971Y-63954957D01*
X121068716Y-63934338D01*
X121066000Y-63906760D01*
X121066000Y-63398040D01*
X121068716Y-63370462D01*
X121074971Y-63349843D01*
X121085124Y-63330847D01*
X121098792Y-63314192D01*
X121115447Y-63300524D01*
X121134443Y-63290371D01*
X121155062Y-63284116D01*
X121181655Y-63281497D01*
X121205688Y-63276717D01*
X121228327Y-63267339D01*
X121248701Y-63253726D01*
X121266028Y-63236399D01*
X121279642Y-63216024D01*
X121289019Y-63193386D01*
X121293800Y-63169352D01*
X121293800Y-63144848D01*
X121289020Y-63120815D01*
X121279642Y-63098176D01*
X121266029Y-63077802D01*
X121248702Y-63060475D01*
X121228327Y-63046861D01*
X121205689Y-63037484D01*
X121181655Y-63032703D01*
X121155062Y-63030084D01*
X121134443Y-63023829D01*
X121115447Y-63013676D01*
X121098792Y-63000008D01*
X121085124Y-62983353D01*
X121074971Y-62964357D01*
X121068716Y-62943738D01*
X121066000Y-62916160D01*
X121066000Y-62407440D01*
X121068716Y-62379862D01*
X121074971Y-62359243D01*
X121085124Y-62340247D01*
X121098792Y-62323592D01*
X121115447Y-62309924D01*
X121134443Y-62299771D01*
X121155062Y-62293516D01*
X121182640Y-62290800D01*
X121641360Y-62290800D01*
X121668938Y-62293516D01*
G37*
G36*
X124665738Y-63286116D02*
G01*
X124686357Y-63292371D01*
X124705353Y-63302524D01*
X124722008Y-63316192D01*
X124735676Y-63332847D01*
X124745829Y-63351843D01*
X124752084Y-63372462D01*
X124754800Y-63400040D01*
X124754800Y-63858760D01*
X124752084Y-63886338D01*
X124745829Y-63906957D01*
X124735676Y-63925953D01*
X124722008Y-63942608D01*
X124705353Y-63956276D01*
X124686357Y-63966429D01*
X124665738Y-63972684D01*
X124638160Y-63975400D01*
X124129440Y-63975400D01*
X124101862Y-63972684D01*
X124081243Y-63966429D01*
X124062247Y-63956276D01*
X124045592Y-63942608D01*
X124031924Y-63925953D01*
X124021771Y-63906957D01*
X124015516Y-63886338D01*
X124012800Y-63858760D01*
X124012800Y-63400040D01*
X124015516Y-63372462D01*
X124021771Y-63351843D01*
X124031924Y-63332847D01*
X124045592Y-63316192D01*
X124062247Y-63302524D01*
X124081243Y-63292371D01*
X124101862Y-63286116D01*
X124129440Y-63283400D01*
X124638160Y-63283400D01*
X124665738Y-63286116D01*
G37*
G36*
X123649738Y-63283716D02*
G01*
X123670357Y-63289971D01*
X123689353Y-63300124D01*
X123706008Y-63313792D01*
X123719676Y-63330447D01*
X123729829Y-63349443D01*
X123736084Y-63370062D01*
X123738800Y-63397640D01*
X123738800Y-63856360D01*
X123736084Y-63883938D01*
X123729829Y-63904557D01*
X123719676Y-63923553D01*
X123706008Y-63940208D01*
X123689353Y-63953876D01*
X123670357Y-63964029D01*
X123649738Y-63970284D01*
X123622160Y-63973000D01*
X123113440Y-63973000D01*
X123085862Y-63970284D01*
X123065243Y-63964029D01*
X123046247Y-63953876D01*
X123029592Y-63940208D01*
X123015924Y-63923553D01*
X123005771Y-63904557D01*
X122999516Y-63883938D01*
X122996800Y-63856360D01*
X122996800Y-63397640D01*
X122999516Y-63370062D01*
X123005771Y-63349443D01*
X123015924Y-63330447D01*
X123029592Y-63313792D01*
X123046247Y-63300124D01*
X123065243Y-63289971D01*
X123085862Y-63283716D01*
X123113440Y-63281000D01*
X123622160Y-63281000D01*
X123649738Y-63283716D01*
G37*
G36*
X126626738Y-62318916D02*
G01*
X126647357Y-62325171D01*
X126666353Y-62335324D01*
X126683008Y-62348992D01*
X126696676Y-62365647D01*
X126706829Y-62384643D01*
X126713084Y-62405262D01*
X126715800Y-62432840D01*
X126715800Y-62941560D01*
X126713084Y-62969138D01*
X126706829Y-62989757D01*
X126696676Y-63008753D01*
X126683008Y-63025408D01*
X126666353Y-63039076D01*
X126647357Y-63049229D01*
X126626738Y-63055484D01*
X126599160Y-63058200D01*
X126140440Y-63058200D01*
X126112862Y-63055484D01*
X126092243Y-63049229D01*
X126073247Y-63039076D01*
X126056592Y-63025408D01*
X126042924Y-63008753D01*
X126032771Y-62989757D01*
X126026516Y-62969138D01*
X126023800Y-62941560D01*
X126023800Y-62432840D01*
X126026516Y-62405262D01*
X126032771Y-62384643D01*
X126042924Y-62365647D01*
X126056592Y-62348992D01*
X126073247Y-62335324D01*
X126092243Y-62325171D01*
X126112862Y-62318916D01*
X126140440Y-62316200D01*
X126599160Y-62316200D01*
X126626738Y-62318916D01*
G37*
G36*
X125656738Y-62318916D02*
G01*
X125677357Y-62325171D01*
X125696353Y-62335324D01*
X125713008Y-62348992D01*
X125726676Y-62365647D01*
X125736829Y-62384643D01*
X125743084Y-62405262D01*
X125745800Y-62432840D01*
X125745800Y-62941560D01*
X125743084Y-62969138D01*
X125736829Y-62989757D01*
X125726676Y-63008753D01*
X125713008Y-63025408D01*
X125696353Y-63039076D01*
X125677357Y-63049229D01*
X125656738Y-63055484D01*
X125629160Y-63058200D01*
X125170440Y-63058200D01*
X125142862Y-63055484D01*
X125122243Y-63049229D01*
X125103247Y-63039076D01*
X125086592Y-63025408D01*
X125072924Y-63008753D01*
X125062771Y-62989757D01*
X125056516Y-62969138D01*
X125053800Y-62941560D01*
X125053800Y-62432840D01*
X125056516Y-62405262D01*
X125062771Y-62384643D01*
X125072924Y-62365647D01*
X125086592Y-62348992D01*
X125103247Y-62335324D01*
X125122243Y-62325171D01*
X125142862Y-62318916D01*
X125170440Y-62316200D01*
X125629160Y-62316200D01*
X125656738Y-62318916D01*
G37*
G36*
X124665738Y-62316116D02*
G01*
X124686357Y-62322371D01*
X124705353Y-62332524D01*
X124722008Y-62346192D01*
X124735676Y-62362847D01*
X124745829Y-62381843D01*
X124752084Y-62402462D01*
X124754800Y-62430040D01*
X124754800Y-62888760D01*
X124752084Y-62916338D01*
X124745829Y-62936957D01*
X124735676Y-62955953D01*
X124722008Y-62972608D01*
X124705353Y-62986276D01*
X124686357Y-62996429D01*
X124665738Y-63002684D01*
X124638160Y-63005400D01*
X124129440Y-63005400D01*
X124101862Y-63002684D01*
X124081243Y-62996429D01*
X124062247Y-62986276D01*
X124045592Y-62972608D01*
X124031924Y-62955953D01*
X124021771Y-62936957D01*
X124015516Y-62916338D01*
X124012800Y-62888760D01*
X124012800Y-62430040D01*
X124015516Y-62402462D01*
X124021771Y-62381843D01*
X124031924Y-62362847D01*
X124045592Y-62346192D01*
X124062247Y-62332524D01*
X124081243Y-62322371D01*
X124101862Y-62316116D01*
X124129440Y-62313400D01*
X124638160Y-62313400D01*
X124665738Y-62316116D01*
G37*
G36*
X123649738Y-62313716D02*
G01*
X123670357Y-62319971D01*
X123689353Y-62330124D01*
X123706008Y-62343792D01*
X123719676Y-62360447D01*
X123729829Y-62379443D01*
X123736084Y-62400062D01*
X123738800Y-62427640D01*
X123738800Y-62886360D01*
X123736084Y-62913938D01*
X123729829Y-62934557D01*
X123719676Y-62953553D01*
X123706008Y-62970208D01*
X123689353Y-62983876D01*
X123670357Y-62994029D01*
X123649738Y-63000284D01*
X123622160Y-63003000D01*
X123113440Y-63003000D01*
X123085862Y-63000284D01*
X123065243Y-62994029D01*
X123046247Y-62983876D01*
X123029592Y-62970208D01*
X123015924Y-62953553D01*
X123005771Y-62934557D01*
X122999516Y-62913938D01*
X122996800Y-62886360D01*
X122996800Y-62427640D01*
X122999516Y-62400062D01*
X123005771Y-62379443D01*
X123015924Y-62360447D01*
X123029592Y-62343792D01*
X123046247Y-62330124D01*
X123065243Y-62319971D01*
X123085862Y-62313716D01*
X123113440Y-62311000D01*
X123622160Y-62311000D01*
X123649738Y-62313716D01*
G37*
G36*
X112460100Y-62761000D02*
G01*
X109358100Y-62761000D01*
X109358100Y-61959000D01*
X112460100Y-61959000D01*
X112460100Y-62761000D01*
G37*
G36*
X123599338Y-61302916D02*
G01*
X123619957Y-61309171D01*
X123638953Y-61319324D01*
X123655608Y-61332992D01*
X123669276Y-61349647D01*
X123679429Y-61368643D01*
X123685684Y-61389262D01*
X123688400Y-61416840D01*
X123688400Y-61925560D01*
X123685684Y-61953138D01*
X123679429Y-61973757D01*
X123669276Y-61992753D01*
X123655608Y-62009408D01*
X123638953Y-62023076D01*
X123619957Y-62033229D01*
X123599338Y-62039484D01*
X123571760Y-62042200D01*
X123113040Y-62042200D01*
X123085462Y-62039484D01*
X123064843Y-62033229D01*
X123045847Y-62023076D01*
X123029192Y-62009408D01*
X123015524Y-61992753D01*
X123005371Y-61973757D01*
X122999116Y-61953138D01*
X122996400Y-61925560D01*
X122996400Y-61416840D01*
X122999116Y-61389262D01*
X123005371Y-61368643D01*
X123015524Y-61349647D01*
X123029192Y-61332992D01*
X123045847Y-61319324D01*
X123064843Y-61309171D01*
X123085462Y-61302916D01*
X123113040Y-61300200D01*
X123571760Y-61300200D01*
X123599338Y-61302916D01*
G37*
G36*
X124569338Y-61302916D02*
G01*
X124589957Y-61309171D01*
X124608953Y-61319324D01*
X124625608Y-61332992D01*
X124639276Y-61349647D01*
X124649429Y-61368643D01*
X124655684Y-61389262D01*
X124658400Y-61416840D01*
X124658400Y-61925560D01*
X124655684Y-61953138D01*
X124649429Y-61973757D01*
X124639276Y-61992753D01*
X124625608Y-62009408D01*
X124608953Y-62023076D01*
X124589957Y-62033229D01*
X124569338Y-62039484D01*
X124541760Y-62042200D01*
X124083040Y-62042200D01*
X124055462Y-62039484D01*
X124034843Y-62033229D01*
X124015847Y-62023076D01*
X123999192Y-62009408D01*
X123985524Y-61992753D01*
X123975371Y-61973757D01*
X123969116Y-61953138D01*
X123966400Y-61925560D01*
X123966400Y-61416840D01*
X123969116Y-61389262D01*
X123975371Y-61368643D01*
X123985524Y-61349647D01*
X123999192Y-61332992D01*
X124015847Y-61319324D01*
X124034843Y-61309171D01*
X124055462Y-61302916D01*
X124083040Y-61300200D01*
X124541760Y-61300200D01*
X124569338Y-61302916D01*
G37*
G36*
X126621538Y-61327916D02*
G01*
X126642157Y-61334171D01*
X126661153Y-61344324D01*
X126677808Y-61357992D01*
X126691476Y-61374647D01*
X126701629Y-61393643D01*
X126707884Y-61414262D01*
X126710600Y-61441840D01*
X126710600Y-61900560D01*
X126707884Y-61928138D01*
X126701629Y-61948757D01*
X126691476Y-61967753D01*
X126677808Y-61984408D01*
X126661153Y-61998076D01*
X126642157Y-62008229D01*
X126621538Y-62014484D01*
X126593960Y-62017200D01*
X126085240Y-62017200D01*
X126057662Y-62014484D01*
X126037043Y-62008229D01*
X126018047Y-61998076D01*
X126001392Y-61984408D01*
X125987724Y-61967753D01*
X125977571Y-61948757D01*
X125971316Y-61928138D01*
X125968600Y-61900560D01*
X125968600Y-61441840D01*
X125971316Y-61414262D01*
X125977571Y-61393643D01*
X125987724Y-61374647D01*
X126001392Y-61357992D01*
X126018047Y-61344324D01*
X126037043Y-61334171D01*
X126057662Y-61327916D01*
X126085240Y-61325200D01*
X126593960Y-61325200D01*
X126621538Y-61327916D01*
G37*
G36*
X112460100Y-61361000D02*
G01*
X109358100Y-61361000D01*
X109358100Y-60559000D01*
X112460100Y-60559000D01*
X112460100Y-61361000D01*
G37*
G36*
X126621538Y-60357916D02*
G01*
X126642157Y-60364171D01*
X126661153Y-60374324D01*
X126677808Y-60387992D01*
X126691476Y-60404647D01*
X126701629Y-60423643D01*
X126707884Y-60444262D01*
X126710600Y-60471840D01*
X126710600Y-60930560D01*
X126707884Y-60958138D01*
X126701629Y-60978757D01*
X126691476Y-60997753D01*
X126677808Y-61014408D01*
X126661153Y-61028076D01*
X126642157Y-61038229D01*
X126621538Y-61044484D01*
X126593960Y-61047200D01*
X126085240Y-61047200D01*
X126057662Y-61044484D01*
X126037043Y-61038229D01*
X126018047Y-61028076D01*
X126001392Y-61014408D01*
X125987724Y-60997753D01*
X125977571Y-60978757D01*
X125971316Y-60958138D01*
X125968600Y-60930560D01*
X125968600Y-60471840D01*
X125971316Y-60444262D01*
X125977571Y-60423643D01*
X125987724Y-60404647D01*
X126001392Y-60387992D01*
X126018047Y-60374324D01*
X126037043Y-60364171D01*
X126057662Y-60357916D01*
X126085240Y-60355200D01*
X126593960Y-60355200D01*
X126621538Y-60357916D01*
G37*
G36*
X123649738Y-60337316D02*
G01*
X123670357Y-60343571D01*
X123689353Y-60353724D01*
X123706008Y-60367392D01*
X123719676Y-60384047D01*
X123729829Y-60403043D01*
X123736084Y-60423662D01*
X123738800Y-60451240D01*
X123738800Y-60909960D01*
X123736084Y-60937538D01*
X123729829Y-60958157D01*
X123719676Y-60977153D01*
X123706008Y-60993808D01*
X123689353Y-61007476D01*
X123670357Y-61017629D01*
X123649738Y-61023884D01*
X123622160Y-61026600D01*
X123113440Y-61026600D01*
X123085862Y-61023884D01*
X123065243Y-61017629D01*
X123046247Y-61007476D01*
X123029592Y-60993808D01*
X123015924Y-60977153D01*
X123005771Y-60958157D01*
X122999516Y-60937538D01*
X122996800Y-60909960D01*
X122996800Y-60451240D01*
X122999516Y-60423662D01*
X123005771Y-60403043D01*
X123015924Y-60384047D01*
X123029592Y-60367392D01*
X123046247Y-60353724D01*
X123065243Y-60343571D01*
X123085862Y-60337316D01*
X123113440Y-60334600D01*
X123622160Y-60334600D01*
X123649738Y-60337316D01*
G37*
G36*
X123649738Y-59367316D02*
G01*
X123670357Y-59373571D01*
X123689353Y-59383724D01*
X123706008Y-59397392D01*
X123719676Y-59414047D01*
X123729829Y-59433043D01*
X123736084Y-59453662D01*
X123738800Y-59481240D01*
X123738800Y-59939960D01*
X123736084Y-59967538D01*
X123729829Y-59988157D01*
X123719676Y-60007153D01*
X123706008Y-60023808D01*
X123689353Y-60037476D01*
X123670357Y-60047629D01*
X123649738Y-60053884D01*
X123622160Y-60056600D01*
X123113440Y-60056600D01*
X123085862Y-60053884D01*
X123065243Y-60047629D01*
X123046247Y-60037476D01*
X123029592Y-60023808D01*
X123015924Y-60007153D01*
X123005771Y-59988157D01*
X122999516Y-59967538D01*
X122996800Y-59939960D01*
X122996800Y-59481240D01*
X122999516Y-59453662D01*
X123005771Y-59433043D01*
X123015924Y-59414047D01*
X123029592Y-59397392D01*
X123046247Y-59383724D01*
X123065243Y-59373571D01*
X123085862Y-59367316D01*
X123113440Y-59364600D01*
X123622160Y-59364600D01*
X123649738Y-59367316D01*
G37*
G36*
X121770138Y-58500616D02*
G01*
X121790757Y-58506871D01*
X121809753Y-58517024D01*
X121826408Y-58530692D01*
X121840076Y-58547347D01*
X121850229Y-58566343D01*
X121856484Y-58586962D01*
X121859200Y-58614540D01*
X121859200Y-59073260D01*
X121856484Y-59100838D01*
X121850229Y-59121457D01*
X121840076Y-59140453D01*
X121826408Y-59157108D01*
X121809753Y-59170776D01*
X121790757Y-59180929D01*
X121770138Y-59187184D01*
X121742560Y-59189900D01*
X121233840Y-59189900D01*
X121206262Y-59187184D01*
X121185643Y-59180929D01*
X121166647Y-59170776D01*
X121149992Y-59157108D01*
X121136324Y-59140453D01*
X121126171Y-59121457D01*
X121119916Y-59100838D01*
X121117200Y-59073260D01*
X121117200Y-58614540D01*
X121119916Y-58586962D01*
X121126171Y-58566343D01*
X121136324Y-58547347D01*
X121149992Y-58530692D01*
X121166647Y-58517024D01*
X121185643Y-58506871D01*
X121206262Y-58500616D01*
X121233840Y-58497900D01*
X121742560Y-58497900D01*
X121770138Y-58500616D01*
G37*
G36*
X120754138Y-58500616D02*
G01*
X120774757Y-58506871D01*
X120793753Y-58517024D01*
X120810408Y-58530692D01*
X120824076Y-58547347D01*
X120834229Y-58566343D01*
X120840484Y-58586962D01*
X120843200Y-58614540D01*
X120843200Y-59073260D01*
X120840484Y-59100838D01*
X120834229Y-59121457D01*
X120824076Y-59140453D01*
X120810408Y-59157108D01*
X120793753Y-59170776D01*
X120774757Y-59180929D01*
X120754138Y-59187184D01*
X120726560Y-59189900D01*
X120217840Y-59189900D01*
X120190262Y-59187184D01*
X120169643Y-59180929D01*
X120150647Y-59170776D01*
X120133992Y-59157108D01*
X120120324Y-59140453D01*
X120110171Y-59121457D01*
X120103916Y-59100838D01*
X120101200Y-59073260D01*
X120101200Y-58614540D01*
X120103916Y-58586962D01*
X120110171Y-58566343D01*
X120120324Y-58547347D01*
X120133992Y-58530692D01*
X120150647Y-58517024D01*
X120169643Y-58506871D01*
X120190262Y-58500616D01*
X120217840Y-58497900D01*
X120726560Y-58497900D01*
X120754138Y-58500616D01*
G37*
G36*
X118976138Y-58500616D02*
G01*
X118996757Y-58506871D01*
X119015753Y-58517024D01*
X119032408Y-58530692D01*
X119046076Y-58547347D01*
X119056229Y-58566343D01*
X119062484Y-58586962D01*
X119065200Y-58614540D01*
X119065200Y-59073260D01*
X119062484Y-59100838D01*
X119056229Y-59121457D01*
X119046076Y-59140453D01*
X119032408Y-59157108D01*
X119015753Y-59170776D01*
X118996757Y-59180929D01*
X118976138Y-59187184D01*
X118948560Y-59189900D01*
X118439840Y-59189900D01*
X118412262Y-59187184D01*
X118391643Y-59180929D01*
X118372647Y-59170776D01*
X118355992Y-59157108D01*
X118342324Y-59140453D01*
X118332171Y-59121457D01*
X118325916Y-59100838D01*
X118323200Y-59073260D01*
X118323200Y-58614540D01*
X118325916Y-58586962D01*
X118332171Y-58566343D01*
X118342324Y-58547347D01*
X118355992Y-58530692D01*
X118372647Y-58517024D01*
X118391643Y-58506871D01*
X118412262Y-58500616D01*
X118439840Y-58497900D01*
X118948560Y-58497900D01*
X118976138Y-58500616D01*
G37*
G36*
X115140738Y-58498216D02*
G01*
X115161357Y-58504471D01*
X115180353Y-58514624D01*
X115197008Y-58528292D01*
X115210676Y-58544947D01*
X115220829Y-58563943D01*
X115227084Y-58584562D01*
X115229800Y-58612140D01*
X115229800Y-59070860D01*
X115227084Y-59098438D01*
X115220829Y-59119057D01*
X115210676Y-59138053D01*
X115197008Y-59154708D01*
X115180353Y-59168376D01*
X115161357Y-59178529D01*
X115140738Y-59184784D01*
X115113160Y-59187500D01*
X114604440Y-59187500D01*
X114576862Y-59184784D01*
X114556243Y-59178529D01*
X114537247Y-59168376D01*
X114520592Y-59154708D01*
X114506924Y-59138053D01*
X114496771Y-59119057D01*
X114490516Y-59098438D01*
X114487800Y-59070860D01*
X114487800Y-58612140D01*
X114490516Y-58584562D01*
X114496771Y-58563943D01*
X114506924Y-58544947D01*
X114520592Y-58528292D01*
X114537247Y-58514624D01*
X114556243Y-58504471D01*
X114576862Y-58498216D01*
X114604440Y-58495500D01*
X115113160Y-58495500D01*
X115140738Y-58498216D01*
G37*
G36*
X116156738Y-58495816D02*
G01*
X116177357Y-58502071D01*
X116196353Y-58512224D01*
X116213008Y-58525892D01*
X116226676Y-58542547D01*
X116236829Y-58561543D01*
X116243084Y-58582162D01*
X116245800Y-58609740D01*
X116245800Y-59068460D01*
X116243084Y-59096038D01*
X116236829Y-59116657D01*
X116226676Y-59135653D01*
X116213008Y-59152308D01*
X116196353Y-59165976D01*
X116177357Y-59176129D01*
X116156738Y-59182384D01*
X116129160Y-59185100D01*
X115620440Y-59185100D01*
X115592862Y-59182384D01*
X115572243Y-59176129D01*
X115553247Y-59165976D01*
X115536592Y-59152308D01*
X115522924Y-59135653D01*
X115512771Y-59116657D01*
X115506516Y-59096038D01*
X115503800Y-59068460D01*
X115503800Y-58609740D01*
X115506516Y-58582162D01*
X115512771Y-58561543D01*
X115522924Y-58542547D01*
X115536592Y-58525892D01*
X115553247Y-58512224D01*
X115572243Y-58502071D01*
X115592862Y-58495816D01*
X115620440Y-58493100D01*
X116129160Y-58493100D01*
X116156738Y-58495816D01*
G37*
G36*
X117960138Y-58487916D02*
G01*
X117980757Y-58494171D01*
X117999753Y-58504324D01*
X118016408Y-58517992D01*
X118030076Y-58534647D01*
X118040229Y-58553643D01*
X118046484Y-58574262D01*
X118049200Y-58601840D01*
X118049200Y-59060560D01*
X118046484Y-59088138D01*
X118040229Y-59108757D01*
X118030076Y-59127753D01*
X118016408Y-59144408D01*
X117999753Y-59158076D01*
X117980757Y-59168229D01*
X117960138Y-59174484D01*
X117932560Y-59177200D01*
X117423840Y-59177200D01*
X117396262Y-59174484D01*
X117375643Y-59168229D01*
X117356647Y-59158076D01*
X117339992Y-59144408D01*
X117326324Y-59127753D01*
X117316171Y-59108757D01*
X117309916Y-59088138D01*
X117307200Y-59060560D01*
X117307200Y-58601840D01*
X117309916Y-58574262D01*
X117316171Y-58553643D01*
X117326324Y-58534647D01*
X117339992Y-58517992D01*
X117356647Y-58504324D01*
X117375643Y-58494171D01*
X117396262Y-58487916D01*
X117423840Y-58485200D01*
X117932560Y-58485200D01*
X117960138Y-58487916D01*
G37*
G36*
X121770138Y-57530616D02*
G01*
X121790757Y-57536871D01*
X121809753Y-57547024D01*
X121826408Y-57560692D01*
X121840076Y-57577347D01*
X121850229Y-57596343D01*
X121856484Y-57616962D01*
X121859200Y-57644540D01*
X121859200Y-58103260D01*
X121856484Y-58130838D01*
X121850229Y-58151457D01*
X121840076Y-58170453D01*
X121826408Y-58187108D01*
X121809753Y-58200776D01*
X121790757Y-58210929D01*
X121770138Y-58217184D01*
X121742560Y-58219900D01*
X121233840Y-58219900D01*
X121206262Y-58217184D01*
X121185643Y-58210929D01*
X121166647Y-58200776D01*
X121149992Y-58187108D01*
X121136324Y-58170453D01*
X121126171Y-58151457D01*
X121119916Y-58130838D01*
X121117200Y-58103260D01*
X121117200Y-57644540D01*
X121119916Y-57616962D01*
X121126171Y-57596343D01*
X121136324Y-57577347D01*
X121149992Y-57560692D01*
X121166647Y-57547024D01*
X121185643Y-57536871D01*
X121206262Y-57530616D01*
X121233840Y-57527900D01*
X121742560Y-57527900D01*
X121770138Y-57530616D01*
G37*
G36*
X120754138Y-57530616D02*
G01*
X120774757Y-57536871D01*
X120793753Y-57547024D01*
X120810408Y-57560692D01*
X120824076Y-57577347D01*
X120834229Y-57596343D01*
X120840484Y-57616962D01*
X120843200Y-57644540D01*
X120843200Y-58103260D01*
X120840484Y-58130838D01*
X120834229Y-58151457D01*
X120824076Y-58170453D01*
X120810408Y-58187108D01*
X120793753Y-58200776D01*
X120774757Y-58210929D01*
X120754138Y-58217184D01*
X120726560Y-58219900D01*
X120217840Y-58219900D01*
X120190262Y-58217184D01*
X120169643Y-58210929D01*
X120150647Y-58200776D01*
X120133992Y-58187108D01*
X120120324Y-58170453D01*
X120110171Y-58151457D01*
X120103916Y-58130838D01*
X120101200Y-58103260D01*
X120101200Y-57644540D01*
X120103916Y-57616962D01*
X120110171Y-57596343D01*
X120120324Y-57577347D01*
X120133992Y-57560692D01*
X120150647Y-57547024D01*
X120169643Y-57536871D01*
X120190262Y-57530616D01*
X120217840Y-57527900D01*
X120726560Y-57527900D01*
X120754138Y-57530616D01*
G37*
G36*
X118976138Y-57530616D02*
G01*
X118996757Y-57536871D01*
X119015753Y-57547024D01*
X119032408Y-57560692D01*
X119046076Y-57577347D01*
X119056229Y-57596343D01*
X119062484Y-57616962D01*
X119065200Y-57644540D01*
X119065200Y-58103260D01*
X119062484Y-58130838D01*
X119056229Y-58151457D01*
X119046076Y-58170453D01*
X119032408Y-58187108D01*
X119015753Y-58200776D01*
X118996757Y-58210929D01*
X118976138Y-58217184D01*
X118948560Y-58219900D01*
X118439840Y-58219900D01*
X118412262Y-58217184D01*
X118391643Y-58210929D01*
X118372647Y-58200776D01*
X118355992Y-58187108D01*
X118342324Y-58170453D01*
X118332171Y-58151457D01*
X118325916Y-58130838D01*
X118323200Y-58103260D01*
X118323200Y-57644540D01*
X118325916Y-57616962D01*
X118332171Y-57596343D01*
X118342324Y-57577347D01*
X118355992Y-57560692D01*
X118372647Y-57547024D01*
X118391643Y-57536871D01*
X118412262Y-57530616D01*
X118439840Y-57527900D01*
X118948560Y-57527900D01*
X118976138Y-57530616D01*
G37*
G36*
X115140738Y-57528216D02*
G01*
X115161357Y-57534471D01*
X115180353Y-57544624D01*
X115197008Y-57558292D01*
X115210676Y-57574947D01*
X115220829Y-57593943D01*
X115227084Y-57614562D01*
X115229800Y-57642140D01*
X115229800Y-58100860D01*
X115227084Y-58128438D01*
X115220829Y-58149057D01*
X115210676Y-58168053D01*
X115197008Y-58184708D01*
X115180353Y-58198376D01*
X115161357Y-58208529D01*
X115140738Y-58214784D01*
X115113160Y-58217500D01*
X114604440Y-58217500D01*
X114576862Y-58214784D01*
X114556243Y-58208529D01*
X114537247Y-58198376D01*
X114520592Y-58184708D01*
X114506924Y-58168053D01*
X114496771Y-58149057D01*
X114490516Y-58128438D01*
X114487800Y-58100860D01*
X114487800Y-57642140D01*
X114490516Y-57614562D01*
X114496771Y-57593943D01*
X114506924Y-57574947D01*
X114520592Y-57558292D01*
X114537247Y-57544624D01*
X114556243Y-57534471D01*
X114576862Y-57528216D01*
X114604440Y-57525500D01*
X115113160Y-57525500D01*
X115140738Y-57528216D01*
G37*
G36*
X116156738Y-57525816D02*
G01*
X116177357Y-57532071D01*
X116196353Y-57542224D01*
X116213008Y-57555892D01*
X116226676Y-57572547D01*
X116236829Y-57591543D01*
X116243084Y-57612162D01*
X116245800Y-57639740D01*
X116245800Y-58098460D01*
X116243084Y-58126038D01*
X116236829Y-58146657D01*
X116226676Y-58165653D01*
X116213008Y-58182308D01*
X116196353Y-58195976D01*
X116177357Y-58206129D01*
X116156738Y-58212384D01*
X116129160Y-58215100D01*
X115620440Y-58215100D01*
X115592862Y-58212384D01*
X115572243Y-58206129D01*
X115553247Y-58195976D01*
X115536592Y-58182308D01*
X115522924Y-58165653D01*
X115512771Y-58146657D01*
X115506516Y-58126038D01*
X115503800Y-58098460D01*
X115503800Y-57639740D01*
X115506516Y-57612162D01*
X115512771Y-57591543D01*
X115522924Y-57572547D01*
X115536592Y-57555892D01*
X115553247Y-57542224D01*
X115572243Y-57532071D01*
X115592862Y-57525816D01*
X115620440Y-57523100D01*
X116129160Y-57523100D01*
X116156738Y-57525816D01*
G37*
G36*
X117960138Y-57517916D02*
G01*
X117980757Y-57524171D01*
X117999753Y-57534324D01*
X118016408Y-57547992D01*
X118030076Y-57564647D01*
X118040229Y-57583643D01*
X118046484Y-57604262D01*
X118049200Y-57631840D01*
X118049200Y-58090560D01*
X118046484Y-58118138D01*
X118040229Y-58138757D01*
X118030076Y-58157753D01*
X118016408Y-58174408D01*
X117999753Y-58188076D01*
X117980757Y-58198229D01*
X117960138Y-58204484D01*
X117932560Y-58207200D01*
X117423840Y-58207200D01*
X117396262Y-58204484D01*
X117375643Y-58198229D01*
X117356647Y-58188076D01*
X117339992Y-58174408D01*
X117326324Y-58157753D01*
X117316171Y-58138757D01*
X117309916Y-58118138D01*
X117307200Y-58090560D01*
X117307200Y-57631840D01*
X117309916Y-57604262D01*
X117316171Y-57583643D01*
X117326324Y-57564647D01*
X117339992Y-57547992D01*
X117356647Y-57534324D01*
X117375643Y-57524171D01*
X117396262Y-57517916D01*
X117423840Y-57515200D01*
X117932560Y-57515200D01*
X117960138Y-57517916D01*
G37*
M02*
