M48
; DRILL file {KiCad (5.1.5)-3} date 20.01.2022 18:21:33
; FORMAT={-:-/ absolute / inch / decimal}
; #@! TF.CreationDate,2022-01-20T18:21:33+01:00
; #@! TF.GenerationSoftware,Kicad,Pcbnew,(5.1.5)-3
; #@! TF.FileFunction,Plated,1,4,PTH
FMAT,2
INCH
T1C0.0079
T2C0.0394
%
G90
G05
T1
X4.414Y-2.455
X4.414Y-2.51
X4.414Y-2.565
X4.414Y-2.62
X4.414Y-2.675
X4.414Y-2.731
X4.4734Y-2.5285
X4.489Y-2.6531
X4.497Y-2.496
X4.497Y-2.769
X4.512Y-2.368
X4.5173Y-2.6709
X4.521Y-2.316
X4.522Y-2.278
X4.536Y-2.496
X4.5409Y-2.6504
X4.545Y-2.368
X4.565Y-2.769
X4.578Y-2.368
X4.633Y-2.279
X4.633Y-2.316
X4.669Y-2.719
X4.728Y-2.67
X4.743Y-2.279
X4.743Y-2.318
X4.777Y-2.583
X4.783Y-2.278
X4.783Y-2.318
X4.8031Y-2.7953
X4.806Y-2.724
X4.856Y-2.658
X4.8575Y-2.3505
X4.865Y-2.732
X4.898Y-2.593
X4.898Y-2.632
X4.898Y-2.666
X4.933Y-2.428
X4.933Y-2.5075
X4.933Y-2.581
X4.975Y-2.3905
T2
X4.988Y-2.6
T0
M30
